M48
;DRILL file {Pcbnew (2013-07-07 BZR 4022)-stable} date 11/09/2013 12:50:23
;FORMAT={-:-/ absolute / metric / decimal}
FMAT,2
METRIC,TZ
T1C0.600
T2C0.635
T3C0.813
T4C1.015
T5C1.016
T6C3.100
%
G90
G05
M71
T1
X4.53Y-18.15
X6.45Y-23.3
X7.7Y-31.35
X7.85Y-42.85
X8.15Y-37.9
X9.05Y-15.85
X10.55Y-15.85
X12.05Y-29.2
X12.15Y-27.
X12.837Y-3.143
X15.25Y-22.15
X18.5Y-32.1
X18.95Y-18.45
X19.822Y-4.032
X20.6Y-27.7
X21.05Y-35.15
X21.45Y-41.4
X21.95Y-36.3
X22.46Y-4.08
X23.05Y-34.55
X23.45Y-29.65
X24.Y-42.5
X29.75Y-38.25
X30.35Y-8.4
X30.85Y-47.85
X30.9Y-37.2
X32.72Y-23.76
X32.75Y-37.75
X33.11Y-25.04
X33.35Y-8.5
X33.35Y-31.2
X33.89Y-32.21
X34.Y-29.15
X34.75Y-37.55
X35.06Y-32.06
X35.75Y-4.45
X36.15Y-38.15
X36.6Y-41.9
X36.81Y-30.2
X37.5Y-34.75
X37.6Y-31.05
X39.15Y-25.65
X39.4Y-17.775
X39.85Y-29.4
X40.5Y-40.46
X42.05Y-22.05
X42.8Y-42.2
X43.375Y-20.375
X48.15Y-33.25
X48.54Y-39.96
X48.55Y-43.5
X50.45Y-28.65
X51.85Y-33.6
X52.7Y-34.6
X52.725Y-37.75
X52.8Y-15.3
X53.Y-39.9
X54.7Y-10.5
X54.7Y-11.75
X54.7Y-12.95
X54.7Y-34.75
X55.3Y-21.65
X56.5Y-19.
X56.9Y-6.05
X61.9Y-27.55
X62.35Y-34.85
X63.35Y-25.95
X63.45Y-31.
X64.33Y-27.37
X69.25Y-7.35
X69.4Y-16.25
X69.45Y-17.55
X70.85Y-10.5
X70.85Y-11.75
X70.85Y-13.
X71.35Y-7.35
X71.4Y-16.2
T2
X53.35Y-46.45
X53.35Y-48.228
X53.35Y-50.006
T3
X9.154Y-53.562
X11.694Y-53.562
X18.044Y-53.562
X19.822Y-41.624
X19.822Y-49.244
X20.584Y-53.562
X25.918Y-6.572
X28.966Y-15.208
X28.966Y-22.828
X33.538Y-6.572
X35.824Y-16.519
X35.824Y-21.517
X42.936Y-24.479
X48.016Y-24.479
T4
X2.Y-27.15
X2.Y-29.69
T5
X2.Y-19.53
X2.Y-22.07
X2.Y-24.61
X2.Y-32.23
X2.Y-34.77
X2.Y-37.31
X2.Y-39.85
X2.Y-42.39
X2.Y-44.93
X2.26Y-2.73
X2.26Y-5.27
X4.8Y-2.73
X4.8Y-5.27
X5.598Y-37.306
X7.34Y-2.73
X7.34Y-5.27
X9.916Y-1.365
X10.678Y-37.306
X12.456Y-1.365
X14.996Y-1.365
X15.504Y-15.234
X15.504Y-50.234
X17.536Y-1.365
X23.886Y-15.234
X23.886Y-50.234
X27.442Y-54.07
X28.585Y-42.259
X29.982Y-54.07
X32.522Y-54.07
X33.665Y-42.259
X35.062Y-47.72
X35.062Y-54.07
X37.602Y-47.72
X37.602Y-54.07
X54.239Y-54.07
X56.779Y-54.07
X59.192Y-50.006
X59.319Y-1.365
X59.319Y-54.07
X61.732Y-50.006
X61.859Y-1.365
X61.859Y-54.07
X64.399Y-1.365
X66.939Y-1.365
T6
X4.5Y-51.
X4.582Y-11.398
X69.352Y-31.972
T0
M30
