G04 (created by PCBNEW (2013-07-07 BZR 4022)-stable) date 11/09/2013 12:50:20*
%MOIN*%
G04 Gerber Fmt 3.4, Leading zero omitted, Abs format*
%FSLAX34Y34*%
G01*
G70*
G90*
G04 APERTURE LIST*
%ADD10C,0.00590551*%
%ADD11C,0.00492126*%
%ADD12C,0.00688976*%
%ADD13R,0.036X0.036*%
%ADD14R,0.0315X0.0394*%
%ADD15R,0.055X0.035*%
%ADD16R,0.035X0.055*%
%ADD17C,0.045*%
%ADD18R,0.06X0.06*%
%ADD19C,0.06*%
%ADD20C,0.066*%
%ADD21R,0.055X0.055*%
%ADD22C,0.055*%
%ADD23C,0.255906*%
%ADD24R,0.0236X0.0551*%
%ADD25C,0.0590551*%
%ADD26R,0.07X0.07*%
%ADD27C,0.07*%
%ADD28R,0.144X0.08*%
%ADD29R,0.04X0.08*%
%ADD30C,0.0354331*%
%ADD31C,0.0275591*%
%ADD32C,0.0393701*%
%ADD33C,0.0137795*%
%ADD34C,0.019685*%
%ADD35C,0.00984252*%
%ADD36C,0.01*%
G04 APERTURE END LIST*
G54D10*
G54D11*
X14854Y-17737D02*
X14854Y-17896D01*
X14845Y-17915D01*
X14835Y-17924D01*
X14817Y-17934D01*
X14779Y-17934D01*
X14760Y-17924D01*
X14751Y-17915D01*
X14742Y-17896D01*
X14742Y-17737D01*
X14657Y-17924D02*
X14629Y-17934D01*
X14582Y-17934D01*
X14564Y-17924D01*
X14554Y-17915D01*
X14545Y-17896D01*
X14545Y-17877D01*
X14554Y-17859D01*
X14564Y-17849D01*
X14582Y-17840D01*
X14620Y-17830D01*
X14639Y-17821D01*
X14648Y-17812D01*
X14657Y-17793D01*
X14657Y-17774D01*
X14648Y-17755D01*
X14639Y-17746D01*
X14620Y-17737D01*
X14573Y-17737D01*
X14545Y-17746D01*
X14395Y-17830D02*
X14367Y-17840D01*
X14357Y-17849D01*
X14348Y-17868D01*
X14348Y-17896D01*
X14357Y-17915D01*
X14367Y-17924D01*
X14386Y-17934D01*
X14461Y-17934D01*
X14461Y-17737D01*
X14395Y-17737D01*
X14376Y-17746D01*
X14367Y-17755D01*
X14357Y-17774D01*
X14357Y-17793D01*
X14367Y-17812D01*
X14376Y-17821D01*
X14395Y-17830D01*
X14461Y-17830D01*
X15159Y-18127D02*
X15159Y-18324D01*
X15159Y-18136D02*
X15140Y-18127D01*
X15103Y-18127D01*
X15084Y-18136D01*
X15074Y-18146D01*
X15065Y-18165D01*
X15065Y-18221D01*
X15074Y-18240D01*
X15084Y-18249D01*
X15103Y-18258D01*
X15140Y-18258D01*
X15159Y-18249D01*
X14953Y-18258D02*
X14971Y-18249D01*
X14981Y-18240D01*
X14990Y-18221D01*
X14990Y-18165D01*
X14981Y-18146D01*
X14971Y-18136D01*
X14953Y-18127D01*
X14925Y-18127D01*
X14906Y-18136D01*
X14896Y-18146D01*
X14887Y-18165D01*
X14887Y-18221D01*
X14896Y-18240D01*
X14906Y-18249D01*
X14925Y-18258D01*
X14953Y-18258D01*
X14821Y-18127D02*
X14784Y-18258D01*
X14746Y-18165D01*
X14709Y-18258D01*
X14671Y-18127D01*
X14521Y-18249D02*
X14540Y-18258D01*
X14578Y-18258D01*
X14596Y-18249D01*
X14606Y-18230D01*
X14606Y-18155D01*
X14596Y-18136D01*
X14578Y-18127D01*
X14540Y-18127D01*
X14521Y-18136D01*
X14512Y-18155D01*
X14512Y-18174D01*
X14606Y-18193D01*
X14428Y-18258D02*
X14428Y-18127D01*
X14428Y-18165D02*
X14418Y-18146D01*
X14409Y-18136D01*
X14390Y-18127D01*
X14371Y-18127D01*
X14231Y-18249D02*
X14250Y-18258D01*
X14287Y-18258D01*
X14306Y-18249D01*
X14315Y-18230D01*
X14315Y-18155D01*
X14306Y-18136D01*
X14287Y-18127D01*
X14250Y-18127D01*
X14231Y-18136D01*
X14221Y-18155D01*
X14221Y-18174D01*
X14315Y-18193D01*
X14053Y-18258D02*
X14053Y-18061D01*
X14053Y-18249D02*
X14071Y-18258D01*
X14109Y-18258D01*
X14128Y-18249D01*
X14137Y-18240D01*
X14146Y-18221D01*
X14146Y-18165D01*
X14137Y-18146D01*
X14128Y-18136D01*
X14109Y-18127D01*
X14071Y-18127D01*
X14053Y-18136D01*
X23457Y-20315D02*
X23475Y-20306D01*
X23485Y-20287D01*
X23485Y-20119D01*
X23307Y-20306D02*
X23325Y-20315D01*
X23363Y-20315D01*
X23382Y-20306D01*
X23391Y-20287D01*
X23391Y-20212D01*
X23382Y-20194D01*
X23363Y-20184D01*
X23325Y-20184D01*
X23307Y-20194D01*
X23297Y-20212D01*
X23297Y-20231D01*
X23391Y-20250D01*
X23128Y-20315D02*
X23128Y-20119D01*
X23128Y-20306D02*
X23147Y-20315D01*
X23185Y-20315D01*
X23203Y-20306D01*
X23213Y-20297D01*
X23222Y-20278D01*
X23222Y-20222D01*
X23213Y-20203D01*
X23203Y-20194D01*
X23185Y-20184D01*
X23147Y-20184D01*
X23128Y-20194D01*
X24486Y-20125D02*
X24486Y-20284D01*
X24495Y-20303D01*
X24505Y-20313D01*
X24523Y-20322D01*
X24551Y-20322D01*
X24570Y-20313D01*
X24486Y-20247D02*
X24505Y-20256D01*
X24542Y-20256D01*
X24561Y-20247D01*
X24570Y-20238D01*
X24580Y-20219D01*
X24580Y-20163D01*
X24570Y-20144D01*
X24561Y-20134D01*
X24542Y-20125D01*
X24505Y-20125D01*
X24486Y-20134D01*
X24392Y-20125D02*
X24392Y-20256D01*
X24392Y-20144D02*
X24383Y-20134D01*
X24364Y-20125D01*
X24336Y-20125D01*
X24317Y-20134D01*
X24308Y-20153D01*
X24308Y-20256D01*
X24130Y-20256D02*
X24130Y-20059D01*
X24130Y-20247D02*
X24148Y-20256D01*
X24186Y-20256D01*
X24205Y-20247D01*
X24214Y-20238D01*
X24223Y-20219D01*
X24223Y-20163D01*
X24214Y-20144D01*
X24205Y-20134D01*
X24186Y-20125D01*
X24148Y-20125D01*
X24130Y-20134D01*
X24486Y-20460D02*
X24486Y-20619D01*
X24495Y-20638D01*
X24505Y-20647D01*
X24523Y-20657D01*
X24551Y-20657D01*
X24570Y-20647D01*
X24486Y-20582D02*
X24505Y-20591D01*
X24542Y-20591D01*
X24561Y-20582D01*
X24570Y-20572D01*
X24580Y-20553D01*
X24580Y-20497D01*
X24570Y-20479D01*
X24561Y-20469D01*
X24542Y-20460D01*
X24505Y-20460D01*
X24486Y-20469D01*
X24392Y-20460D02*
X24392Y-20591D01*
X24392Y-20479D02*
X24383Y-20469D01*
X24364Y-20460D01*
X24336Y-20460D01*
X24317Y-20469D01*
X24308Y-20488D01*
X24308Y-20591D01*
X24130Y-20591D02*
X24130Y-20394D01*
X24130Y-20582D02*
X24148Y-20591D01*
X24186Y-20591D01*
X24205Y-20582D01*
X24214Y-20572D01*
X24223Y-20553D01*
X24223Y-20497D01*
X24214Y-20479D01*
X24205Y-20469D01*
X24186Y-20460D01*
X24148Y-20460D01*
X24130Y-20469D01*
X23479Y-20434D02*
X23357Y-20434D01*
X23423Y-20508D01*
X23395Y-20508D01*
X23376Y-20518D01*
X23367Y-20527D01*
X23357Y-20546D01*
X23357Y-20593D01*
X23367Y-20612D01*
X23376Y-20621D01*
X23395Y-20630D01*
X23451Y-20630D01*
X23470Y-20621D01*
X23479Y-20612D01*
X23273Y-20612D02*
X23263Y-20621D01*
X23273Y-20630D01*
X23282Y-20621D01*
X23273Y-20612D01*
X23273Y-20630D01*
X23198Y-20434D02*
X23076Y-20434D01*
X23142Y-20508D01*
X23113Y-20508D01*
X23095Y-20518D01*
X23085Y-20527D01*
X23076Y-20546D01*
X23076Y-20593D01*
X23085Y-20612D01*
X23095Y-20621D01*
X23113Y-20630D01*
X23170Y-20630D01*
X23188Y-20621D01*
X23198Y-20612D01*
X23020Y-20434D02*
X22954Y-20630D01*
X22889Y-20434D01*
X22629Y-20611D02*
X22629Y-20414D01*
X22629Y-20489D02*
X22610Y-20479D01*
X22573Y-20479D01*
X22554Y-20489D01*
X22544Y-20498D01*
X22535Y-20517D01*
X22535Y-20573D01*
X22544Y-20592D01*
X22554Y-20601D01*
X22573Y-20611D01*
X22610Y-20611D01*
X22629Y-20601D01*
X22366Y-20611D02*
X22366Y-20508D01*
X22376Y-20489D01*
X22395Y-20479D01*
X22432Y-20479D01*
X22451Y-20489D01*
X22366Y-20601D02*
X22385Y-20611D01*
X22432Y-20611D01*
X22451Y-20601D01*
X22460Y-20583D01*
X22460Y-20564D01*
X22451Y-20545D01*
X22432Y-20536D01*
X22385Y-20536D01*
X22366Y-20526D01*
X22301Y-20479D02*
X22226Y-20479D01*
X22273Y-20414D02*
X22273Y-20583D01*
X22263Y-20601D01*
X22245Y-20611D01*
X22226Y-20611D01*
X22188Y-20479D02*
X22113Y-20479D01*
X22160Y-20414D02*
X22160Y-20583D01*
X22151Y-20601D01*
X22132Y-20611D01*
X22113Y-20611D01*
X22048Y-20536D02*
X21898Y-20536D01*
X21973Y-20611D02*
X21973Y-20461D01*
X21611Y-20555D02*
X21461Y-20555D01*
X21536Y-20630D02*
X21536Y-20480D01*
X21273Y-20434D02*
X21367Y-20434D01*
X21377Y-20527D01*
X21367Y-20518D01*
X21348Y-20508D01*
X21302Y-20508D01*
X21283Y-20518D01*
X21273Y-20527D01*
X21264Y-20546D01*
X21264Y-20593D01*
X21273Y-20612D01*
X21283Y-20621D01*
X21302Y-20630D01*
X21348Y-20630D01*
X21367Y-20621D01*
X21377Y-20612D01*
X21208Y-20434D02*
X21142Y-20630D01*
X21077Y-20434D01*
X15037Y-20558D02*
X15037Y-20718D01*
X15046Y-20736D01*
X15056Y-20746D01*
X15074Y-20755D01*
X15103Y-20755D01*
X15121Y-20746D01*
X15037Y-20680D02*
X15056Y-20689D01*
X15093Y-20689D01*
X15112Y-20680D01*
X15121Y-20671D01*
X15131Y-20652D01*
X15131Y-20596D01*
X15121Y-20577D01*
X15112Y-20568D01*
X15093Y-20558D01*
X15056Y-20558D01*
X15037Y-20568D01*
X14943Y-20558D02*
X14943Y-20689D01*
X14943Y-20577D02*
X14934Y-20568D01*
X14915Y-20558D01*
X14887Y-20558D01*
X14868Y-20568D01*
X14859Y-20586D01*
X14859Y-20689D01*
X14681Y-20689D02*
X14681Y-20493D01*
X14681Y-20680D02*
X14700Y-20689D01*
X14737Y-20689D01*
X14756Y-20680D01*
X14765Y-20671D01*
X14775Y-20652D01*
X14775Y-20596D01*
X14765Y-20577D01*
X14756Y-20568D01*
X14737Y-20558D01*
X14700Y-20558D01*
X14681Y-20568D01*
X13912Y-20670D02*
X13912Y-20538D01*
X13912Y-20576D02*
X13903Y-20557D01*
X13893Y-20548D01*
X13875Y-20538D01*
X13856Y-20538D01*
X13809Y-20670D02*
X13706Y-20538D01*
X13809Y-20538D02*
X13706Y-20670D01*
X12912Y-20538D02*
X12837Y-20538D01*
X12884Y-20473D02*
X12884Y-20642D01*
X12874Y-20660D01*
X12856Y-20670D01*
X12837Y-20670D01*
X12790Y-20670D02*
X12687Y-20538D01*
X12790Y-20538D02*
X12687Y-20670D01*
X11739Y-19708D02*
X11739Y-19783D01*
X11674Y-19736D02*
X11842Y-19736D01*
X11861Y-19745D01*
X11871Y-19764D01*
X11871Y-19783D01*
X11871Y-19849D02*
X11739Y-19849D01*
X11777Y-19849D02*
X11758Y-19858D01*
X11749Y-19867D01*
X11739Y-19886D01*
X11739Y-19905D01*
X11871Y-19970D02*
X11739Y-19970D01*
X11674Y-19970D02*
X11683Y-19961D01*
X11692Y-19970D01*
X11683Y-19980D01*
X11674Y-19970D01*
X11692Y-19970D01*
X11739Y-20149D02*
X11899Y-20149D01*
X11917Y-20139D01*
X11927Y-20130D01*
X11936Y-20111D01*
X11936Y-20083D01*
X11927Y-20064D01*
X11861Y-20149D02*
X11871Y-20130D01*
X11871Y-20092D01*
X11861Y-20074D01*
X11852Y-20064D01*
X11833Y-20055D01*
X11777Y-20055D01*
X11758Y-20064D01*
X11749Y-20074D01*
X11739Y-20092D01*
X11739Y-20130D01*
X11749Y-20149D01*
X11739Y-20327D02*
X11899Y-20327D01*
X11917Y-20317D01*
X11927Y-20308D01*
X11936Y-20289D01*
X11936Y-20261D01*
X11927Y-20242D01*
X11861Y-20327D02*
X11871Y-20308D01*
X11871Y-20270D01*
X11861Y-20252D01*
X11852Y-20242D01*
X11833Y-20233D01*
X11777Y-20233D01*
X11758Y-20242D01*
X11749Y-20252D01*
X11739Y-20270D01*
X11739Y-20308D01*
X11749Y-20327D01*
X11861Y-20495D02*
X11871Y-20477D01*
X11871Y-20439D01*
X11861Y-20420D01*
X11842Y-20411D01*
X11767Y-20411D01*
X11749Y-20420D01*
X11739Y-20439D01*
X11739Y-20477D01*
X11749Y-20495D01*
X11767Y-20505D01*
X11786Y-20505D01*
X11805Y-20411D01*
X11871Y-20589D02*
X11739Y-20589D01*
X11777Y-20589D02*
X11758Y-20598D01*
X11749Y-20608D01*
X11739Y-20627D01*
X11739Y-20645D01*
X11050Y-20297D02*
X11210Y-20297D01*
X11228Y-20287D01*
X11238Y-20278D01*
X11247Y-20259D01*
X11247Y-20231D01*
X11238Y-20212D01*
X11172Y-20297D02*
X11182Y-20278D01*
X11182Y-20240D01*
X11172Y-20222D01*
X11163Y-20212D01*
X11144Y-20203D01*
X11088Y-20203D01*
X11069Y-20212D01*
X11060Y-20222D01*
X11050Y-20240D01*
X11050Y-20278D01*
X11060Y-20297D01*
X11050Y-20390D02*
X11182Y-20390D01*
X11069Y-20390D02*
X11060Y-20400D01*
X11050Y-20419D01*
X11050Y-20447D01*
X11060Y-20465D01*
X11078Y-20475D01*
X11182Y-20475D01*
X11182Y-20653D02*
X10985Y-20653D01*
X11172Y-20653D02*
X11182Y-20634D01*
X11182Y-20597D01*
X11172Y-20578D01*
X11163Y-20568D01*
X11144Y-20559D01*
X11088Y-20559D01*
X11069Y-20568D01*
X11060Y-20578D01*
X11050Y-20597D01*
X11050Y-20634D01*
X11060Y-20653D01*
X6960Y-1556D02*
X6969Y-1575D01*
X6969Y-1613D01*
X6960Y-1631D01*
X6941Y-1641D01*
X6931Y-1641D01*
X6913Y-1631D01*
X6903Y-1613D01*
X6903Y-1585D01*
X6894Y-1566D01*
X6875Y-1556D01*
X6866Y-1556D01*
X6847Y-1566D01*
X6838Y-1585D01*
X6838Y-1613D01*
X6847Y-1631D01*
X6969Y-1753D02*
X6960Y-1735D01*
X6950Y-1725D01*
X6931Y-1716D01*
X6875Y-1716D01*
X6856Y-1725D01*
X6847Y-1735D01*
X6838Y-1753D01*
X6838Y-1781D01*
X6847Y-1800D01*
X6856Y-1810D01*
X6875Y-1819D01*
X6931Y-1819D01*
X6950Y-1810D01*
X6960Y-1800D01*
X6969Y-1781D01*
X6969Y-1753D01*
X6969Y-1931D02*
X6960Y-1913D01*
X6941Y-1903D01*
X6772Y-1903D01*
X6969Y-2091D02*
X6866Y-2091D01*
X6847Y-2081D01*
X6838Y-2063D01*
X6838Y-2025D01*
X6847Y-2006D01*
X6960Y-2091D02*
X6969Y-2072D01*
X6969Y-2025D01*
X6960Y-2006D01*
X6941Y-1997D01*
X6922Y-1997D01*
X6903Y-2006D01*
X6894Y-2025D01*
X6894Y-2072D01*
X6885Y-2091D01*
X6969Y-2185D02*
X6838Y-2185D01*
X6875Y-2185D02*
X6856Y-2194D01*
X6847Y-2203D01*
X6838Y-2222D01*
X6838Y-2241D01*
X5853Y-1655D02*
X6013Y-1655D01*
X6032Y-1646D01*
X6041Y-1636D01*
X6050Y-1617D01*
X6050Y-1589D01*
X6041Y-1571D01*
X5975Y-1655D02*
X5985Y-1636D01*
X5985Y-1599D01*
X5975Y-1580D01*
X5966Y-1571D01*
X5947Y-1561D01*
X5891Y-1561D01*
X5872Y-1571D01*
X5863Y-1580D01*
X5853Y-1599D01*
X5853Y-1636D01*
X5863Y-1655D01*
X5853Y-1749D02*
X5985Y-1749D01*
X5872Y-1749D02*
X5863Y-1758D01*
X5853Y-1777D01*
X5853Y-1805D01*
X5863Y-1824D01*
X5882Y-1833D01*
X5985Y-1833D01*
X5985Y-2011D02*
X5788Y-2011D01*
X5975Y-2011D02*
X5985Y-1992D01*
X5985Y-1955D01*
X5975Y-1936D01*
X5966Y-1927D01*
X5947Y-1917D01*
X5891Y-1917D01*
X5872Y-1927D01*
X5863Y-1936D01*
X5853Y-1955D01*
X5853Y-1992D01*
X5863Y-2011D01*
X4830Y-1655D02*
X4989Y-1655D01*
X5008Y-1646D01*
X5017Y-1636D01*
X5027Y-1617D01*
X5027Y-1589D01*
X5017Y-1571D01*
X4952Y-1655D02*
X4961Y-1636D01*
X4961Y-1599D01*
X4952Y-1580D01*
X4942Y-1571D01*
X4924Y-1561D01*
X4867Y-1561D01*
X4849Y-1571D01*
X4839Y-1580D01*
X4830Y-1599D01*
X4830Y-1636D01*
X4839Y-1655D01*
X4830Y-1749D02*
X4961Y-1749D01*
X4849Y-1749D02*
X4839Y-1758D01*
X4830Y-1777D01*
X4830Y-1805D01*
X4839Y-1824D01*
X4858Y-1833D01*
X4961Y-1833D01*
X4961Y-2011D02*
X4764Y-2011D01*
X4952Y-2011D02*
X4961Y-1992D01*
X4961Y-1955D01*
X4952Y-1936D01*
X4942Y-1927D01*
X4924Y-1917D01*
X4867Y-1917D01*
X4849Y-1927D01*
X4839Y-1936D01*
X4830Y-1955D01*
X4830Y-1992D01*
X4839Y-2011D01*
X3780Y-1862D02*
X3583Y-1862D01*
X3658Y-1862D02*
X3649Y-1881D01*
X3649Y-1918D01*
X3658Y-1937D01*
X3667Y-1946D01*
X3686Y-1956D01*
X3742Y-1956D01*
X3761Y-1946D01*
X3771Y-1937D01*
X3780Y-1918D01*
X3780Y-1881D01*
X3771Y-1862D01*
X3780Y-2125D02*
X3677Y-2125D01*
X3658Y-2115D01*
X3649Y-2096D01*
X3649Y-2059D01*
X3658Y-2040D01*
X3771Y-2125D02*
X3780Y-2106D01*
X3780Y-2059D01*
X3771Y-2040D01*
X3752Y-2031D01*
X3733Y-2031D01*
X3714Y-2040D01*
X3705Y-2059D01*
X3705Y-2106D01*
X3696Y-2125D01*
X3649Y-2190D02*
X3649Y-2265D01*
X3583Y-2218D02*
X3752Y-2218D01*
X3771Y-2228D01*
X3780Y-2246D01*
X3780Y-2265D01*
X3649Y-2303D02*
X3649Y-2378D01*
X3583Y-2331D02*
X3752Y-2331D01*
X3771Y-2340D01*
X3780Y-2359D01*
X3780Y-2378D01*
X3705Y-2443D02*
X3705Y-2593D01*
X3780Y-2518D02*
X3630Y-2518D01*
X4180Y-1604D02*
X4170Y-1595D01*
X4142Y-1576D01*
X4124Y-1567D01*
X4095Y-1557D01*
X4049Y-1548D01*
X4011Y-1548D01*
X3964Y-1557D01*
X3936Y-1567D01*
X3917Y-1576D01*
X3889Y-1595D01*
X3880Y-1604D01*
X3908Y-1773D02*
X3908Y-1679D01*
X4002Y-1670D01*
X3992Y-1679D01*
X3983Y-1698D01*
X3983Y-1745D01*
X3992Y-1764D01*
X4002Y-1773D01*
X4020Y-1782D01*
X4067Y-1782D01*
X4086Y-1773D01*
X4095Y-1764D01*
X4105Y-1745D01*
X4105Y-1698D01*
X4095Y-1679D01*
X4086Y-1670D01*
X3908Y-1839D02*
X4105Y-1904D01*
X3908Y-1970D01*
X3974Y-2157D02*
X3974Y-2232D01*
X3908Y-2185D02*
X4077Y-2185D01*
X4095Y-2195D01*
X4105Y-2214D01*
X4105Y-2232D01*
X4105Y-2326D02*
X4095Y-2307D01*
X4086Y-2298D01*
X4067Y-2289D01*
X4011Y-2289D01*
X3992Y-2298D01*
X3983Y-2307D01*
X3974Y-2326D01*
X3974Y-2354D01*
X3983Y-2373D01*
X3992Y-2382D01*
X4011Y-2392D01*
X4067Y-2392D01*
X4086Y-2382D01*
X4095Y-2373D01*
X4105Y-2354D01*
X4105Y-2326D01*
X3908Y-2457D02*
X3908Y-2579D01*
X3983Y-2514D01*
X3983Y-2542D01*
X3992Y-2560D01*
X4002Y-2570D01*
X4020Y-2579D01*
X4067Y-2579D01*
X4086Y-2570D01*
X4095Y-2560D01*
X4105Y-2542D01*
X4105Y-2485D01*
X4095Y-2467D01*
X4086Y-2457D01*
X3908Y-2748D02*
X3908Y-2710D01*
X3917Y-2692D01*
X3927Y-2682D01*
X3955Y-2664D01*
X3992Y-2654D01*
X4067Y-2654D01*
X4086Y-2664D01*
X4095Y-2673D01*
X4105Y-2692D01*
X4105Y-2729D01*
X4095Y-2748D01*
X4086Y-2757D01*
X4067Y-2767D01*
X4020Y-2767D01*
X4002Y-2757D01*
X3992Y-2748D01*
X3983Y-2729D01*
X3983Y-2692D01*
X3992Y-2673D01*
X4002Y-2664D01*
X4020Y-2654D01*
X3908Y-2823D02*
X4105Y-2889D01*
X3908Y-2954D01*
X4180Y-3001D02*
X4170Y-3010D01*
X4142Y-3029D01*
X4124Y-3038D01*
X4095Y-3048D01*
X4049Y-3057D01*
X4011Y-3057D01*
X3964Y-3048D01*
X3936Y-3038D01*
X3917Y-3029D01*
X3889Y-3010D01*
X3880Y-3001D01*
G54D12*
X25295Y-1699D02*
X25295Y-1883D01*
X25360Y-1594D02*
X25426Y-1791D01*
X25255Y-1791D01*
X24901Y-1883D02*
X24927Y-1870D01*
X24940Y-1856D01*
X24954Y-1830D01*
X24954Y-1751D01*
X24940Y-1725D01*
X24927Y-1712D01*
X24901Y-1699D01*
X24862Y-1699D01*
X24835Y-1712D01*
X24822Y-1725D01*
X24809Y-1751D01*
X24809Y-1830D01*
X24822Y-1856D01*
X24835Y-1870D01*
X24862Y-1883D01*
X24901Y-1883D01*
X24573Y-1699D02*
X24573Y-1883D01*
X24691Y-1699D02*
X24691Y-1843D01*
X24678Y-1870D01*
X24652Y-1883D01*
X24612Y-1883D01*
X24586Y-1870D01*
X24573Y-1856D01*
X24481Y-1699D02*
X24376Y-1699D01*
X24442Y-1607D02*
X24442Y-1843D01*
X24429Y-1870D01*
X24402Y-1883D01*
X24376Y-1883D01*
X24297Y-1870D02*
X24271Y-1883D01*
X24219Y-1883D01*
X24192Y-1870D01*
X24179Y-1843D01*
X24179Y-1830D01*
X24192Y-1804D01*
X24219Y-1791D01*
X24258Y-1791D01*
X24284Y-1778D01*
X24297Y-1751D01*
X24297Y-1738D01*
X24284Y-1712D01*
X24258Y-1699D01*
X24219Y-1699D01*
X24192Y-1712D01*
X25551Y-2337D02*
X25708Y-2337D01*
X25629Y-2337D02*
X25629Y-2062D01*
X25656Y-2101D01*
X25682Y-2127D01*
X25708Y-2141D01*
X25433Y-2311D02*
X25419Y-2324D01*
X25433Y-2337D01*
X25446Y-2324D01*
X25433Y-2311D01*
X25433Y-2337D01*
X25314Y-2088D02*
X25301Y-2075D01*
X25275Y-2062D01*
X25209Y-2062D01*
X25183Y-2075D01*
X25170Y-2088D01*
X25157Y-2114D01*
X25157Y-2141D01*
X25170Y-2180D01*
X25328Y-2337D01*
X25157Y-2337D01*
X25052Y-2259D02*
X24921Y-2259D01*
X25078Y-2337D02*
X24986Y-2062D01*
X24895Y-2337D01*
X24593Y-2337D02*
X24593Y-2062D01*
X24501Y-2259D01*
X24409Y-2062D01*
X24409Y-2337D01*
X24291Y-2259D02*
X24160Y-2259D01*
X24317Y-2337D02*
X24225Y-2062D01*
X24133Y-2337D01*
X24068Y-2062D02*
X23884Y-2337D01*
X23884Y-2062D02*
X24068Y-2337D01*
G54D13*
X9853Y-12187D03*
X9153Y-12187D03*
X9503Y-12987D03*
X7553Y-10187D03*
X6853Y-10187D03*
X7203Y-10987D03*
X10503Y-14337D03*
X10503Y-13637D03*
X9703Y-13987D03*
X10603Y-12137D03*
X10603Y-12837D03*
X11403Y-12487D03*
X5703Y-12237D03*
X5703Y-12937D03*
X6503Y-12587D03*
X5753Y-11487D03*
X6453Y-11487D03*
X6103Y-10687D03*
G54D14*
X16003Y-12054D03*
X15628Y-12920D03*
X16378Y-12920D03*
G54D15*
X17519Y-11398D03*
X17519Y-10648D03*
G54D16*
X19728Y-7487D03*
X20478Y-7487D03*
X19628Y-10687D03*
X20378Y-10687D03*
G54D15*
X18307Y-11398D03*
X18307Y-10648D03*
X20753Y-11562D03*
X20753Y-12312D03*
X17103Y-12962D03*
X17103Y-12212D03*
X18403Y-12962D03*
X18403Y-12212D03*
G54D16*
X19596Y-14483D03*
X20346Y-14483D03*
G54D15*
X24353Y-16162D03*
X24353Y-16912D03*
G54D16*
X24128Y-18637D03*
X23378Y-18637D03*
X23628Y-16937D03*
X22878Y-16937D03*
X23378Y-17737D03*
X24128Y-17737D03*
X23628Y-16137D03*
X22878Y-16137D03*
X21978Y-17887D03*
X22728Y-17887D03*
X22878Y-15337D03*
X23628Y-15337D03*
X21478Y-16937D03*
X22228Y-16937D03*
X22228Y-15337D03*
X21478Y-15337D03*
X21478Y-16137D03*
X22228Y-16137D03*
X19596Y-15270D03*
X20346Y-15270D03*
X19596Y-16845D03*
X20346Y-16845D03*
X19596Y-16057D03*
X20346Y-16057D03*
X19728Y-9087D03*
X20478Y-9087D03*
X19596Y-17632D03*
X20346Y-17632D03*
G54D15*
X22553Y-8562D03*
X22553Y-9312D03*
X23353Y-8812D03*
X23353Y-8062D03*
G54D16*
X21878Y-11537D03*
X22628Y-11537D03*
G54D15*
X22553Y-9962D03*
X22553Y-10712D03*
X23353Y-10212D03*
X23353Y-9462D03*
X23553Y-11612D03*
X23553Y-10862D03*
X24153Y-9462D03*
X24153Y-10212D03*
X21703Y-9212D03*
X21703Y-9962D03*
G54D16*
X7028Y-14287D03*
X7778Y-14287D03*
X21028Y-10687D03*
X21778Y-10687D03*
X19728Y-9887D03*
X20478Y-9887D03*
X19728Y-8287D03*
X20478Y-8287D03*
G54D15*
X11403Y-9812D03*
X11403Y-10562D03*
X12303Y-9812D03*
X12303Y-10562D03*
X7603Y-8712D03*
X7603Y-9462D03*
G54D16*
X6770Y-7972D03*
X7520Y-7972D03*
X7028Y-15087D03*
X7778Y-15087D03*
G54D15*
X6003Y-9962D03*
X6003Y-9212D03*
X5203Y-14412D03*
X5203Y-15162D03*
G54D16*
X6278Y-13687D03*
X5528Y-13687D03*
G54D15*
X6803Y-8712D03*
X6803Y-9462D03*
X10303Y-17562D03*
X10303Y-16812D03*
X10303Y-18962D03*
X10303Y-18212D03*
X12303Y-8962D03*
X12303Y-8212D03*
X12303Y-7462D03*
X12303Y-6712D03*
X12403Y-14162D03*
X12403Y-13412D03*
X11503Y-14162D03*
X11503Y-13412D03*
X10303Y-11362D03*
X10303Y-10612D03*
X9403Y-18962D03*
X9403Y-18212D03*
G54D17*
X21003Y-19687D03*
X21003Y-18287D03*
X21003Y-18987D03*
G54D18*
X23353Y-537D03*
G54D19*
X24353Y-537D03*
X25353Y-537D03*
X26353Y-537D03*
G54D18*
X21353Y-21287D03*
G54D19*
X22353Y-21287D03*
X23353Y-21287D03*
X24353Y-21287D03*
G54D18*
X889Y-2074D03*
G54D19*
X889Y-1074D03*
X1889Y-2074D03*
X1889Y-1074D03*
X2889Y-2074D03*
X2889Y-1074D03*
G54D18*
X12803Y-21287D03*
G54D19*
X13803Y-21287D03*
X14803Y-21287D03*
G54D18*
X11803Y-21287D03*
G54D19*
X10803Y-21287D03*
G54D18*
X14803Y-18787D03*
G54D19*
X13803Y-18787D03*
G54D18*
X6903Y-537D03*
G54D19*
X5903Y-537D03*
G54D18*
X3903Y-537D03*
G54D19*
X4903Y-537D03*
G54D18*
X23303Y-19687D03*
G54D19*
X24303Y-19687D03*
X14103Y-6503D03*
X14103Y-8471D03*
G54D20*
X8103Y-21087D03*
X7103Y-21087D03*
X4603Y-21087D03*
X3603Y-21087D03*
G54D21*
X11403Y-8987D03*
G54D22*
X11403Y-5987D03*
G54D21*
X7803Y-19387D03*
G54D22*
X7803Y-16387D03*
X16903Y-9637D03*
X18903Y-9637D03*
G54D21*
X13203Y-2587D03*
G54D22*
X10203Y-2587D03*
G54D23*
X1771Y-20078D03*
X1803Y-4487D03*
X27303Y-12587D03*
G54D24*
X21503Y-14487D03*
X21503Y-12387D03*
X22003Y-14487D03*
X22503Y-14487D03*
X23003Y-14487D03*
X22003Y-12387D03*
X22503Y-12387D03*
X23003Y-12387D03*
G54D25*
X6103Y-19777D03*
X6103Y-5997D03*
X9403Y-19777D03*
X9403Y-5997D03*
G54D18*
X787Y-17688D03*
G54D19*
X787Y-16688D03*
X787Y-15688D03*
X787Y-14688D03*
X787Y-13688D03*
X787Y-12688D03*
X787Y-11688D03*
X787Y-10688D03*
X787Y-9688D03*
X787Y-8688D03*
X787Y-7688D03*
G54D26*
X4203Y-14687D03*
G54D27*
X2203Y-14687D03*
G54D26*
X11253Y-16637D03*
G54D27*
X13253Y-16637D03*
G54D13*
X9059Y-8628D03*
X9759Y-8628D03*
X9409Y-7828D03*
X6452Y-17159D03*
X5752Y-17159D03*
X6102Y-17959D03*
G54D28*
X6102Y-18780D03*
G54D29*
X6102Y-16180D03*
X7002Y-16180D03*
X5202Y-16180D03*
G54D28*
X9409Y-6928D03*
G54D29*
X9409Y-9528D03*
X8509Y-9528D03*
X10309Y-9528D03*
G54D30*
X17076Y-8021D03*
X15511Y-6998D03*
X5053Y-1237D03*
X24980Y-12204D03*
X24940Y-10216D03*
X12881Y-9354D03*
X14803Y-12224D03*
X13035Y-9858D03*
X13385Y-11476D03*
X9232Y-11673D03*
X14492Y-11889D03*
X8641Y-14291D03*
X6003Y-8720D03*
X7460Y-7263D03*
X22401Y-2381D03*
X27342Y-6909D03*
X22244Y-7480D03*
X27322Y-6397D03*
X28110Y-6377D03*
X27263Y-2893D03*
X28090Y-2893D03*
X4744Y-11496D03*
X3208Y-14921D03*
X12893Y-14862D03*
X12165Y-14645D03*
X13342Y-12681D03*
X20748Y-13622D03*
X4153Y-6240D03*
X3090Y-16870D03*
X4783Y-10629D03*
X11712Y-15059D03*
X13681Y-14783D03*
X13803Y-12622D03*
X20413Y-13228D03*
X3562Y-6240D03*
X14232Y-15019D03*
X7803Y-1587D03*
X8444Y-16299D03*
X9448Y-16732D03*
X8287Y-13838D03*
X7283Y-12637D03*
X8110Y-10905D03*
X13129Y-12283D03*
X16850Y-16614D03*
X19114Y-17125D03*
X3031Y-12342D03*
X2539Y-9173D03*
X14074Y-1751D03*
X24370Y-10846D03*
X13129Y-3346D03*
X11948Y-3307D03*
X21771Y-8523D03*
X24547Y-13720D03*
X20787Y-6023D03*
X15688Y-11574D03*
X27893Y-5118D03*
X27893Y-4133D03*
X21535Y-5098D03*
X21535Y-4133D03*
X21535Y-4625D03*
X27893Y-4625D03*
X18956Y-13090D03*
X14763Y-13681D03*
X9074Y-13602D03*
X1783Y-7145D03*
X8842Y-1606D03*
X19110Y-15732D03*
X15944Y-15929D03*
X25326Y-10775D03*
X21535Y-13681D03*
X20757Y-14862D03*
X20866Y-15708D03*
X19862Y-11279D03*
X12145Y-18838D03*
X14409Y-16496D03*
X15413Y-10098D03*
X16555Y-8681D03*
G54D31*
X22047Y-21837D02*
X22353Y-21530D01*
X22353Y-21530D02*
X22353Y-21287D01*
X2992Y-21437D02*
X3003Y-21437D01*
X3403Y-21837D02*
X22047Y-21837D01*
X22047Y-21837D02*
X22053Y-21837D01*
X3003Y-21437D02*
X3403Y-21837D01*
G54D32*
X9822Y-462D02*
X7678Y-462D01*
X19694Y-8740D02*
X19202Y-8248D01*
X19202Y-8248D02*
X17303Y-8248D01*
X17303Y-8248D02*
X17076Y-8021D01*
X15511Y-6998D02*
X14625Y-6112D01*
X14625Y-6112D02*
X14625Y-5187D01*
X19728Y-8740D02*
X19694Y-8740D01*
X14625Y-2511D02*
X14625Y-5187D01*
X9822Y-462D02*
X12576Y-462D01*
X14625Y-1582D02*
X13505Y-462D01*
X13505Y-462D02*
X12576Y-462D01*
X14625Y-2511D02*
X14625Y-1582D01*
X5153Y-1137D02*
X5053Y-1237D01*
X7303Y-1137D02*
X5153Y-1137D01*
X7503Y-937D02*
X7303Y-1137D01*
X7503Y-637D02*
X7503Y-937D01*
X7678Y-462D02*
X7503Y-637D01*
G54D31*
X1033Y-10688D02*
X787Y-10688D01*
X1505Y-11161D02*
X1033Y-10688D01*
X1505Y-17608D02*
X1505Y-11161D01*
X3307Y-19409D02*
X1505Y-17608D01*
X3307Y-20570D02*
X3307Y-19409D01*
X3149Y-20728D02*
X3307Y-20570D01*
X3149Y-20767D02*
X3149Y-20728D01*
X3031Y-20885D02*
X3149Y-20767D01*
X3031Y-20905D02*
X3031Y-20885D01*
X3031Y-21082D02*
X3031Y-20905D01*
X2992Y-21122D02*
X3031Y-21082D01*
X2992Y-21437D02*
X2992Y-21122D01*
G54D33*
X24940Y-12165D02*
X24940Y-10216D01*
X24980Y-12204D02*
X24940Y-12165D01*
X24186Y-9462D02*
X24153Y-9462D01*
X24940Y-10216D02*
X24186Y-9462D01*
G54D34*
X11403Y-8987D02*
X12278Y-8987D01*
X12278Y-8987D02*
X12303Y-8962D01*
X11403Y-9812D02*
X11403Y-8987D01*
X12303Y-9812D02*
X11403Y-9812D01*
X19728Y-8287D02*
X19728Y-7487D01*
X19728Y-9087D02*
X19728Y-8740D01*
X19728Y-8740D02*
X19728Y-8287D01*
X19728Y-9887D02*
X19728Y-9087D01*
X19628Y-10687D02*
X19628Y-9987D01*
X19628Y-9987D02*
X19728Y-9887D01*
G54D33*
X12491Y-8212D02*
X12881Y-8602D01*
X12881Y-8602D02*
X12881Y-9354D01*
X12303Y-8212D02*
X12491Y-8212D01*
G54D34*
X12303Y-8212D02*
X12303Y-7462D01*
G54D31*
X20346Y-15270D02*
X20346Y-14483D01*
X20346Y-16057D02*
X20346Y-15270D01*
X20346Y-16845D02*
X20346Y-16057D01*
X20346Y-17632D02*
X20346Y-16845D01*
G54D34*
X21478Y-16137D02*
X20425Y-16137D01*
X20425Y-16137D02*
X20346Y-16057D01*
G54D35*
X14803Y-12224D02*
X15586Y-12224D01*
X16366Y-12389D02*
X16555Y-12578D01*
X16362Y-12389D02*
X16366Y-12389D01*
X15751Y-12389D02*
X16362Y-12389D01*
X15586Y-12224D02*
X15751Y-12389D01*
X16555Y-12578D02*
X16692Y-12578D01*
G54D34*
X19704Y-12578D02*
X20236Y-12578D01*
X21122Y-13110D02*
X21122Y-13996D01*
X20787Y-12775D02*
X21122Y-13110D01*
X20433Y-12775D02*
X20787Y-12775D01*
X20236Y-12578D02*
X20433Y-12775D01*
X21478Y-15337D02*
X21361Y-15337D01*
X19704Y-12578D02*
X16692Y-12578D01*
X21122Y-15098D02*
X21122Y-13996D01*
X21361Y-15337D02*
X21122Y-15098D01*
X22003Y-14487D02*
X22003Y-14812D01*
X22003Y-14812D02*
X21903Y-14912D01*
X21478Y-15337D02*
X21903Y-14912D01*
G54D35*
X12145Y-11240D02*
X12507Y-10877D01*
X12775Y-10118D02*
X13035Y-9858D01*
X12775Y-10763D02*
X12775Y-10118D01*
X12661Y-10877D02*
X12775Y-10763D01*
X12633Y-10877D02*
X12661Y-10877D01*
X12507Y-10877D02*
X12633Y-10877D01*
G54D33*
X12403Y-13412D02*
X12403Y-13191D01*
X12145Y-12933D02*
X12145Y-11240D01*
X12403Y-13191D02*
X12145Y-12933D01*
G54D32*
X7002Y-16180D02*
X7002Y-15113D01*
X7002Y-15113D02*
X7028Y-15087D01*
X7002Y-16777D02*
X7002Y-16180D01*
X6620Y-17159D02*
X7002Y-16777D01*
X13385Y-11476D02*
X14122Y-10740D01*
X14122Y-10740D02*
X14122Y-9468D01*
X14122Y-9468D02*
X15232Y-8358D01*
X15232Y-8358D02*
X15893Y-8358D01*
X17480Y-6771D02*
X18799Y-6771D01*
X15893Y-8358D02*
X17480Y-6771D01*
X18799Y-6771D02*
X20787Y-6771D01*
X20787Y-6771D02*
X21220Y-7204D01*
X21220Y-7204D02*
X21220Y-8622D01*
X21220Y-8622D02*
X20755Y-9087D01*
X20755Y-9087D02*
X20478Y-9087D01*
X6278Y-13687D02*
X6962Y-13687D01*
X6962Y-13687D02*
X7952Y-12696D01*
X7952Y-12696D02*
X7952Y-12283D01*
X7952Y-12283D02*
X8562Y-11673D01*
X8562Y-11673D02*
X9232Y-11673D01*
G54D34*
X7028Y-15087D02*
X7028Y-14287D01*
X7028Y-14287D02*
X6878Y-14287D01*
X6878Y-14287D02*
X6278Y-13687D01*
X6278Y-13687D02*
X6503Y-13462D01*
X6503Y-13462D02*
X6503Y-12587D01*
X20478Y-8287D02*
X20478Y-7487D01*
X20478Y-9087D02*
X20478Y-8287D01*
X20478Y-9887D02*
X20478Y-9087D01*
X20378Y-10687D02*
X20378Y-9987D01*
X20378Y-9987D02*
X20478Y-9887D01*
X21028Y-10687D02*
X20378Y-10687D01*
G54D33*
X16767Y-11224D02*
X16988Y-11003D01*
X15503Y-11224D02*
X16767Y-11224D01*
X14964Y-11763D02*
X15503Y-11224D01*
X14618Y-11763D02*
X14964Y-11763D01*
X14492Y-11889D02*
X14618Y-11763D01*
X20139Y-12312D02*
X20753Y-12312D01*
X18830Y-11003D02*
X20139Y-12312D01*
X16988Y-11003D02*
X18830Y-11003D01*
G54D34*
X21503Y-12387D02*
X20828Y-12387D01*
X20828Y-12387D02*
X20753Y-12312D01*
G54D31*
X16437Y-21062D02*
X20866Y-21062D01*
X14169Y-15511D02*
X14169Y-15633D01*
X13539Y-18153D02*
X13539Y-18035D01*
X14842Y-16850D02*
X13539Y-18153D01*
X14842Y-16307D02*
X14842Y-16850D01*
X14169Y-15633D02*
X14842Y-16307D01*
X12992Y-15511D02*
X14169Y-15511D01*
X13539Y-18035D02*
X13169Y-18405D01*
X15610Y-20236D02*
X16437Y-21062D01*
X14311Y-20236D02*
X15610Y-20236D01*
X13169Y-19094D02*
X14311Y-20236D01*
X13169Y-18405D02*
X13169Y-19094D01*
X12381Y-15511D02*
X12992Y-15511D01*
X12362Y-15492D02*
X12381Y-15511D01*
X9842Y-15492D02*
X12362Y-15492D01*
X8641Y-14291D02*
X9842Y-15492D01*
X21129Y-21062D02*
X21353Y-21287D01*
X20866Y-21062D02*
X21129Y-21062D01*
G54D32*
X4990Y-12017D02*
X5255Y-11751D01*
X6103Y-7754D02*
X6103Y-5997D01*
X5413Y-8444D02*
X6103Y-7754D01*
X5413Y-10570D02*
X5413Y-8444D01*
X5255Y-10728D02*
X5413Y-10570D01*
X5255Y-11751D02*
X5255Y-10728D01*
X4203Y-14687D02*
X4203Y-14094D01*
X4685Y-12322D02*
X4990Y-12017D01*
X4685Y-13613D02*
X4685Y-12322D01*
X4203Y-14094D02*
X4685Y-13613D01*
X787Y-7688D02*
X787Y-6397D01*
X787Y-6397D02*
X228Y-5839D01*
G54D34*
X6770Y-7972D02*
X6770Y-6664D01*
X6770Y-6664D02*
X6103Y-5997D01*
X6803Y-8712D02*
X6803Y-8005D01*
X6803Y-8005D02*
X6770Y-7972D01*
G54D32*
X278Y-1562D02*
X766Y-1074D01*
X228Y-5839D02*
X228Y-5162D01*
X766Y-1074D02*
X889Y-1074D01*
X228Y-5162D02*
X228Y-2962D01*
X228Y-2962D02*
X278Y-2912D01*
X278Y-2912D02*
X278Y-1562D01*
X4203Y-7897D02*
X996Y-7897D01*
X996Y-7897D02*
X787Y-7688D01*
X4203Y-7897D02*
X6103Y-5997D01*
G54D34*
X6003Y-8720D02*
X6003Y-9212D01*
G54D33*
X7460Y-7263D02*
X7520Y-7323D01*
X7520Y-7323D02*
X7520Y-7972D01*
G54D34*
X7603Y-8712D02*
X7603Y-8055D01*
X7603Y-8055D02*
X7520Y-7972D01*
X23353Y-10212D02*
X24153Y-10212D01*
X23553Y-10862D02*
X23553Y-10412D01*
X23553Y-10412D02*
X23353Y-10212D01*
X22553Y-10712D02*
X22853Y-10712D01*
X22853Y-10712D02*
X23353Y-10212D01*
X22628Y-11537D02*
X22628Y-10787D01*
X22628Y-10787D02*
X22553Y-10712D01*
X22503Y-12387D02*
X22503Y-11662D01*
X22503Y-11662D02*
X22628Y-11537D01*
X21878Y-11537D02*
X20778Y-11537D01*
X20778Y-11537D02*
X20753Y-11562D01*
X21778Y-10687D02*
X21778Y-10037D01*
X21778Y-10037D02*
X21703Y-9962D01*
X21878Y-11537D02*
X21878Y-10787D01*
X21878Y-10787D02*
X21778Y-10687D01*
X22003Y-12387D02*
X22003Y-11662D01*
X22003Y-11662D02*
X21878Y-11537D01*
X22728Y-17887D02*
X22728Y-17087D01*
X22728Y-17087D02*
X22878Y-16937D01*
X22728Y-17887D02*
X23228Y-17887D01*
X23228Y-17887D02*
X23378Y-17737D01*
X23628Y-15337D02*
X23628Y-15112D01*
X23628Y-15112D02*
X23003Y-14487D01*
X22878Y-16137D02*
X23628Y-15387D01*
X23628Y-15387D02*
X23628Y-15337D01*
X22878Y-16937D02*
X22878Y-16137D01*
X22528Y-15337D02*
X22528Y-14512D01*
X22528Y-14512D02*
X22503Y-14487D01*
X22228Y-16937D02*
X22228Y-16137D01*
X22228Y-16137D02*
X22228Y-15337D01*
X22878Y-15337D02*
X22528Y-15337D01*
X22528Y-15337D02*
X22228Y-15337D01*
X22244Y-7480D02*
X22244Y-6712D01*
X21181Y-5472D02*
X20669Y-4960D01*
X21181Y-5649D02*
X21181Y-5472D01*
X22244Y-6712D02*
X21181Y-5649D01*
X20669Y-4960D02*
X20669Y-2913D01*
X20669Y-2913D02*
X21200Y-2381D01*
X21200Y-2381D02*
X22401Y-2381D01*
X27342Y-6909D02*
X26771Y-7480D01*
X26771Y-7480D02*
X22244Y-7480D01*
G54D33*
X27677Y-6751D02*
X27677Y-7066D01*
X27322Y-6397D02*
X27677Y-6751D01*
X28110Y-6633D02*
X28110Y-6377D01*
X27677Y-7066D02*
X28110Y-6633D01*
X28090Y-2893D02*
X27263Y-2893D01*
G54D35*
X4547Y-11496D02*
X4744Y-11496D01*
X3799Y-12244D02*
X4547Y-11496D01*
X3799Y-13129D02*
X3799Y-12244D01*
X3208Y-13720D02*
X3799Y-13129D01*
X3208Y-14921D02*
X3208Y-13720D01*
G54D33*
X12165Y-14645D02*
X12677Y-14645D01*
X12677Y-14645D02*
X12893Y-14862D01*
X14547Y-14291D02*
X14409Y-14291D01*
X13342Y-13822D02*
X13342Y-12681D01*
X13456Y-13937D02*
X13342Y-13822D01*
X14055Y-13937D02*
X13456Y-13937D01*
X14409Y-14291D02*
X14055Y-13937D01*
X20413Y-13956D02*
X20748Y-13622D01*
X17500Y-13956D02*
X20413Y-13956D01*
X2889Y-2074D02*
X2889Y-2338D01*
X4153Y-3602D02*
X4153Y-6240D01*
X2889Y-2338D02*
X4153Y-3602D01*
X18779Y-13956D02*
X18789Y-13946D01*
X18789Y-13946D02*
X18799Y-13937D01*
X17500Y-13956D02*
X18779Y-13956D01*
X17165Y-14291D02*
X17500Y-13956D01*
X14547Y-14291D02*
X17165Y-14291D01*
G54D35*
X2755Y-16535D02*
X3090Y-16870D01*
X2755Y-13799D02*
X2755Y-16535D01*
X3444Y-13110D02*
X2755Y-13799D01*
X3444Y-11968D02*
X3444Y-13110D01*
X4783Y-10629D02*
X3444Y-11968D01*
G54D33*
X13681Y-14783D02*
X13622Y-14783D01*
X11771Y-15000D02*
X11712Y-15059D01*
X12519Y-15000D02*
X11771Y-15000D01*
X12736Y-15216D02*
X12519Y-15000D01*
X13188Y-15216D02*
X12736Y-15216D01*
X13622Y-14783D02*
X13188Y-15216D01*
X20413Y-13228D02*
X20413Y-13551D01*
X14515Y-14055D02*
X14149Y-13688D01*
X17051Y-14055D02*
X14515Y-14055D01*
X17397Y-13708D02*
X17051Y-14055D01*
X20255Y-13708D02*
X17397Y-13708D01*
X20413Y-13551D02*
X20255Y-13708D01*
X13803Y-12732D02*
X13803Y-12622D01*
X13594Y-12940D02*
X13803Y-12732D01*
X13594Y-13641D02*
X13594Y-12940D01*
X13641Y-13688D02*
X13594Y-13641D01*
X14149Y-13688D02*
X13641Y-13688D01*
X1889Y-2401D02*
X2559Y-3070D01*
X1889Y-2074D02*
X1889Y-2401D01*
X3484Y-6161D02*
X3562Y-6240D01*
X3484Y-3779D02*
X3484Y-6161D01*
X2775Y-3070D02*
X3484Y-3779D01*
X2559Y-3070D02*
X2775Y-3070D01*
G54D32*
X10929Y-1087D02*
X8303Y-1087D01*
X12657Y-12696D02*
X12657Y-12194D01*
X12968Y-13007D02*
X12657Y-12696D01*
X12657Y-12194D02*
X12657Y-12098D01*
X13681Y-8887D02*
X13494Y-8700D01*
X13681Y-9045D02*
X13681Y-8887D01*
X13494Y-8622D02*
X13494Y-8700D01*
X13494Y-7933D02*
X13494Y-8622D01*
X13001Y-7440D02*
X13494Y-7933D01*
X13001Y-6122D02*
X13001Y-7440D01*
X12578Y-5698D02*
X13001Y-6122D01*
X12578Y-4370D02*
X12578Y-5698D01*
X13901Y-14314D02*
X13090Y-14314D01*
X13090Y-14314D02*
X12968Y-14192D01*
X12968Y-14192D02*
X12968Y-13007D01*
X14232Y-14645D02*
X13901Y-14314D01*
X14232Y-15019D02*
X14232Y-14645D01*
X12657Y-11326D02*
X12775Y-11208D01*
X12775Y-11208D02*
X12842Y-11208D01*
X12842Y-11208D02*
X13153Y-10897D01*
X13153Y-10897D02*
X13153Y-10444D01*
X13153Y-10444D02*
X13519Y-10078D01*
X13519Y-10078D02*
X13519Y-9212D01*
X13519Y-9212D02*
X13681Y-9051D01*
X13681Y-9051D02*
X13681Y-9045D01*
X12657Y-12098D02*
X12657Y-11326D01*
X12578Y-2736D02*
X10929Y-1087D01*
X12578Y-4370D02*
X12578Y-2736D01*
X8303Y-1087D02*
X7803Y-1587D01*
G54D34*
X9403Y-19777D02*
X9403Y-18962D01*
X9403Y-18962D02*
X10303Y-18962D01*
G54D32*
X13803Y-18787D02*
X13803Y-19059D01*
X19596Y-19084D02*
X19596Y-17632D01*
X18877Y-19803D02*
X19596Y-19084D01*
X14547Y-19803D02*
X18877Y-19803D01*
X13803Y-19059D02*
X14547Y-19803D01*
G54D33*
X21978Y-17887D02*
X20828Y-17887D01*
X20528Y-18187D02*
X19953Y-18187D01*
X19596Y-17829D02*
X19953Y-18187D01*
X19596Y-17632D02*
X19596Y-17829D01*
X20828Y-17887D02*
X20528Y-18187D01*
G54D32*
X19596Y-15270D02*
X19596Y-14483D01*
X19596Y-16057D02*
X19596Y-15270D01*
X19596Y-16845D02*
X19596Y-16057D01*
X19596Y-17632D02*
X19596Y-16845D01*
G54D33*
X7283Y-12637D02*
X7283Y-12165D01*
X7283Y-12165D02*
X8110Y-11338D01*
X8110Y-11338D02*
X8110Y-10905D01*
X8287Y-15452D02*
X8287Y-13838D01*
X10303Y-17562D02*
X10278Y-17562D01*
X8287Y-16141D02*
X8287Y-15452D01*
X8444Y-16299D02*
X8287Y-16141D01*
X10278Y-17562D02*
X9448Y-16732D01*
G54D35*
X8110Y-11338D02*
X7283Y-12165D01*
X8110Y-10905D02*
X8110Y-11338D01*
G54D34*
X10303Y-18212D02*
X10303Y-17562D01*
G54D33*
X13952Y-12303D02*
X13952Y-12311D01*
X14487Y-12920D02*
X15628Y-12920D01*
X14232Y-12665D02*
X14487Y-12920D01*
X14232Y-12590D02*
X14232Y-12665D01*
X13952Y-12311D02*
X14232Y-12590D01*
G54D35*
X13149Y-12303D02*
X13622Y-12303D01*
X13129Y-12283D02*
X13149Y-12303D01*
X13622Y-12303D02*
X13952Y-12303D01*
X18720Y-16732D02*
X18799Y-16811D01*
X19114Y-16929D02*
X19114Y-17125D01*
X18996Y-16811D02*
X19114Y-16929D01*
X18799Y-16811D02*
X18996Y-16811D01*
X17224Y-16732D02*
X17185Y-16692D01*
X18720Y-16732D02*
X17224Y-16732D01*
X16850Y-16614D02*
X16929Y-16692D01*
X16929Y-16692D02*
X17185Y-16692D01*
G54D32*
X8503Y-8641D02*
X9046Y-8641D01*
X8503Y-8346D02*
X8503Y-8641D01*
X8503Y-8641D02*
X8503Y-9522D01*
X8503Y-9522D02*
X8509Y-9528D01*
G54D31*
X8153Y-10187D02*
X7553Y-10187D01*
G54D32*
X10803Y-21287D02*
X10803Y-20922D01*
X4903Y-537D02*
X4903Y-637D01*
X2952Y-1137D02*
X2889Y-1074D01*
X4403Y-1137D02*
X2952Y-1137D01*
X4903Y-637D02*
X4403Y-1137D01*
G54D33*
X3031Y-11712D02*
X1515Y-10196D01*
X3031Y-12342D02*
X3031Y-11712D01*
G54D31*
X787Y-13688D02*
X236Y-13137D01*
X236Y-13137D02*
X236Y-10334D01*
G54D33*
X236Y-10334D02*
X374Y-10196D01*
X374Y-10196D02*
X1515Y-10196D01*
X1515Y-10196D02*
X2539Y-9173D01*
G54D32*
X13681Y-3346D02*
X13129Y-3346D01*
X14074Y-1751D02*
X14074Y-2874D01*
X14074Y-2874D02*
X14074Y-2952D01*
X14074Y-2952D02*
X13681Y-3346D01*
X4350Y-20374D02*
X4350Y-19665D01*
X2203Y-17518D02*
X2203Y-14687D01*
X4350Y-19665D02*
X2203Y-17518D01*
X5866Y-20374D02*
X4350Y-20374D01*
X4350Y-20374D02*
X4317Y-20374D01*
X4317Y-20374D02*
X3603Y-21087D01*
G54D34*
X23553Y-11612D02*
X23604Y-11612D01*
X23604Y-11612D02*
X24370Y-10846D01*
G54D32*
X10203Y-2587D02*
X11229Y-2587D01*
X11229Y-2587D02*
X11948Y-3307D01*
X13503Y-3720D02*
X13503Y-5708D01*
X13129Y-3346D02*
X13503Y-3720D01*
X16023Y-7381D02*
X15688Y-7716D01*
X13503Y-7204D02*
X13503Y-5708D01*
X14015Y-7716D02*
X13503Y-7204D01*
X15688Y-7716D02*
X14015Y-7716D01*
X17637Y-6122D02*
X17283Y-6122D01*
X17283Y-6122D02*
X16023Y-7381D01*
X17637Y-6122D02*
X20669Y-6122D01*
G54D31*
X12283Y-6102D02*
X12303Y-6102D01*
X12145Y-5964D02*
X12283Y-6102D01*
G54D33*
X21771Y-8523D02*
X22086Y-8523D01*
X23553Y-11612D02*
X23935Y-11612D01*
X24625Y-13641D02*
X24547Y-13720D01*
X24625Y-12303D02*
X24625Y-13641D01*
X23935Y-11612D02*
X24625Y-12303D01*
G54D32*
X20688Y-6122D02*
X20669Y-6122D01*
X20787Y-6023D02*
X20688Y-6122D01*
X20669Y-6122D02*
X20964Y-6122D01*
X20964Y-6122D02*
X21771Y-6929D01*
G54D31*
X12303Y-6712D02*
X12303Y-6102D01*
X12303Y-6102D02*
X12303Y-6083D01*
X10203Y-3983D02*
X10203Y-2587D01*
X12303Y-6083D02*
X10203Y-3983D01*
G54D34*
X22086Y-8562D02*
X22086Y-8523D01*
X22086Y-8523D02*
X22086Y-8484D01*
X22086Y-8484D02*
X21771Y-8169D01*
X21771Y-8169D02*
X21771Y-6929D01*
X21771Y-6929D02*
X20964Y-6122D01*
G54D35*
X16003Y-12054D02*
X16003Y-11889D01*
X16003Y-11889D02*
X15688Y-11574D01*
G54D34*
X10303Y-16812D02*
X10414Y-16812D01*
G54D33*
X9774Y-18582D02*
X9403Y-18212D01*
X10649Y-18582D02*
X9774Y-18582D01*
X10807Y-18425D02*
X10649Y-18582D01*
G54D34*
X10807Y-17204D02*
X10807Y-18425D01*
X10414Y-16812D02*
X10807Y-17204D01*
G54D32*
X27893Y-4625D02*
X27893Y-5118D01*
X27893Y-4133D02*
X27893Y-4625D01*
X21535Y-4625D02*
X21535Y-5098D01*
X21535Y-4133D02*
X21535Y-4625D01*
X27893Y-4625D02*
X21535Y-4625D01*
G54D34*
X18403Y-12212D02*
X17103Y-12212D01*
G54D32*
X13253Y-16637D02*
X13185Y-16637D01*
X11122Y-19685D02*
X10334Y-20472D01*
X11122Y-18700D02*
X11122Y-19685D01*
X13185Y-16637D02*
X11122Y-18700D01*
X10803Y-21087D02*
X10803Y-20922D01*
X10354Y-20472D02*
X10334Y-20472D01*
X10803Y-20922D02*
X10354Y-20472D01*
X8838Y-20472D02*
X8277Y-19911D01*
X10334Y-20472D02*
X8838Y-20472D01*
X7103Y-21087D02*
X7103Y-20374D01*
X8543Y-17126D02*
X8543Y-16909D01*
X12561Y-15944D02*
X13253Y-16637D01*
X9507Y-15944D02*
X12561Y-15944D01*
X8543Y-16909D02*
X9507Y-15944D01*
X8543Y-17126D02*
X9134Y-17126D01*
X9134Y-17126D02*
X9403Y-17396D01*
X5866Y-20374D02*
X7103Y-20374D01*
X8543Y-17126D02*
X7803Y-16387D01*
X8543Y-19645D02*
X8543Y-17126D01*
X8277Y-19911D02*
X8543Y-19645D01*
X7103Y-20374D02*
X7814Y-20374D01*
X7814Y-20374D02*
X8277Y-19911D01*
G54D33*
X24053Y-17262D02*
X24728Y-17262D01*
X24728Y-17262D02*
X24803Y-17187D01*
G54D35*
X23778Y-17437D02*
X23953Y-17262D01*
X24728Y-17262D02*
X24803Y-17187D01*
X23953Y-17262D02*
X24053Y-17262D01*
G54D34*
X21003Y-19687D02*
X22378Y-18312D01*
G54D33*
X24353Y-16162D02*
X24378Y-16162D01*
X24803Y-16587D02*
X24803Y-17187D01*
X24378Y-16162D02*
X24803Y-16587D01*
G54D35*
X23778Y-17437D02*
X23778Y-18187D01*
X23778Y-18187D02*
X23453Y-18187D01*
X23453Y-18187D02*
X23428Y-18212D01*
X23428Y-18212D02*
X23103Y-18212D01*
X23103Y-18212D02*
X22953Y-18362D01*
X22953Y-18362D02*
X22428Y-18362D01*
X22428Y-18362D02*
X22378Y-18312D01*
X21903Y-17362D02*
X21478Y-16937D01*
X22378Y-18312D02*
X22378Y-17487D01*
X22378Y-17487D02*
X22253Y-17362D01*
X22253Y-17362D02*
X21903Y-17362D01*
G54D34*
X24353Y-16162D02*
X23653Y-16162D01*
X23653Y-16162D02*
X23628Y-16137D01*
X7603Y-9462D02*
X6803Y-9462D01*
X7603Y-9462D02*
X7603Y-10137D01*
X7603Y-10137D02*
X7553Y-10187D01*
X16003Y-12054D02*
X16370Y-12054D01*
X16370Y-12054D02*
X16528Y-12212D01*
X16528Y-12212D02*
X17103Y-12212D01*
G54D32*
X8503Y-9687D02*
X8503Y-8346D01*
X8503Y-8346D02*
X8503Y-8112D01*
X9778Y-2587D02*
X10203Y-2587D01*
X8303Y-4062D02*
X9778Y-2587D01*
X8303Y-7912D02*
X8303Y-4062D01*
X8503Y-8112D02*
X8303Y-7912D01*
G54D34*
X11403Y-12487D02*
X11403Y-10562D01*
X11503Y-13412D02*
X11503Y-12587D01*
X11503Y-12587D02*
X11403Y-12487D01*
X9403Y-17396D02*
X9403Y-18212D01*
X7778Y-15087D02*
X7778Y-14287D01*
X7803Y-16387D02*
X7803Y-15112D01*
X7803Y-15112D02*
X7778Y-15087D01*
G54D32*
X7803Y-15112D02*
X7778Y-15087D01*
G54D34*
X6103Y-10687D02*
X6553Y-10687D01*
X7553Y-10387D02*
X7553Y-10187D01*
X7353Y-10587D02*
X7553Y-10387D01*
X6653Y-10587D02*
X7353Y-10587D01*
X6553Y-10687D02*
X6653Y-10587D01*
X8503Y-9687D02*
X8503Y-9837D01*
X8153Y-10187D02*
X7553Y-10187D01*
X8503Y-9837D02*
X8153Y-10187D01*
X11403Y-10562D02*
X11203Y-10562D01*
X10203Y-6137D02*
X10203Y-2587D01*
X10853Y-6787D02*
X10203Y-6137D01*
X10853Y-10212D02*
X10853Y-6787D01*
X11203Y-10562D02*
X10853Y-10212D01*
X11403Y-10562D02*
X12303Y-10562D01*
X18403Y-12212D02*
X18403Y-11495D01*
X18403Y-11495D02*
X18307Y-11398D01*
X17103Y-12212D02*
X17103Y-11814D01*
X17103Y-11814D02*
X17519Y-11398D01*
X23003Y-12387D02*
X23003Y-12162D01*
X23003Y-12162D02*
X23553Y-11612D01*
X22553Y-8562D02*
X22086Y-8562D01*
X22086Y-8562D02*
X22078Y-8562D01*
X21703Y-8937D02*
X21703Y-9212D01*
X22078Y-8562D02*
X21703Y-8937D01*
X22553Y-9962D02*
X22553Y-9312D01*
X23353Y-9462D02*
X23353Y-8812D01*
G54D35*
X18828Y-12962D02*
X18403Y-12962D01*
X18956Y-13090D02*
X18828Y-12962D01*
G54D34*
X18307Y-10648D02*
X18307Y-10234D01*
X18307Y-10234D02*
X18903Y-9637D01*
G54D35*
X17103Y-12962D02*
X17103Y-13412D01*
X16835Y-13681D02*
X14763Y-13681D01*
X17103Y-13412D02*
X16835Y-13681D01*
G54D34*
X17519Y-10648D02*
X17519Y-10253D01*
X17519Y-10253D02*
X16903Y-9637D01*
X9853Y-12187D02*
X10553Y-12187D01*
X10553Y-12187D02*
X10603Y-12137D01*
X10603Y-12137D02*
X10603Y-11662D01*
X10603Y-11662D02*
X10303Y-11362D01*
X6853Y-10187D02*
X6228Y-10187D01*
X6228Y-10187D02*
X6003Y-9962D01*
X5203Y-14412D02*
X5128Y-14337D01*
X5528Y-12237D02*
X5703Y-12237D01*
X5128Y-12637D02*
X5528Y-12237D01*
X5128Y-14337D02*
X5128Y-12637D01*
X5703Y-12237D02*
X5703Y-11537D01*
X5703Y-11537D02*
X5753Y-11487D01*
G54D32*
X5202Y-16180D02*
X5202Y-15163D01*
X5202Y-15163D02*
X5203Y-15162D01*
X5202Y-16777D02*
X5202Y-16180D01*
X5584Y-17159D02*
X5202Y-16777D01*
G54D31*
X9759Y-8628D02*
X10183Y-8628D01*
G54D32*
X10309Y-8754D02*
X10183Y-8628D01*
X10309Y-8754D02*
X10309Y-9528D01*
X10303Y-10612D02*
X10303Y-9533D01*
X10303Y-9533D02*
X10309Y-9528D01*
G54D34*
X9409Y-9528D02*
X9409Y-8937D01*
X9409Y-8267D02*
X9409Y-7828D01*
G54D33*
X9409Y-8937D02*
X9409Y-8267D01*
G54D32*
X9409Y-6928D02*
X9409Y-7828D01*
X9403Y-5997D02*
X9403Y-6922D01*
X9403Y-6922D02*
X9409Y-6928D01*
G54D34*
X5703Y-12937D02*
X6103Y-12537D01*
X6453Y-11862D02*
X6453Y-11487D01*
X6103Y-12212D02*
X6453Y-11862D01*
X6103Y-12537D02*
X6103Y-12212D01*
X5703Y-12937D02*
X5528Y-13112D01*
X5528Y-13112D02*
X5528Y-13687D01*
X6453Y-11487D02*
X6703Y-11487D01*
X6703Y-11487D02*
X7203Y-10987D01*
X24353Y-16912D02*
X23653Y-16912D01*
X23653Y-16912D02*
X23628Y-16937D01*
X24128Y-18637D02*
X24128Y-17737D01*
X6102Y-16180D02*
X6102Y-16889D01*
X6102Y-17519D02*
X6102Y-17959D01*
G54D33*
X6102Y-16889D02*
X6102Y-17519D01*
G54D32*
X6102Y-18780D02*
X6102Y-17959D01*
X6103Y-19777D02*
X6103Y-18781D01*
X6103Y-18781D02*
X6102Y-18780D01*
X6103Y-18779D02*
X6103Y-18687D01*
G54D34*
X10503Y-14337D02*
X10303Y-14337D01*
X10103Y-12787D02*
X10328Y-12562D01*
X10103Y-14137D02*
X10103Y-12787D01*
X10303Y-14337D02*
X10103Y-14137D01*
X10603Y-12837D02*
X10328Y-12562D01*
X9153Y-12387D02*
X9153Y-12187D01*
X10328Y-12562D02*
X9328Y-12562D01*
X9328Y-12562D02*
X9153Y-12387D01*
X11503Y-14162D02*
X11328Y-14337D01*
X11328Y-14337D02*
X10503Y-14337D01*
X12403Y-14162D02*
X12028Y-13787D01*
X10653Y-13787D02*
X10503Y-13637D01*
X12028Y-13787D02*
X10653Y-13787D01*
X23353Y-21287D02*
X23799Y-20842D01*
X23799Y-20598D02*
X23799Y-19291D01*
X23799Y-20842D02*
X23799Y-20598D01*
G54D33*
X9503Y-13602D02*
X9074Y-13602D01*
G54D35*
X16378Y-12920D02*
X16361Y-12920D01*
G54D33*
X14039Y-11472D02*
X15413Y-10098D01*
X14039Y-12019D02*
X14039Y-11472D01*
X14653Y-12633D02*
X14039Y-12019D01*
X14842Y-12633D02*
X14653Y-12633D01*
X14897Y-12578D02*
X14842Y-12633D01*
G54D35*
X16019Y-12578D02*
X14897Y-12578D01*
X16361Y-12920D02*
X16019Y-12578D01*
G54D32*
X4118Y-7145D02*
X1783Y-7145D01*
X5366Y-5897D02*
X4118Y-7145D01*
X5366Y-5082D02*
X5366Y-5897D01*
X8842Y-1606D02*
X5366Y-5082D01*
G54D33*
X16141Y-15732D02*
X19110Y-15732D01*
X15944Y-15929D02*
X16141Y-15732D01*
X25393Y-10708D02*
X25492Y-10708D01*
X25326Y-10775D02*
X25393Y-10708D01*
X21535Y-13681D02*
X21503Y-13712D01*
X21503Y-13712D02*
X21503Y-14487D01*
G54D35*
X20757Y-15600D02*
X20757Y-14862D01*
X20866Y-15708D02*
X20757Y-15600D01*
G54D33*
X24479Y-8062D02*
X25492Y-9074D01*
X23353Y-8062D02*
X24479Y-8062D01*
X25492Y-9074D02*
X25492Y-10708D01*
X25492Y-12421D02*
X24940Y-12972D01*
G54D34*
X24940Y-12972D02*
X24940Y-15059D01*
X24940Y-15059D02*
X24744Y-15255D01*
G54D33*
X25492Y-10708D02*
X25492Y-12421D01*
X19055Y-8681D02*
X16555Y-8681D01*
X19370Y-8996D02*
X19055Y-8681D01*
X19370Y-9881D02*
X19370Y-8996D01*
X18976Y-10275D02*
X19370Y-9881D01*
X18976Y-10314D02*
X18976Y-10275D01*
X18976Y-10728D02*
X18976Y-10314D01*
X19527Y-11279D02*
X18976Y-10728D01*
X19862Y-11279D02*
X19527Y-11279D01*
X12145Y-18759D02*
X12145Y-18838D01*
X14409Y-16496D02*
X12145Y-18759D01*
X15413Y-10098D02*
X16555Y-8956D01*
X16555Y-8956D02*
X16555Y-8681D01*
G54D34*
X21503Y-14487D02*
X21503Y-14086D01*
X21503Y-14086D02*
X21594Y-13996D01*
X21594Y-13996D02*
X23484Y-13996D01*
X23484Y-13996D02*
X24744Y-15255D01*
X23897Y-19192D02*
X23799Y-19291D01*
X24625Y-19192D02*
X23897Y-19192D01*
X25059Y-18759D02*
X24625Y-19192D01*
X25059Y-15570D02*
X25059Y-18759D01*
X24744Y-15255D02*
X25059Y-15570D01*
X23444Y-18703D02*
X23378Y-18637D01*
X23444Y-18937D02*
X23444Y-18703D01*
X23799Y-19291D02*
X23444Y-18937D01*
X9503Y-12987D02*
X9503Y-13602D01*
X9503Y-13602D02*
X9503Y-13787D01*
X9503Y-13787D02*
X9703Y-13987D01*
G54D10*
G36*
X2280Y-14692D02*
X2209Y-14763D01*
X2203Y-14758D01*
X2198Y-14763D01*
X2127Y-14692D01*
X2133Y-14687D01*
X2127Y-14681D01*
X2198Y-14611D01*
X2203Y-14616D01*
X2209Y-14611D01*
X2280Y-14681D01*
X2274Y-14687D01*
X2280Y-14692D01*
X2280Y-14692D01*
G37*
G54D36*
X2280Y-14692D02*
X2209Y-14763D01*
X2203Y-14758D01*
X2198Y-14763D01*
X2127Y-14692D01*
X2133Y-14687D01*
X2127Y-14681D01*
X2198Y-14611D01*
X2203Y-14616D01*
X2209Y-14611D01*
X2280Y-14681D01*
X2274Y-14687D01*
X2280Y-14692D01*
G54D10*
G36*
X5757Y-7610D02*
X5168Y-8199D01*
X5092Y-8312D01*
X5066Y-8444D01*
X5066Y-10427D01*
X5054Y-10438D01*
X4969Y-10352D01*
X4848Y-10302D01*
X4718Y-10302D01*
X4598Y-10352D01*
X4506Y-10444D01*
X4456Y-10564D01*
X4456Y-10675D01*
X3304Y-11827D01*
X3260Y-11892D01*
X3245Y-11968D01*
X3245Y-13027D01*
X2615Y-13658D01*
X2571Y-13722D01*
X2556Y-13799D01*
X2556Y-14263D01*
X2555Y-14265D01*
X2521Y-14164D01*
X2297Y-14082D01*
X2059Y-14093D01*
X1886Y-14164D01*
X1852Y-14265D01*
X1807Y-14220D01*
X1793Y-14233D01*
X1793Y-11161D01*
X1771Y-11051D01*
X1709Y-10957D01*
X1237Y-10485D01*
X1237Y-9599D01*
X1237Y-8599D01*
X1169Y-8434D01*
X1042Y-8307D01*
X877Y-8239D01*
X698Y-8238D01*
X532Y-8307D01*
X406Y-8433D01*
X337Y-8599D01*
X337Y-8778D01*
X405Y-8943D01*
X532Y-9070D01*
X697Y-9138D01*
X876Y-9139D01*
X1041Y-9070D01*
X1168Y-8944D01*
X1237Y-8778D01*
X1237Y-8599D01*
X1237Y-9599D01*
X1169Y-9434D01*
X1042Y-9307D01*
X877Y-9239D01*
X698Y-9238D01*
X532Y-9307D01*
X406Y-9433D01*
X337Y-9599D01*
X337Y-9778D01*
X405Y-9943D01*
X532Y-10070D01*
X697Y-10138D01*
X876Y-10139D01*
X1041Y-10070D01*
X1168Y-9944D01*
X1237Y-9778D01*
X1237Y-9599D01*
X1237Y-10485D01*
X1236Y-10485D01*
X1172Y-10442D01*
X1169Y-10434D01*
X1042Y-10307D01*
X877Y-10239D01*
X698Y-10238D01*
X532Y-10307D01*
X406Y-10433D01*
X337Y-10599D01*
X337Y-10778D01*
X405Y-10943D01*
X532Y-11070D01*
X697Y-11138D01*
X876Y-11139D01*
X1018Y-11080D01*
X1218Y-11280D01*
X1218Y-11552D01*
X1169Y-11434D01*
X1042Y-11307D01*
X877Y-11239D01*
X698Y-11238D01*
X532Y-11307D01*
X406Y-11433D01*
X337Y-11599D01*
X337Y-11778D01*
X405Y-11943D01*
X532Y-12070D01*
X697Y-12138D01*
X876Y-12139D01*
X1041Y-12070D01*
X1168Y-11944D01*
X1218Y-11825D01*
X1218Y-12552D01*
X1169Y-12434D01*
X1042Y-12307D01*
X877Y-12239D01*
X698Y-12238D01*
X532Y-12307D01*
X406Y-12433D01*
X337Y-12599D01*
X337Y-12778D01*
X405Y-12943D01*
X532Y-13070D01*
X697Y-13138D01*
X773Y-13138D01*
X650Y-13145D01*
X499Y-13207D01*
X472Y-13303D01*
X787Y-13618D01*
X1102Y-13303D01*
X1075Y-13207D01*
X879Y-13137D01*
X1041Y-13070D01*
X1168Y-12944D01*
X1218Y-12825D01*
X1218Y-13386D01*
X1173Y-13373D01*
X858Y-13688D01*
X1173Y-14004D01*
X1218Y-13991D01*
X1218Y-14386D01*
X1173Y-14373D01*
X1102Y-14444D01*
X1102Y-14303D01*
X1075Y-14207D01*
X1026Y-14190D01*
X1075Y-14170D01*
X1102Y-14074D01*
X787Y-13759D01*
X716Y-13830D01*
X716Y-13688D01*
X401Y-13373D01*
X306Y-13401D01*
X232Y-13607D01*
X243Y-13825D01*
X306Y-13976D01*
X401Y-14004D01*
X716Y-13688D01*
X716Y-13830D01*
X472Y-14074D01*
X499Y-14170D01*
X548Y-14187D01*
X499Y-14207D01*
X472Y-14303D01*
X787Y-14618D01*
X1102Y-14303D01*
X1102Y-14444D01*
X858Y-14688D01*
X1173Y-15004D01*
X1218Y-14991D01*
X1218Y-15552D01*
X1169Y-15434D01*
X1042Y-15307D01*
X877Y-15239D01*
X800Y-15238D01*
X924Y-15232D01*
X1075Y-15170D01*
X1102Y-15074D01*
X787Y-14759D01*
X716Y-14830D01*
X716Y-14688D01*
X401Y-14373D01*
X306Y-14401D01*
X232Y-14607D01*
X243Y-14825D01*
X306Y-14976D01*
X401Y-15004D01*
X716Y-14688D01*
X716Y-14830D01*
X472Y-15074D01*
X499Y-15170D01*
X695Y-15240D01*
X532Y-15307D01*
X406Y-15433D01*
X337Y-15599D01*
X337Y-15778D01*
X405Y-15943D01*
X532Y-16070D01*
X697Y-16138D01*
X876Y-16139D01*
X1041Y-16070D01*
X1168Y-15944D01*
X1218Y-15825D01*
X1218Y-16552D01*
X1169Y-16434D01*
X1042Y-16307D01*
X877Y-16239D01*
X698Y-16238D01*
X532Y-16307D01*
X406Y-16433D01*
X337Y-16599D01*
X337Y-16778D01*
X405Y-16943D01*
X532Y-17070D01*
X697Y-17138D01*
X876Y-17139D01*
X1041Y-17070D01*
X1168Y-16944D01*
X1218Y-16825D01*
X1218Y-17312D01*
X1214Y-17304D01*
X1172Y-17261D01*
X1117Y-17239D01*
X1057Y-17238D01*
X457Y-17238D01*
X402Y-17261D01*
X360Y-17303D01*
X337Y-17359D01*
X337Y-17418D01*
X337Y-18018D01*
X360Y-18073D01*
X402Y-18116D01*
X457Y-18138D01*
X517Y-18139D01*
X1117Y-18139D01*
X1172Y-18116D01*
X1214Y-18074D01*
X1237Y-18018D01*
X1237Y-17959D01*
X1237Y-17705D01*
X1240Y-17718D01*
X1302Y-17811D01*
X2198Y-18708D01*
X2057Y-18649D01*
X1488Y-18648D01*
X962Y-18866D01*
X560Y-19267D01*
X342Y-19793D01*
X341Y-20361D01*
X559Y-20887D01*
X960Y-21289D01*
X1486Y-21508D01*
X2054Y-21508D01*
X2580Y-21291D01*
X2704Y-21167D01*
X2704Y-21437D01*
X2726Y-21547D01*
X2788Y-21640D01*
X2824Y-21664D01*
X3027Y-21867D01*
X271Y-21867D01*
X179Y-21776D01*
X179Y-6280D01*
X440Y-6541D01*
X440Y-7399D01*
X406Y-7433D01*
X337Y-7599D01*
X337Y-7778D01*
X405Y-7943D01*
X532Y-8070D01*
X697Y-8138D01*
X746Y-8138D01*
X750Y-8142D01*
X863Y-8218D01*
X996Y-8244D01*
X4203Y-8244D01*
X4336Y-8218D01*
X4449Y-8142D01*
X5757Y-6835D01*
X5757Y-7610D01*
X5757Y-7610D01*
G37*
G54D36*
X5757Y-7610D02*
X5168Y-8199D01*
X5092Y-8312D01*
X5066Y-8444D01*
X5066Y-10427D01*
X5054Y-10438D01*
X4969Y-10352D01*
X4848Y-10302D01*
X4718Y-10302D01*
X4598Y-10352D01*
X4506Y-10444D01*
X4456Y-10564D01*
X4456Y-10675D01*
X3304Y-11827D01*
X3260Y-11892D01*
X3245Y-11968D01*
X3245Y-13027D01*
X2615Y-13658D01*
X2571Y-13722D01*
X2556Y-13799D01*
X2556Y-14263D01*
X2555Y-14265D01*
X2521Y-14164D01*
X2297Y-14082D01*
X2059Y-14093D01*
X1886Y-14164D01*
X1852Y-14265D01*
X1807Y-14220D01*
X1793Y-14233D01*
X1793Y-11161D01*
X1771Y-11051D01*
X1709Y-10957D01*
X1237Y-10485D01*
X1237Y-9599D01*
X1237Y-8599D01*
X1169Y-8434D01*
X1042Y-8307D01*
X877Y-8239D01*
X698Y-8238D01*
X532Y-8307D01*
X406Y-8433D01*
X337Y-8599D01*
X337Y-8778D01*
X405Y-8943D01*
X532Y-9070D01*
X697Y-9138D01*
X876Y-9139D01*
X1041Y-9070D01*
X1168Y-8944D01*
X1237Y-8778D01*
X1237Y-8599D01*
X1237Y-9599D01*
X1169Y-9434D01*
X1042Y-9307D01*
X877Y-9239D01*
X698Y-9238D01*
X532Y-9307D01*
X406Y-9433D01*
X337Y-9599D01*
X337Y-9778D01*
X405Y-9943D01*
X532Y-10070D01*
X697Y-10138D01*
X876Y-10139D01*
X1041Y-10070D01*
X1168Y-9944D01*
X1237Y-9778D01*
X1237Y-9599D01*
X1237Y-10485D01*
X1236Y-10485D01*
X1172Y-10442D01*
X1169Y-10434D01*
X1042Y-10307D01*
X877Y-10239D01*
X698Y-10238D01*
X532Y-10307D01*
X406Y-10433D01*
X337Y-10599D01*
X337Y-10778D01*
X405Y-10943D01*
X532Y-11070D01*
X697Y-11138D01*
X876Y-11139D01*
X1018Y-11080D01*
X1218Y-11280D01*
X1218Y-11552D01*
X1169Y-11434D01*
X1042Y-11307D01*
X877Y-11239D01*
X698Y-11238D01*
X532Y-11307D01*
X406Y-11433D01*
X337Y-11599D01*
X337Y-11778D01*
X405Y-11943D01*
X532Y-12070D01*
X697Y-12138D01*
X876Y-12139D01*
X1041Y-12070D01*
X1168Y-11944D01*
X1218Y-11825D01*
X1218Y-12552D01*
X1169Y-12434D01*
X1042Y-12307D01*
X877Y-12239D01*
X698Y-12238D01*
X532Y-12307D01*
X406Y-12433D01*
X337Y-12599D01*
X337Y-12778D01*
X405Y-12943D01*
X532Y-13070D01*
X697Y-13138D01*
X773Y-13138D01*
X650Y-13145D01*
X499Y-13207D01*
X472Y-13303D01*
X787Y-13618D01*
X1102Y-13303D01*
X1075Y-13207D01*
X879Y-13137D01*
X1041Y-13070D01*
X1168Y-12944D01*
X1218Y-12825D01*
X1218Y-13386D01*
X1173Y-13373D01*
X858Y-13688D01*
X1173Y-14004D01*
X1218Y-13991D01*
X1218Y-14386D01*
X1173Y-14373D01*
X1102Y-14444D01*
X1102Y-14303D01*
X1075Y-14207D01*
X1026Y-14190D01*
X1075Y-14170D01*
X1102Y-14074D01*
X787Y-13759D01*
X716Y-13830D01*
X716Y-13688D01*
X401Y-13373D01*
X306Y-13401D01*
X232Y-13607D01*
X243Y-13825D01*
X306Y-13976D01*
X401Y-14004D01*
X716Y-13688D01*
X716Y-13830D01*
X472Y-14074D01*
X499Y-14170D01*
X548Y-14187D01*
X499Y-14207D01*
X472Y-14303D01*
X787Y-14618D01*
X1102Y-14303D01*
X1102Y-14444D01*
X858Y-14688D01*
X1173Y-15004D01*
X1218Y-14991D01*
X1218Y-15552D01*
X1169Y-15434D01*
X1042Y-15307D01*
X877Y-15239D01*
X800Y-15238D01*
X924Y-15232D01*
X1075Y-15170D01*
X1102Y-15074D01*
X787Y-14759D01*
X716Y-14830D01*
X716Y-14688D01*
X401Y-14373D01*
X306Y-14401D01*
X232Y-14607D01*
X243Y-14825D01*
X306Y-14976D01*
X401Y-15004D01*
X716Y-14688D01*
X716Y-14830D01*
X472Y-15074D01*
X499Y-15170D01*
X695Y-15240D01*
X532Y-15307D01*
X406Y-15433D01*
X337Y-15599D01*
X337Y-15778D01*
X405Y-15943D01*
X532Y-16070D01*
X697Y-16138D01*
X876Y-16139D01*
X1041Y-16070D01*
X1168Y-15944D01*
X1218Y-15825D01*
X1218Y-16552D01*
X1169Y-16434D01*
X1042Y-16307D01*
X877Y-16239D01*
X698Y-16238D01*
X532Y-16307D01*
X406Y-16433D01*
X337Y-16599D01*
X337Y-16778D01*
X405Y-16943D01*
X532Y-17070D01*
X697Y-17138D01*
X876Y-17139D01*
X1041Y-17070D01*
X1168Y-16944D01*
X1218Y-16825D01*
X1218Y-17312D01*
X1214Y-17304D01*
X1172Y-17261D01*
X1117Y-17239D01*
X1057Y-17238D01*
X457Y-17238D01*
X402Y-17261D01*
X360Y-17303D01*
X337Y-17359D01*
X337Y-17418D01*
X337Y-18018D01*
X360Y-18073D01*
X402Y-18116D01*
X457Y-18138D01*
X517Y-18139D01*
X1117Y-18139D01*
X1172Y-18116D01*
X1214Y-18074D01*
X1237Y-18018D01*
X1237Y-17959D01*
X1237Y-17705D01*
X1240Y-17718D01*
X1302Y-17811D01*
X2198Y-18708D01*
X2057Y-18649D01*
X1488Y-18648D01*
X962Y-18866D01*
X560Y-19267D01*
X342Y-19793D01*
X341Y-20361D01*
X559Y-20887D01*
X960Y-21289D01*
X1486Y-21508D01*
X2054Y-21508D01*
X2580Y-21291D01*
X2704Y-21167D01*
X2704Y-21437D01*
X2726Y-21547D01*
X2788Y-21640D01*
X2824Y-21664D01*
X3027Y-21867D01*
X271Y-21867D01*
X179Y-21776D01*
X179Y-6280D01*
X440Y-6541D01*
X440Y-7399D01*
X406Y-7433D01*
X337Y-7599D01*
X337Y-7778D01*
X405Y-7943D01*
X532Y-8070D01*
X697Y-8138D01*
X746Y-8138D01*
X750Y-8142D01*
X863Y-8218D01*
X996Y-8244D01*
X4203Y-8244D01*
X4336Y-8218D01*
X4449Y-8142D01*
X5757Y-6835D01*
X5757Y-7610D01*
G54D10*
G36*
X5980Y-542D02*
X5909Y-613D01*
X5903Y-608D01*
X5898Y-613D01*
X5827Y-542D01*
X5833Y-537D01*
X5827Y-531D01*
X5898Y-461D01*
X5903Y-466D01*
X5909Y-461D01*
X5980Y-531D01*
X5974Y-537D01*
X5980Y-542D01*
X5980Y-542D01*
G37*
G54D36*
X5980Y-542D02*
X5909Y-613D01*
X5903Y-608D01*
X5898Y-613D01*
X5827Y-542D01*
X5833Y-537D01*
X5827Y-531D01*
X5898Y-461D01*
X5903Y-466D01*
X5909Y-461D01*
X5980Y-531D01*
X5974Y-537D01*
X5980Y-542D01*
G54D10*
G36*
X7661Y-9512D02*
X7653Y-9512D01*
X7653Y-9520D01*
X7553Y-9520D01*
X7553Y-9512D01*
X7266Y-9512D01*
X7141Y-9512D01*
X6853Y-9512D01*
X6853Y-9520D01*
X6753Y-9520D01*
X6753Y-9512D01*
X6746Y-9512D01*
X6746Y-9412D01*
X6753Y-9412D01*
X6753Y-9404D01*
X6853Y-9404D01*
X6853Y-9412D01*
X7141Y-9412D01*
X7266Y-9412D01*
X7553Y-9412D01*
X7553Y-9404D01*
X7653Y-9404D01*
X7653Y-9412D01*
X7661Y-9412D01*
X7661Y-9512D01*
X7661Y-9512D01*
G37*
G54D36*
X7661Y-9512D02*
X7653Y-9512D01*
X7653Y-9520D01*
X7553Y-9520D01*
X7553Y-9512D01*
X7266Y-9512D01*
X7141Y-9512D01*
X6853Y-9512D01*
X6853Y-9520D01*
X6753Y-9520D01*
X6753Y-9512D01*
X6746Y-9512D01*
X6746Y-9412D01*
X6753Y-9412D01*
X6753Y-9404D01*
X6853Y-9404D01*
X6853Y-9412D01*
X7141Y-9412D01*
X7266Y-9412D01*
X7553Y-9412D01*
X7553Y-9404D01*
X7653Y-9404D01*
X7653Y-9412D01*
X7661Y-9412D01*
X7661Y-9512D01*
G54D10*
G36*
X8524Y-1434D02*
X5120Y-4837D01*
X5045Y-4949D01*
X5019Y-5082D01*
X5019Y-5753D01*
X4480Y-6292D01*
X4480Y-6175D01*
X4431Y-6055D01*
X4372Y-5996D01*
X4372Y-3602D01*
X4355Y-3518D01*
X4308Y-3447D01*
X4308Y-3447D01*
X4139Y-3279D01*
X4337Y-3279D01*
X4337Y-1327D01*
X3383Y-1327D01*
X3444Y-1156D01*
X3433Y-938D01*
X3371Y-786D01*
X3275Y-759D01*
X3204Y-830D01*
X3204Y-688D01*
X3177Y-593D01*
X2971Y-520D01*
X2753Y-530D01*
X2601Y-593D01*
X2574Y-688D01*
X2889Y-1004D01*
X3204Y-688D01*
X3204Y-830D01*
X2960Y-1074D01*
X3275Y-1390D01*
X3339Y-1371D01*
X3339Y-1984D01*
X3271Y-1820D01*
X3145Y-1693D01*
X2979Y-1624D01*
X2903Y-1624D01*
X3026Y-1618D01*
X3177Y-1556D01*
X3204Y-1460D01*
X2889Y-1145D01*
X2819Y-1216D01*
X2819Y-1074D01*
X2503Y-759D01*
X2408Y-786D01*
X2338Y-982D01*
X2271Y-820D01*
X2145Y-693D01*
X1979Y-624D01*
X1800Y-624D01*
X1635Y-693D01*
X1508Y-819D01*
X1439Y-984D01*
X1439Y-1163D01*
X1508Y-1329D01*
X1634Y-1456D01*
X1799Y-1524D01*
X1978Y-1524D01*
X2144Y-1456D01*
X2271Y-1330D01*
X2339Y-1164D01*
X2339Y-1088D01*
X2345Y-1211D01*
X2408Y-1362D01*
X2503Y-1390D01*
X2819Y-1074D01*
X2819Y-1216D01*
X2574Y-1460D01*
X2601Y-1556D01*
X2797Y-1625D01*
X2635Y-1693D01*
X2508Y-1819D01*
X2439Y-1984D01*
X2439Y-2163D01*
X2508Y-2329D01*
X2634Y-2456D01*
X2742Y-2500D01*
X3339Y-3097D01*
X3339Y-3279D01*
X3520Y-3279D01*
X3934Y-3693D01*
X3934Y-5996D01*
X3876Y-6054D01*
X3858Y-6098D01*
X3840Y-6055D01*
X3748Y-5962D01*
X3703Y-5944D01*
X3703Y-3779D01*
X3686Y-3695D01*
X3639Y-3624D01*
X3639Y-3624D01*
X2930Y-2916D01*
X2859Y-2868D01*
X2775Y-2851D01*
X2649Y-2851D01*
X2199Y-2401D01*
X2271Y-2330D01*
X2339Y-2164D01*
X2339Y-1985D01*
X2271Y-1820D01*
X2145Y-1693D01*
X1979Y-1624D01*
X1800Y-1624D01*
X1635Y-1693D01*
X1508Y-1819D01*
X1439Y-1984D01*
X1439Y-2163D01*
X1508Y-2329D01*
X1634Y-2456D01*
X1685Y-2477D01*
X1687Y-2485D01*
X1734Y-2556D01*
X2341Y-3162D01*
X2089Y-3058D01*
X1520Y-3057D01*
X995Y-3274D01*
X592Y-3676D01*
X575Y-3717D01*
X575Y-3080D01*
X599Y-3045D01*
X625Y-2912D01*
X625Y-2524D01*
X1219Y-2524D01*
X1274Y-2502D01*
X1316Y-2459D01*
X1339Y-2404D01*
X1339Y-2345D01*
X1339Y-1745D01*
X1317Y-1689D01*
X1274Y-1647D01*
X1219Y-1624D01*
X1160Y-1624D01*
X707Y-1624D01*
X807Y-1524D01*
X978Y-1524D01*
X1144Y-1456D01*
X1271Y-1330D01*
X1339Y-1164D01*
X1339Y-985D01*
X1271Y-820D01*
X1145Y-693D01*
X979Y-624D01*
X800Y-624D01*
X635Y-693D01*
X508Y-819D01*
X492Y-858D01*
X179Y-1171D01*
X179Y-271D01*
X271Y-179D01*
X3465Y-179D01*
X3453Y-207D01*
X3453Y-267D01*
X3453Y-867D01*
X3476Y-922D01*
X3518Y-964D01*
X3573Y-987D01*
X3633Y-987D01*
X4233Y-987D01*
X4288Y-964D01*
X4331Y-922D01*
X4353Y-867D01*
X4353Y-807D01*
X4353Y-551D01*
X4360Y-674D01*
X4422Y-825D01*
X4518Y-852D01*
X4833Y-537D01*
X4827Y-531D01*
X4898Y-461D01*
X4903Y-466D01*
X4909Y-461D01*
X4980Y-531D01*
X4974Y-537D01*
X4980Y-542D01*
X4909Y-613D01*
X4903Y-608D01*
X4588Y-923D01*
X4616Y-1018D01*
X4757Y-1069D01*
X4733Y-1104D01*
X4707Y-1237D01*
X4729Y-1349D01*
X4520Y-1349D01*
X4520Y-2233D01*
X5194Y-2233D01*
X5194Y-1552D01*
X5296Y-1484D01*
X5543Y-1484D01*
X5543Y-2233D01*
X6217Y-2233D01*
X6217Y-1484D01*
X6528Y-1484D01*
X6528Y-2434D01*
X7202Y-2434D01*
X7202Y-1484D01*
X7303Y-1484D01*
X7436Y-1457D01*
X7517Y-1403D01*
X7483Y-1454D01*
X7457Y-1587D01*
X7483Y-1720D01*
X7558Y-1832D01*
X7671Y-1907D01*
X7803Y-1934D01*
X7936Y-1907D01*
X8049Y-1832D01*
X8447Y-1434D01*
X8524Y-1434D01*
X8524Y-1434D01*
G37*
G54D36*
X8524Y-1434D02*
X5120Y-4837D01*
X5045Y-4949D01*
X5019Y-5082D01*
X5019Y-5753D01*
X4480Y-6292D01*
X4480Y-6175D01*
X4431Y-6055D01*
X4372Y-5996D01*
X4372Y-3602D01*
X4355Y-3518D01*
X4308Y-3447D01*
X4308Y-3447D01*
X4139Y-3279D01*
X4337Y-3279D01*
X4337Y-1327D01*
X3383Y-1327D01*
X3444Y-1156D01*
X3433Y-938D01*
X3371Y-786D01*
X3275Y-759D01*
X3204Y-830D01*
X3204Y-688D01*
X3177Y-593D01*
X2971Y-520D01*
X2753Y-530D01*
X2601Y-593D01*
X2574Y-688D01*
X2889Y-1004D01*
X3204Y-688D01*
X3204Y-830D01*
X2960Y-1074D01*
X3275Y-1390D01*
X3339Y-1371D01*
X3339Y-1984D01*
X3271Y-1820D01*
X3145Y-1693D01*
X2979Y-1624D01*
X2903Y-1624D01*
X3026Y-1618D01*
X3177Y-1556D01*
X3204Y-1460D01*
X2889Y-1145D01*
X2819Y-1216D01*
X2819Y-1074D01*
X2503Y-759D01*
X2408Y-786D01*
X2338Y-982D01*
X2271Y-820D01*
X2145Y-693D01*
X1979Y-624D01*
X1800Y-624D01*
X1635Y-693D01*
X1508Y-819D01*
X1439Y-984D01*
X1439Y-1163D01*
X1508Y-1329D01*
X1634Y-1456D01*
X1799Y-1524D01*
X1978Y-1524D01*
X2144Y-1456D01*
X2271Y-1330D01*
X2339Y-1164D01*
X2339Y-1088D01*
X2345Y-1211D01*
X2408Y-1362D01*
X2503Y-1390D01*
X2819Y-1074D01*
X2819Y-1216D01*
X2574Y-1460D01*
X2601Y-1556D01*
X2797Y-1625D01*
X2635Y-1693D01*
X2508Y-1819D01*
X2439Y-1984D01*
X2439Y-2163D01*
X2508Y-2329D01*
X2634Y-2456D01*
X2742Y-2500D01*
X3339Y-3097D01*
X3339Y-3279D01*
X3520Y-3279D01*
X3934Y-3693D01*
X3934Y-5996D01*
X3876Y-6054D01*
X3858Y-6098D01*
X3840Y-6055D01*
X3748Y-5962D01*
X3703Y-5944D01*
X3703Y-3779D01*
X3686Y-3695D01*
X3639Y-3624D01*
X3639Y-3624D01*
X2930Y-2916D01*
X2859Y-2868D01*
X2775Y-2851D01*
X2649Y-2851D01*
X2199Y-2401D01*
X2271Y-2330D01*
X2339Y-2164D01*
X2339Y-1985D01*
X2271Y-1820D01*
X2145Y-1693D01*
X1979Y-1624D01*
X1800Y-1624D01*
X1635Y-1693D01*
X1508Y-1819D01*
X1439Y-1984D01*
X1439Y-2163D01*
X1508Y-2329D01*
X1634Y-2456D01*
X1685Y-2477D01*
X1687Y-2485D01*
X1734Y-2556D01*
X2341Y-3162D01*
X2089Y-3058D01*
X1520Y-3057D01*
X995Y-3274D01*
X592Y-3676D01*
X575Y-3717D01*
X575Y-3080D01*
X599Y-3045D01*
X625Y-2912D01*
X625Y-2524D01*
X1219Y-2524D01*
X1274Y-2502D01*
X1316Y-2459D01*
X1339Y-2404D01*
X1339Y-2345D01*
X1339Y-1745D01*
X1317Y-1689D01*
X1274Y-1647D01*
X1219Y-1624D01*
X1160Y-1624D01*
X707Y-1624D01*
X807Y-1524D01*
X978Y-1524D01*
X1144Y-1456D01*
X1271Y-1330D01*
X1339Y-1164D01*
X1339Y-985D01*
X1271Y-820D01*
X1145Y-693D01*
X979Y-624D01*
X800Y-624D01*
X635Y-693D01*
X508Y-819D01*
X492Y-858D01*
X179Y-1171D01*
X179Y-271D01*
X271Y-179D01*
X3465Y-179D01*
X3453Y-207D01*
X3453Y-267D01*
X3453Y-867D01*
X3476Y-922D01*
X3518Y-964D01*
X3573Y-987D01*
X3633Y-987D01*
X4233Y-987D01*
X4288Y-964D01*
X4331Y-922D01*
X4353Y-867D01*
X4353Y-807D01*
X4353Y-551D01*
X4360Y-674D01*
X4422Y-825D01*
X4518Y-852D01*
X4833Y-537D01*
X4827Y-531D01*
X4898Y-461D01*
X4903Y-466D01*
X4909Y-461D01*
X4980Y-531D01*
X4974Y-537D01*
X4980Y-542D01*
X4909Y-613D01*
X4903Y-608D01*
X4588Y-923D01*
X4616Y-1018D01*
X4757Y-1069D01*
X4733Y-1104D01*
X4707Y-1237D01*
X4729Y-1349D01*
X4520Y-1349D01*
X4520Y-2233D01*
X5194Y-2233D01*
X5194Y-1552D01*
X5296Y-1484D01*
X5543Y-1484D01*
X5543Y-2233D01*
X6217Y-2233D01*
X6217Y-1484D01*
X6528Y-1484D01*
X6528Y-2434D01*
X7202Y-2434D01*
X7202Y-1484D01*
X7303Y-1484D01*
X7436Y-1457D01*
X7517Y-1403D01*
X7483Y-1454D01*
X7457Y-1587D01*
X7483Y-1720D01*
X7558Y-1832D01*
X7671Y-1907D01*
X7803Y-1934D01*
X7936Y-1907D01*
X8049Y-1832D01*
X8447Y-1434D01*
X8524Y-1434D01*
G54D10*
G36*
X12655Y-6298D02*
X12628Y-6287D01*
X12529Y-6287D01*
X12416Y-6287D01*
X12353Y-6349D01*
X12353Y-6662D01*
X12361Y-6662D01*
X12361Y-6762D01*
X12353Y-6762D01*
X12353Y-6770D01*
X12253Y-6770D01*
X12253Y-6762D01*
X12253Y-6662D01*
X12253Y-6349D01*
X12191Y-6287D01*
X12078Y-6287D01*
X11978Y-6287D01*
X11887Y-6325D01*
X11829Y-6383D01*
X11829Y-5903D01*
X11764Y-5746D01*
X11644Y-5627D01*
X11488Y-5562D01*
X11319Y-5562D01*
X11163Y-5626D01*
X11043Y-5746D01*
X10979Y-5902D01*
X10978Y-6071D01*
X11043Y-6227D01*
X11162Y-6347D01*
X11319Y-6412D01*
X11488Y-6412D01*
X11644Y-6347D01*
X11764Y-6228D01*
X11828Y-6072D01*
X11829Y-5903D01*
X11829Y-6383D01*
X11816Y-6395D01*
X11778Y-6487D01*
X11778Y-6599D01*
X11841Y-6662D01*
X12253Y-6662D01*
X12253Y-6762D01*
X11841Y-6762D01*
X11778Y-6824D01*
X11778Y-6936D01*
X11816Y-7028D01*
X11887Y-7099D01*
X11978Y-7137D01*
X11999Y-7137D01*
X11999Y-7137D01*
X11944Y-7160D01*
X11901Y-7202D01*
X11878Y-7257D01*
X11878Y-7317D01*
X11878Y-7667D01*
X11901Y-7722D01*
X11943Y-7764D01*
X11998Y-7787D01*
X12055Y-7787D01*
X12055Y-7887D01*
X11999Y-7887D01*
X11944Y-7910D01*
X11901Y-7952D01*
X11878Y-8007D01*
X11878Y-8067D01*
X11878Y-8417D01*
X11901Y-8472D01*
X11943Y-8514D01*
X11998Y-8537D01*
X12058Y-8537D01*
X12507Y-8537D01*
X12607Y-8637D01*
X12549Y-8637D01*
X11999Y-8637D01*
X11944Y-8660D01*
X11901Y-8702D01*
X11886Y-8738D01*
X11828Y-8738D01*
X11828Y-8682D01*
X11806Y-8627D01*
X11764Y-8585D01*
X11708Y-8562D01*
X11649Y-8562D01*
X11099Y-8562D01*
X11044Y-8585D01*
X11001Y-8627D01*
X10978Y-8682D01*
X10978Y-8742D01*
X10978Y-9292D01*
X11001Y-9347D01*
X11043Y-9389D01*
X11098Y-9412D01*
X11155Y-9412D01*
X11155Y-9487D01*
X11099Y-9487D01*
X11044Y-9510D01*
X11001Y-9552D01*
X10978Y-9607D01*
X10978Y-9667D01*
X10978Y-10017D01*
X11001Y-10072D01*
X11043Y-10114D01*
X11098Y-10137D01*
X11128Y-10137D01*
X11078Y-10137D01*
X10987Y-10175D01*
X10916Y-10245D01*
X10878Y-10337D01*
X10878Y-10449D01*
X10941Y-10512D01*
X11353Y-10512D01*
X11353Y-10504D01*
X11453Y-10504D01*
X11453Y-10512D01*
X11841Y-10512D01*
X11866Y-10512D01*
X12253Y-10512D01*
X12253Y-10504D01*
X12353Y-10504D01*
X12353Y-10512D01*
X12361Y-10512D01*
X12361Y-10612D01*
X12353Y-10612D01*
X12353Y-10620D01*
X12253Y-10620D01*
X12253Y-10612D01*
X11866Y-10612D01*
X11841Y-10612D01*
X11453Y-10612D01*
X11453Y-10924D01*
X11516Y-10987D01*
X11629Y-10987D01*
X11728Y-10987D01*
X11820Y-10949D01*
X11853Y-10915D01*
X11887Y-10949D01*
X11978Y-10987D01*
X12078Y-10987D01*
X12116Y-10987D01*
X12067Y-11036D01*
X12061Y-11037D01*
X11990Y-11085D01*
X11943Y-11156D01*
X11926Y-11240D01*
X11926Y-12933D01*
X11943Y-13016D01*
X11990Y-13087D01*
X12028Y-13125D01*
X12010Y-13143D01*
X11991Y-13095D01*
X11920Y-13025D01*
X11833Y-12989D01*
X11833Y-12716D01*
X11833Y-12257D01*
X11796Y-12165D01*
X11725Y-12095D01*
X11633Y-12057D01*
X11534Y-12057D01*
X11516Y-12057D01*
X11453Y-12119D01*
X11453Y-12437D01*
X11771Y-12437D01*
X11833Y-12374D01*
X11833Y-12257D01*
X11833Y-12716D01*
X11833Y-12599D01*
X11771Y-12537D01*
X11453Y-12537D01*
X11453Y-12854D01*
X11516Y-12917D01*
X11534Y-12917D01*
X11633Y-12917D01*
X11725Y-12879D01*
X11796Y-12808D01*
X11833Y-12716D01*
X11833Y-12989D01*
X11828Y-12987D01*
X11729Y-12987D01*
X11616Y-12987D01*
X11553Y-13049D01*
X11553Y-13362D01*
X11561Y-13362D01*
X11561Y-13462D01*
X11553Y-13462D01*
X11553Y-13470D01*
X11453Y-13470D01*
X11453Y-13462D01*
X11453Y-13362D01*
X11453Y-13049D01*
X11391Y-12987D01*
X11353Y-12987D01*
X11353Y-12854D01*
X11353Y-12537D01*
X11353Y-12437D01*
X11353Y-12119D01*
X11353Y-10924D01*
X11353Y-10612D01*
X10941Y-10612D01*
X10878Y-10674D01*
X10878Y-10786D01*
X10916Y-10878D01*
X10987Y-10949D01*
X11078Y-10987D01*
X11178Y-10987D01*
X11291Y-10987D01*
X11353Y-10924D01*
X11353Y-12119D01*
X11291Y-12057D01*
X11273Y-12057D01*
X11173Y-12057D01*
X11082Y-12095D01*
X11011Y-12165D01*
X10973Y-12257D01*
X10973Y-12374D01*
X11036Y-12437D01*
X11353Y-12437D01*
X11353Y-12537D01*
X11036Y-12537D01*
X10973Y-12599D01*
X10973Y-12716D01*
X11011Y-12808D01*
X11082Y-12879D01*
X11173Y-12917D01*
X11273Y-12917D01*
X11291Y-12917D01*
X11353Y-12854D01*
X11353Y-12987D01*
X11278Y-12987D01*
X11178Y-12987D01*
X11087Y-13025D01*
X11016Y-13095D01*
X10978Y-13187D01*
X10978Y-13299D01*
X11041Y-13362D01*
X11453Y-13362D01*
X11453Y-13462D01*
X11041Y-13462D01*
X10978Y-13524D01*
X10978Y-13538D01*
X10833Y-13538D01*
X10833Y-13427D01*
X10811Y-13372D01*
X10769Y-13330D01*
X10713Y-13307D01*
X10654Y-13307D01*
X10352Y-13307D01*
X10352Y-13150D01*
X10393Y-13167D01*
X10453Y-13167D01*
X10813Y-13167D01*
X10868Y-13144D01*
X10911Y-13102D01*
X10933Y-13047D01*
X10933Y-12987D01*
X10933Y-12627D01*
X10911Y-12572D01*
X10869Y-12530D01*
X10813Y-12507D01*
X10754Y-12507D01*
X10625Y-12507D01*
X10585Y-12467D01*
X10813Y-12467D01*
X10868Y-12444D01*
X10911Y-12402D01*
X10933Y-12347D01*
X10933Y-12287D01*
X10933Y-11927D01*
X10911Y-11872D01*
X10869Y-11830D01*
X10852Y-11823D01*
X10852Y-11662D01*
X10852Y-11662D01*
X10833Y-11567D01*
X10833Y-11567D01*
X10815Y-11540D01*
X10779Y-11486D01*
X10779Y-11486D01*
X10733Y-11440D01*
X10733Y-2663D01*
X10722Y-2454D01*
X10664Y-2314D01*
X10571Y-2290D01*
X10501Y-2361D01*
X10501Y-2219D01*
X10476Y-2126D01*
X10279Y-2057D01*
X10071Y-2068D01*
X9931Y-2126D01*
X9906Y-2219D01*
X10203Y-2516D01*
X10501Y-2219D01*
X10501Y-2361D01*
X10274Y-2587D01*
X10571Y-2884D01*
X10664Y-2860D01*
X10733Y-2663D01*
X10733Y-11440D01*
X10728Y-11436D01*
X10728Y-11157D01*
X10728Y-10757D01*
X10728Y-10407D01*
X10706Y-10352D01*
X10664Y-10310D01*
X10650Y-10304D01*
X10650Y-9979D01*
X10659Y-9958D01*
X10659Y-9898D01*
X10659Y-9098D01*
X10656Y-9090D01*
X10656Y-8754D01*
X10629Y-8621D01*
X10629Y-8621D01*
X10554Y-8509D01*
X10501Y-8455D01*
X10501Y-2955D01*
X10203Y-2658D01*
X10133Y-2728D01*
X10133Y-2587D01*
X9836Y-2290D01*
X9743Y-2314D01*
X9674Y-2511D01*
X9685Y-2720D01*
X9743Y-2860D01*
X9836Y-2884D01*
X10133Y-2587D01*
X10133Y-2728D01*
X9906Y-2955D01*
X9931Y-3047D01*
X10128Y-3117D01*
X10336Y-3105D01*
X10476Y-3047D01*
X10501Y-2955D01*
X10501Y-8455D01*
X10428Y-8383D01*
X10316Y-8307D01*
X10183Y-8281D01*
X10050Y-8307D01*
X10027Y-8323D01*
X10024Y-8321D01*
X9969Y-8298D01*
X9909Y-8298D01*
X9651Y-8298D01*
X9657Y-8267D01*
X9657Y-8142D01*
X9674Y-8135D01*
X9716Y-8093D01*
X9739Y-8038D01*
X9739Y-7978D01*
X9739Y-7912D01*
X9756Y-7828D01*
X9756Y-7478D01*
X10159Y-7478D01*
X10214Y-7455D01*
X10256Y-7413D01*
X10279Y-7358D01*
X10279Y-7298D01*
X10279Y-6498D01*
X10256Y-6443D01*
X10214Y-6401D01*
X10159Y-6378D01*
X10099Y-6378D01*
X9750Y-6378D01*
X9750Y-6280D01*
X9781Y-6250D01*
X9849Y-6086D01*
X9849Y-5909D01*
X9781Y-5745D01*
X9656Y-5620D01*
X9492Y-5552D01*
X9315Y-5552D01*
X9152Y-5619D01*
X9026Y-5745D01*
X8958Y-5908D01*
X8958Y-6085D01*
X9026Y-6249D01*
X9057Y-6280D01*
X9057Y-6378D01*
X8659Y-6378D01*
X8604Y-6401D01*
X8562Y-6443D01*
X8539Y-6498D01*
X8539Y-6558D01*
X8539Y-7358D01*
X8562Y-7413D01*
X8604Y-7455D01*
X8659Y-7478D01*
X8719Y-7478D01*
X9062Y-7478D01*
X9062Y-7828D01*
X9079Y-7912D01*
X9079Y-8038D01*
X9102Y-8093D01*
X9144Y-8135D01*
X9161Y-8142D01*
X9161Y-8209D01*
X9109Y-8260D01*
X9109Y-8578D01*
X9117Y-8578D01*
X9117Y-8678D01*
X9109Y-8678D01*
X9109Y-8995D01*
X9119Y-9006D01*
X9082Y-9043D01*
X9059Y-9098D01*
X9059Y-9158D01*
X9059Y-9958D01*
X9082Y-10013D01*
X9124Y-10055D01*
X9179Y-10078D01*
X9239Y-10078D01*
X9639Y-10078D01*
X9694Y-10055D01*
X9736Y-10013D01*
X9759Y-9958D01*
X9759Y-9898D01*
X9759Y-9098D01*
X9736Y-9043D01*
X9694Y-9001D01*
X9657Y-8986D01*
X9657Y-8958D01*
X9962Y-8958D01*
X9962Y-9090D01*
X9959Y-9098D01*
X9959Y-9158D01*
X9959Y-9522D01*
X9957Y-9533D01*
X9957Y-10304D01*
X9944Y-10310D01*
X9901Y-10352D01*
X9878Y-10407D01*
X9878Y-10467D01*
X9878Y-10817D01*
X9901Y-10872D01*
X9943Y-10914D01*
X9998Y-10937D01*
X10058Y-10937D01*
X10194Y-10937D01*
X10303Y-10959D01*
X10413Y-10937D01*
X10608Y-10937D01*
X10663Y-10914D01*
X10706Y-10872D01*
X10728Y-10817D01*
X10728Y-10757D01*
X10728Y-11157D01*
X10706Y-11102D01*
X10664Y-11060D01*
X10608Y-11037D01*
X10549Y-11037D01*
X9999Y-11037D01*
X9944Y-11060D01*
X9901Y-11102D01*
X9878Y-11157D01*
X9878Y-11217D01*
X9878Y-11567D01*
X9901Y-11622D01*
X9943Y-11664D01*
X9998Y-11687D01*
X10058Y-11687D01*
X10277Y-11687D01*
X10355Y-11765D01*
X10355Y-11823D01*
X10339Y-11830D01*
X10296Y-11872D01*
X10273Y-11927D01*
X10273Y-11938D01*
X10167Y-11938D01*
X10161Y-11922D01*
X10119Y-11880D01*
X10063Y-11857D01*
X10004Y-11857D01*
X9644Y-11857D01*
X9589Y-11880D01*
X9546Y-11922D01*
X9523Y-11977D01*
X9523Y-12037D01*
X9523Y-12313D01*
X9483Y-12313D01*
X9483Y-11977D01*
X9463Y-11927D01*
X9477Y-11918D01*
X9552Y-11805D01*
X9579Y-11673D01*
X9552Y-11540D01*
X9477Y-11427D01*
X9365Y-11352D01*
X9232Y-11326D01*
X9009Y-11326D01*
X9009Y-8995D01*
X9009Y-8678D01*
X9009Y-8578D01*
X9009Y-8260D01*
X8946Y-8198D01*
X8829Y-8198D01*
X8738Y-8236D01*
X8667Y-8306D01*
X8629Y-8398D01*
X8629Y-8497D01*
X8629Y-8515D01*
X8691Y-8578D01*
X9009Y-8578D01*
X9009Y-8678D01*
X8691Y-8678D01*
X8629Y-8740D01*
X8629Y-8758D01*
X8629Y-8858D01*
X8637Y-8878D01*
X8621Y-8878D01*
X8559Y-8940D01*
X8559Y-9478D01*
X8896Y-9478D01*
X8959Y-9415D01*
X8959Y-9177D01*
X8959Y-9078D01*
X8949Y-9055D01*
X9009Y-8995D01*
X9009Y-11326D01*
X8959Y-11326D01*
X8959Y-9878D01*
X8959Y-9640D01*
X8896Y-9578D01*
X8559Y-9578D01*
X8559Y-10115D01*
X8621Y-10178D01*
X8758Y-10178D01*
X8850Y-10140D01*
X8921Y-10070D01*
X8959Y-9978D01*
X8959Y-9878D01*
X8959Y-11326D01*
X8562Y-11326D01*
X8459Y-11346D01*
X8430Y-11352D01*
X8317Y-11427D01*
X8290Y-11455D01*
X8312Y-11422D01*
X8329Y-11338D01*
X8329Y-11338D01*
X8329Y-11149D01*
X8387Y-11091D01*
X8437Y-10970D01*
X8437Y-10840D01*
X8387Y-10720D01*
X8295Y-10628D01*
X8175Y-10578D01*
X8045Y-10578D01*
X7983Y-10603D01*
X7983Y-10317D01*
X7983Y-10299D01*
X7921Y-10237D01*
X7603Y-10237D01*
X7603Y-10554D01*
X7666Y-10617D01*
X7783Y-10617D01*
X7875Y-10579D01*
X7945Y-10509D01*
X7983Y-10417D01*
X7983Y-10317D01*
X7983Y-10603D01*
X7925Y-10627D01*
X7833Y-10719D01*
X7783Y-10840D01*
X7783Y-10970D01*
X7832Y-11090D01*
X7891Y-11149D01*
X7891Y-11247D01*
X7128Y-12010D01*
X7081Y-12081D01*
X7064Y-12165D01*
X7064Y-12394D01*
X7006Y-12452D01*
X6956Y-12572D01*
X6956Y-12702D01*
X7005Y-12822D01*
X7097Y-12914D01*
X7201Y-12957D01*
X6818Y-13340D01*
X6752Y-13340D01*
X6752Y-12901D01*
X6768Y-12894D01*
X6811Y-12852D01*
X6833Y-12797D01*
X6833Y-12737D01*
X6833Y-12377D01*
X6811Y-12322D01*
X6769Y-12280D01*
X6713Y-12257D01*
X6654Y-12257D01*
X6410Y-12257D01*
X6629Y-12038D01*
X6629Y-12038D01*
X6665Y-11984D01*
X6683Y-11957D01*
X6683Y-11957D01*
X6702Y-11862D01*
X6702Y-11862D01*
X6702Y-11801D01*
X6718Y-11794D01*
X6761Y-11752D01*
X6773Y-11721D01*
X6799Y-11716D01*
X6879Y-11663D01*
X7225Y-11317D01*
X7413Y-11317D01*
X7468Y-11294D01*
X7511Y-11252D01*
X7533Y-11197D01*
X7533Y-11137D01*
X7533Y-10777D01*
X7511Y-10722D01*
X7469Y-10680D01*
X7413Y-10657D01*
X7354Y-10657D01*
X6994Y-10657D01*
X6939Y-10680D01*
X6896Y-10722D01*
X6873Y-10777D01*
X6873Y-10837D01*
X6873Y-10966D01*
X6677Y-11162D01*
X6663Y-11157D01*
X6604Y-11157D01*
X6533Y-11157D01*
X6533Y-10817D01*
X6533Y-10799D01*
X6471Y-10737D01*
X6153Y-10737D01*
X6153Y-11054D01*
X6216Y-11117D01*
X6333Y-11117D01*
X6425Y-11079D01*
X6495Y-11009D01*
X6533Y-10917D01*
X6533Y-10817D01*
X6533Y-11157D01*
X6244Y-11157D01*
X6189Y-11180D01*
X6146Y-11222D01*
X6123Y-11277D01*
X6123Y-11337D01*
X6123Y-11697D01*
X6146Y-11752D01*
X6179Y-11785D01*
X6001Y-11963D01*
X5969Y-11930D01*
X5952Y-11923D01*
X5952Y-11817D01*
X5963Y-11817D01*
X6018Y-11794D01*
X6061Y-11752D01*
X6083Y-11697D01*
X6083Y-11637D01*
X6083Y-11277D01*
X6061Y-11222D01*
X6053Y-11215D01*
X6019Y-11180D01*
X5963Y-11157D01*
X5904Y-11157D01*
X5602Y-11157D01*
X5602Y-10872D01*
X5658Y-10816D01*
X5711Y-10737D01*
X5736Y-10737D01*
X5673Y-10799D01*
X5673Y-10817D01*
X5673Y-10917D01*
X5712Y-11009D01*
X5782Y-11079D01*
X5874Y-11117D01*
X5991Y-11117D01*
X6053Y-11054D01*
X6053Y-10737D01*
X6046Y-10737D01*
X6046Y-10637D01*
X6053Y-10637D01*
X6053Y-10629D01*
X6153Y-10629D01*
X6153Y-10637D01*
X6471Y-10637D01*
X6533Y-10574D01*
X6533Y-10556D01*
X6533Y-10457D01*
X6524Y-10435D01*
X6539Y-10435D01*
X6546Y-10452D01*
X6588Y-10494D01*
X6643Y-10517D01*
X6703Y-10517D01*
X7063Y-10517D01*
X7118Y-10494D01*
X7145Y-10468D01*
X7162Y-10509D01*
X7232Y-10579D01*
X7324Y-10617D01*
X7441Y-10617D01*
X7503Y-10554D01*
X7503Y-10237D01*
X7496Y-10237D01*
X7496Y-10137D01*
X7503Y-10137D01*
X7503Y-9874D01*
X7553Y-9824D01*
X7553Y-9887D01*
X7603Y-9887D01*
X7603Y-10137D01*
X7921Y-10137D01*
X7983Y-10074D01*
X7983Y-10056D01*
X7983Y-9957D01*
X7950Y-9878D01*
X8020Y-9849D01*
X8059Y-9810D01*
X8059Y-9878D01*
X8059Y-9978D01*
X8097Y-10070D01*
X8168Y-10140D01*
X8259Y-10178D01*
X8396Y-10178D01*
X8459Y-10115D01*
X8459Y-9578D01*
X8451Y-9578D01*
X8451Y-9478D01*
X8459Y-9478D01*
X8459Y-8940D01*
X8396Y-8878D01*
X8259Y-8878D01*
X8168Y-8916D01*
X8097Y-8986D01*
X8059Y-9078D01*
X8059Y-9114D01*
X8020Y-9075D01*
X7928Y-9037D01*
X7908Y-9037D01*
X7963Y-9014D01*
X8006Y-8972D01*
X8028Y-8917D01*
X8028Y-8857D01*
X8028Y-8507D01*
X8006Y-8452D01*
X7964Y-8410D01*
X7908Y-8387D01*
X7852Y-8387D01*
X7852Y-8055D01*
X7845Y-8022D01*
X7845Y-8022D01*
X7845Y-7667D01*
X7822Y-7612D01*
X7780Y-7570D01*
X7739Y-7553D01*
X7739Y-7445D01*
X7787Y-7329D01*
X7787Y-7198D01*
X7738Y-7078D01*
X7646Y-6986D01*
X7525Y-6936D01*
X7395Y-6936D01*
X7275Y-6986D01*
X7183Y-7078D01*
X7133Y-7198D01*
X7133Y-7328D01*
X7183Y-7448D01*
X7275Y-7540D01*
X7301Y-7552D01*
X7301Y-7553D01*
X7260Y-7570D01*
X7218Y-7612D01*
X7195Y-7667D01*
X7195Y-7727D01*
X7195Y-8277D01*
X7218Y-8332D01*
X7260Y-8374D01*
X7295Y-8388D01*
X7244Y-8410D01*
X7203Y-8450D01*
X7164Y-8410D01*
X7108Y-8387D01*
X7052Y-8387D01*
X7052Y-8352D01*
X7072Y-8332D01*
X7095Y-8277D01*
X7095Y-8217D01*
X7095Y-7667D01*
X7072Y-7612D01*
X7030Y-7570D01*
X7019Y-7565D01*
X7019Y-6664D01*
X7000Y-6569D01*
X7000Y-6569D01*
X6982Y-6542D01*
X6946Y-6488D01*
X6946Y-6488D01*
X6547Y-6090D01*
X6549Y-6086D01*
X6549Y-5909D01*
X6481Y-5745D01*
X6356Y-5620D01*
X6192Y-5552D01*
X6015Y-5552D01*
X5852Y-5619D01*
X5726Y-5745D01*
X5712Y-5778D01*
X5712Y-5226D01*
X9087Y-1851D01*
X9162Y-1739D01*
X9189Y-1606D01*
X9162Y-1473D01*
X9136Y-1434D01*
X10786Y-1434D01*
X12231Y-2879D01*
X12231Y-4370D01*
X12231Y-5698D01*
X12258Y-5831D01*
X12333Y-5944D01*
X12655Y-6265D01*
X12655Y-6298D01*
X12655Y-6298D01*
G37*
G54D36*
X12655Y-6298D02*
X12628Y-6287D01*
X12529Y-6287D01*
X12416Y-6287D01*
X12353Y-6349D01*
X12353Y-6662D01*
X12361Y-6662D01*
X12361Y-6762D01*
X12353Y-6762D01*
X12353Y-6770D01*
X12253Y-6770D01*
X12253Y-6762D01*
X12253Y-6662D01*
X12253Y-6349D01*
X12191Y-6287D01*
X12078Y-6287D01*
X11978Y-6287D01*
X11887Y-6325D01*
X11829Y-6383D01*
X11829Y-5903D01*
X11764Y-5746D01*
X11644Y-5627D01*
X11488Y-5562D01*
X11319Y-5562D01*
X11163Y-5626D01*
X11043Y-5746D01*
X10979Y-5902D01*
X10978Y-6071D01*
X11043Y-6227D01*
X11162Y-6347D01*
X11319Y-6412D01*
X11488Y-6412D01*
X11644Y-6347D01*
X11764Y-6228D01*
X11828Y-6072D01*
X11829Y-5903D01*
X11829Y-6383D01*
X11816Y-6395D01*
X11778Y-6487D01*
X11778Y-6599D01*
X11841Y-6662D01*
X12253Y-6662D01*
X12253Y-6762D01*
X11841Y-6762D01*
X11778Y-6824D01*
X11778Y-6936D01*
X11816Y-7028D01*
X11887Y-7099D01*
X11978Y-7137D01*
X11999Y-7137D01*
X11999Y-7137D01*
X11944Y-7160D01*
X11901Y-7202D01*
X11878Y-7257D01*
X11878Y-7317D01*
X11878Y-7667D01*
X11901Y-7722D01*
X11943Y-7764D01*
X11998Y-7787D01*
X12055Y-7787D01*
X12055Y-7887D01*
X11999Y-7887D01*
X11944Y-7910D01*
X11901Y-7952D01*
X11878Y-8007D01*
X11878Y-8067D01*
X11878Y-8417D01*
X11901Y-8472D01*
X11943Y-8514D01*
X11998Y-8537D01*
X12058Y-8537D01*
X12507Y-8537D01*
X12607Y-8637D01*
X12549Y-8637D01*
X11999Y-8637D01*
X11944Y-8660D01*
X11901Y-8702D01*
X11886Y-8738D01*
X11828Y-8738D01*
X11828Y-8682D01*
X11806Y-8627D01*
X11764Y-8585D01*
X11708Y-8562D01*
X11649Y-8562D01*
X11099Y-8562D01*
X11044Y-8585D01*
X11001Y-8627D01*
X10978Y-8682D01*
X10978Y-8742D01*
X10978Y-9292D01*
X11001Y-9347D01*
X11043Y-9389D01*
X11098Y-9412D01*
X11155Y-9412D01*
X11155Y-9487D01*
X11099Y-9487D01*
X11044Y-9510D01*
X11001Y-9552D01*
X10978Y-9607D01*
X10978Y-9667D01*
X10978Y-10017D01*
X11001Y-10072D01*
X11043Y-10114D01*
X11098Y-10137D01*
X11128Y-10137D01*
X11078Y-10137D01*
X10987Y-10175D01*
X10916Y-10245D01*
X10878Y-10337D01*
X10878Y-10449D01*
X10941Y-10512D01*
X11353Y-10512D01*
X11353Y-10504D01*
X11453Y-10504D01*
X11453Y-10512D01*
X11841Y-10512D01*
X11866Y-10512D01*
X12253Y-10512D01*
X12253Y-10504D01*
X12353Y-10504D01*
X12353Y-10512D01*
X12361Y-10512D01*
X12361Y-10612D01*
X12353Y-10612D01*
X12353Y-10620D01*
X12253Y-10620D01*
X12253Y-10612D01*
X11866Y-10612D01*
X11841Y-10612D01*
X11453Y-10612D01*
X11453Y-10924D01*
X11516Y-10987D01*
X11629Y-10987D01*
X11728Y-10987D01*
X11820Y-10949D01*
X11853Y-10915D01*
X11887Y-10949D01*
X11978Y-10987D01*
X12078Y-10987D01*
X12116Y-10987D01*
X12067Y-11036D01*
X12061Y-11037D01*
X11990Y-11085D01*
X11943Y-11156D01*
X11926Y-11240D01*
X11926Y-12933D01*
X11943Y-13016D01*
X11990Y-13087D01*
X12028Y-13125D01*
X12010Y-13143D01*
X11991Y-13095D01*
X11920Y-13025D01*
X11833Y-12989D01*
X11833Y-12716D01*
X11833Y-12257D01*
X11796Y-12165D01*
X11725Y-12095D01*
X11633Y-12057D01*
X11534Y-12057D01*
X11516Y-12057D01*
X11453Y-12119D01*
X11453Y-12437D01*
X11771Y-12437D01*
X11833Y-12374D01*
X11833Y-12257D01*
X11833Y-12716D01*
X11833Y-12599D01*
X11771Y-12537D01*
X11453Y-12537D01*
X11453Y-12854D01*
X11516Y-12917D01*
X11534Y-12917D01*
X11633Y-12917D01*
X11725Y-12879D01*
X11796Y-12808D01*
X11833Y-12716D01*
X11833Y-12989D01*
X11828Y-12987D01*
X11729Y-12987D01*
X11616Y-12987D01*
X11553Y-13049D01*
X11553Y-13362D01*
X11561Y-13362D01*
X11561Y-13462D01*
X11553Y-13462D01*
X11553Y-13470D01*
X11453Y-13470D01*
X11453Y-13462D01*
X11453Y-13362D01*
X11453Y-13049D01*
X11391Y-12987D01*
X11353Y-12987D01*
X11353Y-12854D01*
X11353Y-12537D01*
X11353Y-12437D01*
X11353Y-12119D01*
X11353Y-10924D01*
X11353Y-10612D01*
X10941Y-10612D01*
X10878Y-10674D01*
X10878Y-10786D01*
X10916Y-10878D01*
X10987Y-10949D01*
X11078Y-10987D01*
X11178Y-10987D01*
X11291Y-10987D01*
X11353Y-10924D01*
X11353Y-12119D01*
X11291Y-12057D01*
X11273Y-12057D01*
X11173Y-12057D01*
X11082Y-12095D01*
X11011Y-12165D01*
X10973Y-12257D01*
X10973Y-12374D01*
X11036Y-12437D01*
X11353Y-12437D01*
X11353Y-12537D01*
X11036Y-12537D01*
X10973Y-12599D01*
X10973Y-12716D01*
X11011Y-12808D01*
X11082Y-12879D01*
X11173Y-12917D01*
X11273Y-12917D01*
X11291Y-12917D01*
X11353Y-12854D01*
X11353Y-12987D01*
X11278Y-12987D01*
X11178Y-12987D01*
X11087Y-13025D01*
X11016Y-13095D01*
X10978Y-13187D01*
X10978Y-13299D01*
X11041Y-13362D01*
X11453Y-13362D01*
X11453Y-13462D01*
X11041Y-13462D01*
X10978Y-13524D01*
X10978Y-13538D01*
X10833Y-13538D01*
X10833Y-13427D01*
X10811Y-13372D01*
X10769Y-13330D01*
X10713Y-13307D01*
X10654Y-13307D01*
X10352Y-13307D01*
X10352Y-13150D01*
X10393Y-13167D01*
X10453Y-13167D01*
X10813Y-13167D01*
X10868Y-13144D01*
X10911Y-13102D01*
X10933Y-13047D01*
X10933Y-12987D01*
X10933Y-12627D01*
X10911Y-12572D01*
X10869Y-12530D01*
X10813Y-12507D01*
X10754Y-12507D01*
X10625Y-12507D01*
X10585Y-12467D01*
X10813Y-12467D01*
X10868Y-12444D01*
X10911Y-12402D01*
X10933Y-12347D01*
X10933Y-12287D01*
X10933Y-11927D01*
X10911Y-11872D01*
X10869Y-11830D01*
X10852Y-11823D01*
X10852Y-11662D01*
X10852Y-11662D01*
X10833Y-11567D01*
X10833Y-11567D01*
X10815Y-11540D01*
X10779Y-11486D01*
X10779Y-11486D01*
X10733Y-11440D01*
X10733Y-2663D01*
X10722Y-2454D01*
X10664Y-2314D01*
X10571Y-2290D01*
X10501Y-2361D01*
X10501Y-2219D01*
X10476Y-2126D01*
X10279Y-2057D01*
X10071Y-2068D01*
X9931Y-2126D01*
X9906Y-2219D01*
X10203Y-2516D01*
X10501Y-2219D01*
X10501Y-2361D01*
X10274Y-2587D01*
X10571Y-2884D01*
X10664Y-2860D01*
X10733Y-2663D01*
X10733Y-11440D01*
X10728Y-11436D01*
X10728Y-11157D01*
X10728Y-10757D01*
X10728Y-10407D01*
X10706Y-10352D01*
X10664Y-10310D01*
X10650Y-10304D01*
X10650Y-9979D01*
X10659Y-9958D01*
X10659Y-9898D01*
X10659Y-9098D01*
X10656Y-9090D01*
X10656Y-8754D01*
X10629Y-8621D01*
X10629Y-8621D01*
X10554Y-8509D01*
X10501Y-8455D01*
X10501Y-2955D01*
X10203Y-2658D01*
X10133Y-2728D01*
X10133Y-2587D01*
X9836Y-2290D01*
X9743Y-2314D01*
X9674Y-2511D01*
X9685Y-2720D01*
X9743Y-2860D01*
X9836Y-2884D01*
X10133Y-2587D01*
X10133Y-2728D01*
X9906Y-2955D01*
X9931Y-3047D01*
X10128Y-3117D01*
X10336Y-3105D01*
X10476Y-3047D01*
X10501Y-2955D01*
X10501Y-8455D01*
X10428Y-8383D01*
X10316Y-8307D01*
X10183Y-8281D01*
X10050Y-8307D01*
X10027Y-8323D01*
X10024Y-8321D01*
X9969Y-8298D01*
X9909Y-8298D01*
X9651Y-8298D01*
X9657Y-8267D01*
X9657Y-8142D01*
X9674Y-8135D01*
X9716Y-8093D01*
X9739Y-8038D01*
X9739Y-7978D01*
X9739Y-7912D01*
X9756Y-7828D01*
X9756Y-7478D01*
X10159Y-7478D01*
X10214Y-7455D01*
X10256Y-7413D01*
X10279Y-7358D01*
X10279Y-7298D01*
X10279Y-6498D01*
X10256Y-6443D01*
X10214Y-6401D01*
X10159Y-6378D01*
X10099Y-6378D01*
X9750Y-6378D01*
X9750Y-6280D01*
X9781Y-6250D01*
X9849Y-6086D01*
X9849Y-5909D01*
X9781Y-5745D01*
X9656Y-5620D01*
X9492Y-5552D01*
X9315Y-5552D01*
X9152Y-5619D01*
X9026Y-5745D01*
X8958Y-5908D01*
X8958Y-6085D01*
X9026Y-6249D01*
X9057Y-6280D01*
X9057Y-6378D01*
X8659Y-6378D01*
X8604Y-6401D01*
X8562Y-6443D01*
X8539Y-6498D01*
X8539Y-6558D01*
X8539Y-7358D01*
X8562Y-7413D01*
X8604Y-7455D01*
X8659Y-7478D01*
X8719Y-7478D01*
X9062Y-7478D01*
X9062Y-7828D01*
X9079Y-7912D01*
X9079Y-8038D01*
X9102Y-8093D01*
X9144Y-8135D01*
X9161Y-8142D01*
X9161Y-8209D01*
X9109Y-8260D01*
X9109Y-8578D01*
X9117Y-8578D01*
X9117Y-8678D01*
X9109Y-8678D01*
X9109Y-8995D01*
X9119Y-9006D01*
X9082Y-9043D01*
X9059Y-9098D01*
X9059Y-9158D01*
X9059Y-9958D01*
X9082Y-10013D01*
X9124Y-10055D01*
X9179Y-10078D01*
X9239Y-10078D01*
X9639Y-10078D01*
X9694Y-10055D01*
X9736Y-10013D01*
X9759Y-9958D01*
X9759Y-9898D01*
X9759Y-9098D01*
X9736Y-9043D01*
X9694Y-9001D01*
X9657Y-8986D01*
X9657Y-8958D01*
X9962Y-8958D01*
X9962Y-9090D01*
X9959Y-9098D01*
X9959Y-9158D01*
X9959Y-9522D01*
X9957Y-9533D01*
X9957Y-10304D01*
X9944Y-10310D01*
X9901Y-10352D01*
X9878Y-10407D01*
X9878Y-10467D01*
X9878Y-10817D01*
X9901Y-10872D01*
X9943Y-10914D01*
X9998Y-10937D01*
X10058Y-10937D01*
X10194Y-10937D01*
X10303Y-10959D01*
X10413Y-10937D01*
X10608Y-10937D01*
X10663Y-10914D01*
X10706Y-10872D01*
X10728Y-10817D01*
X10728Y-10757D01*
X10728Y-11157D01*
X10706Y-11102D01*
X10664Y-11060D01*
X10608Y-11037D01*
X10549Y-11037D01*
X9999Y-11037D01*
X9944Y-11060D01*
X9901Y-11102D01*
X9878Y-11157D01*
X9878Y-11217D01*
X9878Y-11567D01*
X9901Y-11622D01*
X9943Y-11664D01*
X9998Y-11687D01*
X10058Y-11687D01*
X10277Y-11687D01*
X10355Y-11765D01*
X10355Y-11823D01*
X10339Y-11830D01*
X10296Y-11872D01*
X10273Y-11927D01*
X10273Y-11938D01*
X10167Y-11938D01*
X10161Y-11922D01*
X10119Y-11880D01*
X10063Y-11857D01*
X10004Y-11857D01*
X9644Y-11857D01*
X9589Y-11880D01*
X9546Y-11922D01*
X9523Y-11977D01*
X9523Y-12037D01*
X9523Y-12313D01*
X9483Y-12313D01*
X9483Y-11977D01*
X9463Y-11927D01*
X9477Y-11918D01*
X9552Y-11805D01*
X9579Y-11673D01*
X9552Y-11540D01*
X9477Y-11427D01*
X9365Y-11352D01*
X9232Y-11326D01*
X9009Y-11326D01*
X9009Y-8995D01*
X9009Y-8678D01*
X9009Y-8578D01*
X9009Y-8260D01*
X8946Y-8198D01*
X8829Y-8198D01*
X8738Y-8236D01*
X8667Y-8306D01*
X8629Y-8398D01*
X8629Y-8497D01*
X8629Y-8515D01*
X8691Y-8578D01*
X9009Y-8578D01*
X9009Y-8678D01*
X8691Y-8678D01*
X8629Y-8740D01*
X8629Y-8758D01*
X8629Y-8858D01*
X8637Y-8878D01*
X8621Y-8878D01*
X8559Y-8940D01*
X8559Y-9478D01*
X8896Y-9478D01*
X8959Y-9415D01*
X8959Y-9177D01*
X8959Y-9078D01*
X8949Y-9055D01*
X9009Y-8995D01*
X9009Y-11326D01*
X8959Y-11326D01*
X8959Y-9878D01*
X8959Y-9640D01*
X8896Y-9578D01*
X8559Y-9578D01*
X8559Y-10115D01*
X8621Y-10178D01*
X8758Y-10178D01*
X8850Y-10140D01*
X8921Y-10070D01*
X8959Y-9978D01*
X8959Y-9878D01*
X8959Y-11326D01*
X8562Y-11326D01*
X8459Y-11346D01*
X8430Y-11352D01*
X8317Y-11427D01*
X8290Y-11455D01*
X8312Y-11422D01*
X8329Y-11338D01*
X8329Y-11338D01*
X8329Y-11149D01*
X8387Y-11091D01*
X8437Y-10970D01*
X8437Y-10840D01*
X8387Y-10720D01*
X8295Y-10628D01*
X8175Y-10578D01*
X8045Y-10578D01*
X7983Y-10603D01*
X7983Y-10317D01*
X7983Y-10299D01*
X7921Y-10237D01*
X7603Y-10237D01*
X7603Y-10554D01*
X7666Y-10617D01*
X7783Y-10617D01*
X7875Y-10579D01*
X7945Y-10509D01*
X7983Y-10417D01*
X7983Y-10317D01*
X7983Y-10603D01*
X7925Y-10627D01*
X7833Y-10719D01*
X7783Y-10840D01*
X7783Y-10970D01*
X7832Y-11090D01*
X7891Y-11149D01*
X7891Y-11247D01*
X7128Y-12010D01*
X7081Y-12081D01*
X7064Y-12165D01*
X7064Y-12394D01*
X7006Y-12452D01*
X6956Y-12572D01*
X6956Y-12702D01*
X7005Y-12822D01*
X7097Y-12914D01*
X7201Y-12957D01*
X6818Y-13340D01*
X6752Y-13340D01*
X6752Y-12901D01*
X6768Y-12894D01*
X6811Y-12852D01*
X6833Y-12797D01*
X6833Y-12737D01*
X6833Y-12377D01*
X6811Y-12322D01*
X6769Y-12280D01*
X6713Y-12257D01*
X6654Y-12257D01*
X6410Y-12257D01*
X6629Y-12038D01*
X6629Y-12038D01*
X6665Y-11984D01*
X6683Y-11957D01*
X6683Y-11957D01*
X6702Y-11862D01*
X6702Y-11862D01*
X6702Y-11801D01*
X6718Y-11794D01*
X6761Y-11752D01*
X6773Y-11721D01*
X6799Y-11716D01*
X6879Y-11663D01*
X7225Y-11317D01*
X7413Y-11317D01*
X7468Y-11294D01*
X7511Y-11252D01*
X7533Y-11197D01*
X7533Y-11137D01*
X7533Y-10777D01*
X7511Y-10722D01*
X7469Y-10680D01*
X7413Y-10657D01*
X7354Y-10657D01*
X6994Y-10657D01*
X6939Y-10680D01*
X6896Y-10722D01*
X6873Y-10777D01*
X6873Y-10837D01*
X6873Y-10966D01*
X6677Y-11162D01*
X6663Y-11157D01*
X6604Y-11157D01*
X6533Y-11157D01*
X6533Y-10817D01*
X6533Y-10799D01*
X6471Y-10737D01*
X6153Y-10737D01*
X6153Y-11054D01*
X6216Y-11117D01*
X6333Y-11117D01*
X6425Y-11079D01*
X6495Y-11009D01*
X6533Y-10917D01*
X6533Y-10817D01*
X6533Y-11157D01*
X6244Y-11157D01*
X6189Y-11180D01*
X6146Y-11222D01*
X6123Y-11277D01*
X6123Y-11337D01*
X6123Y-11697D01*
X6146Y-11752D01*
X6179Y-11785D01*
X6001Y-11963D01*
X5969Y-11930D01*
X5952Y-11923D01*
X5952Y-11817D01*
X5963Y-11817D01*
X6018Y-11794D01*
X6061Y-11752D01*
X6083Y-11697D01*
X6083Y-11637D01*
X6083Y-11277D01*
X6061Y-11222D01*
X6053Y-11215D01*
X6019Y-11180D01*
X5963Y-11157D01*
X5904Y-11157D01*
X5602Y-11157D01*
X5602Y-10872D01*
X5658Y-10816D01*
X5711Y-10737D01*
X5736Y-10737D01*
X5673Y-10799D01*
X5673Y-10817D01*
X5673Y-10917D01*
X5712Y-11009D01*
X5782Y-11079D01*
X5874Y-11117D01*
X5991Y-11117D01*
X6053Y-11054D01*
X6053Y-10737D01*
X6046Y-10737D01*
X6046Y-10637D01*
X6053Y-10637D01*
X6053Y-10629D01*
X6153Y-10629D01*
X6153Y-10637D01*
X6471Y-10637D01*
X6533Y-10574D01*
X6533Y-10556D01*
X6533Y-10457D01*
X6524Y-10435D01*
X6539Y-10435D01*
X6546Y-10452D01*
X6588Y-10494D01*
X6643Y-10517D01*
X6703Y-10517D01*
X7063Y-10517D01*
X7118Y-10494D01*
X7145Y-10468D01*
X7162Y-10509D01*
X7232Y-10579D01*
X7324Y-10617D01*
X7441Y-10617D01*
X7503Y-10554D01*
X7503Y-10237D01*
X7496Y-10237D01*
X7496Y-10137D01*
X7503Y-10137D01*
X7503Y-9874D01*
X7553Y-9824D01*
X7553Y-9887D01*
X7603Y-9887D01*
X7603Y-10137D01*
X7921Y-10137D01*
X7983Y-10074D01*
X7983Y-10056D01*
X7983Y-9957D01*
X7950Y-9878D01*
X8020Y-9849D01*
X8059Y-9810D01*
X8059Y-9878D01*
X8059Y-9978D01*
X8097Y-10070D01*
X8168Y-10140D01*
X8259Y-10178D01*
X8396Y-10178D01*
X8459Y-10115D01*
X8459Y-9578D01*
X8451Y-9578D01*
X8451Y-9478D01*
X8459Y-9478D01*
X8459Y-8940D01*
X8396Y-8878D01*
X8259Y-8878D01*
X8168Y-8916D01*
X8097Y-8986D01*
X8059Y-9078D01*
X8059Y-9114D01*
X8020Y-9075D01*
X7928Y-9037D01*
X7908Y-9037D01*
X7963Y-9014D01*
X8006Y-8972D01*
X8028Y-8917D01*
X8028Y-8857D01*
X8028Y-8507D01*
X8006Y-8452D01*
X7964Y-8410D01*
X7908Y-8387D01*
X7852Y-8387D01*
X7852Y-8055D01*
X7845Y-8022D01*
X7845Y-8022D01*
X7845Y-7667D01*
X7822Y-7612D01*
X7780Y-7570D01*
X7739Y-7553D01*
X7739Y-7445D01*
X7787Y-7329D01*
X7787Y-7198D01*
X7738Y-7078D01*
X7646Y-6986D01*
X7525Y-6936D01*
X7395Y-6936D01*
X7275Y-6986D01*
X7183Y-7078D01*
X7133Y-7198D01*
X7133Y-7328D01*
X7183Y-7448D01*
X7275Y-7540D01*
X7301Y-7552D01*
X7301Y-7553D01*
X7260Y-7570D01*
X7218Y-7612D01*
X7195Y-7667D01*
X7195Y-7727D01*
X7195Y-8277D01*
X7218Y-8332D01*
X7260Y-8374D01*
X7295Y-8388D01*
X7244Y-8410D01*
X7203Y-8450D01*
X7164Y-8410D01*
X7108Y-8387D01*
X7052Y-8387D01*
X7052Y-8352D01*
X7072Y-8332D01*
X7095Y-8277D01*
X7095Y-8217D01*
X7095Y-7667D01*
X7072Y-7612D01*
X7030Y-7570D01*
X7019Y-7565D01*
X7019Y-6664D01*
X7000Y-6569D01*
X7000Y-6569D01*
X6982Y-6542D01*
X6946Y-6488D01*
X6946Y-6488D01*
X6547Y-6090D01*
X6549Y-6086D01*
X6549Y-5909D01*
X6481Y-5745D01*
X6356Y-5620D01*
X6192Y-5552D01*
X6015Y-5552D01*
X5852Y-5619D01*
X5726Y-5745D01*
X5712Y-5778D01*
X5712Y-5226D01*
X9087Y-1851D01*
X9162Y-1739D01*
X9189Y-1606D01*
X9162Y-1473D01*
X9136Y-1434D01*
X10786Y-1434D01*
X12231Y-2879D01*
X12231Y-4370D01*
X12231Y-5698D01*
X12258Y-5831D01*
X12333Y-5944D01*
X12655Y-6265D01*
X12655Y-6298D01*
G54D10*
G36*
X14311Y-16182D02*
X14224Y-16218D01*
X14132Y-16310D01*
X14082Y-16430D01*
X14082Y-16513D01*
X13854Y-16741D01*
X13858Y-16731D01*
X13848Y-16492D01*
X13776Y-16319D01*
X13676Y-16285D01*
X13605Y-16356D01*
X13605Y-16215D01*
X13571Y-16114D01*
X13347Y-16032D01*
X13109Y-16043D01*
X12936Y-16114D01*
X12902Y-16215D01*
X13253Y-16566D01*
X13605Y-16215D01*
X13605Y-16356D01*
X13324Y-16637D01*
X13330Y-16642D01*
X13259Y-16713D01*
X13253Y-16708D01*
X13183Y-16778D01*
X13183Y-16637D01*
X12831Y-16285D01*
X12731Y-16319D01*
X12649Y-16543D01*
X12659Y-16782D01*
X12731Y-16955D01*
X12831Y-16988D01*
X13183Y-16637D01*
X13183Y-16778D01*
X12902Y-17059D01*
X12936Y-17160D01*
X13160Y-17241D01*
X13362Y-17233D01*
X12084Y-18511D01*
X12080Y-18511D01*
X11960Y-18561D01*
X11868Y-18653D01*
X11818Y-18773D01*
X11818Y-18903D01*
X11868Y-19023D01*
X11960Y-19115D01*
X12080Y-19165D01*
X12210Y-19165D01*
X12330Y-19116D01*
X12422Y-19024D01*
X12472Y-18903D01*
X12472Y-18773D01*
X12463Y-18751D01*
X12899Y-18315D01*
X12881Y-18405D01*
X12881Y-19094D01*
X12903Y-19204D01*
X12965Y-19297D01*
X13896Y-20228D01*
X13503Y-20228D01*
X13503Y-20902D01*
X13555Y-20902D01*
X13549Y-20905D01*
X13422Y-21032D01*
X13354Y-21197D01*
X13353Y-21376D01*
X13422Y-21541D01*
X13429Y-21549D01*
X13253Y-21549D01*
X13253Y-20957D01*
X13231Y-20902D01*
X13189Y-20860D01*
X13133Y-20837D01*
X13105Y-20837D01*
X13105Y-20228D01*
X12484Y-20228D01*
X12484Y-20837D01*
X12474Y-20837D01*
X12419Y-20860D01*
X12376Y-20902D01*
X12353Y-20957D01*
X12353Y-21017D01*
X12353Y-21549D01*
X12253Y-21549D01*
X12253Y-20957D01*
X12231Y-20902D01*
X12189Y-20860D01*
X12133Y-20837D01*
X12103Y-20837D01*
X12103Y-19515D01*
X11753Y-19515D01*
X11753Y-16957D01*
X11753Y-16257D01*
X11731Y-16202D01*
X11689Y-16160D01*
X11633Y-16137D01*
X11574Y-16137D01*
X10874Y-16137D01*
X10819Y-16160D01*
X10776Y-16202D01*
X10753Y-16257D01*
X10753Y-16317D01*
X10753Y-16458D01*
X10720Y-16425D01*
X10628Y-16387D01*
X10529Y-16387D01*
X10416Y-16387D01*
X10353Y-16449D01*
X10353Y-16762D01*
X10361Y-16762D01*
X10361Y-16862D01*
X10353Y-16862D01*
X10353Y-16870D01*
X10253Y-16870D01*
X10253Y-16862D01*
X10246Y-16862D01*
X10246Y-16762D01*
X10253Y-16762D01*
X10253Y-16449D01*
X10191Y-16387D01*
X10078Y-16387D01*
X9978Y-16387D01*
X9887Y-16425D01*
X9816Y-16495D01*
X9778Y-16587D01*
X9778Y-16699D01*
X9841Y-16762D01*
X9788Y-16762D01*
X9775Y-16749D01*
X9776Y-16667D01*
X9726Y-16547D01*
X9634Y-16455D01*
X9514Y-16405D01*
X9384Y-16405D01*
X9263Y-16454D01*
X9171Y-16546D01*
X9121Y-16666D01*
X9121Y-16797D01*
X9171Y-16917D01*
X9263Y-17009D01*
X9383Y-17059D01*
X9466Y-17059D01*
X9878Y-17471D01*
X9878Y-17767D01*
X9901Y-17822D01*
X9943Y-17864D01*
X9998Y-17887D01*
X9999Y-17887D01*
X9944Y-17910D01*
X9910Y-17943D01*
X9891Y-17895D01*
X9820Y-17825D01*
X9728Y-17787D01*
X9629Y-17787D01*
X9516Y-17787D01*
X9453Y-17849D01*
X9453Y-18162D01*
X9461Y-18162D01*
X9461Y-18262D01*
X9453Y-18262D01*
X9453Y-18270D01*
X9353Y-18270D01*
X9353Y-18262D01*
X9353Y-18162D01*
X9353Y-17849D01*
X9291Y-17787D01*
X9178Y-17787D01*
X9078Y-17787D01*
X8987Y-17825D01*
X8916Y-17895D01*
X8878Y-17987D01*
X8878Y-18099D01*
X8941Y-18162D01*
X9353Y-18162D01*
X9353Y-18262D01*
X8941Y-18262D01*
X8878Y-18324D01*
X8878Y-18436D01*
X8916Y-18528D01*
X8987Y-18599D01*
X9078Y-18637D01*
X9099Y-18637D01*
X9099Y-18637D01*
X9044Y-18660D01*
X9001Y-18702D01*
X8978Y-18757D01*
X8978Y-18817D01*
X8978Y-19167D01*
X9001Y-19222D01*
X9043Y-19264D01*
X9098Y-19287D01*
X9155Y-19287D01*
X9155Y-19398D01*
X9152Y-19399D01*
X9026Y-19524D01*
X8958Y-19688D01*
X8958Y-19865D01*
X9026Y-20029D01*
X9151Y-20154D01*
X9314Y-20222D01*
X9492Y-20222D01*
X9655Y-20154D01*
X9781Y-20029D01*
X9849Y-19866D01*
X9849Y-19688D01*
X9781Y-19525D01*
X9656Y-19399D01*
X9652Y-19398D01*
X9652Y-19287D01*
X9708Y-19287D01*
X9763Y-19264D01*
X9806Y-19222D01*
X9810Y-19210D01*
X9896Y-19210D01*
X9901Y-19222D01*
X9943Y-19264D01*
X9998Y-19287D01*
X10058Y-19287D01*
X10608Y-19287D01*
X10663Y-19264D01*
X10706Y-19222D01*
X10728Y-19167D01*
X10728Y-19107D01*
X10728Y-18757D01*
X10706Y-18702D01*
X10664Y-18660D01*
X10608Y-18637D01*
X10549Y-18637D01*
X9999Y-18637D01*
X9944Y-18660D01*
X9901Y-18702D01*
X9897Y-18713D01*
X9810Y-18713D01*
X9806Y-18702D01*
X9764Y-18660D01*
X9708Y-18637D01*
X9678Y-18637D01*
X9728Y-18637D01*
X9820Y-18599D01*
X9891Y-18528D01*
X9910Y-18481D01*
X9943Y-18514D01*
X9998Y-18537D01*
X10058Y-18537D01*
X10608Y-18537D01*
X10663Y-18514D01*
X10706Y-18472D01*
X10728Y-18417D01*
X10728Y-18357D01*
X10728Y-18007D01*
X10706Y-17952D01*
X10664Y-17910D01*
X10608Y-17887D01*
X10608Y-17887D01*
X10663Y-17864D01*
X10706Y-17822D01*
X10728Y-17767D01*
X10728Y-17707D01*
X10728Y-17357D01*
X10706Y-17302D01*
X10664Y-17260D01*
X10608Y-17237D01*
X10578Y-17237D01*
X10628Y-17237D01*
X10720Y-17199D01*
X10791Y-17128D01*
X10803Y-17098D01*
X10818Y-17114D01*
X10873Y-17137D01*
X10933Y-17137D01*
X11633Y-17137D01*
X11688Y-17114D01*
X11731Y-17072D01*
X11753Y-17017D01*
X11753Y-16957D01*
X11753Y-19515D01*
X11429Y-19515D01*
X11429Y-20839D01*
X11469Y-20839D01*
X11419Y-20860D01*
X11414Y-20864D01*
X11414Y-19991D01*
X10740Y-19991D01*
X10740Y-20739D01*
X10667Y-20743D01*
X10516Y-20806D01*
X10488Y-20901D01*
X10803Y-21216D01*
X11119Y-20901D01*
X11111Y-20874D01*
X11404Y-20874D01*
X11376Y-20902D01*
X11353Y-20957D01*
X11353Y-21017D01*
X11353Y-21273D01*
X11347Y-21150D01*
X11285Y-20999D01*
X11189Y-20972D01*
X10874Y-21287D01*
X10880Y-21292D01*
X10809Y-21363D01*
X10803Y-21358D01*
X10798Y-21363D01*
X10727Y-21292D01*
X10733Y-21287D01*
X10418Y-20972D01*
X10322Y-20999D01*
X10249Y-21205D01*
X10260Y-21424D01*
X10312Y-21549D01*
X8242Y-21549D01*
X8375Y-21494D01*
X8510Y-21359D01*
X8583Y-21183D01*
X8584Y-20992D01*
X8511Y-20815D01*
X8376Y-20680D01*
X8228Y-20619D01*
X8228Y-19632D01*
X8228Y-19082D01*
X8206Y-19027D01*
X8164Y-18985D01*
X8108Y-18962D01*
X8101Y-18962D01*
X8101Y-16755D01*
X7803Y-16458D01*
X7506Y-16755D01*
X7531Y-16847D01*
X7728Y-16917D01*
X7936Y-16905D01*
X8076Y-16847D01*
X8101Y-16755D01*
X8101Y-18962D01*
X8049Y-18962D01*
X7499Y-18962D01*
X7444Y-18985D01*
X7401Y-19027D01*
X7378Y-19082D01*
X7378Y-19142D01*
X7378Y-19692D01*
X7401Y-19747D01*
X7443Y-19789D01*
X7498Y-19812D01*
X7558Y-19812D01*
X8108Y-19812D01*
X8163Y-19789D01*
X8206Y-19747D01*
X8228Y-19692D01*
X8228Y-19632D01*
X8228Y-20619D01*
X8199Y-20607D01*
X8008Y-20607D01*
X7832Y-20680D01*
X7697Y-20815D01*
X7660Y-20903D01*
X7610Y-20781D01*
X7511Y-20750D01*
X7440Y-20821D01*
X7440Y-20679D01*
X7409Y-20581D01*
X7192Y-20502D01*
X6962Y-20513D01*
X6798Y-20581D01*
X6767Y-20679D01*
X7103Y-21016D01*
X7440Y-20679D01*
X7440Y-20821D01*
X7174Y-21087D01*
X7511Y-21424D01*
X7610Y-21393D01*
X7657Y-21263D01*
X7696Y-21358D01*
X7831Y-21494D01*
X7965Y-21549D01*
X7423Y-21549D01*
X7440Y-21495D01*
X7103Y-21158D01*
X7033Y-21228D01*
X7033Y-21087D01*
X6696Y-20750D01*
X6597Y-20781D01*
X6519Y-20998D01*
X6529Y-21228D01*
X6597Y-21393D01*
X6696Y-21424D01*
X7033Y-21087D01*
X7033Y-21228D01*
X6767Y-21495D01*
X6784Y-21549D01*
X4742Y-21549D01*
X4875Y-21494D01*
X5010Y-21359D01*
X5083Y-21183D01*
X5084Y-20992D01*
X5011Y-20815D01*
X4876Y-20680D01*
X4699Y-20607D01*
X4508Y-20607D01*
X4332Y-20680D01*
X4197Y-20815D01*
X4160Y-20903D01*
X4110Y-20781D01*
X4011Y-20750D01*
X3674Y-21087D01*
X4011Y-21424D01*
X4110Y-21393D01*
X4157Y-21263D01*
X4196Y-21358D01*
X4331Y-21494D01*
X4465Y-21549D01*
X3923Y-21549D01*
X3940Y-21495D01*
X3603Y-21158D01*
X3598Y-21163D01*
X3527Y-21092D01*
X3533Y-21087D01*
X3527Y-21081D01*
X3598Y-21011D01*
X3603Y-21016D01*
X3940Y-20679D01*
X3909Y-20581D01*
X3692Y-20502D01*
X3594Y-20507D01*
X3594Y-19409D01*
X3572Y-19299D01*
X3572Y-19299D01*
X3510Y-19205D01*
X2555Y-18250D01*
X1793Y-17489D01*
X1793Y-15140D01*
X1807Y-15154D01*
X1852Y-15109D01*
X1886Y-15210D01*
X2110Y-15291D01*
X2348Y-15281D01*
X2521Y-15210D01*
X2555Y-15109D01*
X2555Y-15109D01*
X2556Y-15110D01*
X2556Y-16535D01*
X2571Y-16611D01*
X2615Y-16676D01*
X2763Y-16824D01*
X2763Y-16934D01*
X2813Y-17055D01*
X2904Y-17147D01*
X3025Y-17197D01*
X3155Y-17197D01*
X3275Y-17147D01*
X3367Y-17055D01*
X3417Y-16935D01*
X3417Y-16805D01*
X3368Y-16684D01*
X3276Y-16592D01*
X3155Y-16542D01*
X3045Y-16542D01*
X2955Y-16452D01*
X2955Y-15130D01*
X3023Y-15198D01*
X3143Y-15248D01*
X3273Y-15248D01*
X3393Y-15198D01*
X3485Y-15106D01*
X3535Y-14986D01*
X3535Y-14856D01*
X3486Y-14736D01*
X3407Y-14657D01*
X3407Y-13802D01*
X3940Y-13270D01*
X3983Y-13206D01*
X3998Y-13129D01*
X3998Y-12326D01*
X4555Y-11769D01*
X4558Y-11773D01*
X4678Y-11823D01*
X4694Y-11823D01*
X4439Y-12077D01*
X4364Y-12190D01*
X4338Y-12322D01*
X4338Y-13469D01*
X3958Y-13849D01*
X3883Y-13961D01*
X3857Y-14094D01*
X3857Y-14187D01*
X3824Y-14187D01*
X3769Y-14210D01*
X3726Y-14252D01*
X3703Y-14307D01*
X3703Y-14367D01*
X3703Y-15067D01*
X3726Y-15122D01*
X3768Y-15164D01*
X3823Y-15187D01*
X3883Y-15187D01*
X4583Y-15187D01*
X4638Y-15164D01*
X4681Y-15122D01*
X4703Y-15067D01*
X4703Y-15007D01*
X4703Y-14307D01*
X4681Y-14252D01*
X4639Y-14210D01*
X4596Y-14192D01*
X4880Y-13908D01*
X4880Y-14095D01*
X4844Y-14110D01*
X4801Y-14152D01*
X4778Y-14207D01*
X4778Y-14267D01*
X4778Y-14617D01*
X4801Y-14672D01*
X4843Y-14714D01*
X4898Y-14737D01*
X4958Y-14737D01*
X5508Y-14737D01*
X5563Y-14714D01*
X5606Y-14672D01*
X5628Y-14617D01*
X5628Y-14557D01*
X5628Y-14207D01*
X5606Y-14152D01*
X5566Y-14112D01*
X5733Y-14112D01*
X5788Y-14089D01*
X5831Y-14047D01*
X5853Y-13992D01*
X5853Y-13932D01*
X5853Y-13382D01*
X5831Y-13327D01*
X5789Y-13285D01*
X5777Y-13280D01*
X5777Y-13267D01*
X5913Y-13267D01*
X5968Y-13244D01*
X6011Y-13202D01*
X6033Y-13147D01*
X6033Y-13087D01*
X6033Y-12958D01*
X6180Y-12812D01*
X6196Y-12852D01*
X6238Y-12894D01*
X6255Y-12901D01*
X6255Y-13262D01*
X6074Y-13262D01*
X6019Y-13285D01*
X5976Y-13327D01*
X5953Y-13382D01*
X5953Y-13442D01*
X5953Y-13577D01*
X5932Y-13687D01*
X5953Y-13797D01*
X5953Y-13992D01*
X5976Y-14047D01*
X6018Y-14089D01*
X6073Y-14112D01*
X6133Y-14112D01*
X6352Y-14112D01*
X6703Y-14463D01*
X6703Y-14463D01*
X6703Y-14463D01*
X6703Y-14592D01*
X6726Y-14647D01*
X6766Y-14687D01*
X6726Y-14727D01*
X6703Y-14782D01*
X6703Y-14842D01*
X6703Y-14948D01*
X6681Y-14981D01*
X6655Y-15113D01*
X6655Y-15742D01*
X6652Y-15750D01*
X6652Y-15810D01*
X6652Y-16610D01*
X6655Y-16617D01*
X6655Y-16633D01*
X6459Y-16829D01*
X6350Y-16829D01*
X6350Y-16722D01*
X6387Y-16707D01*
X6429Y-16665D01*
X6452Y-16610D01*
X6452Y-16550D01*
X6452Y-15750D01*
X6429Y-15695D01*
X6387Y-15653D01*
X6332Y-15630D01*
X6272Y-15630D01*
X5872Y-15630D01*
X5817Y-15653D01*
X5775Y-15695D01*
X5752Y-15750D01*
X5752Y-15810D01*
X5752Y-16610D01*
X5775Y-16665D01*
X5817Y-16707D01*
X5853Y-16722D01*
X5853Y-16829D01*
X5744Y-16829D01*
X5549Y-16633D01*
X5549Y-16617D01*
X5552Y-16610D01*
X5552Y-16550D01*
X5552Y-15750D01*
X5549Y-15742D01*
X5549Y-15470D01*
X5563Y-15464D01*
X5606Y-15422D01*
X5628Y-15367D01*
X5628Y-15307D01*
X5628Y-14957D01*
X5606Y-14902D01*
X5564Y-14860D01*
X5508Y-14837D01*
X5449Y-14837D01*
X5313Y-14837D01*
X5203Y-14815D01*
X5094Y-14837D01*
X4899Y-14837D01*
X4844Y-14860D01*
X4801Y-14902D01*
X4778Y-14957D01*
X4778Y-15017D01*
X4778Y-15367D01*
X4801Y-15422D01*
X4843Y-15464D01*
X4855Y-15469D01*
X4855Y-15742D01*
X4852Y-15750D01*
X4852Y-15810D01*
X4852Y-16610D01*
X4855Y-16617D01*
X4855Y-16777D01*
X4881Y-16909D01*
X4957Y-17022D01*
X5338Y-17404D01*
X5451Y-17479D01*
X5584Y-17505D01*
X5668Y-17489D01*
X5860Y-17489D01*
X5853Y-17519D01*
X5853Y-17645D01*
X5837Y-17651D01*
X5795Y-17693D01*
X5772Y-17749D01*
X5772Y-17808D01*
X5772Y-17874D01*
X5755Y-17959D01*
X5755Y-18230D01*
X5352Y-18230D01*
X5297Y-18253D01*
X5255Y-18295D01*
X5232Y-18350D01*
X5232Y-18410D01*
X5232Y-19210D01*
X5255Y-19265D01*
X5297Y-19307D01*
X5352Y-19330D01*
X5412Y-19330D01*
X5757Y-19330D01*
X5757Y-19494D01*
X5726Y-19524D01*
X5658Y-19688D01*
X5658Y-19865D01*
X5726Y-20029D01*
X5851Y-20154D01*
X6014Y-20222D01*
X6192Y-20222D01*
X6355Y-20154D01*
X6481Y-20029D01*
X6549Y-19866D01*
X6549Y-19688D01*
X6481Y-19525D01*
X6450Y-19494D01*
X6450Y-19330D01*
X6852Y-19330D01*
X6907Y-19307D01*
X6949Y-19265D01*
X6972Y-19210D01*
X6972Y-19150D01*
X6972Y-18350D01*
X6949Y-18295D01*
X6907Y-18253D01*
X6852Y-18230D01*
X6792Y-18230D01*
X6449Y-18230D01*
X6449Y-17959D01*
X6432Y-17874D01*
X6432Y-17749D01*
X6409Y-17694D01*
X6367Y-17651D01*
X6350Y-17645D01*
X6350Y-17519D01*
X6344Y-17489D01*
X6535Y-17489D01*
X6620Y-17505D01*
X6753Y-17479D01*
X6865Y-17404D01*
X7247Y-17022D01*
X7322Y-16909D01*
X7349Y-16777D01*
X7349Y-16661D01*
X7436Y-16684D01*
X7733Y-16387D01*
X7436Y-16090D01*
X7352Y-16112D01*
X7352Y-15750D01*
X7349Y-15742D01*
X7349Y-15403D01*
X7353Y-15392D01*
X7353Y-15362D01*
X7353Y-15412D01*
X7392Y-15504D01*
X7462Y-15574D01*
X7554Y-15612D01*
X7666Y-15612D01*
X7728Y-15549D01*
X7728Y-15137D01*
X7721Y-15137D01*
X7721Y-15037D01*
X7728Y-15037D01*
X7728Y-14749D01*
X7728Y-14624D01*
X7728Y-14337D01*
X7721Y-14337D01*
X7721Y-14237D01*
X7728Y-14237D01*
X7728Y-13824D01*
X7666Y-13762D01*
X7554Y-13762D01*
X7462Y-13800D01*
X7392Y-13870D01*
X7353Y-13962D01*
X7353Y-13982D01*
X7331Y-13927D01*
X7289Y-13885D01*
X7264Y-13875D01*
X8198Y-12942D01*
X8273Y-12829D01*
X8299Y-12696D01*
X8299Y-12427D01*
X8706Y-12020D01*
X8823Y-12020D01*
X8823Y-12037D01*
X8823Y-12397D01*
X8846Y-12452D01*
X8888Y-12494D01*
X8943Y-12517D01*
X8947Y-12517D01*
X8978Y-12563D01*
X9153Y-12738D01*
X9153Y-12738D01*
X9182Y-12757D01*
X9173Y-12777D01*
X9173Y-12837D01*
X9173Y-13197D01*
X9196Y-13252D01*
X9238Y-13294D01*
X9255Y-13301D01*
X9255Y-13323D01*
X9140Y-13275D01*
X9010Y-13275D01*
X8889Y-13324D01*
X8797Y-13416D01*
X8747Y-13536D01*
X8747Y-13667D01*
X8797Y-13787D01*
X8889Y-13879D01*
X9009Y-13929D01*
X9139Y-13929D01*
X9259Y-13879D01*
X9271Y-13868D01*
X9274Y-13882D01*
X9328Y-13963D01*
X9373Y-14008D01*
X9373Y-14197D01*
X9396Y-14252D01*
X9438Y-14294D01*
X9493Y-14317D01*
X9553Y-14317D01*
X9913Y-14317D01*
X9927Y-14311D01*
X9928Y-14313D01*
X10128Y-14513D01*
X10128Y-14513D01*
X10173Y-14543D01*
X10173Y-14547D01*
X10196Y-14602D01*
X10238Y-14644D01*
X10293Y-14667D01*
X10353Y-14667D01*
X10713Y-14667D01*
X10768Y-14644D01*
X10811Y-14602D01*
X10817Y-14585D01*
X11328Y-14585D01*
X11328Y-14585D01*
X11424Y-14566D01*
X11504Y-14513D01*
X11530Y-14487D01*
X11808Y-14487D01*
X11863Y-14464D01*
X11906Y-14422D01*
X11928Y-14367D01*
X11928Y-14307D01*
X11928Y-14038D01*
X11978Y-14088D01*
X11978Y-14367D01*
X11979Y-14368D01*
X11888Y-14460D01*
X11838Y-14580D01*
X11838Y-14710D01*
X11861Y-14766D01*
X11777Y-14731D01*
X11647Y-14731D01*
X11527Y-14781D01*
X11435Y-14873D01*
X11385Y-14993D01*
X11385Y-15123D01*
X11418Y-15204D01*
X9961Y-15204D01*
X8958Y-14201D01*
X8919Y-14106D01*
X8827Y-14014D01*
X8707Y-13964D01*
X8589Y-13964D01*
X8614Y-13903D01*
X8614Y-13773D01*
X8564Y-13653D01*
X8472Y-13561D01*
X8352Y-13511D01*
X8222Y-13511D01*
X8102Y-13561D01*
X8010Y-13653D01*
X7964Y-13762D01*
X7891Y-13762D01*
X7828Y-13824D01*
X7828Y-14237D01*
X7836Y-14237D01*
X7836Y-14337D01*
X7828Y-14337D01*
X7828Y-14624D01*
X7828Y-14749D01*
X7828Y-15037D01*
X7836Y-15037D01*
X7836Y-15137D01*
X7828Y-15137D01*
X7828Y-15549D01*
X7891Y-15612D01*
X8003Y-15612D01*
X8068Y-15585D01*
X8068Y-15923D01*
X7879Y-15857D01*
X7671Y-15868D01*
X7531Y-15926D01*
X7506Y-16019D01*
X7803Y-16316D01*
X7809Y-16311D01*
X7880Y-16381D01*
X7874Y-16387D01*
X8171Y-16684D01*
X8264Y-16660D01*
X8289Y-16588D01*
X8379Y-16626D01*
X8509Y-16626D01*
X8629Y-16576D01*
X8722Y-16484D01*
X8771Y-16364D01*
X8772Y-16234D01*
X8722Y-16114D01*
X8630Y-16022D01*
X8510Y-15972D01*
X8506Y-15972D01*
X8506Y-15452D01*
X8506Y-14589D01*
X8551Y-14608D01*
X9639Y-15695D01*
X9732Y-15758D01*
X9842Y-15779D01*
X12282Y-15779D01*
X12381Y-15799D01*
X12992Y-15799D01*
X13940Y-15799D01*
X13940Y-15799D01*
X13965Y-15837D01*
X14311Y-16182D01*
X14311Y-16182D01*
G37*
G54D36*
X14311Y-16182D02*
X14224Y-16218D01*
X14132Y-16310D01*
X14082Y-16430D01*
X14082Y-16513D01*
X13854Y-16741D01*
X13858Y-16731D01*
X13848Y-16492D01*
X13776Y-16319D01*
X13676Y-16285D01*
X13605Y-16356D01*
X13605Y-16215D01*
X13571Y-16114D01*
X13347Y-16032D01*
X13109Y-16043D01*
X12936Y-16114D01*
X12902Y-16215D01*
X13253Y-16566D01*
X13605Y-16215D01*
X13605Y-16356D01*
X13324Y-16637D01*
X13330Y-16642D01*
X13259Y-16713D01*
X13253Y-16708D01*
X13183Y-16778D01*
X13183Y-16637D01*
X12831Y-16285D01*
X12731Y-16319D01*
X12649Y-16543D01*
X12659Y-16782D01*
X12731Y-16955D01*
X12831Y-16988D01*
X13183Y-16637D01*
X13183Y-16778D01*
X12902Y-17059D01*
X12936Y-17160D01*
X13160Y-17241D01*
X13362Y-17233D01*
X12084Y-18511D01*
X12080Y-18511D01*
X11960Y-18561D01*
X11868Y-18653D01*
X11818Y-18773D01*
X11818Y-18903D01*
X11868Y-19023D01*
X11960Y-19115D01*
X12080Y-19165D01*
X12210Y-19165D01*
X12330Y-19116D01*
X12422Y-19024D01*
X12472Y-18903D01*
X12472Y-18773D01*
X12463Y-18751D01*
X12899Y-18315D01*
X12881Y-18405D01*
X12881Y-19094D01*
X12903Y-19204D01*
X12965Y-19297D01*
X13896Y-20228D01*
X13503Y-20228D01*
X13503Y-20902D01*
X13555Y-20902D01*
X13549Y-20905D01*
X13422Y-21032D01*
X13354Y-21197D01*
X13353Y-21376D01*
X13422Y-21541D01*
X13429Y-21549D01*
X13253Y-21549D01*
X13253Y-20957D01*
X13231Y-20902D01*
X13189Y-20860D01*
X13133Y-20837D01*
X13105Y-20837D01*
X13105Y-20228D01*
X12484Y-20228D01*
X12484Y-20837D01*
X12474Y-20837D01*
X12419Y-20860D01*
X12376Y-20902D01*
X12353Y-20957D01*
X12353Y-21017D01*
X12353Y-21549D01*
X12253Y-21549D01*
X12253Y-20957D01*
X12231Y-20902D01*
X12189Y-20860D01*
X12133Y-20837D01*
X12103Y-20837D01*
X12103Y-19515D01*
X11753Y-19515D01*
X11753Y-16957D01*
X11753Y-16257D01*
X11731Y-16202D01*
X11689Y-16160D01*
X11633Y-16137D01*
X11574Y-16137D01*
X10874Y-16137D01*
X10819Y-16160D01*
X10776Y-16202D01*
X10753Y-16257D01*
X10753Y-16317D01*
X10753Y-16458D01*
X10720Y-16425D01*
X10628Y-16387D01*
X10529Y-16387D01*
X10416Y-16387D01*
X10353Y-16449D01*
X10353Y-16762D01*
X10361Y-16762D01*
X10361Y-16862D01*
X10353Y-16862D01*
X10353Y-16870D01*
X10253Y-16870D01*
X10253Y-16862D01*
X10246Y-16862D01*
X10246Y-16762D01*
X10253Y-16762D01*
X10253Y-16449D01*
X10191Y-16387D01*
X10078Y-16387D01*
X9978Y-16387D01*
X9887Y-16425D01*
X9816Y-16495D01*
X9778Y-16587D01*
X9778Y-16699D01*
X9841Y-16762D01*
X9788Y-16762D01*
X9775Y-16749D01*
X9776Y-16667D01*
X9726Y-16547D01*
X9634Y-16455D01*
X9514Y-16405D01*
X9384Y-16405D01*
X9263Y-16454D01*
X9171Y-16546D01*
X9121Y-16666D01*
X9121Y-16797D01*
X9171Y-16917D01*
X9263Y-17009D01*
X9383Y-17059D01*
X9466Y-17059D01*
X9878Y-17471D01*
X9878Y-17767D01*
X9901Y-17822D01*
X9943Y-17864D01*
X9998Y-17887D01*
X9999Y-17887D01*
X9944Y-17910D01*
X9910Y-17943D01*
X9891Y-17895D01*
X9820Y-17825D01*
X9728Y-17787D01*
X9629Y-17787D01*
X9516Y-17787D01*
X9453Y-17849D01*
X9453Y-18162D01*
X9461Y-18162D01*
X9461Y-18262D01*
X9453Y-18262D01*
X9453Y-18270D01*
X9353Y-18270D01*
X9353Y-18262D01*
X9353Y-18162D01*
X9353Y-17849D01*
X9291Y-17787D01*
X9178Y-17787D01*
X9078Y-17787D01*
X8987Y-17825D01*
X8916Y-17895D01*
X8878Y-17987D01*
X8878Y-18099D01*
X8941Y-18162D01*
X9353Y-18162D01*
X9353Y-18262D01*
X8941Y-18262D01*
X8878Y-18324D01*
X8878Y-18436D01*
X8916Y-18528D01*
X8987Y-18599D01*
X9078Y-18637D01*
X9099Y-18637D01*
X9099Y-18637D01*
X9044Y-18660D01*
X9001Y-18702D01*
X8978Y-18757D01*
X8978Y-18817D01*
X8978Y-19167D01*
X9001Y-19222D01*
X9043Y-19264D01*
X9098Y-19287D01*
X9155Y-19287D01*
X9155Y-19398D01*
X9152Y-19399D01*
X9026Y-19524D01*
X8958Y-19688D01*
X8958Y-19865D01*
X9026Y-20029D01*
X9151Y-20154D01*
X9314Y-20222D01*
X9492Y-20222D01*
X9655Y-20154D01*
X9781Y-20029D01*
X9849Y-19866D01*
X9849Y-19688D01*
X9781Y-19525D01*
X9656Y-19399D01*
X9652Y-19398D01*
X9652Y-19287D01*
X9708Y-19287D01*
X9763Y-19264D01*
X9806Y-19222D01*
X9810Y-19210D01*
X9896Y-19210D01*
X9901Y-19222D01*
X9943Y-19264D01*
X9998Y-19287D01*
X10058Y-19287D01*
X10608Y-19287D01*
X10663Y-19264D01*
X10706Y-19222D01*
X10728Y-19167D01*
X10728Y-19107D01*
X10728Y-18757D01*
X10706Y-18702D01*
X10664Y-18660D01*
X10608Y-18637D01*
X10549Y-18637D01*
X9999Y-18637D01*
X9944Y-18660D01*
X9901Y-18702D01*
X9897Y-18713D01*
X9810Y-18713D01*
X9806Y-18702D01*
X9764Y-18660D01*
X9708Y-18637D01*
X9678Y-18637D01*
X9728Y-18637D01*
X9820Y-18599D01*
X9891Y-18528D01*
X9910Y-18481D01*
X9943Y-18514D01*
X9998Y-18537D01*
X10058Y-18537D01*
X10608Y-18537D01*
X10663Y-18514D01*
X10706Y-18472D01*
X10728Y-18417D01*
X10728Y-18357D01*
X10728Y-18007D01*
X10706Y-17952D01*
X10664Y-17910D01*
X10608Y-17887D01*
X10608Y-17887D01*
X10663Y-17864D01*
X10706Y-17822D01*
X10728Y-17767D01*
X10728Y-17707D01*
X10728Y-17357D01*
X10706Y-17302D01*
X10664Y-17260D01*
X10608Y-17237D01*
X10578Y-17237D01*
X10628Y-17237D01*
X10720Y-17199D01*
X10791Y-17128D01*
X10803Y-17098D01*
X10818Y-17114D01*
X10873Y-17137D01*
X10933Y-17137D01*
X11633Y-17137D01*
X11688Y-17114D01*
X11731Y-17072D01*
X11753Y-17017D01*
X11753Y-16957D01*
X11753Y-19515D01*
X11429Y-19515D01*
X11429Y-20839D01*
X11469Y-20839D01*
X11419Y-20860D01*
X11414Y-20864D01*
X11414Y-19991D01*
X10740Y-19991D01*
X10740Y-20739D01*
X10667Y-20743D01*
X10516Y-20806D01*
X10488Y-20901D01*
X10803Y-21216D01*
X11119Y-20901D01*
X11111Y-20874D01*
X11404Y-20874D01*
X11376Y-20902D01*
X11353Y-20957D01*
X11353Y-21017D01*
X11353Y-21273D01*
X11347Y-21150D01*
X11285Y-20999D01*
X11189Y-20972D01*
X10874Y-21287D01*
X10880Y-21292D01*
X10809Y-21363D01*
X10803Y-21358D01*
X10798Y-21363D01*
X10727Y-21292D01*
X10733Y-21287D01*
X10418Y-20972D01*
X10322Y-20999D01*
X10249Y-21205D01*
X10260Y-21424D01*
X10312Y-21549D01*
X8242Y-21549D01*
X8375Y-21494D01*
X8510Y-21359D01*
X8583Y-21183D01*
X8584Y-20992D01*
X8511Y-20815D01*
X8376Y-20680D01*
X8228Y-20619D01*
X8228Y-19632D01*
X8228Y-19082D01*
X8206Y-19027D01*
X8164Y-18985D01*
X8108Y-18962D01*
X8101Y-18962D01*
X8101Y-16755D01*
X7803Y-16458D01*
X7506Y-16755D01*
X7531Y-16847D01*
X7728Y-16917D01*
X7936Y-16905D01*
X8076Y-16847D01*
X8101Y-16755D01*
X8101Y-18962D01*
X8049Y-18962D01*
X7499Y-18962D01*
X7444Y-18985D01*
X7401Y-19027D01*
X7378Y-19082D01*
X7378Y-19142D01*
X7378Y-19692D01*
X7401Y-19747D01*
X7443Y-19789D01*
X7498Y-19812D01*
X7558Y-19812D01*
X8108Y-19812D01*
X8163Y-19789D01*
X8206Y-19747D01*
X8228Y-19692D01*
X8228Y-19632D01*
X8228Y-20619D01*
X8199Y-20607D01*
X8008Y-20607D01*
X7832Y-20680D01*
X7697Y-20815D01*
X7660Y-20903D01*
X7610Y-20781D01*
X7511Y-20750D01*
X7440Y-20821D01*
X7440Y-20679D01*
X7409Y-20581D01*
X7192Y-20502D01*
X6962Y-20513D01*
X6798Y-20581D01*
X6767Y-20679D01*
X7103Y-21016D01*
X7440Y-20679D01*
X7440Y-20821D01*
X7174Y-21087D01*
X7511Y-21424D01*
X7610Y-21393D01*
X7657Y-21263D01*
X7696Y-21358D01*
X7831Y-21494D01*
X7965Y-21549D01*
X7423Y-21549D01*
X7440Y-21495D01*
X7103Y-21158D01*
X7033Y-21228D01*
X7033Y-21087D01*
X6696Y-20750D01*
X6597Y-20781D01*
X6519Y-20998D01*
X6529Y-21228D01*
X6597Y-21393D01*
X6696Y-21424D01*
X7033Y-21087D01*
X7033Y-21228D01*
X6767Y-21495D01*
X6784Y-21549D01*
X4742Y-21549D01*
X4875Y-21494D01*
X5010Y-21359D01*
X5083Y-21183D01*
X5084Y-20992D01*
X5011Y-20815D01*
X4876Y-20680D01*
X4699Y-20607D01*
X4508Y-20607D01*
X4332Y-20680D01*
X4197Y-20815D01*
X4160Y-20903D01*
X4110Y-20781D01*
X4011Y-20750D01*
X3674Y-21087D01*
X4011Y-21424D01*
X4110Y-21393D01*
X4157Y-21263D01*
X4196Y-21358D01*
X4331Y-21494D01*
X4465Y-21549D01*
X3923Y-21549D01*
X3940Y-21495D01*
X3603Y-21158D01*
X3598Y-21163D01*
X3527Y-21092D01*
X3533Y-21087D01*
X3527Y-21081D01*
X3598Y-21011D01*
X3603Y-21016D01*
X3940Y-20679D01*
X3909Y-20581D01*
X3692Y-20502D01*
X3594Y-20507D01*
X3594Y-19409D01*
X3572Y-19299D01*
X3572Y-19299D01*
X3510Y-19205D01*
X2555Y-18250D01*
X1793Y-17489D01*
X1793Y-15140D01*
X1807Y-15154D01*
X1852Y-15109D01*
X1886Y-15210D01*
X2110Y-15291D01*
X2348Y-15281D01*
X2521Y-15210D01*
X2555Y-15109D01*
X2555Y-15109D01*
X2556Y-15110D01*
X2556Y-16535D01*
X2571Y-16611D01*
X2615Y-16676D01*
X2763Y-16824D01*
X2763Y-16934D01*
X2813Y-17055D01*
X2904Y-17147D01*
X3025Y-17197D01*
X3155Y-17197D01*
X3275Y-17147D01*
X3367Y-17055D01*
X3417Y-16935D01*
X3417Y-16805D01*
X3368Y-16684D01*
X3276Y-16592D01*
X3155Y-16542D01*
X3045Y-16542D01*
X2955Y-16452D01*
X2955Y-15130D01*
X3023Y-15198D01*
X3143Y-15248D01*
X3273Y-15248D01*
X3393Y-15198D01*
X3485Y-15106D01*
X3535Y-14986D01*
X3535Y-14856D01*
X3486Y-14736D01*
X3407Y-14657D01*
X3407Y-13802D01*
X3940Y-13270D01*
X3983Y-13206D01*
X3998Y-13129D01*
X3998Y-12326D01*
X4555Y-11769D01*
X4558Y-11773D01*
X4678Y-11823D01*
X4694Y-11823D01*
X4439Y-12077D01*
X4364Y-12190D01*
X4338Y-12322D01*
X4338Y-13469D01*
X3958Y-13849D01*
X3883Y-13961D01*
X3857Y-14094D01*
X3857Y-14187D01*
X3824Y-14187D01*
X3769Y-14210D01*
X3726Y-14252D01*
X3703Y-14307D01*
X3703Y-14367D01*
X3703Y-15067D01*
X3726Y-15122D01*
X3768Y-15164D01*
X3823Y-15187D01*
X3883Y-15187D01*
X4583Y-15187D01*
X4638Y-15164D01*
X4681Y-15122D01*
X4703Y-15067D01*
X4703Y-15007D01*
X4703Y-14307D01*
X4681Y-14252D01*
X4639Y-14210D01*
X4596Y-14192D01*
X4880Y-13908D01*
X4880Y-14095D01*
X4844Y-14110D01*
X4801Y-14152D01*
X4778Y-14207D01*
X4778Y-14267D01*
X4778Y-14617D01*
X4801Y-14672D01*
X4843Y-14714D01*
X4898Y-14737D01*
X4958Y-14737D01*
X5508Y-14737D01*
X5563Y-14714D01*
X5606Y-14672D01*
X5628Y-14617D01*
X5628Y-14557D01*
X5628Y-14207D01*
X5606Y-14152D01*
X5566Y-14112D01*
X5733Y-14112D01*
X5788Y-14089D01*
X5831Y-14047D01*
X5853Y-13992D01*
X5853Y-13932D01*
X5853Y-13382D01*
X5831Y-13327D01*
X5789Y-13285D01*
X5777Y-13280D01*
X5777Y-13267D01*
X5913Y-13267D01*
X5968Y-13244D01*
X6011Y-13202D01*
X6033Y-13147D01*
X6033Y-13087D01*
X6033Y-12958D01*
X6180Y-12812D01*
X6196Y-12852D01*
X6238Y-12894D01*
X6255Y-12901D01*
X6255Y-13262D01*
X6074Y-13262D01*
X6019Y-13285D01*
X5976Y-13327D01*
X5953Y-13382D01*
X5953Y-13442D01*
X5953Y-13577D01*
X5932Y-13687D01*
X5953Y-13797D01*
X5953Y-13992D01*
X5976Y-14047D01*
X6018Y-14089D01*
X6073Y-14112D01*
X6133Y-14112D01*
X6352Y-14112D01*
X6703Y-14463D01*
X6703Y-14463D01*
X6703Y-14463D01*
X6703Y-14592D01*
X6726Y-14647D01*
X6766Y-14687D01*
X6726Y-14727D01*
X6703Y-14782D01*
X6703Y-14842D01*
X6703Y-14948D01*
X6681Y-14981D01*
X6655Y-15113D01*
X6655Y-15742D01*
X6652Y-15750D01*
X6652Y-15810D01*
X6652Y-16610D01*
X6655Y-16617D01*
X6655Y-16633D01*
X6459Y-16829D01*
X6350Y-16829D01*
X6350Y-16722D01*
X6387Y-16707D01*
X6429Y-16665D01*
X6452Y-16610D01*
X6452Y-16550D01*
X6452Y-15750D01*
X6429Y-15695D01*
X6387Y-15653D01*
X6332Y-15630D01*
X6272Y-15630D01*
X5872Y-15630D01*
X5817Y-15653D01*
X5775Y-15695D01*
X5752Y-15750D01*
X5752Y-15810D01*
X5752Y-16610D01*
X5775Y-16665D01*
X5817Y-16707D01*
X5853Y-16722D01*
X5853Y-16829D01*
X5744Y-16829D01*
X5549Y-16633D01*
X5549Y-16617D01*
X5552Y-16610D01*
X5552Y-16550D01*
X5552Y-15750D01*
X5549Y-15742D01*
X5549Y-15470D01*
X5563Y-15464D01*
X5606Y-15422D01*
X5628Y-15367D01*
X5628Y-15307D01*
X5628Y-14957D01*
X5606Y-14902D01*
X5564Y-14860D01*
X5508Y-14837D01*
X5449Y-14837D01*
X5313Y-14837D01*
X5203Y-14815D01*
X5094Y-14837D01*
X4899Y-14837D01*
X4844Y-14860D01*
X4801Y-14902D01*
X4778Y-14957D01*
X4778Y-15017D01*
X4778Y-15367D01*
X4801Y-15422D01*
X4843Y-15464D01*
X4855Y-15469D01*
X4855Y-15742D01*
X4852Y-15750D01*
X4852Y-15810D01*
X4852Y-16610D01*
X4855Y-16617D01*
X4855Y-16777D01*
X4881Y-16909D01*
X4957Y-17022D01*
X5338Y-17404D01*
X5451Y-17479D01*
X5584Y-17505D01*
X5668Y-17489D01*
X5860Y-17489D01*
X5853Y-17519D01*
X5853Y-17645D01*
X5837Y-17651D01*
X5795Y-17693D01*
X5772Y-17749D01*
X5772Y-17808D01*
X5772Y-17874D01*
X5755Y-17959D01*
X5755Y-18230D01*
X5352Y-18230D01*
X5297Y-18253D01*
X5255Y-18295D01*
X5232Y-18350D01*
X5232Y-18410D01*
X5232Y-19210D01*
X5255Y-19265D01*
X5297Y-19307D01*
X5352Y-19330D01*
X5412Y-19330D01*
X5757Y-19330D01*
X5757Y-19494D01*
X5726Y-19524D01*
X5658Y-19688D01*
X5658Y-19865D01*
X5726Y-20029D01*
X5851Y-20154D01*
X6014Y-20222D01*
X6192Y-20222D01*
X6355Y-20154D01*
X6481Y-20029D01*
X6549Y-19866D01*
X6549Y-19688D01*
X6481Y-19525D01*
X6450Y-19494D01*
X6450Y-19330D01*
X6852Y-19330D01*
X6907Y-19307D01*
X6949Y-19265D01*
X6972Y-19210D01*
X6972Y-19150D01*
X6972Y-18350D01*
X6949Y-18295D01*
X6907Y-18253D01*
X6852Y-18230D01*
X6792Y-18230D01*
X6449Y-18230D01*
X6449Y-17959D01*
X6432Y-17874D01*
X6432Y-17749D01*
X6409Y-17694D01*
X6367Y-17651D01*
X6350Y-17645D01*
X6350Y-17519D01*
X6344Y-17489D01*
X6535Y-17489D01*
X6620Y-17505D01*
X6753Y-17479D01*
X6865Y-17404D01*
X7247Y-17022D01*
X7322Y-16909D01*
X7349Y-16777D01*
X7349Y-16661D01*
X7436Y-16684D01*
X7733Y-16387D01*
X7436Y-16090D01*
X7352Y-16112D01*
X7352Y-15750D01*
X7349Y-15742D01*
X7349Y-15403D01*
X7353Y-15392D01*
X7353Y-15362D01*
X7353Y-15412D01*
X7392Y-15504D01*
X7462Y-15574D01*
X7554Y-15612D01*
X7666Y-15612D01*
X7728Y-15549D01*
X7728Y-15137D01*
X7721Y-15137D01*
X7721Y-15037D01*
X7728Y-15037D01*
X7728Y-14749D01*
X7728Y-14624D01*
X7728Y-14337D01*
X7721Y-14337D01*
X7721Y-14237D01*
X7728Y-14237D01*
X7728Y-13824D01*
X7666Y-13762D01*
X7554Y-13762D01*
X7462Y-13800D01*
X7392Y-13870D01*
X7353Y-13962D01*
X7353Y-13982D01*
X7331Y-13927D01*
X7289Y-13885D01*
X7264Y-13875D01*
X8198Y-12942D01*
X8273Y-12829D01*
X8299Y-12696D01*
X8299Y-12427D01*
X8706Y-12020D01*
X8823Y-12020D01*
X8823Y-12037D01*
X8823Y-12397D01*
X8846Y-12452D01*
X8888Y-12494D01*
X8943Y-12517D01*
X8947Y-12517D01*
X8978Y-12563D01*
X9153Y-12738D01*
X9153Y-12738D01*
X9182Y-12757D01*
X9173Y-12777D01*
X9173Y-12837D01*
X9173Y-13197D01*
X9196Y-13252D01*
X9238Y-13294D01*
X9255Y-13301D01*
X9255Y-13323D01*
X9140Y-13275D01*
X9010Y-13275D01*
X8889Y-13324D01*
X8797Y-13416D01*
X8747Y-13536D01*
X8747Y-13667D01*
X8797Y-13787D01*
X8889Y-13879D01*
X9009Y-13929D01*
X9139Y-13929D01*
X9259Y-13879D01*
X9271Y-13868D01*
X9274Y-13882D01*
X9328Y-13963D01*
X9373Y-14008D01*
X9373Y-14197D01*
X9396Y-14252D01*
X9438Y-14294D01*
X9493Y-14317D01*
X9553Y-14317D01*
X9913Y-14317D01*
X9927Y-14311D01*
X9928Y-14313D01*
X10128Y-14513D01*
X10128Y-14513D01*
X10173Y-14543D01*
X10173Y-14547D01*
X10196Y-14602D01*
X10238Y-14644D01*
X10293Y-14667D01*
X10353Y-14667D01*
X10713Y-14667D01*
X10768Y-14644D01*
X10811Y-14602D01*
X10817Y-14585D01*
X11328Y-14585D01*
X11328Y-14585D01*
X11424Y-14566D01*
X11504Y-14513D01*
X11530Y-14487D01*
X11808Y-14487D01*
X11863Y-14464D01*
X11906Y-14422D01*
X11928Y-14367D01*
X11928Y-14307D01*
X11928Y-14038D01*
X11978Y-14088D01*
X11978Y-14367D01*
X11979Y-14368D01*
X11888Y-14460D01*
X11838Y-14580D01*
X11838Y-14710D01*
X11861Y-14766D01*
X11777Y-14731D01*
X11647Y-14731D01*
X11527Y-14781D01*
X11435Y-14873D01*
X11385Y-14993D01*
X11385Y-15123D01*
X11418Y-15204D01*
X9961Y-15204D01*
X8958Y-14201D01*
X8919Y-14106D01*
X8827Y-14014D01*
X8707Y-13964D01*
X8589Y-13964D01*
X8614Y-13903D01*
X8614Y-13773D01*
X8564Y-13653D01*
X8472Y-13561D01*
X8352Y-13511D01*
X8222Y-13511D01*
X8102Y-13561D01*
X8010Y-13653D01*
X7964Y-13762D01*
X7891Y-13762D01*
X7828Y-13824D01*
X7828Y-14237D01*
X7836Y-14237D01*
X7836Y-14337D01*
X7828Y-14337D01*
X7828Y-14624D01*
X7828Y-14749D01*
X7828Y-15037D01*
X7836Y-15037D01*
X7836Y-15137D01*
X7828Y-15137D01*
X7828Y-15549D01*
X7891Y-15612D01*
X8003Y-15612D01*
X8068Y-15585D01*
X8068Y-15923D01*
X7879Y-15857D01*
X7671Y-15868D01*
X7531Y-15926D01*
X7506Y-16019D01*
X7803Y-16316D01*
X7809Y-16311D01*
X7880Y-16381D01*
X7874Y-16387D01*
X8171Y-16684D01*
X8264Y-16660D01*
X8289Y-16588D01*
X8379Y-16626D01*
X8509Y-16626D01*
X8629Y-16576D01*
X8722Y-16484D01*
X8771Y-16364D01*
X8772Y-16234D01*
X8722Y-16114D01*
X8630Y-16022D01*
X8510Y-15972D01*
X8506Y-15972D01*
X8506Y-15452D01*
X8506Y-14589D01*
X8551Y-14608D01*
X9639Y-15695D01*
X9732Y-15758D01*
X9842Y-15779D01*
X12282Y-15779D01*
X12381Y-15799D01*
X12992Y-15799D01*
X13940Y-15799D01*
X13940Y-15799D01*
X13965Y-15837D01*
X14311Y-16182D01*
G54D10*
G36*
X14880Y-21292D02*
X14809Y-21363D01*
X14803Y-21358D01*
X14798Y-21363D01*
X14727Y-21292D01*
X14733Y-21287D01*
X14418Y-20972D01*
X14322Y-20999D01*
X14252Y-21195D01*
X14185Y-21032D01*
X14059Y-20906D01*
X14051Y-20902D01*
X14134Y-20902D01*
X14134Y-20457D01*
X14200Y-20502D01*
X14311Y-20524D01*
X14459Y-20524D01*
X14459Y-20922D01*
X14509Y-20922D01*
X14803Y-21216D01*
X14809Y-21211D01*
X14880Y-21281D01*
X14874Y-21287D01*
X14880Y-21292D01*
X14880Y-21292D01*
G37*
G54D36*
X14880Y-21292D02*
X14809Y-21363D01*
X14803Y-21358D01*
X14798Y-21363D01*
X14727Y-21292D01*
X14733Y-21287D01*
X14418Y-20972D01*
X14322Y-20999D01*
X14252Y-21195D01*
X14185Y-21032D01*
X14059Y-20906D01*
X14051Y-20902D01*
X14134Y-20902D01*
X14134Y-20457D01*
X14200Y-20502D01*
X14311Y-20524D01*
X14459Y-20524D01*
X14459Y-20922D01*
X14509Y-20922D01*
X14803Y-21216D01*
X14809Y-21211D01*
X14880Y-21281D01*
X14874Y-21287D01*
X14880Y-21292D01*
G54D10*
G36*
X19847Y-12330D02*
X19704Y-12330D01*
X18928Y-12330D01*
X18928Y-11987D01*
X18891Y-11895D01*
X18820Y-11825D01*
X18728Y-11787D01*
X18719Y-11787D01*
X18723Y-11785D01*
X18794Y-11715D01*
X18832Y-11623D01*
X18832Y-11511D01*
X18769Y-11448D01*
X18357Y-11448D01*
X18357Y-11456D01*
X18257Y-11456D01*
X18257Y-11448D01*
X17982Y-11448D01*
X17844Y-11448D01*
X17569Y-11448D01*
X17569Y-11761D01*
X17632Y-11823D01*
X17745Y-11823D01*
X17844Y-11823D01*
X17913Y-11795D01*
X17982Y-11823D01*
X17991Y-11823D01*
X17987Y-11825D01*
X17916Y-11895D01*
X17878Y-11987D01*
X17878Y-12099D01*
X17941Y-12162D01*
X18353Y-12162D01*
X18353Y-12154D01*
X18453Y-12154D01*
X18453Y-12162D01*
X18866Y-12162D01*
X18928Y-12099D01*
X18928Y-11987D01*
X18928Y-12330D01*
X18928Y-12330D01*
X18928Y-12324D01*
X18866Y-12262D01*
X18453Y-12262D01*
X18453Y-12270D01*
X18353Y-12270D01*
X18353Y-12262D01*
X17941Y-12262D01*
X17878Y-12324D01*
X17878Y-12330D01*
X17628Y-12330D01*
X17628Y-11987D01*
X17591Y-11895D01*
X17520Y-11825D01*
X17439Y-11791D01*
X17469Y-11761D01*
X17469Y-11448D01*
X17057Y-11448D01*
X16994Y-11511D01*
X16994Y-11623D01*
X17032Y-11715D01*
X17102Y-11785D01*
X17184Y-11819D01*
X17153Y-11849D01*
X17153Y-12162D01*
X17566Y-12162D01*
X17628Y-12099D01*
X17628Y-11987D01*
X17628Y-12330D01*
X17628Y-12330D01*
X17628Y-12324D01*
X17566Y-12262D01*
X17153Y-12262D01*
X17153Y-12270D01*
X17053Y-12270D01*
X17053Y-12262D01*
X17053Y-12162D01*
X17053Y-11849D01*
X16991Y-11787D01*
X16878Y-11787D01*
X16778Y-11787D01*
X16687Y-11825D01*
X16616Y-11895D01*
X16578Y-11987D01*
X16578Y-12099D01*
X16641Y-12162D01*
X17053Y-12162D01*
X17053Y-12262D01*
X16641Y-12262D01*
X16580Y-12322D01*
X16507Y-12248D01*
X16442Y-12205D01*
X16411Y-12199D01*
X16411Y-11906D01*
X16411Y-11807D01*
X16373Y-11715D01*
X16302Y-11645D01*
X16210Y-11607D01*
X16116Y-11607D01*
X16053Y-11669D01*
X16053Y-12004D01*
X16348Y-12004D01*
X16411Y-11941D01*
X16411Y-11906D01*
X16411Y-12199D01*
X16411Y-12199D01*
X16411Y-12166D01*
X16348Y-12104D01*
X16053Y-12104D01*
X16053Y-12112D01*
X15953Y-12112D01*
X15953Y-12104D01*
X15946Y-12104D01*
X15946Y-12004D01*
X15953Y-12004D01*
X15953Y-11669D01*
X15891Y-11607D01*
X15796Y-11607D01*
X15705Y-11645D01*
X15634Y-11715D01*
X15596Y-11807D01*
X15596Y-11906D01*
X15596Y-11941D01*
X15658Y-12004D01*
X15596Y-12004D01*
X15596Y-12027D01*
X15586Y-12025D01*
X15066Y-12025D01*
X15014Y-11972D01*
X15048Y-11966D01*
X15119Y-11918D01*
X15594Y-11443D01*
X16767Y-11443D01*
X16767Y-11443D01*
X16851Y-11426D01*
X16922Y-11379D01*
X17005Y-11296D01*
X17057Y-11348D01*
X17469Y-11348D01*
X17469Y-11340D01*
X17569Y-11340D01*
X17569Y-11348D01*
X17844Y-11348D01*
X17982Y-11348D01*
X18257Y-11348D01*
X18257Y-11340D01*
X18357Y-11340D01*
X18357Y-11348D01*
X18769Y-11348D01*
X18817Y-11300D01*
X19847Y-12330D01*
X19847Y-12330D01*
G37*
G54D36*
X19847Y-12330D02*
X19704Y-12330D01*
X18928Y-12330D01*
X18928Y-11987D01*
X18891Y-11895D01*
X18820Y-11825D01*
X18728Y-11787D01*
X18719Y-11787D01*
X18723Y-11785D01*
X18794Y-11715D01*
X18832Y-11623D01*
X18832Y-11511D01*
X18769Y-11448D01*
X18357Y-11448D01*
X18357Y-11456D01*
X18257Y-11456D01*
X18257Y-11448D01*
X17982Y-11448D01*
X17844Y-11448D01*
X17569Y-11448D01*
X17569Y-11761D01*
X17632Y-11823D01*
X17745Y-11823D01*
X17844Y-11823D01*
X17913Y-11795D01*
X17982Y-11823D01*
X17991Y-11823D01*
X17987Y-11825D01*
X17916Y-11895D01*
X17878Y-11987D01*
X17878Y-12099D01*
X17941Y-12162D01*
X18353Y-12162D01*
X18353Y-12154D01*
X18453Y-12154D01*
X18453Y-12162D01*
X18866Y-12162D01*
X18928Y-12099D01*
X18928Y-11987D01*
X18928Y-12330D01*
X18928Y-12330D01*
X18928Y-12324D01*
X18866Y-12262D01*
X18453Y-12262D01*
X18453Y-12270D01*
X18353Y-12270D01*
X18353Y-12262D01*
X17941Y-12262D01*
X17878Y-12324D01*
X17878Y-12330D01*
X17628Y-12330D01*
X17628Y-11987D01*
X17591Y-11895D01*
X17520Y-11825D01*
X17439Y-11791D01*
X17469Y-11761D01*
X17469Y-11448D01*
X17057Y-11448D01*
X16994Y-11511D01*
X16994Y-11623D01*
X17032Y-11715D01*
X17102Y-11785D01*
X17184Y-11819D01*
X17153Y-11849D01*
X17153Y-12162D01*
X17566Y-12162D01*
X17628Y-12099D01*
X17628Y-11987D01*
X17628Y-12330D01*
X17628Y-12330D01*
X17628Y-12324D01*
X17566Y-12262D01*
X17153Y-12262D01*
X17153Y-12270D01*
X17053Y-12270D01*
X17053Y-12262D01*
X17053Y-12162D01*
X17053Y-11849D01*
X16991Y-11787D01*
X16878Y-11787D01*
X16778Y-11787D01*
X16687Y-11825D01*
X16616Y-11895D01*
X16578Y-11987D01*
X16578Y-12099D01*
X16641Y-12162D01*
X17053Y-12162D01*
X17053Y-12262D01*
X16641Y-12262D01*
X16580Y-12322D01*
X16507Y-12248D01*
X16442Y-12205D01*
X16411Y-12199D01*
X16411Y-11906D01*
X16411Y-11807D01*
X16373Y-11715D01*
X16302Y-11645D01*
X16210Y-11607D01*
X16116Y-11607D01*
X16053Y-11669D01*
X16053Y-12004D01*
X16348Y-12004D01*
X16411Y-11941D01*
X16411Y-11906D01*
X16411Y-12199D01*
X16411Y-12199D01*
X16411Y-12166D01*
X16348Y-12104D01*
X16053Y-12104D01*
X16053Y-12112D01*
X15953Y-12112D01*
X15953Y-12104D01*
X15946Y-12104D01*
X15946Y-12004D01*
X15953Y-12004D01*
X15953Y-11669D01*
X15891Y-11607D01*
X15796Y-11607D01*
X15705Y-11645D01*
X15634Y-11715D01*
X15596Y-11807D01*
X15596Y-11906D01*
X15596Y-11941D01*
X15658Y-12004D01*
X15596Y-12004D01*
X15596Y-12027D01*
X15586Y-12025D01*
X15066Y-12025D01*
X15014Y-11972D01*
X15048Y-11966D01*
X15119Y-11918D01*
X15594Y-11443D01*
X16767Y-11443D01*
X16767Y-11443D01*
X16851Y-11426D01*
X16922Y-11379D01*
X17005Y-11296D01*
X17057Y-11348D01*
X17469Y-11348D01*
X17469Y-11340D01*
X17569Y-11340D01*
X17569Y-11348D01*
X17844Y-11348D01*
X17982Y-11348D01*
X18257Y-11348D01*
X18257Y-11340D01*
X18357Y-11340D01*
X18357Y-11348D01*
X18769Y-11348D01*
X18817Y-11300D01*
X19847Y-12330D01*
G54D10*
G36*
X23880Y-18230D02*
X23869Y-18235D01*
X23826Y-18277D01*
X23803Y-18332D01*
X23803Y-18392D01*
X23803Y-18942D01*
X23805Y-18946D01*
X23703Y-18844D01*
X23703Y-18332D01*
X23681Y-18277D01*
X23639Y-18235D01*
X23583Y-18212D01*
X23524Y-18212D01*
X23174Y-18212D01*
X23119Y-18235D01*
X23076Y-18277D01*
X23053Y-18332D01*
X23053Y-18392D01*
X23053Y-18942D01*
X23076Y-18997D01*
X23118Y-19039D01*
X23173Y-19062D01*
X23233Y-19062D01*
X23235Y-19062D01*
X23269Y-19112D01*
X23393Y-19237D01*
X22974Y-19237D01*
X22919Y-19260D01*
X22876Y-19302D01*
X22853Y-19357D01*
X22853Y-19417D01*
X22853Y-20017D01*
X22876Y-20072D01*
X22907Y-20103D01*
X22907Y-20189D01*
X22850Y-20189D01*
X22850Y-20169D01*
X21676Y-20169D01*
X21676Y-20189D01*
X21484Y-20189D01*
X21484Y-19751D01*
X21471Y-19562D01*
X21423Y-19444D01*
X21335Y-19426D01*
X21074Y-19687D01*
X21335Y-19948D01*
X21423Y-19930D01*
X21484Y-19751D01*
X21484Y-20189D01*
X21264Y-20189D01*
X21264Y-20018D01*
X21003Y-19758D01*
X20933Y-19828D01*
X20933Y-19687D01*
X20672Y-19426D01*
X20584Y-19444D01*
X20523Y-19623D01*
X20535Y-19812D01*
X20584Y-19930D01*
X20672Y-19948D01*
X20933Y-19687D01*
X20933Y-19828D01*
X20743Y-20018D01*
X20761Y-20106D01*
X20940Y-20167D01*
X21128Y-20155D01*
X21246Y-20106D01*
X21264Y-20018D01*
X21264Y-20189D01*
X20883Y-20189D01*
X20883Y-20775D01*
X20866Y-20775D01*
X16556Y-20775D01*
X15931Y-20150D01*
X18877Y-20150D01*
X19010Y-20123D01*
X19123Y-20048D01*
X19841Y-19330D01*
X19841Y-19330D01*
X19891Y-19254D01*
X19916Y-19217D01*
X19916Y-19217D01*
X19943Y-19084D01*
X19943Y-19084D01*
X19943Y-18404D01*
X19953Y-18406D01*
X20528Y-18406D01*
X20528Y-18406D01*
X20612Y-18389D01*
X20634Y-18375D01*
X20685Y-18499D01*
X20791Y-18605D01*
X20868Y-18637D01*
X20791Y-18669D01*
X20686Y-18774D01*
X20629Y-18912D01*
X20628Y-19061D01*
X20685Y-19199D01*
X20760Y-19273D01*
X20743Y-19355D01*
X21003Y-19616D01*
X21264Y-19355D01*
X21247Y-19273D01*
X21321Y-19200D01*
X21378Y-19062D01*
X21379Y-18913D01*
X21322Y-18775D01*
X21216Y-18669D01*
X21138Y-18637D01*
X21216Y-18605D01*
X21321Y-18500D01*
X21378Y-18362D01*
X21379Y-18213D01*
X21334Y-18106D01*
X21653Y-18106D01*
X21653Y-18192D01*
X21676Y-18247D01*
X21718Y-18289D01*
X21773Y-18312D01*
X21833Y-18312D01*
X22183Y-18312D01*
X22238Y-18289D01*
X22281Y-18247D01*
X22303Y-18192D01*
X22303Y-18132D01*
X22303Y-17582D01*
X22281Y-17527D01*
X22239Y-17485D01*
X22183Y-17462D01*
X22124Y-17462D01*
X21774Y-17462D01*
X21719Y-17485D01*
X21676Y-17527D01*
X21653Y-17582D01*
X21653Y-17642D01*
X21653Y-17668D01*
X21428Y-17668D01*
X21428Y-17399D01*
X21428Y-16987D01*
X21116Y-16987D01*
X21053Y-17049D01*
X21053Y-17162D01*
X21053Y-17262D01*
X21092Y-17354D01*
X21162Y-17424D01*
X21254Y-17462D01*
X21366Y-17462D01*
X21428Y-17399D01*
X21428Y-17668D01*
X20828Y-17668D01*
X20745Y-17685D01*
X20702Y-17713D01*
X20674Y-17732D01*
X20671Y-17735D01*
X20671Y-17327D01*
X20648Y-17272D01*
X20634Y-17258D01*
X20634Y-17219D01*
X20648Y-17205D01*
X20671Y-17150D01*
X20671Y-17090D01*
X20671Y-16540D01*
X20648Y-16485D01*
X20634Y-16470D01*
X20634Y-16432D01*
X20648Y-16417D01*
X20661Y-16385D01*
X21153Y-16385D01*
X21153Y-16442D01*
X21158Y-16454D01*
X21092Y-16520D01*
X21053Y-16612D01*
X21053Y-16711D01*
X21053Y-16824D01*
X21116Y-16887D01*
X21428Y-16887D01*
X21428Y-16879D01*
X21528Y-16879D01*
X21528Y-16887D01*
X21536Y-16887D01*
X21536Y-16987D01*
X21528Y-16987D01*
X21528Y-17399D01*
X21591Y-17462D01*
X21703Y-17462D01*
X21795Y-17424D01*
X21865Y-17354D01*
X21903Y-17262D01*
X21903Y-17242D01*
X21903Y-17242D01*
X21926Y-17297D01*
X21968Y-17339D01*
X22023Y-17362D01*
X22083Y-17362D01*
X22433Y-17362D01*
X22480Y-17343D01*
X22480Y-17480D01*
X22469Y-17485D01*
X22426Y-17527D01*
X22403Y-17582D01*
X22403Y-17642D01*
X22403Y-18192D01*
X22426Y-18247D01*
X22468Y-18289D01*
X22523Y-18312D01*
X22583Y-18312D01*
X22933Y-18312D01*
X22988Y-18289D01*
X23031Y-18247D01*
X23053Y-18192D01*
X23053Y-18135D01*
X23115Y-18135D01*
X23118Y-18139D01*
X23173Y-18162D01*
X23233Y-18162D01*
X23583Y-18162D01*
X23638Y-18139D01*
X23681Y-18097D01*
X23703Y-18042D01*
X23703Y-17982D01*
X23703Y-17432D01*
X23681Y-17377D01*
X23666Y-17362D01*
X23833Y-17362D01*
X23847Y-17356D01*
X23826Y-17377D01*
X23803Y-17432D01*
X23803Y-17492D01*
X23803Y-18042D01*
X23826Y-18097D01*
X23868Y-18139D01*
X23880Y-18144D01*
X23880Y-18230D01*
X23880Y-18230D01*
G37*
G54D36*
X23880Y-18230D02*
X23869Y-18235D01*
X23826Y-18277D01*
X23803Y-18332D01*
X23803Y-18392D01*
X23803Y-18942D01*
X23805Y-18946D01*
X23703Y-18844D01*
X23703Y-18332D01*
X23681Y-18277D01*
X23639Y-18235D01*
X23583Y-18212D01*
X23524Y-18212D01*
X23174Y-18212D01*
X23119Y-18235D01*
X23076Y-18277D01*
X23053Y-18332D01*
X23053Y-18392D01*
X23053Y-18942D01*
X23076Y-18997D01*
X23118Y-19039D01*
X23173Y-19062D01*
X23233Y-19062D01*
X23235Y-19062D01*
X23269Y-19112D01*
X23393Y-19237D01*
X22974Y-19237D01*
X22919Y-19260D01*
X22876Y-19302D01*
X22853Y-19357D01*
X22853Y-19417D01*
X22853Y-20017D01*
X22876Y-20072D01*
X22907Y-20103D01*
X22907Y-20189D01*
X22850Y-20189D01*
X22850Y-20169D01*
X21676Y-20169D01*
X21676Y-20189D01*
X21484Y-20189D01*
X21484Y-19751D01*
X21471Y-19562D01*
X21423Y-19444D01*
X21335Y-19426D01*
X21074Y-19687D01*
X21335Y-19948D01*
X21423Y-19930D01*
X21484Y-19751D01*
X21484Y-20189D01*
X21264Y-20189D01*
X21264Y-20018D01*
X21003Y-19758D01*
X20933Y-19828D01*
X20933Y-19687D01*
X20672Y-19426D01*
X20584Y-19444D01*
X20523Y-19623D01*
X20535Y-19812D01*
X20584Y-19930D01*
X20672Y-19948D01*
X20933Y-19687D01*
X20933Y-19828D01*
X20743Y-20018D01*
X20761Y-20106D01*
X20940Y-20167D01*
X21128Y-20155D01*
X21246Y-20106D01*
X21264Y-20018D01*
X21264Y-20189D01*
X20883Y-20189D01*
X20883Y-20775D01*
X20866Y-20775D01*
X16556Y-20775D01*
X15931Y-20150D01*
X18877Y-20150D01*
X19010Y-20123D01*
X19123Y-20048D01*
X19841Y-19330D01*
X19841Y-19330D01*
X19891Y-19254D01*
X19916Y-19217D01*
X19916Y-19217D01*
X19943Y-19084D01*
X19943Y-19084D01*
X19943Y-18404D01*
X19953Y-18406D01*
X20528Y-18406D01*
X20528Y-18406D01*
X20612Y-18389D01*
X20634Y-18375D01*
X20685Y-18499D01*
X20791Y-18605D01*
X20868Y-18637D01*
X20791Y-18669D01*
X20686Y-18774D01*
X20629Y-18912D01*
X20628Y-19061D01*
X20685Y-19199D01*
X20760Y-19273D01*
X20743Y-19355D01*
X21003Y-19616D01*
X21264Y-19355D01*
X21247Y-19273D01*
X21321Y-19200D01*
X21378Y-19062D01*
X21379Y-18913D01*
X21322Y-18775D01*
X21216Y-18669D01*
X21138Y-18637D01*
X21216Y-18605D01*
X21321Y-18500D01*
X21378Y-18362D01*
X21379Y-18213D01*
X21334Y-18106D01*
X21653Y-18106D01*
X21653Y-18192D01*
X21676Y-18247D01*
X21718Y-18289D01*
X21773Y-18312D01*
X21833Y-18312D01*
X22183Y-18312D01*
X22238Y-18289D01*
X22281Y-18247D01*
X22303Y-18192D01*
X22303Y-18132D01*
X22303Y-17582D01*
X22281Y-17527D01*
X22239Y-17485D01*
X22183Y-17462D01*
X22124Y-17462D01*
X21774Y-17462D01*
X21719Y-17485D01*
X21676Y-17527D01*
X21653Y-17582D01*
X21653Y-17642D01*
X21653Y-17668D01*
X21428Y-17668D01*
X21428Y-17399D01*
X21428Y-16987D01*
X21116Y-16987D01*
X21053Y-17049D01*
X21053Y-17162D01*
X21053Y-17262D01*
X21092Y-17354D01*
X21162Y-17424D01*
X21254Y-17462D01*
X21366Y-17462D01*
X21428Y-17399D01*
X21428Y-17668D01*
X20828Y-17668D01*
X20745Y-17685D01*
X20702Y-17713D01*
X20674Y-17732D01*
X20671Y-17735D01*
X20671Y-17327D01*
X20648Y-17272D01*
X20634Y-17258D01*
X20634Y-17219D01*
X20648Y-17205D01*
X20671Y-17150D01*
X20671Y-17090D01*
X20671Y-16540D01*
X20648Y-16485D01*
X20634Y-16470D01*
X20634Y-16432D01*
X20648Y-16417D01*
X20661Y-16385D01*
X21153Y-16385D01*
X21153Y-16442D01*
X21158Y-16454D01*
X21092Y-16520D01*
X21053Y-16612D01*
X21053Y-16711D01*
X21053Y-16824D01*
X21116Y-16887D01*
X21428Y-16887D01*
X21428Y-16879D01*
X21528Y-16879D01*
X21528Y-16887D01*
X21536Y-16887D01*
X21536Y-16987D01*
X21528Y-16987D01*
X21528Y-17399D01*
X21591Y-17462D01*
X21703Y-17462D01*
X21795Y-17424D01*
X21865Y-17354D01*
X21903Y-17262D01*
X21903Y-17242D01*
X21903Y-17242D01*
X21926Y-17297D01*
X21968Y-17339D01*
X22023Y-17362D01*
X22083Y-17362D01*
X22433Y-17362D01*
X22480Y-17343D01*
X22480Y-17480D01*
X22469Y-17485D01*
X22426Y-17527D01*
X22403Y-17582D01*
X22403Y-17642D01*
X22403Y-18192D01*
X22426Y-18247D01*
X22468Y-18289D01*
X22523Y-18312D01*
X22583Y-18312D01*
X22933Y-18312D01*
X22988Y-18289D01*
X23031Y-18247D01*
X23053Y-18192D01*
X23053Y-18135D01*
X23115Y-18135D01*
X23118Y-18139D01*
X23173Y-18162D01*
X23233Y-18162D01*
X23583Y-18162D01*
X23638Y-18139D01*
X23681Y-18097D01*
X23703Y-18042D01*
X23703Y-17982D01*
X23703Y-17432D01*
X23681Y-17377D01*
X23666Y-17362D01*
X23833Y-17362D01*
X23847Y-17356D01*
X23826Y-17377D01*
X23803Y-17432D01*
X23803Y-17492D01*
X23803Y-18042D01*
X23826Y-18097D01*
X23868Y-18139D01*
X23880Y-18144D01*
X23880Y-18230D01*
G54D10*
G36*
X24380Y-19692D02*
X24309Y-19763D01*
X24303Y-19758D01*
X24298Y-19763D01*
X24227Y-19692D01*
X24233Y-19687D01*
X24227Y-19681D01*
X24298Y-19611D01*
X24303Y-19616D01*
X24309Y-19611D01*
X24380Y-19681D01*
X24374Y-19687D01*
X24380Y-19692D01*
X24380Y-19692D01*
G37*
G54D36*
X24380Y-19692D02*
X24309Y-19763D01*
X24303Y-19758D01*
X24298Y-19763D01*
X24227Y-19692D01*
X24233Y-19687D01*
X24227Y-19681D01*
X24298Y-19611D01*
X24303Y-19616D01*
X24309Y-19611D01*
X24380Y-19681D01*
X24374Y-19687D01*
X24380Y-19692D01*
G54D10*
G36*
X24810Y-15815D02*
X24770Y-15775D01*
X24678Y-15737D01*
X24579Y-15737D01*
X24466Y-15737D01*
X24403Y-15799D01*
X24403Y-16112D01*
X24411Y-16112D01*
X24411Y-16212D01*
X24403Y-16212D01*
X24403Y-16220D01*
X24303Y-16220D01*
X24303Y-16212D01*
X24016Y-16212D01*
X23991Y-16187D01*
X23678Y-16187D01*
X23678Y-16195D01*
X23578Y-16195D01*
X23578Y-16187D01*
X23571Y-16187D01*
X23571Y-16087D01*
X23578Y-16087D01*
X23578Y-16079D01*
X23678Y-16079D01*
X23678Y-16087D01*
X23866Y-16087D01*
X23891Y-16112D01*
X24303Y-16112D01*
X24303Y-15799D01*
X24241Y-15737D01*
X24128Y-15737D01*
X24028Y-15737D01*
X24023Y-15739D01*
X24015Y-15720D01*
X23949Y-15654D01*
X23953Y-15642D01*
X23953Y-15582D01*
X23953Y-15032D01*
X23931Y-14977D01*
X23889Y-14935D01*
X23833Y-14912D01*
X23780Y-14912D01*
X23271Y-14404D01*
X23271Y-14244D01*
X23381Y-14244D01*
X24568Y-15431D01*
X24568Y-15431D01*
X24568Y-15431D01*
X24810Y-15673D01*
X24810Y-15815D01*
X24810Y-15815D01*
G37*
G54D36*
X24810Y-15815D02*
X24770Y-15775D01*
X24678Y-15737D01*
X24579Y-15737D01*
X24466Y-15737D01*
X24403Y-15799D01*
X24403Y-16112D01*
X24411Y-16112D01*
X24411Y-16212D01*
X24403Y-16212D01*
X24403Y-16220D01*
X24303Y-16220D01*
X24303Y-16212D01*
X24016Y-16212D01*
X23991Y-16187D01*
X23678Y-16187D01*
X23678Y-16195D01*
X23578Y-16195D01*
X23578Y-16187D01*
X23571Y-16187D01*
X23571Y-16087D01*
X23578Y-16087D01*
X23578Y-16079D01*
X23678Y-16079D01*
X23678Y-16087D01*
X23866Y-16087D01*
X23891Y-16112D01*
X24303Y-16112D01*
X24303Y-15799D01*
X24241Y-15737D01*
X24128Y-15737D01*
X24028Y-15737D01*
X24023Y-15739D01*
X24015Y-15720D01*
X23949Y-15654D01*
X23953Y-15642D01*
X23953Y-15582D01*
X23953Y-15032D01*
X23931Y-14977D01*
X23889Y-14935D01*
X23833Y-14912D01*
X23780Y-14912D01*
X23271Y-14404D01*
X23271Y-14244D01*
X23381Y-14244D01*
X24568Y-15431D01*
X24568Y-15431D01*
X24568Y-15431D01*
X24810Y-15673D01*
X24810Y-15815D01*
G54D10*
G36*
X24810Y-18656D02*
X24523Y-18944D01*
X24453Y-18944D01*
X24453Y-18942D01*
X24453Y-18882D01*
X24453Y-18332D01*
X24431Y-18277D01*
X24389Y-18235D01*
X24377Y-18230D01*
X24377Y-18144D01*
X24388Y-18139D01*
X24431Y-18097D01*
X24453Y-18042D01*
X24453Y-17982D01*
X24453Y-17432D01*
X24431Y-17377D01*
X24389Y-17335D01*
X24333Y-17312D01*
X24274Y-17312D01*
X23924Y-17312D01*
X23910Y-17318D01*
X23931Y-17297D01*
X23953Y-17242D01*
X23953Y-17182D01*
X23953Y-17174D01*
X23993Y-17214D01*
X24048Y-17237D01*
X24108Y-17237D01*
X24658Y-17237D01*
X24713Y-17214D01*
X24756Y-17172D01*
X24778Y-17117D01*
X24778Y-17057D01*
X24778Y-16707D01*
X24756Y-16652D01*
X24714Y-16610D01*
X24658Y-16587D01*
X24628Y-16587D01*
X24678Y-16587D01*
X24770Y-16549D01*
X24810Y-16509D01*
X24810Y-18656D01*
X24810Y-18656D01*
G37*
G54D36*
X24810Y-18656D02*
X24523Y-18944D01*
X24453Y-18944D01*
X24453Y-18942D01*
X24453Y-18882D01*
X24453Y-18332D01*
X24431Y-18277D01*
X24389Y-18235D01*
X24377Y-18230D01*
X24377Y-18144D01*
X24388Y-18139D01*
X24431Y-18097D01*
X24453Y-18042D01*
X24453Y-17982D01*
X24453Y-17432D01*
X24431Y-17377D01*
X24389Y-17335D01*
X24333Y-17312D01*
X24274Y-17312D01*
X23924Y-17312D01*
X23910Y-17318D01*
X23931Y-17297D01*
X23953Y-17242D01*
X23953Y-17182D01*
X23953Y-17174D01*
X23993Y-17214D01*
X24048Y-17237D01*
X24108Y-17237D01*
X24658Y-17237D01*
X24713Y-17214D01*
X24756Y-17172D01*
X24778Y-17117D01*
X24778Y-17057D01*
X24778Y-16707D01*
X24756Y-16652D01*
X24714Y-16610D01*
X24658Y-16587D01*
X24628Y-16587D01*
X24678Y-16587D01*
X24770Y-16549D01*
X24810Y-16509D01*
X24810Y-18656D01*
G54D10*
G36*
X25017Y-21776D02*
X24925Y-21867D01*
X24908Y-21867D01*
X24908Y-21369D01*
X24897Y-21150D01*
X24835Y-20999D01*
X24739Y-20972D01*
X24424Y-21287D01*
X24739Y-21602D01*
X24835Y-21575D01*
X24908Y-21369D01*
X24908Y-21867D01*
X24669Y-21867D01*
X24669Y-21673D01*
X24353Y-21358D01*
X24038Y-21673D01*
X24066Y-21768D01*
X24272Y-21842D01*
X24490Y-21831D01*
X24641Y-21768D01*
X24669Y-21673D01*
X24669Y-21867D01*
X22423Y-21867D01*
X22557Y-21734D01*
X22598Y-21673D01*
X22608Y-21669D01*
X22735Y-21542D01*
X22803Y-21377D01*
X22804Y-21198D01*
X22735Y-21032D01*
X22609Y-20906D01*
X22459Y-20843D01*
X22695Y-20843D01*
X22695Y-20863D01*
X23201Y-20863D01*
X23099Y-20905D01*
X22972Y-21032D01*
X22904Y-21197D01*
X22903Y-21376D01*
X22972Y-21541D01*
X23098Y-21668D01*
X23264Y-21737D01*
X23443Y-21737D01*
X23608Y-21669D01*
X23735Y-21542D01*
X23803Y-21377D01*
X23803Y-21300D01*
X23810Y-21424D01*
X23872Y-21575D01*
X23968Y-21602D01*
X24283Y-21287D01*
X24277Y-21281D01*
X24348Y-21211D01*
X24353Y-21216D01*
X24669Y-20901D01*
X24646Y-20824D01*
X24792Y-20824D01*
X24792Y-20489D01*
X24792Y-20150D01*
X24792Y-19955D01*
X24858Y-19769D01*
X24847Y-19550D01*
X24785Y-19399D01*
X24764Y-19393D01*
X24801Y-19368D01*
X25017Y-19152D01*
X25017Y-21776D01*
X25017Y-21776D01*
G37*
G54D36*
X25017Y-21776D02*
X24925Y-21867D01*
X24908Y-21867D01*
X24908Y-21369D01*
X24897Y-21150D01*
X24835Y-20999D01*
X24739Y-20972D01*
X24424Y-21287D01*
X24739Y-21602D01*
X24835Y-21575D01*
X24908Y-21369D01*
X24908Y-21867D01*
X24669Y-21867D01*
X24669Y-21673D01*
X24353Y-21358D01*
X24038Y-21673D01*
X24066Y-21768D01*
X24272Y-21842D01*
X24490Y-21831D01*
X24641Y-21768D01*
X24669Y-21673D01*
X24669Y-21867D01*
X22423Y-21867D01*
X22557Y-21734D01*
X22598Y-21673D01*
X22608Y-21669D01*
X22735Y-21542D01*
X22803Y-21377D01*
X22804Y-21198D01*
X22735Y-21032D01*
X22609Y-20906D01*
X22459Y-20843D01*
X22695Y-20843D01*
X22695Y-20863D01*
X23201Y-20863D01*
X23099Y-20905D01*
X22972Y-21032D01*
X22904Y-21197D01*
X22903Y-21376D01*
X22972Y-21541D01*
X23098Y-21668D01*
X23264Y-21737D01*
X23443Y-21737D01*
X23608Y-21669D01*
X23735Y-21542D01*
X23803Y-21377D01*
X23803Y-21300D01*
X23810Y-21424D01*
X23872Y-21575D01*
X23968Y-21602D01*
X24283Y-21287D01*
X24277Y-21281D01*
X24348Y-21211D01*
X24353Y-21216D01*
X24669Y-20901D01*
X24646Y-20824D01*
X24792Y-20824D01*
X24792Y-20489D01*
X24792Y-20150D01*
X24792Y-19955D01*
X24858Y-19769D01*
X24847Y-19550D01*
X24785Y-19399D01*
X24764Y-19393D01*
X24801Y-19368D01*
X25017Y-19152D01*
X25017Y-21776D01*
G54D10*
G36*
X25090Y-12513D02*
X24864Y-12739D01*
X24845Y-12742D01*
X24765Y-12796D01*
X24711Y-12877D01*
X24692Y-12972D01*
X24692Y-14853D01*
X24078Y-14239D01*
X24078Y-11836D01*
X24078Y-11724D01*
X24016Y-11662D01*
X23603Y-11662D01*
X23603Y-11974D01*
X23666Y-12037D01*
X23779Y-12037D01*
X23878Y-12037D01*
X23970Y-11999D01*
X24041Y-11928D01*
X24078Y-11836D01*
X24078Y-14239D01*
X23659Y-13820D01*
X23579Y-13766D01*
X23503Y-13751D01*
X23503Y-11974D01*
X23503Y-11662D01*
X23091Y-11662D01*
X23028Y-11724D01*
X23028Y-11836D01*
X23061Y-11916D01*
X23053Y-11924D01*
X23053Y-12337D01*
X23309Y-12337D01*
X23371Y-12274D01*
X23371Y-12161D01*
X23371Y-12061D01*
X23361Y-12037D01*
X23441Y-12037D01*
X23503Y-11974D01*
X23503Y-13751D01*
X23484Y-13747D01*
X23371Y-13747D01*
X23371Y-12613D01*
X23371Y-12499D01*
X23309Y-12437D01*
X23053Y-12437D01*
X23053Y-12850D01*
X23116Y-12912D01*
X23171Y-12912D01*
X23263Y-12874D01*
X23333Y-12804D01*
X23371Y-12712D01*
X23371Y-12613D01*
X23371Y-13747D01*
X21862Y-13747D01*
X21862Y-13746D01*
X21862Y-13616D01*
X21812Y-13496D01*
X21720Y-13403D01*
X21600Y-13353D01*
X21470Y-13353D01*
X21370Y-13395D01*
X21370Y-13110D01*
X21351Y-13015D01*
X21351Y-13015D01*
X21333Y-12988D01*
X21297Y-12934D01*
X21297Y-12934D01*
X21000Y-12637D01*
X21058Y-12637D01*
X21062Y-12635D01*
X21235Y-12635D01*
X21235Y-12692D01*
X21258Y-12747D01*
X21300Y-12789D01*
X21355Y-12812D01*
X21415Y-12812D01*
X21651Y-12812D01*
X21706Y-12790D01*
X21749Y-12747D01*
X21753Y-12736D01*
X21758Y-12747D01*
X21800Y-12789D01*
X21855Y-12812D01*
X21915Y-12812D01*
X22151Y-12812D01*
X22206Y-12790D01*
X22249Y-12747D01*
X22253Y-12736D01*
X22258Y-12747D01*
X22300Y-12789D01*
X22355Y-12812D01*
X22415Y-12812D01*
X22651Y-12812D01*
X22673Y-12803D01*
X22674Y-12804D01*
X22744Y-12874D01*
X22836Y-12912D01*
X22891Y-12912D01*
X22953Y-12850D01*
X22953Y-12437D01*
X22946Y-12437D01*
X22946Y-12337D01*
X22953Y-12337D01*
X22953Y-11924D01*
X22929Y-11899D01*
X22931Y-11897D01*
X22953Y-11842D01*
X22953Y-11782D01*
X22953Y-11232D01*
X22931Y-11177D01*
X22889Y-11135D01*
X22877Y-11130D01*
X22877Y-11029D01*
X22913Y-11014D01*
X22956Y-10972D01*
X22976Y-10923D01*
X23029Y-10888D01*
X23128Y-10788D01*
X23128Y-11067D01*
X23151Y-11122D01*
X23193Y-11164D01*
X23248Y-11187D01*
X23278Y-11187D01*
X23228Y-11187D01*
X23137Y-11225D01*
X23066Y-11295D01*
X23028Y-11387D01*
X23028Y-11499D01*
X23091Y-11562D01*
X23503Y-11562D01*
X23503Y-11554D01*
X23603Y-11554D01*
X23603Y-11562D01*
X24016Y-11562D01*
X24078Y-11499D01*
X24078Y-11387D01*
X24041Y-11295D01*
X23970Y-11225D01*
X23878Y-11187D01*
X23858Y-11187D01*
X23913Y-11164D01*
X23956Y-11122D01*
X23978Y-11067D01*
X23978Y-11007D01*
X23978Y-10657D01*
X23956Y-10602D01*
X23914Y-10560D01*
X23858Y-10537D01*
X23802Y-10537D01*
X23802Y-10518D01*
X23848Y-10537D01*
X23908Y-10537D01*
X24458Y-10537D01*
X24513Y-10514D01*
X24556Y-10472D01*
X24578Y-10417D01*
X24578Y-10357D01*
X24578Y-10164D01*
X24613Y-10198D01*
X24613Y-10281D01*
X24663Y-10401D01*
X24722Y-10460D01*
X24722Y-12000D01*
X24703Y-12019D01*
X24653Y-12139D01*
X24653Y-12269D01*
X24702Y-12389D01*
X24794Y-12481D01*
X24914Y-12531D01*
X25045Y-12531D01*
X25090Y-12513D01*
X25090Y-12513D01*
G37*
G54D36*
X25090Y-12513D02*
X24864Y-12739D01*
X24845Y-12742D01*
X24765Y-12796D01*
X24711Y-12877D01*
X24692Y-12972D01*
X24692Y-14853D01*
X24078Y-14239D01*
X24078Y-11836D01*
X24078Y-11724D01*
X24016Y-11662D01*
X23603Y-11662D01*
X23603Y-11974D01*
X23666Y-12037D01*
X23779Y-12037D01*
X23878Y-12037D01*
X23970Y-11999D01*
X24041Y-11928D01*
X24078Y-11836D01*
X24078Y-14239D01*
X23659Y-13820D01*
X23579Y-13766D01*
X23503Y-13751D01*
X23503Y-11974D01*
X23503Y-11662D01*
X23091Y-11662D01*
X23028Y-11724D01*
X23028Y-11836D01*
X23061Y-11916D01*
X23053Y-11924D01*
X23053Y-12337D01*
X23309Y-12337D01*
X23371Y-12274D01*
X23371Y-12161D01*
X23371Y-12061D01*
X23361Y-12037D01*
X23441Y-12037D01*
X23503Y-11974D01*
X23503Y-13751D01*
X23484Y-13747D01*
X23371Y-13747D01*
X23371Y-12613D01*
X23371Y-12499D01*
X23309Y-12437D01*
X23053Y-12437D01*
X23053Y-12850D01*
X23116Y-12912D01*
X23171Y-12912D01*
X23263Y-12874D01*
X23333Y-12804D01*
X23371Y-12712D01*
X23371Y-12613D01*
X23371Y-13747D01*
X21862Y-13747D01*
X21862Y-13746D01*
X21862Y-13616D01*
X21812Y-13496D01*
X21720Y-13403D01*
X21600Y-13353D01*
X21470Y-13353D01*
X21370Y-13395D01*
X21370Y-13110D01*
X21351Y-13015D01*
X21351Y-13015D01*
X21333Y-12988D01*
X21297Y-12934D01*
X21297Y-12934D01*
X21000Y-12637D01*
X21058Y-12637D01*
X21062Y-12635D01*
X21235Y-12635D01*
X21235Y-12692D01*
X21258Y-12747D01*
X21300Y-12789D01*
X21355Y-12812D01*
X21415Y-12812D01*
X21651Y-12812D01*
X21706Y-12790D01*
X21749Y-12747D01*
X21753Y-12736D01*
X21758Y-12747D01*
X21800Y-12789D01*
X21855Y-12812D01*
X21915Y-12812D01*
X22151Y-12812D01*
X22206Y-12790D01*
X22249Y-12747D01*
X22253Y-12736D01*
X22258Y-12747D01*
X22300Y-12789D01*
X22355Y-12812D01*
X22415Y-12812D01*
X22651Y-12812D01*
X22673Y-12803D01*
X22674Y-12804D01*
X22744Y-12874D01*
X22836Y-12912D01*
X22891Y-12912D01*
X22953Y-12850D01*
X22953Y-12437D01*
X22946Y-12437D01*
X22946Y-12337D01*
X22953Y-12337D01*
X22953Y-11924D01*
X22929Y-11899D01*
X22931Y-11897D01*
X22953Y-11842D01*
X22953Y-11782D01*
X22953Y-11232D01*
X22931Y-11177D01*
X22889Y-11135D01*
X22877Y-11130D01*
X22877Y-11029D01*
X22913Y-11014D01*
X22956Y-10972D01*
X22976Y-10923D01*
X23029Y-10888D01*
X23128Y-10788D01*
X23128Y-11067D01*
X23151Y-11122D01*
X23193Y-11164D01*
X23248Y-11187D01*
X23278Y-11187D01*
X23228Y-11187D01*
X23137Y-11225D01*
X23066Y-11295D01*
X23028Y-11387D01*
X23028Y-11499D01*
X23091Y-11562D01*
X23503Y-11562D01*
X23503Y-11554D01*
X23603Y-11554D01*
X23603Y-11562D01*
X24016Y-11562D01*
X24078Y-11499D01*
X24078Y-11387D01*
X24041Y-11295D01*
X23970Y-11225D01*
X23878Y-11187D01*
X23858Y-11187D01*
X23913Y-11164D01*
X23956Y-11122D01*
X23978Y-11067D01*
X23978Y-11007D01*
X23978Y-10657D01*
X23956Y-10602D01*
X23914Y-10560D01*
X23858Y-10537D01*
X23802Y-10537D01*
X23802Y-10518D01*
X23848Y-10537D01*
X23908Y-10537D01*
X24458Y-10537D01*
X24513Y-10514D01*
X24556Y-10472D01*
X24578Y-10417D01*
X24578Y-10357D01*
X24578Y-10164D01*
X24613Y-10198D01*
X24613Y-10281D01*
X24663Y-10401D01*
X24722Y-10460D01*
X24722Y-12000D01*
X24703Y-12019D01*
X24653Y-12139D01*
X24653Y-12269D01*
X24702Y-12389D01*
X24794Y-12481D01*
X24914Y-12531D01*
X25045Y-12531D01*
X25090Y-12513D01*
G54D10*
G36*
X28954Y-14295D02*
X28862Y-14387D01*
X28733Y-14387D01*
X28733Y-12304D01*
X28516Y-11778D01*
X28437Y-11699D01*
X28437Y-6313D01*
X28417Y-6265D01*
X28417Y-2828D01*
X28368Y-2708D01*
X28276Y-2616D01*
X28155Y-2566D01*
X28025Y-2566D01*
X27905Y-2616D01*
X27846Y-2674D01*
X27507Y-2674D01*
X27449Y-2616D01*
X27329Y-2566D01*
X27198Y-2566D01*
X27078Y-2616D01*
X26986Y-2708D01*
X26936Y-2828D01*
X26936Y-2958D01*
X26986Y-3078D01*
X27078Y-3170D01*
X27198Y-3220D01*
X27328Y-3220D01*
X27448Y-3171D01*
X27507Y-3112D01*
X27846Y-3112D01*
X27904Y-3170D01*
X28025Y-3220D01*
X28155Y-3220D01*
X28275Y-3171D01*
X28367Y-3079D01*
X28417Y-2959D01*
X28417Y-2828D01*
X28417Y-6265D01*
X28387Y-6192D01*
X28295Y-6100D01*
X28175Y-6050D01*
X28045Y-6050D01*
X27925Y-6100D01*
X27833Y-6192D01*
X27783Y-6312D01*
X27783Y-6442D01*
X27832Y-6563D01*
X27852Y-6582D01*
X27834Y-6600D01*
X27831Y-6597D01*
X27831Y-6597D01*
X27649Y-6415D01*
X27650Y-6332D01*
X27600Y-6212D01*
X27508Y-6120D01*
X27388Y-6070D01*
X27258Y-6070D01*
X27137Y-6120D01*
X27045Y-6212D01*
X26995Y-6332D01*
X26995Y-6462D01*
X27045Y-6582D01*
X27125Y-6663D01*
X27065Y-6723D01*
X27015Y-6844D01*
X27015Y-6885D01*
X26668Y-7231D01*
X25945Y-7231D01*
X25945Y-2603D01*
X25945Y-1325D01*
X23660Y-1325D01*
X23660Y-2603D01*
X25945Y-2603D01*
X25945Y-7231D01*
X22492Y-7231D01*
X22492Y-6712D01*
X22473Y-6617D01*
X22473Y-6617D01*
X22455Y-6590D01*
X22419Y-6536D01*
X22419Y-6536D01*
X21429Y-5546D01*
X21429Y-5472D01*
X21410Y-5377D01*
X21410Y-5377D01*
X21392Y-5350D01*
X21356Y-5296D01*
X21356Y-5296D01*
X20917Y-4857D01*
X20917Y-3016D01*
X21303Y-2630D01*
X22187Y-2630D01*
X22216Y-2659D01*
X22336Y-2708D01*
X22466Y-2709D01*
X22586Y-2659D01*
X22678Y-2567D01*
X22728Y-2447D01*
X22728Y-2317D01*
X22679Y-2196D01*
X22587Y-2104D01*
X22466Y-2054D01*
X22336Y-2054D01*
X22216Y-2104D01*
X22187Y-2133D01*
X21200Y-2133D01*
X21121Y-2149D01*
X21105Y-2152D01*
X21025Y-2206D01*
X20493Y-2737D01*
X20439Y-2818D01*
X20420Y-2913D01*
X20420Y-4960D01*
X20439Y-5055D01*
X20493Y-5136D01*
X20932Y-5575D01*
X20932Y-5649D01*
X20951Y-5744D01*
X21005Y-5825D01*
X21995Y-6815D01*
X21995Y-7266D01*
X21966Y-7294D01*
X21916Y-7414D01*
X21916Y-7545D01*
X21966Y-7665D01*
X22058Y-7757D01*
X22178Y-7807D01*
X22308Y-7807D01*
X22429Y-7757D01*
X22458Y-7728D01*
X26771Y-7728D01*
X26771Y-7728D01*
X26866Y-7709D01*
X26947Y-7655D01*
X27366Y-7236D01*
X27407Y-7236D01*
X27505Y-7196D01*
X27522Y-7221D01*
X27593Y-7269D01*
X27677Y-7285D01*
X27677Y-7285D01*
X27760Y-7269D01*
X27831Y-7221D01*
X28265Y-6788D01*
X28265Y-6788D01*
X28296Y-6741D01*
X28312Y-6717D01*
X28312Y-6717D01*
X28329Y-6633D01*
X28329Y-6633D01*
X28329Y-6621D01*
X28387Y-6563D01*
X28437Y-6443D01*
X28437Y-6313D01*
X28437Y-11699D01*
X28114Y-11376D01*
X27589Y-11158D01*
X27020Y-11157D01*
X26495Y-11374D01*
X26092Y-11776D01*
X25874Y-12301D01*
X25874Y-12870D01*
X26091Y-13396D01*
X26493Y-13798D01*
X27018Y-14016D01*
X27587Y-14017D01*
X28112Y-13800D01*
X28515Y-13398D01*
X28733Y-12872D01*
X28733Y-12304D01*
X28733Y-14387D01*
X25196Y-14387D01*
X25189Y-14388D01*
X25189Y-13033D01*
X25646Y-12576D01*
X25646Y-12576D01*
X25678Y-12528D01*
X25694Y-12505D01*
X25694Y-12505D01*
X25711Y-12421D01*
X25711Y-12421D01*
X25711Y-10708D01*
X25711Y-9074D01*
X25694Y-8991D01*
X25646Y-8920D01*
X24634Y-7907D01*
X24563Y-7860D01*
X24479Y-7843D01*
X23773Y-7843D01*
X23756Y-7802D01*
X23714Y-7760D01*
X23658Y-7737D01*
X23599Y-7737D01*
X23049Y-7737D01*
X22994Y-7760D01*
X22951Y-7802D01*
X22928Y-7857D01*
X22928Y-7917D01*
X22928Y-8158D01*
X22878Y-8137D01*
X22779Y-8137D01*
X22666Y-8137D01*
X22603Y-8199D01*
X22603Y-8512D01*
X22611Y-8512D01*
X22611Y-8612D01*
X22603Y-8612D01*
X22603Y-8620D01*
X22503Y-8620D01*
X22503Y-8612D01*
X22503Y-8512D01*
X22503Y-8199D01*
X22441Y-8137D01*
X22328Y-8137D01*
X22228Y-8137D01*
X22137Y-8175D01*
X22066Y-8245D01*
X22028Y-8337D01*
X22028Y-8449D01*
X22091Y-8512D01*
X22503Y-8512D01*
X22503Y-8612D01*
X22091Y-8612D01*
X22028Y-8674D01*
X22028Y-8786D01*
X22029Y-8787D01*
X22028Y-8787D01*
X21929Y-8787D01*
X21816Y-8787D01*
X21753Y-8849D01*
X21753Y-9162D01*
X21761Y-9162D01*
X21761Y-9262D01*
X21753Y-9262D01*
X21753Y-9270D01*
X21653Y-9270D01*
X21653Y-9262D01*
X21241Y-9262D01*
X21178Y-9324D01*
X21178Y-9436D01*
X21216Y-9528D01*
X21287Y-9599D01*
X21378Y-9637D01*
X21399Y-9637D01*
X21399Y-9637D01*
X21344Y-9660D01*
X21301Y-9702D01*
X21278Y-9757D01*
X21278Y-9817D01*
X21278Y-10167D01*
X21301Y-10222D01*
X21343Y-10264D01*
X21398Y-10287D01*
X21458Y-10287D01*
X21516Y-10287D01*
X21476Y-10327D01*
X21453Y-10382D01*
X21453Y-10442D01*
X21453Y-10992D01*
X21476Y-11047D01*
X21518Y-11089D01*
X21573Y-11112D01*
X21630Y-11112D01*
X21630Y-11130D01*
X21619Y-11135D01*
X21576Y-11177D01*
X21553Y-11232D01*
X21553Y-11288D01*
X21142Y-11288D01*
X21114Y-11260D01*
X21058Y-11237D01*
X20999Y-11237D01*
X20449Y-11237D01*
X20394Y-11260D01*
X20351Y-11302D01*
X20328Y-11357D01*
X20328Y-11417D01*
X20328Y-11767D01*
X20351Y-11822D01*
X20393Y-11864D01*
X20448Y-11887D01*
X20508Y-11887D01*
X21058Y-11887D01*
X21113Y-11864D01*
X21156Y-11822D01*
X21171Y-11785D01*
X21553Y-11785D01*
X21553Y-11842D01*
X21576Y-11897D01*
X21618Y-11939D01*
X21673Y-11962D01*
X21733Y-11962D01*
X21755Y-11962D01*
X21755Y-12034D01*
X21753Y-12038D01*
X21749Y-12027D01*
X21707Y-11984D01*
X21651Y-11961D01*
X21592Y-11961D01*
X21356Y-11961D01*
X21301Y-11984D01*
X21258Y-12026D01*
X21235Y-12081D01*
X21235Y-12138D01*
X21178Y-12138D01*
X21178Y-12107D01*
X21156Y-12052D01*
X21114Y-12010D01*
X21058Y-11987D01*
X20999Y-11987D01*
X20449Y-11987D01*
X20394Y-12010D01*
X20351Y-12052D01*
X20334Y-12093D01*
X20229Y-12093D01*
X19704Y-11568D01*
X19796Y-11606D01*
X19926Y-11606D01*
X20047Y-11557D01*
X20139Y-11465D01*
X20189Y-11344D01*
X20189Y-11214D01*
X20141Y-11098D01*
X20173Y-11112D01*
X20233Y-11112D01*
X20583Y-11112D01*
X20638Y-11089D01*
X20681Y-11047D01*
X20703Y-10992D01*
X20703Y-10992D01*
X20726Y-11047D01*
X20768Y-11089D01*
X20823Y-11112D01*
X20883Y-11112D01*
X21233Y-11112D01*
X21288Y-11089D01*
X21331Y-11047D01*
X21353Y-10992D01*
X21353Y-10932D01*
X21353Y-10382D01*
X21331Y-10327D01*
X21289Y-10285D01*
X21233Y-10262D01*
X21174Y-10262D01*
X20824Y-10262D01*
X20769Y-10285D01*
X20726Y-10327D01*
X20703Y-10382D01*
X20703Y-10382D01*
X20681Y-10327D01*
X20666Y-10312D01*
X20683Y-10312D01*
X20738Y-10289D01*
X20781Y-10247D01*
X20803Y-10192D01*
X20803Y-10132D01*
X20803Y-9582D01*
X20781Y-9527D01*
X20741Y-9487D01*
X20781Y-9447D01*
X20789Y-9427D01*
X20887Y-9407D01*
X21000Y-9332D01*
X21206Y-9127D01*
X21241Y-9162D01*
X21653Y-9162D01*
X21653Y-8849D01*
X21591Y-8787D01*
X21519Y-8787D01*
X21540Y-8754D01*
X21540Y-8754D01*
X21567Y-8622D01*
X21567Y-7204D01*
X21567Y-7204D01*
X21540Y-7071D01*
X21540Y-7071D01*
X21465Y-6959D01*
X21465Y-6959D01*
X21032Y-6526D01*
X20920Y-6451D01*
X20787Y-6424D01*
X18799Y-6424D01*
X17480Y-6424D01*
X17347Y-6451D01*
X17310Y-6476D01*
X17235Y-6526D01*
X15750Y-8011D01*
X15232Y-8011D01*
X15099Y-8037D01*
X14987Y-8113D01*
X14553Y-8546D01*
X14554Y-8382D01*
X14485Y-8216D01*
X14359Y-8090D01*
X14193Y-8021D01*
X14014Y-8021D01*
X13849Y-8089D01*
X13840Y-8098D01*
X13840Y-7933D01*
X13840Y-7933D01*
X13814Y-7800D01*
X13814Y-7800D01*
X13739Y-7687D01*
X13739Y-7687D01*
X13348Y-7297D01*
X13348Y-6122D01*
X13322Y-5989D01*
X13322Y-5989D01*
X13247Y-5876D01*
X12925Y-5555D01*
X12925Y-4370D01*
X12925Y-3012D01*
X12958Y-3012D01*
X13508Y-3012D01*
X13563Y-2989D01*
X13606Y-2947D01*
X13628Y-2892D01*
X13628Y-2832D01*
X13628Y-2282D01*
X13606Y-2227D01*
X13564Y-2185D01*
X13508Y-2162D01*
X13449Y-2162D01*
X12899Y-2162D01*
X12844Y-2185D01*
X12801Y-2227D01*
X12778Y-2282D01*
X12778Y-2342D01*
X12778Y-2445D01*
X11175Y-842D01*
X11126Y-809D01*
X12576Y-809D01*
X13362Y-809D01*
X14279Y-1726D01*
X14279Y-2511D01*
X14279Y-5187D01*
X14279Y-6088D01*
X14193Y-6053D01*
X14014Y-6053D01*
X13849Y-6121D01*
X13722Y-6248D01*
X13654Y-6413D01*
X13653Y-6592D01*
X13722Y-6757D01*
X13848Y-6884D01*
X14014Y-6953D01*
X14193Y-6953D01*
X14358Y-6885D01*
X14485Y-6758D01*
X14553Y-6593D01*
X14553Y-6530D01*
X15266Y-7243D01*
X15379Y-7318D01*
X15511Y-7344D01*
X15644Y-7318D01*
X15757Y-7243D01*
X15832Y-7130D01*
X15858Y-6998D01*
X15832Y-6865D01*
X15757Y-6752D01*
X14972Y-5968D01*
X14972Y-5187D01*
X14972Y-2511D01*
X14972Y-1582D01*
X14946Y-1449D01*
X14946Y-1449D01*
X14871Y-1337D01*
X13751Y-217D01*
X13694Y-179D01*
X15083Y-179D01*
X15174Y-271D01*
X15174Y-5511D01*
X15188Y-5580D01*
X15227Y-5638D01*
X15285Y-5677D01*
X15354Y-5691D01*
X20078Y-5691D01*
X20147Y-5677D01*
X20205Y-5638D01*
X20244Y-5580D01*
X20258Y-5511D01*
X20258Y-5118D01*
X20258Y-271D01*
X20349Y-179D01*
X22915Y-179D01*
X22903Y-207D01*
X22903Y-267D01*
X22903Y-867D01*
X22926Y-922D01*
X22968Y-964D01*
X23023Y-987D01*
X23083Y-987D01*
X23683Y-987D01*
X23738Y-964D01*
X23781Y-922D01*
X23803Y-867D01*
X23803Y-807D01*
X23803Y-207D01*
X23792Y-179D01*
X24075Y-179D01*
X23972Y-282D01*
X23904Y-447D01*
X23903Y-626D01*
X23972Y-791D01*
X24098Y-918D01*
X24264Y-987D01*
X24443Y-987D01*
X24608Y-919D01*
X24735Y-792D01*
X24803Y-627D01*
X24804Y-448D01*
X24735Y-282D01*
X24632Y-179D01*
X25075Y-179D01*
X24972Y-282D01*
X24904Y-447D01*
X24903Y-626D01*
X24972Y-791D01*
X25098Y-918D01*
X25264Y-987D01*
X25443Y-987D01*
X25608Y-919D01*
X25735Y-792D01*
X25803Y-627D01*
X25804Y-448D01*
X25735Y-282D01*
X25632Y-179D01*
X26075Y-179D01*
X25972Y-282D01*
X25904Y-447D01*
X25903Y-626D01*
X25972Y-791D01*
X26098Y-918D01*
X26264Y-987D01*
X26443Y-987D01*
X26608Y-919D01*
X26735Y-792D01*
X26803Y-627D01*
X26804Y-448D01*
X26735Y-282D01*
X26632Y-179D01*
X28862Y-179D01*
X28954Y-271D01*
X28954Y-14295D01*
X28954Y-14295D01*
G37*
G54D36*
X28954Y-14295D02*
X28862Y-14387D01*
X28733Y-14387D01*
X28733Y-12304D01*
X28516Y-11778D01*
X28437Y-11699D01*
X28437Y-6313D01*
X28417Y-6265D01*
X28417Y-2828D01*
X28368Y-2708D01*
X28276Y-2616D01*
X28155Y-2566D01*
X28025Y-2566D01*
X27905Y-2616D01*
X27846Y-2674D01*
X27507Y-2674D01*
X27449Y-2616D01*
X27329Y-2566D01*
X27198Y-2566D01*
X27078Y-2616D01*
X26986Y-2708D01*
X26936Y-2828D01*
X26936Y-2958D01*
X26986Y-3078D01*
X27078Y-3170D01*
X27198Y-3220D01*
X27328Y-3220D01*
X27448Y-3171D01*
X27507Y-3112D01*
X27846Y-3112D01*
X27904Y-3170D01*
X28025Y-3220D01*
X28155Y-3220D01*
X28275Y-3171D01*
X28367Y-3079D01*
X28417Y-2959D01*
X28417Y-2828D01*
X28417Y-6265D01*
X28387Y-6192D01*
X28295Y-6100D01*
X28175Y-6050D01*
X28045Y-6050D01*
X27925Y-6100D01*
X27833Y-6192D01*
X27783Y-6312D01*
X27783Y-6442D01*
X27832Y-6563D01*
X27852Y-6582D01*
X27834Y-6600D01*
X27831Y-6597D01*
X27831Y-6597D01*
X27649Y-6415D01*
X27650Y-6332D01*
X27600Y-6212D01*
X27508Y-6120D01*
X27388Y-6070D01*
X27258Y-6070D01*
X27137Y-6120D01*
X27045Y-6212D01*
X26995Y-6332D01*
X26995Y-6462D01*
X27045Y-6582D01*
X27125Y-6663D01*
X27065Y-6723D01*
X27015Y-6844D01*
X27015Y-6885D01*
X26668Y-7231D01*
X25945Y-7231D01*
X25945Y-2603D01*
X25945Y-1325D01*
X23660Y-1325D01*
X23660Y-2603D01*
X25945Y-2603D01*
X25945Y-7231D01*
X22492Y-7231D01*
X22492Y-6712D01*
X22473Y-6617D01*
X22473Y-6617D01*
X22455Y-6590D01*
X22419Y-6536D01*
X22419Y-6536D01*
X21429Y-5546D01*
X21429Y-5472D01*
X21410Y-5377D01*
X21410Y-5377D01*
X21392Y-5350D01*
X21356Y-5296D01*
X21356Y-5296D01*
X20917Y-4857D01*
X20917Y-3016D01*
X21303Y-2630D01*
X22187Y-2630D01*
X22216Y-2659D01*
X22336Y-2708D01*
X22466Y-2709D01*
X22586Y-2659D01*
X22678Y-2567D01*
X22728Y-2447D01*
X22728Y-2317D01*
X22679Y-2196D01*
X22587Y-2104D01*
X22466Y-2054D01*
X22336Y-2054D01*
X22216Y-2104D01*
X22187Y-2133D01*
X21200Y-2133D01*
X21121Y-2149D01*
X21105Y-2152D01*
X21025Y-2206D01*
X20493Y-2737D01*
X20439Y-2818D01*
X20420Y-2913D01*
X20420Y-4960D01*
X20439Y-5055D01*
X20493Y-5136D01*
X20932Y-5575D01*
X20932Y-5649D01*
X20951Y-5744D01*
X21005Y-5825D01*
X21995Y-6815D01*
X21995Y-7266D01*
X21966Y-7294D01*
X21916Y-7414D01*
X21916Y-7545D01*
X21966Y-7665D01*
X22058Y-7757D01*
X22178Y-7807D01*
X22308Y-7807D01*
X22429Y-7757D01*
X22458Y-7728D01*
X26771Y-7728D01*
X26771Y-7728D01*
X26866Y-7709D01*
X26947Y-7655D01*
X27366Y-7236D01*
X27407Y-7236D01*
X27505Y-7196D01*
X27522Y-7221D01*
X27593Y-7269D01*
X27677Y-7285D01*
X27677Y-7285D01*
X27760Y-7269D01*
X27831Y-7221D01*
X28265Y-6788D01*
X28265Y-6788D01*
X28296Y-6741D01*
X28312Y-6717D01*
X28312Y-6717D01*
X28329Y-6633D01*
X28329Y-6633D01*
X28329Y-6621D01*
X28387Y-6563D01*
X28437Y-6443D01*
X28437Y-6313D01*
X28437Y-11699D01*
X28114Y-11376D01*
X27589Y-11158D01*
X27020Y-11157D01*
X26495Y-11374D01*
X26092Y-11776D01*
X25874Y-12301D01*
X25874Y-12870D01*
X26091Y-13396D01*
X26493Y-13798D01*
X27018Y-14016D01*
X27587Y-14017D01*
X28112Y-13800D01*
X28515Y-13398D01*
X28733Y-12872D01*
X28733Y-12304D01*
X28733Y-14387D01*
X25196Y-14387D01*
X25189Y-14388D01*
X25189Y-13033D01*
X25646Y-12576D01*
X25646Y-12576D01*
X25678Y-12528D01*
X25694Y-12505D01*
X25694Y-12505D01*
X25711Y-12421D01*
X25711Y-12421D01*
X25711Y-10708D01*
X25711Y-9074D01*
X25694Y-8991D01*
X25646Y-8920D01*
X24634Y-7907D01*
X24563Y-7860D01*
X24479Y-7843D01*
X23773Y-7843D01*
X23756Y-7802D01*
X23714Y-7760D01*
X23658Y-7737D01*
X23599Y-7737D01*
X23049Y-7737D01*
X22994Y-7760D01*
X22951Y-7802D01*
X22928Y-7857D01*
X22928Y-7917D01*
X22928Y-8158D01*
X22878Y-8137D01*
X22779Y-8137D01*
X22666Y-8137D01*
X22603Y-8199D01*
X22603Y-8512D01*
X22611Y-8512D01*
X22611Y-8612D01*
X22603Y-8612D01*
X22603Y-8620D01*
X22503Y-8620D01*
X22503Y-8612D01*
X22503Y-8512D01*
X22503Y-8199D01*
X22441Y-8137D01*
X22328Y-8137D01*
X22228Y-8137D01*
X22137Y-8175D01*
X22066Y-8245D01*
X22028Y-8337D01*
X22028Y-8449D01*
X22091Y-8512D01*
X22503Y-8512D01*
X22503Y-8612D01*
X22091Y-8612D01*
X22028Y-8674D01*
X22028Y-8786D01*
X22029Y-8787D01*
X22028Y-8787D01*
X21929Y-8787D01*
X21816Y-8787D01*
X21753Y-8849D01*
X21753Y-9162D01*
X21761Y-9162D01*
X21761Y-9262D01*
X21753Y-9262D01*
X21753Y-9270D01*
X21653Y-9270D01*
X21653Y-9262D01*
X21241Y-9262D01*
X21178Y-9324D01*
X21178Y-9436D01*
X21216Y-9528D01*
X21287Y-9599D01*
X21378Y-9637D01*
X21399Y-9637D01*
X21399Y-9637D01*
X21344Y-9660D01*
X21301Y-9702D01*
X21278Y-9757D01*
X21278Y-9817D01*
X21278Y-10167D01*
X21301Y-10222D01*
X21343Y-10264D01*
X21398Y-10287D01*
X21458Y-10287D01*
X21516Y-10287D01*
X21476Y-10327D01*
X21453Y-10382D01*
X21453Y-10442D01*
X21453Y-10992D01*
X21476Y-11047D01*
X21518Y-11089D01*
X21573Y-11112D01*
X21630Y-11112D01*
X21630Y-11130D01*
X21619Y-11135D01*
X21576Y-11177D01*
X21553Y-11232D01*
X21553Y-11288D01*
X21142Y-11288D01*
X21114Y-11260D01*
X21058Y-11237D01*
X20999Y-11237D01*
X20449Y-11237D01*
X20394Y-11260D01*
X20351Y-11302D01*
X20328Y-11357D01*
X20328Y-11417D01*
X20328Y-11767D01*
X20351Y-11822D01*
X20393Y-11864D01*
X20448Y-11887D01*
X20508Y-11887D01*
X21058Y-11887D01*
X21113Y-11864D01*
X21156Y-11822D01*
X21171Y-11785D01*
X21553Y-11785D01*
X21553Y-11842D01*
X21576Y-11897D01*
X21618Y-11939D01*
X21673Y-11962D01*
X21733Y-11962D01*
X21755Y-11962D01*
X21755Y-12034D01*
X21753Y-12038D01*
X21749Y-12027D01*
X21707Y-11984D01*
X21651Y-11961D01*
X21592Y-11961D01*
X21356Y-11961D01*
X21301Y-11984D01*
X21258Y-12026D01*
X21235Y-12081D01*
X21235Y-12138D01*
X21178Y-12138D01*
X21178Y-12107D01*
X21156Y-12052D01*
X21114Y-12010D01*
X21058Y-11987D01*
X20999Y-11987D01*
X20449Y-11987D01*
X20394Y-12010D01*
X20351Y-12052D01*
X20334Y-12093D01*
X20229Y-12093D01*
X19704Y-11568D01*
X19796Y-11606D01*
X19926Y-11606D01*
X20047Y-11557D01*
X20139Y-11465D01*
X20189Y-11344D01*
X20189Y-11214D01*
X20141Y-11098D01*
X20173Y-11112D01*
X20233Y-11112D01*
X20583Y-11112D01*
X20638Y-11089D01*
X20681Y-11047D01*
X20703Y-10992D01*
X20703Y-10992D01*
X20726Y-11047D01*
X20768Y-11089D01*
X20823Y-11112D01*
X20883Y-11112D01*
X21233Y-11112D01*
X21288Y-11089D01*
X21331Y-11047D01*
X21353Y-10992D01*
X21353Y-10932D01*
X21353Y-10382D01*
X21331Y-10327D01*
X21289Y-10285D01*
X21233Y-10262D01*
X21174Y-10262D01*
X20824Y-10262D01*
X20769Y-10285D01*
X20726Y-10327D01*
X20703Y-10382D01*
X20703Y-10382D01*
X20681Y-10327D01*
X20666Y-10312D01*
X20683Y-10312D01*
X20738Y-10289D01*
X20781Y-10247D01*
X20803Y-10192D01*
X20803Y-10132D01*
X20803Y-9582D01*
X20781Y-9527D01*
X20741Y-9487D01*
X20781Y-9447D01*
X20789Y-9427D01*
X20887Y-9407D01*
X21000Y-9332D01*
X21206Y-9127D01*
X21241Y-9162D01*
X21653Y-9162D01*
X21653Y-8849D01*
X21591Y-8787D01*
X21519Y-8787D01*
X21540Y-8754D01*
X21540Y-8754D01*
X21567Y-8622D01*
X21567Y-7204D01*
X21567Y-7204D01*
X21540Y-7071D01*
X21540Y-7071D01*
X21465Y-6959D01*
X21465Y-6959D01*
X21032Y-6526D01*
X20920Y-6451D01*
X20787Y-6424D01*
X18799Y-6424D01*
X17480Y-6424D01*
X17347Y-6451D01*
X17310Y-6476D01*
X17235Y-6526D01*
X15750Y-8011D01*
X15232Y-8011D01*
X15099Y-8037D01*
X14987Y-8113D01*
X14553Y-8546D01*
X14554Y-8382D01*
X14485Y-8216D01*
X14359Y-8090D01*
X14193Y-8021D01*
X14014Y-8021D01*
X13849Y-8089D01*
X13840Y-8098D01*
X13840Y-7933D01*
X13840Y-7933D01*
X13814Y-7800D01*
X13814Y-7800D01*
X13739Y-7687D01*
X13739Y-7687D01*
X13348Y-7297D01*
X13348Y-6122D01*
X13322Y-5989D01*
X13322Y-5989D01*
X13247Y-5876D01*
X12925Y-5555D01*
X12925Y-4370D01*
X12925Y-3012D01*
X12958Y-3012D01*
X13508Y-3012D01*
X13563Y-2989D01*
X13606Y-2947D01*
X13628Y-2892D01*
X13628Y-2832D01*
X13628Y-2282D01*
X13606Y-2227D01*
X13564Y-2185D01*
X13508Y-2162D01*
X13449Y-2162D01*
X12899Y-2162D01*
X12844Y-2185D01*
X12801Y-2227D01*
X12778Y-2282D01*
X12778Y-2342D01*
X12778Y-2445D01*
X11175Y-842D01*
X11126Y-809D01*
X12576Y-809D01*
X13362Y-809D01*
X14279Y-1726D01*
X14279Y-2511D01*
X14279Y-5187D01*
X14279Y-6088D01*
X14193Y-6053D01*
X14014Y-6053D01*
X13849Y-6121D01*
X13722Y-6248D01*
X13654Y-6413D01*
X13653Y-6592D01*
X13722Y-6757D01*
X13848Y-6884D01*
X14014Y-6953D01*
X14193Y-6953D01*
X14358Y-6885D01*
X14485Y-6758D01*
X14553Y-6593D01*
X14553Y-6530D01*
X15266Y-7243D01*
X15379Y-7318D01*
X15511Y-7344D01*
X15644Y-7318D01*
X15757Y-7243D01*
X15832Y-7130D01*
X15858Y-6998D01*
X15832Y-6865D01*
X15757Y-6752D01*
X14972Y-5968D01*
X14972Y-5187D01*
X14972Y-2511D01*
X14972Y-1582D01*
X14946Y-1449D01*
X14946Y-1449D01*
X14871Y-1337D01*
X13751Y-217D01*
X13694Y-179D01*
X15083Y-179D01*
X15174Y-271D01*
X15174Y-5511D01*
X15188Y-5580D01*
X15227Y-5638D01*
X15285Y-5677D01*
X15354Y-5691D01*
X20078Y-5691D01*
X20147Y-5677D01*
X20205Y-5638D01*
X20244Y-5580D01*
X20258Y-5511D01*
X20258Y-5118D01*
X20258Y-271D01*
X20349Y-179D01*
X22915Y-179D01*
X22903Y-207D01*
X22903Y-267D01*
X22903Y-867D01*
X22926Y-922D01*
X22968Y-964D01*
X23023Y-987D01*
X23083Y-987D01*
X23683Y-987D01*
X23738Y-964D01*
X23781Y-922D01*
X23803Y-867D01*
X23803Y-807D01*
X23803Y-207D01*
X23792Y-179D01*
X24075Y-179D01*
X23972Y-282D01*
X23904Y-447D01*
X23903Y-626D01*
X23972Y-791D01*
X24098Y-918D01*
X24264Y-987D01*
X24443Y-987D01*
X24608Y-919D01*
X24735Y-792D01*
X24803Y-627D01*
X24804Y-448D01*
X24735Y-282D01*
X24632Y-179D01*
X25075Y-179D01*
X24972Y-282D01*
X24904Y-447D01*
X24903Y-626D01*
X24972Y-791D01*
X25098Y-918D01*
X25264Y-987D01*
X25443Y-987D01*
X25608Y-919D01*
X25735Y-792D01*
X25803Y-627D01*
X25804Y-448D01*
X25735Y-282D01*
X25632Y-179D01*
X26075Y-179D01*
X25972Y-282D01*
X25904Y-447D01*
X25903Y-626D01*
X25972Y-791D01*
X26098Y-918D01*
X26264Y-987D01*
X26443Y-987D01*
X26608Y-919D01*
X26735Y-792D01*
X26803Y-627D01*
X26804Y-448D01*
X26735Y-282D01*
X26632Y-179D01*
X28862Y-179D01*
X28954Y-271D01*
X28954Y-14295D01*
M02*
