G04 (created by PCBNEW (2013-07-07 BZR 4022)-stable) date 11/09/2013 12:50:20*
%MOIN*%
G04 Gerber Fmt 3.4, Leading zero omitted, Abs format*
%FSLAX34Y34*%
G01*
G70*
G90*
G04 APERTURE LIST*
%ADD10C,0.00590551*%
%ADD11R,0.036X0.036*%
%ADD12R,0.0551X0.0236*%
%ADD13R,0.05X0.02*%
%ADD14R,0.035X0.055*%
%ADD15R,0.055X0.035*%
%ADD16C,0.045*%
%ADD17R,0.06X0.06*%
%ADD18C,0.06*%
%ADD19R,0.0196X0.0984*%
%ADD20R,0.0787X0.0984*%
%ADD21R,0.0098X0.0315*%
%ADD22R,0.0099X0.0315*%
%ADD23R,0.0315X0.0098*%
%ADD24R,0.0315X0.0099*%
%ADD25C,0.066*%
%ADD26R,0.055X0.055*%
%ADD27C,0.055*%
%ADD28C,0.255906*%
%ADD29C,0.0590551*%
%ADD30R,0.07X0.07*%
%ADD31C,0.07*%
%ADD32R,0.0787X0.0118*%
%ADD33R,0.0118X0.0787*%
%ADD34C,0.0354331*%
%ADD35C,0.019685*%
%ADD36C,0.0393701*%
%ADD37C,0.0137795*%
%ADD38C,0.0275591*%
%ADD39C,0.00984252*%
%ADD40C,0.01*%
G04 APERTURE END LIST*
G54D10*
G54D11*
X23518Y-9380D03*
X23518Y-8680D03*
X24318Y-9030D03*
X22953Y-13687D03*
X23653Y-13687D03*
X23303Y-14487D03*
G54D12*
X7682Y-5187D03*
X9782Y-5187D03*
X7682Y-4687D03*
X7682Y-4187D03*
X7682Y-3687D03*
X9782Y-4687D03*
X9782Y-4187D03*
X9782Y-3687D03*
G54D13*
X22942Y-2395D03*
X22942Y-2895D03*
X22942Y-3395D03*
X22942Y-3895D03*
X22942Y-4395D03*
X22942Y-4895D03*
X22942Y-5395D03*
X22942Y-5895D03*
X22942Y-6395D03*
X22942Y-6895D03*
X26742Y-6895D03*
X26742Y-6395D03*
X26742Y-5895D03*
X26742Y-5395D03*
X26742Y-4895D03*
X26742Y-4395D03*
X26742Y-3895D03*
X26742Y-3395D03*
X26742Y-2895D03*
X26742Y-2395D03*
G54D14*
X19565Y-16692D03*
X20315Y-16692D03*
X20060Y-17716D03*
X19310Y-17716D03*
G54D15*
X18503Y-16357D03*
X18503Y-17107D03*
G54D14*
X15453Y-15728D03*
X14703Y-15728D03*
G54D15*
X17814Y-16357D03*
X17814Y-17107D03*
G54D14*
X15176Y-8464D03*
X15926Y-8464D03*
X15176Y-9251D03*
X15926Y-9251D03*
G54D15*
X17728Y-9837D03*
X17728Y-10587D03*
G54D14*
X15928Y-14937D03*
X15178Y-14937D03*
X19310Y-15157D03*
X20060Y-15157D03*
X19503Y-11812D03*
X20253Y-11812D03*
X9578Y-21087D03*
X8828Y-21087D03*
X6078Y-21087D03*
X5328Y-21087D03*
G54D15*
X6666Y-4409D03*
X6666Y-3659D03*
X5682Y-2834D03*
X5682Y-2084D03*
X5682Y-4409D03*
X5682Y-3659D03*
G54D14*
X22743Y-7930D03*
X23493Y-7930D03*
G54D15*
X6666Y-2834D03*
X6666Y-2084D03*
X22803Y-12962D03*
X22803Y-12212D03*
X22818Y-9405D03*
X22818Y-8655D03*
X23303Y-17912D03*
X23303Y-18662D03*
X24103Y-17912D03*
X24103Y-18662D03*
X22503Y-17912D03*
X22503Y-18662D03*
G54D14*
X25693Y-9530D03*
X24943Y-9530D03*
G54D15*
X23703Y-15112D03*
X23703Y-15862D03*
X22903Y-15112D03*
X22903Y-15862D03*
X23703Y-12212D03*
X23703Y-12962D03*
G54D14*
X24943Y-8430D03*
X25693Y-8430D03*
G54D15*
X11803Y-20212D03*
X11803Y-19462D03*
X10603Y-4262D03*
X10603Y-3512D03*
X4698Y-4409D03*
X4698Y-3659D03*
X12716Y-4705D03*
X12716Y-3955D03*
X13484Y-4705D03*
X13484Y-3955D03*
X8303Y-2962D03*
X8303Y-2212D03*
X9103Y-2962D03*
X9103Y-2212D03*
G54D14*
X2540Y-15748D03*
X1790Y-15748D03*
X2540Y-16732D03*
X1790Y-16732D03*
G54D16*
X21003Y-19687D03*
X21003Y-18287D03*
X21003Y-18987D03*
G54D17*
X23353Y-537D03*
G54D18*
X24353Y-537D03*
X25353Y-537D03*
X26353Y-537D03*
G54D17*
X21353Y-21287D03*
G54D18*
X22353Y-21287D03*
X23353Y-21287D03*
X24353Y-21287D03*
G54D17*
X889Y-2074D03*
G54D18*
X889Y-1074D03*
X1889Y-2074D03*
X1889Y-1074D03*
X2889Y-2074D03*
X2889Y-1074D03*
G54D17*
X12803Y-21287D03*
G54D18*
X13803Y-21287D03*
X14803Y-21287D03*
G54D17*
X11803Y-21287D03*
G54D18*
X10803Y-21287D03*
G54D17*
X14803Y-18787D03*
G54D18*
X13803Y-18787D03*
G54D17*
X6903Y-537D03*
G54D18*
X5903Y-537D03*
G54D17*
X3903Y-537D03*
G54D18*
X4903Y-537D03*
G54D17*
X23303Y-19687D03*
G54D18*
X24303Y-19687D03*
X14103Y-6503D03*
X14103Y-8471D03*
G54D19*
X18307Y-18799D03*
X17993Y-18799D03*
X18936Y-18799D03*
G54D20*
X20078Y-20963D03*
X16536Y-20963D03*
X20039Y-18799D03*
X16536Y-18799D03*
G54D19*
X18621Y-18799D03*
X17678Y-18799D03*
G54D21*
X16634Y-11772D03*
G54D22*
X16831Y-11772D03*
X17028Y-11772D03*
X17225Y-11772D03*
G54D21*
X17421Y-11772D03*
X17618Y-11772D03*
X17814Y-11772D03*
X18011Y-11772D03*
G54D22*
X18207Y-11772D03*
X18404Y-11772D03*
X18601Y-11772D03*
G54D21*
X18798Y-11772D03*
G54D23*
X19329Y-12303D03*
G54D24*
X19329Y-12500D03*
X19329Y-12697D03*
X19329Y-12894D03*
G54D23*
X19329Y-13090D03*
X19329Y-13287D03*
X19329Y-13483D03*
X19329Y-13680D03*
G54D24*
X19329Y-13876D03*
X19329Y-14073D03*
X19329Y-14270D03*
G54D23*
X19329Y-14467D03*
G54D21*
X16634Y-14998D03*
G54D22*
X16831Y-14998D03*
X17028Y-14998D03*
X17225Y-14998D03*
G54D21*
X17421Y-14998D03*
X17618Y-14998D03*
X17814Y-14998D03*
X18011Y-14998D03*
G54D22*
X18207Y-14998D03*
X18404Y-14998D03*
X18601Y-14998D03*
G54D21*
X18798Y-14998D03*
G54D23*
X16103Y-12303D03*
G54D24*
X16103Y-12500D03*
X16103Y-12697D03*
X16103Y-12894D03*
G54D23*
X16103Y-13090D03*
X16103Y-13287D03*
X16103Y-13483D03*
X16103Y-13680D03*
G54D24*
X16103Y-13876D03*
X16103Y-14073D03*
X16103Y-14270D03*
G54D23*
X16103Y-14467D03*
G54D25*
X8103Y-21087D03*
X7103Y-21087D03*
X4603Y-21087D03*
X3603Y-21087D03*
G54D26*
X11403Y-8987D03*
G54D27*
X11403Y-5987D03*
G54D26*
X7803Y-19387D03*
G54D27*
X7803Y-16387D03*
X16903Y-9637D03*
X18903Y-9637D03*
G54D11*
X26418Y-9380D03*
X26418Y-8680D03*
X27218Y-9030D03*
G54D26*
X13203Y-2587D03*
G54D27*
X10203Y-2587D03*
G54D28*
X1771Y-20078D03*
X1803Y-4487D03*
X27303Y-12587D03*
G54D11*
X22953Y-16487D03*
X23653Y-16487D03*
X23303Y-17287D03*
G54D29*
X6103Y-19777D03*
X6103Y-5997D03*
X9403Y-19777D03*
X9403Y-5997D03*
G54D14*
X15803Y-10612D03*
X16553Y-10612D03*
X1790Y-17716D03*
X2540Y-17716D03*
G54D17*
X787Y-17688D03*
G54D18*
X787Y-16688D03*
X787Y-15688D03*
X787Y-14688D03*
X787Y-13688D03*
X787Y-12688D03*
X787Y-11688D03*
X787Y-10688D03*
X787Y-9688D03*
X787Y-8688D03*
X787Y-7688D03*
G54D30*
X4203Y-14687D03*
G54D31*
X2203Y-14687D03*
G54D30*
X11253Y-16637D03*
G54D31*
X13253Y-16637D03*
G54D15*
X4015Y-9607D03*
X4015Y-8857D03*
X5118Y-12223D03*
X5118Y-12973D03*
X4114Y-12420D03*
X4114Y-13170D03*
X2047Y-11278D03*
X2047Y-12028D03*
G54D32*
X2814Y-11180D03*
X2814Y-10866D03*
X2814Y-10551D03*
X2814Y-10236D03*
X2814Y-11495D03*
X2814Y-11810D03*
G54D33*
X3444Y-12047D03*
G54D32*
X4074Y-10866D03*
X4074Y-11180D03*
X4074Y-11495D03*
X4074Y-11810D03*
X4074Y-10551D03*
X4074Y-10236D03*
G54D33*
X3444Y-9999D03*
G54D34*
X17076Y-8021D03*
X15511Y-6998D03*
X5053Y-1237D03*
X24980Y-12204D03*
X24940Y-10216D03*
X12881Y-9354D03*
X14803Y-12224D03*
X13035Y-9858D03*
X13385Y-11476D03*
X9232Y-11673D03*
X14492Y-11889D03*
X8641Y-14291D03*
X6003Y-8720D03*
X7460Y-7263D03*
X22401Y-2381D03*
X27342Y-6909D03*
X22244Y-7480D03*
X27322Y-6397D03*
X28110Y-6377D03*
X27263Y-2893D03*
X28090Y-2893D03*
X4744Y-11496D03*
X3208Y-14921D03*
X12893Y-14862D03*
X12165Y-14645D03*
X13342Y-12681D03*
X20748Y-13622D03*
X4153Y-6240D03*
X3090Y-16870D03*
X4783Y-10629D03*
X11712Y-15059D03*
X13681Y-14783D03*
X13803Y-12622D03*
X20413Y-13228D03*
X3562Y-6240D03*
X14232Y-15019D03*
X7803Y-1587D03*
X8444Y-16299D03*
X9448Y-16732D03*
X8287Y-13838D03*
X7283Y-12637D03*
X8110Y-10905D03*
X13129Y-12283D03*
X16850Y-16614D03*
X19114Y-17125D03*
X3031Y-12342D03*
X2539Y-9173D03*
X14074Y-1751D03*
X24370Y-10846D03*
X13129Y-3346D03*
X11948Y-3307D03*
X21771Y-8523D03*
X24547Y-13720D03*
X20787Y-6023D03*
X15688Y-11574D03*
X27893Y-5118D03*
X27893Y-4133D03*
X21535Y-5098D03*
X21535Y-4133D03*
X21535Y-4625D03*
X27893Y-4625D03*
X18956Y-13090D03*
X14763Y-13681D03*
X9074Y-13602D03*
X1783Y-7145D03*
X8842Y-1606D03*
X19110Y-15732D03*
X15944Y-15929D03*
X25326Y-10775D03*
X21535Y-13681D03*
X20757Y-14862D03*
X20866Y-15708D03*
X19862Y-11279D03*
X12145Y-18838D03*
X14409Y-16496D03*
X15413Y-10098D03*
X16555Y-8681D03*
G54D35*
X22334Y-19268D02*
X22353Y-19287D01*
X22353Y-19287D02*
X22353Y-21287D01*
X22953Y-16487D02*
X22003Y-17437D01*
X22003Y-18937D02*
X22003Y-17437D01*
X22334Y-19268D02*
X22003Y-18937D01*
G54D36*
X17076Y-8021D02*
X16053Y-6998D01*
X16053Y-6998D02*
X15511Y-6998D01*
X4953Y-1137D02*
X3903Y-1137D01*
X5053Y-1237D02*
X4953Y-1137D01*
X3903Y-1887D02*
X3903Y-1137D01*
X3903Y-1137D02*
X3903Y-537D01*
G54D37*
X24251Y-14960D02*
X24251Y-14173D01*
X22903Y-15757D02*
X23169Y-15492D01*
X23169Y-15492D02*
X24074Y-15492D01*
X24074Y-15492D02*
X24251Y-15314D01*
X24251Y-15314D02*
X24251Y-14960D01*
X22903Y-15862D02*
X22903Y-15757D01*
X24370Y-12814D02*
X24980Y-12204D01*
X24370Y-13090D02*
X24370Y-12814D01*
X24192Y-13267D02*
X24370Y-13090D01*
X24192Y-14114D02*
X24192Y-13267D01*
X24251Y-14173D02*
X24192Y-14114D01*
X25693Y-9530D02*
X25693Y-9720D01*
X25693Y-9720D02*
X25196Y-10216D01*
X25196Y-10216D02*
X24940Y-10216D01*
G54D36*
X787Y-9688D02*
X787Y-9645D01*
X4078Y-4462D02*
X4078Y-2062D01*
X2478Y-6062D02*
X4078Y-4462D01*
X1528Y-6062D02*
X2478Y-6062D01*
X203Y-7387D02*
X1528Y-6062D01*
X203Y-9062D02*
X203Y-7387D01*
X787Y-9645D02*
X203Y-9062D01*
X3903Y-1887D02*
X4078Y-2062D01*
X4078Y-2062D02*
X4103Y-2087D01*
X4103Y-2087D02*
X4103Y-5012D01*
X787Y-10688D02*
X787Y-9688D01*
X6666Y-3659D02*
X6666Y-2834D01*
X5682Y-3659D02*
X5682Y-2834D01*
X6666Y-3659D02*
X4698Y-3659D01*
X5682Y-3659D02*
X5676Y-3659D01*
X5676Y-3659D02*
X3903Y-1887D01*
X11403Y-8987D02*
X11403Y-7562D01*
X11403Y-7562D02*
X10728Y-6887D01*
X10728Y-6887D02*
X8503Y-6887D01*
X8503Y-6887D02*
X6728Y-5112D01*
X6728Y-5112D02*
X4203Y-5112D01*
X4203Y-5112D02*
X4103Y-5012D01*
G54D38*
X5682Y-3659D02*
X5682Y-3641D01*
X5682Y-3641D02*
X3903Y-1862D01*
G54D35*
X5682Y-3659D02*
X4698Y-3659D01*
X6666Y-3659D02*
X5682Y-3659D01*
X7682Y-4187D02*
X7429Y-4187D01*
X6901Y-3659D02*
X6666Y-3659D01*
X7429Y-4187D02*
X6901Y-3659D01*
X26418Y-9380D02*
X25843Y-9380D01*
X25843Y-9380D02*
X25693Y-9530D01*
X22953Y-16487D02*
X22953Y-15912D01*
X22953Y-15912D02*
X22903Y-15862D01*
G54D37*
X8582Y-10196D02*
X6417Y-10196D01*
X5511Y-8523D02*
X5799Y-8236D01*
X5511Y-9291D02*
X5511Y-8523D01*
X6417Y-10196D02*
X5511Y-9291D01*
X5799Y-8236D02*
X5968Y-8236D01*
X5976Y-8228D02*
X5968Y-8236D01*
X8405Y-8228D02*
X5976Y-8228D01*
X12881Y-9354D02*
X12858Y-9377D01*
X12858Y-9377D02*
X11842Y-9377D01*
X11842Y-9377D02*
X11771Y-9448D01*
X11771Y-9448D02*
X9625Y-9448D01*
X9625Y-9448D02*
X8405Y-8228D01*
G54D39*
X15925Y-12303D02*
X15078Y-11456D01*
X16103Y-12303D02*
X15925Y-12303D01*
X8740Y-10196D02*
X8582Y-10196D01*
X8956Y-10413D02*
X8740Y-10196D01*
X14232Y-10413D02*
X8956Y-10413D01*
X15078Y-11259D02*
X14232Y-10413D01*
X15078Y-11456D02*
X15078Y-11259D01*
X16103Y-12894D02*
X15394Y-12894D01*
X14803Y-12381D02*
X14803Y-12224D01*
X15000Y-12578D02*
X14803Y-12381D01*
X15078Y-12578D02*
X15000Y-12578D01*
X15394Y-12894D02*
X15078Y-12578D01*
G54D37*
X13051Y-9842D02*
X14488Y-9842D01*
X13035Y-9858D02*
X13051Y-9842D01*
X14488Y-9842D02*
X15354Y-10708D01*
G54D39*
X16161Y-11240D02*
X16122Y-11240D01*
X15354Y-10846D02*
X15354Y-10826D01*
X15551Y-11043D02*
X15354Y-10846D01*
X15925Y-11043D02*
X15551Y-11043D01*
X16122Y-11240D02*
X15925Y-11043D01*
X16692Y-11240D02*
X16831Y-11378D01*
X16161Y-11240D02*
X16692Y-11240D01*
X16831Y-11772D02*
X16831Y-11378D01*
G54D37*
X15354Y-10826D02*
X15354Y-10708D01*
G54D36*
X13173Y-11673D02*
X13188Y-11673D01*
X13188Y-11673D02*
X13385Y-11476D01*
X13149Y-11673D02*
X13173Y-11673D01*
X13188Y-11673D02*
X13385Y-11476D01*
X9232Y-11673D02*
X13149Y-11673D01*
G54D39*
X14574Y-12460D02*
X14476Y-12362D01*
X14476Y-11905D02*
X14492Y-11889D01*
X14476Y-12362D02*
X14476Y-11905D01*
X16103Y-13090D02*
X15315Y-13090D01*
X14586Y-12460D02*
X14574Y-12460D01*
X14901Y-12775D02*
X14586Y-12460D01*
X15000Y-12775D02*
X14901Y-12775D01*
X15315Y-13090D02*
X15000Y-12775D01*
G54D38*
X4203Y-14687D02*
X4879Y-14687D01*
X5275Y-14291D02*
X8641Y-14291D01*
X4879Y-14687D02*
X5275Y-14291D01*
G54D36*
X787Y-8688D02*
X787Y-7688D01*
G54D37*
X14980Y-10767D02*
X14409Y-10196D01*
X9064Y-10196D02*
X8690Y-9822D01*
X14409Y-10196D02*
X9064Y-10196D01*
X8690Y-9822D02*
X7106Y-9822D01*
X7106Y-9822D02*
X6003Y-8720D01*
G54D39*
X16062Y-11437D02*
X16023Y-11437D01*
X15452Y-11240D02*
X14980Y-10767D01*
X15826Y-11240D02*
X15452Y-11240D01*
X16023Y-11437D02*
X15826Y-11240D01*
X16634Y-11772D02*
X16634Y-11477D01*
X16594Y-11437D02*
X16062Y-11437D01*
X16634Y-11477D02*
X16594Y-11437D01*
G54D37*
X6437Y-10511D02*
X6240Y-10511D01*
X6948Y-7775D02*
X7460Y-7263D01*
X5807Y-7775D02*
X6948Y-7775D01*
X5216Y-8366D02*
X5807Y-7775D01*
X5216Y-9488D02*
X5216Y-8366D01*
X6240Y-10511D02*
X5216Y-9488D01*
X8531Y-10519D02*
X8740Y-10728D01*
X8740Y-10728D02*
X14192Y-10728D01*
G54D39*
X16103Y-12500D02*
X15855Y-12500D01*
X14862Y-11507D02*
X14862Y-11397D01*
X15855Y-12500D02*
X14862Y-11507D01*
X14862Y-11397D02*
X14192Y-10728D01*
X8531Y-10519D02*
X8523Y-10511D01*
G54D37*
X8523Y-10511D02*
X7027Y-10511D01*
X6437Y-10511D02*
X7027Y-10511D01*
G54D39*
X18207Y-14998D02*
X18207Y-16060D01*
X18207Y-16060D02*
X18503Y-16357D01*
X18011Y-14998D02*
X18011Y-16160D01*
X18011Y-16160D02*
X17814Y-16357D01*
G54D35*
X11803Y-21287D02*
X11803Y-20212D01*
G54D37*
X16515Y-16909D02*
X16496Y-16909D01*
X16496Y-16909D02*
X16299Y-17106D01*
X15531Y-17106D02*
X16299Y-17106D01*
X15236Y-17401D02*
X15531Y-17106D01*
X14980Y-17401D02*
X15236Y-17401D01*
X12386Y-20212D02*
X13070Y-19527D01*
X13070Y-19527D02*
X13070Y-18464D01*
X13070Y-18464D02*
X13877Y-17657D01*
X13877Y-17657D02*
X14724Y-17657D01*
X14724Y-17657D02*
X14980Y-17401D01*
X11803Y-20212D02*
X12386Y-20212D01*
G54D39*
X17225Y-15471D02*
X17225Y-14998D01*
X16712Y-15984D02*
X17225Y-15471D01*
G54D37*
X16712Y-16279D02*
X16712Y-15984D01*
X16515Y-16476D02*
X16712Y-16279D01*
X16515Y-16909D02*
X16515Y-16476D01*
G54D35*
X11803Y-21087D02*
X11803Y-20212D01*
G54D39*
X16831Y-14998D02*
X16831Y-15255D01*
G54D37*
X6078Y-20889D02*
X6078Y-21087D01*
X6456Y-20511D02*
X6078Y-20889D01*
X9921Y-20511D02*
X6456Y-20511D01*
X10826Y-19606D02*
X9921Y-20511D01*
X10826Y-19074D02*
X10826Y-19606D01*
X11870Y-18031D02*
X10826Y-19074D01*
X12775Y-18031D02*
X11870Y-18031D01*
X13740Y-17066D02*
X12775Y-18031D01*
X14547Y-17066D02*
X13740Y-17066D01*
X14744Y-16870D02*
X14547Y-17066D01*
X15059Y-16870D02*
X14744Y-16870D01*
X15334Y-16594D02*
X15059Y-16870D01*
X15964Y-16594D02*
X15334Y-16594D01*
X16062Y-16496D02*
X15964Y-16594D01*
G54D39*
X16062Y-16299D02*
X16062Y-16496D01*
X16299Y-16062D02*
X16062Y-16299D01*
X16299Y-15787D02*
X16299Y-16062D01*
X16831Y-15255D02*
X16299Y-15787D01*
G54D37*
X9578Y-21087D02*
X10113Y-21087D01*
G54D39*
X17028Y-15373D02*
X17028Y-14998D01*
X16496Y-15905D02*
X17028Y-15373D01*
X16496Y-16181D02*
X16496Y-15905D01*
X16299Y-16377D02*
X16496Y-16181D01*
X16299Y-16712D02*
X16299Y-16377D01*
X16161Y-16850D02*
X16299Y-16712D01*
X15826Y-16850D02*
X16161Y-16850D01*
G54D37*
X15433Y-16850D02*
X15826Y-16850D01*
X15157Y-17125D02*
X15433Y-16850D01*
X14862Y-17125D02*
X15157Y-17125D01*
X14665Y-17322D02*
X14862Y-17125D01*
X13877Y-17322D02*
X14665Y-17322D01*
X12893Y-18307D02*
X13877Y-17322D01*
X12007Y-18307D02*
X12893Y-18307D01*
X11102Y-19212D02*
X12007Y-18307D01*
X11102Y-20098D02*
X11102Y-19212D01*
X10113Y-21087D02*
X11102Y-20098D01*
G54D39*
X20826Y-13956D02*
X20875Y-13956D01*
X21970Y-12212D02*
X22803Y-12212D01*
X21072Y-13110D02*
X21970Y-12212D01*
X21072Y-13759D02*
X21072Y-13110D01*
X20875Y-13956D02*
X21072Y-13759D01*
X19329Y-13680D02*
X19684Y-13680D01*
X19960Y-13956D02*
X20826Y-13956D01*
X19684Y-13680D02*
X19960Y-13956D01*
G54D35*
X22803Y-12212D02*
X23703Y-12212D01*
G54D39*
X19852Y-10226D02*
X19852Y-8198D01*
X20570Y-7480D02*
X22244Y-7480D01*
X19852Y-8198D02*
X20570Y-7480D01*
X18601Y-11772D02*
X18601Y-11477D01*
X18601Y-11477D02*
X19852Y-10226D01*
G54D35*
X22401Y-2381D02*
X22415Y-2395D01*
X22415Y-2395D02*
X22942Y-2395D01*
X26742Y-6895D02*
X27328Y-6895D01*
X27328Y-6895D02*
X27342Y-6909D01*
G54D39*
X27342Y-6909D02*
X27328Y-6895D01*
G54D35*
X22743Y-7930D02*
X22694Y-7930D01*
X22694Y-7930D02*
X22244Y-7480D01*
X22818Y-8655D02*
X22818Y-8005D01*
X22818Y-8005D02*
X22743Y-7930D01*
G54D37*
X28110Y-8149D02*
X28110Y-9724D01*
X25177Y-11496D02*
X21732Y-11496D01*
X25846Y-10826D02*
X25177Y-11496D01*
X27007Y-10826D02*
X25846Y-10826D01*
X28110Y-9724D02*
X27007Y-10826D01*
X27320Y-6395D02*
X26742Y-6395D01*
X27320Y-6395D02*
X27322Y-6397D01*
G54D39*
X19329Y-12697D02*
X20254Y-12697D01*
G54D37*
X20688Y-12539D02*
X21732Y-11496D01*
X20413Y-12539D02*
X20688Y-12539D01*
G54D39*
X20254Y-12697D02*
X20413Y-12539D01*
G54D37*
X28110Y-6377D02*
X28110Y-8149D01*
X28661Y-8641D02*
X28661Y-9527D01*
X25275Y-11751D02*
X21889Y-11751D01*
X25944Y-11082D02*
X25275Y-11751D01*
X27106Y-11082D02*
X25944Y-11082D01*
X28661Y-9527D02*
X27106Y-11082D01*
X28090Y-2893D02*
X28661Y-3464D01*
X28661Y-3464D02*
X28661Y-8641D01*
X27261Y-2895D02*
X26742Y-2895D01*
X27263Y-2893D02*
X27261Y-2895D01*
X20846Y-12795D02*
X21889Y-11751D01*
G54D39*
X20590Y-12795D02*
X20846Y-12795D01*
X20491Y-12894D02*
X20590Y-12795D01*
X19329Y-12894D02*
X20491Y-12894D01*
G54D37*
X22942Y-2895D02*
X20765Y-2895D01*
X19429Y-6535D02*
X19429Y-6850D01*
X20354Y-5610D02*
X19429Y-6535D01*
X20354Y-3307D02*
X20354Y-5610D01*
X20765Y-2895D02*
X20354Y-3307D01*
G54D39*
X19429Y-6850D02*
X19429Y-9921D01*
X18207Y-11772D02*
X18207Y-11241D01*
X18207Y-11241D02*
X18848Y-10600D01*
X18848Y-10501D02*
X19429Y-9921D01*
X18848Y-10600D02*
X18848Y-10501D01*
X19645Y-10118D02*
X19645Y-7696D01*
X20946Y-6395D02*
X22942Y-6395D01*
X19645Y-7696D02*
X20946Y-6395D01*
X18404Y-11497D02*
X18404Y-11359D01*
X18404Y-11359D02*
X19645Y-10118D01*
X18404Y-11772D02*
X18404Y-11497D01*
G54D38*
X26742Y-5895D02*
X26012Y-5895D01*
X25353Y-5237D02*
X25353Y-537D01*
X26012Y-5895D02*
X25353Y-5237D01*
X26742Y-3395D02*
X26262Y-3395D01*
X26153Y-737D02*
X26353Y-537D01*
X26153Y-3287D02*
X26153Y-737D01*
X26262Y-3395D02*
X26153Y-3287D01*
X22942Y-5895D02*
X23845Y-5895D01*
X24353Y-5387D02*
X24353Y-537D01*
X23845Y-5895D02*
X24353Y-5387D01*
X22942Y-3395D02*
X23345Y-3395D01*
X23553Y-737D02*
X23353Y-537D01*
X23553Y-3187D02*
X23553Y-737D01*
X23345Y-3395D02*
X23553Y-3187D01*
G54D35*
X13803Y-21287D02*
X13803Y-20329D01*
G54D39*
X17814Y-14998D02*
X17814Y-15728D01*
X17401Y-16830D02*
X17263Y-16968D01*
X17401Y-16122D02*
X17401Y-16830D01*
X17480Y-16043D02*
X17401Y-16122D01*
X17500Y-16043D02*
X17480Y-16043D01*
X17814Y-15728D02*
X17500Y-16043D01*
G54D35*
X13803Y-21087D02*
X13803Y-20329D01*
X13803Y-20329D02*
X14311Y-19822D01*
X14311Y-19822D02*
X14311Y-18464D01*
X14311Y-18464D02*
X14311Y-18307D01*
G54D39*
X17263Y-16968D02*
X16594Y-17637D01*
X16594Y-17637D02*
X15885Y-17637D01*
X15885Y-17637D02*
X15708Y-17814D01*
G54D35*
X15236Y-18287D02*
X15708Y-17814D01*
X14330Y-18287D02*
X15236Y-18287D01*
X14311Y-18307D02*
X14330Y-18287D01*
G54D39*
X14311Y-19822D02*
X13803Y-20329D01*
X14311Y-18464D02*
X14311Y-19822D01*
X3188Y-15275D02*
X3188Y-14940D01*
X4743Y-11495D02*
X4074Y-11495D01*
X4744Y-11496D02*
X4743Y-11495D01*
X3188Y-14940D02*
X3208Y-14921D01*
G54D37*
X12893Y-14862D02*
X12893Y-14842D01*
X13622Y-14114D02*
X13976Y-14114D01*
X12893Y-14842D02*
X13622Y-14114D01*
X4803Y-15275D02*
X4862Y-15275D01*
X5433Y-14704D02*
X9055Y-14704D01*
X4862Y-15275D02*
X5433Y-14704D01*
X1790Y-15748D02*
X1790Y-15473D01*
X1790Y-15473D02*
X1988Y-15275D01*
X1988Y-15275D02*
X3188Y-15275D01*
X3188Y-15275D02*
X4803Y-15275D01*
X9055Y-14704D02*
X12106Y-14704D01*
G54D39*
X15040Y-13876D02*
X14901Y-14015D01*
X14901Y-14015D02*
X14074Y-14015D01*
X14074Y-14015D02*
X13976Y-14114D01*
X16103Y-13876D02*
X15040Y-13876D01*
G54D37*
X12106Y-14704D02*
X12165Y-14645D01*
G54D39*
X1988Y-15275D02*
X1790Y-15473D01*
G54D38*
X1790Y-15748D02*
X1731Y-15688D01*
X1731Y-15688D02*
X787Y-15688D01*
G54D37*
X8366Y-11358D02*
X7972Y-11358D01*
X7972Y-11358D02*
X7834Y-11220D01*
X4862Y-6948D02*
X4153Y-6240D01*
X4862Y-9645D02*
X4862Y-6948D01*
X6043Y-10826D02*
X4862Y-9645D01*
X7440Y-10826D02*
X6043Y-10826D01*
X7834Y-11220D02*
X7440Y-10826D01*
X13299Y-12637D02*
X13082Y-12637D01*
X13342Y-12681D02*
X13299Y-12637D01*
G54D39*
X20748Y-13622D02*
X20275Y-13622D01*
X20137Y-13483D02*
X19329Y-13483D01*
X20275Y-13622D02*
X20137Y-13483D01*
G54D37*
X9645Y-12637D02*
X13082Y-12637D01*
X8366Y-11358D02*
X9645Y-12637D01*
G54D39*
X4074Y-11180D02*
X4567Y-11180D01*
X3090Y-16870D02*
X3090Y-17224D01*
X4783Y-10964D02*
X4783Y-10629D01*
X4567Y-11180D02*
X4783Y-10964D01*
G54D37*
X2913Y-17224D02*
X3090Y-17224D01*
X3090Y-17224D02*
X5393Y-17224D01*
X11240Y-15531D02*
X11712Y-15059D01*
X7086Y-15531D02*
X11240Y-15531D01*
X5393Y-17224D02*
X7086Y-15531D01*
X1790Y-16732D02*
X1790Y-16750D01*
X1790Y-16750D02*
X2263Y-17224D01*
X2263Y-17224D02*
X2913Y-17224D01*
G54D39*
X15335Y-14073D02*
X16103Y-14073D01*
X15078Y-14330D02*
X15335Y-14073D01*
X14468Y-14330D02*
X15078Y-14330D01*
X14291Y-14507D02*
X14468Y-14330D01*
G54D37*
X13956Y-14507D02*
X14291Y-14507D01*
X13681Y-14783D02*
X13956Y-14507D01*
G54D38*
X1790Y-16732D02*
X1747Y-16688D01*
X1747Y-16688D02*
X787Y-16688D01*
G54D37*
X8110Y-11732D02*
X7952Y-11732D01*
X4468Y-7145D02*
X3562Y-6240D01*
X4468Y-9744D02*
X4468Y-7145D01*
X5787Y-11062D02*
X4468Y-9744D01*
X7283Y-11062D02*
X5787Y-11062D01*
X7952Y-11732D02*
X7283Y-11062D01*
X13803Y-12708D02*
X13480Y-13031D01*
X13803Y-12622D02*
X13803Y-12708D01*
G54D39*
X20353Y-13287D02*
X19329Y-13287D01*
X20413Y-13228D02*
X20353Y-13287D01*
G54D37*
X9409Y-13031D02*
X13480Y-13031D01*
X8110Y-11732D02*
X9409Y-13031D01*
G54D36*
X12161Y-16637D02*
X13464Y-15334D01*
X13464Y-15334D02*
X13818Y-15334D01*
X13818Y-15334D02*
X14133Y-15019D01*
X14133Y-15019D02*
X14232Y-15019D01*
X11253Y-16637D02*
X12161Y-16637D01*
X6903Y-1187D02*
X6903Y-537D01*
X7303Y-1587D02*
X6903Y-1187D01*
X7803Y-1587D02*
X7303Y-1587D01*
X9403Y-19777D02*
X9403Y-17612D01*
X10378Y-16637D02*
X11253Y-16637D01*
X9403Y-17612D02*
X10378Y-16637D01*
G54D39*
X16103Y-12697D02*
X15768Y-12697D01*
X14625Y-11555D02*
X14625Y-11476D01*
X15768Y-12697D02*
X14625Y-11555D01*
G54D37*
X8110Y-10905D02*
X8366Y-10905D01*
X8366Y-10905D02*
X8543Y-11082D01*
X8543Y-11082D02*
X14232Y-11082D01*
X14232Y-11082D02*
X14625Y-11476D01*
X8287Y-13838D02*
X8287Y-13641D01*
X8287Y-13641D02*
X7283Y-12637D01*
X9015Y-16299D02*
X8444Y-16299D01*
X9448Y-16732D02*
X9015Y-16299D01*
G54D39*
X8543Y-11082D02*
X8366Y-10905D01*
X19921Y-14645D02*
X20196Y-14645D01*
X21417Y-15629D02*
X21417Y-17578D01*
X21023Y-15236D02*
X21417Y-15629D01*
X20551Y-15236D02*
X21023Y-15236D01*
X20393Y-15078D02*
X20551Y-15236D01*
X20393Y-14842D02*
X20393Y-15078D01*
X20196Y-14645D02*
X20393Y-14842D01*
X19329Y-14467D02*
X19743Y-14467D01*
X19743Y-14467D02*
X19921Y-14645D01*
X21003Y-18287D02*
X21003Y-17992D01*
X21003Y-17992D02*
X21417Y-17578D01*
X18404Y-14998D02*
X18404Y-15471D01*
X20807Y-16338D02*
X20807Y-17874D01*
X20708Y-16240D02*
X20807Y-16338D01*
X19173Y-16240D02*
X20708Y-16240D01*
X18404Y-15471D02*
X19173Y-16240D01*
X20807Y-17874D02*
X20603Y-18077D01*
X20603Y-18587D02*
X21003Y-18987D01*
X20603Y-18077D02*
X20603Y-18587D01*
X13622Y-12303D02*
X13149Y-12303D01*
X13149Y-12303D02*
X13129Y-12283D01*
X14921Y-12972D02*
X14803Y-12972D01*
X14035Y-12303D02*
X13622Y-12303D01*
X14251Y-12519D02*
X14035Y-12303D01*
X14251Y-12657D02*
X14251Y-12519D01*
X14311Y-12716D02*
X14251Y-12657D01*
X14547Y-12716D02*
X14311Y-12716D01*
X14803Y-12972D02*
X14547Y-12716D01*
X16103Y-13287D02*
X15236Y-13287D01*
X15236Y-13287D02*
X14921Y-12972D01*
G54D35*
X12803Y-21287D02*
X12803Y-20385D01*
G54D39*
X17204Y-16437D02*
X17204Y-16751D01*
X16614Y-17342D02*
X16299Y-17342D01*
X17204Y-16751D02*
X16614Y-17342D01*
X17618Y-15511D02*
X17618Y-15649D01*
X17204Y-16062D02*
X17204Y-16437D01*
X17618Y-15649D02*
X17204Y-16062D01*
X17618Y-14998D02*
X17618Y-15511D01*
G54D37*
X12803Y-20385D02*
X12803Y-21087D01*
G54D39*
X16299Y-17342D02*
X15748Y-17342D01*
X15748Y-17342D02*
X15354Y-17736D01*
X15354Y-17736D02*
X15137Y-17736D01*
G54D37*
X15137Y-17736D02*
X14881Y-17992D01*
X14881Y-17992D02*
X14153Y-17992D01*
X14153Y-17992D02*
X13838Y-18307D01*
X13838Y-18307D02*
X13602Y-18307D01*
X13602Y-18307D02*
X13326Y-18582D01*
X13326Y-18582D02*
X13326Y-19862D01*
X13326Y-19862D02*
X12803Y-20385D01*
G54D39*
X16850Y-16614D02*
X17007Y-16614D01*
X17007Y-16358D02*
X17007Y-16141D01*
X17007Y-16614D02*
X17007Y-16358D01*
X17421Y-14998D02*
X17421Y-15590D01*
X17007Y-16003D02*
X17007Y-16141D01*
X17421Y-15590D02*
X17007Y-16003D01*
X20315Y-16908D02*
X20315Y-16692D01*
X20078Y-17145D02*
X20315Y-16908D01*
X19133Y-17145D02*
X20078Y-17145D01*
X19114Y-17125D02*
X19133Y-17145D01*
G54D37*
X14901Y-13366D02*
X14877Y-13366D01*
X13933Y-13330D02*
X12893Y-14370D01*
X14842Y-13330D02*
X13933Y-13330D01*
X14877Y-13366D02*
X14842Y-13330D01*
X11437Y-15866D02*
X11791Y-15866D01*
X12736Y-14527D02*
X12893Y-14370D01*
X12618Y-14527D02*
X12736Y-14527D01*
X12539Y-14606D02*
X12618Y-14527D01*
X12539Y-14783D02*
X12539Y-14606D01*
X12263Y-15059D02*
X12539Y-14783D01*
X12263Y-15393D02*
X12263Y-15059D01*
X11791Y-15866D02*
X12263Y-15393D01*
G54D35*
X2540Y-17716D02*
X5374Y-17716D01*
X7224Y-15866D02*
X11437Y-15866D01*
X5374Y-17716D02*
X7224Y-15866D01*
G54D39*
X16103Y-13483D02*
X15019Y-13483D01*
X15019Y-13483D02*
X14901Y-13366D01*
G54D35*
X21830Y-20514D02*
X21870Y-20553D01*
G54D38*
X21003Y-19687D02*
X21830Y-20514D01*
G54D35*
X21870Y-21594D02*
X22162Y-21887D01*
X21870Y-20553D02*
X21870Y-21594D01*
X10803Y-21287D02*
X10453Y-21637D01*
X10453Y-21637D02*
X8953Y-21637D01*
X10803Y-21287D02*
X10803Y-21787D01*
X14803Y-21287D02*
X15127Y-20963D01*
X15127Y-20963D02*
X16536Y-20963D01*
X14553Y-21887D02*
X14803Y-21637D01*
X7953Y-21637D02*
X8953Y-21637D01*
X7103Y-21637D02*
X7653Y-21637D01*
X7953Y-21637D02*
X7653Y-21637D01*
X14553Y-21887D02*
X10903Y-21887D01*
X10903Y-21887D02*
X10803Y-21787D01*
X14803Y-21637D02*
X14803Y-21287D01*
X24303Y-19687D02*
X24353Y-19737D01*
X24353Y-19737D02*
X24353Y-21287D01*
X24103Y-21887D02*
X24353Y-21637D01*
X22162Y-21887D02*
X24103Y-21887D01*
X24353Y-21637D02*
X24353Y-21287D01*
X22153Y-21887D02*
X22162Y-21887D01*
G54D38*
X21003Y-19687D02*
X20926Y-19687D01*
X20926Y-19687D02*
X20039Y-18799D01*
G54D36*
X8303Y-2212D02*
X8303Y-1437D01*
X8303Y-1437D02*
X8619Y-1122D01*
X5903Y-537D02*
X5903Y-1087D01*
X5903Y-537D02*
X4903Y-537D01*
G54D39*
X3444Y-9999D02*
X3444Y-9311D01*
X3898Y-8857D02*
X4015Y-8857D01*
X3444Y-9311D02*
X3898Y-8857D01*
G54D37*
X4114Y-13170D02*
X3859Y-13170D01*
X3859Y-13170D02*
X3031Y-12342D01*
X2855Y-8857D02*
X4015Y-8857D01*
X2539Y-9173D02*
X2855Y-8857D01*
G54D36*
X8619Y-1122D02*
X13444Y-1122D01*
X13444Y-1122D02*
X14074Y-1751D01*
G54D37*
X5118Y-12973D02*
X4802Y-12973D01*
X4605Y-13170D02*
X4114Y-13170D01*
X4802Y-12973D02*
X4605Y-13170D01*
G54D35*
X22818Y-9405D02*
X22653Y-9405D01*
X22653Y-9405D02*
X21771Y-8523D01*
X24370Y-10846D02*
X23346Y-9822D01*
X23346Y-9822D02*
X22381Y-9822D01*
X22381Y-9822D02*
X21771Y-9212D01*
X21771Y-9212D02*
X21771Y-8523D01*
X15176Y-9251D02*
X14074Y-9251D01*
X12323Y-3955D02*
X12716Y-3955D01*
X12125Y-4153D02*
X12323Y-3955D01*
X12125Y-5885D02*
X12125Y-4153D01*
X12874Y-6633D02*
X12125Y-5885D01*
X12874Y-8051D02*
X12874Y-6633D01*
X14074Y-9251D02*
X12874Y-8051D01*
X13484Y-3955D02*
X12716Y-3955D01*
G54D36*
X11988Y-3346D02*
X13129Y-3346D01*
X11948Y-3307D02*
X11988Y-3346D01*
G54D37*
X24842Y-19148D02*
X24303Y-19687D01*
X24842Y-14448D02*
X24842Y-19148D01*
X24665Y-14271D02*
X24842Y-14448D01*
X24665Y-13838D02*
X24665Y-14271D01*
X24547Y-13720D02*
X24665Y-13838D01*
G54D36*
X21535Y-5098D02*
X21535Y-5275D01*
X21535Y-5275D02*
X20787Y-6023D01*
G54D39*
X15944Y-11830D02*
X16161Y-11830D01*
X15688Y-11574D02*
X15944Y-11830D01*
X16574Y-14270D02*
X16574Y-14232D01*
X16161Y-11830D02*
X16574Y-12244D01*
X16574Y-12244D02*
X16574Y-14270D01*
X19329Y-12500D02*
X18719Y-12500D01*
X18719Y-12500D02*
X17145Y-14074D01*
X17145Y-14074D02*
X16732Y-14074D01*
X16732Y-14074D02*
X16574Y-14232D01*
X16574Y-14232D02*
X16536Y-14270D01*
X16103Y-14270D02*
X16536Y-14270D01*
X17421Y-13385D02*
X17421Y-11772D01*
X16536Y-14270D02*
X17421Y-13385D01*
X20060Y-15157D02*
X19587Y-14685D01*
X18877Y-14586D02*
X18601Y-14586D01*
X18976Y-14685D02*
X18877Y-14586D01*
X19015Y-14685D02*
X18976Y-14685D01*
X19587Y-14685D02*
X19015Y-14685D01*
X16103Y-14270D02*
X18286Y-14270D01*
X18601Y-14585D02*
X18601Y-14586D01*
X18601Y-14586D02*
X18601Y-14998D01*
X18286Y-14270D02*
X18601Y-14585D01*
G54D36*
X27893Y-5118D02*
X27893Y-4625D01*
X27893Y-4625D02*
X27893Y-4133D01*
X21535Y-5098D02*
X21535Y-4625D01*
X21535Y-4625D02*
X21535Y-4133D01*
X27395Y-4625D02*
X27893Y-4625D01*
X21555Y-4645D02*
X21935Y-4645D01*
X21535Y-4625D02*
X21555Y-4645D01*
G54D35*
X27395Y-4895D02*
X27395Y-5387D01*
X26744Y-5393D02*
X26742Y-5395D01*
X27401Y-5393D02*
X26744Y-5393D01*
X27395Y-5387D02*
X27401Y-5393D01*
X27395Y-4395D02*
X27395Y-4625D01*
X27395Y-4625D02*
X27395Y-4645D01*
X27395Y-4645D02*
X27395Y-4895D01*
X26748Y-4901D02*
X26742Y-4895D01*
X27401Y-4901D02*
X26748Y-4901D01*
X27395Y-4895D02*
X27401Y-4901D01*
X26742Y-3895D02*
X27383Y-3895D01*
X27395Y-4395D02*
X26742Y-4395D01*
X27401Y-4389D02*
X27395Y-4395D01*
X27401Y-3877D02*
X27401Y-4389D01*
X27383Y-3895D02*
X27401Y-3877D01*
X21935Y-4895D02*
X21935Y-5387D01*
X22940Y-5393D02*
X22942Y-5395D01*
X21929Y-5393D02*
X22940Y-5393D01*
X21935Y-5387D02*
X21929Y-5393D01*
X21935Y-4395D02*
X21935Y-4645D01*
X21935Y-4645D02*
X21935Y-4895D01*
X22936Y-4901D02*
X22942Y-4895D01*
X21929Y-4901D02*
X22936Y-4901D01*
X21935Y-4895D02*
X21929Y-4901D01*
X22942Y-3895D02*
X21931Y-3895D01*
X21935Y-4395D02*
X22942Y-4395D01*
X21929Y-4389D02*
X21935Y-4395D01*
X21929Y-3897D02*
X21929Y-4389D01*
X21931Y-3895D02*
X21929Y-3897D01*
G54D36*
X14153Y-15737D02*
X14694Y-15737D01*
X13253Y-16637D02*
X14153Y-15737D01*
X14694Y-15737D02*
X14703Y-15728D01*
G54D37*
X14703Y-15728D02*
X14703Y-15412D01*
X14703Y-15412D02*
X15178Y-14937D01*
G54D35*
X23518Y-9380D02*
X22843Y-9380D01*
X22843Y-9380D02*
X22818Y-9405D01*
G54D36*
X787Y-14688D02*
X787Y-13688D01*
X2203Y-14687D02*
X788Y-14687D01*
X788Y-14687D02*
X787Y-14688D01*
X10603Y-3512D02*
X10203Y-3112D01*
X10203Y-3112D02*
X10203Y-2587D01*
X8303Y-2212D02*
X8176Y-2084D01*
X8176Y-2084D02*
X7519Y-2084D01*
X7519Y-2084D02*
X5682Y-2084D01*
X5682Y-2084D02*
X6666Y-2084D01*
X6178Y-2084D02*
X6178Y-1362D01*
X6178Y-1362D02*
X5903Y-1087D01*
G54D39*
X19329Y-12500D02*
X19765Y-12500D01*
X20253Y-12262D02*
X20253Y-11812D01*
X20015Y-12500D02*
X20253Y-12262D01*
X19765Y-12500D02*
X20015Y-12500D01*
X16103Y-14270D02*
X15545Y-14270D01*
X15178Y-14637D02*
X15178Y-14937D01*
X15545Y-14270D02*
X15178Y-14637D01*
G54D35*
X6178Y-1362D02*
X5903Y-1087D01*
X6666Y-2084D02*
X8176Y-2084D01*
X5682Y-2084D02*
X6178Y-2084D01*
X6178Y-2084D02*
X6666Y-2084D01*
X10203Y-2587D02*
X10203Y-3112D01*
X9782Y-3687D02*
X10428Y-3687D01*
X10428Y-3687D02*
X10603Y-3512D01*
G54D39*
X16553Y-10612D02*
X16553Y-10312D01*
X15636Y-9712D02*
X15176Y-9251D01*
X15953Y-9712D02*
X15636Y-9712D01*
X16553Y-10312D02*
X15953Y-9712D01*
X17421Y-11772D02*
X17421Y-11205D01*
X17421Y-11205D02*
X16828Y-10612D01*
X16828Y-10612D02*
X16553Y-10612D01*
G54D35*
X22953Y-13687D02*
X22953Y-13112D01*
X22953Y-13112D02*
X22803Y-12962D01*
X24334Y-19718D02*
X24303Y-19687D01*
X7103Y-21637D02*
X7103Y-21087D01*
X3603Y-21087D02*
X4153Y-21637D01*
X4153Y-21637D02*
X7103Y-21637D01*
G54D38*
X787Y-14688D02*
X788Y-14687D01*
G54D35*
X16536Y-20963D02*
X16412Y-21087D01*
X18936Y-19955D02*
X17691Y-19955D01*
X17691Y-19955D02*
X16536Y-18799D01*
X18936Y-18799D02*
X18936Y-19955D01*
X17927Y-20963D02*
X16536Y-20963D01*
X18936Y-19955D02*
X17927Y-20963D01*
X18936Y-18799D02*
X18936Y-19821D01*
X18936Y-19821D02*
X20078Y-20963D01*
X20039Y-18799D02*
X20060Y-18778D01*
X20060Y-18778D02*
X20060Y-17716D01*
X18936Y-18799D02*
X20039Y-18799D01*
X27716Y-3090D02*
X28385Y-3759D01*
X27972Y-5984D02*
X27716Y-6240D01*
X27992Y-5984D02*
X27972Y-5984D01*
X28385Y-5590D02*
X27992Y-5984D01*
X28385Y-3759D02*
X28385Y-5590D01*
X27716Y-2696D02*
X27716Y-2677D01*
X27716Y-2677D02*
X27435Y-2395D01*
X26742Y-2395D02*
X27435Y-2395D01*
X27716Y-2696D02*
X27716Y-2834D01*
X27218Y-9030D02*
X27716Y-8532D01*
X27716Y-8532D02*
X27716Y-6240D01*
X27716Y-3090D02*
X27716Y-2834D01*
X27218Y-9030D02*
X27218Y-8635D01*
X24769Y-6895D02*
X22942Y-6895D01*
X25492Y-7618D02*
X24769Y-6895D01*
X26200Y-7618D02*
X25492Y-7618D01*
X27218Y-8635D02*
X26200Y-7618D01*
G54D37*
X17993Y-18799D02*
X17993Y-17285D01*
X17993Y-17285D02*
X17814Y-17107D01*
G54D39*
X17993Y-17285D02*
X17814Y-17107D01*
G54D37*
X19310Y-17716D02*
X18874Y-17716D01*
X18621Y-17970D02*
X18621Y-18799D01*
X18874Y-17716D02*
X18621Y-17970D01*
X18878Y-16732D02*
X19526Y-16732D01*
X19526Y-16732D02*
X19565Y-16692D01*
X18503Y-17107D02*
X18878Y-16732D01*
X18878Y-16732D02*
X18878Y-16732D01*
X18307Y-18799D02*
X18307Y-17304D01*
X18307Y-17304D02*
X18503Y-17107D01*
G54D39*
X18307Y-17304D02*
X18503Y-17107D01*
G54D35*
X7682Y-3687D02*
X8028Y-3687D01*
X8303Y-3412D02*
X8303Y-2962D01*
X8028Y-3687D02*
X8303Y-3412D01*
X9103Y-2962D02*
X8303Y-2962D01*
X23653Y-16487D02*
X23653Y-15912D01*
X23653Y-15912D02*
X23703Y-15862D01*
X9782Y-5187D02*
X8829Y-5187D01*
X8329Y-4687D02*
X7682Y-4687D01*
X8829Y-5187D02*
X8329Y-4687D01*
X7682Y-4687D02*
X6945Y-4687D01*
X6945Y-4687D02*
X6666Y-4409D01*
X5682Y-4409D02*
X6666Y-4409D01*
X4698Y-4409D02*
X5682Y-4409D01*
X9782Y-4187D02*
X10529Y-4187D01*
X10529Y-4187D02*
X10603Y-4262D01*
G54D39*
X17618Y-11772D02*
X17618Y-11027D01*
X15926Y-9284D02*
X15926Y-9251D01*
X17078Y-10437D02*
X15926Y-9284D01*
X17078Y-10587D02*
X17078Y-10437D01*
X17403Y-10912D02*
X17078Y-10587D01*
X17503Y-10912D02*
X17403Y-10912D01*
X17618Y-11027D02*
X17503Y-10912D01*
X15926Y-9251D02*
X15926Y-8464D01*
X19329Y-13090D02*
X18956Y-13090D01*
X18956Y-13090D02*
X18956Y-13090D01*
X18011Y-11772D02*
X18011Y-10954D01*
X18478Y-9637D02*
X18903Y-9637D01*
X18278Y-9837D02*
X18478Y-9637D01*
X18278Y-10687D02*
X18278Y-9837D01*
X18011Y-10954D02*
X18278Y-10687D01*
X17814Y-11772D02*
X17814Y-10673D01*
X17814Y-10673D02*
X17728Y-10587D01*
X14764Y-13680D02*
X16103Y-13680D01*
X14763Y-13681D02*
X14764Y-13680D01*
X17728Y-9837D02*
X17528Y-9637D01*
X17528Y-9637D02*
X16903Y-9637D01*
G54D35*
X23518Y-8680D02*
X23518Y-7955D01*
X23518Y-7955D02*
X23493Y-7930D01*
X8103Y-21087D02*
X8828Y-21087D01*
X4603Y-21087D02*
X5328Y-21087D01*
X9782Y-4687D02*
X11099Y-4687D01*
X11605Y-2587D02*
X13203Y-2587D01*
X11299Y-2893D02*
X11605Y-2587D01*
X11299Y-4488D02*
X11299Y-2893D01*
X11099Y-4687D02*
X11299Y-4488D01*
G54D36*
X13203Y-2587D02*
X14103Y-3487D01*
X14103Y-6503D02*
X14103Y-4987D01*
X14103Y-3487D02*
X14103Y-4987D01*
G54D38*
X787Y-17688D02*
X814Y-17716D01*
X814Y-17716D02*
X1790Y-17716D01*
G54D39*
X2814Y-11495D02*
X2264Y-11495D01*
X2264Y-11495D02*
X2047Y-11278D01*
G54D35*
X26418Y-8680D02*
X25943Y-8680D01*
X25943Y-8680D02*
X25693Y-8430D01*
G54D37*
X17678Y-18799D02*
X17678Y-18211D01*
G54D35*
X15253Y-18787D02*
X14803Y-18787D01*
X16153Y-17887D02*
X15253Y-18787D01*
X17353Y-17887D02*
X16153Y-17887D01*
G54D37*
X17678Y-18211D02*
X17353Y-17887D01*
G54D36*
X9403Y-5997D02*
X11393Y-5997D01*
X11393Y-5997D02*
X11403Y-5987D01*
G54D39*
X4015Y-9607D02*
X4015Y-9744D01*
X4271Y-10236D02*
X4074Y-10236D01*
X4330Y-10177D02*
X4271Y-10236D01*
X4330Y-10059D02*
X4330Y-10177D01*
X4015Y-9744D02*
X4330Y-10059D01*
X2814Y-11810D02*
X2265Y-11810D01*
X2265Y-11810D02*
X2047Y-12028D01*
G54D36*
X6103Y-19777D02*
X6493Y-19387D01*
X6493Y-19387D02*
X7803Y-19387D01*
G54D35*
X24943Y-9030D02*
X24318Y-9030D01*
X24943Y-9530D02*
X24943Y-9030D01*
X24943Y-9030D02*
X24943Y-8430D01*
X23303Y-18662D02*
X22503Y-18662D01*
X23303Y-18662D02*
X24103Y-18662D01*
X23303Y-19687D02*
X23303Y-18662D01*
X23303Y-15112D02*
X23303Y-14487D01*
X22903Y-15112D02*
X23303Y-15112D01*
X23303Y-15112D02*
X23703Y-15112D01*
X23653Y-13687D02*
X23653Y-13012D01*
X23653Y-13012D02*
X23703Y-12962D01*
X23303Y-17912D02*
X23303Y-17287D01*
X23303Y-17912D02*
X24103Y-17912D01*
X22503Y-17912D02*
X23303Y-17912D01*
G54D39*
X4074Y-11810D02*
X4389Y-11810D01*
X4488Y-12046D02*
X4114Y-12420D01*
X4488Y-11909D02*
X4488Y-12046D01*
X4389Y-11810D02*
X4488Y-11909D01*
X3444Y-12047D02*
X3444Y-12322D01*
X3542Y-12420D02*
X4114Y-12420D01*
X3444Y-12322D02*
X3542Y-12420D01*
G54D37*
X5118Y-12223D02*
X5491Y-12223D01*
X5964Y-12696D02*
X5964Y-13602D01*
X5491Y-12223D02*
X5964Y-12696D01*
X4114Y-12420D02*
X4921Y-12420D01*
X4921Y-12420D02*
X5118Y-12223D01*
G54D36*
X787Y-12204D02*
X1161Y-12204D01*
X1161Y-12204D02*
X2952Y-13996D01*
X2952Y-13996D02*
X4685Y-13996D01*
X4685Y-13996D02*
X5078Y-13602D01*
X5078Y-13602D02*
X5964Y-13602D01*
X6614Y-12559D02*
X6968Y-12204D01*
G54D38*
X7677Y-12204D02*
X6968Y-12204D01*
X9074Y-13602D02*
X7677Y-12204D01*
G54D36*
X5964Y-13602D02*
X6614Y-12952D01*
X6614Y-12952D02*
X6614Y-12559D01*
G54D35*
X14103Y-8471D02*
X14103Y-8462D01*
X14103Y-8462D02*
X13403Y-7762D01*
X13484Y-4705D02*
X12716Y-4705D01*
X12814Y-4745D02*
X12814Y-6023D01*
X13403Y-6612D02*
X13403Y-7762D01*
X12814Y-6023D02*
X13403Y-6612D01*
G54D36*
X10842Y-1751D02*
X8988Y-1751D01*
X1464Y-11929D02*
X1188Y-12204D01*
X1464Y-7464D02*
X1464Y-11929D01*
X1783Y-7145D02*
X1464Y-7464D01*
X8988Y-1751D02*
X8842Y-1606D01*
G54D37*
X15453Y-15728D02*
X15744Y-15728D01*
X19310Y-15532D02*
X19310Y-15157D01*
X19110Y-15732D02*
X19310Y-15532D01*
X15744Y-15728D02*
X15944Y-15929D01*
X19862Y-11279D02*
X21452Y-11279D01*
X24854Y-11248D02*
X25326Y-10775D01*
X21484Y-11248D02*
X24854Y-11248D01*
X21452Y-11279D02*
X21484Y-11248D01*
G54D39*
X21515Y-13877D02*
X21515Y-13700D01*
X21515Y-13700D02*
X21535Y-13681D01*
X19310Y-15157D02*
X19310Y-15530D01*
G54D37*
X20757Y-14635D02*
X21515Y-13877D01*
X20757Y-14862D02*
X20757Y-14635D01*
G54D39*
X19488Y-15708D02*
X20866Y-15708D01*
X19310Y-15530D02*
X19488Y-15708D01*
G54D38*
X13838Y-2244D02*
X14901Y-3307D01*
X10842Y-1751D02*
X13346Y-1751D01*
X13346Y-1751D02*
X13838Y-2244D01*
X14901Y-4980D02*
X14901Y-7673D01*
X14901Y-7673D02*
X14103Y-8471D01*
X14901Y-3307D02*
X14901Y-4980D01*
G54D35*
X16555Y-8681D02*
X16555Y-8346D01*
X16555Y-8346D02*
X16082Y-7874D01*
X16082Y-7874D02*
X15334Y-7874D01*
X15334Y-7874D02*
X15176Y-8032D01*
X15176Y-8032D02*
X15176Y-8464D01*
G54D37*
X19503Y-11812D02*
X19503Y-11637D01*
X19503Y-11637D02*
X19862Y-11279D01*
X15453Y-15728D02*
X15453Y-15904D01*
X11803Y-19180D02*
X11803Y-19462D01*
X12145Y-18838D02*
X11803Y-19180D01*
X14862Y-16496D02*
X14409Y-16496D01*
X15453Y-15904D02*
X14862Y-16496D01*
X15803Y-10612D02*
X15803Y-10488D01*
X15803Y-10488D02*
X15413Y-10098D01*
X15176Y-8032D02*
X15176Y-8464D01*
X16555Y-8346D02*
X16082Y-7874D01*
X16082Y-7874D02*
X15334Y-7874D01*
X15334Y-7874D02*
X15176Y-8032D01*
G54D38*
X9103Y-2212D02*
X9564Y-1751D01*
X9564Y-1751D02*
X10842Y-1751D01*
X1188Y-12204D02*
X787Y-12204D01*
G54D37*
X2540Y-16240D02*
X472Y-16240D01*
X295Y-13181D02*
X787Y-12688D01*
X295Y-16062D02*
X295Y-13181D01*
X472Y-16240D02*
X295Y-16062D01*
G54D39*
X18798Y-11772D02*
X19464Y-11772D01*
X19464Y-11772D02*
X19503Y-11812D01*
G54D37*
X15453Y-15728D02*
X15551Y-15728D01*
X15928Y-15350D02*
X15928Y-14937D01*
X15551Y-15728D02*
X15928Y-15350D01*
G54D35*
X2540Y-16732D02*
X2540Y-16240D01*
X2540Y-16240D02*
X2540Y-15748D01*
G54D36*
X787Y-12688D02*
X787Y-12204D01*
X787Y-12204D02*
X787Y-11688D01*
G54D39*
X19329Y-12303D02*
X19503Y-12129D01*
X19503Y-12129D02*
X19503Y-11812D01*
X15928Y-14937D02*
X15928Y-14642D01*
X15928Y-14642D02*
X16103Y-14467D01*
G54D36*
X14103Y-8471D02*
X15169Y-8471D01*
X15169Y-8471D02*
X15176Y-8464D01*
G54D39*
X17225Y-11772D02*
X17225Y-11509D01*
X16253Y-11062D02*
X15803Y-10612D01*
X16778Y-11062D02*
X16253Y-11062D01*
X17225Y-11509D02*
X16778Y-11062D01*
X18798Y-14998D02*
X18957Y-15157D01*
X18957Y-15157D02*
X19310Y-15157D01*
G54D10*
G36*
X3703Y-14342D02*
X3703Y-14367D01*
X3703Y-15056D01*
X3506Y-15056D01*
X3535Y-14986D01*
X3535Y-14856D01*
X3486Y-14736D01*
X3394Y-14644D01*
X3274Y-14594D01*
X3143Y-14594D01*
X3023Y-14643D01*
X2931Y-14735D01*
X2881Y-14855D01*
X2881Y-14986D01*
X2910Y-15056D01*
X2808Y-15056D01*
X2643Y-15056D01*
X2626Y-15038D01*
X2726Y-15005D01*
X2808Y-14781D01*
X2798Y-14542D01*
X2726Y-14369D01*
X2626Y-14335D01*
X2555Y-14406D01*
X2555Y-14265D01*
X2521Y-14164D01*
X2297Y-14082D01*
X2059Y-14093D01*
X1886Y-14164D01*
X1852Y-14265D01*
X2203Y-14616D01*
X2555Y-14265D01*
X2555Y-14406D01*
X2274Y-14687D01*
X2280Y-14692D01*
X2209Y-14763D01*
X2203Y-14758D01*
X2133Y-14828D01*
X2133Y-14687D01*
X1781Y-14335D01*
X1681Y-14369D01*
X1599Y-14593D01*
X1609Y-14832D01*
X1681Y-15005D01*
X1781Y-15038D01*
X2133Y-14687D01*
X2133Y-14828D01*
X1857Y-15105D01*
X1857Y-15105D01*
X1833Y-15120D01*
X1635Y-15318D01*
X1632Y-15323D01*
X1585Y-15323D01*
X1530Y-15345D01*
X1488Y-15387D01*
X1482Y-15401D01*
X1342Y-15401D01*
X1342Y-14770D01*
X1342Y-13770D01*
X1331Y-13552D01*
X1268Y-13401D01*
X1173Y-13373D01*
X858Y-13688D01*
X1173Y-14004D01*
X1268Y-13976D01*
X1342Y-13770D01*
X1342Y-14770D01*
X1331Y-14552D01*
X1268Y-14401D01*
X1173Y-14373D01*
X858Y-14688D01*
X1173Y-15004D01*
X1268Y-14976D01*
X1342Y-14770D01*
X1342Y-15401D01*
X1135Y-15401D01*
X1042Y-15307D01*
X877Y-15239D01*
X800Y-15238D01*
X924Y-15232D01*
X1075Y-15170D01*
X1102Y-15074D01*
X787Y-14759D01*
X781Y-14765D01*
X711Y-14694D01*
X716Y-14688D01*
X711Y-14683D01*
X781Y-14612D01*
X787Y-14618D01*
X1102Y-14303D01*
X1075Y-14207D01*
X1026Y-14190D01*
X1075Y-14170D01*
X1102Y-14074D01*
X787Y-13759D01*
X781Y-13765D01*
X711Y-13694D01*
X716Y-13688D01*
X711Y-13683D01*
X781Y-13612D01*
X787Y-13618D01*
X1102Y-13303D01*
X1075Y-13207D01*
X879Y-13137D01*
X1041Y-13070D01*
X1168Y-12944D01*
X1237Y-12778D01*
X1237Y-12771D01*
X2707Y-14241D01*
X2707Y-14241D01*
X2782Y-14291D01*
X2820Y-14316D01*
X2820Y-14316D01*
X2952Y-14342D01*
X2952Y-14342D01*
X3703Y-14342D01*
X3703Y-14342D01*
G37*
G54D40*
X3703Y-14342D02*
X3703Y-14367D01*
X3703Y-15056D01*
X3506Y-15056D01*
X3535Y-14986D01*
X3535Y-14856D01*
X3486Y-14736D01*
X3394Y-14644D01*
X3274Y-14594D01*
X3143Y-14594D01*
X3023Y-14643D01*
X2931Y-14735D01*
X2881Y-14855D01*
X2881Y-14986D01*
X2910Y-15056D01*
X2808Y-15056D01*
X2643Y-15056D01*
X2626Y-15038D01*
X2726Y-15005D01*
X2808Y-14781D01*
X2798Y-14542D01*
X2726Y-14369D01*
X2626Y-14335D01*
X2555Y-14406D01*
X2555Y-14265D01*
X2521Y-14164D01*
X2297Y-14082D01*
X2059Y-14093D01*
X1886Y-14164D01*
X1852Y-14265D01*
X2203Y-14616D01*
X2555Y-14265D01*
X2555Y-14406D01*
X2274Y-14687D01*
X2280Y-14692D01*
X2209Y-14763D01*
X2203Y-14758D01*
X2133Y-14828D01*
X2133Y-14687D01*
X1781Y-14335D01*
X1681Y-14369D01*
X1599Y-14593D01*
X1609Y-14832D01*
X1681Y-15005D01*
X1781Y-15038D01*
X2133Y-14687D01*
X2133Y-14828D01*
X1857Y-15105D01*
X1857Y-15105D01*
X1833Y-15120D01*
X1635Y-15318D01*
X1632Y-15323D01*
X1585Y-15323D01*
X1530Y-15345D01*
X1488Y-15387D01*
X1482Y-15401D01*
X1342Y-15401D01*
X1342Y-14770D01*
X1342Y-13770D01*
X1331Y-13552D01*
X1268Y-13401D01*
X1173Y-13373D01*
X858Y-13688D01*
X1173Y-14004D01*
X1268Y-13976D01*
X1342Y-13770D01*
X1342Y-14770D01*
X1331Y-14552D01*
X1268Y-14401D01*
X1173Y-14373D01*
X858Y-14688D01*
X1173Y-15004D01*
X1268Y-14976D01*
X1342Y-14770D01*
X1342Y-15401D01*
X1135Y-15401D01*
X1042Y-15307D01*
X877Y-15239D01*
X800Y-15238D01*
X924Y-15232D01*
X1075Y-15170D01*
X1102Y-15074D01*
X787Y-14759D01*
X781Y-14765D01*
X711Y-14694D01*
X716Y-14688D01*
X711Y-14683D01*
X781Y-14612D01*
X787Y-14618D01*
X1102Y-14303D01*
X1075Y-14207D01*
X1026Y-14190D01*
X1075Y-14170D01*
X1102Y-14074D01*
X787Y-13759D01*
X781Y-13765D01*
X711Y-13694D01*
X716Y-13688D01*
X711Y-13683D01*
X781Y-13612D01*
X787Y-13618D01*
X1102Y-13303D01*
X1075Y-13207D01*
X879Y-13137D01*
X1041Y-13070D01*
X1168Y-12944D01*
X1237Y-12778D01*
X1237Y-12771D01*
X2707Y-14241D01*
X2707Y-14241D01*
X2782Y-14291D01*
X2820Y-14316D01*
X2820Y-14316D01*
X2952Y-14342D01*
X2952Y-14342D01*
X3703Y-14342D01*
G54D10*
G36*
X3732Y-4318D02*
X3444Y-4606D01*
X3444Y-1156D01*
X3433Y-938D01*
X3371Y-786D01*
X3275Y-759D01*
X3204Y-830D01*
X3204Y-688D01*
X3177Y-593D01*
X2971Y-520D01*
X2753Y-530D01*
X2601Y-593D01*
X2574Y-688D01*
X2889Y-1004D01*
X3204Y-688D01*
X3204Y-830D01*
X2960Y-1074D01*
X3275Y-1390D01*
X3371Y-1362D01*
X3444Y-1156D01*
X3444Y-4606D01*
X3339Y-4710D01*
X3339Y-1985D01*
X3271Y-1820D01*
X3145Y-1693D01*
X2979Y-1624D01*
X2903Y-1624D01*
X3026Y-1618D01*
X3177Y-1556D01*
X3204Y-1460D01*
X2889Y-1145D01*
X2819Y-1216D01*
X2819Y-1074D01*
X2503Y-759D01*
X2408Y-786D01*
X2338Y-982D01*
X2271Y-820D01*
X2145Y-693D01*
X1979Y-624D01*
X1800Y-624D01*
X1635Y-693D01*
X1508Y-819D01*
X1439Y-984D01*
X1439Y-1163D01*
X1508Y-1329D01*
X1634Y-1456D01*
X1799Y-1524D01*
X1978Y-1524D01*
X2144Y-1456D01*
X2271Y-1330D01*
X2339Y-1164D01*
X2339Y-1088D01*
X2345Y-1211D01*
X2408Y-1362D01*
X2503Y-1390D01*
X2819Y-1074D01*
X2819Y-1216D01*
X2574Y-1460D01*
X2601Y-1556D01*
X2797Y-1625D01*
X2635Y-1693D01*
X2508Y-1819D01*
X2439Y-1984D01*
X2439Y-2163D01*
X2508Y-2329D01*
X2634Y-2456D01*
X2799Y-2524D01*
X2978Y-2524D01*
X3144Y-2456D01*
X3271Y-2330D01*
X3339Y-2164D01*
X3339Y-1985D01*
X3339Y-4710D01*
X3201Y-4849D01*
X3233Y-4772D01*
X3233Y-4204D01*
X3016Y-3678D01*
X2614Y-3276D01*
X2339Y-3162D01*
X2339Y-1985D01*
X2271Y-1820D01*
X2145Y-1693D01*
X1979Y-1624D01*
X1800Y-1624D01*
X1635Y-1693D01*
X1508Y-1819D01*
X1439Y-1984D01*
X1439Y-2163D01*
X1508Y-2329D01*
X1634Y-2456D01*
X1799Y-2524D01*
X1978Y-2524D01*
X2144Y-2456D01*
X2271Y-2330D01*
X2339Y-2164D01*
X2339Y-1985D01*
X2339Y-3162D01*
X2089Y-3058D01*
X1520Y-3057D01*
X1339Y-3132D01*
X1339Y-985D01*
X1271Y-820D01*
X1145Y-693D01*
X979Y-624D01*
X800Y-624D01*
X635Y-693D01*
X508Y-819D01*
X439Y-984D01*
X439Y-1163D01*
X508Y-1329D01*
X634Y-1456D01*
X799Y-1524D01*
X978Y-1524D01*
X1144Y-1456D01*
X1271Y-1330D01*
X1339Y-1164D01*
X1339Y-985D01*
X1339Y-3132D01*
X1339Y-3132D01*
X1339Y-2345D01*
X1339Y-1745D01*
X1317Y-1689D01*
X1274Y-1647D01*
X1219Y-1624D01*
X1160Y-1624D01*
X560Y-1624D01*
X504Y-1647D01*
X462Y-1689D01*
X439Y-1744D01*
X439Y-1804D01*
X439Y-2404D01*
X462Y-2459D01*
X504Y-2501D01*
X559Y-2524D01*
X619Y-2524D01*
X1219Y-2524D01*
X1274Y-2502D01*
X1316Y-2459D01*
X1339Y-2404D01*
X1339Y-2345D01*
X1339Y-3132D01*
X995Y-3274D01*
X592Y-3676D01*
X374Y-4201D01*
X374Y-4770D01*
X591Y-5296D01*
X993Y-5698D01*
X1282Y-5818D01*
X179Y-6921D01*
X179Y-271D01*
X271Y-179D01*
X3465Y-179D01*
X3453Y-207D01*
X3453Y-267D01*
X3453Y-867D01*
X3476Y-922D01*
X3518Y-964D01*
X3557Y-980D01*
X3557Y-1137D01*
X3557Y-1887D01*
X3583Y-2020D01*
X3658Y-2132D01*
X3732Y-2206D01*
X3732Y-4318D01*
X3732Y-4318D01*
G37*
G54D40*
X3732Y-4318D02*
X3444Y-4606D01*
X3444Y-1156D01*
X3433Y-938D01*
X3371Y-786D01*
X3275Y-759D01*
X3204Y-830D01*
X3204Y-688D01*
X3177Y-593D01*
X2971Y-520D01*
X2753Y-530D01*
X2601Y-593D01*
X2574Y-688D01*
X2889Y-1004D01*
X3204Y-688D01*
X3204Y-830D01*
X2960Y-1074D01*
X3275Y-1390D01*
X3371Y-1362D01*
X3444Y-1156D01*
X3444Y-4606D01*
X3339Y-4710D01*
X3339Y-1985D01*
X3271Y-1820D01*
X3145Y-1693D01*
X2979Y-1624D01*
X2903Y-1624D01*
X3026Y-1618D01*
X3177Y-1556D01*
X3204Y-1460D01*
X2889Y-1145D01*
X2819Y-1216D01*
X2819Y-1074D01*
X2503Y-759D01*
X2408Y-786D01*
X2338Y-982D01*
X2271Y-820D01*
X2145Y-693D01*
X1979Y-624D01*
X1800Y-624D01*
X1635Y-693D01*
X1508Y-819D01*
X1439Y-984D01*
X1439Y-1163D01*
X1508Y-1329D01*
X1634Y-1456D01*
X1799Y-1524D01*
X1978Y-1524D01*
X2144Y-1456D01*
X2271Y-1330D01*
X2339Y-1164D01*
X2339Y-1088D01*
X2345Y-1211D01*
X2408Y-1362D01*
X2503Y-1390D01*
X2819Y-1074D01*
X2819Y-1216D01*
X2574Y-1460D01*
X2601Y-1556D01*
X2797Y-1625D01*
X2635Y-1693D01*
X2508Y-1819D01*
X2439Y-1984D01*
X2439Y-2163D01*
X2508Y-2329D01*
X2634Y-2456D01*
X2799Y-2524D01*
X2978Y-2524D01*
X3144Y-2456D01*
X3271Y-2330D01*
X3339Y-2164D01*
X3339Y-1985D01*
X3339Y-4710D01*
X3201Y-4849D01*
X3233Y-4772D01*
X3233Y-4204D01*
X3016Y-3678D01*
X2614Y-3276D01*
X2339Y-3162D01*
X2339Y-1985D01*
X2271Y-1820D01*
X2145Y-1693D01*
X1979Y-1624D01*
X1800Y-1624D01*
X1635Y-1693D01*
X1508Y-1819D01*
X1439Y-1984D01*
X1439Y-2163D01*
X1508Y-2329D01*
X1634Y-2456D01*
X1799Y-2524D01*
X1978Y-2524D01*
X2144Y-2456D01*
X2271Y-2330D01*
X2339Y-2164D01*
X2339Y-1985D01*
X2339Y-3162D01*
X2089Y-3058D01*
X1520Y-3057D01*
X1339Y-3132D01*
X1339Y-985D01*
X1271Y-820D01*
X1145Y-693D01*
X979Y-624D01*
X800Y-624D01*
X635Y-693D01*
X508Y-819D01*
X439Y-984D01*
X439Y-1163D01*
X508Y-1329D01*
X634Y-1456D01*
X799Y-1524D01*
X978Y-1524D01*
X1144Y-1456D01*
X1271Y-1330D01*
X1339Y-1164D01*
X1339Y-985D01*
X1339Y-3132D01*
X1339Y-3132D01*
X1339Y-2345D01*
X1339Y-1745D01*
X1317Y-1689D01*
X1274Y-1647D01*
X1219Y-1624D01*
X1160Y-1624D01*
X560Y-1624D01*
X504Y-1647D01*
X462Y-1689D01*
X439Y-1744D01*
X439Y-1804D01*
X439Y-2404D01*
X462Y-2459D01*
X504Y-2501D01*
X559Y-2524D01*
X619Y-2524D01*
X1219Y-2524D01*
X1274Y-2502D01*
X1316Y-2459D01*
X1339Y-2404D01*
X1339Y-2345D01*
X1339Y-3132D01*
X995Y-3274D01*
X592Y-3676D01*
X374Y-4201D01*
X374Y-4770D01*
X591Y-5296D01*
X993Y-5698D01*
X1282Y-5818D01*
X179Y-6921D01*
X179Y-271D01*
X271Y-179D01*
X3465Y-179D01*
X3453Y-207D01*
X3453Y-267D01*
X3453Y-867D01*
X3476Y-922D01*
X3518Y-964D01*
X3557Y-980D01*
X3557Y-1137D01*
X3557Y-1887D01*
X3583Y-2020D01*
X3658Y-2132D01*
X3732Y-2206D01*
X3732Y-4318D01*
G54D10*
G36*
X4792Y-13398D02*
X4541Y-13649D01*
X4064Y-13649D01*
X4064Y-13532D01*
X4064Y-13220D01*
X3651Y-13220D01*
X3589Y-13282D01*
X3589Y-13394D01*
X3627Y-13486D01*
X3697Y-13557D01*
X3789Y-13595D01*
X3888Y-13595D01*
X4001Y-13595D01*
X4064Y-13532D01*
X4064Y-13649D01*
X3096Y-13649D01*
X1800Y-12353D01*
X1801Y-12353D01*
X2351Y-12353D01*
X2407Y-12330D01*
X2449Y-12288D01*
X2472Y-12233D01*
X2472Y-12173D01*
X2472Y-12019D01*
X3235Y-12019D01*
X3235Y-12470D01*
X3258Y-12525D01*
X3300Y-12568D01*
X3355Y-12591D01*
X3415Y-12591D01*
X3446Y-12591D01*
X3466Y-12604D01*
X3542Y-12619D01*
X3542Y-12619D01*
X3689Y-12619D01*
X3689Y-12624D01*
X3711Y-12680D01*
X3754Y-12722D01*
X3809Y-12745D01*
X3839Y-12745D01*
X3789Y-12745D01*
X3697Y-12783D01*
X3627Y-12853D01*
X3589Y-12945D01*
X3589Y-13057D01*
X3651Y-13120D01*
X4064Y-13120D01*
X4064Y-13112D01*
X4164Y-13112D01*
X4164Y-13120D01*
X4172Y-13120D01*
X4172Y-13220D01*
X4164Y-13220D01*
X4164Y-13532D01*
X4226Y-13595D01*
X4339Y-13595D01*
X4439Y-13595D01*
X4530Y-13557D01*
X4601Y-13486D01*
X4639Y-13394D01*
X4639Y-13298D01*
X4701Y-13360D01*
X4792Y-13398D01*
X4792Y-13398D01*
G37*
G54D40*
X4792Y-13398D02*
X4541Y-13649D01*
X4064Y-13649D01*
X4064Y-13532D01*
X4064Y-13220D01*
X3651Y-13220D01*
X3589Y-13282D01*
X3589Y-13394D01*
X3627Y-13486D01*
X3697Y-13557D01*
X3789Y-13595D01*
X3888Y-13595D01*
X4001Y-13595D01*
X4064Y-13532D01*
X4064Y-13649D01*
X3096Y-13649D01*
X1800Y-12353D01*
X1801Y-12353D01*
X2351Y-12353D01*
X2407Y-12330D01*
X2449Y-12288D01*
X2472Y-12233D01*
X2472Y-12173D01*
X2472Y-12019D01*
X3235Y-12019D01*
X3235Y-12470D01*
X3258Y-12525D01*
X3300Y-12568D01*
X3355Y-12591D01*
X3415Y-12591D01*
X3446Y-12591D01*
X3466Y-12604D01*
X3542Y-12619D01*
X3542Y-12619D01*
X3689Y-12619D01*
X3689Y-12624D01*
X3711Y-12680D01*
X3754Y-12722D01*
X3809Y-12745D01*
X3839Y-12745D01*
X3789Y-12745D01*
X3697Y-12783D01*
X3627Y-12853D01*
X3589Y-12945D01*
X3589Y-13057D01*
X3651Y-13120D01*
X4064Y-13120D01*
X4064Y-13112D01*
X4164Y-13112D01*
X4164Y-13120D01*
X4172Y-13120D01*
X4172Y-13220D01*
X4164Y-13220D01*
X4164Y-13532D01*
X4226Y-13595D01*
X4339Y-13595D01*
X4439Y-13595D01*
X4530Y-13557D01*
X4601Y-13486D01*
X4639Y-13394D01*
X4639Y-13298D01*
X4701Y-13360D01*
X4792Y-13398D01*
G54D10*
G36*
X5745Y-13255D02*
X5619Y-13255D01*
X5643Y-13197D01*
X5643Y-13085D01*
X5580Y-13023D01*
X5168Y-13023D01*
X5168Y-13031D01*
X5068Y-13031D01*
X5068Y-13023D01*
X5060Y-13023D01*
X5060Y-12923D01*
X5068Y-12923D01*
X5068Y-12915D01*
X5168Y-12915D01*
X5168Y-12923D01*
X5580Y-12923D01*
X5643Y-12860D01*
X5643Y-12748D01*
X5605Y-12656D01*
X5534Y-12586D01*
X5443Y-12548D01*
X5422Y-12548D01*
X5477Y-12525D01*
X5480Y-12522D01*
X5745Y-12787D01*
X5745Y-13255D01*
X5745Y-13255D01*
G37*
G54D40*
X5745Y-13255D02*
X5619Y-13255D01*
X5643Y-13197D01*
X5643Y-13085D01*
X5580Y-13023D01*
X5168Y-13023D01*
X5168Y-13031D01*
X5068Y-13031D01*
X5068Y-13023D01*
X5060Y-13023D01*
X5060Y-12923D01*
X5068Y-12923D01*
X5068Y-12915D01*
X5168Y-12915D01*
X5168Y-12923D01*
X5580Y-12923D01*
X5643Y-12860D01*
X5643Y-12748D01*
X5605Y-12656D01*
X5534Y-12586D01*
X5443Y-12548D01*
X5422Y-12548D01*
X5477Y-12525D01*
X5480Y-12522D01*
X5745Y-12787D01*
X5745Y-13255D01*
G54D10*
G36*
X11057Y-8579D02*
X11044Y-8585D01*
X11001Y-8627D01*
X10978Y-8682D01*
X10978Y-8742D01*
X10978Y-9229D01*
X9716Y-9229D01*
X8560Y-8073D01*
X8489Y-8026D01*
X8405Y-8009D01*
X5976Y-8009D01*
X5936Y-8017D01*
X5874Y-8017D01*
X5897Y-7994D01*
X6948Y-7994D01*
X6948Y-7994D01*
X7032Y-7977D01*
X7103Y-7930D01*
X7443Y-7590D01*
X7525Y-7591D01*
X7645Y-7541D01*
X7737Y-7449D01*
X7787Y-7329D01*
X7787Y-7198D01*
X7738Y-7078D01*
X7646Y-6986D01*
X7525Y-6936D01*
X7395Y-6936D01*
X7275Y-6986D01*
X7183Y-7078D01*
X7133Y-7198D01*
X7133Y-7281D01*
X6858Y-7556D01*
X6549Y-7556D01*
X6549Y-5909D01*
X6481Y-5745D01*
X6356Y-5620D01*
X6192Y-5552D01*
X6015Y-5552D01*
X5852Y-5619D01*
X5726Y-5745D01*
X5658Y-5908D01*
X5658Y-6085D01*
X5726Y-6249D01*
X5851Y-6374D01*
X6014Y-6442D01*
X6192Y-6442D01*
X6355Y-6375D01*
X6481Y-6250D01*
X6549Y-6086D01*
X6549Y-5909D01*
X6549Y-7556D01*
X5807Y-7556D01*
X5723Y-7573D01*
X5652Y-7620D01*
X5081Y-8192D01*
X5081Y-6948D01*
X5064Y-6865D01*
X5016Y-6794D01*
X5016Y-6794D01*
X4480Y-6257D01*
X4480Y-6175D01*
X4431Y-6055D01*
X4339Y-5962D01*
X4218Y-5913D01*
X4088Y-5912D01*
X3968Y-5962D01*
X3876Y-6054D01*
X3858Y-6098D01*
X3840Y-6055D01*
X3748Y-5962D01*
X3628Y-5913D01*
X3498Y-5912D01*
X3377Y-5962D01*
X3285Y-6054D01*
X3235Y-6174D01*
X3235Y-6304D01*
X3285Y-6425D01*
X3377Y-6517D01*
X3497Y-6567D01*
X3580Y-6567D01*
X4249Y-7236D01*
X4249Y-8432D01*
X4241Y-8432D01*
X4128Y-8432D01*
X4065Y-8494D01*
X4065Y-8807D01*
X4073Y-8807D01*
X4073Y-8907D01*
X4065Y-8907D01*
X4065Y-8915D01*
X3965Y-8915D01*
X3965Y-8907D01*
X3965Y-8807D01*
X3965Y-8494D01*
X3903Y-8432D01*
X3790Y-8432D01*
X3690Y-8432D01*
X3598Y-8470D01*
X3528Y-8540D01*
X3490Y-8632D01*
X3490Y-8744D01*
X3553Y-8807D01*
X3965Y-8807D01*
X3965Y-8907D01*
X3553Y-8907D01*
X3490Y-8969D01*
X3490Y-9081D01*
X3528Y-9173D01*
X3598Y-9244D01*
X3690Y-9282D01*
X3711Y-9282D01*
X3711Y-9282D01*
X3655Y-9305D01*
X3613Y-9347D01*
X3601Y-9376D01*
X3553Y-9356D01*
X3536Y-9356D01*
X3474Y-9418D01*
X3474Y-9949D01*
X3691Y-9949D01*
X3709Y-9931D01*
X3710Y-9932D01*
X3770Y-9932D01*
X3922Y-9932D01*
X4017Y-10027D01*
X3651Y-10027D01*
X3598Y-10049D01*
X3474Y-10049D01*
X3474Y-10580D01*
X3531Y-10637D01*
X3531Y-10640D01*
X3532Y-10643D01*
X3536Y-10643D01*
X3536Y-10643D01*
X3532Y-10643D01*
X3554Y-10695D01*
X3567Y-10709D01*
X3554Y-10722D01*
X3531Y-10777D01*
X3531Y-10837D01*
X3531Y-10955D01*
X3554Y-11010D01*
X3567Y-11023D01*
X3554Y-11036D01*
X3531Y-11091D01*
X3531Y-11151D01*
X3531Y-11269D01*
X3554Y-11324D01*
X3567Y-11338D01*
X3554Y-11351D01*
X3531Y-11406D01*
X3531Y-11466D01*
X3531Y-11504D01*
X3474Y-11504D01*
X3358Y-11504D01*
X3358Y-11443D01*
X3420Y-11381D01*
X3458Y-11289D01*
X3458Y-11072D01*
X3438Y-11023D01*
X3458Y-10975D01*
X3458Y-10758D01*
X3420Y-10666D01*
X3397Y-10643D01*
X3357Y-10643D01*
X3357Y-10643D01*
X3397Y-10643D01*
X3375Y-10620D01*
X3415Y-10580D01*
X3415Y-10049D01*
X3415Y-9949D01*
X3415Y-9418D01*
X3352Y-9356D01*
X3335Y-9356D01*
X3244Y-9394D01*
X3173Y-9464D01*
X3135Y-9556D01*
X3135Y-9887D01*
X3198Y-9949D01*
X3415Y-9949D01*
X3415Y-10049D01*
X3291Y-10049D01*
X3238Y-10027D01*
X3178Y-10027D01*
X2391Y-10027D01*
X2336Y-10050D01*
X2294Y-10092D01*
X2271Y-10147D01*
X2271Y-10207D01*
X2271Y-10325D01*
X2294Y-10380D01*
X2307Y-10394D01*
X2294Y-10407D01*
X2271Y-10462D01*
X2271Y-10522D01*
X2271Y-10604D01*
X2209Y-10666D01*
X2171Y-10758D01*
X2171Y-10774D01*
X2233Y-10837D01*
X2764Y-10837D01*
X2764Y-10808D01*
X2864Y-10808D01*
X2864Y-10837D01*
X3395Y-10837D01*
X3458Y-10774D01*
X3458Y-10758D01*
X3458Y-10975D01*
X3458Y-10958D01*
X3395Y-10896D01*
X3317Y-10896D01*
X3258Y-10871D01*
X3158Y-10871D01*
X2927Y-10871D01*
X2902Y-10896D01*
X2864Y-10896D01*
X2864Y-10934D01*
X2864Y-11113D01*
X2864Y-11151D01*
X2902Y-11151D01*
X2927Y-11175D01*
X3158Y-11175D01*
X3258Y-11175D01*
X3317Y-11151D01*
X3395Y-11151D01*
X3458Y-11088D01*
X3458Y-11072D01*
X3458Y-11289D01*
X3458Y-11272D01*
X3395Y-11210D01*
X2864Y-11210D01*
X2864Y-11238D01*
X2764Y-11238D01*
X2764Y-11210D01*
X2757Y-11210D01*
X2757Y-11151D01*
X2764Y-11151D01*
X2764Y-11113D01*
X2764Y-10934D01*
X2764Y-10896D01*
X2726Y-10896D01*
X2702Y-10871D01*
X2470Y-10871D01*
X2371Y-10871D01*
X2312Y-10896D01*
X2233Y-10896D01*
X2176Y-10953D01*
X1811Y-10953D01*
X1811Y-7608D01*
X2028Y-7390D01*
X2103Y-7278D01*
X2130Y-7145D01*
X2103Y-7012D01*
X2028Y-6900D01*
X1916Y-6825D01*
X1783Y-6798D01*
X1650Y-6825D01*
X1538Y-6900D01*
X1219Y-7219D01*
X1144Y-7331D01*
X1131Y-7396D01*
X1042Y-7307D01*
X877Y-7239D01*
X842Y-7239D01*
X1672Y-6409D01*
X2478Y-6409D01*
X2611Y-6382D01*
X2724Y-6307D01*
X3824Y-5207D01*
X3858Y-5257D01*
X3958Y-5357D01*
X4071Y-5432D01*
X4203Y-5459D01*
X6585Y-5459D01*
X8258Y-7132D01*
X8258Y-7132D01*
X8371Y-7207D01*
X8371Y-7207D01*
X8503Y-7234D01*
X8503Y-7234D01*
X10585Y-7234D01*
X11057Y-7706D01*
X11057Y-8579D01*
X11057Y-8579D01*
G37*
G54D40*
X11057Y-8579D02*
X11044Y-8585D01*
X11001Y-8627D01*
X10978Y-8682D01*
X10978Y-8742D01*
X10978Y-9229D01*
X9716Y-9229D01*
X8560Y-8073D01*
X8489Y-8026D01*
X8405Y-8009D01*
X5976Y-8009D01*
X5936Y-8017D01*
X5874Y-8017D01*
X5897Y-7994D01*
X6948Y-7994D01*
X6948Y-7994D01*
X7032Y-7977D01*
X7103Y-7930D01*
X7443Y-7590D01*
X7525Y-7591D01*
X7645Y-7541D01*
X7737Y-7449D01*
X7787Y-7329D01*
X7787Y-7198D01*
X7738Y-7078D01*
X7646Y-6986D01*
X7525Y-6936D01*
X7395Y-6936D01*
X7275Y-6986D01*
X7183Y-7078D01*
X7133Y-7198D01*
X7133Y-7281D01*
X6858Y-7556D01*
X6549Y-7556D01*
X6549Y-5909D01*
X6481Y-5745D01*
X6356Y-5620D01*
X6192Y-5552D01*
X6015Y-5552D01*
X5852Y-5619D01*
X5726Y-5745D01*
X5658Y-5908D01*
X5658Y-6085D01*
X5726Y-6249D01*
X5851Y-6374D01*
X6014Y-6442D01*
X6192Y-6442D01*
X6355Y-6375D01*
X6481Y-6250D01*
X6549Y-6086D01*
X6549Y-5909D01*
X6549Y-7556D01*
X5807Y-7556D01*
X5723Y-7573D01*
X5652Y-7620D01*
X5081Y-8192D01*
X5081Y-6948D01*
X5064Y-6865D01*
X5016Y-6794D01*
X5016Y-6794D01*
X4480Y-6257D01*
X4480Y-6175D01*
X4431Y-6055D01*
X4339Y-5962D01*
X4218Y-5913D01*
X4088Y-5912D01*
X3968Y-5962D01*
X3876Y-6054D01*
X3858Y-6098D01*
X3840Y-6055D01*
X3748Y-5962D01*
X3628Y-5913D01*
X3498Y-5912D01*
X3377Y-5962D01*
X3285Y-6054D01*
X3235Y-6174D01*
X3235Y-6304D01*
X3285Y-6425D01*
X3377Y-6517D01*
X3497Y-6567D01*
X3580Y-6567D01*
X4249Y-7236D01*
X4249Y-8432D01*
X4241Y-8432D01*
X4128Y-8432D01*
X4065Y-8494D01*
X4065Y-8807D01*
X4073Y-8807D01*
X4073Y-8907D01*
X4065Y-8907D01*
X4065Y-8915D01*
X3965Y-8915D01*
X3965Y-8907D01*
X3965Y-8807D01*
X3965Y-8494D01*
X3903Y-8432D01*
X3790Y-8432D01*
X3690Y-8432D01*
X3598Y-8470D01*
X3528Y-8540D01*
X3490Y-8632D01*
X3490Y-8744D01*
X3553Y-8807D01*
X3965Y-8807D01*
X3965Y-8907D01*
X3553Y-8907D01*
X3490Y-8969D01*
X3490Y-9081D01*
X3528Y-9173D01*
X3598Y-9244D01*
X3690Y-9282D01*
X3711Y-9282D01*
X3711Y-9282D01*
X3655Y-9305D01*
X3613Y-9347D01*
X3601Y-9376D01*
X3553Y-9356D01*
X3536Y-9356D01*
X3474Y-9418D01*
X3474Y-9949D01*
X3691Y-9949D01*
X3709Y-9931D01*
X3710Y-9932D01*
X3770Y-9932D01*
X3922Y-9932D01*
X4017Y-10027D01*
X3651Y-10027D01*
X3598Y-10049D01*
X3474Y-10049D01*
X3474Y-10580D01*
X3531Y-10637D01*
X3531Y-10640D01*
X3532Y-10643D01*
X3536Y-10643D01*
X3536Y-10643D01*
X3532Y-10643D01*
X3554Y-10695D01*
X3567Y-10709D01*
X3554Y-10722D01*
X3531Y-10777D01*
X3531Y-10837D01*
X3531Y-10955D01*
X3554Y-11010D01*
X3567Y-11023D01*
X3554Y-11036D01*
X3531Y-11091D01*
X3531Y-11151D01*
X3531Y-11269D01*
X3554Y-11324D01*
X3567Y-11338D01*
X3554Y-11351D01*
X3531Y-11406D01*
X3531Y-11466D01*
X3531Y-11504D01*
X3474Y-11504D01*
X3358Y-11504D01*
X3358Y-11443D01*
X3420Y-11381D01*
X3458Y-11289D01*
X3458Y-11072D01*
X3438Y-11023D01*
X3458Y-10975D01*
X3458Y-10758D01*
X3420Y-10666D01*
X3397Y-10643D01*
X3357Y-10643D01*
X3357Y-10643D01*
X3397Y-10643D01*
X3375Y-10620D01*
X3415Y-10580D01*
X3415Y-10049D01*
X3415Y-9949D01*
X3415Y-9418D01*
X3352Y-9356D01*
X3335Y-9356D01*
X3244Y-9394D01*
X3173Y-9464D01*
X3135Y-9556D01*
X3135Y-9887D01*
X3198Y-9949D01*
X3415Y-9949D01*
X3415Y-10049D01*
X3291Y-10049D01*
X3238Y-10027D01*
X3178Y-10027D01*
X2391Y-10027D01*
X2336Y-10050D01*
X2294Y-10092D01*
X2271Y-10147D01*
X2271Y-10207D01*
X2271Y-10325D01*
X2294Y-10380D01*
X2307Y-10394D01*
X2294Y-10407D01*
X2271Y-10462D01*
X2271Y-10522D01*
X2271Y-10604D01*
X2209Y-10666D01*
X2171Y-10758D01*
X2171Y-10774D01*
X2233Y-10837D01*
X2764Y-10837D01*
X2764Y-10808D01*
X2864Y-10808D01*
X2864Y-10837D01*
X3395Y-10837D01*
X3458Y-10774D01*
X3458Y-10758D01*
X3458Y-10975D01*
X3458Y-10958D01*
X3395Y-10896D01*
X3317Y-10896D01*
X3258Y-10871D01*
X3158Y-10871D01*
X2927Y-10871D01*
X2902Y-10896D01*
X2864Y-10896D01*
X2864Y-10934D01*
X2864Y-11113D01*
X2864Y-11151D01*
X2902Y-11151D01*
X2927Y-11175D01*
X3158Y-11175D01*
X3258Y-11175D01*
X3317Y-11151D01*
X3395Y-11151D01*
X3458Y-11088D01*
X3458Y-11072D01*
X3458Y-11289D01*
X3458Y-11272D01*
X3395Y-11210D01*
X2864Y-11210D01*
X2864Y-11238D01*
X2764Y-11238D01*
X2764Y-11210D01*
X2757Y-11210D01*
X2757Y-11151D01*
X2764Y-11151D01*
X2764Y-11113D01*
X2764Y-10934D01*
X2764Y-10896D01*
X2726Y-10896D01*
X2702Y-10871D01*
X2470Y-10871D01*
X2371Y-10871D01*
X2312Y-10896D01*
X2233Y-10896D01*
X2176Y-10953D01*
X1811Y-10953D01*
X1811Y-7608D01*
X2028Y-7390D01*
X2103Y-7278D01*
X2130Y-7145D01*
X2103Y-7012D01*
X2028Y-6900D01*
X1916Y-6825D01*
X1783Y-6798D01*
X1650Y-6825D01*
X1538Y-6900D01*
X1219Y-7219D01*
X1144Y-7331D01*
X1131Y-7396D01*
X1042Y-7307D01*
X877Y-7239D01*
X842Y-7239D01*
X1672Y-6409D01*
X2478Y-6409D01*
X2611Y-6382D01*
X2724Y-6307D01*
X3824Y-5207D01*
X3858Y-5257D01*
X3958Y-5357D01*
X4071Y-5432D01*
X4203Y-5459D01*
X6585Y-5459D01*
X8258Y-7132D01*
X8258Y-7132D01*
X8371Y-7207D01*
X8371Y-7207D01*
X8503Y-7234D01*
X8503Y-7234D01*
X10585Y-7234D01*
X11057Y-7706D01*
X11057Y-8579D01*
G54D10*
G36*
X13349Y-2162D02*
X12899Y-2162D01*
X12844Y-2185D01*
X12801Y-2227D01*
X12778Y-2282D01*
X12778Y-2338D01*
X11605Y-2338D01*
X11526Y-2354D01*
X11510Y-2357D01*
X11429Y-2411D01*
X11123Y-2718D01*
X11069Y-2798D01*
X11050Y-2893D01*
X11050Y-3155D01*
X11020Y-3125D01*
X10928Y-3087D01*
X10829Y-3087D01*
X10733Y-3087D01*
X10733Y-2663D01*
X10722Y-2454D01*
X10664Y-2314D01*
X10571Y-2290D01*
X10274Y-2587D01*
X10571Y-2884D01*
X10664Y-2860D01*
X10733Y-2663D01*
X10733Y-3087D01*
X10716Y-3087D01*
X10653Y-3149D01*
X10653Y-3462D01*
X10661Y-3462D01*
X10661Y-3562D01*
X10653Y-3562D01*
X10653Y-3570D01*
X10553Y-3570D01*
X10553Y-3562D01*
X10546Y-3562D01*
X10546Y-3462D01*
X10553Y-3462D01*
X10553Y-3149D01*
X10491Y-3087D01*
X10381Y-3087D01*
X10476Y-3047D01*
X10501Y-2955D01*
X10203Y-2658D01*
X10133Y-2728D01*
X10133Y-2587D01*
X9836Y-2290D01*
X9743Y-2314D01*
X9674Y-2511D01*
X9685Y-2720D01*
X9743Y-2860D01*
X9836Y-2884D01*
X10133Y-2587D01*
X10133Y-2728D01*
X9906Y-2955D01*
X9931Y-3047D01*
X10128Y-3117D01*
X10218Y-3112D01*
X10187Y-3125D01*
X10116Y-3195D01*
X10078Y-3287D01*
X10078Y-3319D01*
X10008Y-3319D01*
X9894Y-3319D01*
X9832Y-3382D01*
X9832Y-3637D01*
X9840Y-3637D01*
X9840Y-3737D01*
X9832Y-3737D01*
X9832Y-3745D01*
X9732Y-3745D01*
X9732Y-3737D01*
X9732Y-3637D01*
X9732Y-3382D01*
X9669Y-3319D01*
X9556Y-3319D01*
X9456Y-3319D01*
X9364Y-3357D01*
X9294Y-3428D01*
X9256Y-3520D01*
X9256Y-3575D01*
X9319Y-3637D01*
X9732Y-3637D01*
X9732Y-3737D01*
X9319Y-3737D01*
X9256Y-3800D01*
X9256Y-3855D01*
X9294Y-3947D01*
X9364Y-4017D01*
X9365Y-4017D01*
X9356Y-4039D01*
X9356Y-4099D01*
X9356Y-4335D01*
X9379Y-4390D01*
X9421Y-4432D01*
X9433Y-4437D01*
X9421Y-4442D01*
X9379Y-4484D01*
X9356Y-4539D01*
X9356Y-4599D01*
X9356Y-4835D01*
X9379Y-4890D01*
X9421Y-4932D01*
X9433Y-4937D01*
X9429Y-4939D01*
X8932Y-4939D01*
X8504Y-4512D01*
X8424Y-4458D01*
X8329Y-4439D01*
X8034Y-4439D01*
X8031Y-4437D01*
X8042Y-4433D01*
X8084Y-4390D01*
X8107Y-4335D01*
X8107Y-4276D01*
X8107Y-4040D01*
X8085Y-3984D01*
X8042Y-3942D01*
X8031Y-3937D01*
X8040Y-3933D01*
X8123Y-3917D01*
X8204Y-3863D01*
X8479Y-3588D01*
X8479Y-3588D01*
X8533Y-3507D01*
X8533Y-3507D01*
X8536Y-3491D01*
X8552Y-3412D01*
X8552Y-3412D01*
X8552Y-3287D01*
X8608Y-3287D01*
X8663Y-3264D01*
X8703Y-3224D01*
X8743Y-3264D01*
X8798Y-3287D01*
X8858Y-3287D01*
X9408Y-3287D01*
X9463Y-3264D01*
X9506Y-3222D01*
X9528Y-3167D01*
X9528Y-3107D01*
X9528Y-2757D01*
X9506Y-2702D01*
X9464Y-2660D01*
X9408Y-2637D01*
X9349Y-2637D01*
X8799Y-2637D01*
X8744Y-2660D01*
X8703Y-2700D01*
X8664Y-2660D01*
X8608Y-2637D01*
X8578Y-2637D01*
X8628Y-2637D01*
X8720Y-2599D01*
X8787Y-2532D01*
X8798Y-2537D01*
X8858Y-2537D01*
X9408Y-2537D01*
X9463Y-2514D01*
X9506Y-2472D01*
X9528Y-2417D01*
X9528Y-2357D01*
X9528Y-2194D01*
X9624Y-2098D01*
X9998Y-2098D01*
X9931Y-2126D01*
X9906Y-2219D01*
X10203Y-2516D01*
X10501Y-2219D01*
X10476Y-2126D01*
X10397Y-2098D01*
X10842Y-2098D01*
X10975Y-2072D01*
X11024Y-2039D01*
X13227Y-2039D01*
X13349Y-2162D01*
X13349Y-2162D01*
G37*
G54D40*
X13349Y-2162D02*
X12899Y-2162D01*
X12844Y-2185D01*
X12801Y-2227D01*
X12778Y-2282D01*
X12778Y-2338D01*
X11605Y-2338D01*
X11526Y-2354D01*
X11510Y-2357D01*
X11429Y-2411D01*
X11123Y-2718D01*
X11069Y-2798D01*
X11050Y-2893D01*
X11050Y-3155D01*
X11020Y-3125D01*
X10928Y-3087D01*
X10829Y-3087D01*
X10733Y-3087D01*
X10733Y-2663D01*
X10722Y-2454D01*
X10664Y-2314D01*
X10571Y-2290D01*
X10274Y-2587D01*
X10571Y-2884D01*
X10664Y-2860D01*
X10733Y-2663D01*
X10733Y-3087D01*
X10716Y-3087D01*
X10653Y-3149D01*
X10653Y-3462D01*
X10661Y-3462D01*
X10661Y-3562D01*
X10653Y-3562D01*
X10653Y-3570D01*
X10553Y-3570D01*
X10553Y-3562D01*
X10546Y-3562D01*
X10546Y-3462D01*
X10553Y-3462D01*
X10553Y-3149D01*
X10491Y-3087D01*
X10381Y-3087D01*
X10476Y-3047D01*
X10501Y-2955D01*
X10203Y-2658D01*
X10133Y-2728D01*
X10133Y-2587D01*
X9836Y-2290D01*
X9743Y-2314D01*
X9674Y-2511D01*
X9685Y-2720D01*
X9743Y-2860D01*
X9836Y-2884D01*
X10133Y-2587D01*
X10133Y-2728D01*
X9906Y-2955D01*
X9931Y-3047D01*
X10128Y-3117D01*
X10218Y-3112D01*
X10187Y-3125D01*
X10116Y-3195D01*
X10078Y-3287D01*
X10078Y-3319D01*
X10008Y-3319D01*
X9894Y-3319D01*
X9832Y-3382D01*
X9832Y-3637D01*
X9840Y-3637D01*
X9840Y-3737D01*
X9832Y-3737D01*
X9832Y-3745D01*
X9732Y-3745D01*
X9732Y-3737D01*
X9732Y-3637D01*
X9732Y-3382D01*
X9669Y-3319D01*
X9556Y-3319D01*
X9456Y-3319D01*
X9364Y-3357D01*
X9294Y-3428D01*
X9256Y-3520D01*
X9256Y-3575D01*
X9319Y-3637D01*
X9732Y-3637D01*
X9732Y-3737D01*
X9319Y-3737D01*
X9256Y-3800D01*
X9256Y-3855D01*
X9294Y-3947D01*
X9364Y-4017D01*
X9365Y-4017D01*
X9356Y-4039D01*
X9356Y-4099D01*
X9356Y-4335D01*
X9379Y-4390D01*
X9421Y-4432D01*
X9433Y-4437D01*
X9421Y-4442D01*
X9379Y-4484D01*
X9356Y-4539D01*
X9356Y-4599D01*
X9356Y-4835D01*
X9379Y-4890D01*
X9421Y-4932D01*
X9433Y-4937D01*
X9429Y-4939D01*
X8932Y-4939D01*
X8504Y-4512D01*
X8424Y-4458D01*
X8329Y-4439D01*
X8034Y-4439D01*
X8031Y-4437D01*
X8042Y-4433D01*
X8084Y-4390D01*
X8107Y-4335D01*
X8107Y-4276D01*
X8107Y-4040D01*
X8085Y-3984D01*
X8042Y-3942D01*
X8031Y-3937D01*
X8040Y-3933D01*
X8123Y-3917D01*
X8204Y-3863D01*
X8479Y-3588D01*
X8479Y-3588D01*
X8533Y-3507D01*
X8533Y-3507D01*
X8536Y-3491D01*
X8552Y-3412D01*
X8552Y-3412D01*
X8552Y-3287D01*
X8608Y-3287D01*
X8663Y-3264D01*
X8703Y-3224D01*
X8743Y-3264D01*
X8798Y-3287D01*
X8858Y-3287D01*
X9408Y-3287D01*
X9463Y-3264D01*
X9506Y-3222D01*
X9528Y-3167D01*
X9528Y-3107D01*
X9528Y-2757D01*
X9506Y-2702D01*
X9464Y-2660D01*
X9408Y-2637D01*
X9349Y-2637D01*
X8799Y-2637D01*
X8744Y-2660D01*
X8703Y-2700D01*
X8664Y-2660D01*
X8608Y-2637D01*
X8578Y-2637D01*
X8628Y-2637D01*
X8720Y-2599D01*
X8787Y-2532D01*
X8798Y-2537D01*
X8858Y-2537D01*
X9408Y-2537D01*
X9463Y-2514D01*
X9506Y-2472D01*
X9528Y-2417D01*
X9528Y-2357D01*
X9528Y-2194D01*
X9624Y-2098D01*
X9998Y-2098D01*
X9931Y-2126D01*
X9906Y-2219D01*
X10203Y-2516D01*
X10501Y-2219D01*
X10476Y-2126D01*
X10397Y-2098D01*
X10842Y-2098D01*
X10975Y-2072D01*
X11024Y-2039D01*
X13227Y-2039D01*
X13349Y-2162D01*
G54D10*
G36*
X15174Y-3233D02*
X15167Y-3196D01*
X15105Y-3103D01*
X14042Y-2040D01*
X14042Y-2040D01*
X13549Y-1548D01*
X13456Y-1486D01*
X13346Y-1464D01*
X11024Y-1464D01*
X10975Y-1431D01*
X10842Y-1405D01*
X9131Y-1405D01*
X9087Y-1361D01*
X8975Y-1285D01*
X8842Y-1259D01*
X8709Y-1285D01*
X8597Y-1361D01*
X8522Y-1473D01*
X8495Y-1606D01*
X8522Y-1739D01*
X8554Y-1787D01*
X8529Y-1787D01*
X8416Y-1787D01*
X8353Y-1849D01*
X8353Y-2162D01*
X8361Y-2162D01*
X8361Y-2262D01*
X8353Y-2262D01*
X8353Y-2270D01*
X8253Y-2270D01*
X8253Y-2262D01*
X7841Y-2262D01*
X7778Y-2324D01*
X7778Y-2436D01*
X7816Y-2528D01*
X7887Y-2599D01*
X7978Y-2637D01*
X7999Y-2637D01*
X7999Y-2637D01*
X7944Y-2660D01*
X7901Y-2702D01*
X7878Y-2757D01*
X7878Y-2817D01*
X7878Y-3167D01*
X7901Y-3222D01*
X7943Y-3264D01*
X7998Y-3287D01*
X8055Y-3287D01*
X8055Y-3309D01*
X7945Y-3419D01*
X7928Y-3419D01*
X7377Y-3419D01*
X7321Y-3442D01*
X7279Y-3484D01*
X7256Y-3539D01*
X7256Y-3599D01*
X7256Y-3663D01*
X7091Y-3499D01*
X7091Y-3454D01*
X7069Y-3399D01*
X7027Y-3357D01*
X7013Y-3352D01*
X7013Y-3142D01*
X7026Y-3137D01*
X7069Y-3094D01*
X7091Y-3039D01*
X7091Y-2980D01*
X7091Y-2630D01*
X7069Y-2574D01*
X7027Y-2532D01*
X6971Y-2509D01*
X6941Y-2509D01*
X6991Y-2509D01*
X7083Y-2471D01*
X7153Y-2401D01*
X7191Y-2309D01*
X7191Y-2197D01*
X7129Y-2134D01*
X6716Y-2134D01*
X6716Y-2142D01*
X6616Y-2142D01*
X6616Y-2134D01*
X6616Y-2034D01*
X6616Y-1722D01*
X6554Y-1659D01*
X6441Y-1659D01*
X6341Y-1659D01*
X6250Y-1698D01*
X6219Y-1729D01*
X6219Y-923D01*
X5903Y-608D01*
X5833Y-678D01*
X5588Y-923D01*
X5616Y-1018D01*
X5822Y-1092D01*
X6040Y-1081D01*
X6191Y-1018D01*
X6219Y-923D01*
X6219Y-1729D01*
X6179Y-1768D01*
X6174Y-1780D01*
X6169Y-1768D01*
X6099Y-1698D01*
X6007Y-1659D01*
X5908Y-1659D01*
X5795Y-1659D01*
X5732Y-1722D01*
X5732Y-2034D01*
X6145Y-2034D01*
X6174Y-2005D01*
X6204Y-2034D01*
X6616Y-2034D01*
X6616Y-2134D01*
X6204Y-2134D01*
X6174Y-2164D01*
X6145Y-2134D01*
X5732Y-2134D01*
X5732Y-2142D01*
X5632Y-2142D01*
X5632Y-2134D01*
X5632Y-2034D01*
X5632Y-1722D01*
X5570Y-1659D01*
X5457Y-1659D01*
X5357Y-1659D01*
X5265Y-1698D01*
X5195Y-1768D01*
X5157Y-1860D01*
X5157Y-1972D01*
X5220Y-2034D01*
X5632Y-2034D01*
X5632Y-2134D01*
X5220Y-2134D01*
X5157Y-2197D01*
X5157Y-2309D01*
X5195Y-2401D01*
X5265Y-2471D01*
X5357Y-2509D01*
X5377Y-2509D01*
X5377Y-2509D01*
X5322Y-2532D01*
X5280Y-2574D01*
X5257Y-2629D01*
X5257Y-2689D01*
X5257Y-2750D01*
X4349Y-1842D01*
X4324Y-1817D01*
X4324Y-1817D01*
X4250Y-1743D01*
X4250Y-1484D01*
X4811Y-1484D01*
X4921Y-1557D01*
X5053Y-1584D01*
X5186Y-1557D01*
X5299Y-1482D01*
X5374Y-1370D01*
X5400Y-1237D01*
X5374Y-1104D01*
X5299Y-992D01*
X5199Y-892D01*
X5165Y-869D01*
X4903Y-608D01*
X4898Y-613D01*
X4827Y-542D01*
X4833Y-537D01*
X4827Y-531D01*
X4898Y-461D01*
X4903Y-466D01*
X4909Y-461D01*
X4980Y-531D01*
X4974Y-537D01*
X5289Y-852D01*
X5385Y-825D01*
X5402Y-776D01*
X5422Y-825D01*
X5518Y-852D01*
X5833Y-537D01*
X5827Y-531D01*
X5898Y-461D01*
X5903Y-466D01*
X5909Y-461D01*
X5980Y-531D01*
X5974Y-537D01*
X6289Y-852D01*
X6385Y-825D01*
X6453Y-632D01*
X6453Y-867D01*
X6476Y-922D01*
X6518Y-964D01*
X6557Y-980D01*
X6557Y-1187D01*
X6583Y-1320D01*
X6658Y-1432D01*
X6885Y-1659D01*
X6779Y-1659D01*
X6716Y-1722D01*
X6716Y-2034D01*
X7129Y-2034D01*
X7191Y-1972D01*
X7191Y-1911D01*
X7303Y-1934D01*
X7303Y-1934D01*
X7801Y-1934D01*
X7778Y-1987D01*
X7778Y-2099D01*
X7841Y-2162D01*
X8253Y-2162D01*
X8253Y-1849D01*
X8191Y-1787D01*
X8079Y-1787D01*
X8124Y-1720D01*
X8150Y-1587D01*
X8124Y-1454D01*
X8049Y-1342D01*
X7936Y-1266D01*
X7803Y-1240D01*
X7447Y-1240D01*
X7250Y-1043D01*
X7250Y-980D01*
X7288Y-964D01*
X7331Y-922D01*
X7353Y-867D01*
X7353Y-807D01*
X7353Y-207D01*
X7342Y-179D01*
X15083Y-179D01*
X15174Y-271D01*
X15174Y-3233D01*
X15174Y-3233D01*
G37*
G54D40*
X15174Y-3233D02*
X15167Y-3196D01*
X15105Y-3103D01*
X14042Y-2040D01*
X14042Y-2040D01*
X13549Y-1548D01*
X13456Y-1486D01*
X13346Y-1464D01*
X11024Y-1464D01*
X10975Y-1431D01*
X10842Y-1405D01*
X9131Y-1405D01*
X9087Y-1361D01*
X8975Y-1285D01*
X8842Y-1259D01*
X8709Y-1285D01*
X8597Y-1361D01*
X8522Y-1473D01*
X8495Y-1606D01*
X8522Y-1739D01*
X8554Y-1787D01*
X8529Y-1787D01*
X8416Y-1787D01*
X8353Y-1849D01*
X8353Y-2162D01*
X8361Y-2162D01*
X8361Y-2262D01*
X8353Y-2262D01*
X8353Y-2270D01*
X8253Y-2270D01*
X8253Y-2262D01*
X7841Y-2262D01*
X7778Y-2324D01*
X7778Y-2436D01*
X7816Y-2528D01*
X7887Y-2599D01*
X7978Y-2637D01*
X7999Y-2637D01*
X7999Y-2637D01*
X7944Y-2660D01*
X7901Y-2702D01*
X7878Y-2757D01*
X7878Y-2817D01*
X7878Y-3167D01*
X7901Y-3222D01*
X7943Y-3264D01*
X7998Y-3287D01*
X8055Y-3287D01*
X8055Y-3309D01*
X7945Y-3419D01*
X7928Y-3419D01*
X7377Y-3419D01*
X7321Y-3442D01*
X7279Y-3484D01*
X7256Y-3539D01*
X7256Y-3599D01*
X7256Y-3663D01*
X7091Y-3499D01*
X7091Y-3454D01*
X7069Y-3399D01*
X7027Y-3357D01*
X7013Y-3352D01*
X7013Y-3142D01*
X7026Y-3137D01*
X7069Y-3094D01*
X7091Y-3039D01*
X7091Y-2980D01*
X7091Y-2630D01*
X7069Y-2574D01*
X7027Y-2532D01*
X6971Y-2509D01*
X6941Y-2509D01*
X6991Y-2509D01*
X7083Y-2471D01*
X7153Y-2401D01*
X7191Y-2309D01*
X7191Y-2197D01*
X7129Y-2134D01*
X6716Y-2134D01*
X6716Y-2142D01*
X6616Y-2142D01*
X6616Y-2134D01*
X6616Y-2034D01*
X6616Y-1722D01*
X6554Y-1659D01*
X6441Y-1659D01*
X6341Y-1659D01*
X6250Y-1698D01*
X6219Y-1729D01*
X6219Y-923D01*
X5903Y-608D01*
X5833Y-678D01*
X5588Y-923D01*
X5616Y-1018D01*
X5822Y-1092D01*
X6040Y-1081D01*
X6191Y-1018D01*
X6219Y-923D01*
X6219Y-1729D01*
X6179Y-1768D01*
X6174Y-1780D01*
X6169Y-1768D01*
X6099Y-1698D01*
X6007Y-1659D01*
X5908Y-1659D01*
X5795Y-1659D01*
X5732Y-1722D01*
X5732Y-2034D01*
X6145Y-2034D01*
X6174Y-2005D01*
X6204Y-2034D01*
X6616Y-2034D01*
X6616Y-2134D01*
X6204Y-2134D01*
X6174Y-2164D01*
X6145Y-2134D01*
X5732Y-2134D01*
X5732Y-2142D01*
X5632Y-2142D01*
X5632Y-2134D01*
X5632Y-2034D01*
X5632Y-1722D01*
X5570Y-1659D01*
X5457Y-1659D01*
X5357Y-1659D01*
X5265Y-1698D01*
X5195Y-1768D01*
X5157Y-1860D01*
X5157Y-1972D01*
X5220Y-2034D01*
X5632Y-2034D01*
X5632Y-2134D01*
X5220Y-2134D01*
X5157Y-2197D01*
X5157Y-2309D01*
X5195Y-2401D01*
X5265Y-2471D01*
X5357Y-2509D01*
X5377Y-2509D01*
X5377Y-2509D01*
X5322Y-2532D01*
X5280Y-2574D01*
X5257Y-2629D01*
X5257Y-2689D01*
X5257Y-2750D01*
X4349Y-1842D01*
X4324Y-1817D01*
X4324Y-1817D01*
X4250Y-1743D01*
X4250Y-1484D01*
X4811Y-1484D01*
X4921Y-1557D01*
X5053Y-1584D01*
X5186Y-1557D01*
X5299Y-1482D01*
X5374Y-1370D01*
X5400Y-1237D01*
X5374Y-1104D01*
X5299Y-992D01*
X5199Y-892D01*
X5165Y-869D01*
X4903Y-608D01*
X4898Y-613D01*
X4827Y-542D01*
X4833Y-537D01*
X4827Y-531D01*
X4898Y-461D01*
X4903Y-466D01*
X4909Y-461D01*
X4980Y-531D01*
X4974Y-537D01*
X5289Y-852D01*
X5385Y-825D01*
X5402Y-776D01*
X5422Y-825D01*
X5518Y-852D01*
X5833Y-537D01*
X5827Y-531D01*
X5898Y-461D01*
X5903Y-466D01*
X5909Y-461D01*
X5980Y-531D01*
X5974Y-537D01*
X6289Y-852D01*
X6385Y-825D01*
X6453Y-632D01*
X6453Y-867D01*
X6476Y-922D01*
X6518Y-964D01*
X6557Y-980D01*
X6557Y-1187D01*
X6583Y-1320D01*
X6658Y-1432D01*
X6885Y-1659D01*
X6779Y-1659D01*
X6716Y-1722D01*
X6716Y-2034D01*
X7129Y-2034D01*
X7191Y-1972D01*
X7191Y-1911D01*
X7303Y-1934D01*
X7303Y-1934D01*
X7801Y-1934D01*
X7778Y-1987D01*
X7778Y-2099D01*
X7841Y-2162D01*
X8253Y-2162D01*
X8253Y-1849D01*
X8191Y-1787D01*
X8079Y-1787D01*
X8124Y-1720D01*
X8150Y-1587D01*
X8124Y-1454D01*
X8049Y-1342D01*
X7936Y-1266D01*
X7803Y-1240D01*
X7447Y-1240D01*
X7250Y-1043D01*
X7250Y-980D01*
X7288Y-964D01*
X7331Y-922D01*
X7353Y-867D01*
X7353Y-807D01*
X7353Y-207D01*
X7342Y-179D01*
X15083Y-179D01*
X15174Y-271D01*
X15174Y-3233D01*
G54D10*
G36*
X15334Y-9776D02*
X15228Y-9820D01*
X15136Y-9912D01*
X15126Y-9936D01*
X15126Y-9714D01*
X15126Y-9301D01*
X14813Y-9301D01*
X14751Y-9364D01*
X14751Y-9477D01*
X14751Y-9576D01*
X14789Y-9668D01*
X14859Y-9739D01*
X14951Y-9777D01*
X15063Y-9776D01*
X15126Y-9714D01*
X15126Y-9936D01*
X15086Y-10033D01*
X15086Y-10130D01*
X14642Y-9687D01*
X14571Y-9640D01*
X14488Y-9623D01*
X13263Y-9623D01*
X13220Y-9581D01*
X13148Y-9550D01*
X13159Y-9539D01*
X13208Y-9419D01*
X13209Y-9289D01*
X13159Y-9169D01*
X13067Y-9077D01*
X12947Y-9027D01*
X12817Y-9027D01*
X12696Y-9076D01*
X12614Y-9159D01*
X11842Y-9159D01*
X11829Y-9161D01*
X11829Y-5903D01*
X11764Y-5746D01*
X11644Y-5627D01*
X11488Y-5562D01*
X11319Y-5562D01*
X11163Y-5626D01*
X11139Y-5650D01*
X9686Y-5650D01*
X9656Y-5620D01*
X9492Y-5552D01*
X9315Y-5552D01*
X9152Y-5619D01*
X9026Y-5745D01*
X8958Y-5908D01*
X8958Y-6085D01*
X9026Y-6249D01*
X9151Y-6374D01*
X9314Y-6442D01*
X9492Y-6442D01*
X9655Y-6375D01*
X9686Y-6344D01*
X11159Y-6344D01*
X11162Y-6347D01*
X11319Y-6412D01*
X11488Y-6412D01*
X11644Y-6347D01*
X11764Y-6228D01*
X11828Y-6072D01*
X11829Y-5903D01*
X11829Y-9161D01*
X11828Y-9161D01*
X11828Y-8682D01*
X11806Y-8627D01*
X11764Y-8585D01*
X11750Y-8579D01*
X11750Y-7562D01*
X11724Y-7429D01*
X11649Y-7317D01*
X10974Y-6642D01*
X10861Y-6566D01*
X10728Y-6540D01*
X8647Y-6540D01*
X7562Y-5455D01*
X7987Y-5455D01*
X8042Y-5433D01*
X8084Y-5390D01*
X8107Y-5335D01*
X8107Y-5276D01*
X8107Y-5040D01*
X8085Y-4984D01*
X8042Y-4942D01*
X8031Y-4937D01*
X8034Y-4936D01*
X8226Y-4936D01*
X8653Y-5363D01*
X8653Y-5363D01*
X8734Y-5417D01*
X8734Y-5417D01*
X8750Y-5420D01*
X8829Y-5436D01*
X9429Y-5436D01*
X9476Y-5455D01*
X9536Y-5455D01*
X10087Y-5455D01*
X10142Y-5433D01*
X10184Y-5390D01*
X10207Y-5335D01*
X10207Y-5276D01*
X10207Y-5040D01*
X10185Y-4984D01*
X10142Y-4942D01*
X10131Y-4937D01*
X10134Y-4936D01*
X11099Y-4936D01*
X11099Y-4936D01*
X11194Y-4917D01*
X11275Y-4863D01*
X11474Y-4663D01*
X11474Y-4663D01*
X11528Y-4583D01*
X11528Y-4583D01*
X11531Y-4567D01*
X11547Y-4488D01*
X11547Y-4488D01*
X11547Y-2996D01*
X11708Y-2835D01*
X12778Y-2835D01*
X12778Y-2892D01*
X12801Y-2947D01*
X12843Y-2989D01*
X12898Y-3012D01*
X12958Y-3012D01*
X13138Y-3012D01*
X13656Y-3530D01*
X13596Y-3530D01*
X13534Y-3593D01*
X13534Y-3905D01*
X13542Y-3905D01*
X13542Y-4005D01*
X13534Y-4005D01*
X13534Y-4013D01*
X13434Y-4013D01*
X13434Y-4005D01*
X13434Y-3905D01*
X13434Y-3593D01*
X13371Y-3530D01*
X13258Y-3530D01*
X13159Y-3530D01*
X13100Y-3555D01*
X13041Y-3530D01*
X12942Y-3530D01*
X12829Y-3530D01*
X12766Y-3593D01*
X12766Y-3905D01*
X13021Y-3905D01*
X13179Y-3905D01*
X13434Y-3905D01*
X13434Y-4005D01*
X13179Y-4005D01*
X13021Y-4005D01*
X12766Y-4005D01*
X12766Y-4013D01*
X12666Y-4013D01*
X12666Y-4005D01*
X12666Y-3905D01*
X12666Y-3593D01*
X12604Y-3530D01*
X12491Y-3530D01*
X12391Y-3530D01*
X12299Y-3568D01*
X12229Y-3639D01*
X12191Y-3731D01*
X12191Y-3843D01*
X12254Y-3905D01*
X12666Y-3905D01*
X12666Y-4005D01*
X12254Y-4005D01*
X12191Y-4068D01*
X12191Y-4180D01*
X12229Y-4272D01*
X12299Y-4342D01*
X12391Y-4380D01*
X12411Y-4380D01*
X12411Y-4380D01*
X12356Y-4403D01*
X12314Y-4445D01*
X12291Y-4500D01*
X12291Y-4560D01*
X12291Y-4910D01*
X12314Y-4965D01*
X12356Y-5007D01*
X12411Y-5030D01*
X12471Y-5030D01*
X12566Y-5030D01*
X12566Y-6023D01*
X12585Y-6118D01*
X12639Y-6199D01*
X13155Y-6715D01*
X13155Y-7762D01*
X13174Y-7857D01*
X13228Y-7938D01*
X13659Y-8368D01*
X13654Y-8381D01*
X13653Y-8560D01*
X13722Y-8725D01*
X13848Y-8852D01*
X14014Y-8921D01*
X14193Y-8921D01*
X14358Y-8853D01*
X14393Y-8818D01*
X14806Y-8818D01*
X14789Y-8835D01*
X14751Y-8927D01*
X14751Y-9026D01*
X14751Y-9139D01*
X14813Y-9201D01*
X15126Y-9201D01*
X15126Y-9194D01*
X15226Y-9194D01*
X15226Y-9201D01*
X15234Y-9201D01*
X15234Y-9301D01*
X15226Y-9301D01*
X15226Y-9714D01*
X15288Y-9776D01*
X15334Y-9776D01*
X15334Y-9776D01*
G37*
G54D40*
X15334Y-9776D02*
X15228Y-9820D01*
X15136Y-9912D01*
X15126Y-9936D01*
X15126Y-9714D01*
X15126Y-9301D01*
X14813Y-9301D01*
X14751Y-9364D01*
X14751Y-9477D01*
X14751Y-9576D01*
X14789Y-9668D01*
X14859Y-9739D01*
X14951Y-9777D01*
X15063Y-9776D01*
X15126Y-9714D01*
X15126Y-9936D01*
X15086Y-10033D01*
X15086Y-10130D01*
X14642Y-9687D01*
X14571Y-9640D01*
X14488Y-9623D01*
X13263Y-9623D01*
X13220Y-9581D01*
X13148Y-9550D01*
X13159Y-9539D01*
X13208Y-9419D01*
X13209Y-9289D01*
X13159Y-9169D01*
X13067Y-9077D01*
X12947Y-9027D01*
X12817Y-9027D01*
X12696Y-9076D01*
X12614Y-9159D01*
X11842Y-9159D01*
X11829Y-9161D01*
X11829Y-5903D01*
X11764Y-5746D01*
X11644Y-5627D01*
X11488Y-5562D01*
X11319Y-5562D01*
X11163Y-5626D01*
X11139Y-5650D01*
X9686Y-5650D01*
X9656Y-5620D01*
X9492Y-5552D01*
X9315Y-5552D01*
X9152Y-5619D01*
X9026Y-5745D01*
X8958Y-5908D01*
X8958Y-6085D01*
X9026Y-6249D01*
X9151Y-6374D01*
X9314Y-6442D01*
X9492Y-6442D01*
X9655Y-6375D01*
X9686Y-6344D01*
X11159Y-6344D01*
X11162Y-6347D01*
X11319Y-6412D01*
X11488Y-6412D01*
X11644Y-6347D01*
X11764Y-6228D01*
X11828Y-6072D01*
X11829Y-5903D01*
X11829Y-9161D01*
X11828Y-9161D01*
X11828Y-8682D01*
X11806Y-8627D01*
X11764Y-8585D01*
X11750Y-8579D01*
X11750Y-7562D01*
X11724Y-7429D01*
X11649Y-7317D01*
X10974Y-6642D01*
X10861Y-6566D01*
X10728Y-6540D01*
X8647Y-6540D01*
X7562Y-5455D01*
X7987Y-5455D01*
X8042Y-5433D01*
X8084Y-5390D01*
X8107Y-5335D01*
X8107Y-5276D01*
X8107Y-5040D01*
X8085Y-4984D01*
X8042Y-4942D01*
X8031Y-4937D01*
X8034Y-4936D01*
X8226Y-4936D01*
X8653Y-5363D01*
X8653Y-5363D01*
X8734Y-5417D01*
X8734Y-5417D01*
X8750Y-5420D01*
X8829Y-5436D01*
X9429Y-5436D01*
X9476Y-5455D01*
X9536Y-5455D01*
X10087Y-5455D01*
X10142Y-5433D01*
X10184Y-5390D01*
X10207Y-5335D01*
X10207Y-5276D01*
X10207Y-5040D01*
X10185Y-4984D01*
X10142Y-4942D01*
X10131Y-4937D01*
X10134Y-4936D01*
X11099Y-4936D01*
X11099Y-4936D01*
X11194Y-4917D01*
X11275Y-4863D01*
X11474Y-4663D01*
X11474Y-4663D01*
X11528Y-4583D01*
X11528Y-4583D01*
X11531Y-4567D01*
X11547Y-4488D01*
X11547Y-4488D01*
X11547Y-2996D01*
X11708Y-2835D01*
X12778Y-2835D01*
X12778Y-2892D01*
X12801Y-2947D01*
X12843Y-2989D01*
X12898Y-3012D01*
X12958Y-3012D01*
X13138Y-3012D01*
X13656Y-3530D01*
X13596Y-3530D01*
X13534Y-3593D01*
X13534Y-3905D01*
X13542Y-3905D01*
X13542Y-4005D01*
X13534Y-4005D01*
X13534Y-4013D01*
X13434Y-4013D01*
X13434Y-4005D01*
X13434Y-3905D01*
X13434Y-3593D01*
X13371Y-3530D01*
X13258Y-3530D01*
X13159Y-3530D01*
X13100Y-3555D01*
X13041Y-3530D01*
X12942Y-3530D01*
X12829Y-3530D01*
X12766Y-3593D01*
X12766Y-3905D01*
X13021Y-3905D01*
X13179Y-3905D01*
X13434Y-3905D01*
X13434Y-4005D01*
X13179Y-4005D01*
X13021Y-4005D01*
X12766Y-4005D01*
X12766Y-4013D01*
X12666Y-4013D01*
X12666Y-4005D01*
X12666Y-3905D01*
X12666Y-3593D01*
X12604Y-3530D01*
X12491Y-3530D01*
X12391Y-3530D01*
X12299Y-3568D01*
X12229Y-3639D01*
X12191Y-3731D01*
X12191Y-3843D01*
X12254Y-3905D01*
X12666Y-3905D01*
X12666Y-4005D01*
X12254Y-4005D01*
X12191Y-4068D01*
X12191Y-4180D01*
X12229Y-4272D01*
X12299Y-4342D01*
X12391Y-4380D01*
X12411Y-4380D01*
X12411Y-4380D01*
X12356Y-4403D01*
X12314Y-4445D01*
X12291Y-4500D01*
X12291Y-4560D01*
X12291Y-4910D01*
X12314Y-4965D01*
X12356Y-5007D01*
X12411Y-5030D01*
X12471Y-5030D01*
X12566Y-5030D01*
X12566Y-6023D01*
X12585Y-6118D01*
X12639Y-6199D01*
X13155Y-6715D01*
X13155Y-7762D01*
X13174Y-7857D01*
X13228Y-7938D01*
X13659Y-8368D01*
X13654Y-8381D01*
X13653Y-8560D01*
X13722Y-8725D01*
X13848Y-8852D01*
X14014Y-8921D01*
X14193Y-8921D01*
X14358Y-8853D01*
X14393Y-8818D01*
X14806Y-8818D01*
X14789Y-8835D01*
X14751Y-8927D01*
X14751Y-9026D01*
X14751Y-9139D01*
X14813Y-9201D01*
X15126Y-9201D01*
X15126Y-9194D01*
X15226Y-9194D01*
X15226Y-9201D01*
X15234Y-9201D01*
X15234Y-9301D01*
X15226Y-9301D01*
X15226Y-9714D01*
X15288Y-9776D01*
X15334Y-9776D01*
G54D10*
G36*
X16503Y-10149D02*
X16441Y-10087D01*
X16329Y-10087D01*
X16237Y-10125D01*
X16167Y-10195D01*
X16128Y-10287D01*
X16128Y-10307D01*
X16106Y-10252D01*
X16064Y-10210D01*
X16008Y-10187D01*
X15949Y-10187D01*
X15811Y-10187D01*
X15740Y-10116D01*
X15740Y-10033D01*
X15690Y-9913D01*
X15598Y-9821D01*
X15478Y-9771D01*
X15414Y-9771D01*
X15492Y-9739D01*
X15562Y-9668D01*
X15601Y-9576D01*
X15601Y-9556D01*
X15601Y-9556D01*
X15623Y-9611D01*
X15666Y-9654D01*
X15721Y-9676D01*
X15780Y-9676D01*
X16036Y-9676D01*
X16503Y-10144D01*
X16503Y-10149D01*
X16503Y-10149D01*
G37*
G54D40*
X16503Y-10149D02*
X16441Y-10087D01*
X16329Y-10087D01*
X16237Y-10125D01*
X16167Y-10195D01*
X16128Y-10287D01*
X16128Y-10307D01*
X16106Y-10252D01*
X16064Y-10210D01*
X16008Y-10187D01*
X15949Y-10187D01*
X15811Y-10187D01*
X15740Y-10116D01*
X15740Y-10033D01*
X15690Y-9913D01*
X15598Y-9821D01*
X15478Y-9771D01*
X15414Y-9771D01*
X15492Y-9739D01*
X15562Y-9668D01*
X15601Y-9576D01*
X15601Y-9556D01*
X15601Y-9556D01*
X15623Y-9611D01*
X15666Y-9654D01*
X15721Y-9676D01*
X15780Y-9676D01*
X16036Y-9676D01*
X16503Y-10144D01*
X16503Y-10149D01*
G54D10*
G36*
X16611Y-10662D02*
X16603Y-10662D01*
X16603Y-10670D01*
X16503Y-10670D01*
X16503Y-10662D01*
X16496Y-10662D01*
X16496Y-10562D01*
X16503Y-10562D01*
X16503Y-10554D01*
X16603Y-10554D01*
X16603Y-10562D01*
X16611Y-10562D01*
X16611Y-10662D01*
X16611Y-10662D01*
G37*
G54D40*
X16611Y-10662D02*
X16603Y-10662D01*
X16603Y-10670D01*
X16503Y-10670D01*
X16503Y-10662D01*
X16496Y-10662D01*
X16496Y-10562D01*
X16503Y-10562D01*
X16503Y-10554D01*
X16603Y-10554D01*
X16603Y-10562D01*
X16611Y-10562D01*
X16611Y-10662D01*
G54D10*
G36*
X19703Y-14710D02*
X19673Y-14740D01*
X19635Y-14832D01*
X19635Y-14852D01*
X19612Y-14797D01*
X19570Y-14755D01*
X19515Y-14732D01*
X19455Y-14732D01*
X19105Y-14732D01*
X19050Y-14755D01*
X19007Y-14797D01*
X18997Y-14822D01*
X18997Y-14811D01*
X18974Y-14756D01*
X18932Y-14714D01*
X18877Y-14691D01*
X18854Y-14691D01*
X18792Y-14629D01*
X18700Y-14591D01*
X18688Y-14591D01*
X18626Y-14653D01*
X18626Y-14752D01*
X18622Y-14756D01*
X18601Y-14806D01*
X18581Y-14756D01*
X18576Y-14751D01*
X18576Y-14653D01*
X18514Y-14591D01*
X18502Y-14591D01*
X18410Y-14629D01*
X18348Y-14691D01*
X18325Y-14691D01*
X18306Y-14699D01*
X18287Y-14691D01*
X18227Y-14691D01*
X18128Y-14691D01*
X18109Y-14699D01*
X18090Y-14691D01*
X18030Y-14691D01*
X17932Y-14691D01*
X17913Y-14699D01*
X17893Y-14691D01*
X17833Y-14691D01*
X17735Y-14691D01*
X17716Y-14699D01*
X17697Y-14691D01*
X17637Y-14691D01*
X17539Y-14691D01*
X17520Y-14699D01*
X17500Y-14691D01*
X17440Y-14691D01*
X17342Y-14691D01*
X17323Y-14699D01*
X17305Y-14691D01*
X17245Y-14691D01*
X17146Y-14691D01*
X17127Y-14699D01*
X17108Y-14691D01*
X17048Y-14691D01*
X16949Y-14691D01*
X16930Y-14699D01*
X16911Y-14691D01*
X16851Y-14691D01*
X16752Y-14691D01*
X16732Y-14699D01*
X16713Y-14691D01*
X16653Y-14691D01*
X16555Y-14691D01*
X16500Y-14714D01*
X16458Y-14756D01*
X16435Y-14811D01*
X16435Y-14871D01*
X16435Y-15186D01*
X16458Y-15241D01*
X16500Y-15283D01*
X16515Y-15289D01*
X16158Y-15646D01*
X16144Y-15666D01*
X16130Y-15651D01*
X16010Y-15602D01*
X15987Y-15602D01*
X16083Y-15505D01*
X16083Y-15505D01*
X16115Y-15457D01*
X16131Y-15434D01*
X16131Y-15434D01*
X16146Y-15357D01*
X16188Y-15339D01*
X16231Y-15297D01*
X16253Y-15242D01*
X16253Y-15182D01*
X16253Y-14666D01*
X16290Y-14666D01*
X16345Y-14644D01*
X16388Y-14601D01*
X16411Y-14546D01*
X16411Y-14523D01*
X16473Y-14461D01*
X16511Y-14369D01*
X16511Y-14358D01*
X16448Y-14295D01*
X16349Y-14295D01*
X16346Y-14291D01*
X16296Y-14271D01*
X16345Y-14250D01*
X16350Y-14246D01*
X16448Y-14246D01*
X16511Y-14183D01*
X16511Y-14171D01*
X16473Y-14079D01*
X16411Y-14017D01*
X16411Y-13994D01*
X16403Y-13975D01*
X16411Y-13956D01*
X16411Y-13896D01*
X16411Y-13797D01*
X16403Y-13778D01*
X16411Y-13759D01*
X16411Y-13700D01*
X16411Y-13602D01*
X16402Y-13582D01*
X16411Y-13562D01*
X16411Y-13503D01*
X16411Y-13405D01*
X16403Y-13385D01*
X16411Y-13366D01*
X16411Y-13307D01*
X16411Y-13209D01*
X16402Y-13189D01*
X16411Y-13169D01*
X16411Y-13110D01*
X16411Y-13012D01*
X16403Y-12993D01*
X16411Y-12974D01*
X16411Y-12914D01*
X16411Y-12815D01*
X16403Y-12796D01*
X16411Y-12777D01*
X16411Y-12717D01*
X16411Y-12618D01*
X16403Y-12599D01*
X16411Y-12580D01*
X16411Y-12520D01*
X16411Y-12421D01*
X16402Y-12402D01*
X16411Y-12382D01*
X16411Y-12323D01*
X16411Y-12225D01*
X16388Y-12169D01*
X16346Y-12127D01*
X16291Y-12104D01*
X16231Y-12104D01*
X16104Y-12104D01*
X16103Y-12104D01*
X16008Y-12104D01*
X15277Y-11374D01*
X15277Y-11347D01*
X15311Y-11381D01*
X15376Y-11424D01*
X15452Y-11439D01*
X15744Y-11439D01*
X15882Y-11577D01*
X15882Y-11577D01*
X15947Y-11621D01*
X16023Y-11636D01*
X16023Y-11636D01*
X16062Y-11636D01*
X16435Y-11636D01*
X16435Y-11772D01*
X16435Y-11773D01*
X16435Y-11960D01*
X16458Y-12015D01*
X16500Y-12057D01*
X16555Y-12080D01*
X16615Y-12080D01*
X16713Y-12080D01*
X16732Y-12072D01*
X16752Y-12080D01*
X16811Y-12080D01*
X16910Y-12080D01*
X16930Y-12072D01*
X16949Y-12080D01*
X17008Y-12080D01*
X17107Y-12080D01*
X17127Y-12072D01*
X17146Y-12080D01*
X17169Y-12080D01*
X17230Y-12142D01*
X17322Y-12180D01*
X17334Y-12180D01*
X17397Y-12117D01*
X17397Y-12020D01*
X17402Y-12015D01*
X17422Y-11966D01*
X17442Y-12015D01*
X17446Y-12018D01*
X17446Y-12117D01*
X17508Y-12180D01*
X17520Y-12180D01*
X17612Y-12142D01*
X17674Y-12080D01*
X17697Y-12080D01*
X17716Y-12072D01*
X17735Y-12080D01*
X17795Y-12080D01*
X17893Y-12080D01*
X17913Y-12072D01*
X17932Y-12080D01*
X17992Y-12080D01*
X18090Y-12080D01*
X18109Y-12072D01*
X18128Y-12080D01*
X18187Y-12080D01*
X18286Y-12080D01*
X18306Y-12072D01*
X18325Y-12080D01*
X18384Y-12080D01*
X18483Y-12080D01*
X18503Y-12072D01*
X18522Y-12080D01*
X18581Y-12080D01*
X18680Y-12080D01*
X18700Y-12072D01*
X18719Y-12080D01*
X18779Y-12080D01*
X18877Y-12080D01*
X18932Y-12057D01*
X18974Y-12015D01*
X18992Y-11972D01*
X19178Y-11972D01*
X19178Y-12104D01*
X19142Y-12104D01*
X19087Y-12127D01*
X19044Y-12169D01*
X19022Y-12224D01*
X19022Y-12247D01*
X18959Y-12309D01*
X18921Y-12401D01*
X18922Y-12413D01*
X18984Y-12476D01*
X19083Y-12476D01*
X19086Y-12479D01*
X19136Y-12500D01*
X19087Y-12521D01*
X19082Y-12525D01*
X18984Y-12525D01*
X18922Y-12588D01*
X18921Y-12599D01*
X18959Y-12691D01*
X19022Y-12753D01*
X19022Y-12763D01*
X18891Y-12763D01*
X18771Y-12813D01*
X18679Y-12904D01*
X18629Y-13025D01*
X18629Y-13155D01*
X18679Y-13275D01*
X18771Y-13367D01*
X18891Y-13417D01*
X19021Y-13417D01*
X19022Y-13417D01*
X19022Y-13464D01*
X19022Y-13562D01*
X19030Y-13582D01*
X19022Y-13601D01*
X19022Y-13661D01*
X19022Y-13759D01*
X19029Y-13778D01*
X19022Y-13797D01*
X19022Y-13857D01*
X19022Y-13956D01*
X19029Y-13975D01*
X19022Y-13994D01*
X19022Y-14054D01*
X19022Y-14153D01*
X19029Y-14172D01*
X19022Y-14191D01*
X19022Y-14251D01*
X19022Y-14350D01*
X19030Y-14369D01*
X19022Y-14388D01*
X19022Y-14448D01*
X19022Y-14546D01*
X19044Y-14601D01*
X19086Y-14643D01*
X19142Y-14666D01*
X19201Y-14666D01*
X19328Y-14666D01*
X19329Y-14667D01*
X19660Y-14667D01*
X19703Y-14710D01*
X19703Y-14710D01*
G37*
G54D40*
X19703Y-14710D02*
X19673Y-14740D01*
X19635Y-14832D01*
X19635Y-14852D01*
X19612Y-14797D01*
X19570Y-14755D01*
X19515Y-14732D01*
X19455Y-14732D01*
X19105Y-14732D01*
X19050Y-14755D01*
X19007Y-14797D01*
X18997Y-14822D01*
X18997Y-14811D01*
X18974Y-14756D01*
X18932Y-14714D01*
X18877Y-14691D01*
X18854Y-14691D01*
X18792Y-14629D01*
X18700Y-14591D01*
X18688Y-14591D01*
X18626Y-14653D01*
X18626Y-14752D01*
X18622Y-14756D01*
X18601Y-14806D01*
X18581Y-14756D01*
X18576Y-14751D01*
X18576Y-14653D01*
X18514Y-14591D01*
X18502Y-14591D01*
X18410Y-14629D01*
X18348Y-14691D01*
X18325Y-14691D01*
X18306Y-14699D01*
X18287Y-14691D01*
X18227Y-14691D01*
X18128Y-14691D01*
X18109Y-14699D01*
X18090Y-14691D01*
X18030Y-14691D01*
X17932Y-14691D01*
X17913Y-14699D01*
X17893Y-14691D01*
X17833Y-14691D01*
X17735Y-14691D01*
X17716Y-14699D01*
X17697Y-14691D01*
X17637Y-14691D01*
X17539Y-14691D01*
X17520Y-14699D01*
X17500Y-14691D01*
X17440Y-14691D01*
X17342Y-14691D01*
X17323Y-14699D01*
X17305Y-14691D01*
X17245Y-14691D01*
X17146Y-14691D01*
X17127Y-14699D01*
X17108Y-14691D01*
X17048Y-14691D01*
X16949Y-14691D01*
X16930Y-14699D01*
X16911Y-14691D01*
X16851Y-14691D01*
X16752Y-14691D01*
X16732Y-14699D01*
X16713Y-14691D01*
X16653Y-14691D01*
X16555Y-14691D01*
X16500Y-14714D01*
X16458Y-14756D01*
X16435Y-14811D01*
X16435Y-14871D01*
X16435Y-15186D01*
X16458Y-15241D01*
X16500Y-15283D01*
X16515Y-15289D01*
X16158Y-15646D01*
X16144Y-15666D01*
X16130Y-15651D01*
X16010Y-15602D01*
X15987Y-15602D01*
X16083Y-15505D01*
X16083Y-15505D01*
X16115Y-15457D01*
X16131Y-15434D01*
X16131Y-15434D01*
X16146Y-15357D01*
X16188Y-15339D01*
X16231Y-15297D01*
X16253Y-15242D01*
X16253Y-15182D01*
X16253Y-14666D01*
X16290Y-14666D01*
X16345Y-14644D01*
X16388Y-14601D01*
X16411Y-14546D01*
X16411Y-14523D01*
X16473Y-14461D01*
X16511Y-14369D01*
X16511Y-14358D01*
X16448Y-14295D01*
X16349Y-14295D01*
X16346Y-14291D01*
X16296Y-14271D01*
X16345Y-14250D01*
X16350Y-14246D01*
X16448Y-14246D01*
X16511Y-14183D01*
X16511Y-14171D01*
X16473Y-14079D01*
X16411Y-14017D01*
X16411Y-13994D01*
X16403Y-13975D01*
X16411Y-13956D01*
X16411Y-13896D01*
X16411Y-13797D01*
X16403Y-13778D01*
X16411Y-13759D01*
X16411Y-13700D01*
X16411Y-13602D01*
X16402Y-13582D01*
X16411Y-13562D01*
X16411Y-13503D01*
X16411Y-13405D01*
X16403Y-13385D01*
X16411Y-13366D01*
X16411Y-13307D01*
X16411Y-13209D01*
X16402Y-13189D01*
X16411Y-13169D01*
X16411Y-13110D01*
X16411Y-13012D01*
X16403Y-12993D01*
X16411Y-12974D01*
X16411Y-12914D01*
X16411Y-12815D01*
X16403Y-12796D01*
X16411Y-12777D01*
X16411Y-12717D01*
X16411Y-12618D01*
X16403Y-12599D01*
X16411Y-12580D01*
X16411Y-12520D01*
X16411Y-12421D01*
X16402Y-12402D01*
X16411Y-12382D01*
X16411Y-12323D01*
X16411Y-12225D01*
X16388Y-12169D01*
X16346Y-12127D01*
X16291Y-12104D01*
X16231Y-12104D01*
X16104Y-12104D01*
X16103Y-12104D01*
X16008Y-12104D01*
X15277Y-11374D01*
X15277Y-11347D01*
X15311Y-11381D01*
X15376Y-11424D01*
X15452Y-11439D01*
X15744Y-11439D01*
X15882Y-11577D01*
X15882Y-11577D01*
X15947Y-11621D01*
X16023Y-11636D01*
X16023Y-11636D01*
X16062Y-11636D01*
X16435Y-11636D01*
X16435Y-11772D01*
X16435Y-11773D01*
X16435Y-11960D01*
X16458Y-12015D01*
X16500Y-12057D01*
X16555Y-12080D01*
X16615Y-12080D01*
X16713Y-12080D01*
X16732Y-12072D01*
X16752Y-12080D01*
X16811Y-12080D01*
X16910Y-12080D01*
X16930Y-12072D01*
X16949Y-12080D01*
X17008Y-12080D01*
X17107Y-12080D01*
X17127Y-12072D01*
X17146Y-12080D01*
X17169Y-12080D01*
X17230Y-12142D01*
X17322Y-12180D01*
X17334Y-12180D01*
X17397Y-12117D01*
X17397Y-12020D01*
X17402Y-12015D01*
X17422Y-11966D01*
X17442Y-12015D01*
X17446Y-12018D01*
X17446Y-12117D01*
X17508Y-12180D01*
X17520Y-12180D01*
X17612Y-12142D01*
X17674Y-12080D01*
X17697Y-12080D01*
X17716Y-12072D01*
X17735Y-12080D01*
X17795Y-12080D01*
X17893Y-12080D01*
X17913Y-12072D01*
X17932Y-12080D01*
X17992Y-12080D01*
X18090Y-12080D01*
X18109Y-12072D01*
X18128Y-12080D01*
X18187Y-12080D01*
X18286Y-12080D01*
X18306Y-12072D01*
X18325Y-12080D01*
X18384Y-12080D01*
X18483Y-12080D01*
X18503Y-12072D01*
X18522Y-12080D01*
X18581Y-12080D01*
X18680Y-12080D01*
X18700Y-12072D01*
X18719Y-12080D01*
X18779Y-12080D01*
X18877Y-12080D01*
X18932Y-12057D01*
X18974Y-12015D01*
X18992Y-11972D01*
X19178Y-11972D01*
X19178Y-12104D01*
X19142Y-12104D01*
X19087Y-12127D01*
X19044Y-12169D01*
X19022Y-12224D01*
X19022Y-12247D01*
X18959Y-12309D01*
X18921Y-12401D01*
X18922Y-12413D01*
X18984Y-12476D01*
X19083Y-12476D01*
X19086Y-12479D01*
X19136Y-12500D01*
X19087Y-12521D01*
X19082Y-12525D01*
X18984Y-12525D01*
X18922Y-12588D01*
X18921Y-12599D01*
X18959Y-12691D01*
X19022Y-12753D01*
X19022Y-12763D01*
X18891Y-12763D01*
X18771Y-12813D01*
X18679Y-12904D01*
X18629Y-13025D01*
X18629Y-13155D01*
X18679Y-13275D01*
X18771Y-13367D01*
X18891Y-13417D01*
X19021Y-13417D01*
X19022Y-13417D01*
X19022Y-13464D01*
X19022Y-13562D01*
X19030Y-13582D01*
X19022Y-13601D01*
X19022Y-13661D01*
X19022Y-13759D01*
X19029Y-13778D01*
X19022Y-13797D01*
X19022Y-13857D01*
X19022Y-13956D01*
X19029Y-13975D01*
X19022Y-13994D01*
X19022Y-14054D01*
X19022Y-14153D01*
X19029Y-14172D01*
X19022Y-14191D01*
X19022Y-14251D01*
X19022Y-14350D01*
X19030Y-14369D01*
X19022Y-14388D01*
X19022Y-14448D01*
X19022Y-14546D01*
X19044Y-14601D01*
X19086Y-14643D01*
X19142Y-14666D01*
X19201Y-14666D01*
X19328Y-14666D01*
X19329Y-14667D01*
X19660Y-14667D01*
X19703Y-14710D01*
G54D10*
G36*
X20117Y-15207D02*
X20110Y-15207D01*
X20110Y-15215D01*
X20010Y-15215D01*
X20010Y-15207D01*
X20002Y-15207D01*
X20002Y-15107D01*
X20010Y-15107D01*
X20010Y-15099D01*
X20110Y-15099D01*
X20110Y-15107D01*
X20117Y-15107D01*
X20117Y-15207D01*
X20117Y-15207D01*
G37*
G54D40*
X20117Y-15207D02*
X20110Y-15207D01*
X20110Y-15215D01*
X20010Y-15215D01*
X20010Y-15207D01*
X20002Y-15207D01*
X20002Y-15107D01*
X20010Y-15107D01*
X20010Y-15099D01*
X20110Y-15099D01*
X20110Y-15107D01*
X20117Y-15107D01*
X20117Y-15207D01*
G54D10*
G36*
X21420Y-11498D02*
X20598Y-12320D01*
X20519Y-12320D01*
X20570Y-12299D01*
X20640Y-12229D01*
X20678Y-12137D01*
X20678Y-12037D01*
X20678Y-11924D01*
X20616Y-11862D01*
X20303Y-11862D01*
X20303Y-12274D01*
X20360Y-12331D01*
X20329Y-12337D01*
X20258Y-12384D01*
X20211Y-12455D01*
X20210Y-12460D01*
X20172Y-12498D01*
X19737Y-12498D01*
X19737Y-12450D01*
X19699Y-12450D01*
X19737Y-12413D01*
X19737Y-12401D01*
X19699Y-12309D01*
X19650Y-12261D01*
X19666Y-12237D01*
X19708Y-12237D01*
X19763Y-12214D01*
X19806Y-12172D01*
X19828Y-12117D01*
X19828Y-12087D01*
X19828Y-12137D01*
X19867Y-12229D01*
X19937Y-12299D01*
X20029Y-12337D01*
X20141Y-12337D01*
X20203Y-12274D01*
X20203Y-11862D01*
X20196Y-11862D01*
X20196Y-11762D01*
X20203Y-11762D01*
X20203Y-11754D01*
X20303Y-11754D01*
X20303Y-11762D01*
X20616Y-11762D01*
X20678Y-11699D01*
X20678Y-11586D01*
X20678Y-11498D01*
X21420Y-11498D01*
X21420Y-11498D01*
G37*
G54D40*
X21420Y-11498D02*
X20598Y-12320D01*
X20519Y-12320D01*
X20570Y-12299D01*
X20640Y-12229D01*
X20678Y-12137D01*
X20678Y-12037D01*
X20678Y-11924D01*
X20616Y-11862D01*
X20303Y-11862D01*
X20303Y-12274D01*
X20360Y-12331D01*
X20329Y-12337D01*
X20258Y-12384D01*
X20211Y-12455D01*
X20210Y-12460D01*
X20172Y-12498D01*
X19737Y-12498D01*
X19737Y-12450D01*
X19699Y-12450D01*
X19737Y-12413D01*
X19737Y-12401D01*
X19699Y-12309D01*
X19650Y-12261D01*
X19666Y-12237D01*
X19708Y-12237D01*
X19763Y-12214D01*
X19806Y-12172D01*
X19828Y-12117D01*
X19828Y-12087D01*
X19828Y-12137D01*
X19867Y-12229D01*
X19937Y-12299D01*
X20029Y-12337D01*
X20141Y-12337D01*
X20203Y-12274D01*
X20203Y-11862D01*
X20196Y-11862D01*
X20196Y-11762D01*
X20203Y-11762D01*
X20203Y-11754D01*
X20303Y-11754D01*
X20303Y-11762D01*
X20616Y-11762D01*
X20678Y-11699D01*
X20678Y-11586D01*
X20678Y-11498D01*
X21420Y-11498D01*
G54D10*
G36*
X24075Y-179D02*
X23972Y-282D01*
X23904Y-447D01*
X23903Y-626D01*
X23972Y-791D01*
X24066Y-886D01*
X24066Y-5268D01*
X23726Y-5607D01*
X23416Y-5607D01*
X23442Y-5545D01*
X23442Y-5246D01*
X23404Y-5154D01*
X23396Y-5145D01*
X23404Y-5137D01*
X23442Y-5045D01*
X23442Y-4746D01*
X23404Y-4654D01*
X23396Y-4645D01*
X23404Y-4637D01*
X23442Y-4545D01*
X23442Y-4246D01*
X23404Y-4154D01*
X23396Y-4145D01*
X23404Y-4137D01*
X23442Y-4045D01*
X23442Y-4008D01*
X23380Y-3945D01*
X22992Y-3945D01*
X22992Y-4108D01*
X22992Y-4183D01*
X22992Y-4345D01*
X23380Y-4345D01*
X23442Y-4283D01*
X23442Y-4246D01*
X23442Y-4545D01*
X23442Y-4508D01*
X23380Y-4445D01*
X22992Y-4445D01*
X22992Y-4608D01*
X22992Y-4683D01*
X22992Y-4845D01*
X23380Y-4845D01*
X23442Y-4783D01*
X23442Y-4746D01*
X23442Y-5045D01*
X23442Y-5008D01*
X23380Y-4945D01*
X22992Y-4945D01*
X22992Y-5108D01*
X22992Y-5183D01*
X22992Y-5345D01*
X23380Y-5345D01*
X23442Y-5283D01*
X23442Y-5246D01*
X23442Y-5545D01*
X23442Y-5508D01*
X23380Y-5445D01*
X22992Y-5445D01*
X22992Y-5453D01*
X22892Y-5453D01*
X22892Y-5445D01*
X22892Y-5345D01*
X22892Y-5183D01*
X22892Y-5108D01*
X22892Y-4945D01*
X22892Y-4845D01*
X22892Y-4683D01*
X22892Y-4608D01*
X22892Y-4445D01*
X22892Y-4345D01*
X22892Y-4183D01*
X22892Y-4108D01*
X22892Y-3945D01*
X22505Y-3945D01*
X22442Y-4008D01*
X22442Y-4045D01*
X22480Y-4137D01*
X22489Y-4145D01*
X22480Y-4154D01*
X22442Y-4246D01*
X22442Y-4283D01*
X22505Y-4345D01*
X22892Y-4345D01*
X22892Y-4445D01*
X22505Y-4445D01*
X22442Y-4508D01*
X22442Y-4545D01*
X22480Y-4637D01*
X22489Y-4645D01*
X22480Y-4654D01*
X22442Y-4746D01*
X22442Y-4783D01*
X22505Y-4845D01*
X22892Y-4845D01*
X22892Y-4945D01*
X22505Y-4945D01*
X22442Y-5008D01*
X22442Y-5045D01*
X22480Y-5137D01*
X22489Y-5145D01*
X22480Y-5154D01*
X22442Y-5246D01*
X22442Y-5283D01*
X22505Y-5345D01*
X22892Y-5345D01*
X22892Y-5445D01*
X22505Y-5445D01*
X22442Y-5508D01*
X22442Y-5545D01*
X22480Y-5637D01*
X22550Y-5707D01*
X22564Y-5713D01*
X22542Y-5765D01*
X22542Y-5825D01*
X22542Y-6025D01*
X22565Y-6080D01*
X22607Y-6122D01*
X22662Y-6145D01*
X22662Y-6145D01*
X22607Y-6168D01*
X22579Y-6196D01*
X20946Y-6196D01*
X20870Y-6211D01*
X20805Y-6254D01*
X20805Y-6254D01*
X20805Y-6254D01*
X19628Y-7432D01*
X19628Y-6938D01*
X19631Y-6934D01*
X19648Y-6850D01*
X19648Y-6626D01*
X20509Y-5765D01*
X20509Y-5765D01*
X20540Y-5717D01*
X20556Y-5694D01*
X20556Y-5694D01*
X20573Y-5610D01*
X20573Y-5610D01*
X20573Y-3397D01*
X20856Y-3114D01*
X22599Y-3114D01*
X22607Y-3122D01*
X22662Y-3145D01*
X22662Y-3145D01*
X22607Y-3168D01*
X22565Y-3210D01*
X22542Y-3265D01*
X22542Y-3325D01*
X22542Y-3525D01*
X22564Y-3578D01*
X22550Y-3583D01*
X22480Y-3654D01*
X22442Y-3746D01*
X22442Y-3783D01*
X22505Y-3845D01*
X22892Y-3845D01*
X22892Y-3837D01*
X22992Y-3837D01*
X22992Y-3845D01*
X23380Y-3845D01*
X23442Y-3783D01*
X23442Y-3746D01*
X23411Y-3670D01*
X23455Y-3661D01*
X23455Y-3661D01*
X23549Y-3599D01*
X23757Y-3390D01*
X23757Y-3390D01*
X23757Y-3390D01*
X23819Y-3297D01*
X23841Y-3187D01*
X23841Y-3187D01*
X23841Y-737D01*
X23819Y-627D01*
X23803Y-603D01*
X23803Y-207D01*
X23792Y-179D01*
X24075Y-179D01*
X24075Y-179D01*
G37*
G54D40*
X24075Y-179D02*
X23972Y-282D01*
X23904Y-447D01*
X23903Y-626D01*
X23972Y-791D01*
X24066Y-886D01*
X24066Y-5268D01*
X23726Y-5607D01*
X23416Y-5607D01*
X23442Y-5545D01*
X23442Y-5246D01*
X23404Y-5154D01*
X23396Y-5145D01*
X23404Y-5137D01*
X23442Y-5045D01*
X23442Y-4746D01*
X23404Y-4654D01*
X23396Y-4645D01*
X23404Y-4637D01*
X23442Y-4545D01*
X23442Y-4246D01*
X23404Y-4154D01*
X23396Y-4145D01*
X23404Y-4137D01*
X23442Y-4045D01*
X23442Y-4008D01*
X23380Y-3945D01*
X22992Y-3945D01*
X22992Y-4108D01*
X22992Y-4183D01*
X22992Y-4345D01*
X23380Y-4345D01*
X23442Y-4283D01*
X23442Y-4246D01*
X23442Y-4545D01*
X23442Y-4508D01*
X23380Y-4445D01*
X22992Y-4445D01*
X22992Y-4608D01*
X22992Y-4683D01*
X22992Y-4845D01*
X23380Y-4845D01*
X23442Y-4783D01*
X23442Y-4746D01*
X23442Y-5045D01*
X23442Y-5008D01*
X23380Y-4945D01*
X22992Y-4945D01*
X22992Y-5108D01*
X22992Y-5183D01*
X22992Y-5345D01*
X23380Y-5345D01*
X23442Y-5283D01*
X23442Y-5246D01*
X23442Y-5545D01*
X23442Y-5508D01*
X23380Y-5445D01*
X22992Y-5445D01*
X22992Y-5453D01*
X22892Y-5453D01*
X22892Y-5445D01*
X22892Y-5345D01*
X22892Y-5183D01*
X22892Y-5108D01*
X22892Y-4945D01*
X22892Y-4845D01*
X22892Y-4683D01*
X22892Y-4608D01*
X22892Y-4445D01*
X22892Y-4345D01*
X22892Y-4183D01*
X22892Y-4108D01*
X22892Y-3945D01*
X22505Y-3945D01*
X22442Y-4008D01*
X22442Y-4045D01*
X22480Y-4137D01*
X22489Y-4145D01*
X22480Y-4154D01*
X22442Y-4246D01*
X22442Y-4283D01*
X22505Y-4345D01*
X22892Y-4345D01*
X22892Y-4445D01*
X22505Y-4445D01*
X22442Y-4508D01*
X22442Y-4545D01*
X22480Y-4637D01*
X22489Y-4645D01*
X22480Y-4654D01*
X22442Y-4746D01*
X22442Y-4783D01*
X22505Y-4845D01*
X22892Y-4845D01*
X22892Y-4945D01*
X22505Y-4945D01*
X22442Y-5008D01*
X22442Y-5045D01*
X22480Y-5137D01*
X22489Y-5145D01*
X22480Y-5154D01*
X22442Y-5246D01*
X22442Y-5283D01*
X22505Y-5345D01*
X22892Y-5345D01*
X22892Y-5445D01*
X22505Y-5445D01*
X22442Y-5508D01*
X22442Y-5545D01*
X22480Y-5637D01*
X22550Y-5707D01*
X22564Y-5713D01*
X22542Y-5765D01*
X22542Y-5825D01*
X22542Y-6025D01*
X22565Y-6080D01*
X22607Y-6122D01*
X22662Y-6145D01*
X22662Y-6145D01*
X22607Y-6168D01*
X22579Y-6196D01*
X20946Y-6196D01*
X20870Y-6211D01*
X20805Y-6254D01*
X20805Y-6254D01*
X20805Y-6254D01*
X19628Y-7432D01*
X19628Y-6938D01*
X19631Y-6934D01*
X19648Y-6850D01*
X19648Y-6626D01*
X20509Y-5765D01*
X20509Y-5765D01*
X20540Y-5717D01*
X20556Y-5694D01*
X20556Y-5694D01*
X20573Y-5610D01*
X20573Y-5610D01*
X20573Y-3397D01*
X20856Y-3114D01*
X22599Y-3114D01*
X22607Y-3122D01*
X22662Y-3145D01*
X22662Y-3145D01*
X22607Y-3168D01*
X22565Y-3210D01*
X22542Y-3265D01*
X22542Y-3325D01*
X22542Y-3525D01*
X22564Y-3578D01*
X22550Y-3583D01*
X22480Y-3654D01*
X22442Y-3746D01*
X22442Y-3783D01*
X22505Y-3845D01*
X22892Y-3845D01*
X22892Y-3837D01*
X22992Y-3837D01*
X22992Y-3845D01*
X23380Y-3845D01*
X23442Y-3783D01*
X23442Y-3746D01*
X23411Y-3670D01*
X23455Y-3661D01*
X23455Y-3661D01*
X23549Y-3599D01*
X23757Y-3390D01*
X23757Y-3390D01*
X23757Y-3390D01*
X23819Y-3297D01*
X23841Y-3187D01*
X23841Y-3187D01*
X23841Y-737D01*
X23819Y-627D01*
X23803Y-603D01*
X23803Y-207D01*
X23792Y-179D01*
X24075Y-179D01*
G54D10*
G36*
X27891Y-9633D02*
X26917Y-10607D01*
X26748Y-10607D01*
X26748Y-9531D01*
X26748Y-9171D01*
X26725Y-9115D01*
X26683Y-9073D01*
X26628Y-9050D01*
X26568Y-9050D01*
X26208Y-9050D01*
X26153Y-9073D01*
X26111Y-9115D01*
X26104Y-9132D01*
X25956Y-9132D01*
X25953Y-9128D01*
X25898Y-9105D01*
X25838Y-9105D01*
X25488Y-9105D01*
X25433Y-9128D01*
X25391Y-9170D01*
X25368Y-9225D01*
X25368Y-9285D01*
X25368Y-9735D01*
X25268Y-9835D01*
X25268Y-9835D01*
X25268Y-9776D01*
X25268Y-9226D01*
X25245Y-9170D01*
X25203Y-9128D01*
X25191Y-9123D01*
X25191Y-9030D01*
X25191Y-8837D01*
X25202Y-8832D01*
X25245Y-8790D01*
X25268Y-8735D01*
X25268Y-8676D01*
X25268Y-8126D01*
X25245Y-8070D01*
X25203Y-8028D01*
X25148Y-8005D01*
X25088Y-8005D01*
X24738Y-8005D01*
X24683Y-8028D01*
X24641Y-8070D01*
X24618Y-8125D01*
X24618Y-8185D01*
X24618Y-8735D01*
X24637Y-8782D01*
X24632Y-8782D01*
X24625Y-8765D01*
X24583Y-8723D01*
X24528Y-8700D01*
X24468Y-8700D01*
X24108Y-8700D01*
X24053Y-8723D01*
X24011Y-8765D01*
X23988Y-8820D01*
X23988Y-8880D01*
X23988Y-9240D01*
X24010Y-9295D01*
X24053Y-9337D01*
X24108Y-9360D01*
X24167Y-9360D01*
X24527Y-9360D01*
X24582Y-9337D01*
X24618Y-9302D01*
X24618Y-9835D01*
X24640Y-9890D01*
X24683Y-9932D01*
X24738Y-9955D01*
X24739Y-9955D01*
X24663Y-10030D01*
X24613Y-10151D01*
X24613Y-10281D01*
X24663Y-10401D01*
X24755Y-10493D01*
X24875Y-10543D01*
X25005Y-10543D01*
X25126Y-10494D01*
X25184Y-10435D01*
X25196Y-10435D01*
X25196Y-10435D01*
X25280Y-10418D01*
X25351Y-10371D01*
X25767Y-9955D01*
X25897Y-9955D01*
X25952Y-9932D01*
X25995Y-9890D01*
X26018Y-9835D01*
X26018Y-9776D01*
X26018Y-9629D01*
X26104Y-9629D01*
X26110Y-9645D01*
X26153Y-9687D01*
X26208Y-9710D01*
X26267Y-9710D01*
X26627Y-9710D01*
X26682Y-9687D01*
X26725Y-9645D01*
X26748Y-9590D01*
X26748Y-9531D01*
X26748Y-10607D01*
X25846Y-10607D01*
X25762Y-10624D01*
X25691Y-10671D01*
X25653Y-10709D01*
X25604Y-10590D01*
X25512Y-10498D01*
X25392Y-10448D01*
X25261Y-10448D01*
X25141Y-10498D01*
X25049Y-10590D01*
X24999Y-10710D01*
X24999Y-10793D01*
X24763Y-11029D01*
X23948Y-11029D01*
X23948Y-9610D01*
X23948Y-9493D01*
X23885Y-9430D01*
X23568Y-9430D01*
X23568Y-9748D01*
X23630Y-9810D01*
X23648Y-9810D01*
X23748Y-9810D01*
X23839Y-9772D01*
X23910Y-9702D01*
X23948Y-9610D01*
X23948Y-11029D01*
X23468Y-11029D01*
X23468Y-9748D01*
X23468Y-9430D01*
X23150Y-9430D01*
X23125Y-9455D01*
X22868Y-9455D01*
X22868Y-9768D01*
X22930Y-9830D01*
X23043Y-9830D01*
X23143Y-9830D01*
X23234Y-9792D01*
X23237Y-9789D01*
X23288Y-9810D01*
X23387Y-9810D01*
X23405Y-9810D01*
X23468Y-9748D01*
X23468Y-11029D01*
X22768Y-11029D01*
X22768Y-9768D01*
X22768Y-9455D01*
X22355Y-9455D01*
X22293Y-9518D01*
X22293Y-9630D01*
X22331Y-9722D01*
X22401Y-9792D01*
X22493Y-9830D01*
X22592Y-9830D01*
X22705Y-9830D01*
X22768Y-9768D01*
X22768Y-11029D01*
X21484Y-11029D01*
X21400Y-11045D01*
X21378Y-11060D01*
X20105Y-11060D01*
X20047Y-11002D01*
X19927Y-10952D01*
X19797Y-10952D01*
X19677Y-11002D01*
X19585Y-11093D01*
X19535Y-11214D01*
X19535Y-11297D01*
X19444Y-11387D01*
X19299Y-11387D01*
X19244Y-11410D01*
X19201Y-11452D01*
X19178Y-11507D01*
X19178Y-11567D01*
X19178Y-11573D01*
X18992Y-11573D01*
X18974Y-11530D01*
X18932Y-11488D01*
X18889Y-11470D01*
X19993Y-10367D01*
X19993Y-10367D01*
X19993Y-10367D01*
X20036Y-10302D01*
X20036Y-10302D01*
X20051Y-10226D01*
X20051Y-10226D01*
X20051Y-8281D01*
X20653Y-7679D01*
X21980Y-7679D01*
X22058Y-7757D01*
X22178Y-7807D01*
X22219Y-7807D01*
X22418Y-8005D01*
X22418Y-8235D01*
X22440Y-8290D01*
X22483Y-8332D01*
X22495Y-8338D01*
X22458Y-8353D01*
X22416Y-8395D01*
X22393Y-8450D01*
X22393Y-8510D01*
X22393Y-8860D01*
X22415Y-8915D01*
X22458Y-8957D01*
X22513Y-8980D01*
X22543Y-8980D01*
X22493Y-8980D01*
X22401Y-9018D01*
X22331Y-9089D01*
X22293Y-9181D01*
X22293Y-9293D01*
X22355Y-9355D01*
X22768Y-9355D01*
X22768Y-9347D01*
X22868Y-9347D01*
X22868Y-9355D01*
X23280Y-9355D01*
X23305Y-9330D01*
X23468Y-9330D01*
X23468Y-9322D01*
X23568Y-9322D01*
X23568Y-9330D01*
X23885Y-9330D01*
X23948Y-9268D01*
X23948Y-9151D01*
X23910Y-9059D01*
X23839Y-8988D01*
X23799Y-8971D01*
X23825Y-8945D01*
X23848Y-8890D01*
X23848Y-8831D01*
X23848Y-8471D01*
X23825Y-8415D01*
X23783Y-8373D01*
X23766Y-8366D01*
X23766Y-8319D01*
X23795Y-8290D01*
X23818Y-8235D01*
X23818Y-8176D01*
X23818Y-7626D01*
X23795Y-7570D01*
X23753Y-7528D01*
X23698Y-7505D01*
X23638Y-7505D01*
X23288Y-7505D01*
X23233Y-7528D01*
X23191Y-7570D01*
X23168Y-7625D01*
X23168Y-7685D01*
X23168Y-8235D01*
X23190Y-8290D01*
X23233Y-8332D01*
X23269Y-8348D01*
X23269Y-8366D01*
X23253Y-8373D01*
X23223Y-8403D01*
X23220Y-8395D01*
X23178Y-8353D01*
X23123Y-8330D01*
X23066Y-8330D01*
X23066Y-8239D01*
X23068Y-8235D01*
X23068Y-8176D01*
X23068Y-7626D01*
X23045Y-7570D01*
X23003Y-7528D01*
X22948Y-7505D01*
X22888Y-7505D01*
X22620Y-7505D01*
X22571Y-7456D01*
X22571Y-7415D01*
X22521Y-7295D01*
X22429Y-7203D01*
X22309Y-7153D01*
X22179Y-7153D01*
X22059Y-7202D01*
X21980Y-7281D01*
X20570Y-7281D01*
X20494Y-7296D01*
X20430Y-7339D01*
X19844Y-7924D01*
X19844Y-7779D01*
X21029Y-6594D01*
X22579Y-6594D01*
X22607Y-6622D01*
X22662Y-6645D01*
X22662Y-6645D01*
X22607Y-6668D01*
X22565Y-6710D01*
X22542Y-6765D01*
X22542Y-6825D01*
X22542Y-7025D01*
X22565Y-7080D01*
X22607Y-7122D01*
X22662Y-7145D01*
X22722Y-7145D01*
X23222Y-7145D01*
X23226Y-7144D01*
X24666Y-7144D01*
X25316Y-7793D01*
X25316Y-7793D01*
X25370Y-7829D01*
X25397Y-7847D01*
X25397Y-7847D01*
X25492Y-7866D01*
X25492Y-7866D01*
X26097Y-7866D01*
X26582Y-8350D01*
X26568Y-8350D01*
X26208Y-8350D01*
X26153Y-8373D01*
X26111Y-8415D01*
X26104Y-8432D01*
X26046Y-8432D01*
X26018Y-8404D01*
X26018Y-8126D01*
X25995Y-8070D01*
X25953Y-8028D01*
X25898Y-8005D01*
X25838Y-8005D01*
X25488Y-8005D01*
X25433Y-8028D01*
X25391Y-8070D01*
X25368Y-8125D01*
X25368Y-8185D01*
X25368Y-8735D01*
X25390Y-8790D01*
X25433Y-8832D01*
X25488Y-8855D01*
X25547Y-8855D01*
X25766Y-8855D01*
X25767Y-8856D01*
X25767Y-8856D01*
X25821Y-8892D01*
X25848Y-8910D01*
X25848Y-8910D01*
X25943Y-8929D01*
X26104Y-8929D01*
X26110Y-8945D01*
X26153Y-8987D01*
X26208Y-9010D01*
X26267Y-9010D01*
X26627Y-9010D01*
X26682Y-8987D01*
X26725Y-8945D01*
X26748Y-8890D01*
X26748Y-8831D01*
X26748Y-8516D01*
X26954Y-8723D01*
X26953Y-8723D01*
X26911Y-8765D01*
X26888Y-8820D01*
X26888Y-8880D01*
X26888Y-9240D01*
X26910Y-9295D01*
X26953Y-9337D01*
X27008Y-9360D01*
X27067Y-9360D01*
X27427Y-9360D01*
X27482Y-9337D01*
X27525Y-9295D01*
X27548Y-9240D01*
X27548Y-9181D01*
X27548Y-9052D01*
X27891Y-8708D01*
X27891Y-9633D01*
X27891Y-9633D01*
G37*
G54D40*
X27891Y-9633D02*
X26917Y-10607D01*
X26748Y-10607D01*
X26748Y-9531D01*
X26748Y-9171D01*
X26725Y-9115D01*
X26683Y-9073D01*
X26628Y-9050D01*
X26568Y-9050D01*
X26208Y-9050D01*
X26153Y-9073D01*
X26111Y-9115D01*
X26104Y-9132D01*
X25956Y-9132D01*
X25953Y-9128D01*
X25898Y-9105D01*
X25838Y-9105D01*
X25488Y-9105D01*
X25433Y-9128D01*
X25391Y-9170D01*
X25368Y-9225D01*
X25368Y-9285D01*
X25368Y-9735D01*
X25268Y-9835D01*
X25268Y-9835D01*
X25268Y-9776D01*
X25268Y-9226D01*
X25245Y-9170D01*
X25203Y-9128D01*
X25191Y-9123D01*
X25191Y-9030D01*
X25191Y-8837D01*
X25202Y-8832D01*
X25245Y-8790D01*
X25268Y-8735D01*
X25268Y-8676D01*
X25268Y-8126D01*
X25245Y-8070D01*
X25203Y-8028D01*
X25148Y-8005D01*
X25088Y-8005D01*
X24738Y-8005D01*
X24683Y-8028D01*
X24641Y-8070D01*
X24618Y-8125D01*
X24618Y-8185D01*
X24618Y-8735D01*
X24637Y-8782D01*
X24632Y-8782D01*
X24625Y-8765D01*
X24583Y-8723D01*
X24528Y-8700D01*
X24468Y-8700D01*
X24108Y-8700D01*
X24053Y-8723D01*
X24011Y-8765D01*
X23988Y-8820D01*
X23988Y-8880D01*
X23988Y-9240D01*
X24010Y-9295D01*
X24053Y-9337D01*
X24108Y-9360D01*
X24167Y-9360D01*
X24527Y-9360D01*
X24582Y-9337D01*
X24618Y-9302D01*
X24618Y-9835D01*
X24640Y-9890D01*
X24683Y-9932D01*
X24738Y-9955D01*
X24739Y-9955D01*
X24663Y-10030D01*
X24613Y-10151D01*
X24613Y-10281D01*
X24663Y-10401D01*
X24755Y-10493D01*
X24875Y-10543D01*
X25005Y-10543D01*
X25126Y-10494D01*
X25184Y-10435D01*
X25196Y-10435D01*
X25196Y-10435D01*
X25280Y-10418D01*
X25351Y-10371D01*
X25767Y-9955D01*
X25897Y-9955D01*
X25952Y-9932D01*
X25995Y-9890D01*
X26018Y-9835D01*
X26018Y-9776D01*
X26018Y-9629D01*
X26104Y-9629D01*
X26110Y-9645D01*
X26153Y-9687D01*
X26208Y-9710D01*
X26267Y-9710D01*
X26627Y-9710D01*
X26682Y-9687D01*
X26725Y-9645D01*
X26748Y-9590D01*
X26748Y-9531D01*
X26748Y-10607D01*
X25846Y-10607D01*
X25762Y-10624D01*
X25691Y-10671D01*
X25653Y-10709D01*
X25604Y-10590D01*
X25512Y-10498D01*
X25392Y-10448D01*
X25261Y-10448D01*
X25141Y-10498D01*
X25049Y-10590D01*
X24999Y-10710D01*
X24999Y-10793D01*
X24763Y-11029D01*
X23948Y-11029D01*
X23948Y-9610D01*
X23948Y-9493D01*
X23885Y-9430D01*
X23568Y-9430D01*
X23568Y-9748D01*
X23630Y-9810D01*
X23648Y-9810D01*
X23748Y-9810D01*
X23839Y-9772D01*
X23910Y-9702D01*
X23948Y-9610D01*
X23948Y-11029D01*
X23468Y-11029D01*
X23468Y-9748D01*
X23468Y-9430D01*
X23150Y-9430D01*
X23125Y-9455D01*
X22868Y-9455D01*
X22868Y-9768D01*
X22930Y-9830D01*
X23043Y-9830D01*
X23143Y-9830D01*
X23234Y-9792D01*
X23237Y-9789D01*
X23288Y-9810D01*
X23387Y-9810D01*
X23405Y-9810D01*
X23468Y-9748D01*
X23468Y-11029D01*
X22768Y-11029D01*
X22768Y-9768D01*
X22768Y-9455D01*
X22355Y-9455D01*
X22293Y-9518D01*
X22293Y-9630D01*
X22331Y-9722D01*
X22401Y-9792D01*
X22493Y-9830D01*
X22592Y-9830D01*
X22705Y-9830D01*
X22768Y-9768D01*
X22768Y-11029D01*
X21484Y-11029D01*
X21400Y-11045D01*
X21378Y-11060D01*
X20105Y-11060D01*
X20047Y-11002D01*
X19927Y-10952D01*
X19797Y-10952D01*
X19677Y-11002D01*
X19585Y-11093D01*
X19535Y-11214D01*
X19535Y-11297D01*
X19444Y-11387D01*
X19299Y-11387D01*
X19244Y-11410D01*
X19201Y-11452D01*
X19178Y-11507D01*
X19178Y-11567D01*
X19178Y-11573D01*
X18992Y-11573D01*
X18974Y-11530D01*
X18932Y-11488D01*
X18889Y-11470D01*
X19993Y-10367D01*
X19993Y-10367D01*
X19993Y-10367D01*
X20036Y-10302D01*
X20036Y-10302D01*
X20051Y-10226D01*
X20051Y-10226D01*
X20051Y-8281D01*
X20653Y-7679D01*
X21980Y-7679D01*
X22058Y-7757D01*
X22178Y-7807D01*
X22219Y-7807D01*
X22418Y-8005D01*
X22418Y-8235D01*
X22440Y-8290D01*
X22483Y-8332D01*
X22495Y-8338D01*
X22458Y-8353D01*
X22416Y-8395D01*
X22393Y-8450D01*
X22393Y-8510D01*
X22393Y-8860D01*
X22415Y-8915D01*
X22458Y-8957D01*
X22513Y-8980D01*
X22543Y-8980D01*
X22493Y-8980D01*
X22401Y-9018D01*
X22331Y-9089D01*
X22293Y-9181D01*
X22293Y-9293D01*
X22355Y-9355D01*
X22768Y-9355D01*
X22768Y-9347D01*
X22868Y-9347D01*
X22868Y-9355D01*
X23280Y-9355D01*
X23305Y-9330D01*
X23468Y-9330D01*
X23468Y-9322D01*
X23568Y-9322D01*
X23568Y-9330D01*
X23885Y-9330D01*
X23948Y-9268D01*
X23948Y-9151D01*
X23910Y-9059D01*
X23839Y-8988D01*
X23799Y-8971D01*
X23825Y-8945D01*
X23848Y-8890D01*
X23848Y-8831D01*
X23848Y-8471D01*
X23825Y-8415D01*
X23783Y-8373D01*
X23766Y-8366D01*
X23766Y-8319D01*
X23795Y-8290D01*
X23818Y-8235D01*
X23818Y-8176D01*
X23818Y-7626D01*
X23795Y-7570D01*
X23753Y-7528D01*
X23698Y-7505D01*
X23638Y-7505D01*
X23288Y-7505D01*
X23233Y-7528D01*
X23191Y-7570D01*
X23168Y-7625D01*
X23168Y-7685D01*
X23168Y-8235D01*
X23190Y-8290D01*
X23233Y-8332D01*
X23269Y-8348D01*
X23269Y-8366D01*
X23253Y-8373D01*
X23223Y-8403D01*
X23220Y-8395D01*
X23178Y-8353D01*
X23123Y-8330D01*
X23066Y-8330D01*
X23066Y-8239D01*
X23068Y-8235D01*
X23068Y-8176D01*
X23068Y-7626D01*
X23045Y-7570D01*
X23003Y-7528D01*
X22948Y-7505D01*
X22888Y-7505D01*
X22620Y-7505D01*
X22571Y-7456D01*
X22571Y-7415D01*
X22521Y-7295D01*
X22429Y-7203D01*
X22309Y-7153D01*
X22179Y-7153D01*
X22059Y-7202D01*
X21980Y-7281D01*
X20570Y-7281D01*
X20494Y-7296D01*
X20430Y-7339D01*
X19844Y-7924D01*
X19844Y-7779D01*
X21029Y-6594D01*
X22579Y-6594D01*
X22607Y-6622D01*
X22662Y-6645D01*
X22662Y-6645D01*
X22607Y-6668D01*
X22565Y-6710D01*
X22542Y-6765D01*
X22542Y-6825D01*
X22542Y-7025D01*
X22565Y-7080D01*
X22607Y-7122D01*
X22662Y-7145D01*
X22722Y-7145D01*
X23222Y-7145D01*
X23226Y-7144D01*
X24666Y-7144D01*
X25316Y-7793D01*
X25316Y-7793D01*
X25370Y-7829D01*
X25397Y-7847D01*
X25397Y-7847D01*
X25492Y-7866D01*
X25492Y-7866D01*
X26097Y-7866D01*
X26582Y-8350D01*
X26568Y-8350D01*
X26208Y-8350D01*
X26153Y-8373D01*
X26111Y-8415D01*
X26104Y-8432D01*
X26046Y-8432D01*
X26018Y-8404D01*
X26018Y-8126D01*
X25995Y-8070D01*
X25953Y-8028D01*
X25898Y-8005D01*
X25838Y-8005D01*
X25488Y-8005D01*
X25433Y-8028D01*
X25391Y-8070D01*
X25368Y-8125D01*
X25368Y-8185D01*
X25368Y-8735D01*
X25390Y-8790D01*
X25433Y-8832D01*
X25488Y-8855D01*
X25547Y-8855D01*
X25766Y-8855D01*
X25767Y-8856D01*
X25767Y-8856D01*
X25821Y-8892D01*
X25848Y-8910D01*
X25848Y-8910D01*
X25943Y-8929D01*
X26104Y-8929D01*
X26110Y-8945D01*
X26153Y-8987D01*
X26208Y-9010D01*
X26267Y-9010D01*
X26627Y-9010D01*
X26682Y-8987D01*
X26725Y-8945D01*
X26748Y-8890D01*
X26748Y-8831D01*
X26748Y-8516D01*
X26954Y-8723D01*
X26953Y-8723D01*
X26911Y-8765D01*
X26888Y-8820D01*
X26888Y-8880D01*
X26888Y-9240D01*
X26910Y-9295D01*
X26953Y-9337D01*
X27008Y-9360D01*
X27067Y-9360D01*
X27427Y-9360D01*
X27482Y-9337D01*
X27525Y-9295D01*
X27548Y-9240D01*
X27548Y-9181D01*
X27548Y-9052D01*
X27891Y-8708D01*
X27891Y-9633D01*
G54D10*
G36*
X28137Y-5487D02*
X27856Y-5768D01*
X27850Y-5772D01*
X27796Y-5808D01*
X27540Y-6064D01*
X27504Y-6118D01*
X27388Y-6070D01*
X27258Y-6070D01*
X27137Y-6120D01*
X27083Y-6174D01*
X27077Y-6168D01*
X27022Y-6145D01*
X27022Y-6145D01*
X27077Y-6122D01*
X27119Y-6080D01*
X27142Y-6025D01*
X27142Y-5965D01*
X27142Y-5765D01*
X27120Y-5713D01*
X27134Y-5707D01*
X27204Y-5637D01*
X27242Y-5545D01*
X27242Y-5246D01*
X27204Y-5154D01*
X27196Y-5145D01*
X27204Y-5137D01*
X27242Y-5045D01*
X27242Y-4746D01*
X27204Y-4654D01*
X27196Y-4645D01*
X27204Y-4637D01*
X27242Y-4545D01*
X27242Y-4246D01*
X27204Y-4154D01*
X27196Y-4145D01*
X27204Y-4137D01*
X27242Y-4045D01*
X27242Y-4008D01*
X27180Y-3945D01*
X26792Y-3945D01*
X26792Y-4108D01*
X26792Y-4183D01*
X26792Y-4345D01*
X27180Y-4345D01*
X27242Y-4283D01*
X27242Y-4246D01*
X27242Y-4545D01*
X27242Y-4508D01*
X27180Y-4445D01*
X26792Y-4445D01*
X26792Y-4608D01*
X26792Y-4683D01*
X26792Y-4845D01*
X27180Y-4845D01*
X27242Y-4783D01*
X27242Y-4746D01*
X27242Y-5045D01*
X27242Y-5008D01*
X27180Y-4945D01*
X26792Y-4945D01*
X26792Y-5108D01*
X26792Y-5183D01*
X26792Y-5345D01*
X27180Y-5345D01*
X27242Y-5283D01*
X27242Y-5246D01*
X27242Y-5545D01*
X27242Y-5508D01*
X27180Y-5445D01*
X26792Y-5445D01*
X26792Y-5453D01*
X26692Y-5453D01*
X26692Y-5445D01*
X26692Y-5345D01*
X26692Y-5183D01*
X26692Y-5108D01*
X26692Y-4945D01*
X26692Y-4845D01*
X26692Y-4683D01*
X26692Y-4608D01*
X26692Y-4445D01*
X26692Y-4345D01*
X26692Y-4183D01*
X26692Y-4108D01*
X26692Y-3945D01*
X26305Y-3945D01*
X26242Y-4008D01*
X26242Y-4045D01*
X26280Y-4137D01*
X26289Y-4145D01*
X26280Y-4154D01*
X26242Y-4246D01*
X26242Y-4283D01*
X26305Y-4345D01*
X26692Y-4345D01*
X26692Y-4445D01*
X26305Y-4445D01*
X26242Y-4508D01*
X26242Y-4545D01*
X26280Y-4637D01*
X26289Y-4645D01*
X26280Y-4654D01*
X26242Y-4746D01*
X26242Y-4783D01*
X26305Y-4845D01*
X26692Y-4845D01*
X26692Y-4945D01*
X26305Y-4945D01*
X26242Y-5008D01*
X26242Y-5045D01*
X26280Y-5137D01*
X26289Y-5145D01*
X26280Y-5154D01*
X26242Y-5246D01*
X26242Y-5283D01*
X26305Y-5345D01*
X26692Y-5345D01*
X26692Y-5445D01*
X26305Y-5445D01*
X26242Y-5508D01*
X26242Y-5545D01*
X26268Y-5607D01*
X26131Y-5607D01*
X25641Y-5118D01*
X25641Y-885D01*
X25735Y-792D01*
X25803Y-627D01*
X25804Y-448D01*
X25735Y-282D01*
X25632Y-179D01*
X26075Y-179D01*
X25972Y-282D01*
X25904Y-447D01*
X25903Y-603D01*
X25903Y-603D01*
X25888Y-627D01*
X25866Y-737D01*
X25866Y-3287D01*
X25888Y-3397D01*
X25950Y-3490D01*
X26058Y-3599D01*
X26058Y-3599D01*
X26152Y-3661D01*
X26262Y-3683D01*
X26262Y-3683D01*
X26268Y-3683D01*
X26242Y-3746D01*
X26242Y-3783D01*
X26305Y-3845D01*
X26692Y-3845D01*
X26692Y-3837D01*
X26792Y-3837D01*
X26792Y-3845D01*
X27180Y-3845D01*
X27242Y-3783D01*
X27242Y-3746D01*
X27204Y-3654D01*
X27134Y-3583D01*
X27120Y-3578D01*
X27142Y-3525D01*
X27142Y-3465D01*
X27142Y-3265D01*
X27119Y-3210D01*
X27081Y-3172D01*
X27198Y-3220D01*
X27328Y-3220D01*
X27448Y-3171D01*
X27478Y-3141D01*
X27487Y-3185D01*
X27540Y-3266D01*
X28137Y-3862D01*
X28137Y-5487D01*
X28137Y-5487D01*
G37*
G54D40*
X28137Y-5487D02*
X27856Y-5768D01*
X27850Y-5772D01*
X27796Y-5808D01*
X27540Y-6064D01*
X27504Y-6118D01*
X27388Y-6070D01*
X27258Y-6070D01*
X27137Y-6120D01*
X27083Y-6174D01*
X27077Y-6168D01*
X27022Y-6145D01*
X27022Y-6145D01*
X27077Y-6122D01*
X27119Y-6080D01*
X27142Y-6025D01*
X27142Y-5965D01*
X27142Y-5765D01*
X27120Y-5713D01*
X27134Y-5707D01*
X27204Y-5637D01*
X27242Y-5545D01*
X27242Y-5246D01*
X27204Y-5154D01*
X27196Y-5145D01*
X27204Y-5137D01*
X27242Y-5045D01*
X27242Y-4746D01*
X27204Y-4654D01*
X27196Y-4645D01*
X27204Y-4637D01*
X27242Y-4545D01*
X27242Y-4246D01*
X27204Y-4154D01*
X27196Y-4145D01*
X27204Y-4137D01*
X27242Y-4045D01*
X27242Y-4008D01*
X27180Y-3945D01*
X26792Y-3945D01*
X26792Y-4108D01*
X26792Y-4183D01*
X26792Y-4345D01*
X27180Y-4345D01*
X27242Y-4283D01*
X27242Y-4246D01*
X27242Y-4545D01*
X27242Y-4508D01*
X27180Y-4445D01*
X26792Y-4445D01*
X26792Y-4608D01*
X26792Y-4683D01*
X26792Y-4845D01*
X27180Y-4845D01*
X27242Y-4783D01*
X27242Y-4746D01*
X27242Y-5045D01*
X27242Y-5008D01*
X27180Y-4945D01*
X26792Y-4945D01*
X26792Y-5108D01*
X26792Y-5183D01*
X26792Y-5345D01*
X27180Y-5345D01*
X27242Y-5283D01*
X27242Y-5246D01*
X27242Y-5545D01*
X27242Y-5508D01*
X27180Y-5445D01*
X26792Y-5445D01*
X26792Y-5453D01*
X26692Y-5453D01*
X26692Y-5445D01*
X26692Y-5345D01*
X26692Y-5183D01*
X26692Y-5108D01*
X26692Y-4945D01*
X26692Y-4845D01*
X26692Y-4683D01*
X26692Y-4608D01*
X26692Y-4445D01*
X26692Y-4345D01*
X26692Y-4183D01*
X26692Y-4108D01*
X26692Y-3945D01*
X26305Y-3945D01*
X26242Y-4008D01*
X26242Y-4045D01*
X26280Y-4137D01*
X26289Y-4145D01*
X26280Y-4154D01*
X26242Y-4246D01*
X26242Y-4283D01*
X26305Y-4345D01*
X26692Y-4345D01*
X26692Y-4445D01*
X26305Y-4445D01*
X26242Y-4508D01*
X26242Y-4545D01*
X26280Y-4637D01*
X26289Y-4645D01*
X26280Y-4654D01*
X26242Y-4746D01*
X26242Y-4783D01*
X26305Y-4845D01*
X26692Y-4845D01*
X26692Y-4945D01*
X26305Y-4945D01*
X26242Y-5008D01*
X26242Y-5045D01*
X26280Y-5137D01*
X26289Y-5145D01*
X26280Y-5154D01*
X26242Y-5246D01*
X26242Y-5283D01*
X26305Y-5345D01*
X26692Y-5345D01*
X26692Y-5445D01*
X26305Y-5445D01*
X26242Y-5508D01*
X26242Y-5545D01*
X26268Y-5607D01*
X26131Y-5607D01*
X25641Y-5118D01*
X25641Y-885D01*
X25735Y-792D01*
X25803Y-627D01*
X25804Y-448D01*
X25735Y-282D01*
X25632Y-179D01*
X26075Y-179D01*
X25972Y-282D01*
X25904Y-447D01*
X25903Y-603D01*
X25903Y-603D01*
X25888Y-627D01*
X25866Y-737D01*
X25866Y-3287D01*
X25888Y-3397D01*
X25950Y-3490D01*
X26058Y-3599D01*
X26058Y-3599D01*
X26152Y-3661D01*
X26262Y-3683D01*
X26262Y-3683D01*
X26268Y-3683D01*
X26242Y-3746D01*
X26242Y-3783D01*
X26305Y-3845D01*
X26692Y-3845D01*
X26692Y-3837D01*
X26792Y-3837D01*
X26792Y-3845D01*
X27180Y-3845D01*
X27242Y-3783D01*
X27242Y-3746D01*
X27204Y-3654D01*
X27134Y-3583D01*
X27120Y-3578D01*
X27142Y-3525D01*
X27142Y-3465D01*
X27142Y-3265D01*
X27119Y-3210D01*
X27081Y-3172D01*
X27198Y-3220D01*
X27328Y-3220D01*
X27448Y-3171D01*
X27478Y-3141D01*
X27487Y-3185D01*
X27540Y-3266D01*
X28137Y-3862D01*
X28137Y-5487D01*
G54D10*
G36*
X28954Y-14295D02*
X28862Y-14387D01*
X25196Y-14387D01*
X25128Y-14401D01*
X25069Y-14439D01*
X25030Y-14498D01*
X25017Y-14566D01*
X25017Y-21776D01*
X24925Y-21867D01*
X24908Y-21867D01*
X24908Y-21369D01*
X24897Y-21150D01*
X24858Y-21056D01*
X24858Y-19769D01*
X24847Y-19550D01*
X24785Y-19399D01*
X24689Y-19372D01*
X24619Y-19442D01*
X24619Y-19301D01*
X24591Y-19206D01*
X24385Y-19132D01*
X24167Y-19143D01*
X24016Y-19206D01*
X23988Y-19301D01*
X24303Y-19616D01*
X24619Y-19301D01*
X24619Y-19442D01*
X24374Y-19687D01*
X24689Y-20002D01*
X24785Y-19975D01*
X24858Y-19769D01*
X24858Y-21056D01*
X24835Y-20999D01*
X24739Y-20972D01*
X24669Y-21042D01*
X24669Y-20901D01*
X24641Y-20806D01*
X24619Y-20798D01*
X24619Y-20073D01*
X24303Y-19758D01*
X23988Y-20073D01*
X24016Y-20168D01*
X24222Y-20242D01*
X24440Y-20231D01*
X24591Y-20168D01*
X24619Y-20073D01*
X24619Y-20798D01*
X24435Y-20732D01*
X24217Y-20743D01*
X24066Y-20806D01*
X24038Y-20901D01*
X24353Y-21216D01*
X24669Y-20901D01*
X24669Y-21042D01*
X24424Y-21287D01*
X24739Y-21602D01*
X24835Y-21575D01*
X24908Y-21369D01*
X24908Y-21867D01*
X24669Y-21867D01*
X24669Y-21673D01*
X24353Y-21358D01*
X24283Y-21428D01*
X24283Y-21287D01*
X23968Y-20972D01*
X23872Y-20999D01*
X23802Y-21195D01*
X23735Y-21032D01*
X23609Y-20906D01*
X23443Y-20837D01*
X23264Y-20837D01*
X23099Y-20905D01*
X22972Y-21032D01*
X22904Y-21197D01*
X22903Y-21376D01*
X22972Y-21541D01*
X23098Y-21668D01*
X23264Y-21737D01*
X23443Y-21737D01*
X23608Y-21669D01*
X23735Y-21542D01*
X23803Y-21377D01*
X23803Y-21300D01*
X23810Y-21424D01*
X23872Y-21575D01*
X23968Y-21602D01*
X24283Y-21287D01*
X24283Y-21428D01*
X24038Y-21673D01*
X24066Y-21768D01*
X24272Y-21842D01*
X24490Y-21831D01*
X24641Y-21768D01*
X24669Y-21673D01*
X24669Y-21867D01*
X21803Y-21867D01*
X21803Y-21557D01*
X21803Y-20957D01*
X21781Y-20902D01*
X21739Y-20860D01*
X21683Y-20837D01*
X21624Y-20837D01*
X21484Y-20837D01*
X21484Y-19751D01*
X21471Y-19562D01*
X21423Y-19444D01*
X21335Y-19426D01*
X21074Y-19687D01*
X21335Y-19948D01*
X21423Y-19930D01*
X21484Y-19751D01*
X21484Y-20837D01*
X21264Y-20837D01*
X21264Y-20018D01*
X21003Y-19758D01*
X20743Y-20018D01*
X20761Y-20106D01*
X20940Y-20167D01*
X21128Y-20155D01*
X21246Y-20106D01*
X21264Y-20018D01*
X21264Y-20837D01*
X21024Y-20837D01*
X20969Y-20860D01*
X20926Y-20902D01*
X20903Y-20957D01*
X20903Y-21017D01*
X20903Y-21617D01*
X20926Y-21672D01*
X20968Y-21714D01*
X21023Y-21737D01*
X21083Y-21737D01*
X21683Y-21737D01*
X21738Y-21714D01*
X21781Y-21672D01*
X21803Y-21617D01*
X21803Y-21557D01*
X21803Y-21867D01*
X20721Y-21867D01*
X20721Y-21505D01*
X20721Y-20422D01*
X20683Y-20330D01*
X20613Y-20260D01*
X20521Y-20221D01*
X20422Y-20221D01*
X20190Y-20221D01*
X20128Y-20284D01*
X20128Y-20913D01*
X20659Y-20913D01*
X20721Y-20851D01*
X20721Y-20422D01*
X20721Y-21505D01*
X20721Y-21076D01*
X20659Y-21013D01*
X20128Y-21013D01*
X20128Y-21643D01*
X20190Y-21705D01*
X20422Y-21705D01*
X20521Y-21705D01*
X20613Y-21667D01*
X20683Y-21597D01*
X20721Y-21505D01*
X20721Y-21867D01*
X20028Y-21867D01*
X20028Y-21643D01*
X20028Y-21013D01*
X20028Y-20913D01*
X20028Y-20284D01*
X19989Y-20245D01*
X19989Y-19479D01*
X19989Y-18849D01*
X19458Y-18849D01*
X19395Y-18912D01*
X19395Y-19341D01*
X19433Y-19433D01*
X19503Y-19503D01*
X19595Y-19541D01*
X19695Y-19541D01*
X19926Y-19541D01*
X19989Y-19479D01*
X19989Y-20245D01*
X19965Y-20221D01*
X19734Y-20221D01*
X19634Y-20221D01*
X19542Y-20260D01*
X19472Y-20330D01*
X19434Y-20422D01*
X19434Y-20851D01*
X19497Y-20913D01*
X20028Y-20913D01*
X20028Y-21013D01*
X19497Y-21013D01*
X19434Y-21076D01*
X19434Y-21505D01*
X19472Y-21597D01*
X19542Y-21667D01*
X19634Y-21705D01*
X19734Y-21705D01*
X19965Y-21705D01*
X20028Y-21643D01*
X20028Y-21867D01*
X19284Y-21867D01*
X19284Y-19341D01*
X19284Y-18912D01*
X19221Y-18849D01*
X18985Y-18849D01*
X18985Y-19479D01*
X19047Y-19541D01*
X19084Y-19541D01*
X19175Y-19503D01*
X19246Y-19433D01*
X19284Y-19341D01*
X19284Y-21867D01*
X17179Y-21867D01*
X17179Y-21505D01*
X17179Y-20422D01*
X17179Y-19341D01*
X17179Y-18912D01*
X17117Y-18849D01*
X16586Y-18849D01*
X16586Y-19479D01*
X16648Y-19541D01*
X16880Y-19541D01*
X16979Y-19541D01*
X17071Y-19503D01*
X17141Y-19433D01*
X17179Y-19341D01*
X17179Y-20422D01*
X17141Y-20330D01*
X17071Y-20260D01*
X16979Y-20221D01*
X16880Y-20221D01*
X16648Y-20221D01*
X16586Y-20284D01*
X16586Y-20913D01*
X17117Y-20913D01*
X17179Y-20851D01*
X17179Y-20422D01*
X17179Y-21505D01*
X17179Y-21076D01*
X17117Y-21013D01*
X16586Y-21013D01*
X16586Y-21643D01*
X16648Y-21705D01*
X16880Y-21705D01*
X16979Y-21705D01*
X17071Y-21667D01*
X17141Y-21597D01*
X17179Y-21505D01*
X17179Y-21867D01*
X16486Y-21867D01*
X16486Y-21643D01*
X16486Y-21013D01*
X16486Y-20913D01*
X16486Y-20284D01*
X16486Y-19479D01*
X16486Y-18849D01*
X15955Y-18849D01*
X15892Y-18912D01*
X15892Y-19341D01*
X15930Y-19433D01*
X16000Y-19503D01*
X16092Y-19541D01*
X16192Y-19541D01*
X16423Y-19541D01*
X16486Y-19479D01*
X16486Y-20284D01*
X16423Y-20221D01*
X16192Y-20221D01*
X16092Y-20221D01*
X16000Y-20260D01*
X15930Y-20330D01*
X15892Y-20422D01*
X15892Y-20851D01*
X15955Y-20913D01*
X16486Y-20913D01*
X16486Y-21013D01*
X15955Y-21013D01*
X15892Y-21076D01*
X15892Y-21505D01*
X15930Y-21597D01*
X16000Y-21667D01*
X16092Y-21705D01*
X16192Y-21705D01*
X16423Y-21705D01*
X16486Y-21643D01*
X16486Y-21867D01*
X15358Y-21867D01*
X15358Y-21369D01*
X15347Y-21150D01*
X15285Y-20999D01*
X15189Y-20972D01*
X15119Y-21042D01*
X15119Y-20901D01*
X15091Y-20806D01*
X14885Y-20732D01*
X14667Y-20743D01*
X14516Y-20806D01*
X14488Y-20901D01*
X14803Y-21216D01*
X15119Y-20901D01*
X15119Y-21042D01*
X14874Y-21287D01*
X15189Y-21602D01*
X15285Y-21575D01*
X15358Y-21369D01*
X15358Y-21867D01*
X15119Y-21867D01*
X15119Y-21673D01*
X14803Y-21358D01*
X14488Y-21673D01*
X14516Y-21768D01*
X14722Y-21842D01*
X14940Y-21831D01*
X15091Y-21768D01*
X15119Y-21673D01*
X15119Y-21867D01*
X11119Y-21867D01*
X11119Y-21673D01*
X10803Y-21358D01*
X10488Y-21673D01*
X10516Y-21768D01*
X10722Y-21842D01*
X10940Y-21831D01*
X11091Y-21768D01*
X11119Y-21673D01*
X11119Y-21867D01*
X7440Y-21867D01*
X7440Y-21495D01*
X7103Y-21158D01*
X7033Y-21228D01*
X6767Y-21495D01*
X6798Y-21593D01*
X7014Y-21672D01*
X7245Y-21661D01*
X7409Y-21593D01*
X7440Y-21495D01*
X7440Y-21867D01*
X5653Y-21867D01*
X5653Y-21332D01*
X5653Y-20782D01*
X5631Y-20727D01*
X5589Y-20685D01*
X5533Y-20662D01*
X5474Y-20662D01*
X5124Y-20662D01*
X5069Y-20685D01*
X5026Y-20727D01*
X5003Y-20782D01*
X5003Y-20808D01*
X4876Y-20680D01*
X4699Y-20607D01*
X4508Y-20607D01*
X4332Y-20680D01*
X4197Y-20815D01*
X4160Y-20903D01*
X4110Y-20781D01*
X4011Y-20750D01*
X3940Y-20821D01*
X3940Y-20679D01*
X3909Y-20581D01*
X3692Y-20502D01*
X3462Y-20513D01*
X3298Y-20581D01*
X3267Y-20679D01*
X3603Y-21016D01*
X3940Y-20679D01*
X3940Y-20821D01*
X3674Y-21087D01*
X4011Y-21424D01*
X4110Y-21393D01*
X4157Y-21263D01*
X4196Y-21358D01*
X4331Y-21494D01*
X4508Y-21567D01*
X4698Y-21567D01*
X4875Y-21494D01*
X5003Y-21366D01*
X5003Y-21392D01*
X5026Y-21447D01*
X5068Y-21489D01*
X5123Y-21512D01*
X5183Y-21512D01*
X5533Y-21512D01*
X5588Y-21489D01*
X5631Y-21447D01*
X5653Y-21392D01*
X5653Y-21332D01*
X5653Y-21867D01*
X3940Y-21867D01*
X3940Y-21495D01*
X3603Y-21158D01*
X3533Y-21228D01*
X3533Y-21087D01*
X3201Y-20755D01*
X3201Y-19795D01*
X2984Y-19270D01*
X2582Y-18867D01*
X2057Y-18649D01*
X1488Y-18648D01*
X962Y-18866D01*
X560Y-19267D01*
X342Y-19793D01*
X341Y-20361D01*
X559Y-20887D01*
X960Y-21289D01*
X1486Y-21508D01*
X2054Y-21508D01*
X2580Y-21291D01*
X2982Y-20889D01*
X3200Y-20364D01*
X3201Y-19795D01*
X3201Y-20755D01*
X3196Y-20750D01*
X3097Y-20781D01*
X3019Y-20998D01*
X3029Y-21228D01*
X3097Y-21393D01*
X3196Y-21424D01*
X3533Y-21087D01*
X3533Y-21228D01*
X3267Y-21495D01*
X3298Y-21593D01*
X3514Y-21672D01*
X3745Y-21661D01*
X3909Y-21593D01*
X3940Y-21495D01*
X3940Y-21867D01*
X271Y-21867D01*
X179Y-21776D01*
X179Y-16256D01*
X317Y-16394D01*
X388Y-16442D01*
X401Y-16444D01*
X337Y-16599D01*
X337Y-16778D01*
X405Y-16943D01*
X532Y-17070D01*
X697Y-17138D01*
X876Y-17139D01*
X1041Y-17070D01*
X1136Y-16976D01*
X1465Y-16976D01*
X1465Y-17036D01*
X1488Y-17092D01*
X1530Y-17134D01*
X1585Y-17157D01*
X1645Y-17157D01*
X1887Y-17157D01*
X2039Y-17310D01*
X1995Y-17291D01*
X1935Y-17291D01*
X1585Y-17291D01*
X1530Y-17314D01*
X1488Y-17356D01*
X1465Y-17411D01*
X1465Y-17428D01*
X1237Y-17428D01*
X1237Y-17359D01*
X1214Y-17304D01*
X1172Y-17261D01*
X1117Y-17239D01*
X1057Y-17238D01*
X457Y-17238D01*
X402Y-17261D01*
X360Y-17303D01*
X337Y-17359D01*
X337Y-17418D01*
X337Y-18018D01*
X360Y-18073D01*
X402Y-18116D01*
X457Y-18138D01*
X517Y-18139D01*
X1117Y-18139D01*
X1172Y-18116D01*
X1214Y-18074D01*
X1237Y-18018D01*
X1237Y-18004D01*
X1465Y-18004D01*
X1465Y-18021D01*
X1488Y-18076D01*
X1530Y-18118D01*
X1585Y-18141D01*
X1645Y-18141D01*
X1995Y-18141D01*
X2050Y-18118D01*
X2092Y-18076D01*
X2115Y-18021D01*
X2115Y-17961D01*
X2115Y-17411D01*
X2096Y-17367D01*
X2108Y-17379D01*
X2108Y-17379D01*
X2156Y-17410D01*
X2180Y-17426D01*
X2180Y-17426D01*
X2215Y-17433D01*
X2215Y-17471D01*
X2215Y-18021D01*
X2238Y-18076D01*
X2280Y-18118D01*
X2335Y-18141D01*
X2395Y-18141D01*
X2745Y-18141D01*
X2800Y-18118D01*
X2842Y-18076D01*
X2865Y-18021D01*
X2865Y-17964D01*
X5374Y-17964D01*
X5374Y-17964D01*
X5469Y-17946D01*
X5549Y-17892D01*
X7327Y-16114D01*
X7343Y-16114D01*
X7343Y-16114D01*
X7274Y-16311D01*
X7285Y-16520D01*
X7343Y-16660D01*
X7436Y-16684D01*
X7733Y-16387D01*
X7727Y-16381D01*
X7798Y-16311D01*
X7803Y-16316D01*
X7809Y-16311D01*
X7880Y-16381D01*
X7874Y-16387D01*
X8171Y-16684D01*
X8264Y-16660D01*
X8289Y-16588D01*
X8379Y-16626D01*
X8509Y-16626D01*
X8629Y-16576D01*
X8688Y-16518D01*
X8925Y-16518D01*
X9121Y-16714D01*
X9121Y-16797D01*
X9171Y-16917D01*
X9263Y-17009D01*
X9383Y-17059D01*
X9466Y-17059D01*
X9158Y-17367D01*
X9083Y-17479D01*
X9057Y-17612D01*
X9057Y-19494D01*
X9026Y-19524D01*
X8958Y-19688D01*
X8958Y-19865D01*
X9026Y-20029D01*
X9151Y-20154D01*
X9314Y-20222D01*
X9492Y-20222D01*
X9655Y-20154D01*
X9781Y-20029D01*
X9849Y-19866D01*
X9849Y-19688D01*
X9781Y-19525D01*
X9750Y-19494D01*
X9750Y-17756D01*
X10522Y-16984D01*
X10753Y-16984D01*
X10753Y-17017D01*
X10776Y-17072D01*
X10818Y-17114D01*
X10873Y-17137D01*
X10933Y-17137D01*
X11633Y-17137D01*
X11688Y-17114D01*
X11731Y-17072D01*
X11753Y-17017D01*
X11753Y-16984D01*
X12161Y-16984D01*
X12294Y-16957D01*
X12407Y-16882D01*
X12653Y-16636D01*
X12659Y-16782D01*
X12731Y-16955D01*
X12831Y-16988D01*
X13183Y-16637D01*
X13177Y-16631D01*
X13248Y-16561D01*
X13253Y-16566D01*
X13605Y-16215D01*
X13571Y-16114D01*
X13347Y-16032D01*
X13252Y-16036D01*
X13608Y-15681D01*
X13818Y-15681D01*
X13951Y-15655D01*
X14064Y-15579D01*
X14288Y-15355D01*
X14299Y-15353D01*
X14278Y-15403D01*
X14278Y-15502D01*
X14278Y-15615D01*
X14341Y-15678D01*
X14653Y-15678D01*
X14653Y-15265D01*
X14591Y-15203D01*
X14518Y-15203D01*
X14552Y-15152D01*
X14579Y-15019D01*
X14552Y-14886D01*
X14477Y-14774D01*
X14378Y-14708D01*
X14446Y-14662D01*
X14493Y-14591D01*
X14494Y-14586D01*
X14551Y-14529D01*
X14788Y-14529D01*
X14753Y-14612D01*
X14753Y-14711D01*
X14753Y-14824D01*
X14816Y-14887D01*
X15128Y-14887D01*
X15128Y-14879D01*
X15228Y-14879D01*
X15228Y-14887D01*
X15236Y-14887D01*
X15236Y-14987D01*
X15228Y-14987D01*
X15228Y-14995D01*
X15128Y-14995D01*
X15128Y-14987D01*
X14816Y-14987D01*
X14753Y-15049D01*
X14753Y-15162D01*
X14753Y-15262D01*
X14754Y-15264D01*
X14753Y-15265D01*
X14753Y-15678D01*
X14761Y-15678D01*
X14761Y-15778D01*
X14753Y-15778D01*
X14753Y-16190D01*
X14805Y-16242D01*
X14771Y-16277D01*
X14653Y-16277D01*
X14610Y-16234D01*
X14653Y-16190D01*
X14653Y-15778D01*
X14341Y-15778D01*
X14278Y-15840D01*
X14278Y-15953D01*
X14278Y-16053D01*
X14316Y-16145D01*
X14341Y-16170D01*
X14224Y-16218D01*
X14132Y-16310D01*
X14082Y-16430D01*
X14082Y-16560D01*
X14131Y-16681D01*
X14223Y-16773D01*
X14344Y-16823D01*
X14474Y-16823D01*
X14486Y-16818D01*
X14456Y-16848D01*
X13815Y-16848D01*
X13858Y-16731D01*
X13848Y-16492D01*
X13776Y-16319D01*
X13676Y-16285D01*
X13324Y-16637D01*
X13330Y-16642D01*
X13259Y-16713D01*
X13253Y-16708D01*
X12902Y-17059D01*
X12936Y-17160D01*
X13160Y-17241D01*
X13259Y-17237D01*
X12684Y-17812D01*
X11870Y-17812D01*
X11786Y-17829D01*
X11762Y-17845D01*
X11715Y-17876D01*
X10671Y-18920D01*
X10624Y-18991D01*
X10607Y-19074D01*
X10607Y-19515D01*
X9830Y-20292D01*
X8228Y-20292D01*
X8228Y-19632D01*
X8228Y-19082D01*
X8206Y-19027D01*
X8164Y-18985D01*
X8108Y-18962D01*
X8101Y-18962D01*
X8101Y-16755D01*
X7803Y-16458D01*
X7506Y-16755D01*
X7531Y-16847D01*
X7728Y-16917D01*
X7936Y-16905D01*
X8076Y-16847D01*
X8101Y-16755D01*
X8101Y-18962D01*
X8049Y-18962D01*
X7499Y-18962D01*
X7444Y-18985D01*
X7401Y-19027D01*
X7396Y-19040D01*
X6493Y-19040D01*
X6360Y-19066D01*
X6248Y-19142D01*
X6058Y-19331D01*
X6015Y-19331D01*
X5852Y-19399D01*
X5726Y-19524D01*
X5658Y-19688D01*
X5658Y-19865D01*
X5726Y-20029D01*
X5851Y-20154D01*
X6014Y-20222D01*
X6192Y-20222D01*
X6355Y-20154D01*
X6481Y-20029D01*
X6549Y-19866D01*
X6549Y-19822D01*
X6637Y-19734D01*
X7396Y-19734D01*
X7401Y-19747D01*
X7443Y-19789D01*
X7498Y-19812D01*
X7558Y-19812D01*
X8108Y-19812D01*
X8163Y-19789D01*
X8206Y-19747D01*
X8228Y-19692D01*
X8228Y-19632D01*
X8228Y-20292D01*
X6456Y-20292D01*
X6372Y-20309D01*
X6349Y-20325D01*
X6301Y-20357D01*
X5996Y-20662D01*
X5874Y-20662D01*
X5819Y-20685D01*
X5776Y-20727D01*
X5753Y-20782D01*
X5753Y-20842D01*
X5753Y-21392D01*
X5776Y-21447D01*
X5818Y-21489D01*
X5873Y-21512D01*
X5933Y-21512D01*
X6283Y-21512D01*
X6338Y-21489D01*
X6381Y-21447D01*
X6403Y-21392D01*
X6403Y-21332D01*
X6403Y-20874D01*
X6547Y-20730D01*
X6676Y-20730D01*
X6696Y-20750D01*
X6597Y-20781D01*
X6519Y-20998D01*
X6529Y-21228D01*
X6597Y-21393D01*
X6696Y-21424D01*
X7033Y-21087D01*
X7027Y-21081D01*
X7098Y-21011D01*
X7103Y-21016D01*
X7109Y-21011D01*
X7180Y-21081D01*
X7174Y-21087D01*
X7511Y-21424D01*
X7610Y-21393D01*
X7657Y-21263D01*
X7696Y-21358D01*
X7831Y-21494D01*
X8008Y-21567D01*
X8198Y-21567D01*
X8375Y-21494D01*
X8503Y-21366D01*
X8503Y-21392D01*
X8526Y-21447D01*
X8568Y-21489D01*
X8623Y-21512D01*
X8683Y-21512D01*
X9033Y-21512D01*
X9088Y-21489D01*
X9131Y-21447D01*
X9153Y-21392D01*
X9153Y-21332D01*
X9153Y-20782D01*
X9132Y-20730D01*
X9275Y-20730D01*
X9253Y-20782D01*
X9253Y-20842D01*
X9253Y-21392D01*
X9276Y-21447D01*
X9318Y-21489D01*
X9373Y-21512D01*
X9433Y-21512D01*
X9783Y-21512D01*
X9838Y-21489D01*
X9881Y-21447D01*
X9903Y-21392D01*
X9903Y-21332D01*
X9903Y-21306D01*
X10113Y-21306D01*
X10113Y-21306D01*
X10197Y-21289D01*
X10251Y-21253D01*
X10260Y-21424D01*
X10322Y-21575D01*
X10418Y-21602D01*
X10733Y-21287D01*
X10727Y-21281D01*
X10798Y-21211D01*
X10803Y-21216D01*
X11119Y-20901D01*
X11091Y-20806D01*
X10885Y-20732D01*
X10772Y-20738D01*
X11257Y-20253D01*
X11257Y-20253D01*
X11304Y-20182D01*
X11321Y-20098D01*
X11321Y-20098D01*
X11321Y-19303D01*
X11387Y-19237D01*
X11378Y-19257D01*
X11378Y-19317D01*
X11378Y-19667D01*
X11401Y-19722D01*
X11443Y-19764D01*
X11498Y-19787D01*
X11558Y-19787D01*
X12108Y-19787D01*
X12163Y-19764D01*
X12206Y-19722D01*
X12228Y-19667D01*
X12228Y-19607D01*
X12228Y-19257D01*
X12206Y-19202D01*
X12169Y-19165D01*
X12210Y-19165D01*
X12330Y-19116D01*
X12422Y-19024D01*
X12472Y-18903D01*
X12472Y-18773D01*
X12423Y-18653D01*
X12331Y-18561D01*
X12245Y-18525D01*
X12851Y-18525D01*
X12851Y-19436D01*
X12295Y-19993D01*
X12223Y-19993D01*
X12206Y-19952D01*
X12164Y-19910D01*
X12108Y-19887D01*
X12049Y-19887D01*
X11499Y-19887D01*
X11444Y-19910D01*
X11401Y-19952D01*
X11378Y-20007D01*
X11378Y-20067D01*
X11378Y-20417D01*
X11401Y-20472D01*
X11443Y-20514D01*
X11498Y-20537D01*
X11555Y-20537D01*
X11555Y-20837D01*
X11474Y-20837D01*
X11419Y-20860D01*
X11376Y-20902D01*
X11353Y-20957D01*
X11353Y-21017D01*
X11353Y-21273D01*
X11347Y-21150D01*
X11285Y-20999D01*
X11189Y-20972D01*
X10874Y-21287D01*
X11189Y-21602D01*
X11285Y-21575D01*
X11353Y-21382D01*
X11353Y-21617D01*
X11376Y-21672D01*
X11418Y-21714D01*
X11473Y-21737D01*
X11533Y-21737D01*
X12133Y-21737D01*
X12188Y-21714D01*
X12231Y-21672D01*
X12253Y-21617D01*
X12253Y-21557D01*
X12253Y-20957D01*
X12231Y-20902D01*
X12189Y-20860D01*
X12133Y-20837D01*
X12074Y-20837D01*
X12052Y-20837D01*
X12052Y-20537D01*
X12108Y-20537D01*
X12163Y-20514D01*
X12206Y-20472D01*
X12223Y-20431D01*
X12386Y-20431D01*
X12386Y-20431D01*
X12469Y-20414D01*
X12540Y-20367D01*
X12563Y-20344D01*
X12555Y-20385D01*
X12555Y-20837D01*
X12474Y-20837D01*
X12419Y-20860D01*
X12376Y-20902D01*
X12353Y-20957D01*
X12353Y-21017D01*
X12353Y-21617D01*
X12376Y-21672D01*
X12418Y-21714D01*
X12473Y-21737D01*
X12533Y-21737D01*
X13133Y-21737D01*
X13188Y-21714D01*
X13231Y-21672D01*
X13253Y-21617D01*
X13253Y-21557D01*
X13253Y-20957D01*
X13231Y-20902D01*
X13189Y-20860D01*
X13133Y-20837D01*
X13074Y-20837D01*
X13052Y-20837D01*
X13052Y-20446D01*
X13481Y-20016D01*
X13481Y-20016D01*
X13529Y-19945D01*
X13545Y-19862D01*
X13545Y-19862D01*
X13545Y-19165D01*
X13548Y-19168D01*
X13714Y-19237D01*
X13893Y-19237D01*
X14058Y-19169D01*
X14062Y-19165D01*
X14062Y-19719D01*
X13628Y-20154D01*
X13574Y-20234D01*
X13555Y-20329D01*
X13555Y-20903D01*
X13549Y-20905D01*
X13422Y-21032D01*
X13354Y-21197D01*
X13353Y-21376D01*
X13422Y-21541D01*
X13548Y-21668D01*
X13714Y-21737D01*
X13893Y-21737D01*
X14058Y-21669D01*
X14185Y-21542D01*
X14253Y-21377D01*
X14253Y-21300D01*
X14260Y-21424D01*
X14322Y-21575D01*
X14418Y-21602D01*
X14733Y-21287D01*
X14418Y-20972D01*
X14322Y-20999D01*
X14252Y-21195D01*
X14185Y-21032D01*
X14059Y-20906D01*
X14052Y-20903D01*
X14052Y-20432D01*
X14486Y-19998D01*
X14540Y-19917D01*
X14559Y-19822D01*
X14559Y-19822D01*
X14559Y-19237D01*
X15133Y-19237D01*
X15188Y-19214D01*
X15231Y-19172D01*
X15253Y-19117D01*
X15253Y-19057D01*
X15253Y-19035D01*
X15349Y-19016D01*
X15429Y-18963D01*
X15892Y-18500D01*
X15892Y-18687D01*
X15955Y-18749D01*
X16486Y-18749D01*
X16486Y-18742D01*
X16586Y-18742D01*
X16586Y-18749D01*
X17117Y-18749D01*
X17179Y-18687D01*
X17179Y-18258D01*
X17141Y-18166D01*
X17111Y-18135D01*
X17292Y-18135D01*
X17431Y-18274D01*
X17430Y-18277D01*
X17430Y-18337D01*
X17430Y-19321D01*
X17452Y-19376D01*
X17495Y-19418D01*
X17550Y-19441D01*
X17609Y-19441D01*
X17805Y-19441D01*
X17835Y-19429D01*
X17865Y-19441D01*
X17924Y-19441D01*
X18120Y-19441D01*
X18150Y-19429D01*
X18179Y-19441D01*
X18238Y-19441D01*
X18434Y-19441D01*
X18464Y-19429D01*
X18493Y-19441D01*
X18552Y-19441D01*
X18634Y-19441D01*
X18696Y-19503D01*
X18788Y-19541D01*
X18824Y-19541D01*
X18887Y-19479D01*
X18887Y-18849D01*
X18878Y-18849D01*
X18878Y-18749D01*
X18887Y-18749D01*
X18887Y-18120D01*
X18839Y-18073D01*
X18839Y-18060D01*
X18843Y-18057D01*
X18839Y-18057D01*
X18839Y-18057D01*
X18843Y-18057D01*
X18965Y-17935D01*
X18985Y-17935D01*
X18985Y-18021D01*
X19000Y-18057D01*
X19047Y-18057D01*
X19047Y-18057D01*
X19000Y-18057D01*
X19007Y-18076D01*
X19018Y-18087D01*
X18985Y-18120D01*
X18985Y-18749D01*
X19221Y-18749D01*
X19284Y-18687D01*
X19284Y-18258D01*
X19246Y-18166D01*
X19221Y-18141D01*
X19458Y-18141D01*
X19433Y-18166D01*
X19395Y-18258D01*
X19395Y-18687D01*
X19458Y-18749D01*
X19989Y-18749D01*
X19989Y-18199D01*
X20010Y-18179D01*
X20010Y-17766D01*
X20002Y-17766D01*
X20002Y-17666D01*
X20010Y-17666D01*
X20010Y-17658D01*
X20110Y-17658D01*
X20110Y-17666D01*
X20422Y-17666D01*
X20485Y-17604D01*
X20485Y-17491D01*
X20484Y-17391D01*
X20446Y-17299D01*
X20376Y-17229D01*
X20305Y-17200D01*
X20388Y-17117D01*
X20520Y-17117D01*
X20575Y-17095D01*
X20607Y-17063D01*
X20607Y-17791D01*
X20485Y-17914D01*
X20485Y-17829D01*
X20422Y-17766D01*
X20110Y-17766D01*
X20110Y-18099D01*
X20089Y-18120D01*
X20089Y-18749D01*
X20096Y-18749D01*
X20096Y-18849D01*
X20089Y-18849D01*
X20089Y-19479D01*
X20151Y-19541D01*
X20383Y-19541D01*
X20482Y-19541D01*
X20563Y-19508D01*
X20523Y-19623D01*
X20535Y-19812D01*
X20584Y-19930D01*
X20672Y-19948D01*
X20933Y-19687D01*
X20927Y-19681D01*
X20998Y-19611D01*
X21003Y-19616D01*
X21264Y-19355D01*
X21247Y-19273D01*
X21321Y-19200D01*
X21378Y-19062D01*
X21379Y-18913D01*
X21322Y-18775D01*
X21216Y-18669D01*
X21138Y-18637D01*
X21216Y-18605D01*
X21321Y-18500D01*
X21378Y-18362D01*
X21379Y-18213D01*
X21322Y-18075D01*
X21262Y-18015D01*
X21558Y-17719D01*
X21601Y-17654D01*
X21616Y-17578D01*
X21616Y-15629D01*
X21601Y-15553D01*
X21558Y-15489D01*
X21164Y-15095D01*
X21099Y-15052D01*
X21038Y-15039D01*
X21084Y-14927D01*
X21085Y-14797D01*
X21035Y-14677D01*
X21030Y-14672D01*
X21670Y-14032D01*
X21717Y-13961D01*
X21718Y-13959D01*
X21720Y-13958D01*
X21812Y-13866D01*
X21862Y-13746D01*
X21862Y-13616D01*
X21812Y-13496D01*
X21720Y-13403D01*
X21600Y-13353D01*
X21470Y-13353D01*
X21350Y-13403D01*
X21272Y-13481D01*
X21272Y-13192D01*
X22053Y-12411D01*
X22378Y-12411D01*
X22378Y-12417D01*
X22401Y-12472D01*
X22443Y-12514D01*
X22498Y-12537D01*
X22528Y-12537D01*
X22478Y-12537D01*
X22387Y-12575D01*
X22316Y-12645D01*
X22278Y-12737D01*
X22278Y-12849D01*
X22341Y-12912D01*
X22753Y-12912D01*
X22753Y-12904D01*
X22853Y-12904D01*
X22853Y-12912D01*
X22861Y-12912D01*
X22861Y-13012D01*
X22853Y-13012D01*
X22853Y-13020D01*
X22753Y-13020D01*
X22753Y-13012D01*
X22341Y-13012D01*
X22278Y-13074D01*
X22278Y-13186D01*
X22316Y-13278D01*
X22387Y-13349D01*
X22478Y-13387D01*
X22553Y-13387D01*
X22523Y-13457D01*
X22523Y-13556D01*
X22523Y-13574D01*
X22586Y-13637D01*
X22903Y-13637D01*
X22903Y-13629D01*
X23003Y-13629D01*
X23003Y-13637D01*
X23011Y-13637D01*
X23011Y-13737D01*
X23003Y-13737D01*
X23003Y-14054D01*
X23066Y-14117D01*
X23183Y-14117D01*
X23275Y-14079D01*
X23345Y-14009D01*
X23362Y-13968D01*
X23388Y-13994D01*
X23443Y-14017D01*
X23503Y-14017D01*
X23863Y-14017D01*
X23918Y-13994D01*
X23961Y-13952D01*
X23974Y-13921D01*
X23974Y-14114D01*
X23990Y-14197D01*
X24033Y-14261D01*
X24033Y-14797D01*
X24008Y-14787D01*
X23949Y-14787D01*
X23576Y-14787D01*
X23611Y-14752D01*
X23633Y-14697D01*
X23633Y-14637D01*
X23633Y-14277D01*
X23611Y-14222D01*
X23569Y-14180D01*
X23513Y-14157D01*
X23454Y-14157D01*
X23094Y-14157D01*
X23039Y-14180D01*
X22996Y-14222D01*
X22973Y-14277D01*
X22973Y-14337D01*
X22973Y-14697D01*
X22996Y-14752D01*
X23031Y-14787D01*
X22903Y-14787D01*
X22903Y-14054D01*
X22903Y-13737D01*
X22586Y-13737D01*
X22523Y-13799D01*
X22523Y-13817D01*
X22523Y-13917D01*
X22562Y-14009D01*
X22632Y-14079D01*
X22724Y-14117D01*
X22841Y-14117D01*
X22903Y-14054D01*
X22903Y-14787D01*
X22599Y-14787D01*
X22544Y-14810D01*
X22501Y-14852D01*
X22478Y-14907D01*
X22478Y-14967D01*
X22478Y-15317D01*
X22501Y-15372D01*
X22543Y-15414D01*
X22598Y-15437D01*
X22658Y-15437D01*
X22914Y-15437D01*
X22814Y-15537D01*
X22599Y-15537D01*
X22544Y-15560D01*
X22501Y-15602D01*
X22478Y-15657D01*
X22478Y-15717D01*
X22478Y-16067D01*
X22501Y-16122D01*
X22543Y-16164D01*
X22598Y-16187D01*
X22658Y-16187D01*
X22681Y-16187D01*
X22646Y-16222D01*
X22623Y-16277D01*
X22623Y-16337D01*
X22623Y-16466D01*
X21828Y-17261D01*
X21774Y-17342D01*
X21755Y-17437D01*
X21755Y-18937D01*
X21774Y-19032D01*
X21828Y-19113D01*
X22105Y-19390D01*
X22105Y-20903D01*
X22099Y-20905D01*
X21972Y-21032D01*
X21904Y-21197D01*
X21903Y-21376D01*
X21972Y-21541D01*
X22098Y-21668D01*
X22264Y-21737D01*
X22443Y-21737D01*
X22608Y-21669D01*
X22735Y-21542D01*
X22803Y-21377D01*
X22804Y-21198D01*
X22735Y-21032D01*
X22609Y-20906D01*
X22602Y-20903D01*
X22602Y-19287D01*
X22583Y-19192D01*
X22583Y-19192D01*
X22565Y-19165D01*
X22529Y-19111D01*
X22529Y-19111D01*
X22510Y-19092D01*
X22510Y-19092D01*
X22510Y-19092D01*
X22405Y-18987D01*
X22808Y-18987D01*
X22863Y-18964D01*
X22903Y-18924D01*
X22943Y-18964D01*
X22998Y-18987D01*
X23055Y-18987D01*
X23055Y-19237D01*
X22974Y-19237D01*
X22919Y-19260D01*
X22876Y-19302D01*
X22853Y-19357D01*
X22853Y-19417D01*
X22853Y-20017D01*
X22876Y-20072D01*
X22918Y-20114D01*
X22973Y-20137D01*
X23033Y-20137D01*
X23633Y-20137D01*
X23688Y-20114D01*
X23731Y-20072D01*
X23753Y-20017D01*
X23753Y-19957D01*
X23753Y-19701D01*
X23760Y-19824D01*
X23822Y-19975D01*
X23918Y-20002D01*
X24233Y-19687D01*
X23918Y-19372D01*
X23822Y-19399D01*
X23753Y-19592D01*
X23753Y-19357D01*
X23731Y-19302D01*
X23689Y-19260D01*
X23633Y-19237D01*
X23574Y-19237D01*
X23552Y-19237D01*
X23552Y-18987D01*
X23608Y-18987D01*
X23663Y-18964D01*
X23703Y-18924D01*
X23743Y-18964D01*
X23798Y-18987D01*
X23858Y-18987D01*
X24408Y-18987D01*
X24463Y-18964D01*
X24506Y-18922D01*
X24528Y-18867D01*
X24528Y-18807D01*
X24528Y-18457D01*
X24506Y-18402D01*
X24464Y-18360D01*
X24408Y-18337D01*
X24349Y-18337D01*
X23799Y-18337D01*
X23744Y-18360D01*
X23703Y-18400D01*
X23664Y-18360D01*
X23608Y-18337D01*
X23549Y-18337D01*
X22999Y-18337D01*
X22944Y-18360D01*
X22903Y-18400D01*
X22864Y-18360D01*
X22808Y-18337D01*
X22749Y-18337D01*
X22252Y-18337D01*
X22252Y-18237D01*
X22258Y-18237D01*
X22808Y-18237D01*
X22863Y-18214D01*
X22903Y-18174D01*
X22943Y-18214D01*
X22998Y-18237D01*
X23058Y-18237D01*
X23608Y-18237D01*
X23663Y-18214D01*
X23703Y-18174D01*
X23743Y-18214D01*
X23798Y-18237D01*
X23858Y-18237D01*
X24408Y-18237D01*
X24463Y-18214D01*
X24506Y-18172D01*
X24528Y-18117D01*
X24528Y-18057D01*
X24528Y-17707D01*
X24506Y-17652D01*
X24464Y-17610D01*
X24408Y-17587D01*
X24349Y-17587D01*
X23799Y-17587D01*
X23744Y-17610D01*
X23703Y-17650D01*
X23664Y-17610D01*
X23608Y-17587D01*
X23576Y-17587D01*
X23611Y-17552D01*
X23633Y-17497D01*
X23633Y-17437D01*
X23633Y-17077D01*
X23611Y-17022D01*
X23569Y-16980D01*
X23513Y-16957D01*
X23454Y-16957D01*
X23094Y-16957D01*
X23039Y-16980D01*
X22996Y-17022D01*
X22973Y-17077D01*
X22973Y-17137D01*
X22973Y-17497D01*
X22996Y-17552D01*
X23031Y-17587D01*
X22999Y-17587D01*
X22944Y-17610D01*
X22903Y-17650D01*
X22864Y-17610D01*
X22808Y-17587D01*
X22749Y-17587D01*
X22252Y-17587D01*
X22252Y-17540D01*
X22975Y-16817D01*
X23163Y-16817D01*
X23218Y-16794D01*
X23261Y-16752D01*
X23283Y-16697D01*
X23283Y-16637D01*
X23283Y-16277D01*
X23261Y-16222D01*
X23221Y-16182D01*
X23263Y-16164D01*
X23303Y-16124D01*
X23343Y-16164D01*
X23386Y-16182D01*
X23346Y-16222D01*
X23323Y-16277D01*
X23323Y-16337D01*
X23323Y-16697D01*
X23346Y-16752D01*
X23388Y-16794D01*
X23443Y-16817D01*
X23503Y-16817D01*
X23863Y-16817D01*
X23918Y-16794D01*
X23961Y-16752D01*
X23983Y-16697D01*
X23983Y-16637D01*
X23983Y-16277D01*
X23961Y-16222D01*
X23926Y-16187D01*
X24008Y-16187D01*
X24063Y-16164D01*
X24106Y-16122D01*
X24128Y-16067D01*
X24128Y-16007D01*
X24128Y-15700D01*
X24158Y-15694D01*
X24229Y-15646D01*
X24406Y-15469D01*
X24454Y-15398D01*
X24470Y-15314D01*
X24470Y-15314D01*
X24470Y-14960D01*
X24470Y-14173D01*
X24454Y-14089D01*
X24411Y-14026D01*
X24411Y-13358D01*
X24524Y-13245D01*
X24572Y-13174D01*
X24588Y-13090D01*
X24588Y-13090D01*
X24588Y-12905D01*
X24962Y-12531D01*
X25045Y-12531D01*
X25165Y-12482D01*
X25257Y-12390D01*
X25307Y-12270D01*
X25307Y-12139D01*
X25257Y-12019D01*
X25209Y-11970D01*
X25275Y-11970D01*
X25275Y-11970D01*
X25359Y-11954D01*
X25430Y-11906D01*
X26035Y-11301D01*
X26672Y-11301D01*
X26495Y-11374D01*
X26092Y-11776D01*
X25874Y-12301D01*
X25874Y-12870D01*
X26091Y-13396D01*
X26493Y-13798D01*
X27018Y-14016D01*
X27587Y-14017D01*
X28112Y-13800D01*
X28515Y-13398D01*
X28733Y-12872D01*
X28733Y-12304D01*
X28516Y-11778D01*
X28114Y-11376D01*
X27589Y-11158D01*
X27340Y-11157D01*
X28816Y-9682D01*
X28816Y-9682D01*
X28863Y-9611D01*
X28880Y-9527D01*
X28880Y-9527D01*
X28880Y-8641D01*
X28880Y-3464D01*
X28863Y-3380D01*
X28816Y-3309D01*
X28816Y-3309D01*
X28417Y-2911D01*
X28417Y-2828D01*
X28368Y-2708D01*
X28276Y-2616D01*
X28155Y-2566D01*
X28025Y-2566D01*
X27949Y-2598D01*
X27946Y-2582D01*
X27946Y-2582D01*
X27928Y-2555D01*
X27892Y-2501D01*
X27892Y-2501D01*
X27610Y-2220D01*
X27530Y-2166D01*
X27435Y-2147D01*
X27026Y-2147D01*
X27022Y-2145D01*
X26962Y-2145D01*
X26462Y-2145D01*
X26441Y-2154D01*
X26441Y-987D01*
X26443Y-987D01*
X26608Y-919D01*
X26735Y-792D01*
X26803Y-627D01*
X26804Y-448D01*
X26735Y-282D01*
X26632Y-179D01*
X28862Y-179D01*
X28954Y-271D01*
X28954Y-14295D01*
X28954Y-14295D01*
G37*
G54D40*
X28954Y-14295D02*
X28862Y-14387D01*
X25196Y-14387D01*
X25128Y-14401D01*
X25069Y-14439D01*
X25030Y-14498D01*
X25017Y-14566D01*
X25017Y-21776D01*
X24925Y-21867D01*
X24908Y-21867D01*
X24908Y-21369D01*
X24897Y-21150D01*
X24858Y-21056D01*
X24858Y-19769D01*
X24847Y-19550D01*
X24785Y-19399D01*
X24689Y-19372D01*
X24619Y-19442D01*
X24619Y-19301D01*
X24591Y-19206D01*
X24385Y-19132D01*
X24167Y-19143D01*
X24016Y-19206D01*
X23988Y-19301D01*
X24303Y-19616D01*
X24619Y-19301D01*
X24619Y-19442D01*
X24374Y-19687D01*
X24689Y-20002D01*
X24785Y-19975D01*
X24858Y-19769D01*
X24858Y-21056D01*
X24835Y-20999D01*
X24739Y-20972D01*
X24669Y-21042D01*
X24669Y-20901D01*
X24641Y-20806D01*
X24619Y-20798D01*
X24619Y-20073D01*
X24303Y-19758D01*
X23988Y-20073D01*
X24016Y-20168D01*
X24222Y-20242D01*
X24440Y-20231D01*
X24591Y-20168D01*
X24619Y-20073D01*
X24619Y-20798D01*
X24435Y-20732D01*
X24217Y-20743D01*
X24066Y-20806D01*
X24038Y-20901D01*
X24353Y-21216D01*
X24669Y-20901D01*
X24669Y-21042D01*
X24424Y-21287D01*
X24739Y-21602D01*
X24835Y-21575D01*
X24908Y-21369D01*
X24908Y-21867D01*
X24669Y-21867D01*
X24669Y-21673D01*
X24353Y-21358D01*
X24283Y-21428D01*
X24283Y-21287D01*
X23968Y-20972D01*
X23872Y-20999D01*
X23802Y-21195D01*
X23735Y-21032D01*
X23609Y-20906D01*
X23443Y-20837D01*
X23264Y-20837D01*
X23099Y-20905D01*
X22972Y-21032D01*
X22904Y-21197D01*
X22903Y-21376D01*
X22972Y-21541D01*
X23098Y-21668D01*
X23264Y-21737D01*
X23443Y-21737D01*
X23608Y-21669D01*
X23735Y-21542D01*
X23803Y-21377D01*
X23803Y-21300D01*
X23810Y-21424D01*
X23872Y-21575D01*
X23968Y-21602D01*
X24283Y-21287D01*
X24283Y-21428D01*
X24038Y-21673D01*
X24066Y-21768D01*
X24272Y-21842D01*
X24490Y-21831D01*
X24641Y-21768D01*
X24669Y-21673D01*
X24669Y-21867D01*
X21803Y-21867D01*
X21803Y-21557D01*
X21803Y-20957D01*
X21781Y-20902D01*
X21739Y-20860D01*
X21683Y-20837D01*
X21624Y-20837D01*
X21484Y-20837D01*
X21484Y-19751D01*
X21471Y-19562D01*
X21423Y-19444D01*
X21335Y-19426D01*
X21074Y-19687D01*
X21335Y-19948D01*
X21423Y-19930D01*
X21484Y-19751D01*
X21484Y-20837D01*
X21264Y-20837D01*
X21264Y-20018D01*
X21003Y-19758D01*
X20743Y-20018D01*
X20761Y-20106D01*
X20940Y-20167D01*
X21128Y-20155D01*
X21246Y-20106D01*
X21264Y-20018D01*
X21264Y-20837D01*
X21024Y-20837D01*
X20969Y-20860D01*
X20926Y-20902D01*
X20903Y-20957D01*
X20903Y-21017D01*
X20903Y-21617D01*
X20926Y-21672D01*
X20968Y-21714D01*
X21023Y-21737D01*
X21083Y-21737D01*
X21683Y-21737D01*
X21738Y-21714D01*
X21781Y-21672D01*
X21803Y-21617D01*
X21803Y-21557D01*
X21803Y-21867D01*
X20721Y-21867D01*
X20721Y-21505D01*
X20721Y-20422D01*
X20683Y-20330D01*
X20613Y-20260D01*
X20521Y-20221D01*
X20422Y-20221D01*
X20190Y-20221D01*
X20128Y-20284D01*
X20128Y-20913D01*
X20659Y-20913D01*
X20721Y-20851D01*
X20721Y-20422D01*
X20721Y-21505D01*
X20721Y-21076D01*
X20659Y-21013D01*
X20128Y-21013D01*
X20128Y-21643D01*
X20190Y-21705D01*
X20422Y-21705D01*
X20521Y-21705D01*
X20613Y-21667D01*
X20683Y-21597D01*
X20721Y-21505D01*
X20721Y-21867D01*
X20028Y-21867D01*
X20028Y-21643D01*
X20028Y-21013D01*
X20028Y-20913D01*
X20028Y-20284D01*
X19989Y-20245D01*
X19989Y-19479D01*
X19989Y-18849D01*
X19458Y-18849D01*
X19395Y-18912D01*
X19395Y-19341D01*
X19433Y-19433D01*
X19503Y-19503D01*
X19595Y-19541D01*
X19695Y-19541D01*
X19926Y-19541D01*
X19989Y-19479D01*
X19989Y-20245D01*
X19965Y-20221D01*
X19734Y-20221D01*
X19634Y-20221D01*
X19542Y-20260D01*
X19472Y-20330D01*
X19434Y-20422D01*
X19434Y-20851D01*
X19497Y-20913D01*
X20028Y-20913D01*
X20028Y-21013D01*
X19497Y-21013D01*
X19434Y-21076D01*
X19434Y-21505D01*
X19472Y-21597D01*
X19542Y-21667D01*
X19634Y-21705D01*
X19734Y-21705D01*
X19965Y-21705D01*
X20028Y-21643D01*
X20028Y-21867D01*
X19284Y-21867D01*
X19284Y-19341D01*
X19284Y-18912D01*
X19221Y-18849D01*
X18985Y-18849D01*
X18985Y-19479D01*
X19047Y-19541D01*
X19084Y-19541D01*
X19175Y-19503D01*
X19246Y-19433D01*
X19284Y-19341D01*
X19284Y-21867D01*
X17179Y-21867D01*
X17179Y-21505D01*
X17179Y-20422D01*
X17179Y-19341D01*
X17179Y-18912D01*
X17117Y-18849D01*
X16586Y-18849D01*
X16586Y-19479D01*
X16648Y-19541D01*
X16880Y-19541D01*
X16979Y-19541D01*
X17071Y-19503D01*
X17141Y-19433D01*
X17179Y-19341D01*
X17179Y-20422D01*
X17141Y-20330D01*
X17071Y-20260D01*
X16979Y-20221D01*
X16880Y-20221D01*
X16648Y-20221D01*
X16586Y-20284D01*
X16586Y-20913D01*
X17117Y-20913D01*
X17179Y-20851D01*
X17179Y-20422D01*
X17179Y-21505D01*
X17179Y-21076D01*
X17117Y-21013D01*
X16586Y-21013D01*
X16586Y-21643D01*
X16648Y-21705D01*
X16880Y-21705D01*
X16979Y-21705D01*
X17071Y-21667D01*
X17141Y-21597D01*
X17179Y-21505D01*
X17179Y-21867D01*
X16486Y-21867D01*
X16486Y-21643D01*
X16486Y-21013D01*
X16486Y-20913D01*
X16486Y-20284D01*
X16486Y-19479D01*
X16486Y-18849D01*
X15955Y-18849D01*
X15892Y-18912D01*
X15892Y-19341D01*
X15930Y-19433D01*
X16000Y-19503D01*
X16092Y-19541D01*
X16192Y-19541D01*
X16423Y-19541D01*
X16486Y-19479D01*
X16486Y-20284D01*
X16423Y-20221D01*
X16192Y-20221D01*
X16092Y-20221D01*
X16000Y-20260D01*
X15930Y-20330D01*
X15892Y-20422D01*
X15892Y-20851D01*
X15955Y-20913D01*
X16486Y-20913D01*
X16486Y-21013D01*
X15955Y-21013D01*
X15892Y-21076D01*
X15892Y-21505D01*
X15930Y-21597D01*
X16000Y-21667D01*
X16092Y-21705D01*
X16192Y-21705D01*
X16423Y-21705D01*
X16486Y-21643D01*
X16486Y-21867D01*
X15358Y-21867D01*
X15358Y-21369D01*
X15347Y-21150D01*
X15285Y-20999D01*
X15189Y-20972D01*
X15119Y-21042D01*
X15119Y-20901D01*
X15091Y-20806D01*
X14885Y-20732D01*
X14667Y-20743D01*
X14516Y-20806D01*
X14488Y-20901D01*
X14803Y-21216D01*
X15119Y-20901D01*
X15119Y-21042D01*
X14874Y-21287D01*
X15189Y-21602D01*
X15285Y-21575D01*
X15358Y-21369D01*
X15358Y-21867D01*
X15119Y-21867D01*
X15119Y-21673D01*
X14803Y-21358D01*
X14488Y-21673D01*
X14516Y-21768D01*
X14722Y-21842D01*
X14940Y-21831D01*
X15091Y-21768D01*
X15119Y-21673D01*
X15119Y-21867D01*
X11119Y-21867D01*
X11119Y-21673D01*
X10803Y-21358D01*
X10488Y-21673D01*
X10516Y-21768D01*
X10722Y-21842D01*
X10940Y-21831D01*
X11091Y-21768D01*
X11119Y-21673D01*
X11119Y-21867D01*
X7440Y-21867D01*
X7440Y-21495D01*
X7103Y-21158D01*
X7033Y-21228D01*
X6767Y-21495D01*
X6798Y-21593D01*
X7014Y-21672D01*
X7245Y-21661D01*
X7409Y-21593D01*
X7440Y-21495D01*
X7440Y-21867D01*
X5653Y-21867D01*
X5653Y-21332D01*
X5653Y-20782D01*
X5631Y-20727D01*
X5589Y-20685D01*
X5533Y-20662D01*
X5474Y-20662D01*
X5124Y-20662D01*
X5069Y-20685D01*
X5026Y-20727D01*
X5003Y-20782D01*
X5003Y-20808D01*
X4876Y-20680D01*
X4699Y-20607D01*
X4508Y-20607D01*
X4332Y-20680D01*
X4197Y-20815D01*
X4160Y-20903D01*
X4110Y-20781D01*
X4011Y-20750D01*
X3940Y-20821D01*
X3940Y-20679D01*
X3909Y-20581D01*
X3692Y-20502D01*
X3462Y-20513D01*
X3298Y-20581D01*
X3267Y-20679D01*
X3603Y-21016D01*
X3940Y-20679D01*
X3940Y-20821D01*
X3674Y-21087D01*
X4011Y-21424D01*
X4110Y-21393D01*
X4157Y-21263D01*
X4196Y-21358D01*
X4331Y-21494D01*
X4508Y-21567D01*
X4698Y-21567D01*
X4875Y-21494D01*
X5003Y-21366D01*
X5003Y-21392D01*
X5026Y-21447D01*
X5068Y-21489D01*
X5123Y-21512D01*
X5183Y-21512D01*
X5533Y-21512D01*
X5588Y-21489D01*
X5631Y-21447D01*
X5653Y-21392D01*
X5653Y-21332D01*
X5653Y-21867D01*
X3940Y-21867D01*
X3940Y-21495D01*
X3603Y-21158D01*
X3533Y-21228D01*
X3533Y-21087D01*
X3201Y-20755D01*
X3201Y-19795D01*
X2984Y-19270D01*
X2582Y-18867D01*
X2057Y-18649D01*
X1488Y-18648D01*
X962Y-18866D01*
X560Y-19267D01*
X342Y-19793D01*
X341Y-20361D01*
X559Y-20887D01*
X960Y-21289D01*
X1486Y-21508D01*
X2054Y-21508D01*
X2580Y-21291D01*
X2982Y-20889D01*
X3200Y-20364D01*
X3201Y-19795D01*
X3201Y-20755D01*
X3196Y-20750D01*
X3097Y-20781D01*
X3019Y-20998D01*
X3029Y-21228D01*
X3097Y-21393D01*
X3196Y-21424D01*
X3533Y-21087D01*
X3533Y-21228D01*
X3267Y-21495D01*
X3298Y-21593D01*
X3514Y-21672D01*
X3745Y-21661D01*
X3909Y-21593D01*
X3940Y-21495D01*
X3940Y-21867D01*
X271Y-21867D01*
X179Y-21776D01*
X179Y-16256D01*
X317Y-16394D01*
X388Y-16442D01*
X401Y-16444D01*
X337Y-16599D01*
X337Y-16778D01*
X405Y-16943D01*
X532Y-17070D01*
X697Y-17138D01*
X876Y-17139D01*
X1041Y-17070D01*
X1136Y-16976D01*
X1465Y-16976D01*
X1465Y-17036D01*
X1488Y-17092D01*
X1530Y-17134D01*
X1585Y-17157D01*
X1645Y-17157D01*
X1887Y-17157D01*
X2039Y-17310D01*
X1995Y-17291D01*
X1935Y-17291D01*
X1585Y-17291D01*
X1530Y-17314D01*
X1488Y-17356D01*
X1465Y-17411D01*
X1465Y-17428D01*
X1237Y-17428D01*
X1237Y-17359D01*
X1214Y-17304D01*
X1172Y-17261D01*
X1117Y-17239D01*
X1057Y-17238D01*
X457Y-17238D01*
X402Y-17261D01*
X360Y-17303D01*
X337Y-17359D01*
X337Y-17418D01*
X337Y-18018D01*
X360Y-18073D01*
X402Y-18116D01*
X457Y-18138D01*
X517Y-18139D01*
X1117Y-18139D01*
X1172Y-18116D01*
X1214Y-18074D01*
X1237Y-18018D01*
X1237Y-18004D01*
X1465Y-18004D01*
X1465Y-18021D01*
X1488Y-18076D01*
X1530Y-18118D01*
X1585Y-18141D01*
X1645Y-18141D01*
X1995Y-18141D01*
X2050Y-18118D01*
X2092Y-18076D01*
X2115Y-18021D01*
X2115Y-17961D01*
X2115Y-17411D01*
X2096Y-17367D01*
X2108Y-17379D01*
X2108Y-17379D01*
X2156Y-17410D01*
X2180Y-17426D01*
X2180Y-17426D01*
X2215Y-17433D01*
X2215Y-17471D01*
X2215Y-18021D01*
X2238Y-18076D01*
X2280Y-18118D01*
X2335Y-18141D01*
X2395Y-18141D01*
X2745Y-18141D01*
X2800Y-18118D01*
X2842Y-18076D01*
X2865Y-18021D01*
X2865Y-17964D01*
X5374Y-17964D01*
X5374Y-17964D01*
X5469Y-17946D01*
X5549Y-17892D01*
X7327Y-16114D01*
X7343Y-16114D01*
X7343Y-16114D01*
X7274Y-16311D01*
X7285Y-16520D01*
X7343Y-16660D01*
X7436Y-16684D01*
X7733Y-16387D01*
X7727Y-16381D01*
X7798Y-16311D01*
X7803Y-16316D01*
X7809Y-16311D01*
X7880Y-16381D01*
X7874Y-16387D01*
X8171Y-16684D01*
X8264Y-16660D01*
X8289Y-16588D01*
X8379Y-16626D01*
X8509Y-16626D01*
X8629Y-16576D01*
X8688Y-16518D01*
X8925Y-16518D01*
X9121Y-16714D01*
X9121Y-16797D01*
X9171Y-16917D01*
X9263Y-17009D01*
X9383Y-17059D01*
X9466Y-17059D01*
X9158Y-17367D01*
X9083Y-17479D01*
X9057Y-17612D01*
X9057Y-19494D01*
X9026Y-19524D01*
X8958Y-19688D01*
X8958Y-19865D01*
X9026Y-20029D01*
X9151Y-20154D01*
X9314Y-20222D01*
X9492Y-20222D01*
X9655Y-20154D01*
X9781Y-20029D01*
X9849Y-19866D01*
X9849Y-19688D01*
X9781Y-19525D01*
X9750Y-19494D01*
X9750Y-17756D01*
X10522Y-16984D01*
X10753Y-16984D01*
X10753Y-17017D01*
X10776Y-17072D01*
X10818Y-17114D01*
X10873Y-17137D01*
X10933Y-17137D01*
X11633Y-17137D01*
X11688Y-17114D01*
X11731Y-17072D01*
X11753Y-17017D01*
X11753Y-16984D01*
X12161Y-16984D01*
X12294Y-16957D01*
X12407Y-16882D01*
X12653Y-16636D01*
X12659Y-16782D01*
X12731Y-16955D01*
X12831Y-16988D01*
X13183Y-16637D01*
X13177Y-16631D01*
X13248Y-16561D01*
X13253Y-16566D01*
X13605Y-16215D01*
X13571Y-16114D01*
X13347Y-16032D01*
X13252Y-16036D01*
X13608Y-15681D01*
X13818Y-15681D01*
X13951Y-15655D01*
X14064Y-15579D01*
X14288Y-15355D01*
X14299Y-15353D01*
X14278Y-15403D01*
X14278Y-15502D01*
X14278Y-15615D01*
X14341Y-15678D01*
X14653Y-15678D01*
X14653Y-15265D01*
X14591Y-15203D01*
X14518Y-15203D01*
X14552Y-15152D01*
X14579Y-15019D01*
X14552Y-14886D01*
X14477Y-14774D01*
X14378Y-14708D01*
X14446Y-14662D01*
X14493Y-14591D01*
X14494Y-14586D01*
X14551Y-14529D01*
X14788Y-14529D01*
X14753Y-14612D01*
X14753Y-14711D01*
X14753Y-14824D01*
X14816Y-14887D01*
X15128Y-14887D01*
X15128Y-14879D01*
X15228Y-14879D01*
X15228Y-14887D01*
X15236Y-14887D01*
X15236Y-14987D01*
X15228Y-14987D01*
X15228Y-14995D01*
X15128Y-14995D01*
X15128Y-14987D01*
X14816Y-14987D01*
X14753Y-15049D01*
X14753Y-15162D01*
X14753Y-15262D01*
X14754Y-15264D01*
X14753Y-15265D01*
X14753Y-15678D01*
X14761Y-15678D01*
X14761Y-15778D01*
X14753Y-15778D01*
X14753Y-16190D01*
X14805Y-16242D01*
X14771Y-16277D01*
X14653Y-16277D01*
X14610Y-16234D01*
X14653Y-16190D01*
X14653Y-15778D01*
X14341Y-15778D01*
X14278Y-15840D01*
X14278Y-15953D01*
X14278Y-16053D01*
X14316Y-16145D01*
X14341Y-16170D01*
X14224Y-16218D01*
X14132Y-16310D01*
X14082Y-16430D01*
X14082Y-16560D01*
X14131Y-16681D01*
X14223Y-16773D01*
X14344Y-16823D01*
X14474Y-16823D01*
X14486Y-16818D01*
X14456Y-16848D01*
X13815Y-16848D01*
X13858Y-16731D01*
X13848Y-16492D01*
X13776Y-16319D01*
X13676Y-16285D01*
X13324Y-16637D01*
X13330Y-16642D01*
X13259Y-16713D01*
X13253Y-16708D01*
X12902Y-17059D01*
X12936Y-17160D01*
X13160Y-17241D01*
X13259Y-17237D01*
X12684Y-17812D01*
X11870Y-17812D01*
X11786Y-17829D01*
X11762Y-17845D01*
X11715Y-17876D01*
X10671Y-18920D01*
X10624Y-18991D01*
X10607Y-19074D01*
X10607Y-19515D01*
X9830Y-20292D01*
X8228Y-20292D01*
X8228Y-19632D01*
X8228Y-19082D01*
X8206Y-19027D01*
X8164Y-18985D01*
X8108Y-18962D01*
X8101Y-18962D01*
X8101Y-16755D01*
X7803Y-16458D01*
X7506Y-16755D01*
X7531Y-16847D01*
X7728Y-16917D01*
X7936Y-16905D01*
X8076Y-16847D01*
X8101Y-16755D01*
X8101Y-18962D01*
X8049Y-18962D01*
X7499Y-18962D01*
X7444Y-18985D01*
X7401Y-19027D01*
X7396Y-19040D01*
X6493Y-19040D01*
X6360Y-19066D01*
X6248Y-19142D01*
X6058Y-19331D01*
X6015Y-19331D01*
X5852Y-19399D01*
X5726Y-19524D01*
X5658Y-19688D01*
X5658Y-19865D01*
X5726Y-20029D01*
X5851Y-20154D01*
X6014Y-20222D01*
X6192Y-20222D01*
X6355Y-20154D01*
X6481Y-20029D01*
X6549Y-19866D01*
X6549Y-19822D01*
X6637Y-19734D01*
X7396Y-19734D01*
X7401Y-19747D01*
X7443Y-19789D01*
X7498Y-19812D01*
X7558Y-19812D01*
X8108Y-19812D01*
X8163Y-19789D01*
X8206Y-19747D01*
X8228Y-19692D01*
X8228Y-19632D01*
X8228Y-20292D01*
X6456Y-20292D01*
X6372Y-20309D01*
X6349Y-20325D01*
X6301Y-20357D01*
X5996Y-20662D01*
X5874Y-20662D01*
X5819Y-20685D01*
X5776Y-20727D01*
X5753Y-20782D01*
X5753Y-20842D01*
X5753Y-21392D01*
X5776Y-21447D01*
X5818Y-21489D01*
X5873Y-21512D01*
X5933Y-21512D01*
X6283Y-21512D01*
X6338Y-21489D01*
X6381Y-21447D01*
X6403Y-21392D01*
X6403Y-21332D01*
X6403Y-20874D01*
X6547Y-20730D01*
X6676Y-20730D01*
X6696Y-20750D01*
X6597Y-20781D01*
X6519Y-20998D01*
X6529Y-21228D01*
X6597Y-21393D01*
X6696Y-21424D01*
X7033Y-21087D01*
X7027Y-21081D01*
X7098Y-21011D01*
X7103Y-21016D01*
X7109Y-21011D01*
X7180Y-21081D01*
X7174Y-21087D01*
X7511Y-21424D01*
X7610Y-21393D01*
X7657Y-21263D01*
X7696Y-21358D01*
X7831Y-21494D01*
X8008Y-21567D01*
X8198Y-21567D01*
X8375Y-21494D01*
X8503Y-21366D01*
X8503Y-21392D01*
X8526Y-21447D01*
X8568Y-21489D01*
X8623Y-21512D01*
X8683Y-21512D01*
X9033Y-21512D01*
X9088Y-21489D01*
X9131Y-21447D01*
X9153Y-21392D01*
X9153Y-21332D01*
X9153Y-20782D01*
X9132Y-20730D01*
X9275Y-20730D01*
X9253Y-20782D01*
X9253Y-20842D01*
X9253Y-21392D01*
X9276Y-21447D01*
X9318Y-21489D01*
X9373Y-21512D01*
X9433Y-21512D01*
X9783Y-21512D01*
X9838Y-21489D01*
X9881Y-21447D01*
X9903Y-21392D01*
X9903Y-21332D01*
X9903Y-21306D01*
X10113Y-21306D01*
X10113Y-21306D01*
X10197Y-21289D01*
X10251Y-21253D01*
X10260Y-21424D01*
X10322Y-21575D01*
X10418Y-21602D01*
X10733Y-21287D01*
X10727Y-21281D01*
X10798Y-21211D01*
X10803Y-21216D01*
X11119Y-20901D01*
X11091Y-20806D01*
X10885Y-20732D01*
X10772Y-20738D01*
X11257Y-20253D01*
X11257Y-20253D01*
X11304Y-20182D01*
X11321Y-20098D01*
X11321Y-20098D01*
X11321Y-19303D01*
X11387Y-19237D01*
X11378Y-19257D01*
X11378Y-19317D01*
X11378Y-19667D01*
X11401Y-19722D01*
X11443Y-19764D01*
X11498Y-19787D01*
X11558Y-19787D01*
X12108Y-19787D01*
X12163Y-19764D01*
X12206Y-19722D01*
X12228Y-19667D01*
X12228Y-19607D01*
X12228Y-19257D01*
X12206Y-19202D01*
X12169Y-19165D01*
X12210Y-19165D01*
X12330Y-19116D01*
X12422Y-19024D01*
X12472Y-18903D01*
X12472Y-18773D01*
X12423Y-18653D01*
X12331Y-18561D01*
X12245Y-18525D01*
X12851Y-18525D01*
X12851Y-19436D01*
X12295Y-19993D01*
X12223Y-19993D01*
X12206Y-19952D01*
X12164Y-19910D01*
X12108Y-19887D01*
X12049Y-19887D01*
X11499Y-19887D01*
X11444Y-19910D01*
X11401Y-19952D01*
X11378Y-20007D01*
X11378Y-20067D01*
X11378Y-20417D01*
X11401Y-20472D01*
X11443Y-20514D01*
X11498Y-20537D01*
X11555Y-20537D01*
X11555Y-20837D01*
X11474Y-20837D01*
X11419Y-20860D01*
X11376Y-20902D01*
X11353Y-20957D01*
X11353Y-21017D01*
X11353Y-21273D01*
X11347Y-21150D01*
X11285Y-20999D01*
X11189Y-20972D01*
X10874Y-21287D01*
X11189Y-21602D01*
X11285Y-21575D01*
X11353Y-21382D01*
X11353Y-21617D01*
X11376Y-21672D01*
X11418Y-21714D01*
X11473Y-21737D01*
X11533Y-21737D01*
X12133Y-21737D01*
X12188Y-21714D01*
X12231Y-21672D01*
X12253Y-21617D01*
X12253Y-21557D01*
X12253Y-20957D01*
X12231Y-20902D01*
X12189Y-20860D01*
X12133Y-20837D01*
X12074Y-20837D01*
X12052Y-20837D01*
X12052Y-20537D01*
X12108Y-20537D01*
X12163Y-20514D01*
X12206Y-20472D01*
X12223Y-20431D01*
X12386Y-20431D01*
X12386Y-20431D01*
X12469Y-20414D01*
X12540Y-20367D01*
X12563Y-20344D01*
X12555Y-20385D01*
X12555Y-20837D01*
X12474Y-20837D01*
X12419Y-20860D01*
X12376Y-20902D01*
X12353Y-20957D01*
X12353Y-21017D01*
X12353Y-21617D01*
X12376Y-21672D01*
X12418Y-21714D01*
X12473Y-21737D01*
X12533Y-21737D01*
X13133Y-21737D01*
X13188Y-21714D01*
X13231Y-21672D01*
X13253Y-21617D01*
X13253Y-21557D01*
X13253Y-20957D01*
X13231Y-20902D01*
X13189Y-20860D01*
X13133Y-20837D01*
X13074Y-20837D01*
X13052Y-20837D01*
X13052Y-20446D01*
X13481Y-20016D01*
X13481Y-20016D01*
X13529Y-19945D01*
X13545Y-19862D01*
X13545Y-19862D01*
X13545Y-19165D01*
X13548Y-19168D01*
X13714Y-19237D01*
X13893Y-19237D01*
X14058Y-19169D01*
X14062Y-19165D01*
X14062Y-19719D01*
X13628Y-20154D01*
X13574Y-20234D01*
X13555Y-20329D01*
X13555Y-20903D01*
X13549Y-20905D01*
X13422Y-21032D01*
X13354Y-21197D01*
X13353Y-21376D01*
X13422Y-21541D01*
X13548Y-21668D01*
X13714Y-21737D01*
X13893Y-21737D01*
X14058Y-21669D01*
X14185Y-21542D01*
X14253Y-21377D01*
X14253Y-21300D01*
X14260Y-21424D01*
X14322Y-21575D01*
X14418Y-21602D01*
X14733Y-21287D01*
X14418Y-20972D01*
X14322Y-20999D01*
X14252Y-21195D01*
X14185Y-21032D01*
X14059Y-20906D01*
X14052Y-20903D01*
X14052Y-20432D01*
X14486Y-19998D01*
X14540Y-19917D01*
X14559Y-19822D01*
X14559Y-19822D01*
X14559Y-19237D01*
X15133Y-19237D01*
X15188Y-19214D01*
X15231Y-19172D01*
X15253Y-19117D01*
X15253Y-19057D01*
X15253Y-19035D01*
X15349Y-19016D01*
X15429Y-18963D01*
X15892Y-18500D01*
X15892Y-18687D01*
X15955Y-18749D01*
X16486Y-18749D01*
X16486Y-18742D01*
X16586Y-18742D01*
X16586Y-18749D01*
X17117Y-18749D01*
X17179Y-18687D01*
X17179Y-18258D01*
X17141Y-18166D01*
X17111Y-18135D01*
X17292Y-18135D01*
X17431Y-18274D01*
X17430Y-18277D01*
X17430Y-18337D01*
X17430Y-19321D01*
X17452Y-19376D01*
X17495Y-19418D01*
X17550Y-19441D01*
X17609Y-19441D01*
X17805Y-19441D01*
X17835Y-19429D01*
X17865Y-19441D01*
X17924Y-19441D01*
X18120Y-19441D01*
X18150Y-19429D01*
X18179Y-19441D01*
X18238Y-19441D01*
X18434Y-19441D01*
X18464Y-19429D01*
X18493Y-19441D01*
X18552Y-19441D01*
X18634Y-19441D01*
X18696Y-19503D01*
X18788Y-19541D01*
X18824Y-19541D01*
X18887Y-19479D01*
X18887Y-18849D01*
X18878Y-18849D01*
X18878Y-18749D01*
X18887Y-18749D01*
X18887Y-18120D01*
X18839Y-18073D01*
X18839Y-18060D01*
X18843Y-18057D01*
X18839Y-18057D01*
X18839Y-18057D01*
X18843Y-18057D01*
X18965Y-17935D01*
X18985Y-17935D01*
X18985Y-18021D01*
X19000Y-18057D01*
X19047Y-18057D01*
X19047Y-18057D01*
X19000Y-18057D01*
X19007Y-18076D01*
X19018Y-18087D01*
X18985Y-18120D01*
X18985Y-18749D01*
X19221Y-18749D01*
X19284Y-18687D01*
X19284Y-18258D01*
X19246Y-18166D01*
X19221Y-18141D01*
X19458Y-18141D01*
X19433Y-18166D01*
X19395Y-18258D01*
X19395Y-18687D01*
X19458Y-18749D01*
X19989Y-18749D01*
X19989Y-18199D01*
X20010Y-18179D01*
X20010Y-17766D01*
X20002Y-17766D01*
X20002Y-17666D01*
X20010Y-17666D01*
X20010Y-17658D01*
X20110Y-17658D01*
X20110Y-17666D01*
X20422Y-17666D01*
X20485Y-17604D01*
X20485Y-17491D01*
X20484Y-17391D01*
X20446Y-17299D01*
X20376Y-17229D01*
X20305Y-17200D01*
X20388Y-17117D01*
X20520Y-17117D01*
X20575Y-17095D01*
X20607Y-17063D01*
X20607Y-17791D01*
X20485Y-17914D01*
X20485Y-17829D01*
X20422Y-17766D01*
X20110Y-17766D01*
X20110Y-18099D01*
X20089Y-18120D01*
X20089Y-18749D01*
X20096Y-18749D01*
X20096Y-18849D01*
X20089Y-18849D01*
X20089Y-19479D01*
X20151Y-19541D01*
X20383Y-19541D01*
X20482Y-19541D01*
X20563Y-19508D01*
X20523Y-19623D01*
X20535Y-19812D01*
X20584Y-19930D01*
X20672Y-19948D01*
X20933Y-19687D01*
X20927Y-19681D01*
X20998Y-19611D01*
X21003Y-19616D01*
X21264Y-19355D01*
X21247Y-19273D01*
X21321Y-19200D01*
X21378Y-19062D01*
X21379Y-18913D01*
X21322Y-18775D01*
X21216Y-18669D01*
X21138Y-18637D01*
X21216Y-18605D01*
X21321Y-18500D01*
X21378Y-18362D01*
X21379Y-18213D01*
X21322Y-18075D01*
X21262Y-18015D01*
X21558Y-17719D01*
X21601Y-17654D01*
X21616Y-17578D01*
X21616Y-15629D01*
X21601Y-15553D01*
X21558Y-15489D01*
X21164Y-15095D01*
X21099Y-15052D01*
X21038Y-15039D01*
X21084Y-14927D01*
X21085Y-14797D01*
X21035Y-14677D01*
X21030Y-14672D01*
X21670Y-14032D01*
X21717Y-13961D01*
X21718Y-13959D01*
X21720Y-13958D01*
X21812Y-13866D01*
X21862Y-13746D01*
X21862Y-13616D01*
X21812Y-13496D01*
X21720Y-13403D01*
X21600Y-13353D01*
X21470Y-13353D01*
X21350Y-13403D01*
X21272Y-13481D01*
X21272Y-13192D01*
X22053Y-12411D01*
X22378Y-12411D01*
X22378Y-12417D01*
X22401Y-12472D01*
X22443Y-12514D01*
X22498Y-12537D01*
X22528Y-12537D01*
X22478Y-12537D01*
X22387Y-12575D01*
X22316Y-12645D01*
X22278Y-12737D01*
X22278Y-12849D01*
X22341Y-12912D01*
X22753Y-12912D01*
X22753Y-12904D01*
X22853Y-12904D01*
X22853Y-12912D01*
X22861Y-12912D01*
X22861Y-13012D01*
X22853Y-13012D01*
X22853Y-13020D01*
X22753Y-13020D01*
X22753Y-13012D01*
X22341Y-13012D01*
X22278Y-13074D01*
X22278Y-13186D01*
X22316Y-13278D01*
X22387Y-13349D01*
X22478Y-13387D01*
X22553Y-13387D01*
X22523Y-13457D01*
X22523Y-13556D01*
X22523Y-13574D01*
X22586Y-13637D01*
X22903Y-13637D01*
X22903Y-13629D01*
X23003Y-13629D01*
X23003Y-13637D01*
X23011Y-13637D01*
X23011Y-13737D01*
X23003Y-13737D01*
X23003Y-14054D01*
X23066Y-14117D01*
X23183Y-14117D01*
X23275Y-14079D01*
X23345Y-14009D01*
X23362Y-13968D01*
X23388Y-13994D01*
X23443Y-14017D01*
X23503Y-14017D01*
X23863Y-14017D01*
X23918Y-13994D01*
X23961Y-13952D01*
X23974Y-13921D01*
X23974Y-14114D01*
X23990Y-14197D01*
X24033Y-14261D01*
X24033Y-14797D01*
X24008Y-14787D01*
X23949Y-14787D01*
X23576Y-14787D01*
X23611Y-14752D01*
X23633Y-14697D01*
X23633Y-14637D01*
X23633Y-14277D01*
X23611Y-14222D01*
X23569Y-14180D01*
X23513Y-14157D01*
X23454Y-14157D01*
X23094Y-14157D01*
X23039Y-14180D01*
X22996Y-14222D01*
X22973Y-14277D01*
X22973Y-14337D01*
X22973Y-14697D01*
X22996Y-14752D01*
X23031Y-14787D01*
X22903Y-14787D01*
X22903Y-14054D01*
X22903Y-13737D01*
X22586Y-13737D01*
X22523Y-13799D01*
X22523Y-13817D01*
X22523Y-13917D01*
X22562Y-14009D01*
X22632Y-14079D01*
X22724Y-14117D01*
X22841Y-14117D01*
X22903Y-14054D01*
X22903Y-14787D01*
X22599Y-14787D01*
X22544Y-14810D01*
X22501Y-14852D01*
X22478Y-14907D01*
X22478Y-14967D01*
X22478Y-15317D01*
X22501Y-15372D01*
X22543Y-15414D01*
X22598Y-15437D01*
X22658Y-15437D01*
X22914Y-15437D01*
X22814Y-15537D01*
X22599Y-15537D01*
X22544Y-15560D01*
X22501Y-15602D01*
X22478Y-15657D01*
X22478Y-15717D01*
X22478Y-16067D01*
X22501Y-16122D01*
X22543Y-16164D01*
X22598Y-16187D01*
X22658Y-16187D01*
X22681Y-16187D01*
X22646Y-16222D01*
X22623Y-16277D01*
X22623Y-16337D01*
X22623Y-16466D01*
X21828Y-17261D01*
X21774Y-17342D01*
X21755Y-17437D01*
X21755Y-18937D01*
X21774Y-19032D01*
X21828Y-19113D01*
X22105Y-19390D01*
X22105Y-20903D01*
X22099Y-20905D01*
X21972Y-21032D01*
X21904Y-21197D01*
X21903Y-21376D01*
X21972Y-21541D01*
X22098Y-21668D01*
X22264Y-21737D01*
X22443Y-21737D01*
X22608Y-21669D01*
X22735Y-21542D01*
X22803Y-21377D01*
X22804Y-21198D01*
X22735Y-21032D01*
X22609Y-20906D01*
X22602Y-20903D01*
X22602Y-19287D01*
X22583Y-19192D01*
X22583Y-19192D01*
X22565Y-19165D01*
X22529Y-19111D01*
X22529Y-19111D01*
X22510Y-19092D01*
X22510Y-19092D01*
X22510Y-19092D01*
X22405Y-18987D01*
X22808Y-18987D01*
X22863Y-18964D01*
X22903Y-18924D01*
X22943Y-18964D01*
X22998Y-18987D01*
X23055Y-18987D01*
X23055Y-19237D01*
X22974Y-19237D01*
X22919Y-19260D01*
X22876Y-19302D01*
X22853Y-19357D01*
X22853Y-19417D01*
X22853Y-20017D01*
X22876Y-20072D01*
X22918Y-20114D01*
X22973Y-20137D01*
X23033Y-20137D01*
X23633Y-20137D01*
X23688Y-20114D01*
X23731Y-20072D01*
X23753Y-20017D01*
X23753Y-19957D01*
X23753Y-19701D01*
X23760Y-19824D01*
X23822Y-19975D01*
X23918Y-20002D01*
X24233Y-19687D01*
X23918Y-19372D01*
X23822Y-19399D01*
X23753Y-19592D01*
X23753Y-19357D01*
X23731Y-19302D01*
X23689Y-19260D01*
X23633Y-19237D01*
X23574Y-19237D01*
X23552Y-19237D01*
X23552Y-18987D01*
X23608Y-18987D01*
X23663Y-18964D01*
X23703Y-18924D01*
X23743Y-18964D01*
X23798Y-18987D01*
X23858Y-18987D01*
X24408Y-18987D01*
X24463Y-18964D01*
X24506Y-18922D01*
X24528Y-18867D01*
X24528Y-18807D01*
X24528Y-18457D01*
X24506Y-18402D01*
X24464Y-18360D01*
X24408Y-18337D01*
X24349Y-18337D01*
X23799Y-18337D01*
X23744Y-18360D01*
X23703Y-18400D01*
X23664Y-18360D01*
X23608Y-18337D01*
X23549Y-18337D01*
X22999Y-18337D01*
X22944Y-18360D01*
X22903Y-18400D01*
X22864Y-18360D01*
X22808Y-18337D01*
X22749Y-18337D01*
X22252Y-18337D01*
X22252Y-18237D01*
X22258Y-18237D01*
X22808Y-18237D01*
X22863Y-18214D01*
X22903Y-18174D01*
X22943Y-18214D01*
X22998Y-18237D01*
X23058Y-18237D01*
X23608Y-18237D01*
X23663Y-18214D01*
X23703Y-18174D01*
X23743Y-18214D01*
X23798Y-18237D01*
X23858Y-18237D01*
X24408Y-18237D01*
X24463Y-18214D01*
X24506Y-18172D01*
X24528Y-18117D01*
X24528Y-18057D01*
X24528Y-17707D01*
X24506Y-17652D01*
X24464Y-17610D01*
X24408Y-17587D01*
X24349Y-17587D01*
X23799Y-17587D01*
X23744Y-17610D01*
X23703Y-17650D01*
X23664Y-17610D01*
X23608Y-17587D01*
X23576Y-17587D01*
X23611Y-17552D01*
X23633Y-17497D01*
X23633Y-17437D01*
X23633Y-17077D01*
X23611Y-17022D01*
X23569Y-16980D01*
X23513Y-16957D01*
X23454Y-16957D01*
X23094Y-16957D01*
X23039Y-16980D01*
X22996Y-17022D01*
X22973Y-17077D01*
X22973Y-17137D01*
X22973Y-17497D01*
X22996Y-17552D01*
X23031Y-17587D01*
X22999Y-17587D01*
X22944Y-17610D01*
X22903Y-17650D01*
X22864Y-17610D01*
X22808Y-17587D01*
X22749Y-17587D01*
X22252Y-17587D01*
X22252Y-17540D01*
X22975Y-16817D01*
X23163Y-16817D01*
X23218Y-16794D01*
X23261Y-16752D01*
X23283Y-16697D01*
X23283Y-16637D01*
X23283Y-16277D01*
X23261Y-16222D01*
X23221Y-16182D01*
X23263Y-16164D01*
X23303Y-16124D01*
X23343Y-16164D01*
X23386Y-16182D01*
X23346Y-16222D01*
X23323Y-16277D01*
X23323Y-16337D01*
X23323Y-16697D01*
X23346Y-16752D01*
X23388Y-16794D01*
X23443Y-16817D01*
X23503Y-16817D01*
X23863Y-16817D01*
X23918Y-16794D01*
X23961Y-16752D01*
X23983Y-16697D01*
X23983Y-16637D01*
X23983Y-16277D01*
X23961Y-16222D01*
X23926Y-16187D01*
X24008Y-16187D01*
X24063Y-16164D01*
X24106Y-16122D01*
X24128Y-16067D01*
X24128Y-16007D01*
X24128Y-15700D01*
X24158Y-15694D01*
X24229Y-15646D01*
X24406Y-15469D01*
X24454Y-15398D01*
X24470Y-15314D01*
X24470Y-15314D01*
X24470Y-14960D01*
X24470Y-14173D01*
X24454Y-14089D01*
X24411Y-14026D01*
X24411Y-13358D01*
X24524Y-13245D01*
X24572Y-13174D01*
X24588Y-13090D01*
X24588Y-13090D01*
X24588Y-12905D01*
X24962Y-12531D01*
X25045Y-12531D01*
X25165Y-12482D01*
X25257Y-12390D01*
X25307Y-12270D01*
X25307Y-12139D01*
X25257Y-12019D01*
X25209Y-11970D01*
X25275Y-11970D01*
X25275Y-11970D01*
X25359Y-11954D01*
X25430Y-11906D01*
X26035Y-11301D01*
X26672Y-11301D01*
X26495Y-11374D01*
X26092Y-11776D01*
X25874Y-12301D01*
X25874Y-12870D01*
X26091Y-13396D01*
X26493Y-13798D01*
X27018Y-14016D01*
X27587Y-14017D01*
X28112Y-13800D01*
X28515Y-13398D01*
X28733Y-12872D01*
X28733Y-12304D01*
X28516Y-11778D01*
X28114Y-11376D01*
X27589Y-11158D01*
X27340Y-11157D01*
X28816Y-9682D01*
X28816Y-9682D01*
X28863Y-9611D01*
X28880Y-9527D01*
X28880Y-9527D01*
X28880Y-8641D01*
X28880Y-3464D01*
X28863Y-3380D01*
X28816Y-3309D01*
X28816Y-3309D01*
X28417Y-2911D01*
X28417Y-2828D01*
X28368Y-2708D01*
X28276Y-2616D01*
X28155Y-2566D01*
X28025Y-2566D01*
X27949Y-2598D01*
X27946Y-2582D01*
X27946Y-2582D01*
X27928Y-2555D01*
X27892Y-2501D01*
X27892Y-2501D01*
X27610Y-2220D01*
X27530Y-2166D01*
X27435Y-2147D01*
X27026Y-2147D01*
X27022Y-2145D01*
X26962Y-2145D01*
X26462Y-2145D01*
X26441Y-2154D01*
X26441Y-987D01*
X26443Y-987D01*
X26608Y-919D01*
X26735Y-792D01*
X26803Y-627D01*
X26804Y-448D01*
X26735Y-282D01*
X26632Y-179D01*
X28862Y-179D01*
X28954Y-271D01*
X28954Y-14295D01*
M02*
