G04 (created by PCBNEW (2013-07-07 BZR 4022)-stable) date 11/09/2013 12:50:20*
%MOIN*%
G04 Gerber Fmt 3.4, Leading zero omitted, Abs format*
%FSLAX34Y34*%
G01*
G70*
G90*
G04 APERTURE LIST*
%ADD10C,0.00590551*%
%ADD11R,0.036X0.036*%
%ADD12R,0.0315X0.0394*%
%ADD13R,0.055X0.035*%
%ADD14R,0.035X0.055*%
%ADD15C,0.045*%
%ADD16R,0.06X0.06*%
%ADD17C,0.06*%
%ADD18C,0.066*%
%ADD19R,0.055X0.055*%
%ADD20C,0.055*%
%ADD21C,0.255906*%
%ADD22R,0.0236X0.0551*%
%ADD23C,0.0590551*%
%ADD24R,0.07X0.07*%
%ADD25C,0.07*%
%ADD26R,0.144X0.08*%
%ADD27R,0.04X0.08*%
G04 APERTURE END LIST*
G54D10*
G54D11*
X9853Y-12187D03*
X9153Y-12187D03*
X9503Y-12987D03*
X7553Y-10187D03*
X6853Y-10187D03*
X7203Y-10987D03*
X10503Y-14337D03*
X10503Y-13637D03*
X9703Y-13987D03*
X10603Y-12137D03*
X10603Y-12837D03*
X11403Y-12487D03*
X5703Y-12237D03*
X5703Y-12937D03*
X6503Y-12587D03*
X5753Y-11487D03*
X6453Y-11487D03*
X6103Y-10687D03*
G54D12*
X16003Y-12054D03*
X15628Y-12920D03*
X16378Y-12920D03*
G54D13*
X17519Y-11398D03*
X17519Y-10648D03*
G54D14*
X19728Y-7487D03*
X20478Y-7487D03*
X19628Y-10687D03*
X20378Y-10687D03*
G54D13*
X18307Y-11398D03*
X18307Y-10648D03*
X20753Y-11562D03*
X20753Y-12312D03*
X17103Y-12962D03*
X17103Y-12212D03*
X18403Y-12962D03*
X18403Y-12212D03*
G54D14*
X19596Y-14483D03*
X20346Y-14483D03*
G54D13*
X24353Y-16162D03*
X24353Y-16912D03*
G54D14*
X24128Y-18637D03*
X23378Y-18637D03*
X23628Y-16937D03*
X22878Y-16937D03*
X23378Y-17737D03*
X24128Y-17737D03*
X23628Y-16137D03*
X22878Y-16137D03*
X21978Y-17887D03*
X22728Y-17887D03*
X22878Y-15337D03*
X23628Y-15337D03*
X21478Y-16937D03*
X22228Y-16937D03*
X22228Y-15337D03*
X21478Y-15337D03*
X21478Y-16137D03*
X22228Y-16137D03*
X19596Y-15270D03*
X20346Y-15270D03*
X19596Y-16845D03*
X20346Y-16845D03*
X19596Y-16057D03*
X20346Y-16057D03*
X19728Y-9087D03*
X20478Y-9087D03*
X19596Y-17632D03*
X20346Y-17632D03*
G54D13*
X22553Y-8562D03*
X22553Y-9312D03*
X23353Y-8812D03*
X23353Y-8062D03*
G54D14*
X21878Y-11537D03*
X22628Y-11537D03*
G54D13*
X22553Y-9962D03*
X22553Y-10712D03*
X23353Y-10212D03*
X23353Y-9462D03*
X23553Y-11612D03*
X23553Y-10862D03*
X24153Y-9462D03*
X24153Y-10212D03*
X21703Y-9212D03*
X21703Y-9962D03*
G54D14*
X7028Y-14287D03*
X7778Y-14287D03*
X21028Y-10687D03*
X21778Y-10687D03*
X19728Y-9887D03*
X20478Y-9887D03*
X19728Y-8287D03*
X20478Y-8287D03*
G54D13*
X11403Y-9812D03*
X11403Y-10562D03*
X12303Y-9812D03*
X12303Y-10562D03*
X7603Y-8712D03*
X7603Y-9462D03*
G54D14*
X6770Y-7972D03*
X7520Y-7972D03*
X7028Y-15087D03*
X7778Y-15087D03*
G54D13*
X6003Y-9962D03*
X6003Y-9212D03*
X5203Y-14412D03*
X5203Y-15162D03*
G54D14*
X6278Y-13687D03*
X5528Y-13687D03*
G54D13*
X6803Y-8712D03*
X6803Y-9462D03*
X10303Y-17562D03*
X10303Y-16812D03*
X10303Y-18962D03*
X10303Y-18212D03*
X12303Y-8962D03*
X12303Y-8212D03*
X12303Y-7462D03*
X12303Y-6712D03*
X12403Y-14162D03*
X12403Y-13412D03*
X11503Y-14162D03*
X11503Y-13412D03*
X10303Y-11362D03*
X10303Y-10612D03*
X9403Y-18962D03*
X9403Y-18212D03*
G54D15*
X21003Y-19687D03*
X21003Y-18287D03*
X21003Y-18987D03*
G54D16*
X23353Y-537D03*
G54D17*
X24353Y-537D03*
X25353Y-537D03*
X26353Y-537D03*
G54D16*
X21353Y-21287D03*
G54D17*
X22353Y-21287D03*
X23353Y-21287D03*
X24353Y-21287D03*
G54D16*
X889Y-2074D03*
G54D17*
X889Y-1074D03*
X1889Y-2074D03*
X1889Y-1074D03*
X2889Y-2074D03*
X2889Y-1074D03*
G54D16*
X12803Y-21287D03*
G54D17*
X13803Y-21287D03*
X14803Y-21287D03*
G54D16*
X11803Y-21287D03*
G54D17*
X10803Y-21287D03*
G54D16*
X14803Y-18787D03*
G54D17*
X13803Y-18787D03*
G54D16*
X6903Y-537D03*
G54D17*
X5903Y-537D03*
G54D16*
X3903Y-537D03*
G54D17*
X4903Y-537D03*
G54D16*
X23303Y-19687D03*
G54D17*
X24303Y-19687D03*
X14103Y-6503D03*
X14103Y-8471D03*
G54D18*
X8103Y-21087D03*
X7103Y-21087D03*
X4603Y-21087D03*
X3603Y-21087D03*
G54D19*
X11403Y-8987D03*
G54D20*
X11403Y-5987D03*
G54D19*
X7803Y-19387D03*
G54D20*
X7803Y-16387D03*
X16903Y-9637D03*
X18903Y-9637D03*
G54D19*
X13203Y-2587D03*
G54D20*
X10203Y-2587D03*
G54D21*
X1771Y-20078D03*
X1803Y-4487D03*
X27303Y-12587D03*
G54D22*
X21503Y-14487D03*
X21503Y-12387D03*
X22003Y-14487D03*
X22503Y-14487D03*
X23003Y-14487D03*
X22003Y-12387D03*
X22503Y-12387D03*
X23003Y-12387D03*
G54D23*
X6103Y-19777D03*
X6103Y-5997D03*
X9403Y-19777D03*
X9403Y-5997D03*
G54D16*
X787Y-17688D03*
G54D17*
X787Y-16688D03*
X787Y-15688D03*
X787Y-14688D03*
X787Y-13688D03*
X787Y-12688D03*
X787Y-11688D03*
X787Y-10688D03*
X787Y-9688D03*
X787Y-8688D03*
X787Y-7688D03*
G54D24*
X4203Y-14687D03*
G54D25*
X2203Y-14687D03*
G54D24*
X11253Y-16637D03*
G54D25*
X13253Y-16637D03*
G54D11*
X9059Y-8628D03*
X9759Y-8628D03*
X9409Y-7828D03*
X6452Y-17159D03*
X5752Y-17159D03*
X6102Y-17959D03*
G54D26*
X6102Y-18780D03*
G54D27*
X6102Y-16180D03*
X7002Y-16180D03*
X5202Y-16180D03*
G54D26*
X9409Y-6928D03*
G54D27*
X9409Y-9528D03*
X8509Y-9528D03*
X10309Y-9528D03*
M02*
