M48
;DRILL file {Pcbnew (2013-07-07 BZR 4022)-stable} date 11/09/2013 12:49:58
;FORMAT={-:-/ absolute / metric / decimal}
FMAT,2
METRIC,TZ
T1C0.600
T2C0.813
T3C1.015
T4C1.016
T5C3.100
%
G90
G05
M71
T1
X9.1Y-43.3
X10.8Y-46.6
X11.1Y-38.5
X11.3Y-30.5
X12.35Y-31.35
X13.85Y-31.6
X14.85Y-36.9
X15.Y-42.7
X16.3Y-36.75
X17.55Y-36.55
X17.6Y-42.35
X18.7Y-28.3
X19.Y-36.7
X19.4Y-31.05
X23.15Y-27.05
X23.35Y-46.9
X24.5Y-46.45
X25.05Y-29.35
X25.6Y-30.35
X29.5Y-45.5
X30.4Y-32.1
X31.75Y-49.15
X33.3Y-46.65
X33.55Y-42.55
X33.55Y-43.7
X33.55Y-45.5
X35.65Y-46.95
X36.2Y-36.2
X36.85Y-8.5
X38.5Y-33.15
X39.2Y-21.35
X39.65Y-24.15
X40.55Y-13.45
X41.25Y-9.
X42.4Y-50.65
X47.25Y-22.75
X47.65Y-30.8
X47.8Y-33.55
X48.1Y-32.35
X48.9Y-42.85
X48.9Y-47.8
X49.4Y-24.05
X49.4Y-35.8
X49.7Y-22.7
X49.7Y-25.2
X49.75Y-26.4
X50.15Y-42.5
X50.2Y-47.9
X50.9Y-32.65
X51.3Y-20.35
X52.05Y-21.3
X52.75Y-24.9
X54.1Y-35.4
X55.2Y-10.5
X55.2Y-15.
X55.2Y-17.5
X55.25Y-16.2
X55.6Y-38.55
X60.05Y-21.95
X60.4Y-37.6
X60.6Y-36.1
X61.4Y-32.3
X61.6Y-33.45
X61.65Y-34.65
X62.8Y-20.7
X63.45Y-11.5
X64.05Y-25.95
X64.55Y-9.1
X64.55Y-16.25
X64.6Y-14.9
X64.7Y-17.5
X64.75Y-21.95
X64.85Y-13.05
X65.05Y-11.8
X66.35Y-9.25
X67.85Y-23.4
X68.25Y-43.
X68.55Y-37.05
X69.2Y-10.5
X69.3Y-14.9
X69.3Y-16.25
X69.3Y-17.5
X77.6Y-22.9
X78.75Y-23.35
X80.15Y-31.5
X80.6Y-41.9
X81.6Y-15.
X81.6Y-16.25
X81.6Y-17.6
X81.65Y-21.95
T2
X12.202Y-36.036
X12.202Y-41.116
X66.558Y-53.308
X69.098Y-53.308
X72.146Y-53.308
X74.686Y-53.308
T3
X2.Y-27.15
X2.Y-29.69
X4.582Y-27.146
X4.582Y-29.686
X54.874Y-54.197
X57.414Y-54.197
T4
X2.Y-19.53
X2.Y-22.07
X2.Y-24.61
X2.Y-32.23
X2.Y-34.77
X2.Y-37.31
X2.Y-39.85
X2.Y-42.39
X2.Y-44.93
X2.296Y-1.809
X4.582Y-19.526
X4.582Y-22.066
X4.582Y-24.606
X4.582Y-32.226
X4.582Y-34.766
X4.582Y-37.306
X4.582Y-39.846
X4.582Y-42.386
X4.582Y-44.926
X4.836Y-1.809
X7.376Y-1.809
X9.154Y-53.562
X9.916Y-1.809
X11.694Y-53.562
X12.456Y-1.809
X14.234Y-53.562
X14.996Y-1.809
X16.774Y-53.562
X17.536Y-1.809
X19.314Y-53.562
X20.076Y-1.809
X21.854Y-53.562
X22.616Y-1.809
X24.394Y-53.562
X25.156Y-1.809
X26.934Y-53.562
X27.696Y-1.809
X29.474Y-54.197
X30.236Y-1.809
X31.396Y-29.994
X32.014Y-54.197
X32.646Y-27.494
X32.776Y-1.809
X33.896Y-29.994
X34.554Y-54.197
X35.316Y-1.809
X37.094Y-54.197
X37.856Y-1.809
X39.634Y-54.197
X40.396Y-1.809
X42.174Y-54.197
X42.936Y-1.809
X44.714Y-54.197
X45.476Y-1.809
X47.254Y-54.197
X48.016Y-1.809
X49.794Y-54.197
X50.556Y-1.809
X52.334Y-54.197
X53.096Y-1.809
X55.636Y-1.809
X58.176Y-1.809
X59.954Y-54.197
X60.716Y-1.809
X62.494Y-54.197
X63.256Y-1.809
X65.796Y-1.809
X68.336Y-1.809
X70.876Y-1.809
X73.416Y-1.809
X75.956Y-1.809
X78.496Y-1.809
X81.036Y-1.809
T5
X4.506Y-50.997
X4.582Y-11.398
X69.352Y-31.972
T0
M30
