G04 (created by PCBNEW (2013-07-07 BZR 4022)-stable) date 11/09/2013 12:49:52*
%MOIN*%
G04 Gerber Fmt 3.4, Leading zero omitted, Abs format*
%FSLAX34Y34*%
G01*
G70*
G90*
G04 APERTURE LIST*
%ADD10C,0.00590551*%
%ADD11C,0.00295276*%
%ADD12C,0.00984252*%
%ADD13R,0.06X0.06*%
%ADD14C,0.06*%
%ADD15C,0.066*%
%ADD16C,0.255906*%
%ADD17C,0.055*%
%ADD18C,0.0354331*%
%ADD19C,0.0275591*%
%ADD20C,0.0393701*%
%ADD21C,0.019685*%
%ADD22C,0.0137795*%
%ADD23C,0.01*%
G04 APERTURE END LIST*
G54D10*
G54D11*
X23669Y-20244D02*
X23591Y-20244D01*
X23551Y-20244D02*
X23557Y-20239D01*
X23562Y-20244D01*
X23557Y-20250D01*
X23551Y-20244D01*
X23562Y-20244D01*
X23591Y-20300D02*
X23669Y-20300D01*
X23602Y-20300D02*
X23596Y-20306D01*
X23591Y-20317D01*
X23591Y-20334D01*
X23596Y-20345D01*
X23607Y-20351D01*
X23669Y-20351D01*
X23602Y-20424D02*
X23596Y-20413D01*
X23591Y-20407D01*
X23579Y-20402D01*
X23574Y-20402D01*
X23562Y-20407D01*
X23557Y-20413D01*
X23551Y-20424D01*
X23551Y-20447D01*
X23557Y-20458D01*
X23562Y-20464D01*
X23574Y-20469D01*
X23579Y-20469D01*
X23591Y-20464D01*
X23596Y-20458D01*
X23602Y-20447D01*
X23602Y-20424D01*
X23607Y-20413D01*
X23613Y-20407D01*
X23624Y-20402D01*
X23647Y-20402D01*
X23658Y-20407D01*
X23664Y-20413D01*
X23669Y-20424D01*
X23669Y-20447D01*
X23664Y-20458D01*
X23658Y-20464D01*
X23647Y-20469D01*
X23624Y-20469D01*
X23613Y-20464D01*
X23607Y-20458D01*
X23602Y-20447D01*
X22646Y-20244D02*
X22567Y-20244D01*
X22528Y-20244D02*
X22533Y-20239D01*
X22539Y-20244D01*
X22533Y-20250D01*
X22528Y-20244D01*
X22539Y-20244D01*
X22567Y-20300D02*
X22646Y-20300D01*
X22578Y-20300D02*
X22573Y-20306D01*
X22567Y-20317D01*
X22567Y-20334D01*
X22573Y-20345D01*
X22584Y-20351D01*
X22646Y-20351D01*
X22528Y-20396D02*
X22528Y-20475D01*
X22646Y-20424D01*
X21661Y-20244D02*
X21583Y-20244D01*
X21543Y-20244D02*
X21549Y-20239D01*
X21555Y-20244D01*
X21549Y-20250D01*
X21543Y-20244D01*
X21555Y-20244D01*
X21583Y-20300D02*
X21661Y-20300D01*
X21594Y-20300D02*
X21588Y-20306D01*
X21583Y-20317D01*
X21583Y-20334D01*
X21588Y-20345D01*
X21600Y-20351D01*
X21661Y-20351D01*
X21543Y-20458D02*
X21543Y-20435D01*
X21549Y-20424D01*
X21555Y-20419D01*
X21571Y-20407D01*
X21594Y-20402D01*
X21639Y-20402D01*
X21650Y-20407D01*
X21656Y-20413D01*
X21661Y-20424D01*
X21661Y-20447D01*
X21656Y-20458D01*
X21650Y-20464D01*
X21639Y-20469D01*
X21611Y-20469D01*
X21600Y-20464D01*
X21594Y-20458D01*
X21588Y-20447D01*
X21588Y-20424D01*
X21594Y-20413D01*
X21600Y-20407D01*
X21611Y-20402D01*
X20638Y-20244D02*
X20559Y-20244D01*
X20520Y-20244D02*
X20525Y-20239D01*
X20531Y-20244D01*
X20525Y-20250D01*
X20520Y-20244D01*
X20531Y-20244D01*
X20559Y-20300D02*
X20638Y-20300D01*
X20570Y-20300D02*
X20565Y-20306D01*
X20559Y-20317D01*
X20559Y-20334D01*
X20565Y-20345D01*
X20576Y-20351D01*
X20638Y-20351D01*
X20520Y-20464D02*
X20520Y-20407D01*
X20576Y-20402D01*
X20570Y-20407D01*
X20565Y-20419D01*
X20565Y-20447D01*
X20570Y-20458D01*
X20576Y-20464D01*
X20587Y-20469D01*
X20615Y-20469D01*
X20627Y-20464D01*
X20632Y-20458D01*
X20638Y-20447D01*
X20638Y-20419D01*
X20632Y-20407D01*
X20627Y-20402D01*
X19614Y-20244D02*
X19535Y-20244D01*
X19496Y-20244D02*
X19502Y-20239D01*
X19507Y-20244D01*
X19502Y-20250D01*
X19496Y-20244D01*
X19507Y-20244D01*
X19535Y-20300D02*
X19614Y-20300D01*
X19547Y-20300D02*
X19541Y-20306D01*
X19535Y-20317D01*
X19535Y-20334D01*
X19541Y-20345D01*
X19552Y-20351D01*
X19614Y-20351D01*
X19535Y-20458D02*
X19614Y-20458D01*
X19491Y-20430D02*
X19575Y-20402D01*
X19575Y-20475D01*
X18630Y-20244D02*
X18551Y-20244D01*
X18512Y-20244D02*
X18517Y-20239D01*
X18523Y-20244D01*
X18517Y-20250D01*
X18512Y-20244D01*
X18523Y-20244D01*
X18551Y-20300D02*
X18630Y-20300D01*
X18562Y-20300D02*
X18557Y-20306D01*
X18551Y-20317D01*
X18551Y-20334D01*
X18557Y-20345D01*
X18568Y-20351D01*
X18630Y-20351D01*
X18512Y-20396D02*
X18512Y-20469D01*
X18557Y-20430D01*
X18557Y-20447D01*
X18562Y-20458D01*
X18568Y-20464D01*
X18579Y-20469D01*
X18607Y-20469D01*
X18619Y-20464D01*
X18624Y-20458D01*
X18630Y-20447D01*
X18630Y-20413D01*
X18624Y-20402D01*
X18619Y-20396D01*
X17646Y-20244D02*
X17567Y-20244D01*
X17528Y-20244D02*
X17533Y-20239D01*
X17539Y-20244D01*
X17533Y-20250D01*
X17528Y-20244D01*
X17539Y-20244D01*
X17567Y-20300D02*
X17646Y-20300D01*
X17578Y-20300D02*
X17573Y-20306D01*
X17567Y-20317D01*
X17567Y-20334D01*
X17573Y-20345D01*
X17584Y-20351D01*
X17646Y-20351D01*
X17539Y-20402D02*
X17533Y-20407D01*
X17528Y-20419D01*
X17528Y-20447D01*
X17533Y-20458D01*
X17539Y-20464D01*
X17550Y-20469D01*
X17561Y-20469D01*
X17578Y-20464D01*
X17646Y-20396D01*
X17646Y-20469D01*
X16661Y-20244D02*
X16583Y-20244D01*
X16543Y-20244D02*
X16549Y-20239D01*
X16555Y-20244D01*
X16549Y-20250D01*
X16543Y-20244D01*
X16555Y-20244D01*
X16583Y-20300D02*
X16661Y-20300D01*
X16594Y-20300D02*
X16588Y-20306D01*
X16583Y-20317D01*
X16583Y-20334D01*
X16588Y-20345D01*
X16600Y-20351D01*
X16661Y-20351D01*
X16661Y-20469D02*
X16661Y-20402D01*
X16661Y-20435D02*
X16543Y-20435D01*
X16560Y-20424D01*
X16571Y-20413D01*
X16577Y-20402D01*
X12567Y-20194D02*
X12663Y-20194D01*
X12674Y-20188D01*
X12679Y-20182D01*
X12685Y-20171D01*
X12685Y-20154D01*
X12679Y-20143D01*
X12640Y-20194D02*
X12646Y-20182D01*
X12646Y-20160D01*
X12640Y-20149D01*
X12634Y-20143D01*
X12623Y-20137D01*
X12589Y-20137D01*
X12578Y-20143D01*
X12573Y-20149D01*
X12567Y-20160D01*
X12567Y-20182D01*
X12573Y-20194D01*
X12567Y-20250D02*
X12646Y-20250D01*
X12578Y-20250D02*
X12573Y-20255D01*
X12567Y-20267D01*
X12567Y-20284D01*
X12573Y-20295D01*
X12584Y-20300D01*
X12646Y-20300D01*
X12646Y-20407D02*
X12528Y-20407D01*
X12640Y-20407D02*
X12646Y-20396D01*
X12646Y-20374D01*
X12640Y-20362D01*
X12634Y-20357D01*
X12623Y-20351D01*
X12589Y-20351D01*
X12578Y-20357D01*
X12573Y-20362D01*
X12567Y-20374D01*
X12567Y-20396D01*
X12573Y-20407D01*
X14575Y-20194D02*
X14670Y-20194D01*
X14682Y-20188D01*
X14687Y-20182D01*
X14693Y-20171D01*
X14693Y-20154D01*
X14687Y-20143D01*
X14648Y-20194D02*
X14654Y-20182D01*
X14654Y-20160D01*
X14648Y-20149D01*
X14642Y-20143D01*
X14631Y-20137D01*
X14597Y-20137D01*
X14586Y-20143D01*
X14580Y-20149D01*
X14575Y-20160D01*
X14575Y-20182D01*
X14580Y-20194D01*
X14575Y-20250D02*
X14654Y-20250D01*
X14586Y-20250D02*
X14580Y-20255D01*
X14575Y-20267D01*
X14575Y-20284D01*
X14580Y-20295D01*
X14592Y-20300D01*
X14654Y-20300D01*
X14654Y-20407D02*
X14535Y-20407D01*
X14648Y-20407D02*
X14654Y-20396D01*
X14654Y-20374D01*
X14648Y-20362D01*
X14642Y-20357D01*
X14631Y-20351D01*
X14597Y-20351D01*
X14586Y-20357D01*
X14580Y-20362D01*
X14575Y-20374D01*
X14575Y-20396D01*
X14580Y-20407D01*
X13669Y-20101D02*
X13607Y-20101D01*
X13596Y-20095D01*
X13591Y-20084D01*
X13591Y-20061D01*
X13596Y-20050D01*
X13664Y-20101D02*
X13669Y-20089D01*
X13669Y-20061D01*
X13664Y-20050D01*
X13652Y-20044D01*
X13641Y-20044D01*
X13630Y-20050D01*
X13624Y-20061D01*
X13624Y-20089D01*
X13619Y-20101D01*
X13669Y-20208D02*
X13551Y-20208D01*
X13664Y-20208D02*
X13669Y-20196D01*
X13669Y-20174D01*
X13664Y-20163D01*
X13658Y-20157D01*
X13647Y-20151D01*
X13613Y-20151D01*
X13602Y-20157D01*
X13596Y-20163D01*
X13591Y-20174D01*
X13591Y-20196D01*
X13596Y-20208D01*
X13669Y-20314D02*
X13551Y-20314D01*
X13664Y-20314D02*
X13669Y-20303D01*
X13669Y-20281D01*
X13664Y-20269D01*
X13658Y-20264D01*
X13647Y-20258D01*
X13613Y-20258D01*
X13602Y-20264D01*
X13596Y-20269D01*
X13591Y-20281D01*
X13591Y-20303D01*
X13596Y-20314D01*
X13669Y-20371D02*
X13591Y-20371D01*
X13613Y-20371D02*
X13602Y-20376D01*
X13596Y-20382D01*
X13591Y-20393D01*
X13591Y-20404D01*
X13669Y-20506D02*
X13669Y-20438D01*
X13669Y-20472D02*
X13551Y-20472D01*
X13568Y-20461D01*
X13579Y-20449D01*
X13585Y-20438D01*
X11661Y-20101D02*
X11600Y-20101D01*
X11588Y-20095D01*
X11583Y-20084D01*
X11583Y-20061D01*
X11588Y-20050D01*
X11656Y-20101D02*
X11661Y-20089D01*
X11661Y-20061D01*
X11656Y-20050D01*
X11645Y-20044D01*
X11633Y-20044D01*
X11622Y-20050D01*
X11616Y-20061D01*
X11616Y-20089D01*
X11611Y-20101D01*
X11661Y-20208D02*
X11543Y-20208D01*
X11656Y-20208D02*
X11661Y-20196D01*
X11661Y-20174D01*
X11656Y-20163D01*
X11650Y-20157D01*
X11639Y-20151D01*
X11605Y-20151D01*
X11594Y-20157D01*
X11588Y-20163D01*
X11583Y-20174D01*
X11583Y-20196D01*
X11588Y-20208D01*
X11661Y-20314D02*
X11543Y-20314D01*
X11656Y-20314D02*
X11661Y-20303D01*
X11661Y-20281D01*
X11656Y-20269D01*
X11650Y-20264D01*
X11639Y-20258D01*
X11605Y-20258D01*
X11594Y-20264D01*
X11588Y-20269D01*
X11583Y-20281D01*
X11583Y-20303D01*
X11588Y-20314D01*
X11661Y-20371D02*
X11583Y-20371D01*
X11605Y-20371D02*
X11594Y-20376D01*
X11588Y-20382D01*
X11583Y-20393D01*
X11583Y-20404D01*
X11543Y-20466D02*
X11543Y-20478D01*
X11549Y-20489D01*
X11555Y-20494D01*
X11566Y-20500D01*
X11588Y-20506D01*
X11616Y-20506D01*
X11639Y-20500D01*
X11650Y-20494D01*
X11656Y-20489D01*
X11661Y-20478D01*
X11661Y-20466D01*
X11656Y-20455D01*
X11650Y-20449D01*
X11639Y-20444D01*
X11616Y-20438D01*
X11588Y-20438D01*
X11566Y-20444D01*
X11555Y-20449D01*
X11549Y-20455D01*
X11543Y-20466D01*
X9654Y-20140D02*
X9592Y-20140D01*
X9580Y-20134D01*
X9575Y-20123D01*
X9575Y-20101D01*
X9580Y-20089D01*
X9648Y-20140D02*
X9654Y-20129D01*
X9654Y-20101D01*
X9648Y-20089D01*
X9637Y-20084D01*
X9625Y-20084D01*
X9614Y-20089D01*
X9609Y-20101D01*
X9609Y-20129D01*
X9603Y-20140D01*
X9654Y-20247D02*
X9535Y-20247D01*
X9648Y-20247D02*
X9654Y-20236D01*
X9654Y-20213D01*
X9648Y-20202D01*
X9642Y-20196D01*
X9631Y-20191D01*
X9597Y-20191D01*
X9586Y-20196D01*
X9580Y-20202D01*
X9575Y-20213D01*
X9575Y-20236D01*
X9580Y-20247D01*
X9648Y-20354D02*
X9654Y-20343D01*
X9654Y-20320D01*
X9648Y-20309D01*
X9642Y-20303D01*
X9631Y-20298D01*
X9597Y-20298D01*
X9586Y-20303D01*
X9580Y-20309D01*
X9575Y-20320D01*
X9575Y-20343D01*
X9580Y-20354D01*
X9535Y-20393D02*
X9535Y-20472D01*
X9654Y-20421D01*
X8630Y-20101D02*
X8568Y-20101D01*
X8557Y-20095D01*
X8551Y-20084D01*
X8551Y-20061D01*
X8557Y-20050D01*
X8624Y-20101D02*
X8630Y-20089D01*
X8630Y-20061D01*
X8624Y-20050D01*
X8613Y-20044D01*
X8602Y-20044D01*
X8591Y-20050D01*
X8585Y-20061D01*
X8585Y-20089D01*
X8579Y-20101D01*
X8630Y-20208D02*
X8512Y-20208D01*
X8624Y-20208D02*
X8630Y-20196D01*
X8630Y-20174D01*
X8624Y-20163D01*
X8619Y-20157D01*
X8607Y-20151D01*
X8574Y-20151D01*
X8562Y-20157D01*
X8557Y-20163D01*
X8551Y-20174D01*
X8551Y-20196D01*
X8557Y-20208D01*
X8624Y-20314D02*
X8630Y-20303D01*
X8630Y-20281D01*
X8624Y-20269D01*
X8619Y-20264D01*
X8607Y-20258D01*
X8574Y-20258D01*
X8562Y-20264D01*
X8557Y-20269D01*
X8551Y-20281D01*
X8551Y-20303D01*
X8557Y-20314D01*
X8512Y-20416D02*
X8512Y-20393D01*
X8517Y-20382D01*
X8523Y-20376D01*
X8540Y-20365D01*
X8562Y-20359D01*
X8607Y-20359D01*
X8619Y-20365D01*
X8624Y-20371D01*
X8630Y-20382D01*
X8630Y-20404D01*
X8624Y-20416D01*
X8619Y-20421D01*
X8607Y-20427D01*
X8579Y-20427D01*
X8568Y-20421D01*
X8562Y-20416D01*
X8557Y-20404D01*
X8557Y-20382D01*
X8562Y-20371D01*
X8568Y-20365D01*
X8579Y-20359D01*
X7646Y-20101D02*
X7584Y-20101D01*
X7573Y-20095D01*
X7567Y-20084D01*
X7567Y-20061D01*
X7573Y-20050D01*
X7640Y-20101D02*
X7646Y-20089D01*
X7646Y-20061D01*
X7640Y-20050D01*
X7629Y-20044D01*
X7618Y-20044D01*
X7606Y-20050D01*
X7601Y-20061D01*
X7601Y-20089D01*
X7595Y-20101D01*
X7646Y-20208D02*
X7528Y-20208D01*
X7640Y-20208D02*
X7646Y-20196D01*
X7646Y-20174D01*
X7640Y-20163D01*
X7634Y-20157D01*
X7623Y-20151D01*
X7589Y-20151D01*
X7578Y-20157D01*
X7573Y-20163D01*
X7567Y-20174D01*
X7567Y-20196D01*
X7573Y-20208D01*
X7640Y-20314D02*
X7646Y-20303D01*
X7646Y-20281D01*
X7640Y-20269D01*
X7634Y-20264D01*
X7623Y-20258D01*
X7589Y-20258D01*
X7578Y-20264D01*
X7573Y-20269D01*
X7567Y-20281D01*
X7567Y-20303D01*
X7573Y-20314D01*
X7528Y-20421D02*
X7528Y-20365D01*
X7584Y-20359D01*
X7578Y-20365D01*
X7573Y-20376D01*
X7573Y-20404D01*
X7578Y-20416D01*
X7584Y-20421D01*
X7595Y-20427D01*
X7623Y-20427D01*
X7634Y-20421D01*
X7640Y-20416D01*
X7646Y-20404D01*
X7646Y-20376D01*
X7640Y-20365D01*
X7634Y-20359D01*
X6661Y-20101D02*
X6600Y-20101D01*
X6588Y-20095D01*
X6583Y-20084D01*
X6583Y-20061D01*
X6588Y-20050D01*
X6656Y-20101D02*
X6661Y-20089D01*
X6661Y-20061D01*
X6656Y-20050D01*
X6645Y-20044D01*
X6633Y-20044D01*
X6622Y-20050D01*
X6616Y-20061D01*
X6616Y-20089D01*
X6611Y-20101D01*
X6661Y-20208D02*
X6543Y-20208D01*
X6656Y-20208D02*
X6661Y-20196D01*
X6661Y-20174D01*
X6656Y-20163D01*
X6650Y-20157D01*
X6639Y-20151D01*
X6605Y-20151D01*
X6594Y-20157D01*
X6588Y-20163D01*
X6583Y-20174D01*
X6583Y-20196D01*
X6588Y-20208D01*
X6656Y-20314D02*
X6661Y-20303D01*
X6661Y-20281D01*
X6656Y-20269D01*
X6650Y-20264D01*
X6639Y-20258D01*
X6605Y-20258D01*
X6594Y-20264D01*
X6588Y-20269D01*
X6583Y-20281D01*
X6583Y-20303D01*
X6588Y-20314D01*
X6583Y-20416D02*
X6661Y-20416D01*
X6538Y-20388D02*
X6622Y-20359D01*
X6622Y-20433D01*
X5638Y-20101D02*
X5576Y-20101D01*
X5565Y-20095D01*
X5559Y-20084D01*
X5559Y-20061D01*
X5565Y-20050D01*
X5632Y-20101D02*
X5638Y-20089D01*
X5638Y-20061D01*
X5632Y-20050D01*
X5621Y-20044D01*
X5610Y-20044D01*
X5598Y-20050D01*
X5593Y-20061D01*
X5593Y-20089D01*
X5587Y-20101D01*
X5638Y-20208D02*
X5520Y-20208D01*
X5632Y-20208D02*
X5638Y-20196D01*
X5638Y-20174D01*
X5632Y-20163D01*
X5627Y-20157D01*
X5615Y-20151D01*
X5582Y-20151D01*
X5570Y-20157D01*
X5565Y-20163D01*
X5559Y-20174D01*
X5559Y-20196D01*
X5565Y-20208D01*
X5632Y-20314D02*
X5638Y-20303D01*
X5638Y-20281D01*
X5632Y-20269D01*
X5627Y-20264D01*
X5615Y-20258D01*
X5582Y-20258D01*
X5570Y-20264D01*
X5565Y-20269D01*
X5559Y-20281D01*
X5559Y-20303D01*
X5565Y-20314D01*
X5520Y-20354D02*
X5520Y-20427D01*
X5565Y-20388D01*
X5565Y-20404D01*
X5570Y-20416D01*
X5576Y-20421D01*
X5587Y-20427D01*
X5615Y-20427D01*
X5627Y-20421D01*
X5632Y-20416D01*
X5638Y-20404D01*
X5638Y-20371D01*
X5632Y-20359D01*
X5627Y-20354D01*
X4654Y-20101D02*
X4592Y-20101D01*
X4580Y-20095D01*
X4575Y-20084D01*
X4575Y-20061D01*
X4580Y-20050D01*
X4648Y-20101D02*
X4654Y-20089D01*
X4654Y-20061D01*
X4648Y-20050D01*
X4637Y-20044D01*
X4625Y-20044D01*
X4614Y-20050D01*
X4609Y-20061D01*
X4609Y-20089D01*
X4603Y-20101D01*
X4654Y-20208D02*
X4535Y-20208D01*
X4648Y-20208D02*
X4654Y-20196D01*
X4654Y-20174D01*
X4648Y-20163D01*
X4642Y-20157D01*
X4631Y-20151D01*
X4597Y-20151D01*
X4586Y-20157D01*
X4580Y-20163D01*
X4575Y-20174D01*
X4575Y-20196D01*
X4580Y-20208D01*
X4648Y-20314D02*
X4654Y-20303D01*
X4654Y-20281D01*
X4648Y-20269D01*
X4642Y-20264D01*
X4631Y-20258D01*
X4597Y-20258D01*
X4586Y-20264D01*
X4580Y-20269D01*
X4575Y-20281D01*
X4575Y-20303D01*
X4580Y-20314D01*
X4547Y-20359D02*
X4541Y-20365D01*
X4535Y-20376D01*
X4535Y-20404D01*
X4541Y-20416D01*
X4547Y-20421D01*
X4558Y-20427D01*
X4569Y-20427D01*
X4586Y-20421D01*
X4654Y-20354D01*
X4654Y-20427D01*
X3630Y-20101D02*
X3568Y-20101D01*
X3557Y-20095D01*
X3551Y-20084D01*
X3551Y-20061D01*
X3557Y-20050D01*
X3624Y-20101D02*
X3630Y-20089D01*
X3630Y-20061D01*
X3624Y-20050D01*
X3613Y-20044D01*
X3602Y-20044D01*
X3591Y-20050D01*
X3585Y-20061D01*
X3585Y-20089D01*
X3579Y-20101D01*
X3630Y-20208D02*
X3512Y-20208D01*
X3624Y-20208D02*
X3630Y-20196D01*
X3630Y-20174D01*
X3624Y-20163D01*
X3619Y-20157D01*
X3607Y-20151D01*
X3574Y-20151D01*
X3562Y-20157D01*
X3557Y-20163D01*
X3551Y-20174D01*
X3551Y-20196D01*
X3557Y-20208D01*
X3624Y-20314D02*
X3630Y-20303D01*
X3630Y-20281D01*
X3624Y-20269D01*
X3619Y-20264D01*
X3607Y-20258D01*
X3574Y-20258D01*
X3562Y-20264D01*
X3557Y-20269D01*
X3551Y-20281D01*
X3551Y-20303D01*
X3557Y-20314D01*
X3630Y-20427D02*
X3630Y-20359D01*
X3630Y-20393D02*
X3512Y-20393D01*
X3529Y-20382D01*
X3540Y-20371D01*
X3546Y-20359D01*
X10598Y-20194D02*
X10694Y-20194D01*
X10705Y-20188D01*
X10711Y-20182D01*
X10717Y-20171D01*
X10717Y-20154D01*
X10711Y-20143D01*
X10672Y-20194D02*
X10677Y-20182D01*
X10677Y-20160D01*
X10672Y-20149D01*
X10666Y-20143D01*
X10655Y-20137D01*
X10621Y-20137D01*
X10610Y-20143D01*
X10604Y-20149D01*
X10598Y-20160D01*
X10598Y-20182D01*
X10604Y-20194D01*
X10598Y-20250D02*
X10677Y-20250D01*
X10610Y-20250D02*
X10604Y-20255D01*
X10598Y-20267D01*
X10598Y-20284D01*
X10604Y-20295D01*
X10615Y-20300D01*
X10677Y-20300D01*
X10677Y-20407D02*
X10559Y-20407D01*
X10672Y-20407D02*
X10677Y-20396D01*
X10677Y-20374D01*
X10672Y-20362D01*
X10666Y-20357D01*
X10655Y-20351D01*
X10621Y-20351D01*
X10610Y-20357D01*
X10604Y-20362D01*
X10598Y-20374D01*
X10598Y-20396D01*
X10604Y-20407D01*
X15598Y-20194D02*
X15694Y-20194D01*
X15705Y-20188D01*
X15711Y-20182D01*
X15717Y-20171D01*
X15717Y-20154D01*
X15711Y-20143D01*
X15672Y-20194D02*
X15677Y-20182D01*
X15677Y-20160D01*
X15672Y-20149D01*
X15666Y-20143D01*
X15655Y-20137D01*
X15621Y-20137D01*
X15610Y-20143D01*
X15604Y-20149D01*
X15598Y-20160D01*
X15598Y-20182D01*
X15604Y-20194D01*
X15598Y-20250D02*
X15677Y-20250D01*
X15610Y-20250D02*
X15604Y-20255D01*
X15598Y-20267D01*
X15598Y-20284D01*
X15604Y-20295D01*
X15615Y-20300D01*
X15677Y-20300D01*
X15677Y-20407D02*
X15559Y-20407D01*
X15672Y-20407D02*
X15677Y-20396D01*
X15677Y-20374D01*
X15672Y-20362D01*
X15666Y-20357D01*
X15655Y-20351D01*
X15621Y-20351D01*
X15610Y-20357D01*
X15604Y-20362D01*
X15598Y-20374D01*
X15598Y-20396D01*
X15604Y-20407D01*
X24614Y-20194D02*
X24710Y-20194D01*
X24721Y-20188D01*
X24727Y-20182D01*
X24732Y-20171D01*
X24732Y-20154D01*
X24727Y-20143D01*
X24687Y-20194D02*
X24693Y-20182D01*
X24693Y-20160D01*
X24687Y-20149D01*
X24682Y-20143D01*
X24670Y-20137D01*
X24637Y-20137D01*
X24625Y-20143D01*
X24620Y-20149D01*
X24614Y-20160D01*
X24614Y-20182D01*
X24620Y-20194D01*
X24614Y-20250D02*
X24693Y-20250D01*
X24625Y-20250D02*
X24620Y-20255D01*
X24614Y-20267D01*
X24614Y-20284D01*
X24620Y-20295D01*
X24631Y-20300D01*
X24693Y-20300D01*
X24693Y-20407D02*
X24575Y-20407D01*
X24687Y-20407D02*
X24693Y-20396D01*
X24693Y-20374D01*
X24687Y-20362D01*
X24682Y-20357D01*
X24670Y-20351D01*
X24637Y-20351D01*
X24625Y-20357D01*
X24620Y-20362D01*
X24614Y-20374D01*
X24614Y-20396D01*
X24620Y-20407D01*
X2882Y-1926D02*
X2978Y-1926D01*
X2989Y-1920D01*
X2994Y-1915D01*
X3000Y-1903D01*
X3000Y-1886D01*
X2994Y-1875D01*
X2955Y-1926D02*
X2961Y-1915D01*
X2961Y-1892D01*
X2955Y-1881D01*
X2949Y-1875D01*
X2938Y-1870D01*
X2904Y-1870D01*
X2893Y-1875D01*
X2888Y-1881D01*
X2882Y-1892D01*
X2882Y-1915D01*
X2888Y-1926D01*
X2882Y-1982D02*
X2961Y-1982D01*
X2893Y-1982D02*
X2888Y-1988D01*
X2882Y-1999D01*
X2882Y-2016D01*
X2888Y-2027D01*
X2899Y-2033D01*
X2961Y-2033D01*
X2961Y-2140D02*
X2843Y-2140D01*
X2955Y-2140D02*
X2961Y-2128D01*
X2961Y-2106D01*
X2955Y-2095D01*
X2949Y-2089D01*
X2938Y-2083D01*
X2904Y-2083D01*
X2893Y-2089D01*
X2888Y-2095D01*
X2882Y-2106D01*
X2882Y-2128D01*
X2888Y-2140D01*
X5874Y-2005D02*
X5970Y-2005D01*
X5981Y-1999D01*
X5987Y-1993D01*
X5992Y-1982D01*
X5992Y-1965D01*
X5987Y-1954D01*
X5947Y-2005D02*
X5953Y-1993D01*
X5953Y-1971D01*
X5947Y-1960D01*
X5942Y-1954D01*
X5930Y-1948D01*
X5897Y-1948D01*
X5885Y-1954D01*
X5880Y-1960D01*
X5874Y-1971D01*
X5874Y-1993D01*
X5880Y-2005D01*
X5874Y-2061D02*
X5953Y-2061D01*
X5885Y-2061D02*
X5880Y-2066D01*
X5874Y-2078D01*
X5874Y-2095D01*
X5880Y-2106D01*
X5891Y-2111D01*
X5953Y-2111D01*
X5953Y-2218D02*
X5835Y-2218D01*
X5947Y-2218D02*
X5953Y-2207D01*
X5953Y-2185D01*
X5947Y-2173D01*
X5942Y-2168D01*
X5930Y-2162D01*
X5897Y-2162D01*
X5885Y-2168D01*
X5880Y-2173D01*
X5874Y-2185D01*
X5874Y-2207D01*
X5880Y-2218D01*
X8866Y-2005D02*
X8962Y-2005D01*
X8973Y-1999D01*
X8979Y-1993D01*
X8984Y-1982D01*
X8984Y-1965D01*
X8979Y-1954D01*
X8939Y-2005D02*
X8945Y-1993D01*
X8945Y-1971D01*
X8939Y-1960D01*
X8934Y-1954D01*
X8922Y-1948D01*
X8889Y-1948D01*
X8877Y-1954D01*
X8872Y-1960D01*
X8866Y-1971D01*
X8866Y-1993D01*
X8872Y-2005D01*
X8866Y-2061D02*
X8945Y-2061D01*
X8877Y-2061D02*
X8872Y-2066D01*
X8866Y-2078D01*
X8866Y-2095D01*
X8872Y-2106D01*
X8883Y-2111D01*
X8945Y-2111D01*
X8945Y-2218D02*
X8827Y-2218D01*
X8939Y-2218D02*
X8945Y-2207D01*
X8945Y-2185D01*
X8939Y-2173D01*
X8934Y-2168D01*
X8922Y-2162D01*
X8889Y-2162D01*
X8877Y-2168D01*
X8872Y-2173D01*
X8866Y-2185D01*
X8866Y-2207D01*
X8872Y-2218D01*
X11858Y-2005D02*
X11954Y-2005D01*
X11965Y-1999D01*
X11971Y-1993D01*
X11976Y-1982D01*
X11976Y-1965D01*
X11971Y-1954D01*
X11931Y-2005D02*
X11937Y-1993D01*
X11937Y-1971D01*
X11931Y-1960D01*
X11926Y-1954D01*
X11915Y-1948D01*
X11881Y-1948D01*
X11870Y-1954D01*
X11864Y-1960D01*
X11858Y-1971D01*
X11858Y-1993D01*
X11864Y-2005D01*
X11858Y-2061D02*
X11937Y-2061D01*
X11870Y-2061D02*
X11864Y-2066D01*
X11858Y-2078D01*
X11858Y-2095D01*
X11864Y-2106D01*
X11875Y-2111D01*
X11937Y-2111D01*
X11937Y-2218D02*
X11819Y-2218D01*
X11931Y-2218D02*
X11937Y-2207D01*
X11937Y-2185D01*
X11931Y-2173D01*
X11926Y-2168D01*
X11915Y-2162D01*
X11881Y-2162D01*
X11870Y-2168D01*
X11864Y-2173D01*
X11858Y-2185D01*
X11858Y-2207D01*
X11864Y-2218D01*
X14850Y-1965D02*
X14946Y-1965D01*
X14957Y-1960D01*
X14963Y-1954D01*
X14969Y-1943D01*
X14969Y-1926D01*
X14963Y-1915D01*
X14924Y-1965D02*
X14929Y-1954D01*
X14929Y-1931D01*
X14924Y-1920D01*
X14918Y-1915D01*
X14907Y-1909D01*
X14873Y-1909D01*
X14862Y-1915D01*
X14856Y-1920D01*
X14850Y-1931D01*
X14850Y-1954D01*
X14856Y-1965D01*
X14850Y-2021D02*
X14929Y-2021D01*
X14862Y-2021D02*
X14856Y-2027D01*
X14850Y-2038D01*
X14850Y-2055D01*
X14856Y-2066D01*
X14867Y-2072D01*
X14929Y-2072D01*
X14929Y-2179D02*
X14811Y-2179D01*
X14924Y-2179D02*
X14929Y-2168D01*
X14929Y-2145D01*
X14924Y-2134D01*
X14918Y-2128D01*
X14907Y-2123D01*
X14873Y-2123D01*
X14862Y-2128D01*
X14856Y-2134D01*
X14850Y-2145D01*
X14850Y-2168D01*
X14856Y-2179D01*
X17882Y-1886D02*
X17978Y-1886D01*
X17989Y-1881D01*
X17994Y-1875D01*
X18000Y-1864D01*
X18000Y-1847D01*
X17994Y-1836D01*
X17955Y-1886D02*
X17961Y-1875D01*
X17961Y-1853D01*
X17955Y-1841D01*
X17949Y-1836D01*
X17938Y-1830D01*
X17904Y-1830D01*
X17893Y-1836D01*
X17888Y-1841D01*
X17882Y-1853D01*
X17882Y-1875D01*
X17888Y-1886D01*
X17882Y-1943D02*
X17961Y-1943D01*
X17893Y-1943D02*
X17888Y-1948D01*
X17882Y-1960D01*
X17882Y-1976D01*
X17888Y-1988D01*
X17899Y-1993D01*
X17961Y-1993D01*
X17961Y-2100D02*
X17843Y-2100D01*
X17955Y-2100D02*
X17961Y-2089D01*
X17961Y-2066D01*
X17955Y-2055D01*
X17949Y-2050D01*
X17938Y-2044D01*
X17904Y-2044D01*
X17893Y-2050D01*
X17888Y-2055D01*
X17882Y-2066D01*
X17882Y-2089D01*
X17888Y-2100D01*
X20835Y-1926D02*
X20930Y-1926D01*
X20942Y-1920D01*
X20947Y-1915D01*
X20953Y-1903D01*
X20953Y-1886D01*
X20947Y-1875D01*
X20908Y-1926D02*
X20913Y-1915D01*
X20913Y-1892D01*
X20908Y-1881D01*
X20902Y-1875D01*
X20891Y-1870D01*
X20857Y-1870D01*
X20846Y-1875D01*
X20840Y-1881D01*
X20835Y-1892D01*
X20835Y-1915D01*
X20840Y-1926D01*
X20835Y-1982D02*
X20913Y-1982D01*
X20846Y-1982D02*
X20840Y-1988D01*
X20835Y-1999D01*
X20835Y-2016D01*
X20840Y-2027D01*
X20852Y-2033D01*
X20913Y-2033D01*
X20913Y-2140D02*
X20795Y-2140D01*
X20908Y-2140D02*
X20913Y-2128D01*
X20913Y-2106D01*
X20908Y-2095D01*
X20902Y-2089D01*
X20891Y-2083D01*
X20857Y-2083D01*
X20846Y-2089D01*
X20840Y-2095D01*
X20835Y-2106D01*
X20835Y-2128D01*
X20840Y-2140D01*
X874Y-1903D02*
X992Y-1903D01*
X880Y-1903D02*
X874Y-1915D01*
X874Y-1937D01*
X880Y-1948D01*
X885Y-1954D01*
X897Y-1960D01*
X930Y-1960D01*
X942Y-1954D01*
X947Y-1948D01*
X953Y-1937D01*
X953Y-1915D01*
X947Y-1903D01*
X874Y-1999D02*
X953Y-2021D01*
X897Y-2044D01*
X953Y-2066D01*
X874Y-2089D01*
X953Y-2134D02*
X874Y-2134D01*
X885Y-2134D02*
X880Y-2140D01*
X874Y-2151D01*
X874Y-2168D01*
X880Y-2179D01*
X891Y-2185D01*
X953Y-2185D01*
X891Y-2185D02*
X880Y-2190D01*
X874Y-2201D01*
X874Y-2218D01*
X880Y-2230D01*
X891Y-2235D01*
X953Y-2235D01*
X885Y-2308D02*
X880Y-2297D01*
X874Y-2291D01*
X863Y-2286D01*
X857Y-2286D01*
X846Y-2291D01*
X840Y-2297D01*
X835Y-2308D01*
X835Y-2331D01*
X840Y-2342D01*
X846Y-2348D01*
X857Y-2353D01*
X863Y-2353D01*
X874Y-2348D01*
X880Y-2342D01*
X885Y-2331D01*
X885Y-2308D01*
X891Y-2297D01*
X897Y-2291D01*
X908Y-2286D01*
X930Y-2286D01*
X942Y-2291D01*
X947Y-2297D01*
X953Y-2308D01*
X953Y-2331D01*
X947Y-2342D01*
X942Y-2348D01*
X930Y-2353D01*
X908Y-2353D01*
X897Y-2348D01*
X891Y-2342D01*
X885Y-2331D01*
X3866Y-1943D02*
X3984Y-1943D01*
X3872Y-1943D02*
X3866Y-1954D01*
X3866Y-1976D01*
X3872Y-1988D01*
X3877Y-1993D01*
X3889Y-1999D01*
X3922Y-1999D01*
X3934Y-1993D01*
X3939Y-1988D01*
X3945Y-1976D01*
X3945Y-1954D01*
X3939Y-1943D01*
X3866Y-2038D02*
X3945Y-2061D01*
X3889Y-2083D01*
X3945Y-2106D01*
X3866Y-2128D01*
X3945Y-2173D02*
X3866Y-2173D01*
X3877Y-2173D02*
X3872Y-2179D01*
X3866Y-2190D01*
X3866Y-2207D01*
X3872Y-2218D01*
X3883Y-2224D01*
X3945Y-2224D01*
X3883Y-2224D02*
X3872Y-2230D01*
X3866Y-2241D01*
X3866Y-2258D01*
X3872Y-2269D01*
X3883Y-2275D01*
X3945Y-2275D01*
X3827Y-2320D02*
X3827Y-2398D01*
X3945Y-2348D01*
X6858Y-1943D02*
X6976Y-1943D01*
X6864Y-1943D02*
X6858Y-1954D01*
X6858Y-1976D01*
X6864Y-1988D01*
X6870Y-1993D01*
X6881Y-1999D01*
X6915Y-1999D01*
X6926Y-1993D01*
X6931Y-1988D01*
X6937Y-1976D01*
X6937Y-1954D01*
X6931Y-1943D01*
X6858Y-2038D02*
X6937Y-2061D01*
X6881Y-2083D01*
X6937Y-2106D01*
X6858Y-2128D01*
X6937Y-2173D02*
X6858Y-2173D01*
X6870Y-2173D02*
X6864Y-2179D01*
X6858Y-2190D01*
X6858Y-2207D01*
X6864Y-2218D01*
X6875Y-2224D01*
X6937Y-2224D01*
X6875Y-2224D02*
X6864Y-2230D01*
X6858Y-2241D01*
X6858Y-2258D01*
X6864Y-2269D01*
X6875Y-2275D01*
X6937Y-2275D01*
X6819Y-2381D02*
X6819Y-2359D01*
X6825Y-2348D01*
X6830Y-2342D01*
X6847Y-2331D01*
X6870Y-2325D01*
X6915Y-2325D01*
X6926Y-2331D01*
X6931Y-2336D01*
X6937Y-2348D01*
X6937Y-2370D01*
X6931Y-2381D01*
X6926Y-2387D01*
X6915Y-2393D01*
X6886Y-2393D01*
X6875Y-2387D01*
X6870Y-2381D01*
X6864Y-2370D01*
X6864Y-2348D01*
X6870Y-2336D01*
X6875Y-2331D01*
X6886Y-2325D01*
X9910Y-1844D02*
X10028Y-1844D01*
X9915Y-1844D02*
X9910Y-1856D01*
X9910Y-1878D01*
X9915Y-1889D01*
X9921Y-1895D01*
X9932Y-1901D01*
X9966Y-1901D01*
X9977Y-1895D01*
X9983Y-1889D01*
X9988Y-1878D01*
X9988Y-1856D01*
X9983Y-1844D01*
X9910Y-1940D02*
X9988Y-1962D01*
X9932Y-1985D01*
X9988Y-2007D01*
X9910Y-2030D01*
X9988Y-2075D02*
X9910Y-2075D01*
X9921Y-2075D02*
X9915Y-2080D01*
X9910Y-2092D01*
X9910Y-2109D01*
X9915Y-2120D01*
X9926Y-2125D01*
X9988Y-2125D01*
X9926Y-2125D02*
X9915Y-2131D01*
X9910Y-2142D01*
X9910Y-2159D01*
X9915Y-2170D01*
X9926Y-2176D01*
X9988Y-2176D01*
X9870Y-2289D02*
X9870Y-2232D01*
X9926Y-2227D01*
X9921Y-2232D01*
X9915Y-2244D01*
X9915Y-2272D01*
X9921Y-2283D01*
X9926Y-2289D01*
X9938Y-2294D01*
X9966Y-2294D01*
X9977Y-2289D01*
X9983Y-2283D01*
X9988Y-2272D01*
X9988Y-2244D01*
X9983Y-2232D01*
X9977Y-2227D01*
X12862Y-1844D02*
X12980Y-1844D01*
X12868Y-1844D02*
X12862Y-1856D01*
X12862Y-1878D01*
X12868Y-1889D01*
X12874Y-1895D01*
X12885Y-1901D01*
X12919Y-1901D01*
X12930Y-1895D01*
X12935Y-1889D01*
X12941Y-1878D01*
X12941Y-1856D01*
X12935Y-1844D01*
X12862Y-1940D02*
X12941Y-1962D01*
X12885Y-1985D01*
X12941Y-2007D01*
X12862Y-2030D01*
X12941Y-2075D02*
X12862Y-2075D01*
X12874Y-2075D02*
X12868Y-2080D01*
X12862Y-2092D01*
X12862Y-2109D01*
X12868Y-2120D01*
X12879Y-2125D01*
X12941Y-2125D01*
X12879Y-2125D02*
X12868Y-2131D01*
X12862Y-2142D01*
X12862Y-2159D01*
X12868Y-2170D01*
X12879Y-2176D01*
X12941Y-2176D01*
X12862Y-2283D02*
X12941Y-2283D01*
X12817Y-2255D02*
X12902Y-2227D01*
X12902Y-2300D01*
X15815Y-1844D02*
X15933Y-1844D01*
X15821Y-1844D02*
X15815Y-1856D01*
X15815Y-1878D01*
X15821Y-1889D01*
X15826Y-1895D01*
X15838Y-1901D01*
X15871Y-1901D01*
X15883Y-1895D01*
X15888Y-1889D01*
X15894Y-1878D01*
X15894Y-1856D01*
X15888Y-1844D01*
X15815Y-1940D02*
X15894Y-1962D01*
X15838Y-1985D01*
X15894Y-2007D01*
X15815Y-2030D01*
X15894Y-2075D02*
X15815Y-2075D01*
X15826Y-2075D02*
X15821Y-2080D01*
X15815Y-2092D01*
X15815Y-2109D01*
X15821Y-2120D01*
X15832Y-2125D01*
X15894Y-2125D01*
X15832Y-2125D02*
X15821Y-2131D01*
X15815Y-2142D01*
X15815Y-2159D01*
X15821Y-2170D01*
X15832Y-2176D01*
X15894Y-2176D01*
X15776Y-2221D02*
X15776Y-2294D01*
X15821Y-2255D01*
X15821Y-2272D01*
X15826Y-2283D01*
X15832Y-2289D01*
X15843Y-2294D01*
X15871Y-2294D01*
X15883Y-2289D01*
X15888Y-2283D01*
X15894Y-2272D01*
X15894Y-2238D01*
X15888Y-2227D01*
X15883Y-2221D01*
X18866Y-1844D02*
X18984Y-1844D01*
X18872Y-1844D02*
X18866Y-1856D01*
X18866Y-1878D01*
X18872Y-1889D01*
X18877Y-1895D01*
X18889Y-1901D01*
X18922Y-1901D01*
X18934Y-1895D01*
X18939Y-1889D01*
X18945Y-1878D01*
X18945Y-1856D01*
X18939Y-1844D01*
X18866Y-1940D02*
X18945Y-1962D01*
X18889Y-1985D01*
X18945Y-2007D01*
X18866Y-2030D01*
X18945Y-2075D02*
X18866Y-2075D01*
X18877Y-2075D02*
X18872Y-2080D01*
X18866Y-2092D01*
X18866Y-2109D01*
X18872Y-2120D01*
X18883Y-2125D01*
X18945Y-2125D01*
X18883Y-2125D02*
X18872Y-2131D01*
X18866Y-2142D01*
X18866Y-2159D01*
X18872Y-2170D01*
X18883Y-2176D01*
X18945Y-2176D01*
X18838Y-2227D02*
X18832Y-2232D01*
X18827Y-2244D01*
X18827Y-2272D01*
X18832Y-2283D01*
X18838Y-2289D01*
X18849Y-2294D01*
X18861Y-2294D01*
X18877Y-2289D01*
X18945Y-2221D01*
X18945Y-2294D01*
X21819Y-1844D02*
X21937Y-1844D01*
X21825Y-1844D02*
X21819Y-1856D01*
X21819Y-1878D01*
X21825Y-1889D01*
X21830Y-1895D01*
X21841Y-1901D01*
X21875Y-1901D01*
X21886Y-1895D01*
X21892Y-1889D01*
X21898Y-1878D01*
X21898Y-1856D01*
X21892Y-1844D01*
X21819Y-1940D02*
X21898Y-1962D01*
X21841Y-1985D01*
X21898Y-2007D01*
X21819Y-2030D01*
X21898Y-2075D02*
X21819Y-2075D01*
X21830Y-2075D02*
X21825Y-2080D01*
X21819Y-2092D01*
X21819Y-2109D01*
X21825Y-2120D01*
X21836Y-2125D01*
X21898Y-2125D01*
X21836Y-2125D02*
X21825Y-2131D01*
X21819Y-2142D01*
X21819Y-2159D01*
X21825Y-2170D01*
X21836Y-2176D01*
X21898Y-2176D01*
X21898Y-2294D02*
X21898Y-2227D01*
X21898Y-2260D02*
X21780Y-2260D01*
X21796Y-2249D01*
X21808Y-2238D01*
X21813Y-2227D01*
X23886Y-1886D02*
X23982Y-1886D01*
X23993Y-1881D01*
X23998Y-1875D01*
X24004Y-1864D01*
X24004Y-1847D01*
X23998Y-1836D01*
X23959Y-1886D02*
X23965Y-1875D01*
X23965Y-1853D01*
X23959Y-1841D01*
X23953Y-1836D01*
X23942Y-1830D01*
X23908Y-1830D01*
X23897Y-1836D01*
X23892Y-1841D01*
X23886Y-1853D01*
X23886Y-1875D01*
X23892Y-1886D01*
X23886Y-1943D02*
X23965Y-1943D01*
X23897Y-1943D02*
X23892Y-1948D01*
X23886Y-1960D01*
X23886Y-1976D01*
X23892Y-1988D01*
X23903Y-1993D01*
X23965Y-1993D01*
X23965Y-2100D02*
X23847Y-2100D01*
X23959Y-2100D02*
X23965Y-2089D01*
X23965Y-2066D01*
X23959Y-2055D01*
X23953Y-2050D01*
X23942Y-2044D01*
X23908Y-2044D01*
X23897Y-2050D01*
X23892Y-2055D01*
X23886Y-2066D01*
X23886Y-2089D01*
X23892Y-2100D01*
G54D12*
X30361Y-1706D02*
X30399Y-1687D01*
X30418Y-1668D01*
X30436Y-1631D01*
X30436Y-1612D01*
X30418Y-1574D01*
X30399Y-1556D01*
X30361Y-1537D01*
X30286Y-1537D01*
X30249Y-1556D01*
X30230Y-1574D01*
X30211Y-1612D01*
X30211Y-1631D01*
X30230Y-1668D01*
X30249Y-1687D01*
X30286Y-1706D01*
X30361Y-1706D01*
X30399Y-1724D01*
X30418Y-1743D01*
X30436Y-1781D01*
X30436Y-1856D01*
X30418Y-1893D01*
X30399Y-1912D01*
X30361Y-1931D01*
X30286Y-1931D01*
X30249Y-1912D01*
X30230Y-1893D01*
X30211Y-1856D01*
X30211Y-1781D01*
X30230Y-1743D01*
X30249Y-1724D01*
X30286Y-1706D01*
X29743Y-1668D02*
X29743Y-2062D01*
X29743Y-1687D02*
X29705Y-1668D01*
X29630Y-1668D01*
X29593Y-1687D01*
X29574Y-1706D01*
X29555Y-1743D01*
X29555Y-1856D01*
X29574Y-1893D01*
X29593Y-1912D01*
X29630Y-1931D01*
X29705Y-1931D01*
X29743Y-1912D01*
X29330Y-1931D02*
X29368Y-1912D01*
X29386Y-1893D01*
X29405Y-1856D01*
X29405Y-1743D01*
X29386Y-1706D01*
X29368Y-1687D01*
X29330Y-1668D01*
X29274Y-1668D01*
X29236Y-1687D01*
X29218Y-1706D01*
X29199Y-1743D01*
X29199Y-1856D01*
X29218Y-1893D01*
X29236Y-1912D01*
X29274Y-1931D01*
X29330Y-1931D01*
X29068Y-1668D02*
X28993Y-1931D01*
X28918Y-1743D01*
X28843Y-1931D01*
X28768Y-1668D01*
X28468Y-1912D02*
X28505Y-1931D01*
X28580Y-1931D01*
X28618Y-1912D01*
X28637Y-1874D01*
X28637Y-1724D01*
X28618Y-1687D01*
X28580Y-1668D01*
X28505Y-1668D01*
X28468Y-1687D01*
X28449Y-1724D01*
X28449Y-1762D01*
X28637Y-1799D01*
X28280Y-1931D02*
X28280Y-1668D01*
X28280Y-1743D02*
X28262Y-1706D01*
X28243Y-1687D01*
X28205Y-1668D01*
X28168Y-1668D01*
X27680Y-1931D02*
X27718Y-1912D01*
X27737Y-1893D01*
X27755Y-1856D01*
X27755Y-1743D01*
X27737Y-1706D01*
X27718Y-1687D01*
X27680Y-1668D01*
X27624Y-1668D01*
X27587Y-1687D01*
X27568Y-1706D01*
X27549Y-1743D01*
X27549Y-1856D01*
X27568Y-1893D01*
X27587Y-1912D01*
X27624Y-1931D01*
X27680Y-1931D01*
X27212Y-1668D02*
X27212Y-1931D01*
X27380Y-1668D02*
X27380Y-1874D01*
X27362Y-1912D01*
X27324Y-1931D01*
X27268Y-1931D01*
X27230Y-1912D01*
X27212Y-1893D01*
X27080Y-1668D02*
X26931Y-1668D01*
X27024Y-1537D02*
X27024Y-1874D01*
X27005Y-1912D01*
X26968Y-1931D01*
X26931Y-1931D01*
X26818Y-1912D02*
X26781Y-1931D01*
X26706Y-1931D01*
X26668Y-1912D01*
X26649Y-1874D01*
X26649Y-1856D01*
X26668Y-1818D01*
X26706Y-1799D01*
X26762Y-1799D01*
X26799Y-1781D01*
X26818Y-1743D01*
X26818Y-1724D01*
X26799Y-1687D01*
X26762Y-1668D01*
X26706Y-1668D01*
X26668Y-1687D01*
G54D13*
X11603Y-21337D03*
G54D14*
X12603Y-21337D03*
X13603Y-21337D03*
X14603Y-21337D03*
G54D13*
X28903Y-712D03*
G54D14*
X29903Y-712D03*
X30903Y-712D03*
X31903Y-712D03*
G54D13*
X24903Y-712D03*
G54D14*
X25903Y-712D03*
X26903Y-712D03*
X27903Y-712D03*
G54D13*
X12903Y-712D03*
G54D14*
X13903Y-712D03*
X14903Y-712D03*
G54D13*
X6903Y-712D03*
G54D14*
X7903Y-712D03*
X8903Y-712D03*
G54D13*
X21903Y-712D03*
G54D14*
X22903Y-712D03*
X23903Y-712D03*
G54D13*
X18903Y-712D03*
G54D14*
X19903Y-712D03*
X20903Y-712D03*
G54D13*
X15903Y-712D03*
G54D14*
X16903Y-712D03*
X17903Y-712D03*
G54D13*
X9903Y-712D03*
G54D14*
X10903Y-712D03*
X11903Y-712D03*
G54D13*
X12852Y-10824D03*
X13344Y-11808D03*
X12360Y-11808D03*
X1803Y-17687D03*
G54D14*
X1803Y-16687D03*
X1803Y-15687D03*
X1803Y-14687D03*
X1803Y-13687D03*
X1803Y-12687D03*
X1803Y-11687D03*
X1803Y-10687D03*
X1803Y-9687D03*
X1803Y-8687D03*
X1803Y-7687D03*
G54D15*
X29403Y-20987D03*
X28403Y-20987D03*
X27203Y-20987D03*
X26203Y-20987D03*
G54D16*
X27303Y-12587D03*
X1773Y-20077D03*
X1803Y-4487D03*
G54D13*
X3903Y-712D03*
G54D14*
X4903Y-712D03*
X5903Y-712D03*
G54D13*
X903Y-712D03*
G54D14*
X1903Y-712D03*
X2903Y-712D03*
G54D13*
X15603Y-21337D03*
G54D14*
X16603Y-21337D03*
X17603Y-21337D03*
X18603Y-21337D03*
X19603Y-21337D03*
X20603Y-21337D03*
X21603Y-21337D03*
X22603Y-21337D03*
X23603Y-21337D03*
X24603Y-21337D03*
G54D13*
X787Y-17688D03*
G54D14*
X787Y-16688D03*
X787Y-15688D03*
X787Y-14688D03*
X787Y-13688D03*
X787Y-12688D03*
X787Y-11688D03*
X787Y-10688D03*
X787Y-9688D03*
X787Y-8688D03*
X787Y-7688D03*
G54D13*
X3603Y-21087D03*
G54D14*
X4603Y-21087D03*
X5603Y-21087D03*
X6603Y-21087D03*
X7603Y-21087D03*
X8603Y-21087D03*
X9603Y-21087D03*
X10603Y-21087D03*
G54D17*
X4803Y-16187D03*
X4803Y-14187D03*
G54D18*
X31555Y-12401D03*
X26988Y-14586D03*
X15964Y-5295D03*
X19251Y-16870D03*
X13208Y-17913D03*
X14035Y-18484D03*
X13110Y-18366D03*
X19448Y-14094D03*
X18818Y-13208D03*
X23641Y-8641D03*
X21299Y-13937D03*
X21732Y-4133D03*
X18937Y-12736D03*
X25492Y-8641D03*
X27244Y-4133D03*
X32145Y-8641D03*
X18759Y-12125D03*
X24724Y-8149D03*
X19586Y-10393D03*
X25610Y-4645D03*
X19566Y-9921D03*
X20196Y-8011D03*
X19448Y-9468D03*
X20492Y-8385D03*
X19566Y-8937D03*
X23858Y-14212D03*
X31003Y-9192D03*
X30551Y-9015D03*
X24271Y-13641D03*
X26712Y-9212D03*
X24251Y-13169D03*
X25216Y-10216D03*
X24173Y-12716D03*
X24980Y-4527D03*
X25413Y-3582D03*
X26122Y-3641D03*
X25531Y-5137D03*
X4862Y-12342D03*
X10078Y-11948D03*
X9862Y-11555D03*
X5452Y-12440D03*
X23779Y-14803D03*
X15433Y-8405D03*
X14507Y-3346D03*
X9645Y-18287D03*
X6909Y-14389D03*
X9192Y-18464D03*
X6417Y-14468D03*
X6929Y-16673D03*
X5846Y-14527D03*
X7480Y-14448D03*
X3582Y-17047D03*
X13208Y-16751D03*
X19744Y-16732D03*
X19251Y-18818D03*
X13208Y-17204D03*
X27283Y-6889D03*
X32125Y-6929D03*
X25472Y-6889D03*
X21732Y-6889D03*
X25433Y-5866D03*
X21732Y-5905D03*
X27283Y-5866D03*
X32125Y-5905D03*
X14251Y-14251D03*
X20767Y-9803D03*
X18602Y-8956D03*
X16240Y-3543D03*
X26870Y-16929D03*
X31732Y-16496D03*
X32125Y-6397D03*
X27283Y-6397D03*
X25413Y-6397D03*
X21751Y-6377D03*
X9114Y-10649D03*
X7362Y-11141D03*
X5905Y-16811D03*
X4370Y-15157D03*
X15610Y-9507D03*
X20039Y-12854D03*
X11614Y-17913D03*
X19763Y-18858D03*
X4251Y-18346D03*
X16692Y-19940D03*
X21889Y-15177D03*
X15157Y-13051D03*
X12500Y-19350D03*
X4448Y-12007D03*
X11968Y-12637D03*
X7637Y-12224D03*
G54D19*
X31003Y-12401D02*
X31555Y-12401D01*
X28996Y-14409D02*
X31003Y-12401D01*
X27165Y-14409D02*
X28996Y-14409D01*
X26988Y-14586D02*
X27165Y-14409D01*
G54D20*
X4151Y-9687D02*
X1803Y-9687D01*
X15964Y-5295D02*
X15511Y-5748D01*
X15511Y-5748D02*
X8090Y-5748D01*
X8090Y-5748D02*
X4151Y-9687D01*
G54D21*
X14793Y-18159D02*
X14498Y-18159D01*
X14251Y-17913D02*
X13208Y-17913D01*
X14498Y-18159D02*
X14251Y-17913D01*
X19251Y-18248D02*
X19251Y-16870D01*
X19055Y-18444D02*
X19251Y-18248D01*
X15078Y-18444D02*
X19055Y-18444D01*
X14793Y-18159D02*
X15078Y-18444D01*
X14035Y-18484D02*
X13228Y-18484D01*
X13228Y-18484D02*
X13110Y-18366D01*
G54D12*
X13110Y-18366D02*
X13228Y-18484D01*
G54D21*
X19448Y-13838D02*
X19448Y-14094D01*
X18818Y-13208D02*
X19448Y-13838D01*
G54D22*
X23641Y-8641D02*
X21771Y-8641D01*
X21003Y-4133D02*
X21732Y-4133D01*
X20019Y-5118D02*
X21003Y-4133D01*
X20019Y-6889D02*
X20019Y-5118D01*
X21771Y-8641D02*
X20019Y-6889D01*
X21141Y-13779D02*
X20885Y-13779D01*
X21299Y-13937D02*
X21141Y-13779D01*
G54D21*
X19468Y-13267D02*
X19980Y-13779D01*
X18937Y-12736D02*
X19468Y-13267D01*
X19980Y-13779D02*
X20885Y-13779D01*
X22381Y-12283D02*
X22578Y-12283D01*
X25393Y-8740D02*
X25492Y-8641D01*
X25393Y-9468D02*
X25393Y-8740D01*
X22578Y-12283D02*
X25393Y-9468D01*
X20885Y-13779D02*
X22381Y-12283D01*
G54D22*
X24911Y-7805D02*
X21309Y-7805D01*
X21309Y-7805D02*
X21102Y-7598D01*
X25334Y-8228D02*
X24911Y-7805D01*
X25826Y-5354D02*
X26240Y-5354D01*
X26240Y-5354D02*
X26653Y-4940D01*
X26653Y-4940D02*
X26653Y-4232D01*
X26653Y-4232D02*
X26751Y-4133D01*
X26751Y-4133D02*
X27244Y-4133D01*
X21102Y-7598D02*
X20295Y-6791D01*
X20295Y-6791D02*
X20295Y-5216D01*
X20295Y-5216D02*
X21082Y-4429D01*
X21082Y-4429D02*
X21496Y-4429D01*
X21496Y-4429D02*
X21555Y-4488D01*
X21555Y-4488D02*
X21909Y-4488D01*
X21909Y-4488D02*
X22421Y-3976D01*
X22421Y-3976D02*
X23307Y-3976D01*
X23307Y-3976D02*
X24566Y-5236D01*
X24566Y-5236D02*
X25118Y-5236D01*
X25118Y-5236D02*
X25374Y-5492D01*
X25374Y-5492D02*
X25688Y-5492D01*
X25688Y-5492D02*
X25826Y-5354D01*
G54D21*
X26082Y-8641D02*
X27165Y-8641D01*
X27165Y-8641D02*
X32145Y-8641D01*
X25669Y-8228D02*
X26082Y-8641D01*
X25334Y-8228D02*
X25669Y-8228D01*
X24980Y-8582D02*
X25334Y-8228D01*
X24980Y-9173D02*
X24980Y-8582D01*
X20866Y-13287D02*
X24980Y-9173D01*
X19921Y-13287D02*
X20866Y-13287D01*
X19606Y-12972D02*
X19921Y-13287D01*
X19606Y-12854D02*
X19606Y-12972D01*
X19102Y-12350D02*
X19606Y-12854D01*
X18984Y-12350D02*
X19102Y-12350D01*
X18759Y-12125D02*
X18984Y-12350D01*
G54D22*
X24685Y-8149D02*
X24724Y-8149D01*
X23641Y-9192D02*
X24685Y-8149D01*
X20787Y-9192D02*
X23641Y-9192D01*
X19586Y-10393D02*
X20787Y-9192D01*
X20777Y-8710D02*
X20846Y-8641D01*
X20944Y-3740D02*
X21515Y-3740D01*
X19763Y-4921D02*
X20944Y-3740D01*
X19763Y-7047D02*
X19763Y-4921D01*
X20846Y-8129D02*
X19763Y-7047D01*
X20846Y-8641D02*
X20846Y-8129D01*
X21515Y-3740D02*
X23405Y-3740D01*
X23405Y-3740D02*
X24645Y-4980D01*
X24645Y-4980D02*
X25196Y-4980D01*
X25196Y-4980D02*
X25531Y-4645D01*
X25531Y-4645D02*
X25610Y-4645D01*
X19566Y-9921D02*
X20777Y-8710D01*
X19980Y-8011D02*
X20196Y-8011D01*
X19232Y-8759D02*
X19980Y-8011D01*
X19232Y-9251D02*
X19232Y-8759D01*
X19448Y-9468D02*
X19232Y-9251D01*
X20118Y-8385D02*
X20492Y-8385D01*
X19566Y-8937D02*
X20118Y-8385D01*
X24990Y-13454D02*
X25177Y-13267D01*
X23858Y-14212D02*
X24232Y-14212D01*
X24232Y-14212D02*
X24990Y-13454D01*
X25177Y-13267D02*
X25177Y-11948D01*
X25177Y-11948D02*
X27460Y-9665D01*
X27460Y-9665D02*
X30531Y-9665D01*
X30531Y-9665D02*
X31003Y-9192D01*
X24744Y-13169D02*
X24881Y-13031D01*
X27263Y-9330D02*
X28248Y-9330D01*
X24881Y-11712D02*
X27263Y-9330D01*
X24881Y-13031D02*
X24881Y-11712D01*
X28248Y-9330D02*
X30236Y-9330D01*
X30236Y-9330D02*
X30551Y-9015D01*
X24271Y-13641D02*
X24744Y-13169D01*
X24251Y-13169D02*
X24606Y-12814D01*
X24606Y-11318D02*
X26043Y-9881D01*
X24606Y-12814D02*
X24606Y-11318D01*
X26614Y-9212D02*
X26712Y-9212D01*
X26043Y-9783D02*
X26614Y-9212D01*
X26043Y-9881D02*
X26043Y-9783D01*
X24173Y-12716D02*
X24192Y-12696D01*
X24192Y-11240D02*
X25216Y-10216D01*
X24192Y-12696D02*
X24192Y-11240D01*
G54D21*
X25413Y-4094D02*
X25413Y-3582D01*
X24980Y-4527D02*
X25413Y-4094D01*
X26122Y-4133D02*
X26122Y-3641D01*
X26122Y-5000D02*
X26122Y-4133D01*
X26043Y-5078D02*
X26122Y-5000D01*
X25590Y-5078D02*
X26043Y-5078D01*
X25531Y-5137D02*
X25590Y-5078D01*
G54D22*
X4862Y-12342D02*
X5393Y-12874D01*
X5393Y-12874D02*
X5649Y-12874D01*
X5649Y-12874D02*
X6633Y-11889D01*
X6633Y-11889D02*
X10019Y-11889D01*
X10019Y-11889D02*
X10078Y-11948D01*
G54D12*
X5649Y-12874D02*
X5393Y-12874D01*
X6633Y-11889D02*
X5649Y-12874D01*
X10078Y-11948D02*
X10019Y-11889D01*
G54D22*
X6338Y-11555D02*
X9862Y-11555D01*
X5452Y-12440D02*
X6338Y-11555D01*
X23779Y-14803D02*
X18759Y-14803D01*
X15433Y-8622D02*
X15433Y-8405D01*
X14783Y-9271D02*
X15433Y-8622D01*
X14783Y-10826D02*
X14783Y-9271D01*
X18759Y-14803D02*
X14783Y-10826D01*
G54D19*
X4903Y-712D02*
X4903Y-637D01*
X4903Y-637D02*
X4443Y-177D01*
X7903Y-712D02*
X7903Y-587D01*
X7903Y-587D02*
X7493Y-177D01*
X10903Y-712D02*
X10903Y-293D01*
X10903Y-293D02*
X10787Y-177D01*
X22903Y-712D02*
X22903Y-403D01*
X22677Y-177D02*
X22903Y-403D01*
X20157Y-177D02*
X22677Y-177D01*
X20157Y-177D02*
X19903Y-430D01*
X19903Y-712D02*
X19903Y-356D01*
X19724Y-177D02*
X19903Y-356D01*
X17322Y-177D02*
X19724Y-177D01*
X17322Y-177D02*
X16903Y-596D01*
X16903Y-712D02*
X16903Y-368D01*
X13903Y-544D02*
X13903Y-887D01*
X16712Y-177D02*
X16903Y-368D01*
X14271Y-177D02*
X16712Y-177D01*
X13903Y-544D02*
X14271Y-177D01*
X13903Y-712D02*
X13903Y-360D01*
X13903Y-1212D02*
X13903Y-712D01*
X10903Y-712D02*
X10903Y-493D01*
X10903Y-493D02*
X11220Y-177D01*
X11220Y-177D02*
X13720Y-177D01*
X13720Y-177D02*
X13903Y-360D01*
X4903Y-489D02*
X5216Y-177D01*
X4903Y-489D02*
X4903Y-712D01*
X5216Y-177D02*
X7493Y-177D01*
X2421Y-177D02*
X2139Y-177D01*
X2421Y-177D02*
X4443Y-177D01*
X2139Y-177D02*
X1903Y-412D01*
X1903Y-412D02*
X1903Y-712D01*
X13903Y-360D02*
X13903Y-887D01*
X10787Y-177D02*
X10903Y-293D01*
X8287Y-177D02*
X10787Y-177D01*
X7903Y-560D02*
X8287Y-177D01*
G54D20*
X14507Y-3346D02*
X13903Y-2742D01*
X13903Y-2742D02*
X13903Y-1212D01*
X13903Y-1212D02*
X13903Y-887D01*
G54D22*
X8779Y-17421D02*
X9645Y-18287D01*
X8779Y-16259D02*
X8779Y-17421D01*
X6909Y-14389D02*
X8779Y-16259D01*
X7559Y-16830D02*
X9192Y-18464D01*
X7559Y-15610D02*
X7559Y-16830D01*
X6417Y-14468D02*
X7559Y-15610D01*
X6929Y-16673D02*
X5846Y-15590D01*
X5846Y-15590D02*
X5846Y-14527D01*
X7480Y-14448D02*
X7480Y-14429D01*
X7047Y-13996D02*
X5846Y-13996D01*
X7480Y-14429D02*
X7047Y-13996D01*
X3582Y-17047D02*
X4665Y-17047D01*
X5413Y-14429D02*
X5846Y-13996D01*
X5413Y-16299D02*
X5413Y-14429D01*
X4665Y-17047D02*
X5413Y-16299D01*
G54D21*
X14212Y-16751D02*
X13208Y-16751D01*
X14370Y-16594D02*
X14212Y-16751D01*
X18484Y-16594D02*
X14370Y-16594D01*
X18582Y-16496D02*
X18484Y-16594D01*
X19507Y-16496D02*
X18582Y-16496D01*
X19744Y-16732D02*
X19507Y-16496D01*
X18740Y-18897D02*
X19173Y-18897D01*
X19173Y-18897D02*
X19251Y-18818D01*
X13011Y-18897D02*
X18740Y-18897D01*
X12716Y-18602D02*
X13011Y-18897D01*
X12716Y-18070D02*
X12716Y-18602D01*
X12834Y-17952D02*
X12716Y-18070D01*
X12834Y-17578D02*
X12834Y-17952D01*
X13208Y-17204D02*
X12834Y-17578D01*
G54D19*
X2903Y-712D02*
X2903Y-1230D01*
X5903Y-712D02*
X5903Y-887D01*
X8903Y-712D02*
X8903Y-887D01*
X11903Y-712D02*
X11903Y-1116D01*
X14903Y-712D02*
X14903Y-1062D01*
X17903Y-712D02*
X17903Y-887D01*
X23903Y-712D02*
X23903Y-1056D01*
X20903Y-1087D02*
X20903Y-712D01*
G54D20*
X26870Y-6889D02*
X26870Y-7106D01*
G54D21*
X31732Y-13759D02*
X32893Y-12598D01*
X32893Y-12598D02*
X32893Y-8562D01*
X32893Y-8562D02*
X31830Y-7500D01*
X31830Y-7500D02*
X27263Y-7500D01*
X27263Y-7500D02*
X26870Y-7106D01*
X31732Y-13759D02*
X31732Y-16496D01*
G54D20*
X25472Y-6889D02*
X26870Y-6889D01*
X26870Y-6889D02*
X27283Y-6889D01*
X27283Y-6889D02*
X27322Y-6929D01*
X27322Y-6929D02*
X32125Y-6929D01*
X21732Y-6889D02*
X25472Y-6889D01*
X26574Y-5866D02*
X25433Y-5866D01*
X25433Y-5866D02*
X25393Y-5905D01*
X25393Y-5905D02*
X21732Y-5905D01*
X27283Y-5866D02*
X26574Y-5866D01*
X32086Y-5866D02*
X27283Y-5866D01*
X32125Y-5905D02*
X32086Y-5866D01*
X11903Y-887D02*
X11903Y-1116D01*
X12480Y-1692D02*
X12480Y-2440D01*
X11903Y-1116D02*
X12480Y-1692D01*
X14903Y-887D02*
X14903Y-1062D01*
X14903Y-1062D02*
X14903Y-1400D01*
X15393Y-2913D02*
X15275Y-3031D01*
X15393Y-1889D02*
X15393Y-2913D01*
X14903Y-1400D02*
X15393Y-1889D01*
X8903Y-887D02*
X8856Y-887D01*
X5903Y-1297D02*
X5903Y-887D01*
X6102Y-1496D02*
X5903Y-1297D01*
X8248Y-1496D02*
X6102Y-1496D01*
X8856Y-887D02*
X8248Y-1496D01*
X5903Y-887D02*
X5216Y-1574D01*
X5216Y-1574D02*
X3248Y-1574D01*
X3248Y-1574D02*
X2903Y-1230D01*
X2903Y-1230D02*
X2903Y-887D01*
G54D21*
X12909Y-10767D02*
X12852Y-10824D01*
X13858Y-10767D02*
X12909Y-10767D01*
X14251Y-11161D02*
X13858Y-10767D01*
X14251Y-14251D02*
X14251Y-11161D01*
X18740Y-9094D02*
X18602Y-8956D01*
X18740Y-10295D02*
X18740Y-9094D01*
X19330Y-10885D02*
X18740Y-10295D01*
X19685Y-10885D02*
X19330Y-10885D01*
X20767Y-9803D02*
X19685Y-10885D01*
X16948Y-7303D02*
X16948Y-5354D01*
X18602Y-8956D02*
X16948Y-7303D01*
X10603Y-21087D02*
X10603Y-20781D01*
X3129Y-18188D02*
X3129Y-17322D01*
X4133Y-19192D02*
X3129Y-18188D01*
X9015Y-19192D02*
X4133Y-19192D01*
X10603Y-20781D02*
X9015Y-19192D01*
G54D22*
X15570Y-3779D02*
X15039Y-3779D01*
X15807Y-3543D02*
X15570Y-3779D01*
X16240Y-3543D02*
X15807Y-3543D01*
G54D19*
X27283Y-6397D02*
X27283Y-5019D01*
X27283Y-5019D02*
X27814Y-4488D01*
X27814Y-4488D02*
X27814Y-3976D01*
X27814Y-3976D02*
X26673Y-2834D01*
X26673Y-2834D02*
X15984Y-2834D01*
X15984Y-2834D02*
X15039Y-3779D01*
X15039Y-3779D02*
X14862Y-3956D01*
X12852Y-10824D02*
X12852Y-8702D01*
X12852Y-8702D02*
X14625Y-6929D01*
X14625Y-6929D02*
X16259Y-6929D01*
X16259Y-6929D02*
X16948Y-6240D01*
X16948Y-6240D02*
X16948Y-5354D01*
X16948Y-5354D02*
X15551Y-3956D01*
X15551Y-3956D02*
X14862Y-3956D01*
X14862Y-3956D02*
X14744Y-3956D01*
G54D21*
X26870Y-16929D02*
X27303Y-16496D01*
X27303Y-16496D02*
X31732Y-16496D01*
G54D20*
X8903Y-887D02*
X8903Y-1017D01*
X15275Y-3031D02*
X15275Y-3425D01*
X15275Y-3425D02*
X14744Y-3956D01*
X14744Y-3956D02*
X13996Y-3956D01*
X13996Y-3956D02*
X12480Y-2440D01*
X11903Y-887D02*
X11903Y-989D01*
X11903Y-989D02*
X11338Y-1555D01*
X11338Y-1555D02*
X9055Y-1555D01*
X9055Y-1555D02*
X8903Y-1403D01*
X8903Y-1403D02*
X8903Y-887D01*
X17903Y-887D02*
X17892Y-887D01*
X14903Y-1301D02*
X14903Y-887D01*
X15157Y-1555D02*
X14903Y-1301D01*
X17224Y-1555D02*
X15157Y-1555D01*
X17892Y-887D02*
X17224Y-1555D01*
X20903Y-887D02*
X20903Y-1087D01*
X20903Y-1087D02*
X20903Y-1143D01*
X17903Y-1329D02*
X17903Y-887D01*
X18110Y-1535D02*
X17903Y-1329D01*
X20511Y-1535D02*
X18110Y-1535D01*
X20903Y-1143D02*
X20511Y-1535D01*
X23903Y-887D02*
X23903Y-1056D01*
X20903Y-1356D02*
X20903Y-887D01*
X21082Y-1535D02*
X20903Y-1356D01*
X23425Y-1535D02*
X21082Y-1535D01*
X23903Y-1056D02*
X23425Y-1535D01*
X27283Y-6397D02*
X32125Y-6397D01*
X25413Y-6397D02*
X26870Y-6397D01*
X26870Y-6397D02*
X27283Y-6397D01*
X21771Y-6397D02*
X25413Y-6397D01*
X21751Y-6377D02*
X21771Y-6397D01*
G54D19*
X12852Y-10824D02*
X8939Y-10824D01*
X8939Y-10824D02*
X8740Y-11023D01*
X8740Y-11023D02*
X7244Y-11023D01*
X9114Y-10649D02*
X8740Y-11023D01*
X3602Y-12224D02*
X3602Y-14748D01*
X4803Y-11023D02*
X3602Y-12224D01*
X7244Y-11023D02*
X4803Y-11023D01*
X7362Y-11141D02*
X7244Y-11023D01*
X3326Y-17519D02*
X3129Y-17322D01*
X5196Y-17519D02*
X3326Y-17519D01*
X5905Y-16811D02*
X5196Y-17519D01*
X3129Y-17322D02*
X3129Y-15221D01*
X3129Y-15221D02*
X3602Y-14748D01*
X3602Y-14748D02*
X3663Y-14687D01*
X1803Y-14687D02*
X3663Y-14687D01*
X3663Y-14687D02*
X4133Y-15157D01*
X4133Y-15157D02*
X4370Y-15157D01*
G54D21*
X16692Y-9507D02*
X15610Y-9507D01*
X20039Y-12854D02*
X16692Y-9507D01*
X12500Y-19350D02*
X12263Y-19350D01*
X10866Y-17952D02*
X10866Y-17165D01*
X12263Y-19350D02*
X10866Y-17952D01*
X11614Y-17913D02*
X10866Y-17165D01*
X10866Y-15570D02*
X10216Y-14921D01*
X10866Y-17165D02*
X10866Y-15570D01*
X19724Y-18897D02*
X19724Y-19251D01*
X19763Y-18858D02*
X19724Y-18897D01*
X16692Y-19940D02*
X16692Y-19842D01*
X20787Y-19251D02*
X20925Y-19114D01*
X17283Y-19251D02*
X19724Y-19251D01*
X19724Y-19251D02*
X20787Y-19251D01*
X16692Y-19842D02*
X17283Y-19251D01*
X4251Y-18346D02*
X4527Y-18622D01*
X4527Y-18622D02*
X8661Y-18622D01*
X8661Y-18622D02*
X8897Y-18858D01*
X8897Y-18858D02*
X9625Y-18858D01*
X9625Y-18858D02*
X10216Y-18267D01*
X10216Y-18267D02*
X10216Y-14921D01*
X9960Y-14665D02*
X9960Y-14547D01*
X10216Y-14921D02*
X9960Y-14665D01*
G54D20*
X6358Y-13267D02*
X6771Y-13267D01*
G54D19*
X7618Y-12244D02*
X7637Y-12224D01*
X7618Y-12421D02*
X7618Y-12244D01*
G54D20*
X6771Y-13267D02*
X7618Y-12421D01*
G54D21*
X15157Y-13051D02*
X15157Y-13956D01*
X10059Y-14645D02*
X9960Y-14547D01*
X14468Y-14645D02*
X10059Y-14645D01*
X15157Y-13956D02*
X14468Y-14645D01*
X9960Y-14547D02*
X7637Y-12224D01*
X18622Y-15905D02*
X17972Y-15255D01*
X20925Y-19114D02*
X20925Y-16909D01*
X20925Y-16909D02*
X19921Y-15905D01*
X19921Y-15905D02*
X18622Y-15905D01*
X15767Y-13051D02*
X15157Y-13051D01*
X17972Y-15255D02*
X15767Y-13051D01*
X21811Y-15255D02*
X17972Y-15255D01*
X21889Y-15177D02*
X21811Y-15255D01*
G54D22*
X6338Y-13287D02*
X6358Y-13267D01*
G54D20*
X4901Y-13287D02*
X6338Y-13287D01*
X4311Y-12696D02*
X4901Y-13287D01*
X4311Y-12145D02*
X4311Y-12696D01*
X4448Y-12007D02*
X4311Y-12145D01*
G54D22*
X11968Y-12637D02*
X11614Y-12992D01*
X11614Y-12992D02*
X8405Y-12992D01*
X8405Y-12992D02*
X7637Y-12224D01*
G54D10*
G36*
X33285Y-21776D02*
X33193Y-21867D01*
X32472Y-21867D01*
X32472Y-8576D01*
X32423Y-8456D01*
X32354Y-8387D01*
X32354Y-623D01*
X32285Y-457D01*
X32159Y-331D01*
X31993Y-262D01*
X31814Y-262D01*
X31649Y-330D01*
X31522Y-457D01*
X31454Y-622D01*
X31453Y-801D01*
X31522Y-966D01*
X31648Y-1093D01*
X31814Y-1162D01*
X31993Y-1162D01*
X32158Y-1094D01*
X32285Y-967D01*
X32353Y-802D01*
X32354Y-623D01*
X32354Y-8387D01*
X32331Y-8364D01*
X32211Y-8314D01*
X32080Y-8314D01*
X31960Y-8364D01*
X31931Y-8393D01*
X31354Y-8393D01*
X31354Y-623D01*
X31285Y-457D01*
X31159Y-331D01*
X30993Y-262D01*
X30814Y-262D01*
X30649Y-330D01*
X30522Y-457D01*
X30454Y-622D01*
X30453Y-801D01*
X30522Y-966D01*
X30648Y-1093D01*
X30814Y-1162D01*
X30993Y-1162D01*
X31158Y-1094D01*
X31285Y-967D01*
X31353Y-802D01*
X31354Y-623D01*
X31354Y-8393D01*
X30711Y-8393D01*
X30711Y-2246D01*
X30711Y-1198D01*
X30354Y-1198D01*
X30354Y-623D01*
X30285Y-457D01*
X30159Y-331D01*
X29993Y-262D01*
X29814Y-262D01*
X29649Y-330D01*
X29522Y-457D01*
X29454Y-622D01*
X29453Y-801D01*
X29522Y-966D01*
X29648Y-1093D01*
X29814Y-1162D01*
X29993Y-1162D01*
X30158Y-1094D01*
X30285Y-967D01*
X30353Y-802D01*
X30354Y-623D01*
X30354Y-1198D01*
X29353Y-1198D01*
X29353Y-982D01*
X29353Y-382D01*
X29331Y-327D01*
X29289Y-285D01*
X29233Y-262D01*
X29174Y-262D01*
X28574Y-262D01*
X28519Y-285D01*
X28476Y-327D01*
X28453Y-382D01*
X28453Y-442D01*
X28453Y-1042D01*
X28476Y-1097D01*
X28518Y-1139D01*
X28573Y-1162D01*
X28633Y-1162D01*
X29233Y-1162D01*
X29288Y-1139D01*
X29331Y-1097D01*
X29353Y-1042D01*
X29353Y-982D01*
X29353Y-1198D01*
X28354Y-1198D01*
X28354Y-623D01*
X28285Y-457D01*
X28159Y-331D01*
X27993Y-262D01*
X27814Y-262D01*
X27649Y-330D01*
X27522Y-457D01*
X27454Y-622D01*
X27453Y-801D01*
X27522Y-966D01*
X27648Y-1093D01*
X27814Y-1162D01*
X27993Y-1162D01*
X28158Y-1094D01*
X28285Y-967D01*
X28353Y-802D01*
X28354Y-623D01*
X28354Y-1198D01*
X27354Y-1198D01*
X27354Y-623D01*
X27285Y-457D01*
X27159Y-331D01*
X26993Y-262D01*
X26814Y-262D01*
X26649Y-330D01*
X26522Y-457D01*
X26454Y-622D01*
X26453Y-801D01*
X26522Y-966D01*
X26648Y-1093D01*
X26814Y-1162D01*
X26993Y-1162D01*
X27158Y-1094D01*
X27285Y-967D01*
X27353Y-802D01*
X27354Y-623D01*
X27354Y-1198D01*
X26375Y-1198D01*
X26375Y-2246D01*
X30711Y-2246D01*
X30711Y-8393D01*
X27165Y-8393D01*
X26185Y-8393D01*
X25844Y-8052D01*
X25764Y-7998D01*
X25669Y-7979D01*
X25395Y-7979D01*
X25066Y-7650D01*
X24995Y-7602D01*
X24911Y-7586D01*
X21399Y-7586D01*
X21257Y-7443D01*
X21257Y-7443D01*
X21257Y-7443D01*
X20514Y-6700D01*
X20514Y-5307D01*
X21173Y-4648D01*
X21407Y-4648D01*
X21471Y-4690D01*
X21555Y-4707D01*
X21909Y-4707D01*
X21909Y-4707D01*
X21993Y-4690D01*
X22064Y-4642D01*
X22511Y-4195D01*
X23216Y-4195D01*
X24412Y-5391D01*
X24412Y-5391D01*
X24483Y-5438D01*
X24566Y-5455D01*
X25027Y-5455D01*
X25219Y-5646D01*
X25219Y-5646D01*
X25266Y-5678D01*
X25290Y-5694D01*
X25290Y-5694D01*
X25374Y-5711D01*
X25374Y-5711D01*
X25688Y-5711D01*
X25688Y-5711D01*
X25772Y-5694D01*
X25843Y-5646D01*
X25917Y-5573D01*
X26240Y-5573D01*
X26240Y-5573D01*
X26323Y-5556D01*
X26394Y-5509D01*
X26808Y-5095D01*
X26808Y-5095D01*
X26855Y-5024D01*
X26872Y-4940D01*
X26872Y-4940D01*
X26872Y-4352D01*
X27000Y-4352D01*
X27058Y-4411D01*
X27178Y-4460D01*
X27308Y-4461D01*
X27429Y-4411D01*
X27521Y-4319D01*
X27571Y-4199D01*
X27571Y-4069D01*
X27521Y-3948D01*
X27429Y-3856D01*
X27309Y-3806D01*
X27179Y-3806D01*
X27059Y-3856D01*
X27000Y-3914D01*
X26751Y-3914D01*
X26668Y-3931D01*
X26597Y-3979D01*
X26498Y-4077D01*
X26451Y-4148D01*
X26434Y-4232D01*
X26434Y-4850D01*
X26370Y-4914D01*
X26370Y-4133D01*
X26370Y-3856D01*
X26399Y-3827D01*
X26449Y-3707D01*
X26449Y-3576D01*
X26399Y-3456D01*
X26354Y-3411D01*
X26354Y-623D01*
X26285Y-457D01*
X26159Y-331D01*
X25993Y-262D01*
X25814Y-262D01*
X25649Y-330D01*
X25522Y-457D01*
X25454Y-622D01*
X25453Y-801D01*
X25522Y-966D01*
X25648Y-1093D01*
X25814Y-1162D01*
X25993Y-1162D01*
X26158Y-1094D01*
X26285Y-967D01*
X26353Y-802D01*
X26354Y-623D01*
X26354Y-3411D01*
X26307Y-3364D01*
X26187Y-3314D01*
X26057Y-3314D01*
X25936Y-3364D01*
X25844Y-3456D01*
X25794Y-3576D01*
X25794Y-3706D01*
X25844Y-3826D01*
X25873Y-3855D01*
X25873Y-4133D01*
X25873Y-4446D01*
X25795Y-4368D01*
X25675Y-4318D01*
X25545Y-4318D01*
X25537Y-4321D01*
X25589Y-4270D01*
X25589Y-4270D01*
X25625Y-4216D01*
X25642Y-4189D01*
X25642Y-4189D01*
X25661Y-4094D01*
X25661Y-4094D01*
X25661Y-3796D01*
X25690Y-3768D01*
X25740Y-3648D01*
X25740Y-3517D01*
X25690Y-3397D01*
X25598Y-3305D01*
X25478Y-3255D01*
X25353Y-3255D01*
X25353Y-982D01*
X25353Y-382D01*
X25331Y-327D01*
X25289Y-285D01*
X25233Y-262D01*
X25174Y-262D01*
X24574Y-262D01*
X24519Y-285D01*
X24476Y-327D01*
X24453Y-382D01*
X24453Y-442D01*
X24453Y-698D01*
X24447Y-575D01*
X24385Y-424D01*
X24289Y-397D01*
X23974Y-712D01*
X24289Y-1027D01*
X24385Y-1000D01*
X24453Y-807D01*
X24453Y-1042D01*
X24476Y-1097D01*
X24518Y-1139D01*
X24573Y-1162D01*
X24633Y-1162D01*
X25233Y-1162D01*
X25288Y-1139D01*
X25331Y-1097D01*
X25353Y-1042D01*
X25353Y-982D01*
X25353Y-3255D01*
X25348Y-3255D01*
X25228Y-3305D01*
X25136Y-3397D01*
X25086Y-3517D01*
X25086Y-3647D01*
X25135Y-3767D01*
X25164Y-3796D01*
X25164Y-3991D01*
X24956Y-4200D01*
X24915Y-4200D01*
X24795Y-4250D01*
X24703Y-4341D01*
X24653Y-4462D01*
X24653Y-4592D01*
X24702Y-4712D01*
X24751Y-4761D01*
X24736Y-4761D01*
X24219Y-4244D01*
X24219Y-1098D01*
X23903Y-783D01*
X23588Y-1098D01*
X23616Y-1193D01*
X23822Y-1267D01*
X24040Y-1256D01*
X24191Y-1193D01*
X24219Y-1098D01*
X24219Y-4244D01*
X24164Y-4189D01*
X24164Y-2293D01*
X24164Y-1643D01*
X23640Y-1643D01*
X23640Y-2293D01*
X24164Y-2293D01*
X24164Y-4189D01*
X23560Y-3585D01*
X23489Y-3537D01*
X23405Y-3521D01*
X22097Y-3521D01*
X22097Y-2481D01*
X22097Y-1651D01*
X21573Y-1651D01*
X21573Y-2481D01*
X22097Y-2481D01*
X22097Y-3521D01*
X21515Y-3521D01*
X21219Y-3521D01*
X21219Y-1098D01*
X20903Y-783D01*
X20588Y-1098D01*
X20616Y-1193D01*
X20822Y-1267D01*
X21040Y-1256D01*
X21191Y-1193D01*
X21219Y-1098D01*
X21219Y-3521D01*
X21113Y-3521D01*
X21113Y-2332D01*
X21113Y-1682D01*
X20589Y-1682D01*
X20589Y-2332D01*
X21113Y-2332D01*
X21113Y-3521D01*
X20944Y-3521D01*
X20861Y-3537D01*
X20790Y-3585D01*
X19608Y-4766D01*
X19561Y-4837D01*
X19544Y-4921D01*
X19544Y-7047D01*
X19561Y-7131D01*
X19608Y-7202D01*
X20103Y-7696D01*
X20011Y-7734D01*
X19946Y-7799D01*
X19896Y-7809D01*
X19872Y-7825D01*
X19825Y-7857D01*
X19145Y-8537D01*
X19145Y-2481D01*
X19145Y-1651D01*
X18620Y-1651D01*
X18620Y-2481D01*
X19145Y-2481D01*
X19145Y-8537D01*
X19077Y-8605D01*
X19030Y-8676D01*
X19013Y-8759D01*
X19013Y-9251D01*
X19030Y-9335D01*
X19077Y-9406D01*
X19121Y-9450D01*
X19121Y-9533D01*
X19171Y-9653D01*
X19263Y-9745D01*
X19282Y-9753D01*
X19239Y-9855D01*
X19239Y-9986D01*
X19289Y-10106D01*
X19350Y-10167D01*
X19309Y-10208D01*
X19259Y-10328D01*
X19259Y-10458D01*
X19309Y-10578D01*
X19401Y-10670D01*
X19521Y-10720D01*
X19651Y-10720D01*
X19771Y-10671D01*
X19863Y-10579D01*
X19913Y-10459D01*
X19913Y-10376D01*
X20878Y-9411D01*
X23641Y-9411D01*
X23641Y-9411D01*
X23725Y-9395D01*
X23796Y-9347D01*
X24667Y-8476D01*
X24758Y-8476D01*
X24750Y-8487D01*
X24731Y-8582D01*
X24731Y-9070D01*
X20763Y-13038D01*
X20316Y-13038D01*
X20366Y-12919D01*
X20366Y-12789D01*
X20316Y-12669D01*
X20224Y-12577D01*
X20104Y-12527D01*
X20063Y-12527D01*
X18219Y-10682D01*
X18219Y-1098D01*
X17903Y-783D01*
X17588Y-1098D01*
X17616Y-1193D01*
X17822Y-1267D01*
X18040Y-1256D01*
X18191Y-1193D01*
X18219Y-1098D01*
X18219Y-10682D01*
X18160Y-10624D01*
X18160Y-2293D01*
X18160Y-1643D01*
X17636Y-1643D01*
X17636Y-2293D01*
X18160Y-2293D01*
X18160Y-10624D01*
X16868Y-9332D01*
X16787Y-9278D01*
X16692Y-9259D01*
X16311Y-9259D01*
X16311Y-5295D01*
X16285Y-5162D01*
X16209Y-5050D01*
X16097Y-4974D01*
X16093Y-4974D01*
X16093Y-2481D01*
X16093Y-1651D01*
X15569Y-1651D01*
X15569Y-2481D01*
X16093Y-2481D01*
X16093Y-4974D01*
X15964Y-4948D01*
X15831Y-4974D01*
X15719Y-5050D01*
X15368Y-5401D01*
X15219Y-5401D01*
X15219Y-1098D01*
X14903Y-783D01*
X14588Y-1098D01*
X14616Y-1193D01*
X14822Y-1267D01*
X15040Y-1256D01*
X15191Y-1193D01*
X15219Y-1098D01*
X15219Y-5401D01*
X15129Y-5401D01*
X15129Y-2372D01*
X15129Y-1722D01*
X14604Y-1722D01*
X14604Y-2372D01*
X15129Y-2372D01*
X15129Y-5401D01*
X13141Y-5401D01*
X13141Y-2481D01*
X13141Y-1651D01*
X12616Y-1651D01*
X12616Y-2481D01*
X13141Y-2481D01*
X13141Y-5401D01*
X12219Y-5401D01*
X12219Y-1098D01*
X11903Y-783D01*
X11588Y-1098D01*
X11616Y-1193D01*
X11822Y-1267D01*
X12040Y-1256D01*
X12191Y-1193D01*
X12219Y-1098D01*
X12219Y-5401D01*
X12137Y-5401D01*
X12137Y-2411D01*
X12137Y-1761D01*
X11612Y-1761D01*
X11612Y-2411D01*
X12137Y-2411D01*
X12137Y-5401D01*
X10188Y-5401D01*
X10188Y-2481D01*
X10188Y-1651D01*
X9663Y-1651D01*
X9663Y-2481D01*
X10188Y-2481D01*
X10188Y-5401D01*
X9219Y-5401D01*
X9219Y-1098D01*
X8903Y-783D01*
X8588Y-1098D01*
X8616Y-1193D01*
X8822Y-1267D01*
X9040Y-1256D01*
X9191Y-1193D01*
X9219Y-1098D01*
X9219Y-5401D01*
X9145Y-5401D01*
X9145Y-2411D01*
X9145Y-1761D01*
X8620Y-1761D01*
X8620Y-2411D01*
X9145Y-2411D01*
X9145Y-5401D01*
X8090Y-5401D01*
X7957Y-5427D01*
X7845Y-5502D01*
X7845Y-5502D01*
X7845Y-5502D01*
X7137Y-6210D01*
X7137Y-2580D01*
X7137Y-1750D01*
X6612Y-1750D01*
X6612Y-2580D01*
X7137Y-2580D01*
X7137Y-6210D01*
X6219Y-7128D01*
X6219Y-1098D01*
X5903Y-783D01*
X5588Y-1098D01*
X5616Y-1193D01*
X5822Y-1267D01*
X6040Y-1256D01*
X6191Y-1193D01*
X6219Y-1098D01*
X6219Y-7128D01*
X6152Y-7195D01*
X6152Y-2411D01*
X6152Y-1761D01*
X5628Y-1761D01*
X5628Y-2411D01*
X6152Y-2411D01*
X6152Y-7195D01*
X4145Y-9202D01*
X4145Y-2580D01*
X4145Y-1750D01*
X3620Y-1750D01*
X3620Y-2580D01*
X4145Y-2580D01*
X4145Y-9202D01*
X4007Y-9340D01*
X3233Y-9340D01*
X3233Y-4204D01*
X3219Y-4169D01*
X3219Y-1098D01*
X2903Y-783D01*
X2588Y-1098D01*
X2616Y-1193D01*
X2822Y-1267D01*
X3040Y-1256D01*
X3191Y-1193D01*
X3219Y-1098D01*
X3219Y-4169D01*
X3160Y-4027D01*
X3160Y-2332D01*
X3160Y-1682D01*
X2636Y-1682D01*
X2636Y-2332D01*
X3160Y-2332D01*
X3160Y-4027D01*
X3016Y-3678D01*
X2614Y-3276D01*
X2089Y-3058D01*
X1520Y-3057D01*
X1353Y-3126D01*
X1353Y-982D01*
X1353Y-382D01*
X1331Y-327D01*
X1289Y-285D01*
X1233Y-262D01*
X1174Y-262D01*
X574Y-262D01*
X519Y-285D01*
X476Y-327D01*
X453Y-382D01*
X453Y-442D01*
X453Y-1042D01*
X476Y-1097D01*
X518Y-1139D01*
X573Y-1162D01*
X633Y-1162D01*
X1233Y-1162D01*
X1288Y-1139D01*
X1331Y-1097D01*
X1353Y-1042D01*
X1353Y-982D01*
X1353Y-3126D01*
X1152Y-3209D01*
X1152Y-2541D01*
X1152Y-1710D01*
X628Y-1710D01*
X628Y-2541D01*
X1152Y-2541D01*
X1152Y-3209D01*
X995Y-3274D01*
X592Y-3676D01*
X374Y-4201D01*
X374Y-4770D01*
X591Y-5296D01*
X993Y-5698D01*
X1518Y-5916D01*
X2087Y-5917D01*
X2612Y-5700D01*
X3015Y-5298D01*
X3233Y-4772D01*
X3233Y-4204D01*
X3233Y-9340D01*
X2254Y-9340D01*
X2254Y-8598D01*
X2254Y-7598D01*
X2185Y-7432D01*
X2059Y-7306D01*
X1893Y-7237D01*
X1714Y-7237D01*
X1549Y-7305D01*
X1422Y-7432D01*
X1354Y-7597D01*
X1353Y-7776D01*
X1422Y-7941D01*
X1548Y-8068D01*
X1714Y-8137D01*
X1893Y-8137D01*
X2058Y-8069D01*
X2185Y-7942D01*
X2253Y-7777D01*
X2254Y-7598D01*
X2254Y-8598D01*
X2185Y-8432D01*
X2059Y-8306D01*
X1893Y-8237D01*
X1714Y-8237D01*
X1549Y-8305D01*
X1422Y-8432D01*
X1354Y-8597D01*
X1353Y-8776D01*
X1422Y-8941D01*
X1548Y-9068D01*
X1714Y-9137D01*
X1893Y-9137D01*
X2058Y-9069D01*
X2185Y-8942D01*
X2253Y-8777D01*
X2254Y-8598D01*
X2254Y-9340D01*
X2093Y-9340D01*
X2059Y-9306D01*
X1893Y-9237D01*
X1714Y-9237D01*
X1549Y-9305D01*
X1422Y-9432D01*
X1354Y-9597D01*
X1353Y-9776D01*
X1422Y-9941D01*
X1548Y-10068D01*
X1714Y-10137D01*
X1893Y-10137D01*
X2058Y-10069D01*
X2093Y-10034D01*
X4151Y-10034D01*
X4283Y-10007D01*
X4396Y-9932D01*
X8234Y-6094D01*
X15511Y-6094D01*
X15644Y-6068D01*
X15757Y-5993D01*
X16209Y-5540D01*
X16285Y-5428D01*
X16311Y-5295D01*
X16311Y-9259D01*
X15824Y-9259D01*
X15795Y-9230D01*
X15675Y-9180D01*
X15545Y-9180D01*
X15425Y-9230D01*
X15333Y-9322D01*
X15283Y-9442D01*
X15283Y-9572D01*
X15332Y-9692D01*
X15424Y-9785D01*
X15544Y-9834D01*
X15675Y-9835D01*
X15795Y-9785D01*
X15824Y-9756D01*
X16590Y-9756D01*
X18650Y-11817D01*
X18574Y-11848D01*
X18482Y-11940D01*
X18432Y-12060D01*
X18432Y-12190D01*
X18482Y-12311D01*
X18574Y-12403D01*
X18694Y-12453D01*
X18735Y-12453D01*
X18746Y-12464D01*
X18659Y-12550D01*
X18609Y-12670D01*
X18609Y-12801D01*
X18659Y-12920D01*
X18633Y-12931D01*
X18541Y-13023D01*
X18491Y-13143D01*
X18491Y-13273D01*
X18541Y-13393D01*
X18633Y-13485D01*
X18753Y-13535D01*
X18794Y-13535D01*
X19170Y-13911D01*
X19121Y-14029D01*
X19121Y-14159D01*
X19171Y-14279D01*
X19263Y-14371D01*
X19383Y-14421D01*
X19513Y-14421D01*
X19633Y-14372D01*
X19726Y-14280D01*
X19775Y-14159D01*
X19776Y-14029D01*
X19726Y-13909D01*
X19697Y-13880D01*
X19697Y-13847D01*
X19804Y-13955D01*
X19804Y-13955D01*
X19858Y-13991D01*
X19885Y-14009D01*
X19885Y-14009D01*
X19980Y-14027D01*
X20885Y-14027D01*
X20885Y-14027D01*
X20975Y-14010D01*
X21021Y-14122D01*
X21113Y-14214D01*
X21233Y-14264D01*
X21364Y-14264D01*
X21484Y-14214D01*
X21576Y-14122D01*
X21626Y-14002D01*
X21626Y-13872D01*
X21576Y-13751D01*
X21484Y-13659D01*
X21394Y-13622D01*
X22484Y-12531D01*
X22578Y-12531D01*
X22578Y-12531D01*
X22673Y-12512D01*
X22754Y-12459D01*
X23974Y-11239D01*
X23974Y-11240D01*
X23974Y-12453D01*
X23896Y-12530D01*
X23846Y-12651D01*
X23846Y-12781D01*
X23895Y-12901D01*
X23976Y-12982D01*
X23974Y-12983D01*
X23924Y-13103D01*
X23924Y-13234D01*
X23974Y-13354D01*
X24035Y-13415D01*
X23994Y-13456D01*
X23944Y-13576D01*
X23944Y-13706D01*
X23994Y-13826D01*
X24086Y-13918D01*
X24178Y-13957D01*
X24141Y-13993D01*
X24102Y-13993D01*
X24043Y-13935D01*
X23923Y-13885D01*
X23793Y-13885D01*
X23673Y-13935D01*
X23581Y-14027D01*
X23531Y-14147D01*
X23531Y-14277D01*
X23580Y-14397D01*
X23672Y-14489D01*
X23676Y-14491D01*
X23594Y-14525D01*
X23535Y-14584D01*
X18850Y-14584D01*
X15002Y-10736D01*
X15002Y-9362D01*
X15587Y-8776D01*
X15587Y-8776D01*
X15635Y-8705D01*
X15645Y-8656D01*
X15710Y-8591D01*
X15760Y-8470D01*
X15760Y-8340D01*
X15710Y-8220D01*
X15618Y-8128D01*
X15498Y-8078D01*
X15368Y-8078D01*
X15247Y-8127D01*
X15155Y-8219D01*
X15105Y-8340D01*
X15105Y-8470D01*
X15155Y-8590D01*
X14628Y-9116D01*
X14581Y-9187D01*
X14564Y-9271D01*
X14564Y-10826D01*
X14581Y-10910D01*
X14628Y-10981D01*
X18605Y-14957D01*
X18605Y-14957D01*
X18652Y-14989D01*
X18676Y-15005D01*
X18676Y-15005D01*
X18686Y-15007D01*
X18075Y-15007D01*
X15943Y-12875D01*
X15862Y-12821D01*
X15767Y-12802D01*
X15371Y-12802D01*
X15343Y-12773D01*
X15222Y-12724D01*
X15092Y-12723D01*
X14972Y-12773D01*
X14880Y-12865D01*
X14830Y-12985D01*
X14830Y-13115D01*
X14879Y-13236D01*
X14909Y-13265D01*
X14909Y-13853D01*
X14365Y-14397D01*
X13794Y-14397D01*
X13794Y-12078D01*
X13794Y-11478D01*
X13772Y-11423D01*
X13729Y-11381D01*
X13674Y-11358D01*
X13615Y-11358D01*
X13240Y-11358D01*
X13294Y-11336D01*
X13364Y-11266D01*
X13402Y-11174D01*
X13402Y-11074D01*
X13402Y-10573D01*
X13402Y-10474D01*
X13364Y-10382D01*
X13294Y-10312D01*
X13202Y-10274D01*
X12965Y-10274D01*
X12902Y-10336D01*
X12902Y-10774D01*
X13340Y-10774D01*
X13402Y-10711D01*
X13402Y-10573D01*
X13402Y-11074D01*
X13402Y-10936D01*
X13340Y-10874D01*
X12902Y-10874D01*
X12902Y-11311D01*
X12965Y-11374D01*
X12976Y-11374D01*
X12960Y-11381D01*
X12917Y-11423D01*
X12894Y-11478D01*
X12894Y-11538D01*
X12894Y-12138D01*
X12917Y-12193D01*
X12959Y-12235D01*
X13014Y-12258D01*
X13074Y-12258D01*
X13674Y-12258D01*
X13729Y-12235D01*
X13771Y-12193D01*
X13794Y-12138D01*
X13794Y-12078D01*
X13794Y-14397D01*
X12810Y-14397D01*
X12810Y-12078D01*
X12810Y-11478D01*
X12787Y-11423D01*
X12745Y-11381D01*
X12728Y-11374D01*
X12740Y-11374D01*
X12802Y-11311D01*
X12802Y-10874D01*
X12802Y-10774D01*
X12802Y-10336D01*
X12740Y-10274D01*
X12503Y-10274D01*
X12411Y-10312D01*
X12340Y-10382D01*
X12302Y-10474D01*
X12302Y-10573D01*
X12302Y-10711D01*
X12365Y-10774D01*
X12802Y-10774D01*
X12802Y-10874D01*
X12365Y-10874D01*
X12302Y-10936D01*
X12302Y-11074D01*
X12302Y-11174D01*
X12340Y-11266D01*
X12411Y-11336D01*
X12464Y-11358D01*
X12030Y-11358D01*
X11975Y-11381D01*
X11933Y-11423D01*
X11910Y-11478D01*
X11910Y-11538D01*
X11910Y-12138D01*
X11933Y-12193D01*
X11975Y-12235D01*
X12030Y-12258D01*
X12090Y-12258D01*
X12690Y-12258D01*
X12745Y-12235D01*
X12787Y-12193D01*
X12810Y-12138D01*
X12810Y-12078D01*
X12810Y-14397D01*
X10161Y-14397D01*
X10136Y-14371D01*
X8975Y-13211D01*
X11614Y-13211D01*
X11614Y-13211D01*
X11697Y-13194D01*
X11768Y-13146D01*
X11950Y-12964D01*
X12033Y-12965D01*
X12153Y-12915D01*
X12245Y-12823D01*
X12295Y-12703D01*
X12295Y-12573D01*
X12246Y-12452D01*
X12154Y-12360D01*
X12033Y-12310D01*
X11903Y-12310D01*
X11783Y-12360D01*
X11691Y-12452D01*
X11641Y-12572D01*
X11641Y-12655D01*
X11523Y-12773D01*
X8537Y-12773D01*
X7964Y-12200D01*
X7965Y-12159D01*
X7943Y-12108D01*
X9790Y-12108D01*
X9801Y-12133D01*
X9893Y-12226D01*
X10013Y-12275D01*
X10143Y-12276D01*
X10263Y-12226D01*
X10355Y-12134D01*
X10405Y-12014D01*
X10405Y-11884D01*
X10356Y-11763D01*
X10264Y-11671D01*
X10182Y-11637D01*
X10189Y-11620D01*
X10189Y-11490D01*
X10139Y-11370D01*
X10047Y-11277D01*
X9927Y-11228D01*
X9797Y-11227D01*
X9677Y-11277D01*
X9618Y-11336D01*
X6338Y-11336D01*
X6254Y-11352D01*
X6183Y-11400D01*
X5470Y-12113D01*
X5387Y-12113D01*
X5267Y-12163D01*
X5178Y-12252D01*
X5139Y-12157D01*
X5047Y-12065D01*
X4927Y-12015D01*
X4797Y-12015D01*
X4793Y-12016D01*
X4795Y-12007D01*
X4769Y-11875D01*
X4694Y-11762D01*
X4581Y-11687D01*
X4448Y-11661D01*
X4316Y-11687D01*
X4203Y-11762D01*
X4065Y-11900D01*
X3990Y-12012D01*
X3964Y-12145D01*
X3964Y-12696D01*
X3990Y-12829D01*
X4065Y-12942D01*
X4656Y-13532D01*
X4768Y-13607D01*
X4768Y-13607D01*
X4901Y-13634D01*
X6338Y-13634D01*
X6437Y-13614D01*
X6771Y-13614D01*
X6904Y-13588D01*
X7016Y-13512D01*
X7795Y-12733D01*
X9712Y-14650D01*
X9712Y-14665D01*
X9731Y-14760D01*
X9784Y-14841D01*
X9968Y-15024D01*
X9968Y-18164D01*
X9954Y-18178D01*
X9923Y-18102D01*
X9831Y-18010D01*
X9711Y-17960D01*
X9628Y-17960D01*
X8998Y-17330D01*
X8998Y-16259D01*
X8981Y-16176D01*
X8934Y-16105D01*
X8934Y-16105D01*
X7587Y-14758D01*
X7665Y-14726D01*
X7757Y-14634D01*
X7807Y-14514D01*
X7807Y-14384D01*
X7757Y-14263D01*
X7665Y-14171D01*
X7545Y-14121D01*
X7482Y-14121D01*
X7202Y-13841D01*
X7131Y-13793D01*
X7047Y-13777D01*
X5846Y-13777D01*
X5762Y-13793D01*
X5739Y-13809D01*
X5691Y-13841D01*
X5258Y-14274D01*
X5229Y-14318D01*
X5229Y-14103D01*
X5164Y-13946D01*
X5044Y-13827D01*
X4888Y-13762D01*
X4719Y-13762D01*
X4563Y-13826D01*
X4443Y-13946D01*
X4379Y-14102D01*
X4378Y-14271D01*
X4443Y-14427D01*
X4562Y-14547D01*
X4719Y-14612D01*
X4888Y-14612D01*
X5044Y-14547D01*
X5164Y-14428D01*
X5228Y-14272D01*
X5229Y-14103D01*
X5229Y-14318D01*
X5211Y-14345D01*
X5194Y-14429D01*
X5194Y-16019D01*
X5164Y-15946D01*
X5044Y-15827D01*
X4888Y-15762D01*
X4719Y-15762D01*
X4563Y-15826D01*
X4443Y-15946D01*
X4379Y-16102D01*
X4378Y-16271D01*
X4443Y-16427D01*
X4562Y-16547D01*
X4719Y-16612D01*
X4790Y-16612D01*
X4574Y-16828D01*
X3826Y-16828D01*
X3768Y-16770D01*
X3648Y-16720D01*
X3517Y-16720D01*
X3397Y-16769D01*
X3305Y-16861D01*
X3255Y-16981D01*
X3255Y-17112D01*
X3305Y-17232D01*
X3397Y-17324D01*
X3517Y-17374D01*
X3647Y-17374D01*
X3767Y-17324D01*
X3826Y-17266D01*
X4665Y-17266D01*
X4665Y-17266D01*
X4749Y-17249D01*
X4820Y-17202D01*
X5568Y-16453D01*
X5568Y-16453D01*
X5599Y-16406D01*
X5615Y-16382D01*
X5615Y-16382D01*
X5632Y-16299D01*
X5632Y-16299D01*
X5632Y-15614D01*
X5644Y-15674D01*
X5691Y-15745D01*
X6601Y-16655D01*
X6601Y-16738D01*
X6651Y-16858D01*
X6743Y-16950D01*
X6863Y-17000D01*
X6993Y-17000D01*
X7114Y-16950D01*
X7206Y-16858D01*
X7256Y-16738D01*
X7256Y-16608D01*
X7206Y-16488D01*
X7114Y-16396D01*
X6994Y-16346D01*
X6911Y-16346D01*
X6065Y-15499D01*
X6065Y-14771D01*
X6123Y-14713D01*
X6145Y-14659D01*
X6231Y-14745D01*
X6351Y-14795D01*
X6434Y-14795D01*
X7340Y-15700D01*
X7340Y-16830D01*
X7356Y-16914D01*
X7404Y-16985D01*
X8865Y-18446D01*
X8865Y-18475D01*
X8837Y-18446D01*
X8756Y-18392D01*
X8661Y-18373D01*
X4630Y-18373D01*
X4579Y-18322D01*
X4579Y-18281D01*
X4529Y-18161D01*
X4437Y-18069D01*
X4317Y-18019D01*
X4187Y-18019D01*
X4066Y-18068D01*
X3974Y-18160D01*
X3924Y-18281D01*
X3924Y-18411D01*
X3974Y-18531D01*
X4066Y-18623D01*
X4186Y-18673D01*
X4227Y-18673D01*
X4351Y-18797D01*
X4351Y-18797D01*
X4405Y-18833D01*
X4432Y-18851D01*
X4432Y-18851D01*
X4527Y-18870D01*
X8558Y-18870D01*
X8721Y-19033D01*
X8802Y-19087D01*
X8802Y-19087D01*
X8818Y-19090D01*
X8897Y-19106D01*
X9625Y-19106D01*
X9625Y-19106D01*
X9721Y-19087D01*
X9801Y-19033D01*
X10392Y-18443D01*
X10392Y-18443D01*
X10446Y-18362D01*
X10446Y-18362D01*
X10449Y-18347D01*
X10464Y-18267D01*
X10464Y-18267D01*
X10464Y-15521D01*
X10617Y-15673D01*
X10617Y-17165D01*
X10617Y-17952D01*
X10636Y-18047D01*
X10690Y-18128D01*
X12088Y-19526D01*
X12168Y-19579D01*
X12168Y-19579D01*
X12184Y-19583D01*
X12263Y-19598D01*
X12285Y-19598D01*
X12314Y-19627D01*
X12434Y-19677D01*
X12564Y-19677D01*
X12685Y-19627D01*
X12777Y-19535D01*
X12827Y-19415D01*
X12827Y-19285D01*
X12777Y-19165D01*
X12685Y-19073D01*
X12565Y-19023D01*
X12435Y-19023D01*
X12330Y-19066D01*
X11474Y-18209D01*
X11548Y-18240D01*
X11678Y-18240D01*
X11799Y-18190D01*
X11891Y-18098D01*
X11941Y-17978D01*
X11941Y-17848D01*
X11891Y-17728D01*
X11799Y-17636D01*
X11679Y-17586D01*
X11638Y-17586D01*
X11114Y-17062D01*
X11114Y-15570D01*
X11098Y-15491D01*
X11095Y-15475D01*
X11095Y-15475D01*
X11041Y-15395D01*
X11041Y-15395D01*
X10540Y-14894D01*
X14468Y-14894D01*
X14468Y-14894D01*
X14563Y-14875D01*
X14644Y-14821D01*
X15333Y-14132D01*
X15333Y-14132D01*
X15369Y-14078D01*
X15386Y-14051D01*
X15386Y-14051D01*
X15405Y-13956D01*
X15405Y-13956D01*
X15405Y-13299D01*
X15664Y-13299D01*
X17796Y-15431D01*
X17796Y-15431D01*
X17796Y-15431D01*
X18446Y-16081D01*
X18446Y-16081D01*
X18526Y-16135D01*
X18526Y-16135D01*
X18542Y-16138D01*
X18622Y-16153D01*
X19818Y-16153D01*
X20676Y-17012D01*
X20676Y-19003D01*
X20057Y-19003D01*
X20090Y-18923D01*
X20091Y-18793D01*
X20041Y-18673D01*
X19949Y-18581D01*
X19829Y-18531D01*
X19698Y-18531D01*
X19578Y-18580D01*
X19527Y-18631D01*
X19437Y-18541D01*
X19347Y-18504D01*
X19427Y-18423D01*
X19427Y-18423D01*
X19463Y-18369D01*
X19481Y-18343D01*
X19481Y-18343D01*
X19500Y-18248D01*
X19500Y-18248D01*
X19500Y-17084D01*
X19529Y-17055D01*
X19551Y-17002D01*
X19558Y-17009D01*
X19678Y-17059D01*
X19808Y-17059D01*
X19929Y-17009D01*
X20021Y-16917D01*
X20071Y-16797D01*
X20071Y-16667D01*
X20021Y-16547D01*
X19929Y-16455D01*
X19809Y-16405D01*
X19768Y-16405D01*
X19683Y-16320D01*
X19602Y-16266D01*
X19507Y-16247D01*
X18582Y-16247D01*
X18503Y-16263D01*
X18487Y-16266D01*
X18407Y-16320D01*
X18381Y-16346D01*
X14370Y-16346D01*
X14290Y-16361D01*
X14275Y-16364D01*
X14194Y-16418D01*
X14109Y-16503D01*
X13422Y-16503D01*
X13394Y-16474D01*
X13274Y-16424D01*
X13143Y-16424D01*
X13023Y-16474D01*
X12931Y-16566D01*
X12881Y-16686D01*
X12881Y-16816D01*
X12931Y-16937D01*
X12972Y-16978D01*
X12931Y-17019D01*
X12881Y-17139D01*
X12881Y-17180D01*
X12658Y-17403D01*
X12605Y-17483D01*
X12586Y-17578D01*
X12586Y-17849D01*
X12540Y-17895D01*
X12487Y-17975D01*
X12468Y-18070D01*
X12468Y-18602D01*
X12487Y-18697D01*
X12540Y-18778D01*
X12836Y-19073D01*
X12836Y-19073D01*
X12916Y-19127D01*
X12916Y-19127D01*
X12932Y-19130D01*
X13011Y-19146D01*
X17038Y-19146D01*
X16529Y-19654D01*
X16507Y-19663D01*
X16415Y-19755D01*
X16365Y-19875D01*
X16365Y-20005D01*
X16384Y-20051D01*
X16337Y-20051D01*
X16337Y-20656D01*
X16861Y-20656D01*
X16861Y-20225D01*
X16877Y-20218D01*
X16970Y-20126D01*
X17020Y-20006D01*
X17020Y-19876D01*
X17017Y-19869D01*
X17386Y-19500D01*
X19724Y-19500D01*
X20787Y-19500D01*
X20787Y-19500D01*
X20882Y-19481D01*
X20963Y-19427D01*
X21100Y-19289D01*
X21100Y-19289D01*
X21136Y-19235D01*
X21154Y-19209D01*
X21154Y-19209D01*
X21173Y-19114D01*
X21173Y-19114D01*
X21173Y-16909D01*
X21154Y-16814D01*
X21154Y-16814D01*
X21136Y-16787D01*
X21100Y-16733D01*
X21100Y-16733D01*
X20096Y-15729D01*
X20016Y-15675D01*
X19921Y-15657D01*
X18724Y-15657D01*
X18572Y-15504D01*
X21811Y-15504D01*
X21811Y-15504D01*
X21820Y-15502D01*
X21824Y-15504D01*
X21954Y-15504D01*
X22074Y-15454D01*
X22166Y-15362D01*
X22216Y-15242D01*
X22216Y-15112D01*
X22179Y-15022D01*
X23535Y-15022D01*
X23593Y-15080D01*
X23714Y-15130D01*
X23844Y-15130D01*
X23964Y-15080D01*
X24056Y-14988D01*
X24106Y-14868D01*
X24106Y-14738D01*
X24057Y-14618D01*
X23965Y-14525D01*
X23960Y-14524D01*
X24043Y-14490D01*
X24102Y-14431D01*
X24232Y-14431D01*
X24232Y-14431D01*
X24316Y-14414D01*
X24387Y-14367D01*
X25144Y-13609D01*
X25331Y-13422D01*
X25331Y-13422D01*
X25379Y-13351D01*
X25396Y-13267D01*
X25396Y-13267D01*
X25396Y-12039D01*
X27551Y-9884D01*
X30531Y-9884D01*
X30531Y-9884D01*
X30615Y-9867D01*
X30686Y-9820D01*
X30986Y-9520D01*
X31068Y-9520D01*
X31189Y-9470D01*
X31281Y-9378D01*
X31331Y-9258D01*
X31331Y-9128D01*
X31281Y-9007D01*
X31189Y-8915D01*
X31127Y-8890D01*
X31931Y-8890D01*
X31960Y-8918D01*
X32080Y-8968D01*
X32210Y-8968D01*
X32330Y-8919D01*
X32422Y-8827D01*
X32472Y-8707D01*
X32472Y-8576D01*
X32472Y-21867D01*
X31882Y-21867D01*
X31882Y-12336D01*
X31832Y-12216D01*
X31740Y-12124D01*
X31620Y-12074D01*
X31490Y-12074D01*
X31394Y-12113D01*
X31003Y-12113D01*
X30893Y-12135D01*
X30800Y-12198D01*
X28876Y-14121D01*
X28733Y-14121D01*
X28733Y-12304D01*
X28516Y-11778D01*
X28114Y-11376D01*
X27589Y-11158D01*
X27020Y-11157D01*
X26495Y-11374D01*
X26092Y-11776D01*
X25874Y-12301D01*
X25874Y-12870D01*
X26091Y-13396D01*
X26493Y-13798D01*
X27018Y-14016D01*
X27587Y-14017D01*
X28112Y-13800D01*
X28515Y-13398D01*
X28733Y-12872D01*
X28733Y-12304D01*
X28733Y-14121D01*
X27165Y-14121D01*
X27055Y-14143D01*
X26961Y-14205D01*
X26897Y-14269D01*
X26803Y-14309D01*
X26710Y-14401D01*
X26661Y-14521D01*
X26660Y-14651D01*
X26710Y-14771D01*
X26802Y-14863D01*
X26922Y-14913D01*
X27052Y-14913D01*
X27173Y-14864D01*
X27265Y-14772D01*
X27296Y-14697D01*
X28996Y-14697D01*
X29106Y-14675D01*
X29106Y-14675D01*
X29199Y-14612D01*
X31123Y-12689D01*
X31395Y-12689D01*
X31489Y-12728D01*
X31619Y-12728D01*
X31740Y-12679D01*
X31832Y-12587D01*
X31882Y-12466D01*
X31882Y-12336D01*
X31882Y-21867D01*
X29884Y-21867D01*
X29884Y-20892D01*
X29811Y-20715D01*
X29676Y-20580D01*
X29499Y-20507D01*
X29308Y-20507D01*
X29132Y-20580D01*
X28997Y-20715D01*
X28960Y-20803D01*
X28910Y-20681D01*
X28811Y-20650D01*
X28740Y-20721D01*
X28740Y-20579D01*
X28709Y-20481D01*
X28492Y-20402D01*
X28262Y-20413D01*
X28098Y-20481D01*
X28067Y-20579D01*
X28403Y-20916D01*
X28740Y-20579D01*
X28740Y-20721D01*
X28474Y-20987D01*
X28811Y-21324D01*
X28910Y-21293D01*
X28957Y-21163D01*
X28996Y-21258D01*
X29131Y-21394D01*
X29308Y-21467D01*
X29498Y-21467D01*
X29675Y-21394D01*
X29810Y-21259D01*
X29883Y-21083D01*
X29884Y-20892D01*
X29884Y-21867D01*
X28740Y-21867D01*
X28740Y-21395D01*
X28403Y-21058D01*
X28333Y-21128D01*
X28333Y-20987D01*
X27996Y-20650D01*
X27897Y-20681D01*
X27819Y-20898D01*
X27829Y-21128D01*
X27897Y-21293D01*
X27996Y-21324D01*
X28333Y-20987D01*
X28333Y-21128D01*
X28067Y-21395D01*
X28098Y-21493D01*
X28314Y-21572D01*
X28545Y-21561D01*
X28709Y-21493D01*
X28740Y-21395D01*
X28740Y-21867D01*
X27684Y-21867D01*
X27684Y-20892D01*
X27611Y-20715D01*
X27476Y-20580D01*
X27299Y-20507D01*
X27108Y-20507D01*
X26932Y-20580D01*
X26797Y-20715D01*
X26760Y-20803D01*
X26710Y-20681D01*
X26611Y-20650D01*
X26540Y-20721D01*
X26540Y-20579D01*
X26509Y-20481D01*
X26292Y-20402D01*
X26062Y-20413D01*
X25898Y-20481D01*
X25867Y-20579D01*
X26203Y-20916D01*
X26540Y-20579D01*
X26540Y-20721D01*
X26274Y-20987D01*
X26611Y-21324D01*
X26710Y-21293D01*
X26757Y-21163D01*
X26796Y-21258D01*
X26931Y-21394D01*
X27108Y-21467D01*
X27298Y-21467D01*
X27475Y-21394D01*
X27610Y-21259D01*
X27683Y-21083D01*
X27684Y-20892D01*
X27684Y-21867D01*
X26540Y-21867D01*
X26540Y-21395D01*
X26203Y-21058D01*
X26133Y-21128D01*
X26133Y-20987D01*
X25796Y-20650D01*
X25697Y-20681D01*
X25619Y-20898D01*
X25629Y-21128D01*
X25697Y-21293D01*
X25796Y-21324D01*
X26133Y-20987D01*
X26133Y-21128D01*
X25867Y-21395D01*
X25898Y-21493D01*
X26114Y-21572D01*
X26345Y-21561D01*
X26509Y-21493D01*
X26540Y-21395D01*
X26540Y-21867D01*
X25158Y-21867D01*
X25158Y-21419D01*
X25147Y-21200D01*
X25085Y-21049D01*
X24989Y-21022D01*
X24919Y-21092D01*
X24919Y-20951D01*
X24893Y-20860D01*
X24893Y-20600D01*
X24893Y-19950D01*
X24368Y-19950D01*
X24368Y-20600D01*
X24893Y-20600D01*
X24893Y-20860D01*
X24891Y-20856D01*
X24685Y-20782D01*
X24467Y-20793D01*
X24316Y-20856D01*
X24288Y-20951D01*
X24603Y-21266D01*
X24919Y-20951D01*
X24919Y-21092D01*
X24674Y-21337D01*
X24989Y-21652D01*
X25085Y-21625D01*
X25158Y-21419D01*
X25158Y-21867D01*
X24773Y-21867D01*
X24891Y-21818D01*
X24919Y-21723D01*
X24603Y-21408D01*
X24533Y-21478D01*
X24533Y-21337D01*
X24218Y-21022D01*
X24122Y-21049D01*
X24052Y-21245D01*
X23985Y-21082D01*
X23869Y-20966D01*
X23869Y-20656D01*
X23869Y-20051D01*
X23345Y-20051D01*
X23345Y-20656D01*
X23869Y-20656D01*
X23869Y-20966D01*
X23859Y-20956D01*
X23693Y-20887D01*
X23514Y-20887D01*
X23349Y-20955D01*
X23222Y-21082D01*
X23154Y-21247D01*
X23153Y-21426D01*
X23222Y-21591D01*
X23348Y-21718D01*
X23514Y-21787D01*
X23693Y-21787D01*
X23858Y-21719D01*
X23985Y-21592D01*
X24053Y-21427D01*
X24053Y-21350D01*
X24060Y-21474D01*
X24122Y-21625D01*
X24218Y-21652D01*
X24533Y-21337D01*
X24533Y-21478D01*
X24288Y-21723D01*
X24316Y-21818D01*
X24453Y-21867D01*
X23054Y-21867D01*
X23054Y-21248D01*
X22985Y-21082D01*
X22859Y-20956D01*
X22845Y-20950D01*
X22845Y-20656D01*
X22845Y-20051D01*
X22321Y-20051D01*
X22321Y-20656D01*
X22845Y-20656D01*
X22845Y-20950D01*
X22693Y-20887D01*
X22514Y-20887D01*
X22349Y-20955D01*
X22222Y-21082D01*
X22154Y-21247D01*
X22153Y-21426D01*
X22222Y-21591D01*
X22348Y-21718D01*
X22514Y-21787D01*
X22693Y-21787D01*
X22858Y-21719D01*
X22985Y-21592D01*
X23053Y-21427D01*
X23054Y-21248D01*
X23054Y-21867D01*
X22054Y-21867D01*
X22054Y-21248D01*
X21985Y-21082D01*
X21861Y-20958D01*
X21861Y-20656D01*
X21861Y-20051D01*
X21337Y-20051D01*
X21337Y-20656D01*
X21861Y-20656D01*
X21861Y-20958D01*
X21859Y-20956D01*
X21693Y-20887D01*
X21514Y-20887D01*
X21349Y-20955D01*
X21222Y-21082D01*
X21154Y-21247D01*
X21153Y-21426D01*
X21222Y-21591D01*
X21348Y-21718D01*
X21514Y-21787D01*
X21693Y-21787D01*
X21858Y-21719D01*
X21985Y-21592D01*
X22053Y-21427D01*
X22054Y-21248D01*
X22054Y-21867D01*
X21054Y-21867D01*
X21054Y-21248D01*
X20985Y-21082D01*
X20859Y-20956D01*
X20837Y-20947D01*
X20837Y-20656D01*
X20837Y-20051D01*
X20313Y-20051D01*
X20313Y-20656D01*
X20837Y-20656D01*
X20837Y-20947D01*
X20693Y-20887D01*
X20514Y-20887D01*
X20349Y-20955D01*
X20222Y-21082D01*
X20154Y-21247D01*
X20153Y-21426D01*
X20222Y-21591D01*
X20348Y-21718D01*
X20514Y-21787D01*
X20693Y-21787D01*
X20858Y-21719D01*
X20985Y-21592D01*
X21053Y-21427D01*
X21054Y-21248D01*
X21054Y-21867D01*
X20054Y-21867D01*
X20054Y-21248D01*
X19985Y-21082D01*
X19859Y-20956D01*
X19814Y-20937D01*
X19814Y-20656D01*
X19814Y-20051D01*
X19289Y-20051D01*
X19289Y-20656D01*
X19814Y-20656D01*
X19814Y-20937D01*
X19693Y-20887D01*
X19514Y-20887D01*
X19349Y-20955D01*
X19222Y-21082D01*
X19154Y-21247D01*
X19153Y-21426D01*
X19222Y-21591D01*
X19348Y-21718D01*
X19514Y-21787D01*
X19693Y-21787D01*
X19858Y-21719D01*
X19985Y-21592D01*
X20053Y-21427D01*
X20054Y-21248D01*
X20054Y-21867D01*
X19054Y-21867D01*
X19054Y-21248D01*
X18985Y-21082D01*
X18859Y-20956D01*
X18830Y-20944D01*
X18830Y-20656D01*
X18830Y-20051D01*
X18305Y-20051D01*
X18305Y-20656D01*
X18830Y-20656D01*
X18830Y-20944D01*
X18693Y-20887D01*
X18514Y-20887D01*
X18349Y-20955D01*
X18222Y-21082D01*
X18154Y-21247D01*
X18153Y-21426D01*
X18222Y-21591D01*
X18348Y-21718D01*
X18514Y-21787D01*
X18693Y-21787D01*
X18858Y-21719D01*
X18985Y-21592D01*
X19053Y-21427D01*
X19054Y-21248D01*
X19054Y-21867D01*
X18054Y-21867D01*
X18054Y-21248D01*
X17985Y-21082D01*
X17859Y-20956D01*
X17845Y-20950D01*
X17845Y-20656D01*
X17845Y-20051D01*
X17321Y-20051D01*
X17321Y-20656D01*
X17845Y-20656D01*
X17845Y-20950D01*
X17693Y-20887D01*
X17514Y-20887D01*
X17349Y-20955D01*
X17222Y-21082D01*
X17154Y-21247D01*
X17153Y-21426D01*
X17222Y-21591D01*
X17348Y-21718D01*
X17514Y-21787D01*
X17693Y-21787D01*
X17858Y-21719D01*
X17985Y-21592D01*
X18053Y-21427D01*
X18054Y-21248D01*
X18054Y-21867D01*
X17054Y-21867D01*
X17054Y-21248D01*
X16985Y-21082D01*
X16859Y-20956D01*
X16693Y-20887D01*
X16514Y-20887D01*
X16349Y-20955D01*
X16222Y-21082D01*
X16154Y-21247D01*
X16153Y-21288D01*
X16153Y-21086D01*
X16153Y-20987D01*
X16115Y-20895D01*
X16045Y-20825D01*
X15953Y-20787D01*
X15877Y-20787D01*
X15877Y-20600D01*
X15877Y-19950D01*
X15352Y-19950D01*
X15352Y-20600D01*
X15877Y-20600D01*
X15877Y-20787D01*
X15716Y-20787D01*
X15653Y-20849D01*
X15653Y-21287D01*
X16091Y-21287D01*
X16153Y-21224D01*
X16153Y-21086D01*
X16153Y-21288D01*
X16153Y-21426D01*
X16222Y-21591D01*
X16348Y-21718D01*
X16514Y-21787D01*
X16693Y-21787D01*
X16858Y-21719D01*
X16985Y-21592D01*
X17053Y-21427D01*
X17054Y-21248D01*
X17054Y-21867D01*
X16001Y-21867D01*
X16045Y-21849D01*
X16115Y-21779D01*
X16153Y-21687D01*
X16153Y-21587D01*
X16153Y-21449D01*
X16091Y-21387D01*
X15653Y-21387D01*
X15653Y-21395D01*
X15553Y-21395D01*
X15553Y-21387D01*
X15546Y-21387D01*
X15546Y-21287D01*
X15553Y-21287D01*
X15553Y-20849D01*
X15491Y-20787D01*
X15254Y-20787D01*
X15162Y-20825D01*
X15092Y-20895D01*
X15053Y-20987D01*
X15053Y-21040D01*
X14989Y-21022D01*
X14919Y-21092D01*
X14919Y-20951D01*
X14891Y-20856D01*
X14853Y-20842D01*
X14853Y-20600D01*
X14853Y-19950D01*
X14329Y-19950D01*
X14329Y-20600D01*
X14853Y-20600D01*
X14853Y-20842D01*
X14685Y-20782D01*
X14467Y-20793D01*
X14316Y-20856D01*
X14288Y-20951D01*
X14603Y-21266D01*
X14919Y-20951D01*
X14919Y-21092D01*
X14674Y-21337D01*
X14989Y-21652D01*
X15053Y-21634D01*
X15053Y-21687D01*
X15092Y-21779D01*
X15162Y-21849D01*
X15206Y-21867D01*
X14773Y-21867D01*
X14891Y-21818D01*
X14919Y-21723D01*
X14603Y-21408D01*
X14533Y-21478D01*
X14533Y-21337D01*
X14218Y-21022D01*
X14122Y-21049D01*
X14052Y-21245D01*
X13985Y-21082D01*
X13869Y-20966D01*
X13869Y-20693D01*
X13869Y-19857D01*
X13345Y-19857D01*
X13345Y-20693D01*
X13869Y-20693D01*
X13869Y-20966D01*
X13859Y-20956D01*
X13693Y-20887D01*
X13514Y-20887D01*
X13349Y-20955D01*
X13222Y-21082D01*
X13154Y-21247D01*
X13153Y-21323D01*
X13147Y-21200D01*
X13085Y-21049D01*
X12989Y-21022D01*
X12919Y-21092D01*
X12919Y-20951D01*
X12891Y-20856D01*
X12845Y-20839D01*
X12845Y-20600D01*
X12845Y-19950D01*
X12321Y-19950D01*
X12321Y-20600D01*
X12845Y-20600D01*
X12845Y-20839D01*
X12685Y-20782D01*
X12467Y-20793D01*
X12316Y-20856D01*
X12288Y-20951D01*
X12603Y-21266D01*
X12919Y-20951D01*
X12919Y-21092D01*
X12674Y-21337D01*
X12989Y-21652D01*
X13085Y-21625D01*
X13155Y-21429D01*
X13222Y-21591D01*
X13348Y-21718D01*
X13514Y-21787D01*
X13693Y-21787D01*
X13858Y-21719D01*
X13985Y-21592D01*
X14053Y-21427D01*
X14053Y-21350D01*
X14060Y-21474D01*
X14122Y-21625D01*
X14218Y-21652D01*
X14533Y-21337D01*
X14533Y-21478D01*
X14288Y-21723D01*
X14316Y-21818D01*
X14453Y-21867D01*
X12773Y-21867D01*
X12891Y-21818D01*
X12919Y-21723D01*
X12603Y-21408D01*
X12533Y-21478D01*
X12533Y-21337D01*
X12218Y-21022D01*
X12122Y-21049D01*
X12053Y-21242D01*
X12053Y-21007D01*
X12031Y-20952D01*
X11989Y-20910D01*
X11933Y-20887D01*
X11874Y-20887D01*
X11861Y-20887D01*
X11861Y-20693D01*
X11861Y-19857D01*
X11337Y-19857D01*
X11337Y-20693D01*
X11861Y-20693D01*
X11861Y-20887D01*
X11274Y-20887D01*
X11219Y-20910D01*
X11176Y-20952D01*
X11153Y-21007D01*
X11153Y-21067D01*
X11153Y-21073D01*
X11147Y-20950D01*
X11085Y-20799D01*
X10989Y-20772D01*
X10919Y-20842D01*
X10919Y-20701D01*
X10891Y-20606D01*
X10876Y-20600D01*
X10877Y-20600D01*
X10877Y-19950D01*
X10352Y-19950D01*
X10352Y-20590D01*
X10316Y-20606D01*
X10288Y-20701D01*
X10603Y-21016D01*
X10919Y-20701D01*
X10919Y-20842D01*
X10674Y-21087D01*
X10989Y-21402D01*
X11085Y-21375D01*
X11153Y-21182D01*
X11153Y-21667D01*
X11176Y-21722D01*
X11218Y-21764D01*
X11273Y-21787D01*
X11333Y-21787D01*
X11933Y-21787D01*
X11988Y-21764D01*
X12031Y-21722D01*
X12053Y-21667D01*
X12053Y-21607D01*
X12053Y-21351D01*
X12060Y-21474D01*
X12122Y-21625D01*
X12218Y-21652D01*
X12533Y-21337D01*
X12533Y-21478D01*
X12288Y-21723D01*
X12316Y-21818D01*
X12453Y-21867D01*
X10919Y-21867D01*
X10919Y-21473D01*
X10603Y-21158D01*
X10533Y-21228D01*
X10533Y-21087D01*
X10218Y-20772D01*
X10122Y-20799D01*
X10052Y-20995D01*
X9985Y-20832D01*
X9859Y-20706D01*
X9733Y-20654D01*
X9853Y-20654D01*
X9853Y-19897D01*
X9329Y-19897D01*
X9329Y-20654D01*
X9474Y-20654D01*
X9349Y-20705D01*
X9222Y-20832D01*
X9154Y-20997D01*
X9153Y-21176D01*
X9222Y-21341D01*
X9348Y-21468D01*
X9514Y-21537D01*
X9693Y-21537D01*
X9858Y-21469D01*
X9985Y-21342D01*
X10053Y-21177D01*
X10053Y-21100D01*
X10060Y-21224D01*
X10122Y-21375D01*
X10218Y-21402D01*
X10533Y-21087D01*
X10533Y-21228D01*
X10288Y-21473D01*
X10316Y-21568D01*
X10522Y-21642D01*
X10740Y-21631D01*
X10891Y-21568D01*
X10919Y-21473D01*
X10919Y-21867D01*
X9054Y-21867D01*
X9054Y-20998D01*
X8985Y-20832D01*
X8859Y-20706D01*
X8830Y-20694D01*
X8830Y-20614D01*
X8830Y-19857D01*
X8305Y-19857D01*
X8305Y-20614D01*
X8830Y-20614D01*
X8830Y-20694D01*
X8693Y-20637D01*
X8514Y-20637D01*
X8349Y-20705D01*
X8222Y-20832D01*
X8154Y-20997D01*
X8153Y-21176D01*
X8222Y-21341D01*
X8348Y-21468D01*
X8514Y-21537D01*
X8693Y-21537D01*
X8858Y-21469D01*
X8985Y-21342D01*
X9053Y-21177D01*
X9054Y-20998D01*
X9054Y-21867D01*
X8054Y-21867D01*
X8054Y-20998D01*
X7985Y-20832D01*
X7859Y-20706D01*
X7845Y-20700D01*
X7845Y-20614D01*
X7845Y-19857D01*
X7321Y-19857D01*
X7321Y-20614D01*
X7845Y-20614D01*
X7845Y-20700D01*
X7693Y-20637D01*
X7514Y-20637D01*
X7349Y-20705D01*
X7222Y-20832D01*
X7154Y-20997D01*
X7153Y-21176D01*
X7222Y-21341D01*
X7348Y-21468D01*
X7514Y-21537D01*
X7693Y-21537D01*
X7858Y-21469D01*
X7985Y-21342D01*
X8053Y-21177D01*
X8054Y-20998D01*
X8054Y-21867D01*
X7054Y-21867D01*
X7054Y-20998D01*
X6985Y-20832D01*
X6861Y-20708D01*
X6861Y-20614D01*
X6861Y-19857D01*
X6337Y-19857D01*
X6337Y-20614D01*
X6861Y-20614D01*
X6861Y-20708D01*
X6859Y-20706D01*
X6693Y-20637D01*
X6514Y-20637D01*
X6349Y-20705D01*
X6222Y-20832D01*
X6154Y-20997D01*
X6153Y-21176D01*
X6222Y-21341D01*
X6348Y-21468D01*
X6514Y-21537D01*
X6693Y-21537D01*
X6858Y-21469D01*
X6985Y-21342D01*
X7053Y-21177D01*
X7054Y-20998D01*
X7054Y-21867D01*
X6054Y-21867D01*
X6054Y-20998D01*
X5985Y-20832D01*
X5859Y-20706D01*
X5837Y-20697D01*
X5837Y-20614D01*
X5837Y-19857D01*
X5313Y-19857D01*
X5313Y-20614D01*
X5837Y-20614D01*
X5837Y-20697D01*
X5693Y-20637D01*
X5514Y-20637D01*
X5349Y-20705D01*
X5222Y-20832D01*
X5154Y-20997D01*
X5153Y-21176D01*
X5222Y-21341D01*
X5348Y-21468D01*
X5514Y-21537D01*
X5693Y-21537D01*
X5858Y-21469D01*
X5985Y-21342D01*
X6053Y-21177D01*
X6054Y-20998D01*
X6054Y-21867D01*
X5054Y-21867D01*
X5054Y-20998D01*
X4985Y-20832D01*
X4859Y-20706D01*
X4853Y-20703D01*
X4853Y-20614D01*
X4853Y-19857D01*
X4329Y-19857D01*
X4329Y-20614D01*
X4853Y-20614D01*
X4853Y-20703D01*
X4693Y-20637D01*
X4514Y-20637D01*
X4349Y-20705D01*
X4222Y-20832D01*
X4154Y-20997D01*
X4153Y-21176D01*
X4222Y-21341D01*
X4348Y-21468D01*
X4514Y-21537D01*
X4693Y-21537D01*
X4858Y-21469D01*
X4985Y-21342D01*
X5053Y-21177D01*
X5054Y-20998D01*
X5054Y-21867D01*
X4053Y-21867D01*
X4053Y-21357D01*
X4053Y-20757D01*
X4031Y-20702D01*
X3989Y-20660D01*
X3933Y-20637D01*
X3874Y-20637D01*
X3830Y-20637D01*
X3830Y-20614D01*
X3830Y-19857D01*
X3305Y-19857D01*
X3305Y-20614D01*
X3830Y-20614D01*
X3830Y-20637D01*
X3274Y-20637D01*
X3219Y-20660D01*
X3203Y-20675D01*
X3203Y-19794D01*
X2986Y-19268D01*
X2584Y-18866D01*
X2358Y-18772D01*
X2358Y-14769D01*
X2358Y-13769D01*
X2347Y-13550D01*
X2285Y-13399D01*
X2254Y-13390D01*
X2254Y-12598D01*
X2254Y-11598D01*
X2254Y-10598D01*
X2185Y-10432D01*
X2059Y-10306D01*
X1893Y-10237D01*
X1714Y-10237D01*
X1549Y-10305D01*
X1422Y-10432D01*
X1354Y-10597D01*
X1353Y-10776D01*
X1422Y-10941D01*
X1548Y-11068D01*
X1714Y-11137D01*
X1893Y-11137D01*
X2058Y-11069D01*
X2185Y-10942D01*
X2253Y-10777D01*
X2254Y-10598D01*
X2254Y-11598D01*
X2185Y-11432D01*
X2059Y-11306D01*
X1893Y-11237D01*
X1714Y-11237D01*
X1549Y-11305D01*
X1422Y-11432D01*
X1354Y-11597D01*
X1353Y-11776D01*
X1422Y-11941D01*
X1548Y-12068D01*
X1714Y-12137D01*
X1893Y-12137D01*
X2058Y-12069D01*
X2185Y-11942D01*
X2253Y-11777D01*
X2254Y-11598D01*
X2254Y-12598D01*
X2185Y-12432D01*
X2059Y-12306D01*
X1893Y-12237D01*
X1714Y-12237D01*
X1549Y-12305D01*
X1422Y-12432D01*
X1354Y-12597D01*
X1353Y-12776D01*
X1422Y-12941D01*
X1548Y-13068D01*
X1714Y-13137D01*
X1790Y-13137D01*
X1667Y-13143D01*
X1516Y-13206D01*
X1488Y-13301D01*
X1803Y-13616D01*
X2119Y-13301D01*
X2091Y-13206D01*
X1895Y-13136D01*
X2058Y-13069D01*
X2185Y-12942D01*
X2253Y-12777D01*
X2254Y-12598D01*
X2254Y-13390D01*
X2189Y-13372D01*
X1874Y-13687D01*
X2189Y-14002D01*
X2285Y-13975D01*
X2358Y-13769D01*
X2358Y-14769D01*
X2347Y-14550D01*
X2285Y-14399D01*
X2189Y-14372D01*
X2119Y-14442D01*
X2119Y-14301D01*
X2091Y-14206D01*
X2043Y-14188D01*
X2091Y-14168D01*
X2119Y-14073D01*
X1803Y-13758D01*
X1733Y-13828D01*
X1733Y-13687D01*
X1418Y-13372D01*
X1322Y-13399D01*
X1297Y-13470D01*
X1268Y-13401D01*
X1237Y-13392D01*
X1237Y-12599D01*
X1237Y-11599D01*
X1237Y-10599D01*
X1237Y-9599D01*
X1237Y-8599D01*
X1237Y-7599D01*
X1169Y-7434D01*
X1042Y-7307D01*
X877Y-7239D01*
X698Y-7238D01*
X532Y-7307D01*
X406Y-7433D01*
X337Y-7599D01*
X337Y-7778D01*
X405Y-7943D01*
X532Y-8070D01*
X697Y-8138D01*
X876Y-8139D01*
X1041Y-8070D01*
X1168Y-7944D01*
X1237Y-7778D01*
X1237Y-7599D01*
X1237Y-8599D01*
X1169Y-8434D01*
X1042Y-8307D01*
X877Y-8239D01*
X698Y-8238D01*
X532Y-8307D01*
X406Y-8433D01*
X337Y-8599D01*
X337Y-8778D01*
X405Y-8943D01*
X532Y-9070D01*
X697Y-9138D01*
X876Y-9139D01*
X1041Y-9070D01*
X1168Y-8944D01*
X1237Y-8778D01*
X1237Y-8599D01*
X1237Y-9599D01*
X1169Y-9434D01*
X1042Y-9307D01*
X877Y-9239D01*
X698Y-9238D01*
X532Y-9307D01*
X406Y-9433D01*
X337Y-9599D01*
X337Y-9778D01*
X405Y-9943D01*
X532Y-10070D01*
X697Y-10138D01*
X876Y-10139D01*
X1041Y-10070D01*
X1168Y-9944D01*
X1237Y-9778D01*
X1237Y-9599D01*
X1237Y-10599D01*
X1169Y-10434D01*
X1042Y-10307D01*
X877Y-10239D01*
X698Y-10238D01*
X532Y-10307D01*
X406Y-10433D01*
X337Y-10599D01*
X337Y-10778D01*
X405Y-10943D01*
X532Y-11070D01*
X697Y-11138D01*
X876Y-11139D01*
X1041Y-11070D01*
X1168Y-10944D01*
X1237Y-10778D01*
X1237Y-10599D01*
X1237Y-11599D01*
X1169Y-11434D01*
X1042Y-11307D01*
X877Y-11239D01*
X698Y-11238D01*
X532Y-11307D01*
X406Y-11433D01*
X337Y-11599D01*
X337Y-11778D01*
X405Y-11943D01*
X532Y-12070D01*
X697Y-12138D01*
X876Y-12139D01*
X1041Y-12070D01*
X1168Y-11944D01*
X1237Y-11778D01*
X1237Y-11599D01*
X1237Y-12599D01*
X1169Y-12434D01*
X1042Y-12307D01*
X877Y-12239D01*
X698Y-12238D01*
X532Y-12307D01*
X406Y-12433D01*
X337Y-12599D01*
X337Y-12778D01*
X405Y-12943D01*
X532Y-13070D01*
X697Y-13138D01*
X773Y-13138D01*
X650Y-13145D01*
X499Y-13207D01*
X472Y-13303D01*
X787Y-13618D01*
X1102Y-13303D01*
X1075Y-13207D01*
X879Y-13137D01*
X1041Y-13070D01*
X1168Y-12944D01*
X1237Y-12778D01*
X1237Y-12599D01*
X1237Y-13392D01*
X1173Y-13373D01*
X858Y-13688D01*
X1173Y-14004D01*
X1268Y-13976D01*
X1293Y-13905D01*
X1322Y-13975D01*
X1418Y-14002D01*
X1733Y-13687D01*
X1733Y-13828D01*
X1488Y-14073D01*
X1516Y-14168D01*
X1564Y-14186D01*
X1516Y-14206D01*
X1488Y-14301D01*
X1803Y-14616D01*
X2119Y-14301D01*
X2119Y-14442D01*
X1874Y-14687D01*
X2189Y-15002D01*
X2285Y-14975D01*
X2358Y-14769D01*
X2358Y-18772D01*
X2254Y-18728D01*
X2254Y-16598D01*
X2254Y-15598D01*
X2185Y-15432D01*
X2059Y-15306D01*
X1893Y-15237D01*
X1817Y-15237D01*
X1940Y-15231D01*
X2091Y-15168D01*
X2119Y-15073D01*
X1803Y-14758D01*
X1733Y-14828D01*
X1733Y-14687D01*
X1418Y-14372D01*
X1322Y-14399D01*
X1297Y-14470D01*
X1268Y-14401D01*
X1173Y-14373D01*
X1102Y-14444D01*
X1102Y-14303D01*
X1075Y-14207D01*
X1026Y-14190D01*
X1075Y-14170D01*
X1102Y-14074D01*
X787Y-13759D01*
X716Y-13830D01*
X716Y-13688D01*
X401Y-13373D01*
X306Y-13401D01*
X232Y-13607D01*
X243Y-13825D01*
X306Y-13976D01*
X401Y-14004D01*
X716Y-13688D01*
X716Y-13830D01*
X472Y-14074D01*
X499Y-14170D01*
X548Y-14187D01*
X499Y-14207D01*
X472Y-14303D01*
X787Y-14618D01*
X1102Y-14303D01*
X1102Y-14444D01*
X858Y-14688D01*
X1173Y-15004D01*
X1268Y-14976D01*
X1293Y-14905D01*
X1322Y-14975D01*
X1418Y-15002D01*
X1733Y-14687D01*
X1733Y-14828D01*
X1488Y-15073D01*
X1516Y-15168D01*
X1711Y-15238D01*
X1549Y-15305D01*
X1422Y-15432D01*
X1354Y-15597D01*
X1353Y-15776D01*
X1422Y-15941D01*
X1548Y-16068D01*
X1714Y-16137D01*
X1893Y-16137D01*
X2058Y-16069D01*
X2185Y-15942D01*
X2253Y-15777D01*
X2254Y-15598D01*
X2254Y-16598D01*
X2185Y-16432D01*
X2059Y-16306D01*
X1893Y-16237D01*
X1714Y-16237D01*
X1549Y-16305D01*
X1422Y-16432D01*
X1354Y-16597D01*
X1353Y-16776D01*
X1422Y-16941D01*
X1548Y-17068D01*
X1714Y-17137D01*
X1893Y-17137D01*
X2058Y-17069D01*
X2185Y-16942D01*
X2253Y-16777D01*
X2254Y-16598D01*
X2254Y-18728D01*
X2253Y-18728D01*
X2253Y-17957D01*
X2253Y-17357D01*
X2231Y-17302D01*
X2189Y-17260D01*
X2133Y-17237D01*
X2074Y-17237D01*
X1474Y-17237D01*
X1419Y-17260D01*
X1376Y-17302D01*
X1353Y-17357D01*
X1353Y-17417D01*
X1353Y-18017D01*
X1376Y-18072D01*
X1418Y-18114D01*
X1473Y-18137D01*
X1533Y-18137D01*
X2133Y-18137D01*
X2188Y-18114D01*
X2231Y-18072D01*
X2253Y-18017D01*
X2253Y-17957D01*
X2253Y-18728D01*
X2059Y-18648D01*
X1490Y-18647D01*
X1237Y-18752D01*
X1237Y-16599D01*
X1237Y-15599D01*
X1169Y-15434D01*
X1042Y-15307D01*
X877Y-15239D01*
X800Y-15238D01*
X924Y-15232D01*
X1075Y-15170D01*
X1102Y-15074D01*
X787Y-14759D01*
X716Y-14830D01*
X716Y-14688D01*
X401Y-14373D01*
X306Y-14401D01*
X232Y-14607D01*
X243Y-14825D01*
X306Y-14976D01*
X401Y-15004D01*
X716Y-14688D01*
X716Y-14830D01*
X472Y-15074D01*
X499Y-15170D01*
X695Y-15240D01*
X532Y-15307D01*
X406Y-15433D01*
X337Y-15599D01*
X337Y-15778D01*
X405Y-15943D01*
X532Y-16070D01*
X697Y-16138D01*
X876Y-16139D01*
X1041Y-16070D01*
X1168Y-15944D01*
X1237Y-15778D01*
X1237Y-15599D01*
X1237Y-16599D01*
X1169Y-16434D01*
X1042Y-16307D01*
X877Y-16239D01*
X698Y-16238D01*
X532Y-16307D01*
X406Y-16433D01*
X337Y-16599D01*
X337Y-16778D01*
X405Y-16943D01*
X532Y-17070D01*
X697Y-17138D01*
X876Y-17139D01*
X1041Y-17070D01*
X1168Y-16944D01*
X1237Y-16778D01*
X1237Y-16599D01*
X1237Y-18752D01*
X1237Y-18752D01*
X1237Y-17959D01*
X1237Y-17359D01*
X1214Y-17304D01*
X1172Y-17261D01*
X1117Y-17239D01*
X1057Y-17238D01*
X457Y-17238D01*
X402Y-17261D01*
X360Y-17303D01*
X337Y-17359D01*
X337Y-17418D01*
X337Y-18018D01*
X360Y-18073D01*
X402Y-18116D01*
X457Y-18138D01*
X517Y-18139D01*
X1117Y-18139D01*
X1172Y-18116D01*
X1214Y-18074D01*
X1237Y-18018D01*
X1237Y-17959D01*
X1237Y-18752D01*
X965Y-18864D01*
X562Y-19266D01*
X344Y-19791D01*
X344Y-20360D01*
X561Y-20886D01*
X963Y-21288D01*
X1488Y-21506D01*
X2057Y-21507D01*
X2582Y-21290D01*
X2985Y-20888D01*
X3203Y-20362D01*
X3203Y-19794D01*
X3203Y-20675D01*
X3176Y-20702D01*
X3153Y-20757D01*
X3153Y-20817D01*
X3153Y-21417D01*
X3176Y-21472D01*
X3218Y-21514D01*
X3273Y-21537D01*
X3333Y-21537D01*
X3933Y-21537D01*
X3988Y-21514D01*
X4031Y-21472D01*
X4053Y-21417D01*
X4053Y-21357D01*
X4053Y-21867D01*
X271Y-21867D01*
X179Y-21776D01*
X179Y-271D01*
X271Y-179D01*
X1729Y-179D01*
X1700Y-208D01*
X1638Y-302D01*
X1628Y-351D01*
X1628Y-351D01*
X1522Y-457D01*
X1454Y-622D01*
X1453Y-801D01*
X1522Y-966D01*
X1648Y-1093D01*
X1814Y-1162D01*
X1993Y-1162D01*
X2158Y-1094D01*
X2285Y-967D01*
X2353Y-802D01*
X2353Y-725D01*
X2360Y-849D01*
X2422Y-1000D01*
X2518Y-1027D01*
X2833Y-712D01*
X2827Y-706D01*
X2898Y-636D01*
X2903Y-641D01*
X2909Y-636D01*
X2980Y-706D01*
X2974Y-712D01*
X3289Y-1027D01*
X3385Y-1000D01*
X3453Y-807D01*
X3453Y-1042D01*
X3476Y-1097D01*
X3518Y-1139D01*
X3573Y-1162D01*
X3633Y-1162D01*
X4233Y-1162D01*
X4288Y-1139D01*
X4331Y-1097D01*
X4353Y-1042D01*
X4353Y-982D01*
X4353Y-494D01*
X4462Y-602D01*
X4454Y-622D01*
X4453Y-801D01*
X4522Y-966D01*
X4648Y-1093D01*
X4814Y-1162D01*
X4993Y-1162D01*
X5158Y-1094D01*
X5285Y-967D01*
X5353Y-802D01*
X5353Y-725D01*
X5360Y-849D01*
X5422Y-1000D01*
X5518Y-1027D01*
X5833Y-712D01*
X5827Y-706D01*
X5898Y-636D01*
X5903Y-641D01*
X5909Y-636D01*
X5980Y-706D01*
X5974Y-712D01*
X6289Y-1027D01*
X6385Y-1000D01*
X6453Y-807D01*
X6453Y-1042D01*
X6476Y-1097D01*
X6518Y-1139D01*
X6573Y-1162D01*
X6633Y-1162D01*
X7233Y-1162D01*
X7288Y-1139D01*
X7331Y-1097D01*
X7353Y-1042D01*
X7353Y-982D01*
X7353Y-464D01*
X7374Y-464D01*
X7476Y-567D01*
X7454Y-622D01*
X7453Y-801D01*
X7522Y-966D01*
X7648Y-1093D01*
X7814Y-1162D01*
X7993Y-1162D01*
X8158Y-1094D01*
X8285Y-967D01*
X8353Y-802D01*
X8353Y-725D01*
X8360Y-849D01*
X8422Y-1000D01*
X8518Y-1027D01*
X8833Y-712D01*
X8827Y-706D01*
X8898Y-636D01*
X8903Y-641D01*
X8909Y-636D01*
X8980Y-706D01*
X8974Y-712D01*
X9289Y-1027D01*
X9385Y-1000D01*
X9453Y-807D01*
X9453Y-1042D01*
X9476Y-1097D01*
X9518Y-1139D01*
X9573Y-1162D01*
X9633Y-1162D01*
X10233Y-1162D01*
X10288Y-1139D01*
X10331Y-1097D01*
X10353Y-1042D01*
X10353Y-982D01*
X10353Y-464D01*
X10519Y-464D01*
X10454Y-622D01*
X10453Y-801D01*
X10522Y-966D01*
X10648Y-1093D01*
X10814Y-1162D01*
X10993Y-1162D01*
X11158Y-1094D01*
X11285Y-967D01*
X11353Y-802D01*
X11353Y-725D01*
X11360Y-849D01*
X11422Y-1000D01*
X11518Y-1027D01*
X11833Y-712D01*
X11827Y-706D01*
X11898Y-636D01*
X11903Y-641D01*
X11909Y-636D01*
X11980Y-706D01*
X11974Y-712D01*
X12289Y-1027D01*
X12385Y-1000D01*
X12453Y-807D01*
X12453Y-1042D01*
X12476Y-1097D01*
X12518Y-1139D01*
X12573Y-1162D01*
X12633Y-1162D01*
X13233Y-1162D01*
X13288Y-1139D01*
X13331Y-1097D01*
X13353Y-1042D01*
X13353Y-982D01*
X13353Y-464D01*
X13519Y-464D01*
X13454Y-622D01*
X13453Y-801D01*
X13522Y-966D01*
X13557Y-1001D01*
X13557Y-1212D01*
X13557Y-2742D01*
X13583Y-2875D01*
X13658Y-2987D01*
X14262Y-3591D01*
X14375Y-3666D01*
X14507Y-3693D01*
X14640Y-3666D01*
X14753Y-3591D01*
X14828Y-3479D01*
X14854Y-3346D01*
X14828Y-3213D01*
X14753Y-3101D01*
X14250Y-2598D01*
X14250Y-1212D01*
X14250Y-1001D01*
X14285Y-967D01*
X14353Y-802D01*
X14353Y-725D01*
X14360Y-849D01*
X14422Y-1000D01*
X14518Y-1027D01*
X14833Y-712D01*
X14827Y-706D01*
X14898Y-636D01*
X14903Y-641D01*
X14909Y-636D01*
X14980Y-706D01*
X14974Y-712D01*
X15289Y-1027D01*
X15385Y-1000D01*
X15453Y-807D01*
X15453Y-1042D01*
X15476Y-1097D01*
X15518Y-1139D01*
X15573Y-1162D01*
X15633Y-1162D01*
X16233Y-1162D01*
X16288Y-1139D01*
X16331Y-1097D01*
X16353Y-1042D01*
X16353Y-982D01*
X16353Y-464D01*
X16519Y-464D01*
X16454Y-622D01*
X16453Y-801D01*
X16522Y-966D01*
X16648Y-1093D01*
X16814Y-1162D01*
X16993Y-1162D01*
X17158Y-1094D01*
X17285Y-967D01*
X17353Y-802D01*
X17353Y-725D01*
X17360Y-849D01*
X17422Y-1000D01*
X17518Y-1027D01*
X17833Y-712D01*
X17827Y-706D01*
X17898Y-636D01*
X17903Y-641D01*
X17909Y-636D01*
X17980Y-706D01*
X17974Y-712D01*
X18289Y-1027D01*
X18385Y-1000D01*
X18453Y-807D01*
X18453Y-1042D01*
X18476Y-1097D01*
X18518Y-1139D01*
X18573Y-1162D01*
X18633Y-1162D01*
X19233Y-1162D01*
X19288Y-1139D01*
X19331Y-1097D01*
X19353Y-1042D01*
X19353Y-982D01*
X19353Y-464D01*
X19519Y-464D01*
X19454Y-622D01*
X19453Y-801D01*
X19522Y-966D01*
X19648Y-1093D01*
X19814Y-1162D01*
X19993Y-1162D01*
X20158Y-1094D01*
X20285Y-967D01*
X20353Y-802D01*
X20353Y-725D01*
X20360Y-849D01*
X20422Y-1000D01*
X20518Y-1027D01*
X20833Y-712D01*
X20827Y-706D01*
X20898Y-636D01*
X20903Y-641D01*
X20909Y-636D01*
X20980Y-706D01*
X20974Y-712D01*
X21289Y-1027D01*
X21385Y-1000D01*
X21453Y-807D01*
X21453Y-1042D01*
X21476Y-1097D01*
X21518Y-1139D01*
X21573Y-1162D01*
X21633Y-1162D01*
X22233Y-1162D01*
X22288Y-1139D01*
X22331Y-1097D01*
X22353Y-1042D01*
X22353Y-982D01*
X22353Y-464D01*
X22519Y-464D01*
X22454Y-622D01*
X22453Y-801D01*
X22522Y-966D01*
X22648Y-1093D01*
X22814Y-1162D01*
X22993Y-1162D01*
X23158Y-1094D01*
X23285Y-967D01*
X23353Y-802D01*
X23353Y-725D01*
X23360Y-849D01*
X23422Y-1000D01*
X23518Y-1027D01*
X23833Y-712D01*
X23518Y-397D01*
X23422Y-424D01*
X23352Y-620D01*
X23285Y-457D01*
X23181Y-353D01*
X23169Y-293D01*
X23169Y-293D01*
X23107Y-200D01*
X23086Y-179D01*
X23740Y-179D01*
X23616Y-231D01*
X23588Y-326D01*
X23903Y-641D01*
X24219Y-326D01*
X24191Y-231D01*
X24047Y-179D01*
X33193Y-179D01*
X33285Y-271D01*
X33285Y-21776D01*
X33285Y-21776D01*
G37*
G54D23*
X33285Y-21776D02*
X33193Y-21867D01*
X32472Y-21867D01*
X32472Y-8576D01*
X32423Y-8456D01*
X32354Y-8387D01*
X32354Y-623D01*
X32285Y-457D01*
X32159Y-331D01*
X31993Y-262D01*
X31814Y-262D01*
X31649Y-330D01*
X31522Y-457D01*
X31454Y-622D01*
X31453Y-801D01*
X31522Y-966D01*
X31648Y-1093D01*
X31814Y-1162D01*
X31993Y-1162D01*
X32158Y-1094D01*
X32285Y-967D01*
X32353Y-802D01*
X32354Y-623D01*
X32354Y-8387D01*
X32331Y-8364D01*
X32211Y-8314D01*
X32080Y-8314D01*
X31960Y-8364D01*
X31931Y-8393D01*
X31354Y-8393D01*
X31354Y-623D01*
X31285Y-457D01*
X31159Y-331D01*
X30993Y-262D01*
X30814Y-262D01*
X30649Y-330D01*
X30522Y-457D01*
X30454Y-622D01*
X30453Y-801D01*
X30522Y-966D01*
X30648Y-1093D01*
X30814Y-1162D01*
X30993Y-1162D01*
X31158Y-1094D01*
X31285Y-967D01*
X31353Y-802D01*
X31354Y-623D01*
X31354Y-8393D01*
X30711Y-8393D01*
X30711Y-2246D01*
X30711Y-1198D01*
X30354Y-1198D01*
X30354Y-623D01*
X30285Y-457D01*
X30159Y-331D01*
X29993Y-262D01*
X29814Y-262D01*
X29649Y-330D01*
X29522Y-457D01*
X29454Y-622D01*
X29453Y-801D01*
X29522Y-966D01*
X29648Y-1093D01*
X29814Y-1162D01*
X29993Y-1162D01*
X30158Y-1094D01*
X30285Y-967D01*
X30353Y-802D01*
X30354Y-623D01*
X30354Y-1198D01*
X29353Y-1198D01*
X29353Y-982D01*
X29353Y-382D01*
X29331Y-327D01*
X29289Y-285D01*
X29233Y-262D01*
X29174Y-262D01*
X28574Y-262D01*
X28519Y-285D01*
X28476Y-327D01*
X28453Y-382D01*
X28453Y-442D01*
X28453Y-1042D01*
X28476Y-1097D01*
X28518Y-1139D01*
X28573Y-1162D01*
X28633Y-1162D01*
X29233Y-1162D01*
X29288Y-1139D01*
X29331Y-1097D01*
X29353Y-1042D01*
X29353Y-982D01*
X29353Y-1198D01*
X28354Y-1198D01*
X28354Y-623D01*
X28285Y-457D01*
X28159Y-331D01*
X27993Y-262D01*
X27814Y-262D01*
X27649Y-330D01*
X27522Y-457D01*
X27454Y-622D01*
X27453Y-801D01*
X27522Y-966D01*
X27648Y-1093D01*
X27814Y-1162D01*
X27993Y-1162D01*
X28158Y-1094D01*
X28285Y-967D01*
X28353Y-802D01*
X28354Y-623D01*
X28354Y-1198D01*
X27354Y-1198D01*
X27354Y-623D01*
X27285Y-457D01*
X27159Y-331D01*
X26993Y-262D01*
X26814Y-262D01*
X26649Y-330D01*
X26522Y-457D01*
X26454Y-622D01*
X26453Y-801D01*
X26522Y-966D01*
X26648Y-1093D01*
X26814Y-1162D01*
X26993Y-1162D01*
X27158Y-1094D01*
X27285Y-967D01*
X27353Y-802D01*
X27354Y-623D01*
X27354Y-1198D01*
X26375Y-1198D01*
X26375Y-2246D01*
X30711Y-2246D01*
X30711Y-8393D01*
X27165Y-8393D01*
X26185Y-8393D01*
X25844Y-8052D01*
X25764Y-7998D01*
X25669Y-7979D01*
X25395Y-7979D01*
X25066Y-7650D01*
X24995Y-7602D01*
X24911Y-7586D01*
X21399Y-7586D01*
X21257Y-7443D01*
X21257Y-7443D01*
X21257Y-7443D01*
X20514Y-6700D01*
X20514Y-5307D01*
X21173Y-4648D01*
X21407Y-4648D01*
X21471Y-4690D01*
X21555Y-4707D01*
X21909Y-4707D01*
X21909Y-4707D01*
X21993Y-4690D01*
X22064Y-4642D01*
X22511Y-4195D01*
X23216Y-4195D01*
X24412Y-5391D01*
X24412Y-5391D01*
X24483Y-5438D01*
X24566Y-5455D01*
X25027Y-5455D01*
X25219Y-5646D01*
X25219Y-5646D01*
X25266Y-5678D01*
X25290Y-5694D01*
X25290Y-5694D01*
X25374Y-5711D01*
X25374Y-5711D01*
X25688Y-5711D01*
X25688Y-5711D01*
X25772Y-5694D01*
X25843Y-5646D01*
X25917Y-5573D01*
X26240Y-5573D01*
X26240Y-5573D01*
X26323Y-5556D01*
X26394Y-5509D01*
X26808Y-5095D01*
X26808Y-5095D01*
X26855Y-5024D01*
X26872Y-4940D01*
X26872Y-4940D01*
X26872Y-4352D01*
X27000Y-4352D01*
X27058Y-4411D01*
X27178Y-4460D01*
X27308Y-4461D01*
X27429Y-4411D01*
X27521Y-4319D01*
X27571Y-4199D01*
X27571Y-4069D01*
X27521Y-3948D01*
X27429Y-3856D01*
X27309Y-3806D01*
X27179Y-3806D01*
X27059Y-3856D01*
X27000Y-3914D01*
X26751Y-3914D01*
X26668Y-3931D01*
X26597Y-3979D01*
X26498Y-4077D01*
X26451Y-4148D01*
X26434Y-4232D01*
X26434Y-4850D01*
X26370Y-4914D01*
X26370Y-4133D01*
X26370Y-3856D01*
X26399Y-3827D01*
X26449Y-3707D01*
X26449Y-3576D01*
X26399Y-3456D01*
X26354Y-3411D01*
X26354Y-623D01*
X26285Y-457D01*
X26159Y-331D01*
X25993Y-262D01*
X25814Y-262D01*
X25649Y-330D01*
X25522Y-457D01*
X25454Y-622D01*
X25453Y-801D01*
X25522Y-966D01*
X25648Y-1093D01*
X25814Y-1162D01*
X25993Y-1162D01*
X26158Y-1094D01*
X26285Y-967D01*
X26353Y-802D01*
X26354Y-623D01*
X26354Y-3411D01*
X26307Y-3364D01*
X26187Y-3314D01*
X26057Y-3314D01*
X25936Y-3364D01*
X25844Y-3456D01*
X25794Y-3576D01*
X25794Y-3706D01*
X25844Y-3826D01*
X25873Y-3855D01*
X25873Y-4133D01*
X25873Y-4446D01*
X25795Y-4368D01*
X25675Y-4318D01*
X25545Y-4318D01*
X25537Y-4321D01*
X25589Y-4270D01*
X25589Y-4270D01*
X25625Y-4216D01*
X25642Y-4189D01*
X25642Y-4189D01*
X25661Y-4094D01*
X25661Y-4094D01*
X25661Y-3796D01*
X25690Y-3768D01*
X25740Y-3648D01*
X25740Y-3517D01*
X25690Y-3397D01*
X25598Y-3305D01*
X25478Y-3255D01*
X25353Y-3255D01*
X25353Y-982D01*
X25353Y-382D01*
X25331Y-327D01*
X25289Y-285D01*
X25233Y-262D01*
X25174Y-262D01*
X24574Y-262D01*
X24519Y-285D01*
X24476Y-327D01*
X24453Y-382D01*
X24453Y-442D01*
X24453Y-698D01*
X24447Y-575D01*
X24385Y-424D01*
X24289Y-397D01*
X23974Y-712D01*
X24289Y-1027D01*
X24385Y-1000D01*
X24453Y-807D01*
X24453Y-1042D01*
X24476Y-1097D01*
X24518Y-1139D01*
X24573Y-1162D01*
X24633Y-1162D01*
X25233Y-1162D01*
X25288Y-1139D01*
X25331Y-1097D01*
X25353Y-1042D01*
X25353Y-982D01*
X25353Y-3255D01*
X25348Y-3255D01*
X25228Y-3305D01*
X25136Y-3397D01*
X25086Y-3517D01*
X25086Y-3647D01*
X25135Y-3767D01*
X25164Y-3796D01*
X25164Y-3991D01*
X24956Y-4200D01*
X24915Y-4200D01*
X24795Y-4250D01*
X24703Y-4341D01*
X24653Y-4462D01*
X24653Y-4592D01*
X24702Y-4712D01*
X24751Y-4761D01*
X24736Y-4761D01*
X24219Y-4244D01*
X24219Y-1098D01*
X23903Y-783D01*
X23588Y-1098D01*
X23616Y-1193D01*
X23822Y-1267D01*
X24040Y-1256D01*
X24191Y-1193D01*
X24219Y-1098D01*
X24219Y-4244D01*
X24164Y-4189D01*
X24164Y-2293D01*
X24164Y-1643D01*
X23640Y-1643D01*
X23640Y-2293D01*
X24164Y-2293D01*
X24164Y-4189D01*
X23560Y-3585D01*
X23489Y-3537D01*
X23405Y-3521D01*
X22097Y-3521D01*
X22097Y-2481D01*
X22097Y-1651D01*
X21573Y-1651D01*
X21573Y-2481D01*
X22097Y-2481D01*
X22097Y-3521D01*
X21515Y-3521D01*
X21219Y-3521D01*
X21219Y-1098D01*
X20903Y-783D01*
X20588Y-1098D01*
X20616Y-1193D01*
X20822Y-1267D01*
X21040Y-1256D01*
X21191Y-1193D01*
X21219Y-1098D01*
X21219Y-3521D01*
X21113Y-3521D01*
X21113Y-2332D01*
X21113Y-1682D01*
X20589Y-1682D01*
X20589Y-2332D01*
X21113Y-2332D01*
X21113Y-3521D01*
X20944Y-3521D01*
X20861Y-3537D01*
X20790Y-3585D01*
X19608Y-4766D01*
X19561Y-4837D01*
X19544Y-4921D01*
X19544Y-7047D01*
X19561Y-7131D01*
X19608Y-7202D01*
X20103Y-7696D01*
X20011Y-7734D01*
X19946Y-7799D01*
X19896Y-7809D01*
X19872Y-7825D01*
X19825Y-7857D01*
X19145Y-8537D01*
X19145Y-2481D01*
X19145Y-1651D01*
X18620Y-1651D01*
X18620Y-2481D01*
X19145Y-2481D01*
X19145Y-8537D01*
X19077Y-8605D01*
X19030Y-8676D01*
X19013Y-8759D01*
X19013Y-9251D01*
X19030Y-9335D01*
X19077Y-9406D01*
X19121Y-9450D01*
X19121Y-9533D01*
X19171Y-9653D01*
X19263Y-9745D01*
X19282Y-9753D01*
X19239Y-9855D01*
X19239Y-9986D01*
X19289Y-10106D01*
X19350Y-10167D01*
X19309Y-10208D01*
X19259Y-10328D01*
X19259Y-10458D01*
X19309Y-10578D01*
X19401Y-10670D01*
X19521Y-10720D01*
X19651Y-10720D01*
X19771Y-10671D01*
X19863Y-10579D01*
X19913Y-10459D01*
X19913Y-10376D01*
X20878Y-9411D01*
X23641Y-9411D01*
X23641Y-9411D01*
X23725Y-9395D01*
X23796Y-9347D01*
X24667Y-8476D01*
X24758Y-8476D01*
X24750Y-8487D01*
X24731Y-8582D01*
X24731Y-9070D01*
X20763Y-13038D01*
X20316Y-13038D01*
X20366Y-12919D01*
X20366Y-12789D01*
X20316Y-12669D01*
X20224Y-12577D01*
X20104Y-12527D01*
X20063Y-12527D01*
X18219Y-10682D01*
X18219Y-1098D01*
X17903Y-783D01*
X17588Y-1098D01*
X17616Y-1193D01*
X17822Y-1267D01*
X18040Y-1256D01*
X18191Y-1193D01*
X18219Y-1098D01*
X18219Y-10682D01*
X18160Y-10624D01*
X18160Y-2293D01*
X18160Y-1643D01*
X17636Y-1643D01*
X17636Y-2293D01*
X18160Y-2293D01*
X18160Y-10624D01*
X16868Y-9332D01*
X16787Y-9278D01*
X16692Y-9259D01*
X16311Y-9259D01*
X16311Y-5295D01*
X16285Y-5162D01*
X16209Y-5050D01*
X16097Y-4974D01*
X16093Y-4974D01*
X16093Y-2481D01*
X16093Y-1651D01*
X15569Y-1651D01*
X15569Y-2481D01*
X16093Y-2481D01*
X16093Y-4974D01*
X15964Y-4948D01*
X15831Y-4974D01*
X15719Y-5050D01*
X15368Y-5401D01*
X15219Y-5401D01*
X15219Y-1098D01*
X14903Y-783D01*
X14588Y-1098D01*
X14616Y-1193D01*
X14822Y-1267D01*
X15040Y-1256D01*
X15191Y-1193D01*
X15219Y-1098D01*
X15219Y-5401D01*
X15129Y-5401D01*
X15129Y-2372D01*
X15129Y-1722D01*
X14604Y-1722D01*
X14604Y-2372D01*
X15129Y-2372D01*
X15129Y-5401D01*
X13141Y-5401D01*
X13141Y-2481D01*
X13141Y-1651D01*
X12616Y-1651D01*
X12616Y-2481D01*
X13141Y-2481D01*
X13141Y-5401D01*
X12219Y-5401D01*
X12219Y-1098D01*
X11903Y-783D01*
X11588Y-1098D01*
X11616Y-1193D01*
X11822Y-1267D01*
X12040Y-1256D01*
X12191Y-1193D01*
X12219Y-1098D01*
X12219Y-5401D01*
X12137Y-5401D01*
X12137Y-2411D01*
X12137Y-1761D01*
X11612Y-1761D01*
X11612Y-2411D01*
X12137Y-2411D01*
X12137Y-5401D01*
X10188Y-5401D01*
X10188Y-2481D01*
X10188Y-1651D01*
X9663Y-1651D01*
X9663Y-2481D01*
X10188Y-2481D01*
X10188Y-5401D01*
X9219Y-5401D01*
X9219Y-1098D01*
X8903Y-783D01*
X8588Y-1098D01*
X8616Y-1193D01*
X8822Y-1267D01*
X9040Y-1256D01*
X9191Y-1193D01*
X9219Y-1098D01*
X9219Y-5401D01*
X9145Y-5401D01*
X9145Y-2411D01*
X9145Y-1761D01*
X8620Y-1761D01*
X8620Y-2411D01*
X9145Y-2411D01*
X9145Y-5401D01*
X8090Y-5401D01*
X7957Y-5427D01*
X7845Y-5502D01*
X7845Y-5502D01*
X7845Y-5502D01*
X7137Y-6210D01*
X7137Y-2580D01*
X7137Y-1750D01*
X6612Y-1750D01*
X6612Y-2580D01*
X7137Y-2580D01*
X7137Y-6210D01*
X6219Y-7128D01*
X6219Y-1098D01*
X5903Y-783D01*
X5588Y-1098D01*
X5616Y-1193D01*
X5822Y-1267D01*
X6040Y-1256D01*
X6191Y-1193D01*
X6219Y-1098D01*
X6219Y-7128D01*
X6152Y-7195D01*
X6152Y-2411D01*
X6152Y-1761D01*
X5628Y-1761D01*
X5628Y-2411D01*
X6152Y-2411D01*
X6152Y-7195D01*
X4145Y-9202D01*
X4145Y-2580D01*
X4145Y-1750D01*
X3620Y-1750D01*
X3620Y-2580D01*
X4145Y-2580D01*
X4145Y-9202D01*
X4007Y-9340D01*
X3233Y-9340D01*
X3233Y-4204D01*
X3219Y-4169D01*
X3219Y-1098D01*
X2903Y-783D01*
X2588Y-1098D01*
X2616Y-1193D01*
X2822Y-1267D01*
X3040Y-1256D01*
X3191Y-1193D01*
X3219Y-1098D01*
X3219Y-4169D01*
X3160Y-4027D01*
X3160Y-2332D01*
X3160Y-1682D01*
X2636Y-1682D01*
X2636Y-2332D01*
X3160Y-2332D01*
X3160Y-4027D01*
X3016Y-3678D01*
X2614Y-3276D01*
X2089Y-3058D01*
X1520Y-3057D01*
X1353Y-3126D01*
X1353Y-982D01*
X1353Y-382D01*
X1331Y-327D01*
X1289Y-285D01*
X1233Y-262D01*
X1174Y-262D01*
X574Y-262D01*
X519Y-285D01*
X476Y-327D01*
X453Y-382D01*
X453Y-442D01*
X453Y-1042D01*
X476Y-1097D01*
X518Y-1139D01*
X573Y-1162D01*
X633Y-1162D01*
X1233Y-1162D01*
X1288Y-1139D01*
X1331Y-1097D01*
X1353Y-1042D01*
X1353Y-982D01*
X1353Y-3126D01*
X1152Y-3209D01*
X1152Y-2541D01*
X1152Y-1710D01*
X628Y-1710D01*
X628Y-2541D01*
X1152Y-2541D01*
X1152Y-3209D01*
X995Y-3274D01*
X592Y-3676D01*
X374Y-4201D01*
X374Y-4770D01*
X591Y-5296D01*
X993Y-5698D01*
X1518Y-5916D01*
X2087Y-5917D01*
X2612Y-5700D01*
X3015Y-5298D01*
X3233Y-4772D01*
X3233Y-4204D01*
X3233Y-9340D01*
X2254Y-9340D01*
X2254Y-8598D01*
X2254Y-7598D01*
X2185Y-7432D01*
X2059Y-7306D01*
X1893Y-7237D01*
X1714Y-7237D01*
X1549Y-7305D01*
X1422Y-7432D01*
X1354Y-7597D01*
X1353Y-7776D01*
X1422Y-7941D01*
X1548Y-8068D01*
X1714Y-8137D01*
X1893Y-8137D01*
X2058Y-8069D01*
X2185Y-7942D01*
X2253Y-7777D01*
X2254Y-7598D01*
X2254Y-8598D01*
X2185Y-8432D01*
X2059Y-8306D01*
X1893Y-8237D01*
X1714Y-8237D01*
X1549Y-8305D01*
X1422Y-8432D01*
X1354Y-8597D01*
X1353Y-8776D01*
X1422Y-8941D01*
X1548Y-9068D01*
X1714Y-9137D01*
X1893Y-9137D01*
X2058Y-9069D01*
X2185Y-8942D01*
X2253Y-8777D01*
X2254Y-8598D01*
X2254Y-9340D01*
X2093Y-9340D01*
X2059Y-9306D01*
X1893Y-9237D01*
X1714Y-9237D01*
X1549Y-9305D01*
X1422Y-9432D01*
X1354Y-9597D01*
X1353Y-9776D01*
X1422Y-9941D01*
X1548Y-10068D01*
X1714Y-10137D01*
X1893Y-10137D01*
X2058Y-10069D01*
X2093Y-10034D01*
X4151Y-10034D01*
X4283Y-10007D01*
X4396Y-9932D01*
X8234Y-6094D01*
X15511Y-6094D01*
X15644Y-6068D01*
X15757Y-5993D01*
X16209Y-5540D01*
X16285Y-5428D01*
X16311Y-5295D01*
X16311Y-9259D01*
X15824Y-9259D01*
X15795Y-9230D01*
X15675Y-9180D01*
X15545Y-9180D01*
X15425Y-9230D01*
X15333Y-9322D01*
X15283Y-9442D01*
X15283Y-9572D01*
X15332Y-9692D01*
X15424Y-9785D01*
X15544Y-9834D01*
X15675Y-9835D01*
X15795Y-9785D01*
X15824Y-9756D01*
X16590Y-9756D01*
X18650Y-11817D01*
X18574Y-11848D01*
X18482Y-11940D01*
X18432Y-12060D01*
X18432Y-12190D01*
X18482Y-12311D01*
X18574Y-12403D01*
X18694Y-12453D01*
X18735Y-12453D01*
X18746Y-12464D01*
X18659Y-12550D01*
X18609Y-12670D01*
X18609Y-12801D01*
X18659Y-12920D01*
X18633Y-12931D01*
X18541Y-13023D01*
X18491Y-13143D01*
X18491Y-13273D01*
X18541Y-13393D01*
X18633Y-13485D01*
X18753Y-13535D01*
X18794Y-13535D01*
X19170Y-13911D01*
X19121Y-14029D01*
X19121Y-14159D01*
X19171Y-14279D01*
X19263Y-14371D01*
X19383Y-14421D01*
X19513Y-14421D01*
X19633Y-14372D01*
X19726Y-14280D01*
X19775Y-14159D01*
X19776Y-14029D01*
X19726Y-13909D01*
X19697Y-13880D01*
X19697Y-13847D01*
X19804Y-13955D01*
X19804Y-13955D01*
X19858Y-13991D01*
X19885Y-14009D01*
X19885Y-14009D01*
X19980Y-14027D01*
X20885Y-14027D01*
X20885Y-14027D01*
X20975Y-14010D01*
X21021Y-14122D01*
X21113Y-14214D01*
X21233Y-14264D01*
X21364Y-14264D01*
X21484Y-14214D01*
X21576Y-14122D01*
X21626Y-14002D01*
X21626Y-13872D01*
X21576Y-13751D01*
X21484Y-13659D01*
X21394Y-13622D01*
X22484Y-12531D01*
X22578Y-12531D01*
X22578Y-12531D01*
X22673Y-12512D01*
X22754Y-12459D01*
X23974Y-11239D01*
X23974Y-11240D01*
X23974Y-12453D01*
X23896Y-12530D01*
X23846Y-12651D01*
X23846Y-12781D01*
X23895Y-12901D01*
X23976Y-12982D01*
X23974Y-12983D01*
X23924Y-13103D01*
X23924Y-13234D01*
X23974Y-13354D01*
X24035Y-13415D01*
X23994Y-13456D01*
X23944Y-13576D01*
X23944Y-13706D01*
X23994Y-13826D01*
X24086Y-13918D01*
X24178Y-13957D01*
X24141Y-13993D01*
X24102Y-13993D01*
X24043Y-13935D01*
X23923Y-13885D01*
X23793Y-13885D01*
X23673Y-13935D01*
X23581Y-14027D01*
X23531Y-14147D01*
X23531Y-14277D01*
X23580Y-14397D01*
X23672Y-14489D01*
X23676Y-14491D01*
X23594Y-14525D01*
X23535Y-14584D01*
X18850Y-14584D01*
X15002Y-10736D01*
X15002Y-9362D01*
X15587Y-8776D01*
X15587Y-8776D01*
X15635Y-8705D01*
X15645Y-8656D01*
X15710Y-8591D01*
X15760Y-8470D01*
X15760Y-8340D01*
X15710Y-8220D01*
X15618Y-8128D01*
X15498Y-8078D01*
X15368Y-8078D01*
X15247Y-8127D01*
X15155Y-8219D01*
X15105Y-8340D01*
X15105Y-8470D01*
X15155Y-8590D01*
X14628Y-9116D01*
X14581Y-9187D01*
X14564Y-9271D01*
X14564Y-10826D01*
X14581Y-10910D01*
X14628Y-10981D01*
X18605Y-14957D01*
X18605Y-14957D01*
X18652Y-14989D01*
X18676Y-15005D01*
X18676Y-15005D01*
X18686Y-15007D01*
X18075Y-15007D01*
X15943Y-12875D01*
X15862Y-12821D01*
X15767Y-12802D01*
X15371Y-12802D01*
X15343Y-12773D01*
X15222Y-12724D01*
X15092Y-12723D01*
X14972Y-12773D01*
X14880Y-12865D01*
X14830Y-12985D01*
X14830Y-13115D01*
X14879Y-13236D01*
X14909Y-13265D01*
X14909Y-13853D01*
X14365Y-14397D01*
X13794Y-14397D01*
X13794Y-12078D01*
X13794Y-11478D01*
X13772Y-11423D01*
X13729Y-11381D01*
X13674Y-11358D01*
X13615Y-11358D01*
X13240Y-11358D01*
X13294Y-11336D01*
X13364Y-11266D01*
X13402Y-11174D01*
X13402Y-11074D01*
X13402Y-10573D01*
X13402Y-10474D01*
X13364Y-10382D01*
X13294Y-10312D01*
X13202Y-10274D01*
X12965Y-10274D01*
X12902Y-10336D01*
X12902Y-10774D01*
X13340Y-10774D01*
X13402Y-10711D01*
X13402Y-10573D01*
X13402Y-11074D01*
X13402Y-10936D01*
X13340Y-10874D01*
X12902Y-10874D01*
X12902Y-11311D01*
X12965Y-11374D01*
X12976Y-11374D01*
X12960Y-11381D01*
X12917Y-11423D01*
X12894Y-11478D01*
X12894Y-11538D01*
X12894Y-12138D01*
X12917Y-12193D01*
X12959Y-12235D01*
X13014Y-12258D01*
X13074Y-12258D01*
X13674Y-12258D01*
X13729Y-12235D01*
X13771Y-12193D01*
X13794Y-12138D01*
X13794Y-12078D01*
X13794Y-14397D01*
X12810Y-14397D01*
X12810Y-12078D01*
X12810Y-11478D01*
X12787Y-11423D01*
X12745Y-11381D01*
X12728Y-11374D01*
X12740Y-11374D01*
X12802Y-11311D01*
X12802Y-10874D01*
X12802Y-10774D01*
X12802Y-10336D01*
X12740Y-10274D01*
X12503Y-10274D01*
X12411Y-10312D01*
X12340Y-10382D01*
X12302Y-10474D01*
X12302Y-10573D01*
X12302Y-10711D01*
X12365Y-10774D01*
X12802Y-10774D01*
X12802Y-10874D01*
X12365Y-10874D01*
X12302Y-10936D01*
X12302Y-11074D01*
X12302Y-11174D01*
X12340Y-11266D01*
X12411Y-11336D01*
X12464Y-11358D01*
X12030Y-11358D01*
X11975Y-11381D01*
X11933Y-11423D01*
X11910Y-11478D01*
X11910Y-11538D01*
X11910Y-12138D01*
X11933Y-12193D01*
X11975Y-12235D01*
X12030Y-12258D01*
X12090Y-12258D01*
X12690Y-12258D01*
X12745Y-12235D01*
X12787Y-12193D01*
X12810Y-12138D01*
X12810Y-12078D01*
X12810Y-14397D01*
X10161Y-14397D01*
X10136Y-14371D01*
X8975Y-13211D01*
X11614Y-13211D01*
X11614Y-13211D01*
X11697Y-13194D01*
X11768Y-13146D01*
X11950Y-12964D01*
X12033Y-12965D01*
X12153Y-12915D01*
X12245Y-12823D01*
X12295Y-12703D01*
X12295Y-12573D01*
X12246Y-12452D01*
X12154Y-12360D01*
X12033Y-12310D01*
X11903Y-12310D01*
X11783Y-12360D01*
X11691Y-12452D01*
X11641Y-12572D01*
X11641Y-12655D01*
X11523Y-12773D01*
X8537Y-12773D01*
X7964Y-12200D01*
X7965Y-12159D01*
X7943Y-12108D01*
X9790Y-12108D01*
X9801Y-12133D01*
X9893Y-12226D01*
X10013Y-12275D01*
X10143Y-12276D01*
X10263Y-12226D01*
X10355Y-12134D01*
X10405Y-12014D01*
X10405Y-11884D01*
X10356Y-11763D01*
X10264Y-11671D01*
X10182Y-11637D01*
X10189Y-11620D01*
X10189Y-11490D01*
X10139Y-11370D01*
X10047Y-11277D01*
X9927Y-11228D01*
X9797Y-11227D01*
X9677Y-11277D01*
X9618Y-11336D01*
X6338Y-11336D01*
X6254Y-11352D01*
X6183Y-11400D01*
X5470Y-12113D01*
X5387Y-12113D01*
X5267Y-12163D01*
X5178Y-12252D01*
X5139Y-12157D01*
X5047Y-12065D01*
X4927Y-12015D01*
X4797Y-12015D01*
X4793Y-12016D01*
X4795Y-12007D01*
X4769Y-11875D01*
X4694Y-11762D01*
X4581Y-11687D01*
X4448Y-11661D01*
X4316Y-11687D01*
X4203Y-11762D01*
X4065Y-11900D01*
X3990Y-12012D01*
X3964Y-12145D01*
X3964Y-12696D01*
X3990Y-12829D01*
X4065Y-12942D01*
X4656Y-13532D01*
X4768Y-13607D01*
X4768Y-13607D01*
X4901Y-13634D01*
X6338Y-13634D01*
X6437Y-13614D01*
X6771Y-13614D01*
X6904Y-13588D01*
X7016Y-13512D01*
X7795Y-12733D01*
X9712Y-14650D01*
X9712Y-14665D01*
X9731Y-14760D01*
X9784Y-14841D01*
X9968Y-15024D01*
X9968Y-18164D01*
X9954Y-18178D01*
X9923Y-18102D01*
X9831Y-18010D01*
X9711Y-17960D01*
X9628Y-17960D01*
X8998Y-17330D01*
X8998Y-16259D01*
X8981Y-16176D01*
X8934Y-16105D01*
X8934Y-16105D01*
X7587Y-14758D01*
X7665Y-14726D01*
X7757Y-14634D01*
X7807Y-14514D01*
X7807Y-14384D01*
X7757Y-14263D01*
X7665Y-14171D01*
X7545Y-14121D01*
X7482Y-14121D01*
X7202Y-13841D01*
X7131Y-13793D01*
X7047Y-13777D01*
X5846Y-13777D01*
X5762Y-13793D01*
X5739Y-13809D01*
X5691Y-13841D01*
X5258Y-14274D01*
X5229Y-14318D01*
X5229Y-14103D01*
X5164Y-13946D01*
X5044Y-13827D01*
X4888Y-13762D01*
X4719Y-13762D01*
X4563Y-13826D01*
X4443Y-13946D01*
X4379Y-14102D01*
X4378Y-14271D01*
X4443Y-14427D01*
X4562Y-14547D01*
X4719Y-14612D01*
X4888Y-14612D01*
X5044Y-14547D01*
X5164Y-14428D01*
X5228Y-14272D01*
X5229Y-14103D01*
X5229Y-14318D01*
X5211Y-14345D01*
X5194Y-14429D01*
X5194Y-16019D01*
X5164Y-15946D01*
X5044Y-15827D01*
X4888Y-15762D01*
X4719Y-15762D01*
X4563Y-15826D01*
X4443Y-15946D01*
X4379Y-16102D01*
X4378Y-16271D01*
X4443Y-16427D01*
X4562Y-16547D01*
X4719Y-16612D01*
X4790Y-16612D01*
X4574Y-16828D01*
X3826Y-16828D01*
X3768Y-16770D01*
X3648Y-16720D01*
X3517Y-16720D01*
X3397Y-16769D01*
X3305Y-16861D01*
X3255Y-16981D01*
X3255Y-17112D01*
X3305Y-17232D01*
X3397Y-17324D01*
X3517Y-17374D01*
X3647Y-17374D01*
X3767Y-17324D01*
X3826Y-17266D01*
X4665Y-17266D01*
X4665Y-17266D01*
X4749Y-17249D01*
X4820Y-17202D01*
X5568Y-16453D01*
X5568Y-16453D01*
X5599Y-16406D01*
X5615Y-16382D01*
X5615Y-16382D01*
X5632Y-16299D01*
X5632Y-16299D01*
X5632Y-15614D01*
X5644Y-15674D01*
X5691Y-15745D01*
X6601Y-16655D01*
X6601Y-16738D01*
X6651Y-16858D01*
X6743Y-16950D01*
X6863Y-17000D01*
X6993Y-17000D01*
X7114Y-16950D01*
X7206Y-16858D01*
X7256Y-16738D01*
X7256Y-16608D01*
X7206Y-16488D01*
X7114Y-16396D01*
X6994Y-16346D01*
X6911Y-16346D01*
X6065Y-15499D01*
X6065Y-14771D01*
X6123Y-14713D01*
X6145Y-14659D01*
X6231Y-14745D01*
X6351Y-14795D01*
X6434Y-14795D01*
X7340Y-15700D01*
X7340Y-16830D01*
X7356Y-16914D01*
X7404Y-16985D01*
X8865Y-18446D01*
X8865Y-18475D01*
X8837Y-18446D01*
X8756Y-18392D01*
X8661Y-18373D01*
X4630Y-18373D01*
X4579Y-18322D01*
X4579Y-18281D01*
X4529Y-18161D01*
X4437Y-18069D01*
X4317Y-18019D01*
X4187Y-18019D01*
X4066Y-18068D01*
X3974Y-18160D01*
X3924Y-18281D01*
X3924Y-18411D01*
X3974Y-18531D01*
X4066Y-18623D01*
X4186Y-18673D01*
X4227Y-18673D01*
X4351Y-18797D01*
X4351Y-18797D01*
X4405Y-18833D01*
X4432Y-18851D01*
X4432Y-18851D01*
X4527Y-18870D01*
X8558Y-18870D01*
X8721Y-19033D01*
X8802Y-19087D01*
X8802Y-19087D01*
X8818Y-19090D01*
X8897Y-19106D01*
X9625Y-19106D01*
X9625Y-19106D01*
X9721Y-19087D01*
X9801Y-19033D01*
X10392Y-18443D01*
X10392Y-18443D01*
X10446Y-18362D01*
X10446Y-18362D01*
X10449Y-18347D01*
X10464Y-18267D01*
X10464Y-18267D01*
X10464Y-15521D01*
X10617Y-15673D01*
X10617Y-17165D01*
X10617Y-17952D01*
X10636Y-18047D01*
X10690Y-18128D01*
X12088Y-19526D01*
X12168Y-19579D01*
X12168Y-19579D01*
X12184Y-19583D01*
X12263Y-19598D01*
X12285Y-19598D01*
X12314Y-19627D01*
X12434Y-19677D01*
X12564Y-19677D01*
X12685Y-19627D01*
X12777Y-19535D01*
X12827Y-19415D01*
X12827Y-19285D01*
X12777Y-19165D01*
X12685Y-19073D01*
X12565Y-19023D01*
X12435Y-19023D01*
X12330Y-19066D01*
X11474Y-18209D01*
X11548Y-18240D01*
X11678Y-18240D01*
X11799Y-18190D01*
X11891Y-18098D01*
X11941Y-17978D01*
X11941Y-17848D01*
X11891Y-17728D01*
X11799Y-17636D01*
X11679Y-17586D01*
X11638Y-17586D01*
X11114Y-17062D01*
X11114Y-15570D01*
X11098Y-15491D01*
X11095Y-15475D01*
X11095Y-15475D01*
X11041Y-15395D01*
X11041Y-15395D01*
X10540Y-14894D01*
X14468Y-14894D01*
X14468Y-14894D01*
X14563Y-14875D01*
X14644Y-14821D01*
X15333Y-14132D01*
X15333Y-14132D01*
X15369Y-14078D01*
X15386Y-14051D01*
X15386Y-14051D01*
X15405Y-13956D01*
X15405Y-13956D01*
X15405Y-13299D01*
X15664Y-13299D01*
X17796Y-15431D01*
X17796Y-15431D01*
X17796Y-15431D01*
X18446Y-16081D01*
X18446Y-16081D01*
X18526Y-16135D01*
X18526Y-16135D01*
X18542Y-16138D01*
X18622Y-16153D01*
X19818Y-16153D01*
X20676Y-17012D01*
X20676Y-19003D01*
X20057Y-19003D01*
X20090Y-18923D01*
X20091Y-18793D01*
X20041Y-18673D01*
X19949Y-18581D01*
X19829Y-18531D01*
X19698Y-18531D01*
X19578Y-18580D01*
X19527Y-18631D01*
X19437Y-18541D01*
X19347Y-18504D01*
X19427Y-18423D01*
X19427Y-18423D01*
X19463Y-18369D01*
X19481Y-18343D01*
X19481Y-18343D01*
X19500Y-18248D01*
X19500Y-18248D01*
X19500Y-17084D01*
X19529Y-17055D01*
X19551Y-17002D01*
X19558Y-17009D01*
X19678Y-17059D01*
X19808Y-17059D01*
X19929Y-17009D01*
X20021Y-16917D01*
X20071Y-16797D01*
X20071Y-16667D01*
X20021Y-16547D01*
X19929Y-16455D01*
X19809Y-16405D01*
X19768Y-16405D01*
X19683Y-16320D01*
X19602Y-16266D01*
X19507Y-16247D01*
X18582Y-16247D01*
X18503Y-16263D01*
X18487Y-16266D01*
X18407Y-16320D01*
X18381Y-16346D01*
X14370Y-16346D01*
X14290Y-16361D01*
X14275Y-16364D01*
X14194Y-16418D01*
X14109Y-16503D01*
X13422Y-16503D01*
X13394Y-16474D01*
X13274Y-16424D01*
X13143Y-16424D01*
X13023Y-16474D01*
X12931Y-16566D01*
X12881Y-16686D01*
X12881Y-16816D01*
X12931Y-16937D01*
X12972Y-16978D01*
X12931Y-17019D01*
X12881Y-17139D01*
X12881Y-17180D01*
X12658Y-17403D01*
X12605Y-17483D01*
X12586Y-17578D01*
X12586Y-17849D01*
X12540Y-17895D01*
X12487Y-17975D01*
X12468Y-18070D01*
X12468Y-18602D01*
X12487Y-18697D01*
X12540Y-18778D01*
X12836Y-19073D01*
X12836Y-19073D01*
X12916Y-19127D01*
X12916Y-19127D01*
X12932Y-19130D01*
X13011Y-19146D01*
X17038Y-19146D01*
X16529Y-19654D01*
X16507Y-19663D01*
X16415Y-19755D01*
X16365Y-19875D01*
X16365Y-20005D01*
X16384Y-20051D01*
X16337Y-20051D01*
X16337Y-20656D01*
X16861Y-20656D01*
X16861Y-20225D01*
X16877Y-20218D01*
X16970Y-20126D01*
X17020Y-20006D01*
X17020Y-19876D01*
X17017Y-19869D01*
X17386Y-19500D01*
X19724Y-19500D01*
X20787Y-19500D01*
X20787Y-19500D01*
X20882Y-19481D01*
X20963Y-19427D01*
X21100Y-19289D01*
X21100Y-19289D01*
X21136Y-19235D01*
X21154Y-19209D01*
X21154Y-19209D01*
X21173Y-19114D01*
X21173Y-19114D01*
X21173Y-16909D01*
X21154Y-16814D01*
X21154Y-16814D01*
X21136Y-16787D01*
X21100Y-16733D01*
X21100Y-16733D01*
X20096Y-15729D01*
X20016Y-15675D01*
X19921Y-15657D01*
X18724Y-15657D01*
X18572Y-15504D01*
X21811Y-15504D01*
X21811Y-15504D01*
X21820Y-15502D01*
X21824Y-15504D01*
X21954Y-15504D01*
X22074Y-15454D01*
X22166Y-15362D01*
X22216Y-15242D01*
X22216Y-15112D01*
X22179Y-15022D01*
X23535Y-15022D01*
X23593Y-15080D01*
X23714Y-15130D01*
X23844Y-15130D01*
X23964Y-15080D01*
X24056Y-14988D01*
X24106Y-14868D01*
X24106Y-14738D01*
X24057Y-14618D01*
X23965Y-14525D01*
X23960Y-14524D01*
X24043Y-14490D01*
X24102Y-14431D01*
X24232Y-14431D01*
X24232Y-14431D01*
X24316Y-14414D01*
X24387Y-14367D01*
X25144Y-13609D01*
X25331Y-13422D01*
X25331Y-13422D01*
X25379Y-13351D01*
X25396Y-13267D01*
X25396Y-13267D01*
X25396Y-12039D01*
X27551Y-9884D01*
X30531Y-9884D01*
X30531Y-9884D01*
X30615Y-9867D01*
X30686Y-9820D01*
X30986Y-9520D01*
X31068Y-9520D01*
X31189Y-9470D01*
X31281Y-9378D01*
X31331Y-9258D01*
X31331Y-9128D01*
X31281Y-9007D01*
X31189Y-8915D01*
X31127Y-8890D01*
X31931Y-8890D01*
X31960Y-8918D01*
X32080Y-8968D01*
X32210Y-8968D01*
X32330Y-8919D01*
X32422Y-8827D01*
X32472Y-8707D01*
X32472Y-8576D01*
X32472Y-21867D01*
X31882Y-21867D01*
X31882Y-12336D01*
X31832Y-12216D01*
X31740Y-12124D01*
X31620Y-12074D01*
X31490Y-12074D01*
X31394Y-12113D01*
X31003Y-12113D01*
X30893Y-12135D01*
X30800Y-12198D01*
X28876Y-14121D01*
X28733Y-14121D01*
X28733Y-12304D01*
X28516Y-11778D01*
X28114Y-11376D01*
X27589Y-11158D01*
X27020Y-11157D01*
X26495Y-11374D01*
X26092Y-11776D01*
X25874Y-12301D01*
X25874Y-12870D01*
X26091Y-13396D01*
X26493Y-13798D01*
X27018Y-14016D01*
X27587Y-14017D01*
X28112Y-13800D01*
X28515Y-13398D01*
X28733Y-12872D01*
X28733Y-12304D01*
X28733Y-14121D01*
X27165Y-14121D01*
X27055Y-14143D01*
X26961Y-14205D01*
X26897Y-14269D01*
X26803Y-14309D01*
X26710Y-14401D01*
X26661Y-14521D01*
X26660Y-14651D01*
X26710Y-14771D01*
X26802Y-14863D01*
X26922Y-14913D01*
X27052Y-14913D01*
X27173Y-14864D01*
X27265Y-14772D01*
X27296Y-14697D01*
X28996Y-14697D01*
X29106Y-14675D01*
X29106Y-14675D01*
X29199Y-14612D01*
X31123Y-12689D01*
X31395Y-12689D01*
X31489Y-12728D01*
X31619Y-12728D01*
X31740Y-12679D01*
X31832Y-12587D01*
X31882Y-12466D01*
X31882Y-12336D01*
X31882Y-21867D01*
X29884Y-21867D01*
X29884Y-20892D01*
X29811Y-20715D01*
X29676Y-20580D01*
X29499Y-20507D01*
X29308Y-20507D01*
X29132Y-20580D01*
X28997Y-20715D01*
X28960Y-20803D01*
X28910Y-20681D01*
X28811Y-20650D01*
X28740Y-20721D01*
X28740Y-20579D01*
X28709Y-20481D01*
X28492Y-20402D01*
X28262Y-20413D01*
X28098Y-20481D01*
X28067Y-20579D01*
X28403Y-20916D01*
X28740Y-20579D01*
X28740Y-20721D01*
X28474Y-20987D01*
X28811Y-21324D01*
X28910Y-21293D01*
X28957Y-21163D01*
X28996Y-21258D01*
X29131Y-21394D01*
X29308Y-21467D01*
X29498Y-21467D01*
X29675Y-21394D01*
X29810Y-21259D01*
X29883Y-21083D01*
X29884Y-20892D01*
X29884Y-21867D01*
X28740Y-21867D01*
X28740Y-21395D01*
X28403Y-21058D01*
X28333Y-21128D01*
X28333Y-20987D01*
X27996Y-20650D01*
X27897Y-20681D01*
X27819Y-20898D01*
X27829Y-21128D01*
X27897Y-21293D01*
X27996Y-21324D01*
X28333Y-20987D01*
X28333Y-21128D01*
X28067Y-21395D01*
X28098Y-21493D01*
X28314Y-21572D01*
X28545Y-21561D01*
X28709Y-21493D01*
X28740Y-21395D01*
X28740Y-21867D01*
X27684Y-21867D01*
X27684Y-20892D01*
X27611Y-20715D01*
X27476Y-20580D01*
X27299Y-20507D01*
X27108Y-20507D01*
X26932Y-20580D01*
X26797Y-20715D01*
X26760Y-20803D01*
X26710Y-20681D01*
X26611Y-20650D01*
X26540Y-20721D01*
X26540Y-20579D01*
X26509Y-20481D01*
X26292Y-20402D01*
X26062Y-20413D01*
X25898Y-20481D01*
X25867Y-20579D01*
X26203Y-20916D01*
X26540Y-20579D01*
X26540Y-20721D01*
X26274Y-20987D01*
X26611Y-21324D01*
X26710Y-21293D01*
X26757Y-21163D01*
X26796Y-21258D01*
X26931Y-21394D01*
X27108Y-21467D01*
X27298Y-21467D01*
X27475Y-21394D01*
X27610Y-21259D01*
X27683Y-21083D01*
X27684Y-20892D01*
X27684Y-21867D01*
X26540Y-21867D01*
X26540Y-21395D01*
X26203Y-21058D01*
X26133Y-21128D01*
X26133Y-20987D01*
X25796Y-20650D01*
X25697Y-20681D01*
X25619Y-20898D01*
X25629Y-21128D01*
X25697Y-21293D01*
X25796Y-21324D01*
X26133Y-20987D01*
X26133Y-21128D01*
X25867Y-21395D01*
X25898Y-21493D01*
X26114Y-21572D01*
X26345Y-21561D01*
X26509Y-21493D01*
X26540Y-21395D01*
X26540Y-21867D01*
X25158Y-21867D01*
X25158Y-21419D01*
X25147Y-21200D01*
X25085Y-21049D01*
X24989Y-21022D01*
X24919Y-21092D01*
X24919Y-20951D01*
X24893Y-20860D01*
X24893Y-20600D01*
X24893Y-19950D01*
X24368Y-19950D01*
X24368Y-20600D01*
X24893Y-20600D01*
X24893Y-20860D01*
X24891Y-20856D01*
X24685Y-20782D01*
X24467Y-20793D01*
X24316Y-20856D01*
X24288Y-20951D01*
X24603Y-21266D01*
X24919Y-20951D01*
X24919Y-21092D01*
X24674Y-21337D01*
X24989Y-21652D01*
X25085Y-21625D01*
X25158Y-21419D01*
X25158Y-21867D01*
X24773Y-21867D01*
X24891Y-21818D01*
X24919Y-21723D01*
X24603Y-21408D01*
X24533Y-21478D01*
X24533Y-21337D01*
X24218Y-21022D01*
X24122Y-21049D01*
X24052Y-21245D01*
X23985Y-21082D01*
X23869Y-20966D01*
X23869Y-20656D01*
X23869Y-20051D01*
X23345Y-20051D01*
X23345Y-20656D01*
X23869Y-20656D01*
X23869Y-20966D01*
X23859Y-20956D01*
X23693Y-20887D01*
X23514Y-20887D01*
X23349Y-20955D01*
X23222Y-21082D01*
X23154Y-21247D01*
X23153Y-21426D01*
X23222Y-21591D01*
X23348Y-21718D01*
X23514Y-21787D01*
X23693Y-21787D01*
X23858Y-21719D01*
X23985Y-21592D01*
X24053Y-21427D01*
X24053Y-21350D01*
X24060Y-21474D01*
X24122Y-21625D01*
X24218Y-21652D01*
X24533Y-21337D01*
X24533Y-21478D01*
X24288Y-21723D01*
X24316Y-21818D01*
X24453Y-21867D01*
X23054Y-21867D01*
X23054Y-21248D01*
X22985Y-21082D01*
X22859Y-20956D01*
X22845Y-20950D01*
X22845Y-20656D01*
X22845Y-20051D01*
X22321Y-20051D01*
X22321Y-20656D01*
X22845Y-20656D01*
X22845Y-20950D01*
X22693Y-20887D01*
X22514Y-20887D01*
X22349Y-20955D01*
X22222Y-21082D01*
X22154Y-21247D01*
X22153Y-21426D01*
X22222Y-21591D01*
X22348Y-21718D01*
X22514Y-21787D01*
X22693Y-21787D01*
X22858Y-21719D01*
X22985Y-21592D01*
X23053Y-21427D01*
X23054Y-21248D01*
X23054Y-21867D01*
X22054Y-21867D01*
X22054Y-21248D01*
X21985Y-21082D01*
X21861Y-20958D01*
X21861Y-20656D01*
X21861Y-20051D01*
X21337Y-20051D01*
X21337Y-20656D01*
X21861Y-20656D01*
X21861Y-20958D01*
X21859Y-20956D01*
X21693Y-20887D01*
X21514Y-20887D01*
X21349Y-20955D01*
X21222Y-21082D01*
X21154Y-21247D01*
X21153Y-21426D01*
X21222Y-21591D01*
X21348Y-21718D01*
X21514Y-21787D01*
X21693Y-21787D01*
X21858Y-21719D01*
X21985Y-21592D01*
X22053Y-21427D01*
X22054Y-21248D01*
X22054Y-21867D01*
X21054Y-21867D01*
X21054Y-21248D01*
X20985Y-21082D01*
X20859Y-20956D01*
X20837Y-20947D01*
X20837Y-20656D01*
X20837Y-20051D01*
X20313Y-20051D01*
X20313Y-20656D01*
X20837Y-20656D01*
X20837Y-20947D01*
X20693Y-20887D01*
X20514Y-20887D01*
X20349Y-20955D01*
X20222Y-21082D01*
X20154Y-21247D01*
X20153Y-21426D01*
X20222Y-21591D01*
X20348Y-21718D01*
X20514Y-21787D01*
X20693Y-21787D01*
X20858Y-21719D01*
X20985Y-21592D01*
X21053Y-21427D01*
X21054Y-21248D01*
X21054Y-21867D01*
X20054Y-21867D01*
X20054Y-21248D01*
X19985Y-21082D01*
X19859Y-20956D01*
X19814Y-20937D01*
X19814Y-20656D01*
X19814Y-20051D01*
X19289Y-20051D01*
X19289Y-20656D01*
X19814Y-20656D01*
X19814Y-20937D01*
X19693Y-20887D01*
X19514Y-20887D01*
X19349Y-20955D01*
X19222Y-21082D01*
X19154Y-21247D01*
X19153Y-21426D01*
X19222Y-21591D01*
X19348Y-21718D01*
X19514Y-21787D01*
X19693Y-21787D01*
X19858Y-21719D01*
X19985Y-21592D01*
X20053Y-21427D01*
X20054Y-21248D01*
X20054Y-21867D01*
X19054Y-21867D01*
X19054Y-21248D01*
X18985Y-21082D01*
X18859Y-20956D01*
X18830Y-20944D01*
X18830Y-20656D01*
X18830Y-20051D01*
X18305Y-20051D01*
X18305Y-20656D01*
X18830Y-20656D01*
X18830Y-20944D01*
X18693Y-20887D01*
X18514Y-20887D01*
X18349Y-20955D01*
X18222Y-21082D01*
X18154Y-21247D01*
X18153Y-21426D01*
X18222Y-21591D01*
X18348Y-21718D01*
X18514Y-21787D01*
X18693Y-21787D01*
X18858Y-21719D01*
X18985Y-21592D01*
X19053Y-21427D01*
X19054Y-21248D01*
X19054Y-21867D01*
X18054Y-21867D01*
X18054Y-21248D01*
X17985Y-21082D01*
X17859Y-20956D01*
X17845Y-20950D01*
X17845Y-20656D01*
X17845Y-20051D01*
X17321Y-20051D01*
X17321Y-20656D01*
X17845Y-20656D01*
X17845Y-20950D01*
X17693Y-20887D01*
X17514Y-20887D01*
X17349Y-20955D01*
X17222Y-21082D01*
X17154Y-21247D01*
X17153Y-21426D01*
X17222Y-21591D01*
X17348Y-21718D01*
X17514Y-21787D01*
X17693Y-21787D01*
X17858Y-21719D01*
X17985Y-21592D01*
X18053Y-21427D01*
X18054Y-21248D01*
X18054Y-21867D01*
X17054Y-21867D01*
X17054Y-21248D01*
X16985Y-21082D01*
X16859Y-20956D01*
X16693Y-20887D01*
X16514Y-20887D01*
X16349Y-20955D01*
X16222Y-21082D01*
X16154Y-21247D01*
X16153Y-21288D01*
X16153Y-21086D01*
X16153Y-20987D01*
X16115Y-20895D01*
X16045Y-20825D01*
X15953Y-20787D01*
X15877Y-20787D01*
X15877Y-20600D01*
X15877Y-19950D01*
X15352Y-19950D01*
X15352Y-20600D01*
X15877Y-20600D01*
X15877Y-20787D01*
X15716Y-20787D01*
X15653Y-20849D01*
X15653Y-21287D01*
X16091Y-21287D01*
X16153Y-21224D01*
X16153Y-21086D01*
X16153Y-21288D01*
X16153Y-21426D01*
X16222Y-21591D01*
X16348Y-21718D01*
X16514Y-21787D01*
X16693Y-21787D01*
X16858Y-21719D01*
X16985Y-21592D01*
X17053Y-21427D01*
X17054Y-21248D01*
X17054Y-21867D01*
X16001Y-21867D01*
X16045Y-21849D01*
X16115Y-21779D01*
X16153Y-21687D01*
X16153Y-21587D01*
X16153Y-21449D01*
X16091Y-21387D01*
X15653Y-21387D01*
X15653Y-21395D01*
X15553Y-21395D01*
X15553Y-21387D01*
X15546Y-21387D01*
X15546Y-21287D01*
X15553Y-21287D01*
X15553Y-20849D01*
X15491Y-20787D01*
X15254Y-20787D01*
X15162Y-20825D01*
X15092Y-20895D01*
X15053Y-20987D01*
X15053Y-21040D01*
X14989Y-21022D01*
X14919Y-21092D01*
X14919Y-20951D01*
X14891Y-20856D01*
X14853Y-20842D01*
X14853Y-20600D01*
X14853Y-19950D01*
X14329Y-19950D01*
X14329Y-20600D01*
X14853Y-20600D01*
X14853Y-20842D01*
X14685Y-20782D01*
X14467Y-20793D01*
X14316Y-20856D01*
X14288Y-20951D01*
X14603Y-21266D01*
X14919Y-20951D01*
X14919Y-21092D01*
X14674Y-21337D01*
X14989Y-21652D01*
X15053Y-21634D01*
X15053Y-21687D01*
X15092Y-21779D01*
X15162Y-21849D01*
X15206Y-21867D01*
X14773Y-21867D01*
X14891Y-21818D01*
X14919Y-21723D01*
X14603Y-21408D01*
X14533Y-21478D01*
X14533Y-21337D01*
X14218Y-21022D01*
X14122Y-21049D01*
X14052Y-21245D01*
X13985Y-21082D01*
X13869Y-20966D01*
X13869Y-20693D01*
X13869Y-19857D01*
X13345Y-19857D01*
X13345Y-20693D01*
X13869Y-20693D01*
X13869Y-20966D01*
X13859Y-20956D01*
X13693Y-20887D01*
X13514Y-20887D01*
X13349Y-20955D01*
X13222Y-21082D01*
X13154Y-21247D01*
X13153Y-21323D01*
X13147Y-21200D01*
X13085Y-21049D01*
X12989Y-21022D01*
X12919Y-21092D01*
X12919Y-20951D01*
X12891Y-20856D01*
X12845Y-20839D01*
X12845Y-20600D01*
X12845Y-19950D01*
X12321Y-19950D01*
X12321Y-20600D01*
X12845Y-20600D01*
X12845Y-20839D01*
X12685Y-20782D01*
X12467Y-20793D01*
X12316Y-20856D01*
X12288Y-20951D01*
X12603Y-21266D01*
X12919Y-20951D01*
X12919Y-21092D01*
X12674Y-21337D01*
X12989Y-21652D01*
X13085Y-21625D01*
X13155Y-21429D01*
X13222Y-21591D01*
X13348Y-21718D01*
X13514Y-21787D01*
X13693Y-21787D01*
X13858Y-21719D01*
X13985Y-21592D01*
X14053Y-21427D01*
X14053Y-21350D01*
X14060Y-21474D01*
X14122Y-21625D01*
X14218Y-21652D01*
X14533Y-21337D01*
X14533Y-21478D01*
X14288Y-21723D01*
X14316Y-21818D01*
X14453Y-21867D01*
X12773Y-21867D01*
X12891Y-21818D01*
X12919Y-21723D01*
X12603Y-21408D01*
X12533Y-21478D01*
X12533Y-21337D01*
X12218Y-21022D01*
X12122Y-21049D01*
X12053Y-21242D01*
X12053Y-21007D01*
X12031Y-20952D01*
X11989Y-20910D01*
X11933Y-20887D01*
X11874Y-20887D01*
X11861Y-20887D01*
X11861Y-20693D01*
X11861Y-19857D01*
X11337Y-19857D01*
X11337Y-20693D01*
X11861Y-20693D01*
X11861Y-20887D01*
X11274Y-20887D01*
X11219Y-20910D01*
X11176Y-20952D01*
X11153Y-21007D01*
X11153Y-21067D01*
X11153Y-21073D01*
X11147Y-20950D01*
X11085Y-20799D01*
X10989Y-20772D01*
X10919Y-20842D01*
X10919Y-20701D01*
X10891Y-20606D01*
X10876Y-20600D01*
X10877Y-20600D01*
X10877Y-19950D01*
X10352Y-19950D01*
X10352Y-20590D01*
X10316Y-20606D01*
X10288Y-20701D01*
X10603Y-21016D01*
X10919Y-20701D01*
X10919Y-20842D01*
X10674Y-21087D01*
X10989Y-21402D01*
X11085Y-21375D01*
X11153Y-21182D01*
X11153Y-21667D01*
X11176Y-21722D01*
X11218Y-21764D01*
X11273Y-21787D01*
X11333Y-21787D01*
X11933Y-21787D01*
X11988Y-21764D01*
X12031Y-21722D01*
X12053Y-21667D01*
X12053Y-21607D01*
X12053Y-21351D01*
X12060Y-21474D01*
X12122Y-21625D01*
X12218Y-21652D01*
X12533Y-21337D01*
X12533Y-21478D01*
X12288Y-21723D01*
X12316Y-21818D01*
X12453Y-21867D01*
X10919Y-21867D01*
X10919Y-21473D01*
X10603Y-21158D01*
X10533Y-21228D01*
X10533Y-21087D01*
X10218Y-20772D01*
X10122Y-20799D01*
X10052Y-20995D01*
X9985Y-20832D01*
X9859Y-20706D01*
X9733Y-20654D01*
X9853Y-20654D01*
X9853Y-19897D01*
X9329Y-19897D01*
X9329Y-20654D01*
X9474Y-20654D01*
X9349Y-20705D01*
X9222Y-20832D01*
X9154Y-20997D01*
X9153Y-21176D01*
X9222Y-21341D01*
X9348Y-21468D01*
X9514Y-21537D01*
X9693Y-21537D01*
X9858Y-21469D01*
X9985Y-21342D01*
X10053Y-21177D01*
X10053Y-21100D01*
X10060Y-21224D01*
X10122Y-21375D01*
X10218Y-21402D01*
X10533Y-21087D01*
X10533Y-21228D01*
X10288Y-21473D01*
X10316Y-21568D01*
X10522Y-21642D01*
X10740Y-21631D01*
X10891Y-21568D01*
X10919Y-21473D01*
X10919Y-21867D01*
X9054Y-21867D01*
X9054Y-20998D01*
X8985Y-20832D01*
X8859Y-20706D01*
X8830Y-20694D01*
X8830Y-20614D01*
X8830Y-19857D01*
X8305Y-19857D01*
X8305Y-20614D01*
X8830Y-20614D01*
X8830Y-20694D01*
X8693Y-20637D01*
X8514Y-20637D01*
X8349Y-20705D01*
X8222Y-20832D01*
X8154Y-20997D01*
X8153Y-21176D01*
X8222Y-21341D01*
X8348Y-21468D01*
X8514Y-21537D01*
X8693Y-21537D01*
X8858Y-21469D01*
X8985Y-21342D01*
X9053Y-21177D01*
X9054Y-20998D01*
X9054Y-21867D01*
X8054Y-21867D01*
X8054Y-20998D01*
X7985Y-20832D01*
X7859Y-20706D01*
X7845Y-20700D01*
X7845Y-20614D01*
X7845Y-19857D01*
X7321Y-19857D01*
X7321Y-20614D01*
X7845Y-20614D01*
X7845Y-20700D01*
X7693Y-20637D01*
X7514Y-20637D01*
X7349Y-20705D01*
X7222Y-20832D01*
X7154Y-20997D01*
X7153Y-21176D01*
X7222Y-21341D01*
X7348Y-21468D01*
X7514Y-21537D01*
X7693Y-21537D01*
X7858Y-21469D01*
X7985Y-21342D01*
X8053Y-21177D01*
X8054Y-20998D01*
X8054Y-21867D01*
X7054Y-21867D01*
X7054Y-20998D01*
X6985Y-20832D01*
X6861Y-20708D01*
X6861Y-20614D01*
X6861Y-19857D01*
X6337Y-19857D01*
X6337Y-20614D01*
X6861Y-20614D01*
X6861Y-20708D01*
X6859Y-20706D01*
X6693Y-20637D01*
X6514Y-20637D01*
X6349Y-20705D01*
X6222Y-20832D01*
X6154Y-20997D01*
X6153Y-21176D01*
X6222Y-21341D01*
X6348Y-21468D01*
X6514Y-21537D01*
X6693Y-21537D01*
X6858Y-21469D01*
X6985Y-21342D01*
X7053Y-21177D01*
X7054Y-20998D01*
X7054Y-21867D01*
X6054Y-21867D01*
X6054Y-20998D01*
X5985Y-20832D01*
X5859Y-20706D01*
X5837Y-20697D01*
X5837Y-20614D01*
X5837Y-19857D01*
X5313Y-19857D01*
X5313Y-20614D01*
X5837Y-20614D01*
X5837Y-20697D01*
X5693Y-20637D01*
X5514Y-20637D01*
X5349Y-20705D01*
X5222Y-20832D01*
X5154Y-20997D01*
X5153Y-21176D01*
X5222Y-21341D01*
X5348Y-21468D01*
X5514Y-21537D01*
X5693Y-21537D01*
X5858Y-21469D01*
X5985Y-21342D01*
X6053Y-21177D01*
X6054Y-20998D01*
X6054Y-21867D01*
X5054Y-21867D01*
X5054Y-20998D01*
X4985Y-20832D01*
X4859Y-20706D01*
X4853Y-20703D01*
X4853Y-20614D01*
X4853Y-19857D01*
X4329Y-19857D01*
X4329Y-20614D01*
X4853Y-20614D01*
X4853Y-20703D01*
X4693Y-20637D01*
X4514Y-20637D01*
X4349Y-20705D01*
X4222Y-20832D01*
X4154Y-20997D01*
X4153Y-21176D01*
X4222Y-21341D01*
X4348Y-21468D01*
X4514Y-21537D01*
X4693Y-21537D01*
X4858Y-21469D01*
X4985Y-21342D01*
X5053Y-21177D01*
X5054Y-20998D01*
X5054Y-21867D01*
X4053Y-21867D01*
X4053Y-21357D01*
X4053Y-20757D01*
X4031Y-20702D01*
X3989Y-20660D01*
X3933Y-20637D01*
X3874Y-20637D01*
X3830Y-20637D01*
X3830Y-20614D01*
X3830Y-19857D01*
X3305Y-19857D01*
X3305Y-20614D01*
X3830Y-20614D01*
X3830Y-20637D01*
X3274Y-20637D01*
X3219Y-20660D01*
X3203Y-20675D01*
X3203Y-19794D01*
X2986Y-19268D01*
X2584Y-18866D01*
X2358Y-18772D01*
X2358Y-14769D01*
X2358Y-13769D01*
X2347Y-13550D01*
X2285Y-13399D01*
X2254Y-13390D01*
X2254Y-12598D01*
X2254Y-11598D01*
X2254Y-10598D01*
X2185Y-10432D01*
X2059Y-10306D01*
X1893Y-10237D01*
X1714Y-10237D01*
X1549Y-10305D01*
X1422Y-10432D01*
X1354Y-10597D01*
X1353Y-10776D01*
X1422Y-10941D01*
X1548Y-11068D01*
X1714Y-11137D01*
X1893Y-11137D01*
X2058Y-11069D01*
X2185Y-10942D01*
X2253Y-10777D01*
X2254Y-10598D01*
X2254Y-11598D01*
X2185Y-11432D01*
X2059Y-11306D01*
X1893Y-11237D01*
X1714Y-11237D01*
X1549Y-11305D01*
X1422Y-11432D01*
X1354Y-11597D01*
X1353Y-11776D01*
X1422Y-11941D01*
X1548Y-12068D01*
X1714Y-12137D01*
X1893Y-12137D01*
X2058Y-12069D01*
X2185Y-11942D01*
X2253Y-11777D01*
X2254Y-11598D01*
X2254Y-12598D01*
X2185Y-12432D01*
X2059Y-12306D01*
X1893Y-12237D01*
X1714Y-12237D01*
X1549Y-12305D01*
X1422Y-12432D01*
X1354Y-12597D01*
X1353Y-12776D01*
X1422Y-12941D01*
X1548Y-13068D01*
X1714Y-13137D01*
X1790Y-13137D01*
X1667Y-13143D01*
X1516Y-13206D01*
X1488Y-13301D01*
X1803Y-13616D01*
X2119Y-13301D01*
X2091Y-13206D01*
X1895Y-13136D01*
X2058Y-13069D01*
X2185Y-12942D01*
X2253Y-12777D01*
X2254Y-12598D01*
X2254Y-13390D01*
X2189Y-13372D01*
X1874Y-13687D01*
X2189Y-14002D01*
X2285Y-13975D01*
X2358Y-13769D01*
X2358Y-14769D01*
X2347Y-14550D01*
X2285Y-14399D01*
X2189Y-14372D01*
X2119Y-14442D01*
X2119Y-14301D01*
X2091Y-14206D01*
X2043Y-14188D01*
X2091Y-14168D01*
X2119Y-14073D01*
X1803Y-13758D01*
X1733Y-13828D01*
X1733Y-13687D01*
X1418Y-13372D01*
X1322Y-13399D01*
X1297Y-13470D01*
X1268Y-13401D01*
X1237Y-13392D01*
X1237Y-12599D01*
X1237Y-11599D01*
X1237Y-10599D01*
X1237Y-9599D01*
X1237Y-8599D01*
X1237Y-7599D01*
X1169Y-7434D01*
X1042Y-7307D01*
X877Y-7239D01*
X698Y-7238D01*
X532Y-7307D01*
X406Y-7433D01*
X337Y-7599D01*
X337Y-7778D01*
X405Y-7943D01*
X532Y-8070D01*
X697Y-8138D01*
X876Y-8139D01*
X1041Y-8070D01*
X1168Y-7944D01*
X1237Y-7778D01*
X1237Y-7599D01*
X1237Y-8599D01*
X1169Y-8434D01*
X1042Y-8307D01*
X877Y-8239D01*
X698Y-8238D01*
X532Y-8307D01*
X406Y-8433D01*
X337Y-8599D01*
X337Y-8778D01*
X405Y-8943D01*
X532Y-9070D01*
X697Y-9138D01*
X876Y-9139D01*
X1041Y-9070D01*
X1168Y-8944D01*
X1237Y-8778D01*
X1237Y-8599D01*
X1237Y-9599D01*
X1169Y-9434D01*
X1042Y-9307D01*
X877Y-9239D01*
X698Y-9238D01*
X532Y-9307D01*
X406Y-9433D01*
X337Y-9599D01*
X337Y-9778D01*
X405Y-9943D01*
X532Y-10070D01*
X697Y-10138D01*
X876Y-10139D01*
X1041Y-10070D01*
X1168Y-9944D01*
X1237Y-9778D01*
X1237Y-9599D01*
X1237Y-10599D01*
X1169Y-10434D01*
X1042Y-10307D01*
X877Y-10239D01*
X698Y-10238D01*
X532Y-10307D01*
X406Y-10433D01*
X337Y-10599D01*
X337Y-10778D01*
X405Y-10943D01*
X532Y-11070D01*
X697Y-11138D01*
X876Y-11139D01*
X1041Y-11070D01*
X1168Y-10944D01*
X1237Y-10778D01*
X1237Y-10599D01*
X1237Y-11599D01*
X1169Y-11434D01*
X1042Y-11307D01*
X877Y-11239D01*
X698Y-11238D01*
X532Y-11307D01*
X406Y-11433D01*
X337Y-11599D01*
X337Y-11778D01*
X405Y-11943D01*
X532Y-12070D01*
X697Y-12138D01*
X876Y-12139D01*
X1041Y-12070D01*
X1168Y-11944D01*
X1237Y-11778D01*
X1237Y-11599D01*
X1237Y-12599D01*
X1169Y-12434D01*
X1042Y-12307D01*
X877Y-12239D01*
X698Y-12238D01*
X532Y-12307D01*
X406Y-12433D01*
X337Y-12599D01*
X337Y-12778D01*
X405Y-12943D01*
X532Y-13070D01*
X697Y-13138D01*
X773Y-13138D01*
X650Y-13145D01*
X499Y-13207D01*
X472Y-13303D01*
X787Y-13618D01*
X1102Y-13303D01*
X1075Y-13207D01*
X879Y-13137D01*
X1041Y-13070D01*
X1168Y-12944D01*
X1237Y-12778D01*
X1237Y-12599D01*
X1237Y-13392D01*
X1173Y-13373D01*
X858Y-13688D01*
X1173Y-14004D01*
X1268Y-13976D01*
X1293Y-13905D01*
X1322Y-13975D01*
X1418Y-14002D01*
X1733Y-13687D01*
X1733Y-13828D01*
X1488Y-14073D01*
X1516Y-14168D01*
X1564Y-14186D01*
X1516Y-14206D01*
X1488Y-14301D01*
X1803Y-14616D01*
X2119Y-14301D01*
X2119Y-14442D01*
X1874Y-14687D01*
X2189Y-15002D01*
X2285Y-14975D01*
X2358Y-14769D01*
X2358Y-18772D01*
X2254Y-18728D01*
X2254Y-16598D01*
X2254Y-15598D01*
X2185Y-15432D01*
X2059Y-15306D01*
X1893Y-15237D01*
X1817Y-15237D01*
X1940Y-15231D01*
X2091Y-15168D01*
X2119Y-15073D01*
X1803Y-14758D01*
X1733Y-14828D01*
X1733Y-14687D01*
X1418Y-14372D01*
X1322Y-14399D01*
X1297Y-14470D01*
X1268Y-14401D01*
X1173Y-14373D01*
X1102Y-14444D01*
X1102Y-14303D01*
X1075Y-14207D01*
X1026Y-14190D01*
X1075Y-14170D01*
X1102Y-14074D01*
X787Y-13759D01*
X716Y-13830D01*
X716Y-13688D01*
X401Y-13373D01*
X306Y-13401D01*
X232Y-13607D01*
X243Y-13825D01*
X306Y-13976D01*
X401Y-14004D01*
X716Y-13688D01*
X716Y-13830D01*
X472Y-14074D01*
X499Y-14170D01*
X548Y-14187D01*
X499Y-14207D01*
X472Y-14303D01*
X787Y-14618D01*
X1102Y-14303D01*
X1102Y-14444D01*
X858Y-14688D01*
X1173Y-15004D01*
X1268Y-14976D01*
X1293Y-14905D01*
X1322Y-14975D01*
X1418Y-15002D01*
X1733Y-14687D01*
X1733Y-14828D01*
X1488Y-15073D01*
X1516Y-15168D01*
X1711Y-15238D01*
X1549Y-15305D01*
X1422Y-15432D01*
X1354Y-15597D01*
X1353Y-15776D01*
X1422Y-15941D01*
X1548Y-16068D01*
X1714Y-16137D01*
X1893Y-16137D01*
X2058Y-16069D01*
X2185Y-15942D01*
X2253Y-15777D01*
X2254Y-15598D01*
X2254Y-16598D01*
X2185Y-16432D01*
X2059Y-16306D01*
X1893Y-16237D01*
X1714Y-16237D01*
X1549Y-16305D01*
X1422Y-16432D01*
X1354Y-16597D01*
X1353Y-16776D01*
X1422Y-16941D01*
X1548Y-17068D01*
X1714Y-17137D01*
X1893Y-17137D01*
X2058Y-17069D01*
X2185Y-16942D01*
X2253Y-16777D01*
X2254Y-16598D01*
X2254Y-18728D01*
X2253Y-18728D01*
X2253Y-17957D01*
X2253Y-17357D01*
X2231Y-17302D01*
X2189Y-17260D01*
X2133Y-17237D01*
X2074Y-17237D01*
X1474Y-17237D01*
X1419Y-17260D01*
X1376Y-17302D01*
X1353Y-17357D01*
X1353Y-17417D01*
X1353Y-18017D01*
X1376Y-18072D01*
X1418Y-18114D01*
X1473Y-18137D01*
X1533Y-18137D01*
X2133Y-18137D01*
X2188Y-18114D01*
X2231Y-18072D01*
X2253Y-18017D01*
X2253Y-17957D01*
X2253Y-18728D01*
X2059Y-18648D01*
X1490Y-18647D01*
X1237Y-18752D01*
X1237Y-16599D01*
X1237Y-15599D01*
X1169Y-15434D01*
X1042Y-15307D01*
X877Y-15239D01*
X800Y-15238D01*
X924Y-15232D01*
X1075Y-15170D01*
X1102Y-15074D01*
X787Y-14759D01*
X716Y-14830D01*
X716Y-14688D01*
X401Y-14373D01*
X306Y-14401D01*
X232Y-14607D01*
X243Y-14825D01*
X306Y-14976D01*
X401Y-15004D01*
X716Y-14688D01*
X716Y-14830D01*
X472Y-15074D01*
X499Y-15170D01*
X695Y-15240D01*
X532Y-15307D01*
X406Y-15433D01*
X337Y-15599D01*
X337Y-15778D01*
X405Y-15943D01*
X532Y-16070D01*
X697Y-16138D01*
X876Y-16139D01*
X1041Y-16070D01*
X1168Y-15944D01*
X1237Y-15778D01*
X1237Y-15599D01*
X1237Y-16599D01*
X1169Y-16434D01*
X1042Y-16307D01*
X877Y-16239D01*
X698Y-16238D01*
X532Y-16307D01*
X406Y-16433D01*
X337Y-16599D01*
X337Y-16778D01*
X405Y-16943D01*
X532Y-17070D01*
X697Y-17138D01*
X876Y-17139D01*
X1041Y-17070D01*
X1168Y-16944D01*
X1237Y-16778D01*
X1237Y-16599D01*
X1237Y-18752D01*
X1237Y-18752D01*
X1237Y-17959D01*
X1237Y-17359D01*
X1214Y-17304D01*
X1172Y-17261D01*
X1117Y-17239D01*
X1057Y-17238D01*
X457Y-17238D01*
X402Y-17261D01*
X360Y-17303D01*
X337Y-17359D01*
X337Y-17418D01*
X337Y-18018D01*
X360Y-18073D01*
X402Y-18116D01*
X457Y-18138D01*
X517Y-18139D01*
X1117Y-18139D01*
X1172Y-18116D01*
X1214Y-18074D01*
X1237Y-18018D01*
X1237Y-17959D01*
X1237Y-18752D01*
X965Y-18864D01*
X562Y-19266D01*
X344Y-19791D01*
X344Y-20360D01*
X561Y-20886D01*
X963Y-21288D01*
X1488Y-21506D01*
X2057Y-21507D01*
X2582Y-21290D01*
X2985Y-20888D01*
X3203Y-20362D01*
X3203Y-19794D01*
X3203Y-20675D01*
X3176Y-20702D01*
X3153Y-20757D01*
X3153Y-20817D01*
X3153Y-21417D01*
X3176Y-21472D01*
X3218Y-21514D01*
X3273Y-21537D01*
X3333Y-21537D01*
X3933Y-21537D01*
X3988Y-21514D01*
X4031Y-21472D01*
X4053Y-21417D01*
X4053Y-21357D01*
X4053Y-21867D01*
X271Y-21867D01*
X179Y-21776D01*
X179Y-271D01*
X271Y-179D01*
X1729Y-179D01*
X1700Y-208D01*
X1638Y-302D01*
X1628Y-351D01*
X1628Y-351D01*
X1522Y-457D01*
X1454Y-622D01*
X1453Y-801D01*
X1522Y-966D01*
X1648Y-1093D01*
X1814Y-1162D01*
X1993Y-1162D01*
X2158Y-1094D01*
X2285Y-967D01*
X2353Y-802D01*
X2353Y-725D01*
X2360Y-849D01*
X2422Y-1000D01*
X2518Y-1027D01*
X2833Y-712D01*
X2827Y-706D01*
X2898Y-636D01*
X2903Y-641D01*
X2909Y-636D01*
X2980Y-706D01*
X2974Y-712D01*
X3289Y-1027D01*
X3385Y-1000D01*
X3453Y-807D01*
X3453Y-1042D01*
X3476Y-1097D01*
X3518Y-1139D01*
X3573Y-1162D01*
X3633Y-1162D01*
X4233Y-1162D01*
X4288Y-1139D01*
X4331Y-1097D01*
X4353Y-1042D01*
X4353Y-982D01*
X4353Y-494D01*
X4462Y-602D01*
X4454Y-622D01*
X4453Y-801D01*
X4522Y-966D01*
X4648Y-1093D01*
X4814Y-1162D01*
X4993Y-1162D01*
X5158Y-1094D01*
X5285Y-967D01*
X5353Y-802D01*
X5353Y-725D01*
X5360Y-849D01*
X5422Y-1000D01*
X5518Y-1027D01*
X5833Y-712D01*
X5827Y-706D01*
X5898Y-636D01*
X5903Y-641D01*
X5909Y-636D01*
X5980Y-706D01*
X5974Y-712D01*
X6289Y-1027D01*
X6385Y-1000D01*
X6453Y-807D01*
X6453Y-1042D01*
X6476Y-1097D01*
X6518Y-1139D01*
X6573Y-1162D01*
X6633Y-1162D01*
X7233Y-1162D01*
X7288Y-1139D01*
X7331Y-1097D01*
X7353Y-1042D01*
X7353Y-982D01*
X7353Y-464D01*
X7374Y-464D01*
X7476Y-567D01*
X7454Y-622D01*
X7453Y-801D01*
X7522Y-966D01*
X7648Y-1093D01*
X7814Y-1162D01*
X7993Y-1162D01*
X8158Y-1094D01*
X8285Y-967D01*
X8353Y-802D01*
X8353Y-725D01*
X8360Y-849D01*
X8422Y-1000D01*
X8518Y-1027D01*
X8833Y-712D01*
X8827Y-706D01*
X8898Y-636D01*
X8903Y-641D01*
X8909Y-636D01*
X8980Y-706D01*
X8974Y-712D01*
X9289Y-1027D01*
X9385Y-1000D01*
X9453Y-807D01*
X9453Y-1042D01*
X9476Y-1097D01*
X9518Y-1139D01*
X9573Y-1162D01*
X9633Y-1162D01*
X10233Y-1162D01*
X10288Y-1139D01*
X10331Y-1097D01*
X10353Y-1042D01*
X10353Y-982D01*
X10353Y-464D01*
X10519Y-464D01*
X10454Y-622D01*
X10453Y-801D01*
X10522Y-966D01*
X10648Y-1093D01*
X10814Y-1162D01*
X10993Y-1162D01*
X11158Y-1094D01*
X11285Y-967D01*
X11353Y-802D01*
X11353Y-725D01*
X11360Y-849D01*
X11422Y-1000D01*
X11518Y-1027D01*
X11833Y-712D01*
X11827Y-706D01*
X11898Y-636D01*
X11903Y-641D01*
X11909Y-636D01*
X11980Y-706D01*
X11974Y-712D01*
X12289Y-1027D01*
X12385Y-1000D01*
X12453Y-807D01*
X12453Y-1042D01*
X12476Y-1097D01*
X12518Y-1139D01*
X12573Y-1162D01*
X12633Y-1162D01*
X13233Y-1162D01*
X13288Y-1139D01*
X13331Y-1097D01*
X13353Y-1042D01*
X13353Y-982D01*
X13353Y-464D01*
X13519Y-464D01*
X13454Y-622D01*
X13453Y-801D01*
X13522Y-966D01*
X13557Y-1001D01*
X13557Y-1212D01*
X13557Y-2742D01*
X13583Y-2875D01*
X13658Y-2987D01*
X14262Y-3591D01*
X14375Y-3666D01*
X14507Y-3693D01*
X14640Y-3666D01*
X14753Y-3591D01*
X14828Y-3479D01*
X14854Y-3346D01*
X14828Y-3213D01*
X14753Y-3101D01*
X14250Y-2598D01*
X14250Y-1212D01*
X14250Y-1001D01*
X14285Y-967D01*
X14353Y-802D01*
X14353Y-725D01*
X14360Y-849D01*
X14422Y-1000D01*
X14518Y-1027D01*
X14833Y-712D01*
X14827Y-706D01*
X14898Y-636D01*
X14903Y-641D01*
X14909Y-636D01*
X14980Y-706D01*
X14974Y-712D01*
X15289Y-1027D01*
X15385Y-1000D01*
X15453Y-807D01*
X15453Y-1042D01*
X15476Y-1097D01*
X15518Y-1139D01*
X15573Y-1162D01*
X15633Y-1162D01*
X16233Y-1162D01*
X16288Y-1139D01*
X16331Y-1097D01*
X16353Y-1042D01*
X16353Y-982D01*
X16353Y-464D01*
X16519Y-464D01*
X16454Y-622D01*
X16453Y-801D01*
X16522Y-966D01*
X16648Y-1093D01*
X16814Y-1162D01*
X16993Y-1162D01*
X17158Y-1094D01*
X17285Y-967D01*
X17353Y-802D01*
X17353Y-725D01*
X17360Y-849D01*
X17422Y-1000D01*
X17518Y-1027D01*
X17833Y-712D01*
X17827Y-706D01*
X17898Y-636D01*
X17903Y-641D01*
X17909Y-636D01*
X17980Y-706D01*
X17974Y-712D01*
X18289Y-1027D01*
X18385Y-1000D01*
X18453Y-807D01*
X18453Y-1042D01*
X18476Y-1097D01*
X18518Y-1139D01*
X18573Y-1162D01*
X18633Y-1162D01*
X19233Y-1162D01*
X19288Y-1139D01*
X19331Y-1097D01*
X19353Y-1042D01*
X19353Y-982D01*
X19353Y-464D01*
X19519Y-464D01*
X19454Y-622D01*
X19453Y-801D01*
X19522Y-966D01*
X19648Y-1093D01*
X19814Y-1162D01*
X19993Y-1162D01*
X20158Y-1094D01*
X20285Y-967D01*
X20353Y-802D01*
X20353Y-725D01*
X20360Y-849D01*
X20422Y-1000D01*
X20518Y-1027D01*
X20833Y-712D01*
X20827Y-706D01*
X20898Y-636D01*
X20903Y-641D01*
X20909Y-636D01*
X20980Y-706D01*
X20974Y-712D01*
X21289Y-1027D01*
X21385Y-1000D01*
X21453Y-807D01*
X21453Y-1042D01*
X21476Y-1097D01*
X21518Y-1139D01*
X21573Y-1162D01*
X21633Y-1162D01*
X22233Y-1162D01*
X22288Y-1139D01*
X22331Y-1097D01*
X22353Y-1042D01*
X22353Y-982D01*
X22353Y-464D01*
X22519Y-464D01*
X22454Y-622D01*
X22453Y-801D01*
X22522Y-966D01*
X22648Y-1093D01*
X22814Y-1162D01*
X22993Y-1162D01*
X23158Y-1094D01*
X23285Y-967D01*
X23353Y-802D01*
X23353Y-725D01*
X23360Y-849D01*
X23422Y-1000D01*
X23518Y-1027D01*
X23833Y-712D01*
X23518Y-397D01*
X23422Y-424D01*
X23352Y-620D01*
X23285Y-457D01*
X23181Y-353D01*
X23169Y-293D01*
X23169Y-293D01*
X23107Y-200D01*
X23086Y-179D01*
X23740Y-179D01*
X23616Y-231D01*
X23588Y-326D01*
X23903Y-641D01*
X24219Y-326D01*
X24191Y-231D01*
X24047Y-179D01*
X33193Y-179D01*
X33285Y-271D01*
X33285Y-21776D01*
M02*
